/* XPM */
static const char *arrow_xpm[] = {
/* width height num_colors chars_per_pixel */
"    16    16      256            2",
/* colors */
"`` c None",
"`. c #e7eaf5",
"`# c #d3ddee",
"`a c #cad3e6",
"`b c #7a98d1",
"`c c #c3d0e6",
"`d c #c8d1e5",
"`e c #91acdd",
"`f c #8ea5d3",
"`g c #b5c2de",
"`h c #c3cde3",
"`i c #9eb4dd",
"`j c #adbedf",
"`k c #a6b5d5",
"`l c #a9b7d5",
"`m c #c1c9e0",
"`n c #9fb4dd",
"`o c #b5c3df",
"`p c #a6b6d9",
"`q c #93a3cd",
"`r c #bcc5df",
"`s c #8dabdc",
"`t c #97b1de",
"`u c #9fb5de",
"`v c #9cb3de",
"`w c #91abdb",
"`x c #7b93c6",
"`y c #b8c3dc",
"`z c #6c9ada",
"`A c #6498d9",
"`B c #6799da",
"`C c #6c9bdb",
"`D c #779edc",
"`E c #8398cb",
"`F c #b6c1db",
"`G c #5f92da",
"`H c #5991d9",
"`I c #6593da",
"`J c #8b9ecc",
"`K c #b5c0db",
"`L c #598fda",
"`M c #548ed9",
"`N c #6491d8",
"`O c #99a9d1",
"`P c #b3bedb",
"`Q c #5a8fda",
"`R c #6b90d4",
"`S c #b0bcda",
"`T c #b3bddb",
"`U c #7592cf",
"`V c #c8d1e6",
"`W c #dadfec",
"`X c #e0e4ef",
"`Y c #000000",
"`Z c #000000",
"`0 c #000000",
"`1 c #000000",
"`2 c #000000",
"`3 c #000000",
"`4 c #000000",
"`5 c #000000",
"`6 c #000000",
"`7 c #000000",
"`8 c #000000",
".` c #000000",
".. c #000000",
".# c #000000",
".a c #000000",
".b c #000000",
".c c #000000",
".d c #000000",
".e c #000000",
".f c #000000",
".g c #000000",
".h c #000000",
".i c #000000",
".j c #000000",
".k c #000000",
".l c #000000",
".m c #000000",
".n c #000000",
".o c #000000",
".p c #000000",
".q c #000000",
".r c #000000",
".s c #000000",
".t c #000000",
".u c #000000",
".v c #000000",
".w c #000000",
".x c #000000",
".y c #000000",
".z c #000000",
".A c #000000",
".B c #000000",
".C c #000000",
".D c #000000",
".E c #000000",
".F c #000000",
".G c #000000",
".H c #000000",
".I c #000000",
".J c #000000",
".K c #000000",
".L c #000000",
".M c #000000",
".N c #000000",
".O c #000000",
".P c #000000",
".Q c #000000",
".R c #000000",
".S c #000000",
".T c #000000",
".U c #000000",
".V c #000000",
".W c #000000",
".X c #000000",
".Y c #000000",
".Z c #000000",
".0 c #000000",
".1 c #000000",
".2 c #000000",
".3 c #000000",
".4 c #000000",
".5 c #000000",
".6 c #000000",
".7 c #000000",
".8 c #000000",
"#` c #000000",
"#. c #000000",
"## c #000000",
"#a c #000000",
"#b c #000000",
"#c c #000000",
"#d c #000000",
"#e c #000000",
"#f c #000000",
"#g c #000000",
"#h c #000000",
"#i c #000000",
"#j c #000000",
"#k c #000000",
"#l c #000000",
"#m c #000000",
"#n c #000000",
"#o c #000000",
"#p c #000000",
"#q c #000000",
"#r c #000000",
"#s c #000000",
"#t c #000000",
"#u c #000000",
"#v c #000000",
"#w c #000000",
"#x c #000000",
"#y c #000000",
"#z c #000000",
"#A c #000000",
"#B c #000000",
"#C c #000000",
"#D c #000000",
"#E c #000000",
"#F c #000000",
"#G c #000000",
"#H c #000000",
"#I c #000000",
"#J c #000000",
"#K c #000000",
"#L c #000000",
"#M c #000000",
"#N c #000000",
"#O c #000000",
"#P c #000000",
"#Q c #000000",
"#R c #000000",
"#S c #000000",
"#T c #000000",
"#U c #000000",
"#V c #000000",
"#W c #000000",
"#X c #000000",
"#Y c #000000",
"#Z c #000000",
"#0 c #000000",
"#1 c #000000",
"#2 c #000000",
"#3 c #000000",
"#4 c #000000",
"#5 c #000000",
"#6 c #000000",
"#7 c #000000",
"#8 c #000000",
"a` c #000000",
"a. c #000000",
"a# c #000000",
"aa c #000000",
"ab c #000000",
"ac c #000000",
"ad c #000000",
"ae c #000000",
"af c #000000",
"ag c #000000",
"ah c #000000",
"ai c #000000",
"aj c #000000",
"ak c #000000",
"al c #000000",
"am c #000000",
"an c #000000",
"ao c #000000",
"ap c #000000",
"aq c #000000",
"ar c #000000",
"as c #000000",
"at c #000000",
"au c #000000",
"av c #000000",
"aw c #000000",
"ax c #000000",
"ay c #000000",
"az c #000000",
"aA c #000000",
"aB c #000000",
"aC c #000000",
"aD c #000000",
"aE c #000000",
"aF c #000000",
"aG c #000000",
"aH c #000000",
"aI c #000000",
"aJ c #000000",
"aK c #000000",
"aL c #000000",
"aM c #000000",
"aN c #000000",
"aO c #000000",
"aP c #000000",
"aQ c #000000",
"aR c #000000",
"aS c #000000",
"aT c #000000",
"aU c #000000",
"aV c #000000",
"aW c #000000",
"aX c #000000",
"aY c #000000",
"aZ c #000000",
"a0 c #000000",
"a1 c #000000",
"a2 c #000000",
"a3 c #000000",
"a4 c #000000",
"a5 c #000000",
"a6 c #000000",
"a7 c #000000",
"a8 c #000000",
/* pixels */
"````````````````````````````````",
"````````````````````````````````",
"`````````.`#````````````````````",
"`````````a`b`c``````````````````",
"`````````d`e`f`g````````````````",
"`````````h`i`j`k`l``````````````",
"`````````m`n`j`o`p`q````````````",
"`````````r`s`t`u`v`w`x``````````",
"`````````y`z`A`B`C`D`E``````````",
"`````````F`G`H`H`I`J````````````",
"`````````K`L`M`N`O``````````````",
"`````````P`Q`R`S````````````````",
"`````````T`U`V``````````````````",
"`````````W`X````````````````````",
"````````````````````````````````",
"````````````````````````````````"
};
