/* XPM */
static const char *cancel_map_rotate_xpm[] = {
/* width height num_colors chars_per_pixel */
"    16    16      256            2",
/* colors */
"`` c None",
"`. c #ff6161",
"`# c #ff7575",
"`a c #ff9e9e",
"`b c #ffc7c7",
"`c c #fff0f0",
"`d c #fccdcd",
"`e c #f61112",
"`f c #f70c0e",
"`g c #f8191b",
"`h c #fb7879",
"`i c #ffc4c5",
"`j c #f7bcbf",
"`k c #e32b31",
"`l c #ec7073",
"`m c #fdf1f1",
"`n c #dddde6",
"`o c #a1a3bd",
"`p c #8a8dac",
"`q c #8689a9",
"`r c #a6a7be",
"`s c #db6268",
"`t c #e4898e",
"`u c #fbfbfb",
"`v c #9ea0b8",
"`w c #b5b6c6",
"`x c #c3c9d3",
"`y c #f3f3f3",
"`z c #adb9c9",
"`A c #9fadca",
"`B c #9395ab",
"`C c #adaec4",
"`D c #cf727b",
"`E c #fbf5f5",
"`F c #9c9eb8",
"`G c #d4d5db",
"`H c #c9cfd5",
"`I c #d2dee9",
"`J c #c9d5e3",
"`K c #c2d1e5",
"`L c #b7c2cd",
"`M c #cfd1d6",
"`N c #bcbdc5",
"`O c #b8b8cb",
"`P c #e0bac0",
"`Q c #d6d6e1",
"`R c #d0d1d9",
"`S c #fefefe",
"`T c #c0c4c8",
"`U c #d8e5f2",
"`V c #e0effe",
"`W c #c5d4e6",
"`X c #d5d8db",
"`Y c #f5f5f6",
"`Z c #e5e5e5",
"`0 c #8f919e",
"`1 c #ecdde0",
"`2 c #9799b5",
"`3 c #eaeced",
"`4 c #bcc2c8",
"`5 c #daedff",
"`6 c #dfefff",
"`7 c #dbecfd",
"`8 c #c0cbd7",
".` c #ccd0d5",
".. c #abb7c4",
".# c #d3d4d6",
".a c #b7b7bb",
".b c #babacc",
".c c #f7f2f4",
".d c #9498ae",
".e c #aeb8c5",
".f c #b1ceeb",
".g c #c6def7",
".h c #d1e4f9",
".i c #c9def4",
".j c #e5e6e8",
".k c #fdfdfd",
".l c #b8bcc1",
".m c #9298a2",
".n c #8a8ba8",
".o c #fff7f7",
".p c #ff67fa",
".q c #f1eff1",
".r c #7d80a3",
".s c #99acc3",
".t c #b5c0cc",
".u c #afbcca",
".v c #a9c8e8",
".w c #a2c2e4",
".x c #c0c7ce",
".y c #e0e2e5",
".z c #eeeeee",
".A c #cacbcb",
".B c #667690",
".C c #8a8ca9",
".D c #fff4f4",
".E c #efeff2",
".F c #9395b2",
".G c #859cbf",
".H c #dfe2e5",
".I c #bfc6ce",
".J c #84a9d1",
".K c #78a0cd",
".L c #7497be",
".M c #dadada",
".N c #9fa3a7",
".O c #616d95",
".P c #bcbccc",
".Q c #ffe4e4",
".R c #d7d7e1",
".S c #7f85a7",
".T c #8b9eb1",
".U c #f0f0f0",
".V c #ced0d4",
".W c #6894c3",
".X c #5e8cbe",
".Y c #5381b6",
".Z c #c1c1c1",
".0 c #787f8a",
".1 c #66678d",
".2 c #efeff3",
".3 c #ffc5c5",
".4 c #9498b3",
".5 c #7b8aae",
".6 c #cfcfcf",
".7 c #667f9a",
".8 c #4b7db4",
"#` c #4276af",
"#. c #3e6ca2",
"## c #909396",
"#a c #6c6f89",
"#b c #bdbed0",
"#c c #ffeded",
"#d c #ff8e8e",
"#e c #9899b3",
"#f c #7f8193",
"#g c #6076a1",
"#h c #516f9d",
"#i c #526c97",
"#j c #5d6b93",
"#k c #64658c",
"#l c #b3b3c7",
"#m c #ff8d8d",
"#n c #dedee6",
"#o c #a0a1ba",
"#p c #797a9b",
"#q c #7c7ea0",
"#r c #a9a9c0",
"#s c #eaeaef",
"#t c #ffe0e0",
"#u c #ff6b6b",
"#v c #ff4343",
"#w c #ffdada",
"#x c #ffc2c2",
"#y c #ff6f6f",
"#z c #ff1f1f",
"#A c #ff1818",
"#B c #ff1c1c",
"#C c #ffd1d1",
"#D c #ffdbdb",
"#E c #ffb2b2",
"#F c #ff8989",
"#G c #ff7777",
"#H c #000000",
"#I c #000000",
"#J c #000000",
"#K c #000000",
"#L c #000000",
"#M c #000000",
"#N c #000000",
"#O c #000000",
"#P c #000000",
"#Q c #000000",
"#R c #000000",
"#S c #000000",
"#T c #000000",
"#U c #000000",
"#V c #000000",
"#W c #000000",
"#X c #000000",
"#Y c #000000",
"#Z c #000000",
"#0 c #000000",
"#1 c #000000",
"#2 c #000000",
"#3 c #000000",
"#4 c #000000",
"#5 c #000000",
"#6 c #000000",
"#7 c #000000",
"#8 c #000000",
"a` c #000000",
"a. c #000000",
"a# c #000000",
"aa c #000000",
"ab c #000000",
"ac c #000000",
"ad c #000000",
"ae c #000000",
"af c #000000",
"ag c #000000",
"ah c #000000",
"ai c #000000",
"aj c #000000",
"ak c #000000",
"al c #000000",
"am c #000000",
"an c #000000",
"ao c #000000",
"ap c #000000",
"aq c #000000",
"ar c #000000",
"as c #000000",
"at c #000000",
"au c #000000",
"av c #000000",
"aw c #000000",
"ax c #000000",
"ay c #000000",
"az c #000000",
"aA c #000000",
"aB c #000000",
"aC c #000000",
"aD c #000000",
"aE c #000000",
"aF c #000000",
"aG c #000000",
"aH c #000000",
"aI c #000000",
"aJ c #000000",
"aK c #000000",
"aL c #000000",
"aM c #000000",
"aN c #000000",
"aO c #000000",
"aP c #000000",
"aQ c #000000",
"aR c #000000",
"aS c #000000",
"aT c #000000",
"aU c #000000",
"aV c #000000",
"aW c #000000",
"aX c #000000",
"aY c #000000",
"aZ c #000000",
"a0 c #000000",
"a1 c #000000",
"a2 c #000000",
"a3 c #000000",
"a4 c #000000",
"a5 c #000000",
"a6 c #000000",
"a7 c #000000",
"a8 c #000000",
/* pixels */
"```.`#`a`b`c````````````````````",
"```d`e`f`g`h`i``````````````````",
"```j`k`l`m`n`o`p`q`r````````````",
"```s`t`u`v`w`x`y`z`A`B`C````````",
"```D`E`F`G`H`I`J`K`L`M`N`O``````",
"```P`Q`R`S`T`U`V`W`X`Y`Z`0``````",
"```1`2`3`4`5`6`7`8.`...#.a.b````",
"``.c.d.e.f.g.h.i.j`S.k.l.m.n.o.p",
"``.q.r.s.t.u.v.w.x.y.z.A.B.C.D``",
"``.E.F.G.H`S.I.J.K.L.M.N.O.P.Q``",
"````.R.S.T.U.V.W.X.Y.Z.0.1.2.3``",
"``````.4.5.6.7.8#`#.###a#b#c#d``",
"````````#e#f#g#h#i#j#k#l.o#m#m``",
"``````````#n#o#p#q#r#s#t#u#v#w``",
"``````````````````#x#y#z#A#B#C``",
"``````````````````````#D#E#F#G``"
};
