/* XPM */
static const char *character_map_xpm[] = {
/* width height num_colors chars_per_pixel */
"    16    16      256            2",
/* colors */
"`` c None",
"`. c #c7c9c5",
"`# c #c9cbc6",
"`a c #c9cac6",
"`b c #eaece8",
"`c c #dde0db",
"`d c #e0e2de",
"`e c #e1e4de",
"`f c #e1e4df",
"`g c #e2e4df",
"`h c #e0e3de",
"`i c #dee0da",
"`j c #e2e5df",
"`k c #d8dbd5",
"`l c #e1e3de",
"`m c #dde0d9",
"`n c #dde1da",
"`o c #dee2db",
"`p c #dfe2dc",
"`q c #dfe2dd",
"`r c #d7dbd4",
"`s c #dddfd9",
"`t c #e0e3dd",
"`u c #e0e4de",
"`v c #e3e6e0",
"`w c #e3e6e1",
"`x c #e4e7e1",
"`y c #bfc1bd",
"`z c #5d5e5b",
"`A c #dddfda",
"`B c #e3e5e0",
"`C c #e2e5e0",
"`D c #e5e8e3",
"`E c #e6e8e3",
"`F c #e6e9e4",
"`G c #abada9",
"`H c #dee1db",
"`I c #e4e6e2",
"`J c #e4e7e2",
"`K c #e7eae5",
"`L c #e8eae6",
"`M c #e8ebe6",
"`N c #787a77",
"`O c #424342",
"`P c #414241",
"`Q c #cfd0cc",
"`R c #dfe1db",
"`S c #e9ebe7",
"`T c #ebede9",
"`U c #d7d9d5",
"`V c #e3e5e1",
"`W c #6e6f6d",
"`X c #7d7f7c",
"`Y c #e6e7e3",
"`Z c #e0e2dc",
"`0 c #e7e9e4",
"`1 c #e7e9e5",
"`2 c #eaede9",
"`3 c #eceeea",
"`4 c #4f504e",
"`5 c #5c5c5b",
"`6 c #4b4c4b",
"`7 c #666765",
"`8 c #eef0ec",
".` c #ced0cd",
".. c #393a39",
".# c #5e5f5e",
".a c #e1e3dd",
".b c #e8eae5",
".c c #eaede8",
".d c #ecefeb",
".e c #eff1ed",
".f c #f1f3f0",
".g c #717271",
".h c #575856",
".i c #828381",
".j c #8b8d8a",
".k c #eef0ed",
".l c #f0f2ef",
".m c #d8dbd4",
".n c #eef1ed",
".o c #e9ece7",
".p c #edefeb",
".q c #d7dad3",
".r c #caccc8",
".s c #eaebe8",
".t c #ebece8",
".u c #ebece9",
".v c #c9cbc8",
".w c #d4d5d2",
".x c #d4d8d0",
".y c #d3d7cf",
".z c #cecfcc",
".A c #000000",
".B c #000000",
".C c #000000",
".D c #000000",
".E c #000000",
".F c #000000",
".G c #000000",
".H c #000000",
".I c #000000",
".J c #000000",
".K c #000000",
".L c #000000",
".M c #000000",
".N c #000000",
".O c #000000",
".P c #000000",
".Q c #000000",
".R c #000000",
".S c #000000",
".T c #000000",
".U c #000000",
".V c #000000",
".W c #000000",
".X c #000000",
".Y c #000000",
".Z c #000000",
".0 c #000000",
".1 c #000000",
".2 c #000000",
".3 c #000000",
".4 c #000000",
".5 c #000000",
".6 c #000000",
".7 c #000000",
".8 c #000000",
"#` c #000000",
"#. c #000000",
"## c #000000",
"#a c #000000",
"#b c #000000",
"#c c #000000",
"#d c #000000",
"#e c #000000",
"#f c #000000",
"#g c #000000",
"#h c #000000",
"#i c #000000",
"#j c #000000",
"#k c #000000",
"#l c #000000",
"#m c #000000",
"#n c #000000",
"#o c #000000",
"#p c #000000",
"#q c #000000",
"#r c #000000",
"#s c #000000",
"#t c #000000",
"#u c #000000",
"#v c #000000",
"#w c #000000",
"#x c #000000",
"#y c #000000",
"#z c #000000",
"#A c #000000",
"#B c #000000",
"#C c #000000",
"#D c #000000",
"#E c #000000",
"#F c #000000",
"#G c #000000",
"#H c #000000",
"#I c #000000",
"#J c #000000",
"#K c #000000",
"#L c #000000",
"#M c #000000",
"#N c #000000",
"#O c #000000",
"#P c #000000",
"#Q c #000000",
"#R c #000000",
"#S c #000000",
"#T c #000000",
"#U c #000000",
"#V c #000000",
"#W c #000000",
"#X c #000000",
"#Y c #000000",
"#Z c #000000",
"#0 c #000000",
"#1 c #000000",
"#2 c #000000",
"#3 c #000000",
"#4 c #000000",
"#5 c #000000",
"#6 c #000000",
"#7 c #000000",
"#8 c #000000",
"a` c #000000",
"a. c #000000",
"a# c #000000",
"aa c #000000",
"ab c #000000",
"ac c #000000",
"ad c #000000",
"ae c #000000",
"af c #000000",
"ag c #000000",
"ah c #000000",
"ai c #000000",
"aj c #000000",
"ak c #000000",
"al c #000000",
"am c #000000",
"an c #000000",
"ao c #000000",
"ap c #000000",
"aq c #000000",
"ar c #000000",
"as c #000000",
"at c #000000",
"au c #000000",
"av c #000000",
"aw c #000000",
"ax c #000000",
"ay c #000000",
"az c #000000",
"aA c #000000",
"aB c #000000",
"aC c #000000",
"aD c #000000",
"aE c #000000",
"aF c #000000",
"aG c #000000",
"aH c #000000",
"aI c #000000",
"aJ c #000000",
"aK c #000000",
"aL c #000000",
"aM c #000000",
"aN c #000000",
"aO c #000000",
"aP c #000000",
"aQ c #000000",
"aR c #000000",
"aS c #000000",
"aT c #000000",
"aU c #000000",
"aV c #000000",
"aW c #000000",
"aX c #000000",
"aY c #000000",
"aZ c #000000",
"a0 c #000000",
"a1 c #000000",
"a2 c #000000",
"a3 c #000000",
"a4 c #000000",
"a5 c #000000",
"a6 c #000000",
"a7 c #000000",
"a8 c #000000",
/* pixels */
"```.`#`#`#`#`#`#`#`#`#`#`#`#`.``",
"`a`b`c`d`e`f`f`g`g`f`f`e`h`i`j`a",
"`#`k`l`m`n`o`p`p`p`p`o`n`m`q`r`#",
"`#`s`p`p`t`u`e`f`f`e`u`t`p`p`s`#",
"`#`s`l`u`j`v`w`x`x`y`z`j`u`l`A`#",
"`#`i`B`C`x`D`E`F`F`G`l`x`C`B`i`#",
"`#`H`I`J`E`K`L`M`N`O`P`Q`J`I`R`#",
"`#`p`E`D`K`S`b`T`U`V`W`X`D`Y`p`#",
"`#`Z`0`1`S`2`3`1`4`5`6`7`1`0`t`#",
"`#`t`K`K`b`3`8.`..`T.#`7`K`K.a`#",
"`#`e.b`L.c.d.e.f.g.h.i.j`L.b`e`#",
"`#`j`K`L`b`3.k.l.l.k`3`b`L`K`u`#",
"`#.m.n`K.o`T.p`8`8.p`T.o`K.n.q`#",
".r`t`g.s`b`b.t.u.u.t`b`b.s`g`t.v",
".w`S.x.y.y.y.y.y.y.y.y.y.y.x`S.w",
"``.z`#`#`#`#`#`#`#`#`#`#`#`#.z``"
};
