/* XPM */
static const char *connect_xpm[] = {
/* columns rows colors chars-per-pixel */
"16 16 39 1",
"  c #000000",
". c #010100",
"X c #010101",
"o c #020201",
"O c #0F0F0D",
"+ c #1D1D19",
"@ c #1F1D1D",
"# c #22201C",
"$ c #252320",
"% c #6C685E",
"& c #78756B",
"* c #78756C",
"= c #817D73",
"- c #807D74",
"; c #8C8981",
": c #A09D94",
"> c #A7A298",
", c #A6A29B",
"< c #A7A49E",
"1 c #B3B1AA",
"2 c #BEBBB5",
"3 c #C5C3BD",
"4 c #C8C5BF",
"5 c #CECAC3",
"6 c #D1D0CC",
"7 c #E1DFDB",
"8 c #E2E1DD",
"9 c #E3E1DD",
"0 c #E8E7E4",
"q c #EAE8E3",
"w c #EBEAE6",
"e c #ECEBE8",
"r c #EEECEA",
"t c #F0EEEB",
"y c #F0EFEC",
"u c #F2F0ED",
"i c #F3F2F0",
"p c #F9F9F8",
"a c None",
/* pixels */
"aaaaaaaaaaaaaaaa",
"aaaaaaaaaaaaaaaa",
"aaaaaaaaaaaaaaaa",
"aaaaaaaaaaaaaaaa",
"aa+   oaa   o@aa",
"a 8yw- aa t-p5Oa",
" -8yq*oaa t-p3- ",
"qquwe= aa r-i08q",
"&&218* aa 6-5>--",
" &;,5* aa <-:*% ",
"aO;<5& aa <->=Oa",
"aa#OOO aa O  #aa",
"aaaaaaaaaaaaaaaa",
"aaaaaaaaaaaaaaaa",
"aaaaaaaaaaaaaaaa",
"aaaaaaaaaaaaaaaa"
};
