/* XPM */
static const char * crt_48_xpm[] = {
/* columns rows colors chars-per-pixel */
"16 16 45 1",
"  c #CE5C00",
". c #CE5D00",
"X c #CE5C01",
"o c #CE5D01",
"O c #CF5D01",
"+ c #CE5D02",
"@ c #CE5D03",
"# c #CE5E02",
"$ c #CE5F02",
"% c #CE5E03",
"& c #CF5F04",
"* c #D05E02",
"= c #D05E03",
"- c #CF6005",
"; c #D1660A",
": c #D2670B",
"> c #D2680D",
", c #D2690E",
"< c #D46F1B",
"1 c #D8831E",
"2 c #D9861E",
"3 c #D98721",
"4 c #DA8725",
"5 c #DC9128",
"6 c #DD972A",
"7 c #DE992E",
"8 c #DD9130",
"9 c #DF9538",
"0 c #DF9639",
"q c #E19F3A",
"w c #E09844",
"e c #E09845",
"r c #E19D46",
"t c #E29E47",
"y c #E4A74A",
"u c #E5A356",
"i c #E5A35A",
"p c #E7B05A",
"a c #E7A961",
"s c #EAB869",
"d c #ECB976",
"f c #ECB779",
"g c #EEC079",
"h c #F1C889",
"j c None",
/* pixels */
"jjjjjjjjjjjjjjjj",
"jjjjjjj&-jjjjjjj",
"jjjjjj=<<&jjjjjj",
"jjj  &=df    jjj",
"jjj daihhiad jjj",
"jjj iggggggu&jjj",
"jj= esssssse =jj",
"j ,tppppppppt, j",
"j ,9yyyyyyyy9; j",
"jj  4qqqqqq4  jj",
"jjj 26666662 jjj",
"jjj 53277135 jjj",
"jjj    88    jjj",
"jjjjjj ,,-jjjjjj",
"jjjjjjj- jjjjjjj",
"jjjjjjjjjjjjjjjj"
};
