/* XPM */
static const char * crt_16_xpm[] = {
/* columns rows colors chars-per-pixel */
"9 9 27 1",
"  c #CF6005",
". c #CF6205",
"X c #CF6206",
"o c #CF6209",
"O c #D06105",
"+ c #D06307",
"@ c #D0640A",
"# c #D0650A",
"$ c #D0670E",
"% c #D67916",
"& c #D57519",
"* c #D6771B",
"= c #D8801B",
"- c #D9821F",
"; c #DE9A2F",
": c #DC8436",
"> c #DF913E",
", c #DF923F",
"< c #E09D35",
"1 c #E09D36",
"2 c #DF8F41",
"3 c #E2994F",
"4 c #E5AB52",
"5 c #E5AC52",
"6 c #EBBA6E",
"7 c #F1C88A",
"8 c None",
/* pixels */
"8888o8888",
"888$:$888",
"882373288",
"8@,666,@8",
".*44445*.",
"8.-<<<-O8",
"88%=;-%88",
"888.*O888",
"8888.8888"
};
