/* XPM */
static const char * csv_48_xpm[] = {
"48 48 397 2",
"  	c None",
". 	c #4E9A06",
"+ 	c #4D9906",
"@ 	c #87C14F",
"# 	c #AFD987",
"$ 	c #B2DA8B",
"% 	c #B2D98B",
"& 	c #A8D082",
"* 	c #4F9A07",
"= 	c #BCE397",
"- 	c #FFFFFF",
"; 	c #F6FBF2",
"> 	c #F6FAF1",
", 	c #AFE579",
"' 	c #A0E060",
") 	c #9FE060",
"! 	c #9FDF5F",
"~ 	c #9EDE5F",
"{ 	c #9EDD5F",
"] 	c #EDF9E2",
"^ 	c #F5FAF1",
"/ 	c #94DC4C",
"( 	c #80D62B",
"_ 	c #7FD52B",
": 	c #7FD42A",
"< 	c #7ED32A",
"[ 	c #7ED22A",
"} 	c #7DD22A",
"| 	c #7CD129",
"1 	c #E7F6D8",
"2 	c #7FD42B",
"3 	c #7CD229",
"4 	c #7BD029",
"5 	c #E6F6D7",
"6 	c #80D52B",
"7 	c #7ED42A",
"8 	c #7BCF29",
"9 	c #7ACE28",
"0 	c #E5F5D6",
"a 	c #7CD029",
"b 	c #7ACE29",
"c 	c #7ACD28",
"d 	c #78CD27",
"e 	c #E4F5D4",
"f 	c #7ACF29",
"g 	c #79CD28",
"h 	c #79CC28",
"i 	c #71C81D",
"j 	c #E4F4D3",
"k 	c #78CB28",
"l 	c #77CA26",
"m 	c #6BC413",
"n 	c #E3F4D3",
"o 	c #78CA27",
"p 	c #77C927",
"q 	c #6EC619",
"r 	c #69C312",
"s 	c #7CCF2A",
"t 	c #5B991F",
"u 	c #385E13",
"v 	c #325311",
"w 	c #538A1C",
"x 	c #77C728",
"y 	c #70BB25",
"z 	c #50851B",
"A 	c #4F851B",
"B 	c #6CB624",
"C 	c #5A971E",
"D 	c #538C1C",
"E 	c #6CB623",
"F 	c #78CC28",
"G 	c #78CB27",
"H 	c #77CA27",
"I 	c #61A420",
"J 	c #4E8816",
"K 	c #50940D",
"L 	c #68C111",
"M 	c #E3F3D3",
"N 	c #7CD02A",
"O 	c #21370B",
"P 	c #000000",
"Q 	c #111D06",
"R 	c #72BF26",
"S 	c #558E1C",
"T 	c #050802",
"U 	c #010200",
"V 	c #305110",
"W 	c #79CD29",
"X 	c #0D1704",
"Y 	c #4F851A",
"Z 	c #77C827",
"` 	c #345910",
" .	c #203B05",
"..	c #67BF11",
"+.	c #2A460E",
"@.	c #132006",
"#.	c #79CA28",
"$.	c #74C227",
"%.	c #060B02",
"&.	c #1B2E09",
"*.	c #0A1203",
"=.	c #528B1B",
"-.	c #75C625",
";.	c #325B0A",
">.	c #1F3A05",
",.	c #66BE10",
"'.	c #5D9B1F",
").	c #2F4F10",
"!.	c #69AF23",
"~.	c #6FB925",
"{.	c #3F6A15",
"].	c #050902",
"^.	c #77C828",
"/.	c #467517",
"(.	c #0A1003",
"_.	c #467617",
":.	c #477817",
"<.	c #1D320A",
"[.	c #477818",
"}.	c #080D02",
"|.	c #55901C",
"1.	c #76C826",
"2.	c #6AC116",
"3.	c #325E08",
"4.	c #1D3705",
"5.	c #65BC10",
"6.	c #E2F2D3",
"7.	c #27410D",
"8.	c #243C0C",
"9.	c #4B7E19",
"0.	c #365B12",
"a.	c #335611",
"b.	c #060902",
"c.	c #58951C",
"d.	c #76C726",
"e.	c #74C525",
"f.	c #6AC016",
"g.	c #336008",
"h.	c #1C3404",
"i.	c #64BB0F",
"j.	c #76C528",
"k.	c #60A020",
"l.	c #2D4C0F",
"m.	c #3C6614",
"n.	c #040701",
"o.	c #59971D",
"p.	c #72C422",
"q.	c #69BF14",
"r.	c #65BE10",
"s.	c #65BD10",
"t.	c #346108",
"u.	c #1A3204",
"v.	c #62B90F",
"w.	c #64A822",
"x.	c #0A1103",
"y.	c #406C15",
"z.	c #091003",
"A.	c #64A921",
"B.	c #080D03",
"C.	c #508F13",
"D.	c #64BC10",
"E.	c #2A4F06",
"F.	c #203C05",
"G.	c #61B70E",
"H.	c #558E1D",
"I.	c #192A08",
"J.	c #7DD229",
"K.	c #68B123",
"L.	c #030601",
"M.	c #070C02",
"N.	c #75C726",
"O.	c #73C522",
"P.	c #6FC31E",
"Q.	c #28470A",
"R.	c #2F5807",
"S.	c #63BA0F",
"T.	c #62B80F",
"U.	c #0A1302",
"V.	c #407809",
"W.	c #60B60E",
"X.	c #E2F1D3",
"Y.	c #92DB4B",
"Z.	c #477618",
"`.	c #477915",
" +	c #020300",
".+	c #336009",
"++	c #49890C",
"@+	c #0F1C02",
"#+	c #63BB0F",
"$+	c #4B8C0B",
"%+	c #050901",
"&+	c #5CAE0D",
"*+	c #5FB40D",
"=+	c #E2F1D2",
"-+	c #91D94B",
";+	c #4D821A",
">+	c #1C2F09",
",+	c #75C824",
"'+	c #6DC418",
")+	c #69C211",
"!+	c #0A1202",
"~+	c #539C0D",
"{+	c #63BA10",
"]+	c #091201",
"^+	c #4B8D0B",
"/+	c #294C06",
"(+	c #234205",
"_+	c #5FB30D",
":+	c #5EB20D",
"<+	c #E1F1D2",
"[+	c #F5FAF0",
"}+	c #BCE297",
"|+	c #91D84B",
"1+	c #5B9A1E",
"2+	c #0E1805",
"3+	c #77C926",
"4+	c #6FC51B",
"5+	c #69C212",
"6+	c #67C011",
"7+	c #559F0D",
"8+	c #376809",
"9+	c #2B5107",
"0+	c #224105",
"a+	c #61B60E",
"b+	c #5DAF0E",
"c+	c #060C01",
"d+	c #448109",
"e+	c #5DB10D",
"f+	c #E1F0D2",
"g+	c #90D74B",
"h+	c #69B123",
"i+	c #68AF22",
"j+	c #74C824",
"k+	c #6BC414",
"l+	c #68C211",
"m+	c #66BF11",
"n+	c #224005",
"o+	c #2B5207",
"p+	c #63B90F",
"q+	c #4E940B",
"r+	c #030500",
"s+	c #58A70D",
"t+	c #3C7108",
"u+	c #0A1301",
"v+	c #5CAF0D",
"w+	c #5DB00C",
"x+	c #5CAF0C",
"y+	c #F5F9F0",
"z+	c #BCE197",
"A+	c #8FD64A",
"B+	c #7ACC28",
"C+	c #111C05",
"D+	c #396013",
"E+	c #73C722",
"F+	c #5BA80F",
"G+	c #41780B",
"H+	c #64BB10",
"I+	c #132503",
"J+	c #366608",
"K+	c #62B80E",
"L+	c #132303",
"M+	c #336107",
"N+	c #152703",
"O+	c #2D5606",
"P+	c #5BAE0C",
"Q+	c #BBE197",
"R+	c #8ED54A",
"S+	c #406D15",
"T+	c #538C1B",
"U+	c #71C620",
"V+	c #68C112",
"W+	c #56A00E",
"X+	c #0D1702",
"Y+	c #060A01",
"Z+	c #5EB00F",
"`+	c #5EB00E",
" @	c #3D7309",
".@	c #45830A",
"+@	c #60B50E",
"@@	c #5FB40E",
"#@	c #386A08",
"$@	c #070D01",
"%@	c #010100",
"&@	c #519A0B",
"*@	c #5AAD0B",
"=@	c #5AAC0B",
"-@	c #E0F0D2",
";@	c #8DD34A",
">@	c #6DB824",
",@	c #090F03",
"'@	c #111F03",
")@	c #57A40E",
"!@	c #335F08",
"~@	c #0C1602",
"{@	c #112002",
"]@	c #5EB10E",
"^@	c #60B40E",
"/@	c #5EB30D",
"(@	c #59A80C",
"_@	c #040801",
":@	c #193003",
"<@	c #5BAD0B",
"[@	c #59AB0B",
"}@	c #59AA0B",
"|@	c #E0EFD2",
"1@	c #BBE097",
"2@	c #8CD149",
"3@	c #5D9E1E",
"4@	c #060A02",
"5@	c #4D900C",
"6@	c #427B0A",
"7@	c #050A01",
"8@	c #4C900B",
"9@	c #234305",
"0@	c #3D7507",
"a@	c #58AA0A",
"b@	c #58A90A",
"c@	c #50940F",
"d@	c #213E05",
"e@	c #060B01",
"f@	c #529A0C",
"g@	c #0B1502",
"h@	c #54A00C",
"i@	c #5CAE0C",
"j@	c #4A8E0A",
"k@	c #162B03",
"l@	c #1C3503",
"m@	c #57A80B",
"n@	c #58AA0B",
"o@	c #57A80A",
"p@	c #57A70A",
"q@	c #BAE097",
"r@	c #8BD048",
"s@	c #75C626",
"t@	c #75C526",
"u@	c #5EB10D",
"v@	c #5DB10C",
"w@	c #5CB00C",
"x@	c #56A60A",
"y@	c #56A509",
"z@	c #E0EED2",
"A@	c #BBDF97",
"B@	c #8BCE48",
"C@	c #74C526",
"D@	c #6EC21D",
"E@	c #56A70A",
"F@	c #56A609",
"G@	c #55A509",
"H@	c #55A409",
"I@	c #DFEED2",
"J@	c #BADF97",
"K@	c #8ACD48",
"L@	c #72C224",
"M@	c #65BC11",
"N@	c #5BAD0C",
"O@	c #5AAB0B",
"P@	c #54A309",
"Q@	c #53A208",
"R@	c #DFEED1",
"S@	c #BADE97",
"T@	c #89CC48",
"U@	c #69BD17",
"V@	c #54A208",
"W@	c #52A108",
"X@	c #DFEDD1",
"Y@	c #BADE98",
"Z@	c #85C941",
"`@	c #54A409",
" #	c #54A308",
".#	c #53A108",
"+#	c #52A008",
"@#	c #519F07",
"##	c #BADD98",
"$#	c #7DC536",
"%#	c #58A80A",
"&#	c #519F08",
"*#	c #519E07",
"=#	c #509D07",
"-#	c #7AC234",
";#	c #529F08",
">#	c #509E07",
",#	c #4F9C07",
"'#	c #F7FBF3",
")#	c #F6FBF1",
"!#	c #FEFEFD",
"~#	c #B9DD98",
"{#	c #A1CD77",
"]#	c #DBECCA",
"^#	c #DAECCA",
"/#	c #DAEBCA",
"(#	c #DAEACA",
"_#	c #D9EACA",
":#	c #D9E9CA",
"<#	c #D9E9C9",
"[#	c #D0E4BD",
"}#	c #4F9A06",
"|#	c #4D9B06",
"                                                                                                ",
"                                                                                                ",
"                                                                                                ",
"        . . . . . . . . . . . . . . . . . . . . . . . . . . . . . . . . . . . . . . . . .       ",
"      + . . . . . . . . . . . . . . . . . . . . . . . . . . . . . . . . . . . . . . . . .       ",
"      + . . @ # $ $ $ $ $ $ $ $ $ $ $ $ $ $ $ $ $ $ $ $ $ $ $ $ $ $ $ $ $ $ $ $ $ % & * .       ",
"      + . . = - - - - - - - - - - - - - - - - - - - - - - - - - - - - - - - - - - - ; . .       ",
"      + . . = - - - - - - - - - - - - - - - - - - - - - - - - - - - - - - - - - - - > . .       ",
"      + . . = - - , ' ' ' ' ' ' ' ' ' ' ' ' ' ' ' ' ' ' ' ' ' ' ' ' ' ' ) ! ~ { ] - ^ . .       ",
"      + . . = - - / ( ( ( ( ( ( ( ( ( ( ( ( ( ( ( ( ( ( ( ( ( ( ( ( _ : < [ } | 1 - ^ . .       ",
"      + . . = - - / ( ( ( ( ( ( ( ( ( ( ( ( ( ( ( ( ( ( ( ( ( ( _ 2 < [ } 3 | 4 5 - ^ . .       ",
"      + . . = - - / ( ( ( ( ( ( ( ( ( ( ( ( ( ( ( ( ( ( ( ( 6 _ 7 < } } | 4 8 9 0 - ^ . .       ",
"      + . . = - - / ( ( ( ( ( ( ( ( ( ( ( ( ( ( ( ( ( ( ( _ : < } } | a 8 b c d e - ^ . .       ",
"      + . . = - - / ( ( ( ( ( ( ( ( ( ( ( ( ( ( ( ( ( _ : < } } | a 4 f 9 g h i j - ^ . .       ",
"      + . . = - - / ( ( ( ( ( ( ( ( ( ( ( ( ( ( ( _ : < [ } 3 | 4 8 9 g h k l m n - ^ . .       ",
"      + . . = - - / ( ( ( ( ( ( ( ( ( ( ( ( ( 6 2 7 < } } | 4 8 9 c h k o p q r n - ^ . .       ",
"      + . . = - - / ( ( ( s t u v w x ( ( ( _ y z A B | 4 C D E h F G H I J K L M - ^ . .       ",
"      + . . = - - / ( ( N O P P P P Q R _ : S T P P U V W X P Y k H p Z ` P  ...M - ^ . .       ",
"      + . . = - - / ( _ +.P P P P P P @.#.$.%.P P P P &.g *.P =.p Z Z -.;.P >.,.M - ^ . .       ",
"      + . . = - - / ( '.P P ).!.~.{.U ].^./.P (._.:.<.[.k }.P |.Z 1.-.2.3.P 4.5.6.- ^ . .       ",
"      + . . = - - / ( 7.P 8.< _ : < 9.0.| a.P 0.c h F o H b.P c.d.e.f.,.g.P h.i.6.- ^ . .       ",
"      + . . = - - / j.U P k.: < } } | c 8 l.P m.h k H p Z n.P o.p.q.r.s.t.P u.v.6.- ^ . .       ",
"      + . . = - - / w.P x.[ [ } 3 | 4 8 9 y.P z.A.p Z Z d.B.P C.,.s.D.i.E.P F.G.6.- ^ . .       ",
"      + . . = - - / H.P I.} J.| 4 8 9 g h K.L.P M.Y N.O.P.Q.P R.5.i.S.T.U.P V.W.X.- ^ . .       ",
"      + . . = - - Y.Z.P 8.| 4 8 9 c h F G H `. +P P .+..,.++P @+#+S.v.$+P %+&+*+=+- ^ . .       ",
"      + . . = - - -+;+P >+8 f 9 g h k H ,+'+)+K !+P U ~+s.{+]+P ^+T.G./+P (+_+:+<+- [+. .       ",
"      + . . }+- - |+1+P 2+9 g h k H 3+4+5+L 6+6+7+%+P 8+i.S.9+P 0+a+b+c+P d+:+e+f+- [+. .       ",
"      + . . }+- - g+h+P P i+k o p j+k+l+L 6+m+,.s.n+P o+p+T.q+P r+s+t+P u+v+w+x+f+- y+. .       ",
"      + . . z+- - A+B+C+P D+H p E+5+F+G+..,.s.5.H+I+P J+K+G.W.L+P M+N+P O+x+x+P+f+- y+. .       ",
"      + . . Q+- - R+h S+P U T+U+V+W+X+Y+Z+s.D.`+ @P P .@a++@@@#@P $@P %@&@P+*@=@-@- y+. .       ",
"      + . . Q+- - ;@H >@,@P P '@N+P P Y+)@!@~@ +P P {@]@^@*+/@(@_@P P :@<@=@[@}@|@- y+. .       ",
"      + . . 1@- - 2@Z Z 3@4@P P P P _@5@S.6@P P P 7@8@*+/@:+e+w+9@P P 0@=@[@a@b@|@- y+. .       ",
"      + . . 1@- - 2@1.d.e.c@d@c+e@d@5@S.v.f@g@@+(+h@_+:+e+w+x+i@j@k@l@m@n@b@o@p@|@- y+. .       ",
"      + . . q@- - r@s@t@f.s.s.{+T.S.v.T.G.a++@*+_+:+u@v@w@x+P+*@=@[@}@b@o@p@x@y@z@- y+. .       ",
"      + . . A@- - B@C@D@s.D.i.S.p+T.G.a++@^@*+/@:+e+w@x+P+<@=@[@}@b@b@o@E@F@G@H@I@- y+. .       ",
"      + . . J@- - K@L@M@i.S.p+T.G.G.W.+@*+/@:+e+w+x+P+N@=@O@[@a@b@o@E@F@G@H@P@Q@R@- y+. .       ",
"      + . . S@- - T@U@S.S.v.K+G.W.+@*+_+:+e+w+x+i@P+*@=@[@n@b@o@p@F@G@H@P@V@Q@W@X@- y+. .       ",
"      + . . Y@- - Z@S.v.T.G.a++@*+_+:+e+v@w@x+P+*@=@[@}@b@o@p@x@y@G@`@ #Q@.#+#@#X@- y+. .       ",
"      + . . ##- - $#T.G.a++@@@*+/@:+e+w@x+P+<@=@[@}@b@%#o@E@F@G@H@P@Q@.#+#&#*#=#X@- y+. .       ",
"      + . . ##- - -#G.W.+@*+/@:+e+w+x+P+N@=@O@[@a@b@o@E@F@G@H@P@Q@.#+#;#@#>#=#,#X@- y+. .       ",
"      + . . ##- - '#)#)#)#> ^ ^ ^ ^ ^ ^ ^ ^ ^ ^ ^ ^ ^ ^ ^ ^ [+[+y+y+y+y+y+y+y+y+!#- y+. .       ",
"      + . . ~#- - - - - - - - - - - - - - - - - - - - - - - - - - - - - - - - - - - y+. .       ",
"      + . . {#]#]#]#]#]#^#^#^#/#/#/#/#/#/#/#/#/#/#(#_#_#_#_#_#_#_#:#<#<#<#<#<#<#<#<#[#. .       ",
"      + . . . . . . . . . . . . . . . . . . . . . . . . . . . . . . . . . . . . . . . . .       ",
"        . . . . . . . . . . . . . . . . . . . . . . . . . . . . . . . . . . . . . . . . .       ",
"          }#}#}#}#}#}#}#}#}#}#}#}#}#}#}#}#}#}#}#}#}#}#}#}#}#}#}#}#}#}#}#}#}#}#}#}#}#}#|#        ",
"                                                                                                ",
"                                                                                                "};
