/* XPM */
static const char * csv_16_xpm[] = {
"16 16 132 2",
"  	c None",
". 	c #509D07",
"+ 	c #69AB29",
"@ 	c #70B033",
"# 	c #57A013",
"$ 	c #EAF7DC",
"% 	c #E2F6CE",
"& 	c #E0F5CB",
"* 	c #F2FBEA",
"= 	c #8ABE59",
"- 	c #88D938",
"; 	c #80D62B",
"> 	c #7ED32A",
", 	c #7CD229",
"' 	c #C8EBA5",
") 	c #89BD57",
"! 	c #EAF7DD",
"~ 	c #7FD42A",
"{ 	c #7DD22A",
"] 	c #7BD029",
"^ 	c #79CD28",
"/ 	c #C4E8A0",
"( 	c #79CA29",
"_ 	c #558E1C",
": 	c #77C728",
"< 	c #538B1C",
"[ 	c #6AB323",
"} 	c #66AB21",
"| 	c #78CB27",
"1 	c #519014",
"2 	c #C2E69F",
"3 	c #82D036",
"4 	c #192908",
"5 	c #3D6514",
"6 	c #3A6213",
"7 	c #26400D",
"8 	c #2C4B0F",
"9 	c #467717",
"0 	c #437116",
"a 	c #70C41E",
"b 	c #1A3004",
"c 	c #C0E49E",
"d 	c #89BC57",
"e 	c #EAF8DD",
"f 	c #629D28",
"g 	c #4C7F19",
"h 	c #7ACD29",
"i 	c #22390B",
"j 	c #69B122",
"k 	c #538E1A",
"l 	c #3C6B0E",
"m 	c #64BC10",
"n 	c #1B3204",
"o 	c #BFE29E",
"p 	c #88BC57",
"q 	c #4D7C20",
"r 	c #57931D",
"s 	c #76CA25",
"t 	c #569915",
"u 	c #132304",
"v 	c #60B30F",
"w 	c #1D3604",
"x 	c #51980C",
"y 	c #294E06",
"z 	c #BEE09D",
"A 	c #67A52A",
"B 	c #315410",
"C 	c #72C620",
"D 	c #52990E",
"E 	c #63B910",
"F 	c #182E04",
"G 	c #59A70D",
"H 	c #244405",
"I 	c #1D3804",
"J 	c #4A8D0A",
"K 	c #BCDE9C",
"L 	c #88BB57",
"M 	c #509C07",
"N 	c #E9F6DD",
"O 	c #7EC834",
"P 	c #2D4F0D",
"Q 	c #0F1C02",
"R 	c #41790A",
"S 	c #1B3304",
"T 	c #264705",
"U 	c #5EB30D",
"V 	c #478609",
"W 	c #122302",
"X 	c #59AB0B",
"Y 	c #BBDC9C",
"Z 	c #4F9C07",
"` 	c #E9F5DD",
" .	c #7BC831",
"..	c #65BC11",
"+.	c #61B50F",
"@.	c #61B60E",
"#.	c #5EB10D",
"$.	c #5DB10D",
"%.	c #5BAE0C",
"&.	c #58A90A",
"*.	c #56A609",
"=.	c #BADA9C",
"-.	c #87BB57",
";.	c #71C024",
">.	c #61B70E",
",.	c #5FB40D",
"'.	c #5CAF0C",
").	c #5AAC0B",
"!.	c #56A60A",
"~.	c #54A409",
"{.	c #53A108",
"].	c #B9D89B",
"^.	c #4F9C06",
"/.	c #E8F4DC",
"(.	c #CCE7B2",
"_.	c #C8E5AC",
":.	c #C7E4AC",
"<.	c #C7E3AC",
"[.	c #C6E2AC",
"}.	c #C6E1AB",
"|.	c #C5E0AB",
"1.	c #C4DFAB",
"2.	c #C4DEAA",
"3.	c #C3DDAA",
"4.	c #E7F1DD",
"5.	c #4F9B06",
"6.	c #77B33E",
"7.	c #7EB748",
"8.	c #7DB648",
"9.	c #7DB547",
"0.	c #7CB547",
"a.	c #5CA21A",
"                                ",
"  . + @ @ @ @ @ @ @ @ @ @ @ #   ",
"  . $ % & & & & & & & & & * =   ",
"  . $ - ; ; ; ; ; ; ; > , ' )   ",
"  . ! - ; ; ; ; ; ~ { ] ^ / )   ",
"  . ! - ( _ > : < [ } | 1 2 )   ",
"  . ! 3 4 5 6 7 8 9 0 a b c d   ",
"  . e f g , h i j k l m n o p   ",
"  . ! q r ^ s t u v w x y z p   ",
"  . ! A B C D E F G H I J K L   ",
"  M N O P Q R S T U V W X Y L   ",
"  Z `  ...+.@.#.$.%.X &.*.=.-.  ",
"  Z ` ;.>.,.$.'.).&.!.~.{.].-.  ",
"  ^./.(._.:.<.[.}.|.1.2.3.4.-.  ",
"  5.6.7.7.8.8.9.9.9.0.0.0.0.a.  ",
"                                "};
