/* XPM */
static const char * db_connections_16_xpm[] = {
"16 16 110 2",
"  	c None",
". 	c #ADADAD",
"+ 	c #A8A8A8",
"@ 	c #A5A5A5",
"# 	c #A2A2A2",
"$ 	c #979797",
"% 	c #A3A3A3",
"& 	c #999999",
"* 	c #939393",
"= 	c #8D8D8D",
"- 	c #8B8B8B",
"; 	c #8A8A8A",
"> 	c #818181",
", 	c #929292",
"' 	c #949494",
") 	c #969696",
"! 	c #858585",
"~ 	c #7F7F7F",
"{ 	c #7B7B7B",
"] 	c #797979",
"^ 	c #7A7A7A",
"/ 	c #7C7C7C",
"( 	c #A39653",
"_ 	c #DECB49",
": 	c #DDC83F",
"< 	c #DCC73E",
"[ 	c #DDC73E",
"} 	c #DEC93F",
"| 	c #E1CB3B",
"1 	c #E6D03A",
"2 	c #D8BD24",
"3 	c #898989",
"4 	c #A89844",
"5 	c #F1DD35",
"6 	c #EFD817",
"7 	c #DBC92A",
"8 	c #A9A888",
"9 	c #A2A392",
"0 	c #9C9D91",
"a 	c #9E9F89",
"b 	c #9E9B7B",
"c 	c #848484",
"d 	c #B0A044",
"e 	c #F0DB2E",
"f 	c #B0B095",
"g 	c #898B86",
"h 	c #888A85",
"i 	c #989A94",
"j 	c #8A8A85",
"k 	c #B7A641",
"l 	c #F0DB25",
"m 	c #AFAD88",
"n 	c #DFE0DD",
"o 	c #CACCC8",
"p 	c #B6B8B3",
"q 	c #B4B5B1",
"r 	c #A8A9A4",
"s 	c #797C75",
"t 	c #747474",
"u 	c #BEAB3D",
"v 	c #EFD91B",
"w 	c #EFD816",
"x 	c #EED712",
"y 	c #EED70F",
"z 	c #EED60B",
"A 	c #EED508",
"B 	c #B3B087",
"C 	c #DDDFDA",
"D 	c #D0D3CC",
"E 	c #BCBFB8",
"F 	c #ABAEA7",
"G 	c #9A9C96",
"H 	c #8A8C87",
"I 	c #6D6D6D",
"J 	c #C1AD30",
"K 	c #EDD401",
"L 	c #EDD400",
"M 	c #B8B68A",
"N 	c #D2D5CF",
"O 	c #CED2CA",
"P 	c #8B8D86",
"Q 	c #6B6B6B",
"R 	c #C6A91E",
"S 	c #EEC600",
"T 	c #EEC500",
"U 	c #EEC400",
"V 	c #EFC400",
"W 	c #B9B48B",
"X 	c #CBCEC7",
"Y 	c #CDD1C9",
"Z 	c #8B8E85",
"` 	c #746F5A",
" .	c #D4A60D",
"..	c #F0B400",
"+.	c #BBAF7A",
"@.	c #A0851C",
"#.	c #9F841C",
"$.	c #9D841B",
"%.	c #9C811A",
"&.	c #9C8118",
"*.	c #998017",
"=.	c #9A8328",
"-.	c #AAA27E",
";.	c #ACAA98",
">.	c #A3A49F",
",.	c #A6A490",
"'.	c #767676",
").	c #868686",
"!.	c #727272",
"~.	c #717171",
"                                ",
"                                ",
"  . . + @ # $                   ",
"  % & * = - ; > , ' ) $         ",
"  & = ! ~ { ] ] ^ / > ;         ",
"  , ( _ : < < < < [ : } | 1 2   ",
"  3 4 5 6 6 6 6 6 7 8 9 0 a b   ",
"  c d e 6 6 6 6 6 f g h h h i j ",
"  ^ k l 6 6 6 6 6 m n o p q r s ",
"  t u v w x y z A B C D E F G H ",
"  I J A K L L L L M N O E F G P ",
"  Q R S T T T U V W X Y E F G Z ",
"  `  .............+.X Y E F G   ",
"    @.#.$.%.&.*.*.=.-.;.>.,.    ",
"                      '.).!.    ",
"                    !.t '.~.    "};
