/* XPM */
static const char * db_connections_48_xpm[] = {
"48 48 439 2",
"  	c None",
". 	c #7A7A7A",
"+ 	c #797979",
"@ 	c #BEBEBE",
"# 	c #C9C9C9",
"$ 	c #C7C7C7",
"% 	c #C6C6C6",
"& 	c #C5C5C5",
"* 	c #C4C4C4",
"= 	c #C3C3C3",
"- 	c #C2C2C2",
"; 	c #C0C0C0",
"> 	c #BFBFBF",
", 	c #AAAAAA",
"' 	c #777777",
") 	c #CACACA",
"! 	c #BABABA",
"~ 	c #ACACAC",
"{ 	c #A8A8A8",
"] 	c #A6A6A6",
"^ 	c #A4A4A4",
"/ 	c #A3A3A3",
"( 	c #A1A1A1",
"_ 	c #A0A0A0",
": 	c #9E9E9E",
"< 	c #9D9D9D",
"[ 	c #9C9C9C",
"} 	c #9B9B9B",
"| 	c #B1B1B1",
"1 	c #7C7C7C",
"2 	c #787878",
"3 	c #A5A5A5",
"4 	c #979797",
"5 	c #959595",
"6 	c #939393",
"7 	c #929292",
"8 	c #909090",
"9 	c #8E8E8E",
"0 	c #8C8C8C",
"a 	c #8B8B8B",
"b 	c #8A8A8A",
"c 	c #898989",
"d 	c #888888",
"e 	c #878787",
"f 	c #8D8D8D",
"g 	c #C1C1C1",
"h 	c #B2B2B2",
"i 	c #A2A2A2",
"j 	c #9A9A9A",
"k 	c #999999",
"l 	c #969696",
"m 	c #949494",
"n 	c #707070",
"o 	c #757575",
"p 	c #B7B7B7",
"q 	c #8F8F8F",
"r 	c #868686",
"s 	c #848484",
"t 	c #838383",
"u 	c #828282",
"v 	c #818181",
"w 	c #808080",
"x 	c #737373",
"y 	c #6D6D6D",
"z 	c #6C6C6C",
"A 	c #747474",
"B 	c #B6B6B6",
"C 	c #AEAEAE",
"D 	c #919191",
"E 	c #AFAFAF",
"F 	c #B3B3B3",
"G 	c #B4B4B4",
"H 	c #B5B5B5",
"I 	c #B9B9B9",
"J 	c #686868",
"K 	c #ADADAD",
"L 	c #858585",
"M 	c #7E7E7E",
"N 	c #7B7B7B",
"O 	c #7D7D7D",
"P 	c #7F7F7F",
"Q 	c #6E6E6E",
"R 	c #989898",
"S 	c #676767",
"T 	c #82817F",
"U 	c #81807B",
"V 	c #7F7E79",
"W 	c #7D7C77",
"X 	c #7B7A75",
"Y 	c #7A7974",
"Z 	c #787772",
"` 	c #777570",
" .	c #76746F",
"..	c #75736E",
"+.	c #74726D",
"@.	c #73726C",
"#.	c #7C7B76",
"$.	c #868580",
"%.	c #6A6963",
"&.	c #6B6B6B",
"*.	c #A7A7A7",
"=.	c #BD9F17",
"-.	c #C5A105",
";.	c #C5A104",
">.	c #C4A104",
",.	c #C4A103",
"'.	c #C4A003",
").	c #C4A002",
"!.	c #C3A001",
"~.	c #C4A100",
"{.	c #C8A400",
"].	c #C3A002",
"^.	c #F3E66D",
"/.	c #F6EA7E",
"(.	c #F6EA7F",
"_.	c #F6EA80",
":.	c #F6EA81",
"<.	c #F3E56E",
"[.	c #C5A100",
"}.	c #656565",
"|.	c #8D8B83",
"1.	c #C4A102",
"2.	c #F5E879",
"3.	c #EFD91C",
"4.	c #EFD817",
"5.	c #EFD818",
"6.	c #EFD819",
"7.	c #EFD81A",
"8.	c #EFD91A",
"9.	c #F0DB29",
"0.	c #F1E064",
"a.	c #C6A200",
"b.	c #636363",
"c.	c #847F6A",
"d.	c #C5A40A",
"e.	c #F5E87A",
"f.	c #DAC71F",
"g.	c #ABA03B",
"h.	c #8C8A61",
"i.	c #8F8E71",
"j.	c #93937D",
"k.	c #979887",
"l.	c #969786",
"m.	c #91917A",
"n.	c #8C8B6E",
"o.	c #89865B",
"p.	c #ADA23C",
"q.	c #DDCD59",
"r.	c #C6A400",
"s.	c #606060",
"t.	c #9F9F9F",
"u.	c #938B68",
"v.	c #CAAC17",
"w.	c #F5E771",
"x.	c #C3B32C",
"y.	c #8F8E74",
"z.	c #A7A9A0",
"A.	c #AEB0AA",
"B.	c #A9ABA5",
"C.	c #A1A49E",
"D.	c #9B9E97",
"E.	c #969893",
"F.	c #969993",
"G.	c #9B9D98",
"H.	c #A0A39D",
"I.	c #A7A9A3",
"J.	c #AAADA6",
"K.	c #A3A59C",
"L.	c #84836D",
"M.	c #5D5D5D",
"N.	c #8D8252",
"O.	c #CEB220",
"P.	c #F5E669",
"Q.	c #948F53",
"R.	c #A9ACA2",
"S.	c #A3A6A0",
"T.	c #8C8E88",
"U.	c #888A85",
"V.	c #8C8E89",
"W.	c #A2A59F",
"X.	c #A3A5A0",
"Y.	c #686864",
"Z.	c #9A8C4E",
"`.	c #D5BB28",
" +	c #F4E461",
".+	c #C7B728",
"++	c #A7AAA0",
"@+	c #91938D",
"#+	c #92948F",
"$+	c #9EA29B",
"%+	c #98873B",
"&+	c #DDC32F",
"*+	c #F3E359",
"=+	c #8D874B",
"-+	c #C0C2BD",
";+	c #BCBEB9",
">+	c #5E615D",
",+	c #A69234",
"'+	c #E2CB38",
")+	c #F3E250",
"!+	c #89844D",
"~+	c #C9CBC6",
"{+	c #C0C1BE",
"]+	c #8A8C87",
"^+	c #8B8C88",
"/+	c #B3B5B1",
"(+	c #5E605B",
"_+	c #727272",
":+	c #717171",
"<+	c #AB9322",
"[+	c #E7D142",
"}+	c #F2E049",
"|+	c #ABAEA7",
"1+	c #E1E3E0",
"2+	c #EBEBEB",
"3+	c #C3C4C2",
"4+	c #9D9E9A",
"5+	c #9EA09B",
"6+	c #BFC0BD",
"7+	c #DDDEDC",
"8+	c #B2B3B0",
"9+	c #90928D",
"0+	c #6F6F6F",
"a+	c #B69B1A",
"b+	c #EAD64B",
"c+	c #F1DE3E",
"d+	c #C3C7BF",
"e+	c #DDDFDB",
"f+	c #EAEBE9",
"g+	c #EDEEEB",
"h+	c #EDEEED",
"i+	c #E7E8E6",
"j+	c #E2E3E1",
"k+	c #DBDBDA",
"l+	c #DADBD8",
"m+	c #DEDFDD",
"n+	c #CFD0CD",
"o+	c #B3B6B1",
"p+	c #9B9D97",
"q+	c #949691",
"r+	c #91928D",
"s+	c #696969",
"t+	c #BB9C0E",
"u+	c #EDDA4E",
"v+	c #F0DC33",
"w+	c #C2C6BE",
"x+	c #DADCD8",
"y+	c #E5E6E3",
"z+	c #E7E9E5",
"A+	c #DEE1DB",
"B+	c #D1D5CD",
"C+	c #CBCEC8",
"D+	c #C5C8C2",
"E+	c #BEC1BA",
"F+	c #B6BAB3",
"G+	c #B1B4AD",
"H+	c #A5A8A2",
"I+	c #9FA29C",
"J+	c #9A9C96",
"K+	c #90928E",
"L+	c #60635E",
"M+	c #C19F08",
"N+	c #EFDE50",
"O+	c #EFD816",
"P+	c #EED714",
"Q+	c #EED712",
"R+	c #8D8950",
"S+	c #ADB0A9",
"T+	c #D8DAD5",
"U+	c #E2E4E0",
"V+	c #E5E7E3",
"W+	c #DBDED7",
"X+	c #CDD1C9",
"Y+	c #C8CBC4",
"Z+	c #C2C5BE",
"`+	c #BCBFB8",
" @	c #91938E",
".@	c #73756F",
"+@	c #5F5F5F",
"@@	c #F2E051",
"#@	c #F0DA20",
"$@	c #EFD815",
"%@	c #EED710",
"&@	c #EED60B",
"*@	c #EED507",
"=@	c #EDD505",
"-@	c #EDD503",
";@	c #EDD401",
">@	c #EDD400",
",@	c #9B965A",
"'@	c #AEB2AA",
")@	c #D5D7D2",
"!@	c #DFE1DC",
"~@	c #E1E4DF",
"{@	c #DADDD6",
"]@	c #858883",
"^@	c #5B5B5B",
"/@	c #7B796F",
"(@	c #C3A003",
"_@	c #F2E14F",
":@	c #EED815",
"<@	c #EED60F",
"[@	c #EED609",
"}@	c #EDD504",
"|@	c #A8A366",
"1@	c #AFB3AB",
"2@	c #D2D4CF",
"3@	c #DBDDD8",
"4@	c #D9DCD5",
"5@	c #898985",
"6@	c #555555",
"7@	c #77725B",
"8@	c #C4A309",
"9@	c #F2DF46",
"0@	c #B0B4AC",
"a@	c #CFD1CB",
"b@	c #D7D9D4",
"c@	c #DADDD7",
"d@	c #D7DBD4",
"e@	c #8A8B86",
"f@	c #515151",
"g@	c #877F5A",
"h@	c #C8A80E",
"i@	c #F1DD36",
"j@	c #EDD402",
"k@	c #CCCFC9",
"l@	c #D3D6D0",
"m@	c #D7DAD3",
"n@	c #D6DAD2",
"o@	c #4D4D4D",
"p@	c #867A48",
"q@	c #CBAC10",
"r@	c #EFD923",
"s@	c #EDD300",
"t@	c #EDD200",
"u@	c #EDD100",
"v@	c #EDD000",
"w@	c #A8A266",
"x@	c #B2B5AE",
"y@	c #CACDC6",
"z@	c #D0D2CC",
"A@	c #D3D7D0",
"B@	c #D5D9D1",
"C@	c #898A85",
"D@	c #4A4A4A",
"E@	c #948646",
"F@	c #D1B10E",
"G@	c #F0D217",
"H@	c #EECC00",
"I@	c #EECB00",
"J@	c #EECA00",
"K@	c #A8A066",
"L@	c #B2B6AF",
"M@	c #C7CAC3",
"N@	c #CCCFC8",
"O@	c #D0D4CC",
"P@	c #D3D7CF",
"Q@	c #484848",
"R@	c #958437",
"S@	c #D8B40A",
"T@	c #EFC90E",
"U@	c #EEC600",
"V@	c #EEC500",
"W@	c #EEC400",
"X@	c #EFC400",
"Y@	c #EFC300",
"Z@	c #A99E66",
"`@	c #B3B6AF",
" #	c #CBCEC7",
".#	c #CFD3CB",
"+#	c #91948E",
"@#	c #454545",
"##	c #A69030",
"$#	c #DDB406",
"%#	c #EFC207",
"&#	c #EFBF00",
"*#	c #EFBE00",
"=#	c #EFBD00",
"-#	c #A99D66",
";#	c #B4B8B0",
">#	c #444444",
",#	c #AC921F",
"'#	c #E0B001",
")#	c #F0B901",
"!#	c #F0B900",
"~#	c #F0B800",
"{#	c #F0B700",
"]#	c #A99B66",
"^#	c #B5B8B0",
"/#	c #424242",
"(#	c #BB9B12",
"_#	c #E6B000",
":#	c #F0B400",
"<#	c #B29E59",
"[#	c #B0B4AE",
"}#	c #90938E",
"|#	c #928756",
"1#	c #C4A004",
"2#	c #EFB400",
"3#	c #E1AE13",
"4#	c #A3A08A",
"5#	c #BBBFB8",
"6#	c #C6C9C2",
"7#	c #969994",
"8#	c #8B8E88",
"9#	c #BC9A05",
"0#	c #C4A000",
"a#	c #AE9939",
"b#	c #9B9982",
"c#	c #B8BBB5",
"d#	c #C5C8C1",
"e#	c #CCD0C9",
"f#	c #999C95",
"g#	c #8B8D87",
"h#	c #8F928C",
"i#	c #A9ABA6",
"j#	c #BDC1BA",
"k#	c #C0C3BC",
"l#	c #BEC1BB",
"m#	c #B9BCB6",
"n#	c #B3B7AF",
"o#	c #ACAFA8",
"p#	c #979A93",
"q#	c #8D908B",
"r#	c #8A8D87",
"s#	c #929590",
"t#	c #838480",
"u#	c #898B87",
"v#	c #81837E",
"w#	c #90918C",
"x#	c #595959",
"y#	c #545454",
"z#	c #6A6A6A",
"A#	c #626262",
"B#	c #5E5E5E",
"C#	c #535353",
"D#	c #5C5C5C",
"E#	c #525252",
"F#	c #4C4C4C",
"                                                                                                ",
"                                                                                                ",
"                                                                                                ",
"                                                                                                ",
"                                                                                                ",
"        . . . . . . . + + + + + + + + .                                                         ",
"      + @ # $ % & * = - - ; ; > > > > , '                                                       ",
"      . ) ! ~ , { ] ^ / ( _ : < [ [ } | 1                                                       ",
"      2 * 3 4 5 6 7 8 9 0 a b c c d e 7 f                                                       ",
"      ' g h 3 i _ : [ j k 4 l 5 m 6 7 7 f n                                                     ",
"      o p ( 7 q f a b d r s t u v v w w s x y y y y y y y y y y z z z z                         ",
"      A B C : [ k 4 5 6 D 8 9 f 0 a b c b b 7 i ~ C E E | h F G H p I h J                       ",
"      n K : a b e L t v w M 1 N . + + 2 2 2 2 2 + + + . N O P w v s r b J                       ",
"      Q K , R l 6 D 9 0 b d e L s t u v v v v v v u t s L e c b 0 q D m S                       ",
"      z / } r s T U V W X Y Z `  ...+.+.+.@.@.+.+.+... .` Z Y X #.V U $.%.                      ",
"      &./ *.7 8 =.-.-.-.-.-.;.;.>.>.,.,.'.'.).).).).).).).).).).).).).).!.~.~.~.~.~.~.{.        ",
"      J k R u P ].^././././.(.(.(.(._._._._.:.:.:.:.:.:.:.:._._._._.(.(.(.(././././.<.[.        ",
"      }.R i f |.1.2.3.4.4.4.4.4.4.4.4.4.4.4.4.4.4.4.4.4.4.4.5.5.5.5.6.6.6.6.7.7.8.9.0.a.        ",
"      b.8 l 1 c.d.e.4.4.4.4.4.4.4.4.4.4.4.4.4.4.4.4.4.4.4.4.4.f.g.h.i.j.k.l.m.n.o.p.q.r.        ",
"      s.9 t.d u.v.w.4.4.4.4.4.4.4.4.4.4.4.4.4.4.4.4.4.4.4.x.y.z.A.B.C.D.E.F.G.H.I.J.K.L.        ",
"      M.e 7 + N.O.P.4.4.4.4.4.4.4.4.4.4.4.4.4.4.4.4.4.4.Q.R.S.T.U.U.U.U.U.U.U.U.U.U.V.W.X.Y.    ",
"        s [ t Z.`. +4.4.4.4.4.4.4.4.4.4.4.4.4.4.4.4.4..+++@+U.U.U.U.U.U.U.U.U.U.U.U.U.U.#+$+    ",
"        1 q A %+&+*+4.4.4.4.4.4.4.4.4.4.4.4.4.4.4.4.4.=+-+U.U.U.U.U.U.U.U.U.U.U.U.U.U.U.U.;+>+  ",
"        + R P ,+'+)+4.4.4.4.4.4.4.4.4.4.4.4.4.4.4.4.4.!+~+{+]+U.U.U.U.U.U.U.U.U.U.U.U.^+{+/+(+  ",
"        _+0 :+<+[+}+4.4.4.4.4.4.4.4.4.4.4.4.4.4.4.4.4.!+|+1+2+3+4+U.U.U.U.U.U.U.U.5+6+7+8+9+(+  ",
"        0+l 1 a+b+c+4.4.4.4.4.4.4.4.4.4.4.4.4.4.4.4.4.!+|+d+e+f+g+h+i+j+k+l+7+7+m+n+o+p+q+r+(+  ",
"        s+b Q t+u+v+4.4.4.4.4.4.4.4.4.4.4.4.4.4.4.4.4.!+|+w+x+y+z+A+B+C+D+E+F+G+|+H+I+J+q+K+L+  ",
"        }.6 + M+N+9.4.4.4.4.4.4.4.4.4.4.4.4.4.4.O+P+Q+R+S+w+T+U+V+W+X+Y+Z+`+F+G+|+H+I+J+q+ @.@  ",
"        +@d &.!.@@#@4.4.4.4.4.4.4.$@%@&@*@=@-@;@>@>@>@,@'@w+)@!@~@{@X+Y+Z+`+F+G+|+H+I+J+q+ @]@  ",
"        ^@8 /@(@_@7.4.4.4.:@<@[@}@>@>@>@>@>@>@>@>@>@>@|@1@w+2@3@A+4@X+Y+Z+`+F+G+|+H+I+J+q+ @5@  ",
"        6@L 7@8@9@4.4.%@*@>@>@>@>@>@>@>@>@>@>@>@>@>@>@|@0@w+a@b@c@d@X+Y+Z+`+F+G+|+H+I+J+q+ @e@  ",
"        f@f g@h@i@&@j@>@>@>@>@>@>@>@>@>@>@>@>@>@>@>@>@|@G+w+k@l@m@n@X+Y+Z+`+F+G+|+H+I+J+q+ @e@  ",
"        o@t p@q@r@s@s@s@t@t@t@t@t@t@t@u@u@u@u@u@u@u@v@w@x@w+y@z@A@B@X+Y+Z+`+F+G+|+H+I+J+q+ @C@  ",
"        D@a E@F@G@H@H@H@H@H@H@H@I@I@I@I@I@I@I@J@J@J@J@K@L@w+M@N@O@P@X+Y+Z+`+F+G+|+H+I+J+q+ @C@  ",
"        Q@v R@S@T@U@U@U@U@V@V@V@V@V@V@V@W@W@W@X@X@X@Y@Z@`@w+M@ #.#P@X+Y+Z+`+F+G+|+H+I+J+q++#C@  ",
"        @#d ##$#%#&#&#&#&#&#&#&#*#*#*#*#*#*#*#=#=#=#=#-#;#w+M@ #.#P@X+Y+Z+`+F+G+|+H+I+J+q+ @C@  ",
"        >#P ,#'#)#!#!#!#!#~#~#~#~#~#~#~#{#{#{#{#{#{#{#]#^#w+M@ #.#P@X+Y+Z+`+F+G+|+H+I+J+q++#C@  ",
"        /#r (#_#:#:#:#:#:#:#:#:#:#:#:#:#:#:#:#:#:#:#:#<#[#w+M@ #.#P@X+Y+Z+`+F+G+|+H+I+J+q+}#U.  ",
"        >#|#1#2#:#:#:#:#:#:#:#:#:#:#:#:#:#:#:#:#:#:#:#3#4#5#6# #.#P@X+Y+Z+`+F+G+|+H+I+J+7#8#    ",
"          9#0#0#0#0#0#0#0#0#0#0#0#0#0#0#0#0#0#0#0#0#0#0#a#b#c#d#e#P@X+Y+Z+`+F+G+|+H+H.f#g#      ",
"                                                            h#F.i#j#k#Z+l#m#n#o#S.p#q#r#        ",
"                                                                    s#t#^+u#v#w#                ",
"                                                                      6@u . x#                  ",
"                                                                  x#y w 8 c w ' y#              ",
"                                                          r t w z#< G > > > > > 9 n M u r       ",
"                                                          k 7 b &.A#J J J J J J B#2 d 8 k       ",
"                                                                D@C#D#D#D#D#D#D#E#F#            ",
"                                                                                                "};
