/* XPM */
static const char * dbschema_16_xpm[] = {
"16 16 34 1",
" 	c None",
".	c #555753",
"+	c #555853",
"@	c #5F615D",
"#	c #5C5E5A",
"$	c #626460",
"%	c #E3E4E3",
"&	c #D7D8D7",
"*	c #E4E4E4",
"=	c #FFFFFF",
"-	c #D7D7D6",
";	c #E1E2E1",
">	c #E9EAE9",
",	c #E1E1E0",
"'	c #969893",
")	c #979995",
"!	c #E8E9E8",
"~	c #E4E4E3",
"{	c #939590",
"]	c #8B8D88",
"^	c #90928E",
"/	c #D8D9D8",
"(	c #EAEBEA",
"_	c #9B9C98",
":	c #91928E",
"<	c #888A85",
"[	c #8C8E89",
"}	c #DEDFDE",
"|	c #959792",
"1	c #DEDEDD",
"2	c #E2E2E2",
"3	c #61635F",
"4	c #D9D9D8",
"5	c #E9E9E9",
"                ",
"       ..       ",
"      +@#.      ",
"     +$%&#.     ",
"    +$*==-#.    ",
"   +$*=;>=-#.   ",
"  +$*=,')!=-#.  ",
" .@~=;'{]^!=-#. ",
" .#/=(_:<[}=;@. ",
"  .#/=(|[1=23+  ",
"   .#4=5}=23+   ",
"    .#4==23+    ",
"     .#/;3+     ",
"      .#@+      ",
"       ..       ",
"                "};
