/* XPM */
static const char * dbschema_48_xpm[] = {
"48 48 42 1",
" 	c None",
".	c #555753",
"+	c #555654",
"@	c #565854",
"#	c #BABAB9",
"$	c #939492",
"%	c #BEBFBE",
"&	c #FFFFFF",
"*	c #FEFEFE",
"=	c #959694",
"-	c #C1C1C0",
";	c #969895",
">	c #C1C2C0",
",	c #C1C2C1",
"'	c #BDBFBC",
")	c #D6D7D5",
"!	c #C2C3C1",
"~	c #BDBEBB",
"{	c #939590",
"]	c #949691",
"^	c #D3D4D2",
"/	c #8B8D88",
"(	c #D2D2D1",
"_	c #929490",
":	c #888A85",
"<	c #898B86",
"[	c #C3C3C2",
"}	c #8F918C",
"|	c #575955",
"1	c #92948F",
"2	c #BABBBA",
"3	c #B7B8B5",
"4	c #B8B9B8",
"5	c #B6B7B4",
"6	c #BCBDBC",
"7	c #8F918D",
"8	c #8C8E8A",
"9	c #8B8D89",
"0	c #8D8F8A",
"a	c #979896",
"b	c #969794",
"c	c #949592",
"                                                ",
"                                                ",
"                                                ",
"                      ...                       ",
"                     .....+                     ",
"                    .......+                    ",
"                   .........+                   ",
"                  ...........+                  ",
"                 .....@#$.....+                 ",
"                .....@%&*=.....+                ",
"               .....@-&&&*;.....+               ",
"              .....@-&&&&&*;.....+              ",
"             .....@-&&&&&&&*;.....+             ",
"            .....@>&&&&&&&&&*;.....+            ",
"           .....@>&&&&&&&&&&&*;.....+           ",
"          .....@,&&&&&&&&&&&&&*;.....+          ",
"         .....@,&&&&&&&')&&&&&&*;.....+         ",
"        .....@!&&&&&&&~{])&&&&&&*;.....+        ",
"       .....@!&&&&&&&~{{{]^&&&&&&*;.....+       ",
"      .....@!&&&&&&&~{{{{{/(&&&&&&*;.....+      ",
"     .....@!&&&&&&&~{{{{{_:<(&&&&&&*;.....+     ",
"    .....@[&&&&&&&~{{{{{{}::<(&&&&&&*;.....+    ",
"   .....|-&&&&&&&~{{{{{{1<:::<(&&&&&&*=.....    ",
"   .....2&&&&&&&'{{{{{{{/:::::<(&&&&&&*$.....   ",
"   .....$*&&&&&&)]{{{{{}:::::::3&&&&&&&4.....   ",
"    .....=*&&&&&&)]{{{1<::::::5&&&&&&&6@.....   ",
"    +.....;*&&&&&&)]{{7::::::5&&&&&&&%@.....    ",
"     +.....;*&&&&&&)]{8:::::5&&&&&&&%@.....     ",
"      +.....;*&&&&&&)]9::::5&&&&&&&%@.....      ",
"       +.....;*&&&&&&)0:::5&&&&&&&%@.....       ",
"        +.....;*&&&&&&^<:5&&&&&&&%@.....        ",
"         +.....;*&&&&&&(3&&&&&&&%@.....         ",
"          +.....;*&&&&&&&&&&&&&%@.....          ",
"           +.....;*&&&&&&&&&&&%@.....           ",
"            +.....;*&&&&&&&&&%@.....            ",
"             +.....a*&&&&&&&%@.....             ",
"              +.....a*&&&&&%@.....              ",
"               +.....a*&&&%@.....               ",
"                +.....b*&6@.....                ",
"                 +.....c4@.....                 ",
"                  +...........                  ",
"                   +.........                   ",
"                    +.......                    ",
"                     +.....                     ",
"                       ...                      ",
"                                                ",
"                                                ",
"                                                "};
