/* XPM */
static const char * dbschema_create_xpm[] = {
"16 16 61 1",
" 	c None",
".	c #555753",
"+	c #D6711D",
"@	c #555853",
"#	c #5F615D",
"$	c #5C5E5A",
"%	c #A46630",
"&	c #DB883A",
"*	c #E8AB67",
"=	c #E1954B",
"-	c #D77825",
";	c #626460",
">	c #E3E4E3",
",	c #D6D1CA",
"'	c #B06827",
")	c #E6AA5A",
"!	c #EAB86A",
"~	c #DE903B",
"{	c #E4E4E4",
"]	c #FFFFFF",
"^	c #F2D6BE",
"/	c #D48032",
"(	c #E19F3F",
"_	c #E3A545",
":	c #DE9133",
"<	c #D2690D",
"[	c #E1E2E1",
"}	c #E9EAE9",
"|	c #E9B789",
"1	c #D9851C",
"2	c #DB9023",
"3	c #DA8C20",
"4	c #D37511",
"5	c #E1E1E0",
"6	c #969893",
"7	c #979995",
"8	c #E0BA98",
"9	c #ECBF98",
"0	c #D47E30",
"a	c #AE6524",
"b	c #9B612C",
"c	c #E4E4E3",
"d	c #939590",
"e	c #8B8D88",
"f	c #90928E",
"g	c #E8E9E8",
"h	c #F4DAC5",
"i	c #D7D1CB",
"j	c #D8D9D8",
"k	c #EAEBEA",
"l	c #9B9C98",
"m	c #91928E",
"n	c #888A85",
"o	c #8C8E89",
"p	c #DEDFDE",
"q	c #959792",
"r	c #DEDEDD",
"s	c #E2E2E2",
"t	c #61635F",
"u	c #D9D9D8",
"v	c #E9E9E9",
"                ",
"       ..  +    ",
"      @#$%&*=-  ",
"     @;>,')!!~  ",
"    @;{]^/(__:< ",
"   @;{][}|1234  ",
"  @;{]567890ab  ",
" .#c][6defghi$. ",
" .$j]klmnop][#. ",
"  .$j]kqor]st@  ",
"   .$u]vp]st@   ",
"    .$u]]st@    ",
"     .$j[t@     ",
"      .$#@      ",
"       ..       ",
"                "};
