/* XPM */
static const char *delete_xpm[] = {
/* width height num_colors chars_per_pixel */
"    16    16      256            2",
/* colors */
"`` c None",
"`. c #b9b9b9",
"`# c #868686",
"`a c #8e8e8e",
"`b c #cccccc",
"`c c #c8c8c8",
"`d c #8b8b8b",
"`e c #888888",
"`f c #b8b8b8",
"`g c #bbbbbb",
"`h c #b8b4b4",
"`i c #f7dfe1",
"`j c #faebed",
"`k c #9c9a9b",
"`l c #cacaca",
"`m c #c6c6c6",
"`n c #a19e9e",
"`o c #f9e9eb",
"`p c #f7dcde",
"`q c #b7b3b4",
"`r c #8a8a8a",
"`s c #f2d1d5",
"`t c #c41b2c",
"`u c #c72635",
"`v c #f5d4d8",
"`w c #9b9899",
"`x c #c9c9c9",
"`y c #c7c7c7",
"`z c #a09d9d",
"`A c #f2cccf",
"`B c #c62332",
"`C c #c41d2d",
"`D c #f4d4d7",
"`E c #898989",
"`F c #888787",
"`G c #f2d0d3",
"`H c #c3192a",
"`I c #f4d3d7",
"`J c #999797",
"`K c #9f9c9c",
"`L c #f3ced1",
"`M c #f6d9dc",
"`N c #9e9a9b",
"`O c #eaaeb4",
"`P c #c62535",
"`Q c #f4d2d6",
"`R c #9c9999",
"`S c #f3cfd2",
"`T c #c62333",
"`U c #e9aeb4",
"`V c #979494",
"`W c #cfcfcf",
"`X c #eab0b5",
"`Y c #c62434",
"`Z c #f2cace",
"`0 c #f1c8cc",
"`1 c #e9afb4",
"`2 c #959292",
"`3 c #cdcdcd",
"`4 c #ebb0b5",
"`5 c #eab1b6",
"`6 c #939091",
"`7 c #cbcbcb",
"`8 c #e9abb1",
".` c #eaabb2",
".. c #959393",
".# c #f0c7cb",
".a c #efc3c8",
".b c #f2cdd2",
".c c #9e9b9b",
".d c #959192",
".e c #f4d2d5",
".f c #e7a3a9",
".g c #f2cdd1",
".h c #d0d0d0",
".i c #979495",
".j c #f3d1d4",
".k c #9b9797",
".l c #f2cbce",
".m c #9e9a9a",
".n c #a09c9d",
".o c #999697",
".p c #eaafb4",
".q c #f7dcdf",
".r c #c41c2c",
".s c #a09d9e",
".t c #b6b2b3",
".u c #f3d0d4",
".v c #f2d0d4",
".w c #a29e9e",
".x c #9d9a9a",
".y c #f6d8dc",
".z c #f5d6d8",
".A c #b8b4b5",
".B c #b7b7b7",
".C c #8c8b8b",
".D c #878787",
".E c #000000",
".F c #000000",
".G c #000000",
".H c #000000",
".I c #000000",
".J c #000000",
".K c #000000",
".L c #000000",
".M c #000000",
".N c #000000",
".O c #000000",
".P c #000000",
".Q c #000000",
".R c #000000",
".S c #000000",
".T c #000000",
".U c #000000",
".V c #000000",
".W c #000000",
".X c #000000",
".Y c #000000",
".Z c #000000",
".0 c #000000",
".1 c #000000",
".2 c #000000",
".3 c #000000",
".4 c #000000",
".5 c #000000",
".6 c #000000",
".7 c #000000",
".8 c #000000",
"#` c #000000",
"#. c #000000",
"## c #000000",
"#a c #000000",
"#b c #000000",
"#c c #000000",
"#d c #000000",
"#e c #000000",
"#f c #000000",
"#g c #000000",
"#h c #000000",
"#i c #000000",
"#j c #000000",
"#k c #000000",
"#l c #000000",
"#m c #000000",
"#n c #000000",
"#o c #000000",
"#p c #000000",
"#q c #000000",
"#r c #000000",
"#s c #000000",
"#t c #000000",
"#u c #000000",
"#v c #000000",
"#w c #000000",
"#x c #000000",
"#y c #000000",
"#z c #000000",
"#A c #000000",
"#B c #000000",
"#C c #000000",
"#D c #000000",
"#E c #000000",
"#F c #000000",
"#G c #000000",
"#H c #000000",
"#I c #000000",
"#J c #000000",
"#K c #000000",
"#L c #000000",
"#M c #000000",
"#N c #000000",
"#O c #000000",
"#P c #000000",
"#Q c #000000",
"#R c #000000",
"#S c #000000",
"#T c #000000",
"#U c #000000",
"#V c #000000",
"#W c #000000",
"#X c #000000",
"#Y c #000000",
"#Z c #000000",
"#0 c #000000",
"#1 c #000000",
"#2 c #000000",
"#3 c #000000",
"#4 c #000000",
"#5 c #000000",
"#6 c #000000",
"#7 c #000000",
"#8 c #000000",
"a` c #000000",
"a. c #000000",
"a# c #000000",
"aa c #000000",
"ab c #000000",
"ac c #000000",
"ad c #000000",
"ae c #000000",
"af c #000000",
"ag c #000000",
"ah c #000000",
"ai c #000000",
"aj c #000000",
"ak c #000000",
"al c #000000",
"am c #000000",
"an c #000000",
"ao c #000000",
"ap c #000000",
"aq c #000000",
"ar c #000000",
"as c #000000",
"at c #000000",
"au c #000000",
"av c #000000",
"aw c #000000",
"ax c #000000",
"ay c #000000",
"az c #000000",
"aA c #000000",
"aB c #000000",
"aC c #000000",
"aD c #000000",
"aE c #000000",
"aF c #000000",
"aG c #000000",
"aH c #000000",
"aI c #000000",
"aJ c #000000",
"aK c #000000",
"aL c #000000",
"aM c #000000",
"aN c #000000",
"aO c #000000",
"aP c #000000",
"aQ c #000000",
"aR c #000000",
"aS c #000000",
"aT c #000000",
"aU c #000000",
"aV c #000000",
"aW c #000000",
"aX c #000000",
"aY c #000000",
"aZ c #000000",
"a0 c #000000",
"a1 c #000000",
"a2 c #000000",
"a3 c #000000",
"a4 c #000000",
"a5 c #000000",
"a6 c #000000",
"a7 c #000000",
"a8 c #000000",
/* pixels */
"```.`#`a`b`````````````c`d`e`f``",
"`g`h`i`j`k`l`````````m`n`o`p`q`.",
"`r`s`t`u`v`w`x`````y`z`A`B`C`D`E",
"`F`G`t`H`u`I`J`x`c`K`L`B`H`t`M`d",
"`l`N`O`t`H`P`Q`R`n`S`T`H`t`U`V`W",
"```x`N`X`t`H`Y`Z`0`Y`H`t`1`2`3``",
"`````x`N`4`t`H`H`H`H`t`5`6`7````",
"```````x`n`8`H`H`H`H.``2`l``````",
"```````l...#`H`H`H`H.a`n`x``````",
"`````7`6`D`u`H`H`H`H`Y.b.c`x````",
"```3.d.e`P`H`t.f.f`t`H`T.g`N`l``",
".h.i.j`P`H`t`4`n.k`4`t`H`B.l.m`7",
"`a`j`Y`H`t`X.n`x`l.o.p`t`H`B`o`e",
"`E.q.r`t`O.s`y`````l.k`O`t`C.q`r",
"`..t.u.v.w`m`````````l.x.y.z.A`g",
"``.B`E.C`c`````````````b`a.D`f``"
};
