/* XPM */
static const char *document_16_xpm[] = {
/* width height num_colors chars_per_pixel */
"    16    16      256            2",
/* colors */
"`` c None",
"`. c #c9cac8",
"`# c #dfdfde",
"`a c #f0f0ef",
"`b c #efefee",
"`c c #eeeeed",
"`d c #ececeb",
"`e c #ebebea",
"`f c #dedfdd",
"`g c #e5e5e4",
"`h c #d2d2d1",
"`i c #d1d1d0",
"`j c #d0d0d0",
"`k c #d6d6d5",
"`l c #ededec",
"`m c #dededd",
"`n c #eaeae9",
"`o c #e1e1e0",
"`p c #e0e0df",
"`q c #dedede",
"`r c #e7e7e6",
"`s c #ececec",
"`t c #dededc",
"`u c #e8e8e8",
"`v c #dbdbda",
"`w c #dadad9",
"`x c #d9d9d9",
"`y c #d9d9d8",
"`z c #d8d8d8",
"`A c #ebebeb",
"`B c #dddedc",
"`C c #e6e6e5",
"`D c #d5d5d4",
"`E c #d4d4d4",
"`F c #d4d4d3",
"`G c #d3d3d2",
"`H c #d2d2d2",
"`I c #eaeaea",
"`J c #dcdcdb",
"`K c #e5e5e5",
"`L c #e4e4e4",
"`M c #e3e3e3",
"`N c #e3e3e2",
"`O c #e9e9e9",
"`P c #d8d9d7",
"`Q c #cccccc",
"`R c #cccccb",
"`S c #cbcbcb",
"`T c #cbcbca",
"`U c #cacaca",
"`V c #c9c9c9",
"`W c #c9c9c8",
"`X c #c8c8c8",
"`Y c #cdcdcd",
"`Z c #d6d7d5",
"`0 c #dedfde",
"`1 c #ededed",
"`2 c #f2f2f2",
"`3 c #d6d6d4",
"`4 c #dddddc",
"`5 c #f0f0f0",
"`6 c #f5f5f5",
"`7 c #fafafa",
"`8 c #ced0cd",
".` c #d9dad8",
".. c #efefef",
".# c #e1e2e1",
".a c #bdbfbd",
".b c #c2c3c1",
".c c #c0c1bf",
".d c #969a94",
".e c #f7f7f7",
".f c #d5d6d4",
".g c #c2c3c2",
".h c #bcbcbc",
".i c #9e9f9e",
".j c #babcb9",
".k c #d0d1d0",
".l c #ffffff",
".m c #cdcecb",
".n c #afb0af",
".o c #999a98",
".p c #a9aba7",
".q c #babbb9",
".r c #cbccca",
".s c #cccdcb",
".t c #cdcecc",
".u c #cfcfcd",
".v c #ccccca",
".w c #c5c6c3",
".x c #a5a6a3",
".y c #9c9f9a",
".z c #e0e1e0",
".A c #000000",
".B c #000000",
".C c #000000",
".D c #000000",
".E c #000000",
".F c #000000",
".G c #000000",
".H c #000000",
".I c #000000",
".J c #000000",
".K c #000000",
".L c #000000",
".M c #000000",
".N c #000000",
".O c #000000",
".P c #000000",
".Q c #000000",
".R c #000000",
".S c #000000",
".T c #000000",
".U c #000000",
".V c #000000",
".W c #000000",
".X c #000000",
".Y c #000000",
".Z c #000000",
".0 c #000000",
".1 c #000000",
".2 c #000000",
".3 c #000000",
".4 c #000000",
".5 c #000000",
".6 c #000000",
".7 c #000000",
".8 c #000000",
"#` c #000000",
"#. c #000000",
"## c #000000",
"#a c #000000",
"#b c #000000",
"#c c #000000",
"#d c #000000",
"#e c #000000",
"#f c #000000",
"#g c #000000",
"#h c #000000",
"#i c #000000",
"#j c #000000",
"#k c #000000",
"#l c #000000",
"#m c #000000",
"#n c #000000",
"#o c #000000",
"#p c #000000",
"#q c #000000",
"#r c #000000",
"#s c #000000",
"#t c #000000",
"#u c #000000",
"#v c #000000",
"#w c #000000",
"#x c #000000",
"#y c #000000",
"#z c #000000",
"#A c #000000",
"#B c #000000",
"#C c #000000",
"#D c #000000",
"#E c #000000",
"#F c #000000",
"#G c #000000",
"#H c #000000",
"#I c #000000",
"#J c #000000",
"#K c #000000",
"#L c #000000",
"#M c #000000",
"#N c #000000",
"#O c #000000",
"#P c #000000",
"#Q c #000000",
"#R c #000000",
"#S c #000000",
"#T c #000000",
"#U c #000000",
"#V c #000000",
"#W c #000000",
"#X c #000000",
"#Y c #000000",
"#Z c #000000",
"#0 c #000000",
"#1 c #000000",
"#2 c #000000",
"#3 c #000000",
"#4 c #000000",
"#5 c #000000",
"#6 c #000000",
"#7 c #000000",
"#8 c #000000",
"a` c #000000",
"a. c #000000",
"a# c #000000",
"aa c #000000",
"ab c #000000",
"ac c #000000",
"ad c #000000",
"ae c #000000",
"af c #000000",
"ag c #000000",
"ah c #000000",
"ai c #000000",
"aj c #000000",
"ak c #000000",
"al c #000000",
"am c #000000",
"an c #000000",
"ao c #000000",
"ap c #000000",
"aq c #000000",
"ar c #000000",
"as c #000000",
"at c #000000",
"au c #000000",
"av c #000000",
"aw c #000000",
"ax c #000000",
"ay c #000000",
"az c #000000",
"aA c #000000",
"aB c #000000",
"aC c #000000",
"aD c #000000",
"aE c #000000",
"aF c #000000",
"aG c #000000",
"aH c #000000",
"aI c #000000",
"aJ c #000000",
"aK c #000000",
"aL c #000000",
"aM c #000000",
"aN c #000000",
"aO c #000000",
"aP c #000000",
"aQ c #000000",
"aR c #000000",
"aS c #000000",
"aT c #000000",
"aU c #000000",
"aV c #000000",
"aW c #000000",
"aX c #000000",
"aY c #000000",
"aZ c #000000",
"a0 c #000000",
"a1 c #000000",
"a2 c #000000",
"a3 c #000000",
"a4 c #000000",
"a5 c #000000",
"a6 c #000000",
"a7 c #000000",
"a8 c #000000",
/* pixels */
"```.`#`#`#`#`#`#`#`#`#`#`#`#`.``",
"```#`a`a`a`a`a`a`a`a`a`a`a`a`#``",
"```#`a`a`a`a`a`a`a`a`a`a`a`b`#``",
"```#`a`c`d`d`d`d`d`d`d`e`d`c`f``",
"```#`a`g`h`h`h`h`h`h`i`j`k`l`m``",
"```#`a`n`o`o`o`o`p`p`#`q`r`s`t``",
"```#`a`u`v`v`w`w`x`x`y`z`g`A`B``",
"```#`a`C`k`D`E`F`G`H`h`q`e`I`J``",
"```#`a`e`r`C`K`g`L`M`N`K`O`O`P``",
"```#`b`o`Q`R`S`T`U`V`W`X`Y`I`Z``",
"```0`c`l`s`d`A`e`I`O`O`u`1`2`3``",
"```4`l`s`A`e`I`O`O`u`A`5`6`7`8``",
"``.``d`A`I`n`O`u`I...#.a.b.c.d``",
"```D`e`I`O`O`u`1`2.e.f.g.h.i.j``",
"``.k`O`O`u`A`5`6`7.l.m.n.o.p````",
"``.q`S.r.s.m.t.u.v.w.x.y.z``````"
};
