/* XPM */
static const char *document_48_xpm[] = {
/* width height num_colors chars_per_pixel */
"    48    48      256            2",
/* colors */
"`` c None",
"`. c #898b86",
"`# c #888a85",
"`a c #dbdbda",
"`b c #f1f1f1",
"`c c #d9dad8",
"`d c #f3f3f2",
"`e c #fcfcfc",
"`f c #f9f9f9",
"`g c #fdfdfc",
"`h c #f2f2f1",
"`i c #f8f8f8",
"`j c #f0f0ef",
"`k c #efefee",
"`l c #f9f9f8",
"`m c #efefef",
"`n c #f1f2f1",
"`o c #eeeeee",
"`p c #eeeeed",
"`q c #ececeb",
"`r c #e4e4e3",
"`s c #e3e3e2",
"`t c #e2e2e2",
"`u c #e7e7e6",
"`v c #c8c8c7",
"`w c #c7c7c6",
"`x c #c6c6c6",
"`y c #c6c6c5",
"`z c #d8d8d7",
"`A c #ededed",
"`B c #f8f8f7",
"`C c #ededec",
"`D c #e5e5e4",
"`E c #e3e3e3",
"`F c #e6e6e6",
"`G c #f7f7f7",
"`H c #ececec",
"`I c #ebebea",
"`J c #eaeae9",
"`K c #e9e9e9",
"`L c #e9e9e8",
"`M c #e8e8e8",
"`N c #e8e8e7",
"`O c #c5c5c5",
"`P c #c5c5c4",
"`Q c #e1e1e1",
"`R c #ebebeb",
"`S c #c7c7c7",
"`T c #c4c4c4",
"`U c #e1e1e0",
"`V c #f1f1f0",
"`W c #dddddc",
"`X c #dcdcdb",
"`Y c #dbdbdb",
"`Z c #dadada",
"`0 c #dadad9",
"`1 c #d9d9d9",
"`2 c #e6e6e5",
"`3 c #eaeaea",
"`4 c #cacaca",
"`5 c #cacac9",
"`6 c #c9c9c9",
"`7 c #c9c9c8",
"`8 c #c8c8c8",
".` c #d0d0d0",
".. c #f6f6f6",
".# c #c4c4c3",
".a c #c3c3c3",
".b c #cecece",
".c c #f5f5f5",
".d c #d5d5d4",
".e c #d4d4d4",
".f c #d4d4d3",
".g c #d3d3d3",
".h c #d3d3d2",
".i c #d2d2d2",
".j c #d2d2d1",
".k c #d1d1d1",
".l c #d1d1d0",
".m c #d9d9d8",
".n c #f4f4f4",
".o c #f3f3f3",
".p c #e5e5e5",
".q c #d0d0cf",
".r c #cfcfcf",
".s c #cfcfce",
".t c #cececd",
".u c #cdcdcd",
".v c #cdcdcc",
".w c #cccccc",
".x c #e7e7e7",
".y c #f2f2f2",
".z c #e2e2e1",
".A c #c3c3c2",
".B c #c2c2c2",
".C c #c1c1c1",
".D c #cccccb",
".E c #cbcbcb",
".F c #cbcbca",
".G c #d7d7d7",
".H c #e5e6e5",
".I c #f0f0f0",
".J c #e5e6e4",
".K c #fafafa",
".L c #fbfbfb",
".M c #f7f7f6",
".N c #fefefe",
".O c #fdfdfd",
".P c #dfe0de",
".Q c #878a84",
".R c #edeeed",
".S c #ffffff",
".T c #999c97",
".U c #868a84",
".V c #d3d4d2",
".W c #c6c8c5",
".X c #caccc9",
".Y c #cecfcd",
".Z c #d1d3d1",
".0 c #d5d7d5",
".1 c #dadbd9",
".2 c #cbccc9",
".3 c #b5b8b4",
".4 c #919590",
".5 c #8b8f89",
".6 c #aeb0ad",
".7 c #949792",
".8 c #90948f",
"#` c #8c8f8a",
"#. c #8a8e88",
"## c #888c86",
"#a c #898d87",
"#b c #8f928d",
"#c c #929590",
"#d c #949693",
"#e c #8a8d88",
"#f c #a3a5a0",
"#g c #b2b5b1",
"#h c #a3a5a2",
"#i c #b9b9b9",
"#j c #ababab",
"#k c #a3a3a3",
"#l c #949593",
"#m c #b7b9b6",
"#n c #a3a5a1",
"#o c #bebebe",
"#p c #bdbdbd",
"#q c #bbbbbb",
"#r c #b3b3b3",
"#s c #aaaaaa",
"#t c #a1a1a1",
"#u c #969796",
"#v c #b1b3af",
"#w c #bbbdba",
"#x c #a2a5a1",
"#y c #b8b8b8",
"#z c #b1b1b1",
"#A c #a9a9a9",
"#B c #a0a0a0",
"#C c #969695",
"#D c #888b86",
"#E c #e3e4e2",
"#F c #babcb9",
"#G c #9ea09c",
"#H c #b0b0b0",
"#I c #a8a8a8",
"#J c #9f9f9f",
"#K c #949594",
"#L c #878a85",
"#M c #9ea19c",
"#N c #e1e2e1",
"#O c #fafaf9",
"#P c #f6f6f5",
"#Q c #b4b6b3",
"#R c #989b97",
"#S c #afafaf",
"#T c #a6a6a6",
"#U c #9e9e9e",
"#V c #929392",
"#W c #999d98",
"#X c #e0e0df",
"#Y c #f4f4f2",
"#Z c #f0f0ee",
"#0 c #adb0ab",
"#1 c #969995",
"#2 c #aeaeae",
"#3 c #a5a5a5",
"#4 c #9b9b9b",
"#5 c #8c8f8b",
"#6 c #a5a8a3",
"#7 c #dededd",
"#8 c #efefec",
"a` c #ebebe8",
"a. c #a5a7a2",
"a# c #959793",
"aa c #a4a4a4",
"ab c #959695",
"ac c #878b86",
"ad c #d5d6d4",
"ae c #c1c2c1",
"af c #d8d8d8",
"ag c #d7d8d7",
"ah c #d7d7d6",
"ai c #d6d7d5",
"aj c #d7d8d6",
"ak c #d8d9d8",
"al c #dadbda",
"am c #dcdddb",
"an c #dddedc",
"ao c #dcdddc",
"ap c #d7d8d5",
"aq c #d4d5d2",
"ar c #d1d1cf",
"as c #cecfcc",
"at c #cccdc9",
"au c #c7c8c3",
"av c #8b8e89",
"aw c #a7aaa6",
"ax c #8d8f8a",
"ay c #8c8e89",
"az c #8a8d87",
"aA c #929591",
"aB c #b9bcb8",
"aC c #000000",
"aD c #000000",
"aE c #000000",
"aF c #000000",
"aG c #000000",
"aH c #000000",
"aI c #000000",
"aJ c #000000",
"aK c #000000",
"aL c #000000",
"aM c #000000",
"aN c #000000",
"aO c #000000",
"aP c #000000",
"aQ c #000000",
"aR c #000000",
"aS c #000000",
"aT c #000000",
"aU c #000000",
"aV c #000000",
"aW c #000000",
"aX c #000000",
"aY c #000000",
"aZ c #000000",
"a0 c #000000",
"a1 c #000000",
"a2 c #000000",
"a3 c #000000",
"a4 c #000000",
"a5 c #000000",
"a6 c #000000",
"a7 c #000000",
"a8 c #000000",
/* pixels */
"`````````.`#`#`#`#`#`#`#`#`#`#`#`#`#`#`#`#`#`#`#`#`#`#`#`#`#`#`#`#`#`#`#`#`#`#`#`#`#`.``````````",
"```````.`a`b`b`b`b`b`b`b`b`b`b`b`b`b`b`b`b`b`b`b`b`b`b`b`b`b`b`b`b`b`b`b`b`b`b`b`b`b`c`.````````",
"```````#`d`e`f`f`f`f`f`f`f`f`f`f`f`f`f`f`f`f`f`f`f`f`f`f`f`f`f`f`f`f`f`f`f`f`f`f`f`g`h`#````````",
"```````#`d`i`j`j`j`j`j`j`j`j`j`j`j`j`j`j`j`j`j`j`j`j`j`j`j`j`j`j`j`j`j`j`j`j`j`j`j`f`h`#````````",
"```````#`d`i`j`j`j`j`j`j`j`j`j`j`j`j`j`j`j`j`j`j`j`j`j`j`j`j`j`j`j`j`j`j`j`j`j`j`j`f`h`#````````",
"```````#`d`i`j`j`j`j`j`j`j`j`j`j`j`j`j`j`j`j`j`j`j`j`j`j`j`j`j`j`j`j`j`j`j`j`j`j`j`f`h`#````````",
"```````#`d`i`j`j`j`j`j`j`j`j`j`j`j`j`j`j`j`j`j`j`j`j`j`j`j`j`j`j`j`j`j`j`j`j`j`j`k`l`h`#````````",
"```````#`d`i`j`j`j`j`j`j`j`j`j`j`j`j`j`j`j`j`j`j`j`j`j`j`j`j`j`j`j`j`j`j`j`j`m`k`k`l`h`#````````",
"```````#`d`i`j`j`j`j`j`j`j`j`j`j`j`j`j`j`j`j`j`j`j`j`j`j`j`j`j`j`j`j`j`j`j`k`k`k`k`i`n`#````````",
"```````#`d`i`j`j`j`j`j`j`j`j`j`j`j`j`j`j`j`j`j`j`j`j`j`j`j`j`j`j`j`j`j`k`k`k`k`k`o`i`n`#````````",
"```````#`d`i`j`j`j`j`j`j`j`j`j`j`j`j`j`j`j`j`j`j`j`j`j`j`j`j`j`j`j`m`k`k`k`k`o`p`p`i`n`#````````",
"```````#`d`i`j`j`j`j`q`r`r`r`r`r`r`r`r`r`r`r`r`r`r`r`r`r`r`r`r`r`s`s`s`s`t`u`p`p`p`i`b`#````````",
"```````#`d`i`j`j`j`j`r`v`v`v`v`v`v`v`v`v`v`v`v`v`v`v`v`v`v`v`w`w`w`w`w`x`y`z`p`A`A`B`b`#````````",
"```````#`d`i`j`j`j`j`r`v`v`v`v`v`v`v`v`v`v`v`v`v`v`v`v`v`v`w`w`w`w`x`y`y`y`z`A`C`C`B`b`#````````",
"```````#`d`i`j`j`j`j`q`D`D`D`D`D`D`D`D`D`D`D`D`D`D`D`D`r`r`r`r`E`s`s`s`s`t`F`C`C`C`G`b`#````````",
"```````#`d`i`j`j`j`j`j`j`j`j`j`j`j`j`j`j`j`j`j`j`j`m`k`k`k`k`o`p`p`p`A`A`C`C`C`H`H`G`b`#````````",
"```````#`d`i`j`j`j`j`p`I`I`I`I`I`I`I`I`I`I`I`I`I`J`J`J`J`K`L`L`L`L`M`N`N`I`H`H`H`q`G`b`#````````",
"```````#`d`i`j`j`j`j`r`v`v`v`v`v`v`v`v`v`v`v`w`w`w`w`w`x`y`y`y`O`O`P`P`P`Q`H`q`q`R`G`b`#````````",
"```````#`d`i`j`j`j`j`r`v`v`v`v`v`v`v`v`v`S`w`w`w`w`x`y`y`y`y`O`P`P`P`T`T`U`q`q`R`R`G`V`#````````",
"```````#`d`i`j`j`j`j`J`W`W`W`W`W`W`W`W`X`X`X`X`Y`a`a`a`a`Z`Z`0`0`0`1`1`1`2`R`R`R`I`G`V`#````````",
"```````#`d`i`j`j`j`j`j`j`j`j`j`j`j`k`k`k`k`k`o`p`p`p`A`A`C`C`C`H`H`q`q`R`R`R`I`I`3`G`V`#````````",
"```````#`d`i`j`j`j`j`j`j`j`j`j`j`k`k`k`k`o`p`p`p`p`A`C`C`C`H`H`H`q`q`R`R`R`I`3`3`3`G`V`#````````",
"```````#`d`i`j`j`j`j`r`4`4`4`5`5`5`5`6`7`7`7`7`8`8`v`v`v`S`S`w`w`x.``R`I`I`3`3`3`J..`m`#````````",
"```````#`d`i`j`j`j`j`r`v`S`w`w`w`w`x`y`y`y`O`O`P`P`P`T`T.#.#.#.a.a.b`I`3`3`3`3`J`K.c`A`#````````",
"```````#`d`i`j`j`j`j`N.d.d.d.d.e.f.f.f.f.g.h.h.h.i.i.i.j.j.k.k.k.l.m`3`3`3`J`K`K`K.c`q`#````````",
"```````#`d`i`j`j`j`k`k`k`k`k`o`p`p`p`A`A`C`C`C`H`H`q`q`R`R`R`I`I`3`3`3`3`J`K`K`K`K.n`J`#````````",
"```````#`d`i`j`m`k`k`k`k`o`p`p`p`p`A`C`C`C`H`H`q`q`q`R`R`R`I`3`3`3`3`J`K`K`K`K`M`M.o`M`#````````",
"```````#`d`i`k`k`k`k.p.q.q.q.q.r.r.s.s.s.b.b.b.b.b.b.b.t.t.u.u.u.v.w.w.w.w`1`M`M`K.o.x`#````````",
"```````#.y`i`k`k`k`o.z`y`y`O`O`P`P`P`T`T.#.#.a.a.a.a.a.a.a.a.a.A.B.B.B.B.C.i`M`3`R.c`u`#````````",
"```````#.y`i`k`o`p`p`r.w.w.D.D.D.E.E.E.F.F`4`4`4`5`6`6`6`6`7`8`8`8`8`v`S`S.G`R`H`o..`2`#````````",
"```````#.y`i`p`p`p`p`A`A`C`C`C`H`H`q`q`R`R`R`I`I`3`3`3`J`K`K`K`K`K`M`M`M`3`H`A`m`b`G.H`#````````",
"```````#.y`B`p`p`A`A`C`C`C`H`H`q`q`q`R`R`R`I`3`3`3`3`J`K`K`K`K`M`M`M`K`R`A`o.I.y.o`i.J`#````````",
"```````#.y`B`p`A`C`C`C`H`H`H`q`q`R`R`R`I`I`3`3`3`J`K`K`K`K`L`M`M`K`3`H`o`m`b.o.n...K`D`#````````",
"```````#.y`G`A`C`C`C`H`H`q`q`R`R`R`I`I`3`3`3`3`J`K`K`K`K`M`M`M`3`H`A`m.I.y.n.c`G`f.L`D`#````````",
"```````#`b.M`C`C`H`H`q`q`q`R`R`R`I`3`3`3`3`J`K`K`K`K`M`M`M`K`R`A`o.I`b.o.c..`i.K.L.N`D`#````````",
"```````#`m..`C`H`H`q`q`R`R`R`I`I`3`3`3`J`K`K`K`K`K`M`M`K`3`H`o`m`b.o.n..`G`f.L`e.N.O.P.Q````````",
"```````#.R.c`H`q`q`R`R`R`I`I`3`3`3`3`J`K`K`K`K`M`M`M`3`R`A`m.I.y.n.c`G`i.K`e.O.S.L`j.T.U````````",
"```````#`q.c`q`q`R`R`R`I`3`3`3`3`J`K`K`K`K`L`M`M`K`R`H`o.I`b.o.V.W.X.Y.Z.0`c.1.2.3.4.U.5````````",
"```````#`J.n`R`R`R`I`I`3`3`3`J`K`K`K`K`K`M`M`M`3`H`A`m`b.y.n...6.5.7.8#`#.###a#b#c#d#e#f````````",
"```````#`L.o`R`R`I`3`3`3`3`J`K`K`K`K`M`M`M`K`R`A`o.I.y.o.c`G`i#g#h.i.i.i.w`T#i#j#k#l.U``````````",
"```````#`u.o`I`I`3`3`3`J`K`K`K`K`L`M`M`K`3`H`o`m`b.o.n..`i`f.L#m#n.i#o#p#q#r#s#t#u###v``````````",
"```````#.J`h`3`3`3`3`J`K`K`K`K`M`M`M`3`R`A`m.I.y.n.c`G`f.K`e.N#w#x.u#y#y#z#A#B#C#D#x````````````",
"```````##E`b`3`3`J`K`K`K`K`M`M`M`K`R`A`o.I`b.o.c..`i.K.L.O.S`e#F#G.C#y#H#I#J#K#L#M``````````````",
"```````##N.I`J`K`K`K`K`K`M`M`K`3`H`o`m`b.o.n..`G`f.L`e.N.O#O#P#Q#R#y#S#T#U#V#L#W````````````````",
"```````##X`j`K`K`K`K`M`M`M`3`R`A`m.I.y.n.c`G`i.K`e.O.S.L.M#Y#Z#0#1#2#3#4#5.U#6``````````````````",
"```````##7`b`m`o`p`A`A`o`m.I`b.o.o.c..`G`f.L.L.O.N`e`f#P`h#8a`a.a#aaabac.5ad````````````````````",
"```````.ae.mafagahaiah`zaj`zak.m`cal.1`Yam`Xanao`capaqarasatau#eav##.Uaw````````````````````````",
"````````axayayayayayayayayayayayayayayayayayayayayayayayayayaz.UaAaB````````````````````````````"
};
