/* XPM */
const static char *curve_xpm[] = {
/* width height num_colors chars_per_pixel */
"    16    16      256            2",
/* colors */
"`` c None",
"`. c #fcfcfc",
"`# c #cbcdcd",
"`a c #383f41",
"`b c #e5e6e6",
"`c c #989b9c",
"`d c #32383a",
"`e c #717577",
"`f c #929596",
"`g c #464b4d",
"`h c #fdfdfd",
"`i c #fbfbfb",
"`j c #515657",
"`k c #d7d9d9",
"`l c #5b5f61",
"`m c #c2c4c4",
"`n c #8d8f90",
"`o c #383e40",
"`p c #dddede",
"`q c #fefefe",
"`r c #353b3d",
"`s c #f5f5f6",
"`t c #b1b3b4",
"`u c #5c6162",
"`v c #f7f7f7",
"`w c #848888",
"`x c #84878a",
"`y c #e8eaea",
"`z c #404648",
"`A c #696e70",
"`B c #949798",
"`C c #babcbd",
"`D c #676a6b",
"`E c #e5e5e7",
"`F c #3c4244",
"`G c #f8f8f8",
"`H c #5e6263",
"`I c #eef0f0",
"`J c #494f50",
"`K c #a1a3a3",
"`L c #767a7c",
"`M c #abaeaf",
"`N c #686d6d",
"`O c #b3b6b6",
"`P c #afb2b2",
"`Q c #7b7e80",
"`R c #ebebeb",
"`S c #5e6265",
"`T c #777c7c",
"`U c #616667",
"`V c #cbcccd",
"`W c #444a4c",
"`X c #484c4f",
"`Y c #b6b8b8",
"`Z c #6e7274",
"`0 c #c8c9ca",
"`1 c #8a8e8f",
"`2 c #919394",
"`3 c #494e50",
"`4 c #ececee",
"`5 c #f0f1f1",
"`6 c #000000",
"`7 c #000000",
"`8 c #000000",
".` c #000000",
".. c #000000",
".# c #000000",
".a c #000000",
".b c #000000",
".c c #000000",
".d c #000000",
".e c #000000",
".f c #000000",
".g c #000000",
".h c #000000",
".i c #000000",
".j c #000000",
".k c #000000",
".l c #000000",
".m c #000000",
".n c #000000",
".o c #000000",
".p c #000000",
".q c #000000",
".r c #000000",
".s c #000000",
".t c #000000",
".u c #000000",
".v c #000000",
".w c #000000",
".x c #000000",
".y c #000000",
".z c #000000",
".A c #000000",
".B c #000000",
".C c #000000",
".D c #000000",
".E c #000000",
".F c #000000",
".G c #000000",
".H c #000000",
".I c #000000",
".J c #000000",
".K c #000000",
".L c #000000",
".M c #000000",
".N c #000000",
".O c #000000",
".P c #000000",
".Q c #000000",
".R c #000000",
".S c #000000",
".T c #000000",
".U c #000000",
".V c #000000",
".W c #000000",
".X c #000000",
".Y c #000000",
".Z c #000000",
".0 c #000000",
".1 c #000000",
".2 c #000000",
".3 c #000000",
".4 c #000000",
".5 c #000000",
".6 c #000000",
".7 c #000000",
".8 c #000000",
"#` c #000000",
"#. c #000000",
"## c #000000",
"#a c #000000",
"#b c #000000",
"#c c #000000",
"#d c #000000",
"#e c #000000",
"#f c #000000",
"#g c #000000",
"#h c #000000",
"#i c #000000",
"#j c #000000",
"#k c #000000",
"#l c #000000",
"#m c #000000",
"#n c #000000",
"#o c #000000",
"#p c #000000",
"#q c #000000",
"#r c #000000",
"#s c #000000",
"#t c #000000",
"#u c #000000",
"#v c #000000",
"#w c #000000",
"#x c #000000",
"#y c #000000",
"#z c #000000",
"#A c #000000",
"#B c #000000",
"#C c #000000",
"#D c #000000",
"#E c #000000",
"#F c #000000",
"#G c #000000",
"#H c #000000",
"#I c #000000",
"#J c #000000",
"#K c #000000",
"#L c #000000",
"#M c #000000",
"#N c #000000",
"#O c #000000",
"#P c #000000",
"#Q c #000000",
"#R c #000000",
"#S c #000000",
"#T c #000000",
"#U c #000000",
"#V c #000000",
"#W c #000000",
"#X c #000000",
"#Y c #000000",
"#Z c #000000",
"#0 c #000000",
"#1 c #000000",
"#2 c #000000",
"#3 c #000000",
"#4 c #000000",
"#5 c #000000",
"#6 c #000000",
"#7 c #000000",
"#8 c #000000",
"a` c #000000",
"a. c #000000",
"a# c #000000",
"aa c #000000",
"ab c #000000",
"ac c #000000",
"ad c #000000",
"ae c #000000",
"af c #000000",
"ag c #000000",
"ah c #000000",
"ai c #000000",
"aj c #000000",
"ak c #000000",
"al c #000000",
"am c #000000",
"an c #000000",
"ao c #000000",
"ap c #000000",
"aq c #000000",
"ar c #000000",
"as c #000000",
"at c #000000",
"au c #000000",
"av c #000000",
"aw c #000000",
"ax c #000000",
"ay c #000000",
"az c #000000",
"aA c #000000",
"aB c #000000",
"aC c #000000",
"aD c #000000",
"aE c #000000",
"aF c #000000",
"aG c #000000",
"aH c #000000",
"aI c #000000",
"aJ c #000000",
"aK c #000000",
"aL c #000000",
"aM c #000000",
"aN c #000000",
"aO c #000000",
"aP c #000000",
"aQ c #000000",
"aR c #000000",
"aS c #000000",
"aT c #000000",
"aU c #000000",
"aV c #000000",
"aW c #000000",
"aX c #000000",
"aY c #000000",
"aZ c #000000",
"a0 c #000000",
"a1 c #000000",
"a2 c #000000",
"a3 c #000000",
"a4 c #000000",
"a5 c #000000",
"a6 c #000000",
"a7 c #000000",
"a8 c #000000",
/* pixels */
"```````````````````.````````````",
"`````````````````#`a`b``````````",
"`````````````````c`d`c``````````",
"`````````````````e`f`g`h````````",
"`````````i```````j`k`l`m````````",
"```````n`o`p```q`r`s`t`u`h``````",
"`````v`a`w`x```y`z```q`A`B``````",
"`````C`D`E`F`G`#`H`````I`J`K````",
"`````L`M```N`O`P`Q```````R`S`T``",
"`````F`R```C`U`f`c`````````i`V``",
"```b`W`````i`X`J`Y``````````````",
"```C`Z```````0`1`G``````````````",
"```2`c``````````````````````````",
"```N`m``````````````````````````",
"```3`4``````````````````````````",
"```5````````````````````````````"
};
