/* XPM */
const static char *freehand_xpm[] = {
/* width height num_colors chars_per_pixel */
"    16    16      256            2",
/* colors */
"`` c None",
"`. c #ebecec",
"`# c #c5c5c7",
"`a c #bdc0c1",
"`b c #eeeeee",
"`c c #949798",
"`d c #55585b",
"`e c #3d4344",
"`f c #676a6b",
"`g c #87898b",
"`h c #bdbfbf",
"`i c #3f4446",
"`j c #818587",
"`k c #cfd1d1",
"`l c #fdfdfd",
"`m c #c2c4c4",
"`n c #414748",
"`o c #d6d7d7",
"`p c #cdcdce",
"`q c #696d6e",
"`r c #6d7172",
"`s c #d1d1d3",
"`t c #fafafa",
"`u c #a1a3a3",
"`v c #525758",
"`w c #404647",
"`x c #a8abab",
"`y c #e0e1e1",
"`z c #4e5356",
"`A c #bfc0c2",
"`B c #6c7171",
"`C c #b6b8b9",
"`D c #b8baba",
"`E c #494f50",
"`F c #f7f7f7",
"`G c #f8f8f8",
"`H c #909393",
"`I c #7d7f82",
"`J c #d5d6d7",
"`K c #f3f5f5",
"`L c #8f9495",
"`M c #454b4c",
"`N c #d8dada",
"`O c #686d6d",
"`P c #797b7d",
"`Q c #a3a5a7",
"`R c #464b4d",
"`S c #565b5c",
"`T c #636769",
"`U c #383e40",
"`V c #7a7e7f",
"`W c #ececee",
"`X c #bcbebe",
"`Y c #cfd0d0",
"`Z c #c8c9ca",
"`0 c #f0f1f1",
"`1 c #5c6162",
"`2 c #babcbd",
"`3 c #53585a",
"`4 c #f2f2f2",
"`5 c #e2e3e3",
"`6 c #000000",
"`7 c #000000",
"`8 c #000000",
".` c #000000",
".. c #000000",
".# c #000000",
".a c #000000",
".b c #000000",
".c c #000000",
".d c #000000",
".e c #000000",
".f c #000000",
".g c #000000",
".h c #000000",
".i c #000000",
".j c #000000",
".k c #000000",
".l c #000000",
".m c #000000",
".n c #000000",
".o c #000000",
".p c #000000",
".q c #000000",
".r c #000000",
".s c #000000",
".t c #000000",
".u c #000000",
".v c #000000",
".w c #000000",
".x c #000000",
".y c #000000",
".z c #000000",
".A c #000000",
".B c #000000",
".C c #000000",
".D c #000000",
".E c #000000",
".F c #000000",
".G c #000000",
".H c #000000",
".I c #000000",
".J c #000000",
".K c #000000",
".L c #000000",
".M c #000000",
".N c #000000",
".O c #000000",
".P c #000000",
".Q c #000000",
".R c #000000",
".S c #000000",
".T c #000000",
".U c #000000",
".V c #000000",
".W c #000000",
".X c #000000",
".Y c #000000",
".Z c #000000",
".0 c #000000",
".1 c #000000",
".2 c #000000",
".3 c #000000",
".4 c #000000",
".5 c #000000",
".6 c #000000",
".7 c #000000",
".8 c #000000",
"#` c #000000",
"#. c #000000",
"## c #000000",
"#a c #000000",
"#b c #000000",
"#c c #000000",
"#d c #000000",
"#e c #000000",
"#f c #000000",
"#g c #000000",
"#h c #000000",
"#i c #000000",
"#j c #000000",
"#k c #000000",
"#l c #000000",
"#m c #000000",
"#n c #000000",
"#o c #000000",
"#p c #000000",
"#q c #000000",
"#r c #000000",
"#s c #000000",
"#t c #000000",
"#u c #000000",
"#v c #000000",
"#w c #000000",
"#x c #000000",
"#y c #000000",
"#z c #000000",
"#A c #000000",
"#B c #000000",
"#C c #000000",
"#D c #000000",
"#E c #000000",
"#F c #000000",
"#G c #000000",
"#H c #000000",
"#I c #000000",
"#J c #000000",
"#K c #000000",
"#L c #000000",
"#M c #000000",
"#N c #000000",
"#O c #000000",
"#P c #000000",
"#Q c #000000",
"#R c #000000",
"#S c #000000",
"#T c #000000",
"#U c #000000",
"#V c #000000",
"#W c #000000",
"#X c #000000",
"#Y c #000000",
"#Z c #000000",
"#0 c #000000",
"#1 c #000000",
"#2 c #000000",
"#3 c #000000",
"#4 c #000000",
"#5 c #000000",
"#6 c #000000",
"#7 c #000000",
"#8 c #000000",
"a` c #000000",
"a. c #000000",
"a# c #000000",
"aa c #000000",
"ab c #000000",
"ac c #000000",
"ad c #000000",
"ae c #000000",
"af c #000000",
"ag c #000000",
"ah c #000000",
"ai c #000000",
"aj c #000000",
"ak c #000000",
"al c #000000",
"am c #000000",
"an c #000000",
"ao c #000000",
"ap c #000000",
"aq c #000000",
"ar c #000000",
"as c #000000",
"at c #000000",
"au c #000000",
"av c #000000",
"aw c #000000",
"ax c #000000",
"ay c #000000",
"az c #000000",
"aA c #000000",
"aB c #000000",
"aC c #000000",
"aD c #000000",
"aE c #000000",
"aF c #000000",
"aG c #000000",
"aH c #000000",
"aI c #000000",
"aJ c #000000",
"aK c #000000",
"aL c #000000",
"aM c #000000",
"aN c #000000",
"aO c #000000",
"aP c #000000",
"aQ c #000000",
"aR c #000000",
"aS c #000000",
"aT c #000000",
"aU c #000000",
"aV c #000000",
"aW c #000000",
"aX c #000000",
"aY c #000000",
"aZ c #000000",
"a0 c #000000",
"a1 c #000000",
"a2 c #000000",
"a3 c #000000",
"a4 c #000000",
"a5 c #000000",
"a6 c #000000",
"a7 c #000000",
"a8 c #000000",
/* pixels */
"`````````````````````````.`#`a``",
"```````````````````b`c`d`e`f`g``",
"`````````````````h`i`j`k`l``````",
"```````````````m`n`o````````````",
"```````````````n`p``````````````",
"```````````````q`r`s`l``````````",
"```````````````t`u`v`w`x````````",
"`````````````````````y`z`A``````",
"```````````````````````B`C``````",
"`````````````````````D`E`F``````",
"`````G`H`I`J`````K`L`M`N````````",
"`````O`P`Q`R`S`T`U`V`W``````````",
"```X`S`l```l`Y`Z`0``````````````",
"```1`2``````````````````````````",
"`Z`3`l``````````````````````````",
"`4`5````````````````````````````"
};
