/* XPM */
const static char *line_xpm[] = {
/* width height num_colors chars_per_pixel */
"    16    16      256            2",
/* colors */
"`` c None",
"`. c #f8f8f8",
"`# c #525758",
"`a c #666b6d",
"`b c #fbfbfb",
"`c c #fdfdfd",
"`d c #32383a",
"`e c #616667",
"`f c #767a7c",
"`g c #fefefe",
"`h c #e3e4e4",
"`i c #3e4345",
"`j c #f5f5f5",
"`k c #5a5e61",
"`l c #888b8c",
"`m c #c5c7c8",
"`n c #5e6263",
"`o c #efefef",
"`p c #4d5253",
"`q c #9d9f9f",
"`r c #a6a9ab",
"`s c #7b8080",
"`t c #e5e6e6",
"`u c #464b4d",
"`v c #e5e5e7",
"`w c #727678",
"`x c #bfc2c2",
"`y c #9b9d9e",
"`z c #a3a5a7",
"`A c #3b4243",
"`B c #b3b4b6",
"`C c #6a6e70",
"`D c #b9bbbc",
"`E c #f5f5f6",
"`F c #404647",
"`G c #d2d4d4",
"`H c #d3d6d6",
"`I c #a6a7a9",
"`J c #4c5053",
"`K c #d7d9d9",
"`L c #989b9c",
"`M c #707375",
"`N c #e0e1e1",
"`O c #474c4e",
"`P c #2f3537",
"`Q c #f7f7f7",
"`R c #3b4042",
"`S c #dbdcdc",
"`T c #e8eaea",
"`U c #8a8e8f",
"`V c #7a7e7f",
"`W c #e8e9e9",
"`X c #383e40",
"`Y c #7f8284",
"`Z c #848888",
"`0 c #ebebeb",
"`1 c #d3d5d5",
"`2 c #000000",
"`3 c #000000",
"`4 c #000000",
"`5 c #000000",
"`6 c #000000",
"`7 c #000000",
"`8 c #000000",
".` c #000000",
".. c #000000",
".# c #000000",
".a c #000000",
".b c #000000",
".c c #000000",
".d c #000000",
".e c #000000",
".f c #000000",
".g c #000000",
".h c #000000",
".i c #000000",
".j c #000000",
".k c #000000",
".l c #000000",
".m c #000000",
".n c #000000",
".o c #000000",
".p c #000000",
".q c #000000",
".r c #000000",
".s c #000000",
".t c #000000",
".u c #000000",
".v c #000000",
".w c #000000",
".x c #000000",
".y c #000000",
".z c #000000",
".A c #000000",
".B c #000000",
".C c #000000",
".D c #000000",
".E c #000000",
".F c #000000",
".G c #000000",
".H c #000000",
".I c #000000",
".J c #000000",
".K c #000000",
".L c #000000",
".M c #000000",
".N c #000000",
".O c #000000",
".P c #000000",
".Q c #000000",
".R c #000000",
".S c #000000",
".T c #000000",
".U c #000000",
".V c #000000",
".W c #000000",
".X c #000000",
".Y c #000000",
".Z c #000000",
".0 c #000000",
".1 c #000000",
".2 c #000000",
".3 c #000000",
".4 c #000000",
".5 c #000000",
".6 c #000000",
".7 c #000000",
".8 c #000000",
"#` c #000000",
"#. c #000000",
"## c #000000",
"#a c #000000",
"#b c #000000",
"#c c #000000",
"#d c #000000",
"#e c #000000",
"#f c #000000",
"#g c #000000",
"#h c #000000",
"#i c #000000",
"#j c #000000",
"#k c #000000",
"#l c #000000",
"#m c #000000",
"#n c #000000",
"#o c #000000",
"#p c #000000",
"#q c #000000",
"#r c #000000",
"#s c #000000",
"#t c #000000",
"#u c #000000",
"#v c #000000",
"#w c #000000",
"#x c #000000",
"#y c #000000",
"#z c #000000",
"#A c #000000",
"#B c #000000",
"#C c #000000",
"#D c #000000",
"#E c #000000",
"#F c #000000",
"#G c #000000",
"#H c #000000",
"#I c #000000",
"#J c #000000",
"#K c #000000",
"#L c #000000",
"#M c #000000",
"#N c #000000",
"#O c #000000",
"#P c #000000",
"#Q c #000000",
"#R c #000000",
"#S c #000000",
"#T c #000000",
"#U c #000000",
"#V c #000000",
"#W c #000000",
"#X c #000000",
"#Y c #000000",
"#Z c #000000",
"#0 c #000000",
"#1 c #000000",
"#2 c #000000",
"#3 c #000000",
"#4 c #000000",
"#5 c #000000",
"#6 c #000000",
"#7 c #000000",
"#8 c #000000",
"a` c #000000",
"a. c #000000",
"a# c #000000",
"aa c #000000",
"ab c #000000",
"ac c #000000",
"ad c #000000",
"ae c #000000",
"af c #000000",
"ag c #000000",
"ah c #000000",
"ai c #000000",
"aj c #000000",
"ak c #000000",
"al c #000000",
"am c #000000",
"an c #000000",
"ao c #000000",
"ap c #000000",
"aq c #000000",
"ar c #000000",
"as c #000000",
"at c #000000",
"au c #000000",
"av c #000000",
"aw c #000000",
"ax c #000000",
"ay c #000000",
"az c #000000",
"aA c #000000",
"aB c #000000",
"aC c #000000",
"aD c #000000",
"aE c #000000",
"aF c #000000",
"aG c #000000",
"aH c #000000",
"aI c #000000",
"aJ c #000000",
"aK c #000000",
"aL c #000000",
"aM c #000000",
"aN c #000000",
"aO c #000000",
"aP c #000000",
"aQ c #000000",
"aR c #000000",
"aS c #000000",
"aT c #000000",
"aU c #000000",
"aV c #000000",
"aW c #000000",
"aX c #000000",
"aY c #000000",
"aZ c #000000",
"a0 c #000000",
"a1 c #000000",
"a2 c #000000",
"a3 c #000000",
"a4 c #000000",
"a5 c #000000",
"a6 c #000000",
"a7 c #000000",
"a8 c #000000",
/* pixels */
"`````````````````````.`.````````",
"`````````````````````#`a`b``````",
"```````````````````c`d`e`f`g````",
"```````````````````h`i`j`k`l````",
"```````````````````m`n```o`p`q``",
"```````````````````r`s`````t`u`v",
"`````````.`w`x`````l`y```````c``",
"`````````z`#`A`B```C`D``````````",
"```````E`F`G`H`F`I`J`K``````````",
"```````L`M`````N`O`P`Q``````````",
"`````o`R`S```````T`D````````````",
"`````U`V````````````````````````",
"```W`X`h````````````````````````",
"```Y`Z``````````````````````````",
"`W`X`0``````````````````````````",
"`.`1````````````````````````````"
};
