/* XPM */
const static char *polygon_xpm[] = {
/* width height num_colors chars_per_pixel */
"    16    16      256            2",
/* colors */
"`` c #ffffff",
"`. c #b3b6b6",
"`# c #ebebeb",
"`a c None",
"`b c #fefefe",
"`c c #d3d6d6",
"`d c #9d9fa1",
"`e c #434a4b",
"`f c #394041",
"`g c #545a5a",
"`h c #929495",
"`i c #cdcdce",
"`j c #fcfcfc",
"`k c #d8d8d8",
"`l c #8d9091",
"`m c #454c4d",
"`n c #2e3436",
"`o c #cecfcf",
"`p c #9da1a1",
"`q c #86898a",
"`r c #eaeae8",
"`s c #bebfbe",
"`t c #868a8a",
"`u c #515556",
"`v c #3b4041",
"`w c #717678",
"`x c #8e9293",
"`y c #4d5354",
"`z c #464b4d",
"`A c #898c8c",
"`B c #76797a",
"`C c #65696a",
"`D c #9fa1a2",
"`E c #878a8a",
"`F c #eeeeec",
"`G c #d9dad8",
"`H c #a2a4a4",
"`I c #858989",
"`J c #c0c2c0",
"`K c #ededeb",
"`L c #d7d8d7",
"`M c #3d4143",
"`N c #e1e2e3",
"`O c #9fa3a4",
"`P c #868989",
"`Q c #696c6d",
"`R c #989b9c",
"`S c #a2a3a5",
"`T c #848788",
"`U c #b3b4b4",
"`V c #4c5254",
"`W c #fafafa",
"`X c #a1a5a5",
"`Y c #828686",
"`Z c #e6e6e4",
"`0 c #444b4c",
"`1 c #cbcccd",
"`2 c #a3a5a7",
"`3 c #838787",
"`4 c #848787",
"`5 c #7a7e7e",
"`6 c #a4a7a7",
"`7 c #818586",
"`8 c #cbcccb",
".` c #404446",
".. c #eeeeee",
".# c #808485",
".a c #b6b7b6",
".b c #44494a",
".c c #e3e4e4",
".d c #a6a7a9",
".e c #808383",
".f c #9ea1a0",
".g c #45494b",
".h c #dfdfdf",
".i c #a6a9ab",
".j c #7f8282",
".k c #a4a6a6",
".l c #414749",
".m c #dadbdb",
".n c #a8abab",
".o c #7d8182",
".p c #aaacab",
".q c #d7d7d7",
".r c #7c8081",
".s c #aeb0af",
".t c #3d4445",
".u c #d2d4d4",
".v c #aaabad",
".w c #535859",
".x c #878b8b",
".y c #565b5c",
".z c #373e40",
".A c #f0f1f1",
".B c #9d9f9f",
".C c #000000",
".D c #000000",
".E c #000000",
".F c #000000",
".G c #000000",
".H c #000000",
".I c #000000",
".J c #000000",
".K c #000000",
".L c #000000",
".M c #000000",
".N c #000000",
".O c #000000",
".P c #000000",
".Q c #000000",
".R c #000000",
".S c #000000",
".T c #000000",
".U c #000000",
".V c #000000",
".W c #000000",
".X c #000000",
".Y c #000000",
".Z c #000000",
".0 c #000000",
".1 c #000000",
".2 c #000000",
".3 c #000000",
".4 c #000000",
".5 c #000000",
".6 c #000000",
".7 c #000000",
".8 c #000000",
"#` c #000000",
"#. c #000000",
"## c #000000",
"#a c #000000",
"#b c #000000",
"#c c #000000",
"#d c #000000",
"#e c #000000",
"#f c #000000",
"#g c #000000",
"#h c #000000",
"#i c #000000",
"#j c #000000",
"#k c #000000",
"#l c #000000",
"#m c #000000",
"#n c #000000",
"#o c #000000",
"#p c #000000",
"#q c #000000",
"#r c #000000",
"#s c #000000",
"#t c #000000",
"#u c #000000",
"#v c #000000",
"#w c #000000",
"#x c #000000",
"#y c #000000",
"#z c #000000",
"#A c #000000",
"#B c #000000",
"#C c #000000",
"#D c #000000",
"#E c #000000",
"#F c #000000",
"#G c #000000",
"#H c #000000",
"#I c #000000",
"#J c #000000",
"#K c #000000",
"#L c #000000",
"#M c #000000",
"#N c #000000",
"#O c #000000",
"#P c #000000",
"#Q c #000000",
"#R c #000000",
"#S c #000000",
"#T c #000000",
"#U c #000000",
"#V c #000000",
"#W c #000000",
"#X c #000000",
"#Y c #000000",
"#Z c #000000",
"#0 c #000000",
"#1 c #000000",
"#2 c #000000",
"#3 c #000000",
"#4 c #000000",
"#5 c #000000",
"#6 c #000000",
"#7 c #000000",
"#8 c #000000",
"a` c #000000",
"a. c #000000",
"a# c #000000",
"aa c #000000",
"ab c #000000",
"ac c #000000",
"ad c #000000",
"ae c #000000",
"af c #000000",
"ag c #000000",
"ah c #000000",
"ai c #000000",
"aj c #000000",
"ak c #000000",
"al c #000000",
"am c #000000",
"an c #000000",
"ao c #000000",
"ap c #000000",
"aq c #000000",
"ar c #000000",
"as c #000000",
"at c #000000",
"au c #000000",
"av c #000000",
"aw c #000000",
"ax c #000000",
"ay c #000000",
"az c #000000",
"aA c #000000",
"aB c #000000",
"aC c #000000",
"aD c #000000",
"aE c #000000",
"aF c #000000",
"aG c #000000",
"aH c #000000",
"aI c #000000",
"aJ c #000000",
"aK c #000000",
"aL c #000000",
"aM c #000000",
"aN c #000000",
"aO c #000000",
"aP c #000000",
"aQ c #000000",
"aR c #000000",
"aS c #000000",
"aT c #000000",
"aU c #000000",
"aV c #000000",
"aW c #000000",
"aX c #000000",
"aY c #000000",
"aZ c #000000",
"a0 c #000000",
"a1 c #000000",
"a2 c #000000",
"a3 c #000000",
"a4 c #000000",
"a5 c #000000",
"a6 c #000000",
"a7 c #000000",
"a8 c #000000",
/* pixels */
"```.`#`a`a`a`a`a`a`a`a`a`b`c`b`a",
"`d`e`f`g`h`i`j`a`a`a`k`l`m`n`o`a",
"`p`q`r`s`t`u`v`w`x`y`z`A`B`C`a`a",
"`D`E`F`F`F`F`G`H`I`J`K`L`M`N`a`a",
"`O`P`F`F`F`F`F`F`F`F`F`Q`R`a`a`a",
"`S`T`F`F`F`F`F`F`F`F`U`V`W`a`a`a",
"`X`Y`F`F`F`F`F`F`F`Z`0`1`a`a`a`a",
"`2`3`F`F`F`F`F`F`F`4`5`a`a`a`a`a",
"`6`7`F`F`F`F`F`F`8.`..`a`a`a`a`a",
"`6.#`F`F`F`F`F`F.a.b.c`a`a`a`a`a",
".d.e`F`F`F`F`F`F`F.f.g.h`a`a`a`a",
".i.j`F`F`F`F`F`F`F`F.k.l.m`a`a`a",
".n.o`F`F`F`F`F`F`F`F`F.p.`.q`a`a",
".n.r`F`F`F`F`F`F`F`F`F`F.s.t.u`a",
".v.w.x.x.x.x.x.x.x.x.x.x.x.y.z.c",
".A`p.B.B.B.B.B.B.B.B.B.B.B.B`p`W"
};
