/* XPM */
static const char * dxf_dset_48_xpm[] = {
"48 48 530 2",
"  	c None",
". 	c #709DCD",
"+ 	c #6E9BCB",
"@ 	c #6C99CA",
"# 	c #6A97C8",
"$ 	c #6895C6",
"% 	c #6693C4",
"& 	c #6491C3",
"* 	c #628FC1",
"= 	c #608CBF",
"- 	c #5E8ABE",
"; 	c #5C88BC",
"> 	c #5A86BA",
", 	c #5884B8",
"' 	c #5682B7",
") 	c #5480B5",
"! 	c #527EB3",
"~ 	c #517CB2",
"{ 	c #4F7AB0",
"] 	c #4D78AE",
"^ 	c #4B76AD",
"/ 	c #4974AB",
"( 	c #4772A9",
"_ 	c #4570A7",
": 	c #436EA6",
"< 	c #416CA4",
"[ 	c #3F6AA2",
"} 	c #3D68A1",
"| 	c #3B669F",
"1 	c #39649D",
"2 	c #37629B",
"3 	c #35609A",
"4 	c #335E98",
"5 	c #315C96",
"6 	c #2F5A95",
"7 	c #2D5893",
"8 	c #2C5691",
"9 	c #2A548F",
"0 	c #28528E",
"a 	c #26508C",
"b 	c #244E8A",
"c 	c #224C89",
"d 	c #729FCE",
"e 	c #D1DFEE",
"f 	c #DDE7F3",
"g 	c #DEE8F3",
"h 	c #DDE8F2",
"i 	c #DDE7F2",
"j 	c #DCE7F2",
"k 	c #DCE6F2",
"l 	c #DCE6F1",
"m 	c #DBE5F1",
"n 	c #DBE5F0",
"o 	c #DAE4F0",
"p 	c #DAE4EF",
"q 	c #D9E3EF",
"r 	c #D9E3EE",
"s 	c #D8E3EE",
"t 	c #D8E2EE",
"u 	c #D8E1ED",
"v 	c #D7E1ED",
"w 	c #D7E0ED",
"x 	c #D6E0EC",
"y 	c #D6DFEC",
"z 	c #D5DFEC",
"A 	c #8EA6C6",
"B 	c #F2F6FA",
"C 	c #FFFFFF",
"D 	c #AEC1D9",
"E 	c #FEFFFF",
"F 	c #FBFCFE",
"G 	c #FEFEFF",
"H 	c #FCFDFE",
"I 	c #ACBFD7",
"J 	c #E7EFF7",
"K 	c #7FA8D3",
"L 	c #D9E5F2",
"M 	c #9ABADC",
"N 	c #7DA6D2",
"O 	c #7CA5D1",
"P 	c #7BA3D0",
"Q 	c #8EB1D6",
"R 	c #DCE7F3",
"S 	c #98B9DB",
"T 	c #7CA5D2",
"U 	c #7BA4D0",
"V 	c #79A2CF",
"W 	c #78A1CE",
"X 	c #8CAED5",
"Y 	c #DEE9F4",
"Z 	c #95B7DB",
"` 	c #7EA7D2",
" .	c #7DA5D2",
"..	c #7BA4D1",
"+.	c #7AA3CF",
"@.	c #77A0CD",
"#.	c #779FCC",
"$.	c #8BADD3",
"%.	c #ABBED7",
"&.	c #E1EBF5",
"*.	c #93B6DA",
"=.	c #7AA3D0",
"-.	c #769ECB",
";.	c #749DCA",
">.	c #87AAD1",
",.	c #ABBED6",
"'.	c #E4EDF6",
").	c #91B4D9",
"!.	c #78A0CE",
"~.	c #769FCB",
"{.	c #759DCA",
"].	c #739CC9",
"^.	c #729AC8",
"/.	c #7FA4CD",
"(.	c #ABBDD6",
"_.	c #B7CEE6",
":.	c #BFD4E9",
"<.	c #F3F7FB",
"[.	c #C7D9EC",
"}.	c #779FCD",
"|.	c #769FCC",
"1.	c #759ECA",
"2.	c #749CC9",
"3.	c #729BC8",
"4.	c #7199C8",
"5.	c #6D96C6",
"6.	c #799FC9",
"7.	c #AABDD5",
"8.	c #EFF4FA",
"9.	c #ABC6E2",
"0.	c #759ECB",
"a.	c #749DC9",
"b.	c #739BC8",
"c.	c #719AC8",
"d.	c #7098C7",
"e.	c #6F97C6",
"f.	c #638FC1",
"g.	c #779CC7",
"h.	c #AABCD5",
"i.	c #C9DBED",
"j.	c #CCDDEE",
"k.	c #C0D5E9",
"l.	c #E9F0F8",
"m.	c #AAC5E2",
"n.	c #7099C7",
"o.	c #6E96C5",
"p.	c #6690C1",
"q.	c #5D89BC",
"r.	c #769BC6",
"s.	c #A9BCD5",
"t.	c #8FB3D9",
"u.	c #7EA7D3",
"v.	c #D3E1F0",
"w.	c #A8C3E0",
"x.	c #7199C7",
"y.	c #6F98C6",
"z.	c #6D95C4",
"A.	c #6992C2",
"B.	c #5D88BC",
"C.	c #5B87BA",
"D.	c #7398C4",
"E.	c #A9BCD4",
"F.	c #F4F7FB",
"G.	c #F1F5FA",
"H.	c #B0C9E4",
"I.	c #ADC7E3",
"J.	c #A8C4E1",
"K.	c #A5C2E0",
"L.	c #D2E0EF",
"M.	c #C5D6EA",
"N.	c #A4BFDE",
"O.	c #A4BFDC",
"P.	c #A2BEDB",
"Q.	c #A1BCDB",
"R.	c #9FBBDA",
"S.	c #9EB9D9",
"T.	c #9DB8D9",
"U.	c #9BB7D7",
"V.	c #9AB6D6",
"W.	c #9AB5D5",
"X.	c #97B3D4",
"Y.	c #8EACD0",
"Z.	c #8AAACE",
"`.	c #88A8CD",
" +	c #9AB4D3",
".+	c #A8BBD4",
"++	c #F6F9FC",
"@+	c #A8BBD3",
"#+	c #F4F8FB",
"$+	c #C5D8EB",
"%+	c #C8D9EC",
"&+	c #CADBED",
"*+	c #CCDCED",
"=+	c #CEDEEE",
"-+	c #F9FBFD",
";+	c #8EB2D8",
">+	c #79A1CE",
",+	c #D1DEEE",
"'+	c #E0E9F3",
")+	c #D0DEED",
"!+	c #D0DDED",
"~+	c #D0DDEC",
"{+	c #D1DDEC",
"]+	c #D1DEEC",
"^+	c #D1DDEB",
"/+	c #CEDBEA",
"(+	c #CCDAEA",
"_+	c #CDDAEA",
":+	c #CDDAE9",
"<+	c #D5E0ED",
"[+	c #A8BAD3",
"}+	c #8CB0D7",
"|+	c #A3BDDB",
"1+	c #6C94C3",
"2+	c #6B93C2",
"3+	c #6992C0",
"4+	c #6790BF",
"5+	c #5D88BA",
"6+	c #5581B6",
"7+	c #5480B4",
"8+	c #517DB2",
"9+	c #6B90BD",
"0+	c #A7BAD3",
"a+	c #EFF4F9",
"b+	c #ABC5E1",
"c+	c #9EBCDC",
"d+	c #9DBADB",
"e+	c #9DBADA",
"f+	c #9CB9D9",
"g+	c #9BB8D8",
"h+	c #A1BCDA",
"i+	c #6E97C5",
"j+	c #6C95C3",
"k+	c #6A92C1",
"l+	c #6891BF",
"m+	c #638CBC",
"n+	c #5984B8",
"o+	c #537FB4",
"p+	c #507CB1",
"q+	c #698EBC",
"r+	c #A7B9D3",
"s+	c #9FBAD8",
"t+	c #6D95C3",
"u+	c #6B94C2",
"v+	c #6991C0",
"w+	c #658DBE",
"x+	c #5C86B9",
"y+	c #5682B6",
"z+	c #4F7BB0",
"A+	c #4E79AF",
"B+	c #4C78AE",
"C+	c #678CBA",
"D+	c #A6B9D2",
"E+	c #CDDCED",
"F+	c #D9E4F1",
"G+	c #D8E4F0",
"H+	c #F8FAFC",
"I+	c #DEE8F2",
"J+	c #D7E2EF",
"K+	c #D6E2EF",
"L+	c #D6E1EF",
"M+	c #8FADD0",
"N+	c #658FBF",
"O+	c #618BBD",
"P+	c #5D88BB",
"Q+	c #5581B5",
"R+	c #4F7BB1",
"S+	c #4E7AAF",
"T+	c #4B77AD",
"U+	c #4A75AC",
"V+	c #668AB8",
"W+	c #A6B8D2",
"X+	c #E6EDF5",
"Y+	c #88A9CF",
"Z+	c #6691C1",
"`+	c #618CBF",
" @	c #5A87BA",
".@	c #5985B9",
"+@	c #507BB1",
"@@	c #4E7AB0",
"#@	c #4D79AE",
"$@	c #4C77AD",
"%@	c #4A76AC",
"&@	c #4873AA",
"*@	c #6388B6",
"=@	c #A5B8D1",
"-@	c #E6EEF6",
";@	c #6F98C7",
">@	c #7BA0C9",
",@	c #5B87BB",
"'@	c #5783B7",
")@	c #537FB3",
"!@	c #4D79AF",
"~@	c #4B76AC",
"{@	c #4975AB",
"]@	c #4571A8",
"^@	c #6186B4",
"/@	c #6E97C6",
"(@	c #E5ECF4",
"_@	c #779BC6",
":@	c #527DB3",
"<@	c #4A75AB",
"[@	c #4874AA",
"}@	c #4671A8",
"|@	c #446FA7",
"1@	c #5F84B2",
"2@	c #A4B7D0",
"3@	c #6D96C5",
"4@	c #6A93C3",
"5@	c #5F8ABD",
"6@	c #7499C4",
"7@	c #5783B8",
"8@	c #4773A9",
"9@	c #4470A7",
"0@	c #426DA5",
"a@	c #406CA4",
"b@	c #5D81B1",
"c@	c #6891C2",
"d@	c #5D89BB",
"e@	c #7196C2",
"f@	c #4672A9",
"g@	c #436FA6",
"h@	c #3F6BA3",
"i@	c #3E69A1",
"j@	c #5B80AF",
"k@	c #A4B6D0",
"l@	c #F2F5FA",
"m@	c #E5EDF5",
"n@	c #6790C0",
"o@	c #5C87BB",
"p@	c #6E93C0",
"q@	c #537EB3",
"r@	c #4570A8",
"s@	c #446FA6",
"t@	c #426EA5",
"u@	c #406BA3",
"v@	c #3E69A2",
"w@	c #3D68A0",
"x@	c #3C679F",
"y@	c #597DAD",
"z@	c #A3B6D0",
"A@	c #E5ECF5",
"B@	c #E6EDF4",
"C@	c #6B90BE",
"D@	c #416DA4",
"E@	c #3C67A0",
"F@	c #3B669E",
"G@	c #577BAC",
"H@	c #A3B5CF",
"I@	c #6C94C2",
"J@	c #6890C0",
"K@	c #E7EDF4",
"L@	c #688EBB",
"M@	c #4874AB",
"N@	c #406CA3",
"O@	c #3A659E",
"P@	c #38639C",
"Q@	c #5679AA",
"R@	c #E4EBF4",
"S@	c #6B93C1",
"T@	c #6890BF",
"U@	c #5C87BA",
"V@	c #658BB9",
"W@	c #4773AA",
"X@	c #3F6AA3",
"Y@	c #36619A",
"Z@	c #355F99",
"`@	c #5377A8",
" #	c #A2B5CE",
".#	c #F2F5F9",
"+#	c #E4EBF3",
"@#	c #678FBE",
"##	c #5F89BA",
"$#	c #6288B7",
"%#	c #38629C",
"&#	c #36619B",
"*#	c #356099",
"=#	c #345E98",
"-#	c #325D97",
";#	c #5175A6",
">#	c #A2B4CE",
",#	c #F2F6F9",
"'#	c #E3EAF3",
")#	c #668EBD",
"!#	c #638BBC",
"~#	c #527DB2",
"{#	c #E8EEF5",
"]#	c #5F85B5",
"^#	c #436EA5",
"/#	c #37619B",
"(#	c #345F98",
"_#	c #335D97",
":#	c #305A95",
"<#	c #5073A5",
"[#	c #A1B4CE",
"}#	c #648CBC",
"|#	c #5782B6",
"1#	c #507CB2",
"2#	c #E9EEF5",
"3#	c #5C82B3",
"4#	c #3A659D",
"5#	c #36609A",
"6#	c #345F99",
"7#	c #305B95",
"8#	c #2F5994",
"9#	c #4D71A3",
"0#	c #A1B3CD",
"a#	c #F1F5F9",
"b#	c #E2E9F2",
"c#	c #5B85B7",
"d#	c #5980B0",
"e#	c #315B95",
"f#	c #2F5A94",
"g#	c #2E5893",
"h#	c #2C5792",
"i#	c #2B5591",
"j#	c #4B6FA1",
"k#	c #517DB1",
"l#	c #EAEFF5",
"m#	c #567CAE",
"n#	c #315B96",
"o#	c #2E5993",
"p#	c #2D5792",
"q#	c #2B5691",
"r#	c #2A5490",
"s#	c #29538F",
"t#	c #496D9F",
"u#	c #A0B2CD",
"v#	c #E0E8F0",
"w#	c #EBF0F5",
"x#	c #537AAC",
"y#	c #2E5994",
"z#	c #2D5892",
"A#	c #2A5590",
"B#	c #26518D",
"C#	c #476B9D",
"D#	c #A0B2CC",
"E#	c #E5EBF3",
"F#	c #7395BF",
"G#	c #7293BE",
"H#	c #7093BD",
"I#	c #6F91BC",
"J#	c #6F90BB",
"K#	c #6D8FBA",
"L#	c #6C8EBA",
"M#	c #6C8DB9",
"N#	c #6A8CB7",
"O#	c #F0F3F8",
"P#	c #7694BD",
"Q#	c #6688B4",
"R#	c #6587B3",
"S#	c #6485B2",
"T#	c #6384B1",
"U#	c #6183B0",
"V#	c #6182AF",
"W#	c #6081AF",
"X#	c #5E80AD",
"Y#	c #5D7FAC",
"Z#	c #5D7DAB",
"`#	c #5B7DAB",
" $	c #5A7CAA",
".$	c #5A7AA8",
"+$	c #587AA8",
"@$	c #5778A7",
"#$	c #5677A6",
"$$	c #5576A5",
"%$	c #5475A4",
"&$	c #6E8AB1",
"*$	c #F1F4F8",
"=$	c #A8C0DC",
"-$	c #ABC1DC",
";$	c #AAC1DB",
">$	c #AAC0DA",
",$	c #A9BFD9",
"'$	c #A8BED9",
")$	c #A7BDD8",
"!$	c #A7BCD7",
"~$	c #A6BBD7",
"{$	c #A5BBD6",
"]$	c #A4BAD5",
"^$	c #A3B9D4",
"/$	c #A2B8D4",
"($	c #A2B7D3",
"_$	c #A1B6D2",
":$	c #A0B6D1",
"<$	c #9FB5D1",
"[$	c #9EB4D0",
"}$	c #9EB3CF",
"|$	c #9DB2CF",
"1$	c #9CB1CE",
"2$	c #9BB0CD",
"3$	c #9AB0CC",
"4$	c #99AFCC",
"5$	c #99AECB",
"6$	c #98ADCA",
"7$	c #97ACC9",
"8$	c #96ABC9",
"9$	c #95AAC8",
"0$	c #94AAC8",
"a$	c #94A9C7",
"b$	c #93A9C7",
"c$	c #93A8C6",
"d$	c #92A7C5",
"e$	c #6381AC",
"f$	c #234C89",
"g$	c #6F9CCB",
"h$	c #6D9ACB",
"i$	c #6B98C9",
"j$	c #6794C7",
"k$	c #6592C5",
"l$	c #6390C3",
"m$	c #608DBF",
"n$	c #5E8BBD",
"o$	c #5C89BC",
"p$	c #5A85BA",
"q$	c #5883B8",
"r$	c #5681B8",
"s$	c #5480B6",
"t$	c #537EB2",
"u$	c #4571A7",
"v$	c #426DA3",
"w$	c #406BA1",
"x$	c #3E67A1",
"y$	c #3A659F",
"z$	c #38639E",
"A$	c #36629C",
"B$	c #2B5690",
"C$	c #29548F",
"D$	c #27538F",
"E$	c #244D8A",
"                                                                                                ",
"                                                                                                ",
"                                                                                                ",
"        . + @ # $ % & * = - ; > , ' ) ! ~ { ] ^ / ( _ : < [ } | 1 2 3 4 5 6 7 8 9 0 a b c       ",
"      d . + @ # $ % & * = - ; > , ' ) ! ~ { ] ^ / ( _ : < [ } | 1 2 3 4 5 6 7 8 9 0 a b c       ",
"      d . + e f g h i i j k l l m m n o o o p q q r s s s t t t t u v v w x x y y z A b c       ",
"      d . + B C C C C C C C C C C C C C C C C C C C C C C C C C C C C C C C C C C C D b c       ",
"      d . + B C E F F F F F F F F F G C H F F F F F F F F F F F F F F F F F F H C C I b c       ",
"      d . + B C J K K K K K K K K K L C M K K K K K K K K K K K K K K K N O P Q C C I b c       ",
"      d . + B C J K K K K K K K K K R C S K K K K K K K K K K K K K N T U V W X C C I b c       ",
"      d . + B C J K K K K K K K K K Y C Z K K K K K K K K K K K `  ...+.W @.#.$.C C %.b c       ",
"      d . + B C J K K K K K K K K K &.C *.K K K K K K K K K ` N ..=.V @.#.-.;.>.C C ,.b c       ",
"      d . + B C J K K K K K K K K K '.C ).K K K K K K K K N O =.V !.#.~.{.].^./.C C (.b c       ",
"      d . + B C J K K K K K _.:.:.:.<.C [.:.:.:.Z K K N O U V W }.|.1.2.3.4.5.6.C C 7.b c       ",
"      d . + B C J K K K K K 8.C C C C C C C C C 9.` T ..+.W @.#.0.a.b.c.d.e.f.g.C C h.b c       ",
"      d . + B C J K K K K K 8.C [.:.i.j.k.:.l.C m...=.V @.#.-.;.].^.n.e.o.p.q.r.C C s.b c       ",
"      d . + B C J K K K K K 8.C t.K K K K u.v.C w.V !.#.~.{.].^.x.y.o.z.A.B.C.D.C C E.b c       ",
"      d . + F.C G.H.I.m.J.K.<.C t.K K K N O L.C M.N.O.P.Q.R.S.T.U.V.W.X.Y.Z.`. +C C .+b c       ",
"      d . + ++C C C C C C C C C t.K ` T ..+.e C C C C C C C C C C C C C C C C C C C @+b c       ",
"      d . + #+C #+$+%+&+*+=+-+C ;+N ..=.>+@.,+C '+)+!+!+~+~+{+{+]+^+/+(+_+:+:+<+C C [+b c       ",
"      d . + B C J K K K K K 8.C }+=.V !.#.~.)+C |+x.y.o.z.1+2+3+4+5+' 6+7+! 8+9+C C 0+b c       ",
"      d . + B C J K K K K N a+C b+c+d+e+f+g+l C h+i+z.j+2+k+l+m+n+6+) o+8+p+{ q+C C r+b c       ",
"      d . + B C J K K ` T U a+C C C C C C C C C s+t+u+k+v+w+x+y+) o+! p+z+A+B+C+C C D+b c       ",
"      d . + B C J ` N ..=.>+E+F+F+G+H+C I+J+K+L+M+N+O+P+, y+Q+o+! ~ R+S+] T+U+V+C C W+b c       ",
"      d . + B C J O =.V !.#.~.{.].^.X+C Y+Z+`+q. @.@, ' 6+7+! 8++@@@#@$@%@/ &@*@C C =@b c       ",
"      d . + B C -@V W }.~.{.2.3.4.;@X+C >@; ,@.@, '@6+) )@8+p+{ !@B+~@{@&@( ]@^@C C =@b c       ",
"      d . + B C -@@.#.1.2.b.c.d./@1+(@C _@> , '@y+) o+:@p+z+A+B+^ <@[@( }@|@: 1@C C 2@b c       ",
"      d . + B C -@0.;.b.c.n.e.3@4@5@(@C 6@7@y+Q+o+! ~ R+S+] T+U+/ 8@}@9@: 0@a@b@C C 2@b c       ",
"      d . + B C X+].^.n.e.o.z.c@d@> (@C e@6+7+! 8++@@@#@$@%@/ &@f@_ g@0@< h@i@j@C C k@b c       ",
"      d . + l@C m@4.y.o.z.j+n@o@.@, (@C p@q@8+p+{ !@$@~@{@&@f@r@s@t@< u@v@w@x@y@C C z@b c       ",
"      d . + l@C A@/@z.t+u+n@C., '@y+B@C C@p+z+A+B+^ <@[@( ]@|@: D@u@[ } E@F@1 G@C C H@b c       ",
"      d . + l@C (@t+I@k+J@C.7@y+Q+o+K@C L@S+B+T+U+M@8@}@9@: 0@N@[ i@E@| O@P@2 Q@C C H@b c       ",
"      d . + l@C R@S@v+T@U@' Q+7+! 8+K@C V@$@%@/ W@}@_ g@0@< X@i@w@| O@1 2 Y@Z@`@C C  #b c       ",
"      d . + .#C +#T@@###6+) q@8+p+@@K@C $#{@&@f@r@s@t@< u@v@w@x@O@1 %#&#*#=#-#;#C C >#b c       ",
"      d . + ,#C '#)#!#) o+~#p+z+A+B+{#C ]#( ]@|@^#D@u@[ } E@F@1 P@/#3 (#_#5 :#<#C C [#b c       ",
"      d . + ,#C '#}#|#! 1#z+S+B+T+U+2#C 3#9@: 0@u@[ i@E@| 4#P@2 5#6#4 5 7#8#7 9#C C 0#b c       ",
"      d . + a#C b#c#8++@@@] T+%@/ W@2#C d#0@< X@i@w@| O@1 2 Y@Z@4 -#e#f#g#h#i#j#C C 0#b c       ",
"      d . + a#C b#k#@@!@$@%@{@&@f@r@l#C m#u@v@w@x@O@1 %#Y@*#4 -#n#6 o#p#q#r#s#t#C C u#b c       ",
"      d . + a#C v#!@B+^ {@[@( ]@|@^#w#C x#} x@F@1 P@/#3 (#_#5 :#y#z#8 A#s#0 B#C#C C D#b c       ",
"      d . + a#C E#F#G#H#I#J#K#L#M#N#O#C P#Q#R#S#T#U#V#W#X#Y#Z#`# $.$+$@$#$$$%$&$C C D#b c       ",
"      d . + a#C C C C C C C C C C C C C C C C C C C C C C C C C C C C C C C C C C C D#b c       ",
"      d . + *$C C C C C C C C C C C C C C C C C C C C C C C C C C C C C C C C C C C D#b c       ",
"      d . + =$-$;$>$,$'$)$!$~${$]$^$/$($_$:$<$[$}$|$1$2$3$4$5$6$7$8$9$0$a$b$c$c$d$d$e$b c       ",
"      d . + @ # $ % & * = - ; > , ' ) ! ~ { ] ^ / ( _ : < [ } | 1 2 3 4 5 6 7 8 9 0 a b c       ",
"        . + @ # $ % & * = - ; > , ' ) ! ~ { ] ^ / ( _ : < [ } | 1 2 3 4 5 6 7 8 9 0 a b f$      ",
"          g$h$i$j$k$l$* m$n$o$p$q$r$s$t$~ { ] ^ / ( u$|@v$w$x$y$z$A$3 4 5 f#z#B$C$D$B#E$        ",
"                                                                                                ",
"                                                                                                "};
