/* XPM */
static const char * dxf_dset_16_xpm[] = {
"16 16 162 2",
"  	c None",
". 	c #709DCD",
"+ 	c #92B3D7",
"@ 	c #90B0D4",
"# 	c #8CACD1",
"$ 	c #88A8CD",
"% 	c #85A5CA",
"& 	c #82A0C7",
"* 	c #7D9DC4",
"= 	c #7998C0",
"- 	c #7595BD",
"; 	c #7190B9",
"> 	c #6D8CB6",
", 	c #6A88B2",
"' 	c #305891",
") 	c #F8FAFD",
"! 	c #D3E1F0",
"~ 	c #EDF3F9",
"{ 	c #F2F6FA",
"] 	c #5475A5",
"^ 	c #F3F6FB",
"/ 	c #7FA8D3",
"( 	c #CFDFEF",
"_ 	c #7BA4D1",
": 	c #77A0CD",
"< 	c #D6E2F0",
"[ 	c #5375A4",
"} 	c #91B4D9",
"| 	c #BFD4E9",
"1 	c #E7EFF7",
"2 	c #87ADD6",
"3 	c #7CA5D1",
"4 	c #78A1CE",
"5 	c #759ECA",
"6 	c #6F98C7",
"7 	c #D2DFED",
"8 	c #5275A4",
"9 	c #F4F8FB",
"0 	c #90B3D9",
"a 	c #ADC8E2",
"b 	c #BED2E9",
"c 	c #97B9DB",
"d 	c #D1DFEF",
"e 	c #98B8DA",
"f 	c #86AAD1",
"g 	c #81A5CE",
"h 	c #7DA1CB",
"i 	c #6F95C3",
"j 	c #D5E0ED",
"k 	c #5274A3",
"l 	c #C2D6EA",
"m 	c #D6E3F1",
"n 	c #B9CFE7",
"o 	c #7AA3D0",
"p 	c #CDDCEC",
"q 	c #CAD9EB",
"r 	c #C0D2E6",
"s 	c #BFD0E4",
"t 	c #B9CCE1",
"u 	c #B5C8DF",
"v 	c #E8EEF5",
"w 	c #5173A3",
"x 	c #F3F7FB",
"y 	c #9DBBDC",
"z 	c #DDE8F3",
"A 	c #DEE7F3",
"B 	c #E2EAF4",
"C 	c #7CA0C9",
"D 	c #648EBE",
"E 	c #5A85B8",
"F 	c #527EB3",
"G 	c #4E79AF",
"H 	c #CDD9E8",
"I 	c #F3F7FA",
"J 	c #759DCA",
"K 	c #7199C8",
"L 	c #CBDAEA",
"M 	c #5F8ABD",
"N 	c #5783B7",
"O 	c #537FB3",
"P 	c #4F7AB0",
"Q 	c #4B76AC",
"R 	c #4772A9",
"S 	c #CAD7E6",
"T 	c #5072A3",
"U 	c #729AC8",
"V 	c #6E96C5",
"W 	c #628CBD",
"X 	c #C6D5E7",
"Y 	c #5480B4",
"Z 	c #507BB1",
"` 	c #4C77AD",
" .	c #4873AA",
"..	c #436FA6",
"+.	c #3F6BA3",
"@.	c #C8D4E4",
"#.	c #5072A2",
"$.	c #6F9CCD",
"%.	c #F2F6F9",
"&.	c #6C94C2",
"*.	c #608ABC",
"=.	c #5581B5",
"-.	c #C4D2E5",
";.	c #4C78AE",
">.	c #4874AB",
",.	c #4470A7",
"'.	c #406CA3",
").	c #3C67A0",
"!.	c #38639C",
"~.	c #C6D2E3",
"{.	c #5071A2",
"].	c #6F9CCC",
"^.	c #F1F5F9",
"/.	c #6089BA",
"(.	c #527DB2",
"_.	c #C1D0E2",
":.	c #4571A8",
"<.	c #416DA4",
"[.	c #3D68A1",
"}.	c #39649D",
"|.	c #35609A",
"1.	c #315C96",
"2.	c #C5D1E1",
"3.	c #4F71A1",
"4.	c #4F7BB1",
"5.	c #4A76AC",
"6.	c #4672A9",
"7.	c #BFCEE0",
"8.	c #3E69A2",
"9.	c #3A659E",
"0.	c #36619A",
"a.	c #325D97",
"b.	c #2E5993",
"c.	c #2A5490",
"d.	c #C3CEDF",
"e.	c #6E9BCC",
"f.	c #F7F9FC",
"g.	c #D2DCEA",
"h.	c #D1DBE9",
"i.	c #D0DAE8",
"j.	c #E7ECF3",
"k.	c #CED8E6",
"l.	c #CDD7E6",
"m.	c #CCD6E5",
"n.	c #CBD5E4",
"o.	c #CAD4E3",
"p.	c #C9D3E2",
"q.	c #F0F3F7",
"r.	c #6E9BCB",
"s.	c #7EA3CD",
"t.	c #799FCA",
"u.	c #7499C5",
"v.	c #7095C0",
"w.	c #6B90BC",
"x.	c #678BB9",
"y.	c #6286B5",
"z.	c #5E81B1",
"A.	c #597DAC",
"B.	c #5478A8",
"C.	c #5074A5",
"D.	c #4C6FA1",
"E.	c #2A538D",
"                                ",
"  . + @ # $ % & * = - ; > , '   ",
"  . ) ! ! ! ~ ! ! ! ! ! ! { ]   ",
"  . ^ / / / ( / / / / _ : < [   ",
"  . ^ / } | 1 | 2 3 4 5 6 7 8   ",
"  . 9 0 a b c d e f g h i j k   ",
"  . ) l m n o p q r s t u v w   ",
"  . x / y z A B C D E F G H w   ",
"  . I 4 J K L M N O P Q R S T   ",
"  . { U V W X Y Z `  ...+.@.#.  ",
"  $.%.&.*.=.-.;.>.,.'.).!.~.{.  ",
"  ].^./.(.G _.:.<.[.}.|.1.2.3.  ",
"  ].^.4.5.6.7.8.9.0.a.b.c.d.3.  ",
"  e.f.g.h.i.j.k.l.m.n.o.p.q.3.  ",
"  r.s.t.u.v.w.x.y.z.A.B.C.D.E.  ",
"                                "};
