/* XPM */
static const char * edit_copy_xpm[] = {
"16 16 41 1",
" 	c None",
".	c #888A85",
"+	c #FFFFFF",
"@	c #F0F0EF",
"#	c #EFEFEE",
"$	c #C8C8C7",
"%	c #9A9B97",
"&	c #8D8F8A",
"*	c #8A8C87",
"=	c #898B86",
"-	c #C7C7C6",
";	c #C6C6C5",
">	c #EEEEED",
",	c #EDEDEC",
"'	c #FEFEFE",
")	c #ECECEC",
"!	c #C4C4C3",
"~	c #FAFAFA",
"{	c #F3F3F3",
"]	c #F9F9F9",
"^	c #EBEBEB",
"/	c #EAEAEA",
"(	c #EEEEEE",
"_	c #F7F7F6",
":	c #C3C4C3",
"<	c #F3F3F2",
"[	c #F4F4F3",
"}	c #F2F2F2",
"|	c #8C8E89",
"1	c #FEFEFD",
"2	c #989A95",
"3	c #F8F8F7",
"4	c #E3E4E2",
"5	c #FAFAF9",
"6	c #E3E3E2",
"7	c #F4F4F4",
"8	c #F6F6F5",
"9	c #FCFCFB",
"0	c #FBFBFB",
"a	c #D4D4D4",
"b	c #989A96",
" ..........     ",
" ++++++++++.    ",
" +@#####@@+.    ",
" +@$%..........&",
" +@@*++++++++++.",
" +@$=+@@@@@@@@+.",
" +@#*+@------@+.",
" +#;=+@@@@@@@@+.",
" +>,*+@-----@@+.",
" ')!=+@@@@@@@~{.",
" ]^/*+@-----(_:.",
" <[}*+@@@@@||||.",
" ====1@@@@~2~34.",
"    =5@@@~~2~6..",
"    =7_890ab4.. ",
"    |=........  "};
