/* XPM */
const static char *edit_clear_xpm[] = {
/* width height num_colors chars_per_pixel */
"    16    16      256            2",
/* colors */
"`` c #dfd4c4",
"`. c #8f6525",
"`# c #895d1c",
"`a c #d9ccb8",
"`b c None",
"`c c #885c1a",
"`d c #a6690a",
"`e c #ab6d0b",
"`f c #80510a",
"`g c #dbcebb",
"`h c #845612",
"`i c #b2720c",
"`j c #c17d10",
"`k c #a96b0a",
"`l c #8e6425",
"`m c #fefdfd",
"`n c #ccc37d",
"`o c #f7f6ec",
"`p c #c4af90",
"`q c #8b590d",
"`r c #bc7a0f",
"`s c #8a5a0d",
"`t c #ad9c31",
"`u c #9c8b00",
"`v c #efecd6",
"`w c #fdfdfd",
"`x c #b1956a",
"`y c #85550b",
"`z c #b2760b",
"`A c #a18801",
"`B c #beae32",
"`C c #b4a428",
"`D c #e7e3c2",
"`E c #c2b07e",
"`F c #9c8801",
"`G c #cdbd41",
"`H c #ebde77",
"`I c #b26d1e",
"`J c #aa4b1b",
"`K c #b0a22d",
"`L c #d1c988",
"`M c #f6f5ea",
"`N c #dcd6a5",
"`O c #a19109",
"`P c #d8c84f",
"`Q c #ecdc68",
"`R c #c86d33",
"`S c #ab1b0d",
"`T c #d7b162",
"`U c #eadc72",
"`V c #cdbf48",
"`W c #a59311",
"`X c #c3b860",
"`Y c #f4f2e4",
"`Z c #dad3a0",
"`0 c #a59514",
"`1 c #bda830",
"`2 c #bb4a28",
"`3 c #b8381d",
"`4 c #f6d861",
"`5 c #fdea63",
"`6 c #fdeb6c",
"`7 c #fdee7d",
"`8 c #f8ea88",
".` c #a2920c",
".. c #c1b65c",
".# c #e6e1bf",
".a c #fefefd",
".b c #fcfbf8",
".c c #af4628",
".d c #ad4415",
".e c #fbea84",
".f c #fdec6b",
".g c #fdef84",
".h c #fdec6d",
".i c #fde952",
".j c #fbe544",
".k c #f3e365",
".l c #ebdd77",
".m c #cfc149",
".n c #b1a225",
".o c #a59515",
".p c #dacfa0",
".q c #c2b337",
".r c #fdef8a",
".s c #fdea5f",
".t c #fdeb61",
".u c #fde63c",
".v c #f3db2a",
".w c #e7d018",
".x c #dcc610",
".y c #e4d249",
".z c #e2d467",
".A c #a79616",
".B c #f4f3e5",
".C c #a79718",
".D c #fbed8b",
".E c #fce53c",
".F c #fbe437",
".G c #f6de2f",
".H c #eed723",
".I c #e5cd14",
".J c #dbc304",
".K c #dac203",
".L c #e6d656",
".M c #c6b736",
".N c #bfb457",
".O c #b0a12b",
".P c #ddcf5e",
".Q c #edda46",
".R c #e3cb11",
".S c #dcc407",
".T c #e4d34c",
".U c #dccd58",
".V c #a3920e",
".W c #f4f2e3",
".X c #e4e0bc",
".Y c #ad9e22",
".Z c #e8da6c",
".0 c #dcc510",
".1 c #dcc615",
".2 c #e7d75b",
".3 c #d6c856",
".4 c #a59512",
".5 c #e6e2c0",
".6 c #b4a73a",
".7 c #c6b639",
".8 c #e7d85f",
"#` c #dfca26",
"#. c #e5d44e",
"## c #e7d96d",
"#a c #c5b535",
"#b c #a79819",
"#c c #f0edd9",
"#d c #a9991d",
"#e c #d2c350",
"#f c #e1d35b",
"#g c #c7b634",
"#h c #a49310",
"#i c #bfb356",
"#j c #f7f5eb",
"#k c #f2f0e0",
"#l c #a39412",
"#m c #a59513",
"#n c #c2b861",
"#o c #f2efde",
"#p c #000000",
"#q c #000000",
"#r c #000000",
"#s c #000000",
"#t c #000000",
"#u c #000000",
"#v c #000000",
"#w c #000000",
"#x c #000000",
"#y c #000000",
"#z c #000000",
"#A c #000000",
"#B c #000000",
"#C c #000000",
"#D c #000000",
"#E c #000000",
"#F c #000000",
"#G c #000000",
"#H c #000000",
"#I c #000000",
"#J c #000000",
"#K c #000000",
"#L c #000000",
"#M c #000000",
"#N c #000000",
"#O c #000000",
"#P c #000000",
"#Q c #000000",
"#R c #000000",
"#S c #000000",
"#T c #000000",
"#U c #000000",
"#V c #000000",
"#W c #000000",
"#X c #000000",
"#Y c #000000",
"#Z c #000000",
"#0 c #000000",
"#1 c #000000",
"#2 c #000000",
"#3 c #000000",
"#4 c #000000",
"#5 c #000000",
"#6 c #000000",
"#7 c #000000",
"#8 c #000000",
"a` c #000000",
"a. c #000000",
"a# c #000000",
"aa c #000000",
"ab c #000000",
"ac c #000000",
"ad c #000000",
"ae c #000000",
"af c #000000",
"ag c #000000",
"ah c #000000",
"ai c #000000",
"aj c #000000",
"ak c #000000",
"al c #000000",
"am c #000000",
"an c #000000",
"ao c #000000",
"ap c #000000",
"aq c #000000",
"ar c #000000",
"as c #000000",
"at c #000000",
"au c #000000",
"av c #000000",
"aw c #000000",
"ax c #000000",
"ay c #000000",
"az c #000000",
"aA c #000000",
"aB c #000000",
"aC c #000000",
"aD c #000000",
"aE c #000000",
"aF c #000000",
"aG c #000000",
"aH c #000000",
"aI c #000000",
"aJ c #000000",
"aK c #000000",
"aL c #000000",
"aM c #000000",
"aN c #000000",
"aO c #000000",
"aP c #000000",
"aQ c #000000",
"aR c #000000",
"aS c #000000",
"aT c #000000",
"aU c #000000",
"aV c #000000",
"aW c #000000",
"aX c #000000",
"aY c #000000",
"aZ c #000000",
"a0 c #000000",
"a1 c #000000",
"a2 c #000000",
"a3 c #000000",
"a4 c #000000",
"a5 c #000000",
"a6 c #000000",
"a7 c #000000",
"a8 c #000000",
/* pixels */
"```.`#`a`b`b`b`b`b`b`b`b`b`b`b`b",
"`c`d`e`f`g`b`b`b`b`b`b`b`b`b`b`b",
"`h`i`j`k`l`m`n`o`b`b`b`b`b`b`b`b",
"`p`q`r`j`s`t`u`v`b`b`b`b`b`b`b`b",
"`w`x`y`z`A`B`C`D`b`b`b`b`b`b`b`b",
"`b`b`E`F`G`H`I`J`K`L`M`b`b`b`b`b",
"`b`N`O`P`Q`R`S`T`U`V`W`X`Y`b`b`b",
"`b`Z`0`1`2`3`4`5`6`7`8`V.`...#.a",
"`b`b.b.c.d.e.f.g.h.i.j.k.l.m.n.o",
"`b`b`b.p.q.r.s.t.i.u.v.w.x.y.z.A",
"`b`b`b.B.C.D.E.F.G.H.I.J.K.L.M.N",
"`b`b`b`b.O.P.Q.w.R.S.K.K.T.U.V.W",
"`b`b`b`b.X.Y.Z.0.K.K.1.2.3.4.5`b",
"`b`b`b`b`b.6.7.8#`#.###a#b#c`b`b",
"`b`b`b`b`b`o#d#e#f#g#h#i#j`b`b`b",
"`b`b`b`b`b`b#k#l#m#n#o`b`b`b`b`b"
};
