/* XPM */
static const char *edit_xpm[] = {
/* width height num_colors chars_per_pixel */
"    16    16      256            2",
/* colors */
"`` c None",
"`. c #cec4b0",
"`# c #aa8860",
"`a c #9a7243",
"`b c #d9d1c1",
"`c c #d4cbbb",
"`d c #c0946c",
"`e c #ff7b7b",
"`f c #fe2f2e",
"`g c #956939",
"`h c #dfd9cd",
"`i c #b79a7b",
"`j c #de9d9c",
"`k c #f93a3a",
"`l c #cf1313",
"`m c #915730",
"`n c #e8e4dc",
"`o c #977d49",
"`p c #d6b09f",
"`q c #bcb4b4",
"`r c #bd7171",
"`s c #993615",
"`t c #bfb094",
"`u c #f0ede8",
"`v c #927643",
"`w c #d9b36d",
"`x c #d4a246",
"`y c #c1805f",
"`z c #a4776b",
"`A c #af9d7c",
"`B c #d3d3d3",
"`C c #cccac7",
"`D c #896f3d",
"`E c #d6b169",
"`F c #d5a54c",
"`G c #c88e21",
"`H c #906625",
"`I c #95805c",
"`J c #9f9f9f",
"`K c #c8c8c8",
"`L c #c5c4c2",
"`M c #866e3f",
"`N c #d3ad66",
"`O c #d6a852",
"`P c #c98f22",
"`Q c #92691c",
"`R c #8b774e",
"`S c #a1a1a1",
"`T c #afafaf",
"`U c #ececec",
"`V c #eaeae9",
"`W c #917a4d",
"`X c #cea963",
"`Y c #d8ab58",
"`Z c #ca8f23",
"`0 c #976c1c",
"`1 c #917b50",
"`2 c #ebebeb",
"`3 c #b6b6b6",
"`4 c #fafafa",
"`5 c #9b865d",
"`6 c #c8a460",
"`7 c #d9ad5c",
"`8 c #cb9124",
".` c #9c6f1c",
".. c #90784b",
".# c #f8f7f6",
".a c #b7b7b7",
".b c #fdfdfd",
".c c #a7946f",
".d c #c19f5d",
".e c #daaf60",
".f c #cc9225",
".g c #a2721b",
".h c #8c7444",
".i c #f9f8f6",
".j c #b1b1b1",
".k c #b4a385",
".l c #ba995b",
".m c #dbb265",
".n c #cc9327",
".o c #a7761c",
".p c #886f3f",
".q c #f6f5f3",
".r c #cccccc",
".s c #aeaba6",
".t c #aa9056",
".u c #dcbb74",
".v c #cd942b",
".w c #ab7a1d",
".x c #795f2d",
".y c #b1afac",
".z c #cfcfcf",
".A c #a99571",
".B c #dbc98e",
".C c #e1d098",
".D c #be933b",
".E c #846936",
".F c #a28a54",
".G c #dcc27d",
".H c #c0a15a",
".I c #957b47",
".J c #bfb298",
".K c #463819",
".L c #89703b",
".M c #c5b9a2",
".N c #856e41",
".O c #b1a080",
".P c #000000",
".Q c #000000",
".R c #000000",
".S c #000000",
".T c #000000",
".U c #000000",
".V c #000000",
".W c #000000",
".X c #000000",
".Y c #000000",
".Z c #000000",
".0 c #000000",
".1 c #000000",
".2 c #000000",
".3 c #000000",
".4 c #000000",
".5 c #000000",
".6 c #000000",
".7 c #000000",
".8 c #000000",
"#` c #000000",
"#. c #000000",
"## c #000000",
"#a c #000000",
"#b c #000000",
"#c c #000000",
"#d c #000000",
"#e c #000000",
"#f c #000000",
"#g c #000000",
"#h c #000000",
"#i c #000000",
"#j c #000000",
"#k c #000000",
"#l c #000000",
"#m c #000000",
"#n c #000000",
"#o c #000000",
"#p c #000000",
"#q c #000000",
"#r c #000000",
"#s c #000000",
"#t c #000000",
"#u c #000000",
"#v c #000000",
"#w c #000000",
"#x c #000000",
"#y c #000000",
"#z c #000000",
"#A c #000000",
"#B c #000000",
"#C c #000000",
"#D c #000000",
"#E c #000000",
"#F c #000000",
"#G c #000000",
"#H c #000000",
"#I c #000000",
"#J c #000000",
"#K c #000000",
"#L c #000000",
"#M c #000000",
"#N c #000000",
"#O c #000000",
"#P c #000000",
"#Q c #000000",
"#R c #000000",
"#S c #000000",
"#T c #000000",
"#U c #000000",
"#V c #000000",
"#W c #000000",
"#X c #000000",
"#Y c #000000",
"#Z c #000000",
"#0 c #000000",
"#1 c #000000",
"#2 c #000000",
"#3 c #000000",
"#4 c #000000",
"#5 c #000000",
"#6 c #000000",
"#7 c #000000",
"#8 c #000000",
"a` c #000000",
"a. c #000000",
"a# c #000000",
"aa c #000000",
"ab c #000000",
"ac c #000000",
"ad c #000000",
"ae c #000000",
"af c #000000",
"ag c #000000",
"ah c #000000",
"ai c #000000",
"aj c #000000",
"ak c #000000",
"al c #000000",
"am c #000000",
"an c #000000",
"ao c #000000",
"ap c #000000",
"aq c #000000",
"ar c #000000",
"as c #000000",
"at c #000000",
"au c #000000",
"av c #000000",
"aw c #000000",
"ax c #000000",
"ay c #000000",
"az c #000000",
"aA c #000000",
"aB c #000000",
"aC c #000000",
"aD c #000000",
"aE c #000000",
"aF c #000000",
"aG c #000000",
"aH c #000000",
"aI c #000000",
"aJ c #000000",
"aK c #000000",
"aL c #000000",
"aM c #000000",
"aN c #000000",
"aO c #000000",
"aP c #000000",
"aQ c #000000",
"aR c #000000",
"aS c #000000",
"aT c #000000",
"aU c #000000",
"aV c #000000",
"aW c #000000",
"aX c #000000",
"aY c #000000",
"aZ c #000000",
"a0 c #000000",
"a1 c #000000",
"a2 c #000000",
"a3 c #000000",
"a4 c #000000",
"a5 c #000000",
"a6 c #000000",
"a7 c #000000",
"a8 c #000000",
/* pixels */
"```````````````````````.`#`a`b``",
"`````````````````````c`d`e`f`g``",
"```````````````````h`i`j`k`l`m``",
"`````````````````n`o`p`q`r`s`t``",
"```````````````u`v`w`x`y`z`A````",
"```B`B`B`B`B`C`D`E`F`G`H`I`B````",
"`J`K`K`K`K`L`M`N`O`P`Q`R`K`K`S``",
"`T`U`U`U`V`W`X`Y`Z`0`1`2`U`U`T``",
"`3`4`4`4`5`6`7`8.`...#`4`4`4`3``",
".a.b.b.c.d.e.f.g.h.i.b.b.b.b.a``",
".j.b.k.l.m.n.o.p.q.b.b.b.b.b.j``",
".r.s.t.u.v.w.x.y.a.a.a.a.a.a.z``",
"``.A.B.C.D.E````````````````````",
"``.F.G.H.I``````````````````````",
".J.K.L.M````````````````````````",
".N.O````````````````````````````"
};
