/* XPM */
static const char * edit_cut_xpm[] = {
"16 16 88 1",
" 	c None",
".	c #8B8D88",
"+	c #939590",
"@	c #8F918C",
"#	c #8E908B",
"$	c #F7F7F7",
"%	c #90918D",
"&	c #D2D3D0",
"*	c #D2D4D0",
"=	c #EFF0EF",
"-	c #92948F",
";	c #AAACA7",
">	c #C6C8C3",
",	c #8D8F8A",
"'	c #B3B5B0",
")	c #F7F7F6",
"!	c #CCCEC9",
"~	c #AEAFAB",
"{	c #DBDCD9",
"]	c #91938E",
"^	c #8C8E89",
"/	c #B6B8B3",
"(	c #CDCECB",
"_	c #B5B6B2",
":	c #9FA09C",
"<	c #B5B6B3",
"[	c #B8BAB5",
"}	c #E1E1DF",
"|	c #F5F6F5",
"1	c #9A9C97",
"2	c #A8A9A5",
"3	c #BABBB7",
"4	c #E7E8E6",
"5	c #8A8C87",
"6	c #898984",
"7	c #C5C6C3",
"8	c #B3B2AF",
"9	c #9C2F2C",
"0	c #AE1818",
"a	c #AB1616",
"b	c #A60606",
"c	c #A34A45",
"d	c #A60202",
"e	c #C71A19",
"f	c #AD1717",
"g	c #A90707",
"h	c #D22020",
"i	c #CE1E1E",
"j	c #B70F0E",
"k	c #A40502",
"l	c #A80403",
"m	c #C91A1A",
"n	c #D12020",
"o	c #CB1F1F",
"p	c #A90A0A",
"q	c #A80606",
"r	c #D01F1F",
"s	c #A80303",
"t	c #C01514",
"u	c #A60101",
"v	c #CD1D1C",
"w	c #C01513",
"x	c #CD1D1D",
"y	c #A70606",
"z	c #AB1414",
"A	c #D52323",
"B	c #CE1D1D",
"C	c #CA1B1A",
"D	c #AB0D0D",
"E	c #CF1D1D",
"F	c #B50B0B",
"G	c #D32121",
"H	c #AA0C0C",
"I	c #AA0909",
"J	c #D62323",
"K	c #B80D0D",
"L	c #D11F1F",
"M	c #AB1111",
"N	c #AB1313",
"O	c #DB2727",
"P	c #A80707",
"Q	c #AA0808",
"R	c #D42222",
"S	c #AA0E0E",
"T	c #AB1010",
"U	c #AA0D0D",
"V	c #AA0B0B",
"W	c #A90B0B",
"    .+    .@    ",
"   #$.    %&@   ",
"   .*=-   ;>,   ",
"   ,').  #!~.   ",
"    .{=]^/(.    ",
"    ,_$.:<[.    ",
"     .}|12.     ",
"     ,34;#5     ",
"      6789      ",
"    0abcdef0    ",
"   ghijklmnop   ",
"  qrstu  vwsxy  ",
" zA  Bp  sC  nz ",
" DE FGH  IJK LM ",
" NOrBP    QREBN ",
"  STa      UVW  "};
