/* XPM */
static const char * edit_paste_xpm[] = {
"16 16 77 1",
" 	c None",
".	c #5F5F5E",
"+	c #5C5C5C",
"@	c #6D4401",
"#	c #6C4401",
"$	c #6B4403",
"%	c #5C5C5B",
"&	c #959589",
"*	c #97978A",
"=	c #C08424",
"-	c #A47E3E",
";	c #706D64",
">	c #5E5E5E",
",	c #7F7F7C",
"'	c #80807D",
")	c #7E7E7B",
"!	c #6E6C64",
"~	c #A17C40",
"{	c #B97F23",
"]	c #6C4301",
"^	c #6F4602",
"/	c #C68827",
"(	c #716F64",
"_	c #F1F1F1",
":	c #E0E0E0",
"<	c #BBBBBB",
"[	c #F2F2F2",
"}	c #6E6D64",
"|	c #C58727",
"1	c #6A4200",
"2	c #666864",
"3	c #FFFFFF",
"4	c #F0F0EF",
"5	c #676964",
"6	c #C28628",
"7	c #C58726",
"8	c #B3B5B5",
"9	c #EFEFEE",
"0	c #EFEFED",
"a	c #EDEDEB",
"b	c #6E4602",
"c	c #B2B4B4",
"d	c #B1B2B2",
"e	c #EAEAE8",
"f	c #EDEDEC",
"g	c #EBEBEA",
"h	c #DBDBD9",
"i	c #EEEEED",
"j	c #ECECEB",
"k	c #EBEBE9",
"l	c #E9E9E7",
"m	c #DADAD8",
"n	c #CCCDCA",
"o	c #ECECEA",
"p	c #E8E8E6",
"q	c #CDCECB",
"r	c #B9BAB6",
"s	c #B8B9B5",
"t	c #6E4502",
"u	c #E7E7E5",
"v	c #D9D9D6",
"w	c #B9B9B6",
"x	c #E7E7E4",
"y	c #D8D8D5",
"z	c #C1C2BE",
"A	c #B7B7B4",
"B	c #706D63",
"C	c #EDEEED",
"D	c #FEFEFE",
"E	c #FEFEFD",
"F	c #BA7F23",
"G	c #A77D3B",
"H	c #736F64",
"I	c #6A6C68",
"J	c #A37C3D",
"K	c #B37B22",
"L	c #6B4301",
"     .++++.     ",
"  @#$%&**&%$##  ",
" @=-;>,'')>!~{] ",
" ^/(_:<<<<:[}|1 ",
" ^/234444443561 ",
" ^7234888893561 ",
" ^72344440a3561 ",
" b723488cde3561 ",
" b72349fgeh3561 ",
" b723ijklmn3561 ",
" b723oepqrs3561 ",
" t723luvw333561 ",
" t723xyzA335|61 ",
" t7BCDDD9E5|||1 ",
" ]FGHIIIIIJJJKL ",
"  ]##########L  "};
