/* XPM */
static const char * email_xpm[] = {
"16 16 59 1",
" 	c None",
".	c #888A85",
"+	c #FFFFFF",
"@	c #D9D6D0",
"#	c #C9C7C1",
"$	c #C1BFBA",
"%	c #AFACA9",
"&	c #A1A09A",
"*	c #A8A7A1",
"=	c #BEBDB9",
"-	c #CECDCA",
";	c #CFCECC",
">	c #C6C5C5",
",	c #BDBDBD",
"'	c #E4E4E3",
")	c #B9B8B3",
"!	c #95948E",
"~	c #DBDAD9",
"{	c #ECECEB",
"]	c #F5F5F5",
"^	c #C5C5C5",
"/	c #B1AEAA",
"(	c #EAEAE9",
"_	c #F7F7F7",
":	c #AFAEAC",
"<	c #EBEBEB",
"[	c #D8D8D8",
"}	c #CDCCC9",
"|	c #E6E5E2",
"1	c #AAA9A7",
"2	c #E1E1E1",
"3	c #CFCFCF",
"4	c #A6A5A1",
"5	c #F3F3F2",
"6	c #FBFBF8",
"7	c #E2E2DF",
"8	c #929191",
"9	c #B6B4B3",
"0	c #BCBBB7",
"a	c #A1A0A0",
"b	c #F7F5F3",
"c	c #F0EFED",
"d	c #A5A29D",
"e	c #908D87",
"f	c #F9F7F3",
"g	c #F2F0EC",
"h	c #FBFAF7",
"i	c #B2B1AE",
"j	c #F9F8F4",
"k	c #E9E7E2",
"l	c #C9C7C4",
"m	c #F7F5F1",
"n	c #FAF9F6",
"o	c #F8F6F2",
"p	c #FAF8F5",
"q	c #F7F5F2",
"r	c #EBE8E3",
"s	c #CFCECA",
"t	c #F0F0F0",
"                ",
"                ",
"      .....     ",
"     .+++++.    ",
"    .+@#$%&+.   ",
"   .+@*=-;>,+.  ",
"  .')!~{]++^/(. ",
"  ._:]++++<[}_. ",
"  .+|1<<2[345+. ",
"  .+678990a5b+. ",
"  .+6cd666efg+. ",
"  .+hi666jj0k+. ",
"  .+l6mnopqrs+. ",
"  .t+++++++++t. ",
"  ............. ",
"                "};
