/* XPM */
static const char * err_48_xpm[] = {
/* columns rows colors chars-per-pixel */
"16 16 81 1",
"  c #623B3B",
". c #A90202",
"X c #AA0505",
"o c #A20A0A",
"O c #A11616",
"+ c #A91E1D",
"@ c #B21A1A",
"# c #B31C1C",
"$ c #B31D1D",
"% c #B11E1E",
"& c #B41D1D",
"* c #B51D1D",
"= c #B41F1F",
"- c #AA2120",
"; c #AE2222",
": c #B12120",
"> c #B32020",
", c #B22121",
"< c #B32121",
"1 c #B52020",
"2 c #B12525",
"3 c #B02625",
"4 c #B12625",
"5 c #B12626",
"6 c #B22726",
"7 c #B22727",
"8 c #B32727",
"9 c #B22828",
"0 c #B42929",
"q c #CC0000",
"w c #CF1111",
"e c #D01313",
"r c #D01414",
"t c #D01515",
"y c #D01616",
"u c #D11717",
"i c #D11A1A",
"p c #D21D1D",
"a c #D22020",
"s c #D32323",
"d c #D42727",
"f c #D42A2A",
"g c #D63030",
"h c #D63333",
"j c #D73535",
"k c #D73636",
"l c #D73737",
"z c #D73838",
"x c #D83A3A",
"c c #D83E3E",
"v c #D94040",
"b c #DA4747",
"n c #DA4848",
"m c #DB4949",
"M c #D95252",
"N c #D95353",
"B c #DC5050",
"V c #DC5151",
"C c #DC5252",
"Z c #D95454",
"A c #E06363",
"S c #E06565",
"D c #AA8984",
"F c #EA9696",
"G c #EA9898",
"H c #EB9999",
"J c #EB9A9A",
"K c #F7D6D6",
"L c #F8DADA",
"P c #F8DDDD",
"I c #F9E0E0",
"U c #F9E3E3",
"Y c #FAE6E6",
"T c #FBEDED",
"R c #FCEFEF",
"E c #FDF5F5",
"W c #FDF6F6",
"Q c #FEF9F9",
"! c #FEFBFB",
"~ c #FFFFFF",
"^ c None",
/* pixels */
"D+2272227:###@.^",
"-MxlkklkkkkkkxNX",
"2kiFmqqqqqqBJtk*",
"0hS~QCqqqqM!~Ah1",
"0keK~QmqqbW~Ltf1",
"0hqiP~WvcW~Upqh1",
"0hqqaU~WW~Ysqqh*",
"2hqqqdT~~Rfqqqh1",
">hqqqdT~~Rfqqqh1",
"1hqqaU~WW~Yaqqg1",
";hqiP~WvcW~Ipqg1",
"9hwK~QmqqbQ~Ltg1",
"9hA~QMqqqqMQ~Sf1",
";xeJMqqqqqqmJik*",
"ONkhkhhkhhhhhzZX",
" o=>>>>>1*1>*=X^"
};
