/* XPM */
static const char * field_16_xpm[] = {
"16 16 256 2",
"  	c None",
". 	c #72ACD6",
"+ 	c #2195E7",
"@ 	c #B4D6EE",
"# 	c #DDDDDD",
"$ 	c #E5E5E5",
"% 	c #E6E6E6",
"& 	c #87BFE7",
"* 	c #A6A6A6",
"= 	c #ECECEC",
"- 	c #AEAEAE",
"; 	c #E9E9E9",
"> 	c #A9A9A9",
", 	c #ADADAD",
"' 	c #AFAFAF",
") 	c #EAEAEA",
"! 	c #DEDEDE",
"~ 	c #E0E0E0",
"{ 	c #E1E1E1",
"] 	c #E7E7E7",
"^ 	c #F0F0F0",
"/ 	c #F6F6F6",
"( 	c #B8B8B8",
"_ 	c #B0B0B0",
": 	c #B1B1B1",
"< 	c #F7F7F7",
"[ 	c #EBEBEB",
"} 	c #EDEDED",
"| 	c #000000",
"1 	c #000000",
"2 	c #000000",
"3 	c #000000",
"4 	c #000000",
"5 	c #000000",
"6 	c #000000",
"7 	c #000000",
"8 	c #000000",
"9 	c #000000",
"0 	c #000000",
"a 	c #000000",
"b 	c #000000",
"c 	c #000000",
"d 	c #000000",
"e 	c #000000",
"f 	c #000000",
"g 	c #000000",
"h 	c #000000",
"i 	c #000000",
"j 	c #000000",
"k 	c #000000",
"l 	c #000000",
"m 	c #000000",
"n 	c #000000",
"o 	c #000000",
"p 	c #000000",
"q 	c #000000",
"r 	c #000000",
"s 	c #000000",
"t 	c #000000",
"u 	c #000000",
"v 	c #000000",
"w 	c #000000",
"x 	c #000000",
"y 	c #000000",
"z 	c #000000",
"A 	c #000000",
"B 	c #000000",
"C 	c #000000",
"D 	c #000000",
"E 	c #000000",
"F 	c #000000",
"G 	c #000000",
"H 	c #000000",
"I 	c #000000",
"J 	c #000000",
"K 	c #000000",
"L 	c #000000",
"M 	c #000000",
"N 	c #000000",
"O 	c #000000",
"P 	c #000000",
"Q 	c #000000",
"R 	c #000000",
"S 	c #000000",
"T 	c #000000",
"U 	c #000000",
"V 	c #000000",
"W 	c #000003",
"X 	c #000000",
"Y 	c #2C08AC",
"Z 	c #000000",
"` 	c #000000",
" .	c #000000",
"..	c #000000",
"+.	c #FFFFFF",
"@.	c #000100",
"#.	c #000000",
"$.	c #000000",
"%.	c #000000",
"&.	c #000000",
"*.	c #000000",
"=.	c #000000",
"-.	c #000000",
";.	c #000000",
">.	c #000000",
",.	c #000000",
"'.	c #000000",
").	c #000000",
"!.	c #5407EC",
"~.	c #7325BC",
"{.	c #000000",
"].	c #000000",
"^.	c #000000",
"/.	c #000000",
"(.	c #000000",
"_.	c #000000",
":.	c #000000",
"<.	c #000000",
"[.	c #000000",
"}.	c #000000",
"|.	c #C14C04",
"1.	c #C14FD4",
"2.	c #000000",
"3.	c #000000",
"4.	c #000000",
"5.	c #000000",
"6.	c #739A20",
"7.	c #739A20",
"8.	c #000307",
"9.	c #000100",
"0.	c #000300",
"a.	c #000100",
"b.	c #C15AFC",
"c.	c #000000",
"d.	c #735BC8",
"e.	c #000000",
"f.	c #000000",
"g.	c #000006",
"h.	c #000000",
"i.	c #000000",
"j.	c #000000",
"k.	c #000000",
"l.	c #000000",
"m.	c #000000",
"n.	c #000162",
"o.	c #00009C",
"p.	c #00000D",
"q.	c #000000",
"r.	c #000000",
"s.	c #000000",
"t.	c #000000",
"u.	c #000000",
"v.	c #000000",
"w.	c #000000",
"x.	c #000000",
"y.	c #000000",
"z.	c #000000",
"A.	c #000000",
"B.	c #000000",
"C.	c #000000",
"D.	c #000000",
"E.	c #000000",
"F.	c #000000",
"G.	c #000000",
"H.	c #000000",
"I.	c #000000",
"J.	c #000000",
"K.	c #000000",
"L.	c #000000",
"M.	c #000000",
"N.	c #000000",
"O.	c #000000",
"P.	c #000000",
"Q.	c #000000",
"R.	c #00FF00",
"S.	c #00000A",
"T.	c #000000",
"U.	c #000000",
"V.	c #000000",
"W.	c #000000",
"X.	c #000001",
"Y.	c #000000",
"Z.	c #000000",
"`.	c #000000",
" +	c #000000",
".+	c #000000",
"++	c #000000",
"@+	c #000000",
"#+	c #000000",
"$+	c #000000",
"%+	c #000000",
"&+	c #0000D9",
"*+	c #000071",
"=+	c #000000",
"-+	c #728218",
";+	c #728218",
">+	c #000178",
",+	c #000000",
"'+	c #000000",
")+	c #000000",
"!+	c #000000",
"~+	c #000000",
"{+	c #000000",
"]+	c #000000",
"^+	c #000000",
"/+	c #000000",
"(+	c #000000",
"_+	c #000000",
":+	c #000000",
"<+	c #000001",
"[+	c #000000",
"}+	c #000000",
"|+	c #000000",
"1+	c #0F0000",
"2+	c #000001",
"3+	c #000001",
"4+	c #000000",
"5+	c #728270",
"6+	c #FF03E9",
"7+	c #000000",
"8+	c #000000",
"9+	c #000000",
"0+	c #000003",
"a+	c #000000",
"b+	c #2C0948",
"c+	c #000000",
"d+	c #000000",
"e+	c #000000",
"f+	c #000000",
"g+	c #000001",
"h+	c #000101",
"i+	c #000100",
"j+	c #000000",
"k+	c #000000",
"l+	c #000000",
"m+	c #000000",
"n+	c #000000",
"o+	c #000000",
"p+	c #000000",
"q+	c #000000",
"r+	c #000000",
"s+	c #000000",
"t+	c #000000",
"u+	c #000000",
"v+	c #000000",
"w+	c #000000",
"x+	c #000000",
"y+	c #000000",
"z+	c #000000",
"A+	c #000000",
"B+	c #000000",
"C+	c #000000",
"D+	c #000000",
"E+	c #000000",
"F+	c #000000",
"G+	c #000000",
"                                ",
"                                ",
"        . + + + + + +           ",
"        + @ # # $ % & +         ",
"        + # * % = - ; +         ",
"        + # * > , ' ) +         ",
"        + ! ~ { ; { { +         ",
"        + { > ; ; > { +         ",
"        + { > > > > { +         ",
"        + { { { { { { +         ",
"        + ] ' ^ / ( / +         ",
"        + ; _ : ( ( < +         ",
"        + [ = } / < < +         ",
"          + + + + + +           ",
"                                ",
"                                "};
