/* XPM */
static const char *filegdb_48_xpm[] = {
/* width height num_colors chars_per_pixel */
"    48    48      256            2",
/* colors */
"`` c #4c9a04",
"`. c #acce84",
"`# c #6cc614",
"`a c #8cc654",
"`b c #74b62c",
"`c c #dceacc",
"`d c #5cb20c",
"`e c #74d61c",
"`f c #8cda34",
"`g c #ace66c",
"`h c #7cc62c",
"`i c #94da54",
"`j c #d4e6c4",
"`k c #64be14",
"`l c #64aa1c",
"`m c #54a60c",
"`n c #6cb224",
"`o c #7cb64c",
"`p c #bcea84",
"`q c #f4faec",
"`r c #8ce234",
"`s c #7cce24",
"`t c #84d62c",
"`u c #c4daa4",
"`v c #6cce14",
"`w c #9cc66c",
"`x c #64ba0c",
"`y c #5ca20c",
"`z c #dcf6bc",
"`A c #9ce654",
"`B c #54a20c",
"`C c #74c224",
"`D c #64b20c",
"`E c #8cde44",
"`F c #b4ee7c",
"`G c #bcd69c",
"`H c #74c624",
"`I c #8cd244",
"`J c #acea7c",
"`K c #7cca3c",
"`L c #c4f29c",
"`M c #5cae0c",
"`N c #8cbe5c",
"`O c #c4f294",
"`P c #549a04",
"`Q c #74ba34",
"`R c #7cd61c",
"`S c #6cba1c",
"`T c #c4ee94",
"`U c #94e244",
"`V c #84ce3c",
"`W c #84de2c",
"`X c #ecfadc",
"`Y c #a4e664",
"`Z c #64b21c",
"`0 c #5ca614",
"`1 c #6cb22c",
"`2 c #bcee94",
"`3 c #d4f2b4",
"`4 c #7cd62c",
"`5 c #b4d294",
"`6 c #74ca1c",
"`7 c #74b23c",
"`8 c #e4f2dc",
".` c #8cde34",
".. c #acea6c",
".# c #a4e264",
".a c #6cbe1c",
".b c #84b64c",
".c c #bcee84",
".d c #fcfef4",
".e c #84da2c",
".f c #cce2b4",
".g c #74ce14",
".h c #a4ca7c",
".i c #64b60c",
".j c #94da4c",
".k c #94d254",
".l c #84c644",
".m c #549e04",
".n c #acd28c",
".o c #6cca14",
".p c #8cce44",
".q c #e4eed4",
".r c #7cca34",
".s c #9ce254",
".t c #6cae2c",
".u c #6cb61c",
".v c #94e23c",
".w c #84ce34",
".x c #9cca74",
".y c #64ba1c",
".z c #e4fad4",
".A c #a4e65c",
".B c #bcda9c",
".C c #74ca24",
".D c #8cd644",
".E c #b4ea7c",
".F c #94c26c",
".G c #7cda24",
".H c #94e64c",
".I c #84d23c",
".J c #ecf6ec",
".K c #a4ea64",
".L c #5caa0c",
".M c #d4f6ac",
".N c #6cc214",
".O c #84ba4c",
".P c #74d214",
".Q c #94de44",
".R c #84ca3c",
".S c #4c9a0c",
".T c #acce8c",
".U c #6cc61c",
".V c #74b634",
".W c #dceed4",
".X c #5cb60c",
".Y c #8cda3c",
".Z c #ace674",
".0 c #7cc634",
".1 c #d4eac4",
".2 c #54aa0c",
".3 c #bcea8c",
".4 c #f4faf4",
".5 c #8ce23c",
".6 c #7cd224",
".7 c #84d634",
".8 c #c4deac",
"#` c #9cc674",
"#. c #7cc23c",
"## c #ccf2a4",
"#a c #7cba3c",
"#b c #7cb244",
"#c c #8cce54",
"#d c #64b61c",
"#e c #6cb62c",
"#f c #7cda2c",
"#g c #64ba14",
"#h c #5ca214",
"#i c #dcf6c4",
"#j c #9ce65c",
"#k c #54a214",
"#l c #64b214",
"#m c #74c62c",
"#n c #8cd24c",
"#o c #5cae14",
"#p c #8cbe64",
"#q c #549a0c",
"#r c #7cd624",
"#s c #94e24c",
"#t c #84ce44",
"#u c #84de34",
"#v c #ecfae4",
"#w c #a4e66c",
"#x c #8cde3c",
"#y c #acea74",
"#z c #bcee8c",
"#A c None",
"#B c #84da34",
"#C c #cce2bc",
"#D c #64b614",
"#E c #549e0c",
"#F c #9ce25c",
"#G c #6cae34",
"#H c #6cb624",
"#I c #bcdaa4",
"#J c #b4ea84",
"#K c #5caa14",
"#L c #d4f6b4",
"#M c #6cc21c",
"#N c #84ba54",
"#O c #74d21c",
"#P c #94de4c",
"#Q c #84ca44",
"#R c #000000",
"#S c #000000",
"#T c #000000",
"#U c #000000",
"#V c #000000",
"#W c #000000",
"#X c #000000",
"#Y c #000000",
"#Z c #000000",
"#0 c #000000",
"#1 c #000000",
"#2 c #000000",
"#3 c #000000",
"#4 c #000000",
"#5 c #000000",
"#6 c #000000",
"#7 c #000000",
"#8 c #000000",
"a` c #000000",
"a. c #000000",
"a# c #000000",
"aa c #000000",
"ab c #000000",
"ac c #000000",
"ad c #000000",
"ae c #000000",
"af c #000000",
"ag c #000000",
"ah c #000000",
"ai c #000000",
"aj c #000000",
"ak c #000000",
"al c #000000",
"am c #000000",
"an c #000000",
"ao c #000000",
"ap c #000000",
"aq c #000000",
"ar c #000000",
"as c #000000",
"at c #000000",
"au c #000000",
"av c #000000",
"aw c #000000",
"ax c #000000",
"ay c #000000",
"az c #000000",
"aA c #000000",
"aB c #000000",
"aC c #000000",
"aD c #000000",
"aE c #000000",
"aF c #000000",
"aG c #000000",
"aH c #000000",
"aI c #000000",
"aJ c #000000",
"aK c #000000",
"aL c #000000",
"aM c #000000",
"aN c #000000",
"aO c #000000",
"aP c #000000",
"aQ c #000000",
"aR c #000000",
"aS c #000000",
"aT c #000000",
"aU c #000000",
"aV c #000000",
"aW c #000000",
"aX c #000000",
"aY c #000000",
"aZ c #000000",
"a0 c #000000",
"a1 c #000000",
"a2 c #000000",
"a3 c #000000",
"a4 c #000000",
"a5 c #000000",
"a6 c #000000",
"a7 c #000000",
"a8 c #000000",
/* pixels */
"#A#A#A#A#A#A#A#A#A#A#A#A#A#A#A#A#A#A#A#A#A#A#A#A#A#A#A#A#A#A#A#A#A#A#A#A#A#A#A#A#A#A#A#A#A#A#A#A",
"#A#A#A#A#A#A#A#A#A#A#A#A#A#A#A#A#A#A#A#A#A#A#A#A#A#A#A#A#A#A#A#A#A#A#A#A#A#A#A#A#A#A#A#A#A#A#A#A",
"#A#A#A#A#A#A#A#A#A#A#A#A#A#A#A#A#A`X#i.M###z.E.K.K.E`2###L#i`X#A#A#A#A#A#A#A#A#A#A#A#A#A#A#A#A#A",
"#A#A#A#A#A#A#A#A#A#A#A#A#A`q#L...5.Q`I`a.R#.`Q`1`b`Q.l.l.p`I`E`U`F`z.d#A#A#A#A#A#A#A#A#A#A#A#A#A",
"#A#A#A#A#A#A#A#A#A#A#A##.A.`#t.V`B.S``.m.S#E``````#q```P.S#q``#h#e.R#x`Y#L#A#A#A#A#A#A#A#A#A#A#A",
"#A#A#A#A#A#A#A#A#A`X.K.I#K.S#E`````P.S``````.m.S``````.S````````#q`````l.7#w`q#A#A#A#A#A#A#A#A#A",
"#A#A#A#A#A#A#A#A`L#B`n``#q`````P.S`````P.S`````P``#q```P```P.S````#q``.S`P#H#u###A#A#A#A#A#A#A#A",
"#A#A#A#A#A#A#A.c.w.m.S`````P```````P.S```P.S``.S``````.S```````P```````P.S``#E.I#z#A#A#A#A#A#A#A",
"#A#A#A#A#A#A.z#u#E```P``.S``.S`P.S`````````P```P``#q```P.S`P.S``.S`P.S`````P```B`r.z#A#A#A#A#A#A",
"#A#A#A#A#A#A`L.R`B.S```P```P```````P.S`P.S``.S``````.S`````````P``````#q``.S``#E.r`T#A#A#A#A#A#A",
"#A#A#A#A#A#A...D.i``.S``.S``.S`P.S```````P```P.S`P```P``#q``.S``.S`P```````P```x`h#y#A#A#A#A#A#A",
"#A#A#A#A#A#A...A#O`0```P```P```````P.S``.S``````.S``.S`````P```P``.S``#q``.S`d#O.R.K#A#A#A#A#A#A",
"#A#A#A#A#A#A#y..`Y`W#D``.S``.S`P.S```P```P.S`P```P```P``.S``.S`````P````#E.a.e.0.R..#A#A#A#A#A#A",
"#A#A#A#A#A#A....`F`F.K.Y.L```P``````.S``````.S``.S``.S`P```P``#q``.S``#l.e#f#D`Q`K`g#A#A#A#A#A#A",
"#A#A#A#A#A#A....#y#x.c`2.E#x`C`d#E`P``#q```P```P```P````.S`````B#l`H.e#u.U`0`B`b.r..#A#A#A#A#A#A",
"#A#A#A#A#A#A#y.K#y`W.`..`2`T.E`Y.H.6.C#M.a#d#l#K#o`d#d.a`C.C`t`r`W.C.U`M`0`m`B#e.r..#A#A#A#A#A#A",
"#A#A#A#A#A#A......`W`W#s`T`2.3.3`2.3`J`Y.s`U#x`r#u#u.e`t#r.6.o.y.X`d`M.L.2`m`B`b.r..#A#A#A#A#A#A",
"#A#A#A#A#A#A...K..`W`W#s`2`2`2.3.3#F`f`t`4#r#O.g.o`#`#`k`k`k#g.i`D`d`M.L.2`m`B#H.r`Y#A#A#A#A#A#A",
"#A#A#A#A#A#A..`Y.K#u`W.s#z`T.3`T.3`E#O`e.P#O.g`v.o`#`#.N`k`x`x.X`d`d`M.L`m`m`B.u`H.##A#A#A#A#A#A",
"#A#A#A#A#A#A.K.A#w`W`W`U.3.3#J.3#J.Y`R#O.P.P.P`v`6`#`#`k`k`k`x.i`d`d`M.L.2`m`B.u`C#P#A#A#A#A#A#A",
"#A#A#A#A#A#A.#.s`Y`W`W`U.E#J.E.E.E.Y`R`e#O.P.g`v.o`#`#.N`x`k`x.X`D`d`M.L.2`m`B.u`S`a#A#A#A#A#A#A",
"#A#A#A#A#A#A.k.j`Y`W`W.5`J#y.E.Z.Z.Y`e.6`e.P`v.g.o`#.N`k`k`x`x.i`d`d`M.2`y`m`B#d`l.O#A#A#A#A#A#A",
"#A#A#A#A#A#A`a#n.A`W`W.5.Z`g`g.#.Z#B`R.P.P.P.g`v.o`#`#`k.N`x`x.X#l`d`M.L.2`m`B.u#o.O#A#A#A#A#A#A",
"#A#A#A#A#A#A.O#Q#j`W`W#x`Y#w.##w.##B`R`e#O.P.P`v`6`#`#`k`k`x`x.X.X`d`M.L.2`m`B#l#K`o#A#A#A#A#A#A",
"#A#A#A#A#A#A.O#Q.A`W`W`r.A#F.#.s#F#B.6`e.P.P.g`v.o`#`#.N`k`x`k.i`d`d`M.L.2`m`B`D#o.b#A#A#A#A#A#A",
"#A#A#A#A#A#A#N#Q.s`W`W#u#F`A.s.s#P#B`R.P`e.P`v.g.o`#`#`k`k`x`x.X`D`d`M.L`m`m`B`D#K`o#A#A#A#A#A#A",
"#A#A#A#A#A#A.O.R`A`W`W#u#s#s#P#P#P.e`e.6.P#O.g`v.o`#`#`k.N`x`x.i.X`d`M.2.L`m`B`D.L`o#A#A#A#A#A#A",
"#A#A#A#A#A#A.O.l#s#u`W`W`U.Q`E.Q#x`t`e`e.P.P.P`v`6`#`#`k`k`x`x.X`D`d`M.L.2`m`B`d.L`o#A#A#A#A#A#A",
"#A#A#A#A#A#A.O.R#s`W`W`W#x.5#x`f#B.e`e`R.P#O`v.g.o`#`#.N`x`k`x.X`d`d`M.L`m`m`B`M.L`o#A#A#A#A#A#A",
"#A#A#A#A#A#A.O.0#s`r`W`W.`#u#B#B.e#r`R#O.P.P.g`v.o`#.N`k`k`x`x.i.X`d`M.L.2`m`B`M.L`o#A#A#A#A#A#A",
"#A#A#A#A#A#A#N`K#s`W`W`W`W.e.e.G.G#r`e#O`e.P.g`v.o`#`#`k.N`x`k.X`D`d`M.L.2`y`m`M.L`o#A#A#A#A#A#A",
"#A#A#A#A#A#A.O.0`U`W`W`W.G.G.G#r`R`R`R.P#O.P`v.g.o`#`#`k`k`x`x.i`d`d`M.2.L`m`B`M.2.b#A#A#A#A#A#A",
"#A#A#A#A#A#A.O.0`U`W`W`W`W.G.e.G`R`e`R`e.P#O.P`v.o`#`#.N`k`x`x.X.i`d`M.L`m`m`B`M.2.b#A#A#A#A#A#A",
"#A#A#A#A#A#A.O.0.5#u`W`W.G`W.G`R.G`R`e#O`e.P.g`v`6`#`#`k`k`x`k.i`d`d`M.2.L`m`B`M`m#a#A#A#A#A#A#A",
"#A#A#A#A#A#A.O`h.5`W`W`W.e.G.G`R#r`R`e.6.P.P.g`v.o`#`#`k.N`x`x.X`D`d`M.L.2`m`B`M`y`o#A#A#A#A#A#A",
"#A#A#A#A#A#A#N#m#x#u`W`W.G`W.G.G`R`e`R`e.P.P`v.g.o`#`#`k`k`x`x.X.X`d`M.L`m`m`B`M`m.O#A#A#A#A#A#A",
"#A#A#A#A#A#A.O`h#x`W`W`W`W.G`R.G`R#r`e#O`e.P.P`v.o`#`#.N`x`k`x.i`d`d`M.2.L`m`B`M`m`o#A#A#A#A#A#A",
"#A#A#A#A#A#A#N`C.``W`W`W.G.e.G#r`R`R`e`R.P.P.g`v`6`#.N`k`k`x`x.X`D`d`M.L.2`B`B`M`B.b#A#A#A#A#A#A",
"#A#A#A#A#A#A.h#d#u#u`W`W`W.G.G.G`R`R`e#O.P#O.g`v.o`#`#`k.N`x`k.i`d`d`M.L.2`m`m`d.m.h#A#A#A#A#A#A",
"#A#A#A#A#A#A.1#q`t`W`W`W.G.e.G`R.G`R`e.6.P.P`v.g.o`#`#`k`k`x`x.X.i`d`M.2`y.L`d`y``.1#A#A#A#A#A#A",
"#A#A#A#A#A#A#A.F#h.C.e.G`W.G.e`R`R`e`R`e.P.P.P`v.o`#`#.N`k`x`x.X`d`d`M`M`d`d.2.m`w#A#A#A#A#A#A#A",
"#A#A#A#A#A#A#A#A.h.m.y`R.G.G`R.G#r`R`e#O`e.P.g`v`6`#`#`k`k`x`k.i`d.i`d.i`d`B.m.T#A#A#A#A#A#A#A#A",
"#A#A#A#A#A#A#A#A#A.W`7#E`#.6`e`R`e`R`e.6.P.P`v.g.o`#`#`k.N`x`x`k`k`x`d.2.m#b`8#A#A#A#A#A#A#A#A#A",
"#A#A#A#A#A#A#A#A#A#A#A`5.t```0#g`6`e.P`e.P.P#O`v.g.o.o`#`#`#`k.X.L#E`P`7`u#A#A#A#A#A#A#A#A#A#A#A",
"#A#A#A#A#A#A#A#A#A#A#A#A#A.J.B.O#E```y#K`M.i.i`x`x`d`M.L`m.m``#h`N.8.4#A#A#A#A#A#A#A#A#A#A#A#A#A",
"#A#A#A#A#A#A#A#A#A#A#A#A#A#A#A#A#A`c.8.B.T.F#N`7`7`N#`.n.B.f.q#A#A#A#A#A#A#A#A#A#A#A#A#A#A#A#A#A",
"#A#A#A#A#A#A#A#A#A#A#A#A#A#A#A#A#A#A#A#A#A#A#A#A#A#A#A#A#A#A#A#A#A#A#A#A#A#A#A#A#A#A#A#A#A#A#A#A",
"#A#A#A#A#A#A#A#A#A#A#A#A#A#A#A#A#A#A#A#A#A#A#A#A#A#A#A#A#A#A#A#A#A#A#A#A#A#A#A#A#A#A#A#A#A#A#A#A"
};
