/* XPM */
static const char *filegdb_16_xpm[] = {
/* width height num_colors chars_per_pixel */
"    16    16      256            2",
/* colors */
"`` c None",
"`. c #fdfefb",
"`# c #eaf9da",
"`a c #ebfadd",
"`b c #fefffd",
"`c c #d4f3b6",
"`d c #90cb56",
"`e c #79bc38",
"`f c #6ab326",
"`g c #5da915",
"`h c #5fa816",
"`i c #6aaf25",
"`j c #74b836",
"`k c #8bc651",
"`l c #d5f0b9",
"`m c #b7e68a",
"`n c #5ea717",
"`o c #4e9a06",
"`p c #59a212",
"`q c #b4df8a",
"`r c #8bd145",
"`s c #4f9c07",
"`t c #509d07",
"`u c #7fc53b",
"`v c #b1ec79",
"`w c #90d849",
"`x c #6bba21",
"`y c #56a40c",
"`z c #4e9b06",
"`A c #63b316",
"`B c #6bbe1b",
"`C c #90d052",
"`D c #aee975",
"`E c #8de03b",
"`F c #bded8f",
"`G c #ace673",
"`H c #8dd844",
"`I c #78cb27",
"`J c #71c71c",
"`K c #6bc118",
"`L c #5fb310",
"`M c #55a509",
"`N c #8dd04d",
"`O c #a9e86e",
"`P c #89df35",
"`Q c #b9eb89",
"`R c #abe570",
"`S c #76d41a",
"`T c #71cf15",
"`U c #6cc713",
"`V c #66be10",
"`W c #61b60e",
"`X c #5bae0c",
"`Y c #82c940",
"`Z c #99d75f",
"`0 c #87df32",
"`1 c #aae76f",
"`2 c #9fe25c",
"`3 c #74b536",
"`4 c #92d158",
"`5 c #86de2f",
"`6 c #9be356",
"`7 c #93de48",
"`8 c #71b431",
".` c #90d053",
".. c #84de2d",
".# c #8cdf3c",
".a c #86da32",
".b c #6fb42d",
".c c #8dcf4e",
".d c #84de2c",
".e c #7fdb26",
".f c #7bd720",
".g c #6fb22e",
".h c #8acd4a",
".i c #6eb32f",
".j c #8acd49",
".k c #56a609",
".l c #73b335",
".m c #acd585",
".n c #7ed12c",
".o c #7eda25",
".p c #5db10d",
".q c #5fad15",
".r c #a9cd85",
".s c #c7e1ae",
".t c #92cb59",
".u c #82c73e",
".v c #78c62a",
".w c #6dc716",
".x c #71bb29",
".y c #7dbf40",
".z c #8bc257",
".A c #c9e0b1",
".B c #fcfdfa",
".C c #dfecd2",
".D c #e2efd5",
".E c #fdfefc",
".F c #000000",
".G c #000000",
".H c #000000",
".I c #000000",
".J c #000000",
".K c #000000",
".L c #000000",
".M c #000000",
".N c #000000",
".O c #000000",
".P c #000000",
".Q c #000000",
".R c #000000",
".S c #000000",
".T c #000000",
".U c #000000",
".V c #000000",
".W c #000000",
".X c #000000",
".Y c #000000",
".Z c #000000",
".0 c #000000",
".1 c #000000",
".2 c #000000",
".3 c #000000",
".4 c #000000",
".5 c #000000",
".6 c #000000",
".7 c #000000",
".8 c #000000",
"#` c #000000",
"#. c #000000",
"## c #000000",
"#a c #000000",
"#b c #000000",
"#c c #000000",
"#d c #000000",
"#e c #000000",
"#f c #000000",
"#g c #000000",
"#h c #000000",
"#i c #000000",
"#j c #000000",
"#k c #000000",
"#l c #000000",
"#m c #000000",
"#n c #000000",
"#o c #000000",
"#p c #000000",
"#q c #000000",
"#r c #000000",
"#s c #000000",
"#t c #000000",
"#u c #000000",
"#v c #000000",
"#w c #000000",
"#x c #000000",
"#y c #000000",
"#z c #000000",
"#A c #000000",
"#B c #000000",
"#C c #000000",
"#D c #000000",
"#E c #000000",
"#F c #000000",
"#G c #000000",
"#H c #000000",
"#I c #000000",
"#J c #000000",
"#K c #000000",
"#L c #000000",
"#M c #000000",
"#N c #000000",
"#O c #000000",
"#P c #000000",
"#Q c #000000",
"#R c #000000",
"#S c #000000",
"#T c #000000",
"#U c #000000",
"#V c #000000",
"#W c #000000",
"#X c #000000",
"#Y c #000000",
"#Z c #000000",
"#0 c #000000",
"#1 c #000000",
"#2 c #000000",
"#3 c #000000",
"#4 c #000000",
"#5 c #000000",
"#6 c #000000",
"#7 c #000000",
"#8 c #000000",
"a` c #000000",
"a. c #000000",
"a# c #000000",
"aa c #000000",
"ab c #000000",
"ac c #000000",
"ad c #000000",
"ae c #000000",
"af c #000000",
"ag c #000000",
"ah c #000000",
"ai c #000000",
"aj c #000000",
"ak c #000000",
"al c #000000",
"am c #000000",
"an c #000000",
"ao c #000000",
"ap c #000000",
"aq c #000000",
"ar c #000000",
"as c #000000",
"at c #000000",
"au c #000000",
"av c #000000",
"aw c #000000",
"ax c #000000",
"ay c #000000",
"az c #000000",
"aA c #000000",
"aB c #000000",
"aC c #000000",
"aD c #000000",
"aE c #000000",
"aF c #000000",
"aG c #000000",
"aH c #000000",
"aI c #000000",
"aJ c #000000",
"aK c #000000",
"aL c #000000",
"aM c #000000",
"aN c #000000",
"aO c #000000",
"aP c #000000",
"aQ c #000000",
"aR c #000000",
"aS c #000000",
"aT c #000000",
"aU c #000000",
"aV c #000000",
"aW c #000000",
"aX c #000000",
"aY c #000000",
"aZ c #000000",
"a0 c #000000",
"a1 c #000000",
"a2 c #000000",
"a3 c #000000",
"a4 c #000000",
"a5 c #000000",
"a6 c #000000",
"a7 c #000000",
"a8 c #000000",
/* pixels */
"`````````````.`#`a`b````````````",
"```````c`d`e`f`g`h`i`j`k`l``````",
"`````m`n`o`o`o`o`o`o`o`o`p`q````",
"`````r`s`o`o`o`o`o`o`o`o`t`u````",
"`````v`w`x`y`o`o`o`z`y`A`B`C````",
"`````D`E`F`G`H`I`J`J`K`L`M`N````",
"`````O`P`Q`R`S`T`U`V`W`X`M`Y````",
"`````Z`0`1`2`S`T`U`V`W`X`M`3````",
"`````4`5`6`7`S`T`U`V`W`X`M`8````",
"````.`...#.a`S`T`U`V`W`X`M.b````",
"````.c.d.e.f`S`T`U`V`W`X`M.g````",
"````.h.d.e.f`S`T`U`V`W`X`M.i````",
"````.j.d.e.f`S`T`U`V`W`X.k.l````",
"````.m.n.o.f`S`T`U`V`W.p.q.r````",
"``````.s.t.u.v.w`K.x.y.z.A``````",
"````````````.B.C.D.E````````````"
};
