/* XPM */
static const char * flash_xpm[] = {
"16 16 76 1",
" 	c None",
".	c #FCB03E",
"+	c #FCB13E",
"@	c #FCAF3E",
"#	c #FCB23F",
"$	c #FDCD83",
"%	c #FCCC82",
"&	c #FCC470",
"*	c #FCB953",
"=	c #FCB23E",
"-	c #FCC66D",
";	c #FDE6BF",
">	c #FEF9E7",
",	c #FEFCF0",
"'	c #FEF9DF",
")	c #FDEAAD",
"!	c #FBBA57",
"~	c #FCB33F",
"{	c #FDE6C1",
"]	c #FEFEFB",
"^	c #FEFCEF",
"/	c #FEF8CE",
"(	c #FDF4B0",
"_	c #FCF4AD",
":	c #FDF0A2",
"<	c #FAB545",
"[	c #FEF8E7",
"}	c #FEFDF0",
"|	c #FEF9CF",
"1	c #FDF4AC",
"2	c #FDF089",
"3	c #FCEF87",
"4	c #FCD964",
"5	c #FCB33E",
"6	c #FCCD84",
"7	c #FEFCF1",
"8	c #FEF8D0",
"9	c #FEF9D0",
"0	c #FDF6BE",
"a	c #FDF3A1",
"b	c #FCEF81",
"c	c #FCEC68",
"d	c #FCE768",
"e	c #FBB13E",
"f	c #FCC570",
"g	c #FEFAE3",
"h	c #FDF5B1",
"i	c #FDF4AE",
"j	c #FDF3A2",
"k	c #FDF08C",
"l	c #FCED71",
"m	c #FCE959",
"n	c #FCE459",
"o	c #FBB13F",
"p	c #FCBC57",
"q	c #FDECB4",
"r	c #FCF4AB",
"s	c #FDF08B",
"t	c #FCEF82",
"u	c #FCEA5A",
"v	c #FCEA57",
"w	c #FBD349",
"x	c #FBBD5B",
"y	c #FDF1AA",
"z	c #FCEF84",
"A	c #FCEB65",
"B	c #FCE956",
"C	c #FCE34E",
"D	c #FAB43F",
"E	c #FCB43F",
"F	c #FBB94A",
"G	c #FBDB6C",
"H	c #FCE86E",
"I	c #FCE55D",
"J	c #FCD549",
"K	c #FBB43F",
"                ",
"       .+       ",
"       ++       ",
"   @# $%&* =@   ",
"   =-;>,')!~#   ",
"    {]^/(_:<    ",
"   $[}}|12345   ",
" ++67890abcde+. ",
" .+fghijklmno++ ",
"   pqrstluvw#   ",
"    xyzABvCD    ",
"   #EFGHIJK5=   ",
"   @= #oe5 #@   ",
"       ++       ",
"       +.       ",
"                "};
