/* XPM */
static const char * folder_conn_48_xpm[] = {
"48 48 712 2",
"  	c None",
". 	c #7A7A7A",
"+ 	c #7E7E7E",
"@ 	c #808080",
"# 	c #818181",
"$ 	c #797979",
"% 	c #919191",
"& 	c #D1D1D1",
"* 	c #CBCBCB",
"= 	c #C8C8C8",
"- 	c #C6C6C6",
"; 	c #C5C5C5",
"> 	c #C4C4C4",
", 	c #C2C2C2",
"' 	c #C0C0C0",
") 	c #BFBFBF",
"! 	c #BEBEBE",
"~ 	c #BDBDBD",
"{ 	c #7D7D7D",
"] 	c #959595",
"^ 	c #CDCDCD",
"/ 	c #AEAEAE",
"( 	c #AAAAAA",
"_ 	c #A8A8A8",
": 	c #A6A6A6",
"< 	c #A4A4A4",
"[ 	c #A3A3A3",
"} 	c #A1A1A1",
"| 	c #A0A0A0",
"1 	c #9E9E9E",
"2 	c #9D9D9D",
"3 	c #9C9C9C",
"4 	c #9B9B9B",
"5 	c #9A9A9A",
"6 	c #999999",
"7 	c #929292",
"8 	c #979797",
"9 	c #939393",
"0 	c #909090",
"a 	c #8E8E8E",
"b 	c #8D8D8D",
"c 	c #8B8B8B",
"d 	c #8A8A8A",
"e 	c #888888",
"f 	c #878787",
"g 	c #868686",
"h 	c #858585",
"i 	c #737373",
"j 	c #8C8C8C",
"k 	c #C9C9C9",
"l 	c #A2A2A2",
"m 	c #989898",
"n 	c #969696",
"o 	c #949494",
"p 	c #707070",
"q 	c #8F8F8F",
"r 	c #898989",
"s 	c #848484",
"t 	c #838383",
"u 	c #828282",
"v 	c #7C7C7C",
"w 	c #6E6E6E",
"x 	c #6D6D6D",
"y 	c #6C6C6C",
"z 	c #9F9F9F",
"A 	c #A7A7A7",
"B 	c #ACACAC",
"C 	c #ADADAD",
"D 	c #AFAFAF",
"E 	c #B0B0B0",
"F 	c #B1B1B1",
"G 	c #B3B3B3",
"H 	c #B5B5B5",
"I 	c #B6B6B6",
"J 	c #696969",
"K 	c #BBBBBB",
"L 	c #7F7F7F",
"M 	c #7B7B7B",
"N 	c #6A6A6A",
"O 	c #777777",
"P 	c #717171",
"Q 	c #B7B7B7",
"R 	c #787878",
"S 	c #767676",
"T 	c #757575",
"U 	c #747474",
"V 	c #B8B8B8",
"W 	c #8E8D87",
"X 	c #B99E1E",
"Y 	c #BFA011",
"Z 	c #BEA011",
"` 	c #BE9F11",
" .	c #BE9F10",
"..	c #BD9F10",
"+.	c #BD9E0F",
"@.	c #BC9E0F",
"#.	c #BFA012",
"$.	c #BB9C0C",
"%.	c #C3A103",
"&.	c #C7A400",
"*.	c #C7A300",
"=.	c #686868",
"-.	c #B2B2B2",
";.	c #8E886D",
">.	c #C5A409",
",.	c #EEDE61",
"'.	c #EFDF64",
").	c #EFDF63",
"!.	c #EFDE63",
"~.	c #EFDE62",
"{.	c #EFDE61",
"].	c #EEDE60",
"^.	c #EEDD5F",
"/.	c #EEDD5E",
"(.	c #EEDC5C",
"_.	c #CEAF15",
":.	c #646464",
"<.	c #958C64",
"[.	c #C9AA15",
"}.	c #F6E877",
"|.	c #F0DD36",
"1.	c #F0DD37",
"2.	c #F1DD37",
"3.	c #F1DD38",
"4.	c #F1DD39",
"5.	c #F1DD3A",
"6.	c #F1DE3A",
"7.	c #F1DE3B",
"8.	c #F1DE3C",
"9.	c #F5E773",
"0.	c #CFAE15",
"a.	c #616161",
"b.	c #968A55",
"c.	c #CEB11F",
"d.	c #F5E76D",
"e.	c #EFD817",
"f.	c #EED713",
"g.	c #F5E770",
"h.	c #CBA80A",
"i.	c #5F5F5F",
"j.	c #9C8D4A",
"k.	c #D5B927",
"l.	c #F4E565",
"m.	c #E5CF1C",
"n.	c #C0AF2D",
"o.	c #AC9E38",
"p.	c #988F48",
"q.	c #A79A3C",
"r.	c #BCAB2F",
"s.	c #DCC820",
"t.	c #EFD816",
"u.	c #EDD506",
"v.	c #F5E876",
"w.	c #C4A201",
"x.	c #5D5D5D",
"y.	c #A08E3E",
"z.	c #DCC22E",
"A.	c #F4E35C",
"B.	c #AA9D3F",
"C.	c #6B6D6C",
"D.	c #6F778A",
"E.	c #8998B2",
"F.	c #889EC2",
"G.	c #88A0C5",
"H.	c #8CA1C4",
"I.	c #7F91B0",
"J.	c #6A758A",
"K.	c #63656C",
"L.	c #948B49",
"M.	c #EBD419",
"N.	c #EED609",
"O.	c #EED60B",
"P.	c #F4E66F",
"Q.	c #C4A000",
"R.	c #5C5C5C",
"S.	c #A7922F",
"T.	c #E1CA37",
"U.	c #F3E355",
"V.	c #DCC720",
"W.	c #737169",
"X.	c #91A0BA",
"Y.	c #A3BDDB",
"Z.	c #93B0D2",
"`.	c #5A7DAC",
" +	c #496FA3",
".+	c #446CA1",
"++	c #5E84B5",
"@+	c #95B7DB",
"#+	c #93B5D9",
"$+	c #91B2D6",
"%+	c #7E96B9",
"&+	c #63646E",
"*+	c #CCBA28",
"=+	c #EED70F",
"-+	c #EDD400",
";+	c #EED815",
">+	c #F1E165",
",+	c #C6A100",
"'+	c #5B5B5B",
")+	c #B19722",
"!+	c #E5CF41",
"~+	c #F2E14D",
"{+	c #AA9D3E",
"]+	c #69748D",
"^+	c #9FB6D4",
"/+	c #7C9CC5",
"(+	c #8BABD1",
"_+	c #BAD5F1",
":+	c #6285B4",
"<+	c #4A70A4",
"[+	c #5A7FB0",
"}+	c #8CAED5",
"|+	c #97B9DE",
"1+	c #8DB1D8",
"2+	c #82A9D2",
"3+	c #678FBE",
"4+	c #688AB7",
"5+	c #5D6E8C",
"6+	c #8A8243",
"7+	c #EAD202",
"8+	c #EFD91F",
"9+	c #EEDD5C",
"0+	c #5A5A5A",
"a+	c #B79A16",
"b+	c #E9D54C",
"c+	c #F1DF44",
"d+	c #868059",
"e+	c #8396B2",
"f+	c #87A3C8",
"g+	c #9AB7DA",
"h+	c #A9C4E4",
"i+	c #A0BDDE",
"j+	c #C5DDF6",
"k+	c #5E82B2",
"l+	c #A0BEDF",
"m+	c #B3CFED",
"n+	c #8CACD3",
"o+	c #9DBDE0",
"p+	c #93B6DC",
"q+	c #6E94C2",
"r+	c #456EA4",
"s+	c #4670A6",
"t+	c #5178AB",
"u+	c #5978A3",
"v+	c #626462",
"w+	c #EED929",
"x+	c #EBD853",
"y+	c #C6A300",
"z+	c #585858",
"A+	c #BD9E0E",
"B+	c #EDDA57",
"C+	c #BBAC33",
"D+	c #7F8EA9",
"E+	c #7A9AC2",
"F+	c #C4DDF7",
"G+	c #93B1D5",
"H+	c #C0D9F3",
"I+	c #D3E9FF",
"J+	c #C7DEF8",
"K+	c #C5DEF7",
"L+	c #BBD6F2",
"M+	c #B0CDEC",
"N+	c #A5C4E5",
"O+	c #86AAD1",
"P+	c #6C92C0",
"Q+	c #5F87B7",
"R+	c #4D77AB",
"S+	c #355F98",
"T+	c #366099",
"U+	c #52719E",
"V+	c #8C8756",
"W+	c #E8D349",
"X+	c #C6A400",
"Y+	c #565656",
"Z+	c #C19F05",
"`+	c #F0E062",
" @	c #F0DC31",
".@	c #656D83",
"+@	c #708EB7",
"@@	c #4E73A6",
"#@	c #6D8FBB",
"$@	c #5478AA",
"%@	c #567AAB",
"&@	c #90AED2",
"*@	c #CDE4FC",
"=@	c #C1DBF5",
"-@	c #B5D1EF",
";@	c #97B7DB",
">@	c #6B8FBD",
",@	c #537AAD",
"'@	c #4A72A7",
")@	c #39639B",
"!@	c #356099",
"~@	c #325D97",
"{@	c #3E679D",
"]@	c #4B628B",
"^@	c #C6B447",
"/@	c #555555",
"(@	c #797877",
"_@	c #F3E468",
":@	c #F0DB28",
"<@	c #7C7960",
"[@	c #7792B9",
"}@	c #4E74A6",
"|@	c #4F74A7",
"1@	c #5377A9",
"2@	c #587CAD",
"3@	c #9DB9DB",
"4@	c #C3DBF4",
"5@	c #D2E8FE",
"6@	c #C5DEF8",
"7@	c #B9D4F1",
"8@	c #ACCAEA",
"9@	c #6186B6",
"0@	c #41699F",
"a@	c #3D669D",
"b@	c #2F5A95",
"c@	c #476CA0",
"d@	c #4E5975",
"e@	c #BF9C04",
"f@	c #535353",
"g@	c #757265",
"h@	c #C4A001",
"i@	c #F4E668",
"j@	c #F0D91E",
"k@	c #C6B42B",
"l@	c #7789A7",
"m@	c #5579A9",
"n@	c #4C72A5",
"o@	c #5074A7",
"p@	c #5C80B0",
"q@	c #AAC5E3",
"r@	c #D2E9FF",
"s@	c #C6DFF8",
"t@	c #779AC4",
"u@	c #5278AB",
"v@	c #84A8D1",
"w@	c #5D85B6",
"x@	c #4871A7",
"y@	c #39639C",
"z@	c #49699A",
"A@	c #69604B",
"B@	c #525252",
"C@	c #837D62",
"D@	c #C5A408",
"E@	c #F3E562",
"F@	c #EFD818",
"G@	c #807B5A",
"H@	c #7592BA",
"I@	c #486EA3",
"J@	c #4B71A5",
"K@	c #AAC4E4",
"L@	c #D1E7FE",
"M@	c #B8D3F0",
"N@	c #91B1D6",
"O@	c #6C90BD",
"P@	c #6A90BE",
"Q@	c #799FCB",
"R@	c #749CC9",
"S@	c #5F8ABB",
"T@	c #406CA3",
"U@	c #2B5793",
"V@	c #446A9E",
"W@	c #42496D",
"X@	c #505050",
"Y@	c #827950",
"Z@	c #C7A810",
"`@	c #F3E254",
" #	c #EED60D",
".#	c #EED508",
"+#	c #646871",
"@#	c #6988B4",
"##	c #486FA4",
"$#	c #6085B4",
"%#	c #8BAAD0",
"&#	c #CAE2FA",
"*#	c #BFD9F4",
"=#	c #6489B7",
"-#	c #436BA1",
";#	c #40689F",
">#	c #446DA3",
",#	c #446EA4",
"'#	c #4570A6",
")#	c #36629B",
"!#	c #2E5A95",
"~#	c #2B5894",
"{#	c #3C639A",
"]#	c #3B5181",
"^#	c #4D4D4D",
"/#	c #90844E",
"(#	c #CCAE15",
"_#	c #F2E047",
":#	c #EED60C",
"<#	c #EDD507",
"[#	c #EDD401",
"}#	c #5F6C86",
"|#	c #688AB6",
"1#	c #9CBCE0",
"2#	c #ADCBEA",
"3#	c #AFCBEA",
"4#	c #C9E1FA",
"5#	c #CFE6FD",
"6#	c #C2DBF6",
"7#	c #B8D4F0",
"8#	c #81A3CB",
"9#	c #466DA2",
"0#	c #426AA0",
"a#	c #3F679E",
"b#	c #3B659C",
"c#	c #38629A",
"d#	c #345F98",
"e#	c #406CA4",
"f#	c #305D97",
"g#	c #2E5C97",
"h#	c #3F6AA0",
"i#	c #415B8B",
"j#	c #4B4B4B",
"k#	c #727272",
"l#	c #7B7B7A",
"m#	c #8F803C",
"n#	c #D2B516",
"o#	c #EED60E",
"p#	c #EDD505",
"q#	c #DAC40B",
"r#	c #667996",
"s#	c #5F84B2",
"t#	c #82A5CD",
"u#	c #A0BFE1",
"v#	c #AFCCEB",
"w#	c #B7D3F0",
"x#	c #BED8F4",
"y#	c #C3DCF6",
"z#	c #BED9F4",
"A#	c #5D82B2",
"B#	c #40699F",
"C#	c #3A639B",
"D#	c #37619A",
"E#	c #335E98",
"F#	c #315D97",
"G#	c #3968A2",
"H#	c #295692",
"I#	c #2C5690",
"J#	c #4F6492",
"K#	c #484848",
"L#	c #727271",
"M#	c #9D8B3A",
"N#	c #D9BD15",
"O#	c #F1DC2D",
"P#	c #CFBA12",
"Q#	c #7C8AA1",
"R#	c #648AB8",
"S#	c #466EA3",
"T#	c #80A3CC",
"U#	c #A6C5E6",
"V#	c #ACCAE9",
"W#	c #B2CFED",
"X#	c #B6D2EF",
"Y#	c #4B71A6",
"Z#	c #3E679E",
"`#	c #355F99",
" $	c #2C5994",
".$	c #396498",
"+$	c #4F6792",
"@$	c #464646",
"#$	c #6B6B6B",
"$$	c #A28C27",
"%$	c #DDC014",
"&$	c #EFD719",
"*$	c #EDD300",
"=$	c #EDD200",
"-$	c #E0C608",
";$	c #6F798D",
">$	c #8CAFD6",
",$	c #89AED5",
"'$	c #678DBB",
")$	c #7397C3",
"!$	c #5077AA",
"~$	c #6E91BE",
"{$	c #9EBEE0",
"]$	c #ABC9E9",
"^$	c #AAC8E8",
"/$	c #A6C6E6",
"($	c #A2C2E4",
"_$	c #9CBDE0",
":$	c #698FBD",
"<$	c #3C659D",
"[$	c #366199",
"}$	c #305B96",
"|$	c #2D5994",
"1$	c #2B5791",
"2$	c #3F6699",
"3$	c #4B5F8A",
"4$	c #444444",
"5$	c #B09620",
"6$	c #E0C113",
"7$	c #EFD011",
"8$	c #EECD00",
"9$	c #EECC00",
"0$	c #EECB00",
"a$	c #63687A",
"b$	c #8BAED4",
"c$	c #82A8D2",
"d$	c #89AED6",
"e$	c #6086B6",
"f$	c #4269A0",
"g$	c #436BA0",
"h$	c #5B81B2",
"i$	c #94B6DB",
"j$	c #9DBEE1",
"k$	c #9ABCE0",
"l$	c #96B8DD",
"m$	c #91B4DA",
"n$	c #89AED7",
"o$	c #5E86B6",
"p$	c #6089BA",
"q$	c #5882B5",
"r$	c #36619A",
"s$	c #315C96",
"t$	c #295591",
"u$	c #2F5B93",
"v$	c #476A97",
"w$	c #445280",
"x$	c #424242",
"y$	c #666666",
"z$	c #B69813",
"A$	c #E4C00F",
"B$	c #EFC90A",
"C$	c #EEC600",
"D$	c #EEC500",
"E$	c #636164",
"F$	c #87ABD1",
"G$	c #77A0CD",
"H$	c #7CA3CF",
"I$	c #4169A0",
"J$	c #3F689E",
"K$	c #5077AB",
"L$	c #7CA1CB",
"M$	c #8EB2D9",
"N$	c #8AAFD7",
"O$	c #85ABD4",
"P$	c #7FA6D1",
"Q$	c #78A0CD",
"R$	c #709AC8",
"S$	c #6793C4",
"T$	c #37629B",
"U$	c #2F5B95",
"V$	c #2C5894",
"W$	c #2A5590",
"X$	c #3B6396",
"Y$	c #4C6A95",
"Z$	c #3D4473",
"`$	c #BE9D0C",
" %	c #E7BD0A",
".%	c #EFC105",
"+%	c #EFC000",
"@%	c #EFBF00",
"#%	c #927E3D",
"$%	c #7794BD",
"%%	c #6D98C7",
"&%	c #6B94C3",
"*%	c #3B649C",
"=%	c #3C659C",
"-%	c #3D659D",
";%	c #5A83B4",
">%	c #7EA5D0",
",%	c #7AA2CE",
"'%	c #749DCB",
")%	c #6692C3",
"!%	c #5E8CBE",
"~%	c #3F6CA4",
"{%	c #2A5792",
"]%	c #295590",
"^%	c #305A92",
"/%	c #3B608F",
"(%	c #4E6790",
"_%	c #393C6E",
":%	c #C29F04",
"<%	c #EAB803",
"[%	c #EFBA01",
"}%	c #EFBA00",
"|%	c #EFB900",
"1%	c #F0B900",
"2%	c #DCAB0C",
"3%	c #63697F",
"4%	c #729AC7",
"5%	c #6894C4",
"6%	c #436EA4",
"7%	c #5E87B8",
"8%	c #729CC9",
"9%	c #6E98C7",
"0%	c #628FC1",
"a%	c #5C8ABD",
"b%	c #5484B9",
"c%	c #3F6EA8",
"d%	c #2A5793",
"e%	c #28538D",
"f%	c #2F578E",
"g%	c #42608D",
"h%	c #515979",
"i%	c #5E5E5E",
"j%	c #86847A",
"k%	c #EFB300",
"l%	c #F0B400",
"m%	c #9E7F36",
"n%	c #6C81A5",
"o%	c #638FC0",
"p%	c #5B89BB",
"q%	c #3B679F",
"r%	c #618CBE",
"s%	c #5D8BBE",
"t%	c #5787BB",
"u%	c #5182B7",
"v%	c #4A7CB3",
"w%	c #3565A0",
"x%	c #29538E",
"y%	c #28518B",
"z%	c #33578A",
"A%	c #506289",
"B%	c #5A5456",
"C%	c #595959",
"D%	c #A19148",
"E%	c #C9A206",
"F%	c #665F5F",
"G%	c #6A8FBB",
"H%	c #5685BA",
"I%	c #4D7BB1",
"J%	c #38649D",
"K%	c #5B89BC",
"L%	c #5988BC",
"M%	c #4C7DB5",
"N%	c #4679B1",
"O%	c #4073AD",
"P%	c #35639C",
"Q%	c #2D5389",
"R%	c #4A648C",
"S%	c #514F64",
"T%	c #6B5F31",
"U%	c #C6A002",
"V%	c #C9A104",
"W%	c #C8A104",
"X%	c #C8A103",
"Y%	c #C8A003",
"Z%	c #B7940F",
"`%	c #575E78",
" &	c #5F8BBC",
".&	c #4677AE",
"+&	c #325E98",
"@&	c #5081B7",
"#&	c #4F80B6",
"$&	c #4D7EB5",
"%&	c #497BB3",
"&&	c #4578B1",
"*&	c #4074AE",
"=&	c #3F70A8",
"-&	c #3E6CA2",
";&	c #3B6599",
">&	c #28518A",
",&	c #274F88",
"'&	c #3E5D8A",
")&	c #525872",
"!&	c #8F792B",
"~&	c #927B1A",
"{&	c #917A1A",
"]&	c #675D45",
"^&	c #4D567C",
"/&	c #5880B2",
"(&	c #34639E",
"_&	c #4477B0",
":&	c #4276AF",
"<&	c #4072AB",
"[&	c #3F6FA7",
"}&	c #3D689C",
"|&	c #3C6496",
"1&	c #3B5F8F",
"2&	c #2E5388",
"3&	c #43618E",
"4&	c #4B5074",
"5&	c #47465F",
"6&	c #3B4578",
"7&	c #456598",
"8&	c #426B9F",
"9&	c #3F6EA5",
"0&	c #3F6EA4",
"a&	c #3E6DA3",
"b&	c #3E6BA1",
"c&	c #3E699E",
"d&	c #3D669A",
"e&	c #3C6395",
"f&	c #3B6090",
"g&	c #3A5C8A",
"h&	c #435F89",
"i&	c #4D5D86",
"j&	c #3D4170",
"k&	c #455180",
"l&	c #526C99",
"m&	c #5275A2",
"n&	c #4F739F",
"o&	c #486B99",
"p&	c #426593",
"q&	c #456693",
"r&	c #4B6992",
"s&	c #4E6890",
"t&	c #4D6087",
"u&	c #454E79",
"v&	c #393C6D",
"w&	c #393E70",
"x&	c #3D4576",
"y&	c #454C7C",
"z&	c #495581",
"A&	c #454E7C",
"B&	c #393D6E",
"C&	c #383C6D",
"                                                                                                ",
"                                                                                                ",
"                                                                                                ",
"                                                                                                ",
"      . + @ @ @ # # @ @ @ @ @ @ @ # # . $                                                       ",
"      % & * = - ; > , , ' ) ) ! ~ ~ ~ ! {                                                       ",
"      ] ^ / ( _ : < [ } | 1 2 3 4 5 5 [ 6                                                       ",
"      7 ' 8 ] 9 % 0 a b c d e e f f g h 4 i                                                     ",
"      j k : < l | 1 3 5 m 8 n ] o 9 7 9 8 p                                                     ",
"      f ! 9 % q j d r e g s t u u # @ @ # v w w w w w w x x x x x x x x y                       ",
"      u ; z 2 4 m n o 7 0 q b j c c d d r d d 4 A B C / D E F F G G H I / J                     ",
"      v K % b d r f h t # L L { v M . . $ $ $ $ . . M v { + @ u s g r c q N                     ",
"      O ! 4 n 9 % q b d r f h s t u # @ @ L L L @ @ # u t s g f r c b 0 9 J                     ",
"      P Q q r g h t @ + v M . R O S T U U i i i U U T S O R . M { + # t g J                     ",
"      x V ] a W X Y Z `  . .....+.+.+.+.+.@.@.@.+.+.+.+.+..... . .` Z Y #.$.%.&.&.&.&.&.*.      ",
"      =.-.q g ;.>.,.'.'.).).!.!.~.~.~.~.~.~.{.{.,.,.,.,.,.,.,.].].].].^.^.^.^././././.(._.      ",
"      :.-.7 e <.[.}.|.|.|.|.1.1.1.1.2.2.3.3.3.3.4.4.4.4.4.5.5.5.5.6.6.6.6.7.7.7.7.8.8.9.0.      ",
"      a.B b u b.c.d.e.e.e.e.e.e.e.e.e.e.e.e.e.e.e.e.e.e.e.e.e.e.e.e.e.e.e.e.e.e.e.e.f.g.h.      ",
"      i._ b u j.k.l.e.e.e.e.e.e.e.e.e.e.e.e.e.e.e.e.e.e.e.m.n.o.p.q.r.s.e.e.e.e.e.t.u.v.w.      ",
"      x.< j L y.z.A.e.e.e.e.e.e.e.e.e.e.e.e.e.e.e.e.e.B.C.D.E.F.G.H.I.J.K.L.M.e.e.N.O.P.Q.      ",
"      R.| r v S.T.U.e.e.e.e.e.e.e.e.e.e.e.e.e.e.e.V.W.X.Y.Z.`. +.+++@+#+$+%+&+*+=+-+;+>+,+      ",
"      '+4 c v )+!+~+e.e.e.e.e.e.e.e.e.e.e.e.e.e.{+]+^+/+(+_+:+<+[+}+|+1+2+3+4+5+6+7+8+9+*.      ",
"      0+] f O a+b+c+e.e.e.e.e.e.e.e.e.e.e.e.e.d+e+f+g+h+i+j+k+l+m+n+o+p+q+r+s+t+u+v+w+x+y+      ",
"      z+9 r . A+B+7.e.e.e.e.e.e.e.e.e.e.e.e.C+D+E+F+G+4+H+I+J+K+L+M+N+O+P+Q+R+S+T+U+V+W+X+      ",
"      Y+j t i Z+`+ @e.e.e.e.e.e.e.e.e.e.e.m..@+@@@#@$@%@&@I+I+*@=@-@;@>@,@'@)@!@~@{@]@^@,+      ",
"      /@c r (@Q._@:@e.e.e.e.e.e.e.e.e.e.e.<@[@}@|@1@2@3@4@I+I+5@6@7@8@9@0@a@)@T+~@b@c@d@e@      ",
"      f@t L g@h@i@j@e.e.e.e.e.e.e.e.e.e.k@l@m@n@o@p@q@r@I+I+I+I+s@_+t@u@v@w@x@y@~@b@b@z@A@      ",
"      B@u f C@D@E@F@e.e.e.e.e.e.e.e.e.e.G@H@I@J@|@K@I+I+I+I+I+L@F+M@N@O@P@Q@R@S@T@b@U@V@W@      ",
"      X@M { Y@Z@`@e.e.e.e.e.e.e.e.f. #.#+#@###$#%#&#I+I+I+I+I+&#*#m+=#-#;#>#,#'#)#!#~#{#]#      ",
"      ^#. f /#(#_#e.e.e.e.f.:#<#[#-+-+7+}#|#1#2#3#=@4#5#L@5#&#6#7#8#9#0#a#b#c#d#e#f#g#h#i#      ",
"      j#k#l#m#n#7.e.t.o#p#-+-+-+-+-+-+q#r#s#t#u#v#w#x#y#F+y#z#M@M+A#-#B#a@C#D#E#F#G#H#I#J#      ",
"      K#L#g M#N#O#.#[#-+-+-+-+-+-+-+-+P#Q#R#S#T#U#V#W#X#w#X#m+2#U#Y#0@Z#b#c#`#~@!#G# $.$+$      ",
"      @$#$. $$%$&$*$*$*$=$=$=$=$=$=$=$-$;$>$,$'$)$!$~${$]$^$/$($_$:$a#<$)@[$E#}$|$~#1$2$3$      ",
"      4$#$h 5$6$7$8$9$9$9$9$9$9$9$9$0$0$a$b$c$d$e$f$g$h$i$j$k$l$m$n$o$p$q$r$s$!#U@t$u$v$w$      ",
"      x$y$. z$A$B$C$C$C$C$C$C$C$D$D$D$D$E$F$G$H$I$Z#J$;#K$L$M$N$O$P$Q$R$S$T$U$V$H#W$X$Y$Z$      ",
"        :.t `$ %.%+%+%+%+%+%+%@%@%@%@%@%#%$%%%&%)@*%=%<$-%<$;%>%,%'%%%)%!%~%|${%]%^%/%(%_%      ",
"        i.. :%<%[%}%}%}%}%|%1%1%1%1%1%1%2%3%4%5%6%D#c#)@)@)@7%8%9%5%0%a%b%c%d%]%e%f%g%h%        ",
"        i%j%h@k%l%l%l%l%l%l%l%l%l%l%l%l%l%m%n%o%p%q%S+`#!@`#r%)%0%s%t%u%v%w%]%x%y%z%A%B%        ",
"        C%D%E%l%l%l%l%l%l%l%l%l%l%l%l%l%l%l%F%G%H%I%s$F#~@J%K%L%H%u%M%N%O%P%e%y%Q%R%S%          ",
"        T%Q.U%V%V%V%V%V%W%W%X%X%X%Y%Y%Y%Y%Y%Z%`% &.&|$!#+&@&#&$&%&&&*&=&-&;&>&,&'&)&!&          ",
"          ~&{&{&{&{&{&{&{&{&{&{&{&{&{&{&{&{&{&]&^&/&s$d%(&_&:&*&<&[&-&}&|&1&2&3&4&5&            ",
"                                                  6&7&8&9&0&a&b&c&d&e&f&g&h&i&j&                ",
"                                                      k&l&m&n&o&p&q&r&s&t&u&v&                  ",
"                                                          w&x&y&z&A&Z$B&C&                      ",
"                                                                                                ",
"                                                                                                ",
"                                                                                                ",
"                                                                                                "};
