/* XPM */
static const char * folder_up_xpm[] = {
"16 16 120 2",
"  	c None",
". 	c #A7A7A7",
"+ 	c #A5A5A5",
"@ 	c #A3A3A3",
"# 	c #A2A2A2",
"$ 	c #989898",
"% 	c #A6A6A6",
"& 	c #979797",
"* 	c #919191",
"= 	c #8D8D8D",
"- 	c #898989",
"; 	c #8B8B8B",
"> 	c #787878",
", 	c #9F9F9F",
"' 	c #939393",
") 	c #8C8C8C",
"! 	c #878787",
"~ 	c #848484",
"{ 	c #818181",
"] 	c #838383",
"^ 	c #8E8E8E",
"/ 	c #929292",
"( 	c #959595",
"_ 	c #9B9B9B",
": 	c #949494",
"< 	c #9B9160",
"[ 	c #C3B149",
"} 	c #C2B049",
"| 	c #C1AF47",
"1 	c #C0AF46",
"2 	c #C2B048",
"3 	c #C3B24A",
"4 	c #C8B544",
"5 	c #E0C635",
"6 	c #D9BD28",
"7 	c #AD9E45",
"8 	c #F1DE3A",
"9 	c #F0D91D",
"0 	c #E6D031",
"a 	c #B2A242",
"b 	c #F0DB2E",
"c 	c #EFD817",
"d 	c #95A654",
"e 	c #7A9767",
"f 	c #EED60B",
"g 	c #E4CB2D",
"h 	c #7E7E7E",
"i 	c #B9A743",
"j 	c #F0DB26",
"k 	c #ADB340",
"l 	c #4C86A7",
"m 	c #2F73A6",
"n 	c #8FA24C",
"o 	c #EDD400",
"p 	c #E3CB2F",
"q 	c #7A7A7A",
"r 	c #C1AF42",
"s 	c #EFD91C",
"t 	c #C5C02B",
"u 	c #6494A7",
"v 	c #3277AC",
"w 	c #1D6AA3",
"x 	c #2C719B",
"y 	c #A8AE32",
"z 	c #E0C82C",
"A 	c #727272",
"B 	c #C4B138",
"C 	c #EFD816",
"D 	c #EED60E",
"E 	c #EED609",
"F 	c #EDD506",
"G 	c #D9C80C",
"H 	c #739C9E",
"I 	c #4585B4",
"J 	c #327AB0",
"K 	c #1C6DA7",
"L 	c #085D9C",
"M 	c #3B7994",
"N 	c #A8A741",
"O 	c #6C6C6C",
"P 	c #C8B026",
"Q 	c #EDD201",
"R 	c #EDD200",
"S 	c #EDD100",
"T 	c #75936A",
"U 	c #6D999F",
"V 	c #5292BF",
"W 	c #237BB7",
"X 	c #0D6FB0",
"Y 	c #1670AF",
"Z 	c #437E8F",
"` 	c #4F7C83",
" .	c #686868",
"..	c #CCA914",
"+.	c #EFBF00",
"@.	c #EFBE00",
"#.	c #D9B20B",
"$.	c #448DBA",
"%.	c #117BBF",
"&.	c #117CC0",
"*.	c #217FBD",
"=.	c #999940",
"-.	c #D9AE05",
";.	c #8D7C39",
">.	c #D2A507",
",.	c #DBA905",
"'.	c #DAA805",
").	c #D9A804",
"!.	c #D9A704",
"~.	c #D8A703",
"{.	c #C49E0E",
"].	c #2F82B5",
"^.	c #1484C9",
"/.	c #1487CD",
"(.	c #2285C4",
"_.	c #8B8E43",
":.	c #347BA7",
"<.	c #2F7EAD",
"[.	c #2F7EAF",
"}.	c #3480AE",
"                                ",
"                                ",
"  . . + @ # $                   ",
"  % & * = - ; >                 ",
"  , ' ) ! ~ { ] ^ / ( _ ~       ",
"  : < [ } | 1 1 1 | 2 3 4 5 6   ",
"  = 7 8 9 9 9 9 9 9 9 9 9 9 0   ",
"  ~ a b c c c c c c d e c f g   ",
"  h i j c c c c c k l m n o p   ",
"  q r s c c c c t u v w x y z   ",
"  A B C D E F G H I J K L M N   ",
"  O P Q R S S T U V W X Y Z `   ",
"   ...+.+.+.@.@.#.$.%.&.*.=.-.  ",
"  ;.>.,.'.).!.~.{.].^./.(._.    ",
"                  :.<.[.}.      ",
"                                "};
