/* XPM */
static const char * folder_prj_48_xpm[] = {
"48 48 432 2",
"  	c None",
". 	c #7A7A7A",
"+ 	c #888888",
"@ 	c #898989",
"# 	c #8B8B8B",
"$ 	c #828282",
"% 	c #797979",
"& 	c #929292",
"* 	c #D1D1D1",
"= 	c #C8C8C8",
"- 	c #C4C4C4",
"; 	c #C3C3C3",
"> 	c #C1C1C1",
", 	c #C0C0C0",
"' 	c #BFBFBF",
") 	c #BEBEBE",
"! 	c #BDBDBD",
"~ 	c #BCBCBC",
"{ 	c #BBBBBB",
"] 	c #BABABA",
"^ 	c #B9B9B9",
"/ 	c #B8B8B8",
"( 	c #949494",
"_ 	c #CCCCCC",
": 	c #ABABAB",
"< 	c #A9A9A9",
"[ 	c #A7A7A7",
"} 	c #A5A5A5",
"| 	c #A3A3A3",
"1 	c #A1A1A1",
"2 	c #A0A0A0",
"3 	c #9E9E9E",
"4 	c #9D9D9D",
"5 	c #9C9C9C",
"6 	c #9B9B9B",
"7 	c #9A9A9A",
"8 	c #999999",
"9 	c #989898",
"0 	c #737373",
"a 	c #8F8F8F",
"b 	c #C2C2C2",
"c 	c #979797",
"d 	c #959595",
"e 	c #939393",
"f 	c #919191",
"g 	c #909090",
"h 	c #8E8E8E",
"i 	c #8D8D8D",
"j 	c #8A8A8A",
"k 	c #878787",
"l 	c #747474",
"m 	c #CACACA",
"n 	c #A6A6A6",
"o 	c #A4A4A4",
"p 	c #A2A2A2",
"q 	c #9F9F9F",
"r 	c #707070",
"s 	c #848484",
"t 	c #868686",
"u 	c #858585",
"v 	c #838383",
"w 	c #818181",
"x 	c #808080",
"y 	c #7F7F7F",
"z 	c #7E7E7E",
"A 	c #6E6E6E",
"B 	c #6D6D6D",
"C 	c #6C6C6C",
"D 	c #6B6B6B",
"E 	c #C5C5C5",
"F 	c #969696",
"G 	c #8C8C8C",
"H 	c #AAAAAA",
"I 	c #B1B1B1",
"J 	c #B2B2B2",
"K 	c #B3B3B3",
"L 	c #B4B4B4",
"M 	c #B5B5B5",
"N 	c #B6B6B6",
"O 	c #686868",
"P 	c #787878",
"Q 	c #7D7D7D",
"R 	c #7C7C7C",
"S 	c #7B7B7B",
"T 	c #777777",
"U 	c #6A6A6A",
"V 	c #696969",
"W 	c #767676",
"X 	c #757575",
"Y 	c #727272",
"Z 	c #717171",
"` 	c #8F8E88",
" .	c #BE9F12",
"..	c #C3A005",
"+.	c #C3A004",
"@.	c #C2A004",
"#.	c #C3A105",
"$.	c #C29F03",
"%.	c #C4A101",
"&.	c #C5A200",
"*.	c #656565",
"=.	c #8A856F",
"-.	c #C5A307",
";.	c #F1E26D",
">.	c #F2E371",
",.	c #F2E370",
"'.	c #F2E36F",
").	c #F2E36E",
"!.	c #F2E36D",
"~.	c #F2E26C",
"{.	c #F2E26B",
"].	c #F2E26A",
"^.	c #F2E168",
"/.	c #D0B11A",
"(.	c #626262",
"_.	c #958D68",
":.	c #C9A913",
"<.	c #F6E878",
"[.	c #F0DB28",
"}.	c #F0DB29",
"|.	c #F0DB2A",
"1.	c #F0DC2A",
"2.	c #F0DC2B",
"3.	c #F0DC2C",
"4.	c #F0DC2D",
"5.	c #F0DC2E",
"6.	c #F0DC2F",
"7.	c #F5E770",
"8.	c #CFAF17",
"9.	c #606060",
"0.	c #938856",
"a.	c #CDB01D",
"b.	c #EFD817",
"c.	c #EED712",
"d.	c #CAA90D",
"e.	c #5E5E5E",
"f.	c #A8A8A8",
"g.	c #9C8D4E",
"h.	c #D3B926",
"i.	c #F4E667",
"j.	c #EFD815",
"k.	c #EDD406",
"l.	c #F5E877",
"m.	c #C5A204",
"n.	c #5D5D5D",
"o.	c #9E8C3F",
"p.	c #DAC12D",
"q.	c #F4E45F",
"r.	c #EED507",
"s.	c #EED60C",
"t.	c #F4E671",
"u.	c #C4A000",
"v.	c #5B5B5B",
"w.	c #A69133",
"x.	c #E1C935",
"y.	c #F3E357",
"z.	c #EED60D",
"A.	c #EDD400",
"B.	c #F1E268",
"C.	c #C5A100",
"D.	c #5A5A5A",
"E.	c #AE9625",
"F.	c #E5D03F",
"G.	c #F2E14F",
"H.	c #EED711",
"I.	c #EDD401",
"J.	c #EFD91F",
"K.	c #EFDE5F",
"L.	c #C6A200",
"M.	c #595959",
"N.	c #B69A19",
"O.	c #E9D54B",
"P.	c #F2E046",
"Q.	c #C0B549",
"R.	c #91917E",
"S.	c #91927F",
"T.	c #7B7C6C",
"U.	c #91917D",
"V.	c #929280",
"W.	c #919283",
"X.	c #95916E",
"Y.	c #575757",
"Z.	c #BC9D0F",
"`.	c #EDDA56",
" +	c #F1DE3D",
".+	c #A19E6B",
"++	c #E7E7E6",
"@+	c #FBFBFB",
"#+	c #F9F9F9",
"$+	c #F0F0F0",
"%+	c #F4F4F4",
"&+	c #F6F6F6",
"*+	c #F5F5F5",
"=+	c #FAFBFA",
"-+	c #969893",
";+	c #555555",
">+	c #C19F06",
",+	c #F0E061",
"'+	c #F0DC34",
")+	c #A19E6C",
"!+	c #F0F0EF",
"~+	c #FBFBFA",
"{+	c #F9F9F8",
"]+	c #2A2A2A",
"^+	c #282828",
"/+	c #3E3E3E",
"(+	c #BCBCBB",
"_+	c #D0D0D0",
":+	c #2D2D2D",
"<+	c #B7B7B7",
"[+	c #F8F8F7",
"}+	c #FEFEFE",
"|+	c #979994",
"1+	c #535353",
"2+	c #C4A001",
"3+	c #F3E466",
"4+	c #FAFAF9",
"5+	c #C1C1C0",
"6+	c #272727",
"7+	c #000000",
"8+	c #0D0D0D",
"9+	c #585857",
"0+	c #F7F7F6",
"a+	c #F6F6F5",
"b+	c #F3F3F2",
"c+	c #515151",
"d+	c #757367",
"e+	c #C3A002",
"f+	c #F4E567",
"g+	c #F0DA20",
"h+	c #F1F1F0",
"i+	c #757574",
"j+	c #010101",
"k+	c #030303",
"l+	c #F5F5F4",
"m+	c #939591",
"n+	c #505050",
"o+	c #80807F",
"p+	c #827C62",
"q+	c #C4A309",
"r+	c #F3E562",
"s+	c #EFD819",
"t+	c #EFD816",
"u+	c #EED714",
"v+	c #EED710",
"w+	c #A19D69",
"x+	c #9C9C9B",
"y+	c #545454",
"z+	c #E2E2E2",
"A+	c #F4F4F3",
"B+	c #F8F8F8",
"C+	c #838581",
"D+	c #4E4E4E",
"E+	c #827951",
"F+	c #C7A810",
"G+	c #F3E255",
"H+	c #EED60A",
"I+	c #EDD505",
"J+	c #A19D66",
"K+	c #D3D3D2",
"L+	c #0B0B0B",
"M+	c #050505",
"N+	c #141414",
"O+	c #A1A1A0",
"P+	c #D6D6D5",
"Q+	c #0E0E0E",
"R+	c #4C4C4C",
"S+	c #8E824E",
"T+	c #CCAE16",
"U+	c #F2E048",
"V+	c #EDD504",
"W+	c #2F2F2E",
"X+	c #484847",
"Y+	c #C8C8C7",
"Z+	c #313130",
"`+	c #131313",
" @	c #3C3C3C",
".@	c #494949",
"+@	c #8F803D",
"@@	c #D1B516",
"#@	c #F1DE3C",
"$@	c #EED60B",
"%@	c #EDD403",
"&@	c #191919",
"*@	c #E2E2E1",
"=@	c #F3F3F3",
"-@	c #F2F2F2",
";@	c #EDEDED",
">@	c #7F7F7E",
",@	c #040404",
"'@	c #474747",
")@	c #6F6F6F",
"!@	c #868685",
"~@	c #9C8A3A",
"{@	c #D8BC16",
"]@	c #F1DB2B",
"^@	c #EDD506",
"/@	c #020202",
"(@	c #F2F2F1",
"_@	c #C4C4C3",
":@	c #FAFAFA",
"<@	c #8C8E8B",
"[@	c #444444",
"}@	c #696968",
"|@	c #A08B28",
"1@	c #DDC014",
"2@	c #EFD71A",
"3@	c #EDD200",
"4@	c #EDD100",
"5@	c #EDD000",
"6@	c #A19C66",
"7@	c #DEDEDE",
"8@	c #484848",
"9@	c #060606",
"0@	c #787877",
"a@	c #EFEFEF",
"b@	c #E7E7E7",
"c@	c #292929",
"d@	c #838382",
"e@	c #090909",
"f@	c #8F918D",
"g@	c #AF9521",
"h@	c #E1C112",
"i@	c #EFCF11",
"j@	c #EECC00",
"k@	c #EECB00",
"l@	c #EECA00",
"m@	c #A19A66",
"n@	c #EEEFEE",
"o@	c #9A9A99",
"p@	c #F1F1F1",
"q@	c #EEEEEE",
"r@	c #EEEEED",
"s@	c #DADADA",
"t@	c #E9E9E9",
"u@	c #FCFCFC",
"v@	c #414141",
"w@	c #636363",
"x@	c #B59713",
"y@	c #E4BF0E",
"z@	c #EFC80A",
"A@	c #EEC600",
"B@	c #EEC500",
"C@	c #EEC400",
"D@	c #EFC400",
"E@	c #A19966",
"F@	c #EFF0EF",
"G@	c #9F9F9E",
"H@	c #D7D7D6",
"I@	c #B0B0B0",
"J@	c #E8E8E8",
"K@	c #E8E8E7",
"L@	c #616161",
"M@	c #BD9D0D",
"N@	c #E8BC09",
"O@	c #EFC105",
"P@	c #EFC000",
"Q@	c #EFBF00",
"R@	c #EFBE00",
"S@	c #EFBD00",
"T@	c #A19766",
"U@	c #E7E8E7",
"V@	c #070707",
"W@	c #DCDCDC",
"X@	c #1B1B1B",
"Y@	c #646464",
"Z@	c #E6E6E5",
"`@	c #5C5C5C",
" #	c #C19E05",
".#	c #EAB802",
"+#	c #EFBA01",
"@#	c #EFB900",
"##	c #F0B900",
"$#	c #F0B800",
"%#	c #F0B700",
"&#	c #9E9264",
"*#	c #D4D4D4",
"=#	c #666666",
"-#	c #C7C7C7",
";#	c #353535",
">#	c #161616",
",#	c #262626",
"'#	c #E0E0E0",
")#	c #E6E6E4",
"!#	c #E5E5E3",
"~#	c #87857B",
"{#	c #EFB300",
"]#	c #F0B400",
"^#	c #A29566",
"/#	c #EDEDEC",
"(#	c #ECECEB",
"_#	c #6D6D6C",
":#	c #E5E5E4",
"<#	c #E4E4E2",
"[#	c #A49142",
"}#	c #CAA206",
"|#	c #ECECEC",
"1#	c #EBEBEB",
"2#	c #EAEAEA",
"3#	c #CFCFCF",
"4#	c #383837",
"5#	c #C5C5C3",
"6#	c #E4E4E1",
"7#	c #E3E3E0",
"8#	c #FEFEFD",
"9#	c #6B6030",
"0#	c #C49F02",
"a#	c #C49F04",
"b#	c #C49F03",
"c#	c #978F67",
"d#	c #EFEFEE",
"e#	c #3D3D3D",
"f#	c #363636",
"g#	c #8A8A88",
"h#	c #080808",
"i#	c #7D7D7C",
"j#	c #E1E1DE",
"k#	c #E2E2DF",
"l#	c #89887A",
"m#	c #E6E6E6",
"n#	c #F4F4F2",
"o#	c #E9E9E8",
"p#	c #AEAEAD",
"q#	c #EBEBE9",
"r#	c #888A85",
"s#	c #BBBCBA",
"t#	c #C7C8C6",
"u#	c #C1C2C0",
"v#	c #B6B7B5",
"w#	c #B1B2B0",
"x#	c #B3B4B2",
"y#	c #90928D",
"                                                                                                ",
"                                                                                                ",
"                                                                                                ",
"                                                                                                ",
"                                                                                                ",
"                                                                                                ",
"      . + @ @ @ @ @ @ @ @ @ @ # # # # $ %                                                       ",
"      & * = - ; > , ' ) ! ~ { ] ] ^ / ' $                                                       ",
"      ( _ : < [ } | 1 2 3 4 5 6 7 8 9 3 4 0                                                     ",
"      a b 9 c d e f g h i # j @ + k k k 5 l                                                     ",
"      + m n o p q 4 6 7 9 c d ( e & & f c r                                                     ",
"      s ) f g i # @ + t u v $ w x x y z y x A B B B B C C C C C D D D D D                       ",
"      z E p q 5 7 9 F ( & g a h i G # j j j G 3 H I J K L M N N / ] { ! N O                     ",
"      P ] a # + t u $ x y Q R S . % P T T T T T T P % . S R Q z x $ s u j U                     ",
"      0 ' 5 c ( & a i # j + k u s v $ $ w w w w w $ v s u t k @ # G h g ( V                     ",
"      A N a k s v x z R . % T W X 0 Y Y Z Z Z Z Z Y 0 0 X W P % . R z w u V                     ",
"      U ^ 9 g `  .........+.+.@.@.@.@.@.@.@.@.@.@.@.@.@.@.@.+.+.+.......#.$.%.&.&.&.&.&.&.      ",
"      *.I i v =.-.;.>.>.>.>.,.,.,.,.'.'.'.'.).).).).).!.!.!.!.~.~.~.~.{.{.{.{.{.{.{.].^./.      ",
"      (.K ( j _.:.<.[.[.[.[.}.}.}.}.|.|.1.1.1.1.2.2.2.2.2.3.3.3.3.4.4.4.4.5.5.5.5.6.6.7.8.      ",
"      9.< G x 0.a.7.b.b.b.b.b.b.b.b.b.b.b.b.b.b.b.b.b.b.b.b.b.b.b.b.b.b.b.b.b.b.b.b.c.7.d.      ",
"      e.f.g s g.h.i.b.b.b.b.b.b.b.b.b.b.b.b.b.b.b.b.b.b.b.b.b.b.b.b.b.b.b.b.b.b.b.j.k.l.m.      ",
"      n.1 # Q o.p.q.b.b.b.b.b.b.b.b.b.b.b.b.b.b.b.b.b.b.b.b.b.b.b.b.b.b.b.b.b.b.b.r.s.t.u.      ",
"      v.q G Q w.x.y.b.b.b.b.b.b.b.b.b.b.b.b.b.b.b.b.b.b.b.b.b.b.b.b.b.b.b.b.b.b.z.A.j.B.C.      ",
"      D.8 j S E.F.G.b.b.b.b.b.b.b.b.b.b.b.b.b.b.b.b.b.b.b.b.b.b.b.b.b.b.b.b.b.H.I.A.J.K.L.      ",
"      M.( + P N.O.P.b.b.b.b.b.b.b.b.b.b.b.b.b.b.b.Q.R.S.S.S.T.S.S.S.S.S.S.S.R.U.U.U.V.W.X.      ",
"      Y.g @ P Z.`. +b.b.b.b.b.b.b.b.b.b.b.b.b.b.b..+++@+@+#+$+%+@+@+@+&+*+@+@+@+@+@+@+=+-+      ",
"      ;+# s 0 >+,+'+b.b.b.b.b.b.b.b.b.b.b.b.b.b.b.)+!+~+{+5 ]+^+/+(+_+:+^+<+{+{+{+{+[+}+|+      ",
"      1++ k W 2+3+|.b.b.b.b.b.b.b.b.b.b.b.b.b.b.b.)+!+4+[+[+5+6+7+7+8+7+9+[+[+[+0+a+b+}+|+      ",
"      c+w w d+e+f+g+b.b.b.b.b.b.b.b.b.b.b.b.b.b.b.)+!+4+[+[+[+h+i+j+7+k+2 [+0+a+l+%+1+@+m+      ",
"      n+o+t p+q+r+s+b.b.b.b.b.b.b.b.b.b.b.t+u+c.v+w+!+4+[+[+[+[+x+7+j+7+7+y+z+l+A+6 7+B+C+      ",
"      D+P y E+F+G+b.b.b.b.b.b.b.j.v+H+I+I.A.A.A.A.J+!+4+[+[+[+K+L+7+k S M+7+N+O+P+Q+7+@+|+      ",
"      R+P t S+T+U+b.b.b.b.H.H+V+A.A.A.A.A.A.A.A.A.J+!+4+[+[+h+W+7+X+l+l+Y+Z+7+7+`+7+ @}+|+      ",
"      .@r Q +@@@#@b.u+$@%@A.A.A.A.A.A.A.A.A.A.A.A.J+!+#+[+[+U 7+&@*@A+=@-@;@>@,@7+j+t }+|+      ",
"      '@)@!@~@{@]@^@A.A.A.A.A.A.A.A.A.A.A.A.A.A.A.J+;@O [ : 7+/@N A+b+(@h+!+_@M+7+7+7+:@<@      ",
"      [@}@. |@1@2@3@3@3@3@3@4@4@4@4@4@4@4@5@5@5@5@6@7@8@7+9@7+0@b+(@h+$+a@b@c@7+D+d@e@#+f@      ",
"      [@O t g@h@i@j@j@j@j@k@k@k@k@k@k@k@l@l@l@l@l@m@n@6 j+7+,@o@p@$+a@q@r@U 7+&@s@t@= u@|+      ",
"      v@w@% x@y@z@A@A@B@B@B@B@B@B@B@B@C@C@C@D@D@D@E@F@G@7+k+7+7+8@H@r@;@I@j+j+H J@K@++}+|+      ",
"        L@s M@N@O@P@Q@Q@Q@Q@Q@Q@Q@R@R@R@R@R@R@R@S@T@U@.@7+p R V@7+Q+g W@X@7+Y@K@b@++Z@}+|+      ",
"        `@%  #.#+#@#############$#$#$#$#$#$#$#%#%#&#*#8@=#a@q@-#;#7+7+>#7+,#'#++Z@)#!#}+|+      ",
"        `@~#2+{#]#]#]#]#]#]#]#]#]#]#]#]#]#]#]#]#]#^#U@. b@;@/#(#t@v 9@7+7+_#:#)#:#!#<#}+|+      ",
"        1+[#}#]#]#]#]#]#]#]#]#]#]#]#]#]#]#]#]#]#]#^#a@b+/#|#1#2#t@3#8+7+7+7+4#5#<#6#7#8#|+      ",
"        9#u.0#a#a#a#a#a#b#b#b#b#b#b#b#b#b#b#b#b#b#c#d#p@1#2#t@J@++e#7+f#g#8+7+h#i#j#k#8#|+      ",
"                                                  l#d#B+a+*+*+*+m#c d ++n#o#p#g 9 q#(@}+|+      ",
"                                                  r#s#t#t#t#t#t#t#u#v#t#t#t#t#w#x#t#t#t#y#      ",
"                                                                                                ",
"                                                                                                ",
"                                                                                                ",
"                                                                                                "};
