/* XPM */
static const char *folder_arch_create_xpm[] = {
/* columns rows colors chars-per-pixel */
"16 16 102 2",
"   c #686868",
".  c #6C6C6C",
"X  c #727272",
"o  c #787878",
"O  c #797979",
"+  c #7F7F7F",
"@  c #B96F31",
"#  c #BC7A3E",
"$  c #CB6D1D",
"%  c #D26811",
"&  c #D26911",
"*  c #D6741C",
"=  c #C8752C",
"-  c #D17B26",
";  c #C17934",
":  c #D27E32",
">  c #D77F30",
",  c #AC754B",
"<  c #B67844",
"1  c #B87B48",
"2  c #B57E51",
"3  c #B47E52",
"4  c #DC9124",
"5  c #DD9526",
"6  c #D38430",
"7  c #D88D35",
"8  c #A38B7B",
"9  c #E4A84B",
"0  c #ECBB6F",
"q  c #EBB573",
"w  c #526680",
"e  c #4D7CB3",
"r  c #4C7BB7",
"t  c #6B839F",
"y  c #738192",
"u  c #4F81BC",
"i  c #5181B7",
"p  c #5882B1",
"a  c #5182B8",
"s  c #5283B8",
"d  c #5383B8",
"f  c #5483B9",
"g  c #5D8ABD",
"h  c #6C86A4",
"j  c #718AA9",
"k  c #748EAF",
"l  c #6689B2",
"z  c #6F8DB1",
"x  c #738FB0",
"c  c #7590B1",
"v  c #7692B2",
"b  c #6A93C2",
"n  c #6597CC",
"m  c #6697CC",
"M  c #6698CC",
"N  c #6798CC",
"B  c #6F9DCE",
"V  c #7299C7",
"C  c #779CC9",
"Z  c #709DCE",
"A  c #709ECE",
"S  c #709ECF",
"D  c #719ECF",
"F  c #729FCF",
"G  c #789CC8",
"H  c #73A0CF",
"J  c #7EA4CE",
"K  c #74A1D0",
"L  c #75A1D0",
"P  c #77A2D1",
"I  c #78A3D1",
"U  c #7AA4D2",
"Y  c #7BA5D2",
"T  c #7EA7D3",
"R  c #7FA8D3",
"E  c #818181",
"W  c #838383",
"Q  c #848484",
"!  c #858585",
"~  c #878787",
"^  c #898989",
"/  c #8B8B8B",
"(  c #8C8C8C",
")  c #8D8D8D",
"_  c #8E8E8E",
"`  c #938A84",
"'  c #919191",
"]  c #939393",
"[  c #949494",
"{  c #969696",
"}  c #989898",
"|  c #9F9F9F",
" . c #A2A2A2",
".. c #A3A3A3",
"X. c #A5A5A5",
"o. c #A7A7A7",
"O. c #81A9D4",
"+. c #82AAD4",
"@. c #86ADD6",
"#. c #8BB0D8",
"$. c #93B5DA",
"%. c None",
/* pixels */
"%.%.%.%.%.%.%.%.%.%.%.%.%.%.%.%.",
"%.%.%.%.%.%.%.%.%.%.%.%.%.%.%.%.",
"%.o.o.o... .{ %.%.%.%.& %.%.%.%.",
"%.o.[ ' ( ^ / 8 %.$ : q 6 & %.%.",
"%.| ' _ ! ! 8 w ` = 0 0 0 - %.%.",
"%.[ y v v x k k , 6 9 9 9 7 @ %.",
"%._ t $.+.+.+.+.+.# 4 5 4 ; O.%.",
"%.! h #.O.T T O.O.2 2 - 1 < G %.",
"%.w j @.R R R R O.O.R 8 U H C %.",
"%.o x O.R R R R T U U L Z H V %.",
"%., z T U L L L Z Z H Z Z H b %.",
"%.w l F F F Z Z Z Z Z Z B Z g %.",
"%.X g M N N M M n n n M M M r %.",
"%.w i s f a a i i i a d d u %.%.",
"%.%.%.%.%.%.%.%.%.%.%.%.%.%.%.%.",
"%.%.%.%.%.%.%.%.%.%.%.%.%.%.%.%."
};
