/* XPM */
static const char * folder_conns_48_xpm[] = {
"48 48 651 2",
"  	c None",
". 	c #797979",
"+ 	c #909090",
"@ 	c #8F8F8F",
"# 	c #8E8E8E",
"$ 	c #838383",
"% 	c #9A9A9A",
"& 	c #D0D0D0",
"* 	c #C7C7C7",
"= 	c #C3C3C3",
"- 	c #C2C2C2",
"; 	c #C0C0C0",
"> 	c #BFBFBF",
", 	c #BEBEBE",
"' 	c #BCBCBC",
") 	c #BABABA",
"! 	c #B9B9B9",
"~ 	c #B8B8B8",
"{ 	c #B7B7B7",
"] 	c #808080",
"^ 	c #999999",
"/ 	c #CACACA",
"( 	c #A9A9A9",
"_ 	c #A7A7A7",
": 	c #A5A5A5",
"< 	c #A3A3A3",
"[ 	c #A1A1A1",
"} 	c #A0A0A0",
"| 	c #9F9F9F",
"1 	c #9D9D9D",
"2 	c #9C9C9C",
"3 	c #989898",
"4 	c #979797",
"5 	c #9E9E9E",
"6 	c #939393",
"7 	c #959595",
"8 	c #929292",
"9 	c #8C8C8C",
"0 	c #8B8B8B",
"a 	c #8A8A8A",
"b 	c #898989",
"c 	c #888888",
"d 	c #878787",
"e 	c #737373",
"f 	c #C8C8C8",
"g 	c #949494",
"h 	c #919191",
"i 	c #6F6F6F",
"j 	c #8D8D8D",
"k 	c #868686",
"l 	c #858585",
"m 	c #848484",
"n 	c #828282",
"o 	c #818181",
"p 	c #7F7F7F",
"q 	c #7E7E7E",
"r 	c #6E6E6E",
"s 	c #6C6C6C",
"t 	c #6B6B6B",
"u 	c #6A6A6A",
"v 	c #C5C5C5",
"w 	c #969696",
"x 	c #AAAAAA",
"y 	c #B0B0B0",
"z 	c #B1B1B1",
"A 	c #B2B2B2",
"B 	c #B4B4B4",
"C 	c #B5B5B5",
"D 	c #BDBDBD",
"E 	c #686868",
"F 	c #7D7D7D",
"G 	c #7B7B7B",
"H 	c #7A7A7A",
"I 	c #787878",
"J 	c #777777",
"K 	c #7C7C7C",
"L 	c #696969",
"M 	c #676767",
"N 	c #767676",
"O 	c #747474",
"P 	c #727272",
"Q 	c #717171",
"R 	c #757575",
"S 	c #928F83",
"T 	c #C1A00A",
"U 	c #C4A002",
"V 	c #C3A002",
"W 	c #C3A001",
"X 	c #C4A100",
"Y 	c #C6A300",
"Z 	c #8E8765",
"` 	c #C7A60E",
" .	c #F3E675",
"..	c #F4E778",
"+.	c #F4E777",
"@.	c #F4E776",
"#.	c #F4E775",
"$.	c #F4E675",
"%.	c #F4E674",
"&.	c #F4E673",
"*.	c #F4E672",
"=.	c #F4E56F",
"-.	c #CFB016",
";.	c #666666",
">.	c #B3B3B3",
",.	c #998F61",
"'.	c #CCAE1B",
").	c #F6E776",
"!.	c #F0DB25",
"~.	c #F0DB26",
"{.	c #F0DB27",
"].	c #F0DB28",
"^.	c #F0DB29",
"/.	c #F0DB2A",
"(.	c #F0DC2A",
"_.	c #F0DC2B",
":.	c #F5E872",
"<.	c #CBAB10",
"[.	c #606060",
"}.	c #ABABAB",
"|.	c #978A4D",
"1.	c #D1B524",
"2.	c #F5E66C",
"3.	c #EFD817",
"4.	c #EED718",
"5.	c #C6B42A",
"6.	c #9E9548",
"7.	c #858365",
"8.	c #84877E",
"9.	c #82888F",
"0.	c #81837C",
"a.	c #807F63",
"b.	c #9B9248",
"c.	c #EED711",
"d.	c #F5E875",
"e.	c #C7A506",
"f.	c #5E5E5E",
"g.	c #9F8F45",
"h.	c #D8BE2B",
"i.	c #F4E564",
"j.	c #CBB92B",
"k.	c #7B7D7C",
"l.	c #8FA2BC",
"m.	c #93ACCE",
"n.	c #7A99C1",
"o.	c #5B7EAE",
"p.	c #4D72A6",
"q.	c #7FA1CA",
"r.	c #99B9DC",
"s.	c #8DAACF",
"t.	c #7D92B1",
"u.	c #6D7070",
"v.	c #D0BE26",
"w.	c #EED715",
"x.	c #EDD509",
"y.	c #F5E774",
"z.	c #C4A000",
"A.	c #5C5C5C",
"B.	c #A38F36",
"C.	c #DFC632",
"D.	c #F3E35B",
"E.	c #E4CF1C",
"F.	c #868464",
"G.	c #8696AF",
"H.	c #92ADD0",
"I.	c #82A2CA",
"J.	c #B4D0EE",
"K.	c #688BB9",
"L.	c #4C72A6",
"M.	c #678BB9",
"N.	c #97B8DD",
"O.	c #93B6DC",
"P.	c #87ADD5",
"Q.	c #6F97C4",
"R.	c #6388B6",
"S.	c #617494",
"T.	c #888551",
"U.	c #EBD519",
"V.	c #EDD506",
"W.	c #F3E46A",
"X.	c #C5A100",
"Y.	c #5B5B5B",
"Z.	c #A2A2A2",
"`.	c #AD9629",
" +	c #E3CD3C",
".+	c #F3E253",
"++	c #E2CD1D",
"@+	c #767C86",
"#+	c #89A3C6",
"$+	c #A1BEDD",
"%+	c #A1BDDE",
"&+	c #ACC7E6",
"*+	c #C7DFF8",
"=+	c #80A0C8",
"-+	c #B2CEEC",
";+	c #B3CFED",
">+	c #91B2D7",
",+	c #9BBCE0",
"'+	c #7DA2CC",
")+	c #456EA3",
"!+	c #537DB1",
"~+	c #456DA4",
"{+	c #5274A5",
"]+	c #686C67",
"^+	c #EED60C",
"/+	c #EDD400",
"(+	c #EFD81A",
"_+	c #F0DF61",
":+	c #5A5A5A",
"<+	c #B4991C",
"[+	c #E7D246",
"}+	c #F2E14B",
"|+	c #EED717",
"1+	c #777971",
"2+	c #7794BC",
"3+	c #7999C4",
"4+	c #A0BCDE",
"5+	c #5478AA",
"6+	c #85A4CB",
"7+	c #D3E9FF",
"8+	c #D1E8FE",
"9+	c #C7E0F8",
"0+	c #BBD6F2",
"a+	c #AECCEB",
"b+	c #7C9FC9",
"c+	c #7CA0CA",
"d+	c #5E86B6",
"e+	c #466FA5",
"f+	c #355F99",
"g+	c #335E97",
"h+	c #4E709E",
"i+	c #968F46",
"j+	c #EED710",
"k+	c #F0DA24",
"l+	c #EDDB58",
"m+	c #C7A300",
"n+	c #585858",
"o+	c #BA9C12",
"p+	c #EBD851",
"q+	c #F1DF42",
"r+	c #948E53",
"s+	c #7590B6",
"t+	c #4F74A7",
"u+	c #5075A8",
"v+	c #5579AA",
"w+	c #7394BF",
"x+	c #ADC7E5",
"y+	c #D2E8FE",
"z+	c #CEE5FC",
"A+	c #C0DAF5",
"B+	c #89AAD2",
"C+	c #4871A5",
"D+	c #3E669E",
"E+	c #3A639B",
"F+	c #356099",
"G+	c #315D97",
"H+	c #386299",
"I+	c #4B658A",
"J+	c #D7C323",
"K+	c #EED70F",
"L+	c #F0DC2D",
"M+	c #EAD54E",
"N+	c #C7A400",
"O+	c #575757",
"P+	c #C09F09",
"Q+	c #EEDE5D",
"R+	c #F1DD38",
"S+	c #CBB929",
"T+	c #798CA9",
"U+	c #5378A9",
"V+	c #4D73A6",
"W+	c #5176A8",
"X+	c #7E9EC6",
"Y+	c #C0D9F3",
"Z+	c #D0E7FE",
"`+	c #C2DBF6",
" @	c #AAC7E7",
".@	c #5A7FB1",
"+@	c #7094C1",
"@@	c #5D85B5",
"#@	c #37619A",
"$@	c #2D5994",
"%@	c #40689D",
"&@	c #686B64",
"*@	c #EED60E",
"=@	c #F1DD37",
"-@	c #E6D045",
";@	c #555555",
">@	c #F2E367",
",@	c #F0DC30",
"'@	c #898558",
")@	c #6988B3",
"!@	c #496FA4",
"~@	c #7C9CC5",
"{@	c #CDE4FC",
"]@	c #BFD9F4",
"^@	c #ACCAE9",
"/@	c #668BB9",
"(@	c #678DBB",
"_@	c #7399C5",
":@	c #719AC7",
"<@	c #5C88BA",
"[@	c #38639C",
"}@	c #325D96",
"|@	c #52637D",
"1@	c #F2DF41",
"2@	c #E3CB3C",
"3@	c #C6A200",
"4@	c #535353",
"5@	c #7A7870",
"6@	c #F4E66B",
"7@	c #6E777D",
"8@	c #5C7FAE",
"9@	c #7094C0",
"0@	c #7799C4",
"a@	c #C3DDF6",
"b@	c #CFE6FD",
"c@	c #C5DEF7",
"d@	c #B8D4F0",
"e@	c #7699C3",
"f@	c #446BA1",
"g@	c #40689F",
"h@	c #3E679E",
"i@	c #3A649C",
"j@	c #39649C",
"k@	c #345F99",
"l@	c #2C5994",
"m@	c #2F5C97",
"n@	c #49648C",
"o@	c #D9C20C",
"p@	c #F2E047",
"q@	c #DFC631",
"r@	c #C6A000",
"s@	c #515151",
"t@	c #7B7662",
"u@	c #C3A204",
"v@	c #F4E66A",
"w@	c #EFD91C",
"x@	c #E5CF1C",
"y@	c #677B99",
"z@	c #7599C4",
"A@	c #9DBEE1",
"B@	c #AFCCEB",
"C@	c #BAD5F1",
"D@	c #C2DCF6",
"E@	c #C8E0F9",
"F@	c #CAE2FA",
"G@	c #9AB9DC",
"H@	c #466DA2",
"I@	c #426AA0",
"J@	c #3B649C",
"K@	c #335E98",
"L@	c #3F6DA5",
"M@	c #2B5894",
"N@	c #2E5B95",
"O@	c #4C6894",
"P@	c #B7A621",
"Q@	c #F2E049",
"R@	c #D9BE25",
"S@	c #4F4F4F",
"T@	c #848483",
"U@	c #857D5B",
"V@	c #C6A60D",
"W@	c #F4E460",
"X@	c #BFAE2E",
"Y@	c #7991B5",
"Z@	c #5077AB",
"`@	c #5E84B4",
" #	c #A5C4E6",
".#	c #AECBEA",
"+#	c #B5D1EE",
"@#	c #B9D5F1",
"##	c #B9D4F1",
"$#	c #B4D1EE",
"%#	c #ADCBEA",
"&#	c #7A9DC7",
"*#	c #436AA0",
"=#	c #3F689E",
"-#	c #3C659D",
";#	c #39629B",
">#	c #315C96",
",#	c #315E98",
"'#	c #31619C",
")#	c #305C95",
"!#	c #4E6A97",
"~#	c #928838",
"{#	c #F2E04A",
"]#	c #D3B61B",
"^#	c #4E4E4E",
"/#	c #877C4D",
"(#	c #CAAC14",
"_#	c #F3E251",
":#	c #D1BE25",
"<#	c #7F90A9",
"[#	c #85ABD4",
"}#	c #6F95C1",
"|#	c #799DC8",
"1#	c #5D82B2",
"2#	c #7497C3",
"3#	c #9FBFE1",
"4#	c #ABC9E9",
"5#	c #AAC8E8",
"6#	c #A6C5E6",
"7#	c #A0C0E3",
"8#	c #85A8D0",
"9#	c #41699F",
"0#	c #3D659D",
"a#	c #39639B",
"b#	c #366099",
"c#	c #335D97",
"d#	c #2F5B95",
"e#	c #2B5893",
"f#	c #386297",
"g#	c #536688",
"h#	c #BEAC1C",
"i#	c #CEAE11",
"j#	c #4C4C4C",
"k#	c #928447",
"l#	c #D0B217",
"m#	c #F2E044",
"n#	c #EFD816",
"o#	c #EBD30A",
"p#	c #737D8A",
"q#	c #80A7D1",
"r#	c #7297C4",
"s#	c #547BAD",
"t#	c #93B5DB",
"u#	c #9ABCE0",
"v#	c #97B9DE",
"w#	c #92B5DB",
"x#	c #8BAFD7",
"y#	c #6C94C2",
"z#	c #658EBD",
"A#	c #5D87B9",
"B#	c #305B96",
"C#	c #295692",
"D#	c #2C5791",
"E#	c #416696",
"F#	c #5D6370",
"G#	c #E9D003",
"H#	c #F2E046",
"I#	c #CAA808",
"J#	c #4A4A4A",
"K#	c #948339",
"L#	c #D6B917",
"M#	c #F1DD39",
"N#	c #EED713",
"O#	c #EED60A",
"P#	c #EDD402",
"Q#	c #707575",
"R#	c #7CA2CD",
"S#	c #78A1CD",
"T#	c #4A73A8",
"U#	c #3D669D",
"V#	c #3F679E",
"W#	c #4870A5",
"X#	c #6B91BF",
"Y#	c #86ABD4",
"Z#	c #83AAD3",
"`#	c #7DA5D0",
" $	c #759FCB",
".$	c #6D98C7",
"+$	c #628FC0",
"@$	c #35619A",
"#$	c #2A5793",
"$$	c #295490",
"%$	c #396296",
"&$	c #486793",
"*$	c #67665A",
"=$	c #EDD401",
"-$	c #F2DF40",
";$	c #C7A302",
">$	c #484848",
",$	c #A28D32",
"'$	c #DBC016",
")$	c #EDD504",
"!$	c #74745B",
"~$	c #779CC7",
"{$	c #6B96C6",
"]$	c #4770A6",
"^$	c #7199C7",
"/$	c #749ECB",
"($	c #6F99C8",
"_$	c #6894C4",
":$	c #608EC0",
"<$	c #5787BB",
"[$	c #36649E",
"}$	c #295590",
"|$	c #2A548D",
"1$	c #3C5F8E",
"2$	c #4E6389",
"3$	c #8E843A",
"4$	c #F0DB34",
"5$	c #454545",
"6$	c #A89022",
"7$	c #DFC315",
"8$	c #EFD617",
"9$	c #EDD200",
"0$	c #EDD100",
"a$	c #D6BE0E",
"b$	c #687386",
"c$	c #6893C2",
"d$	c #5B88BA",
"e$	c #3A659D",
"f$	c #4872A8",
"g$	c #6A95C5",
"h$	c #6692C3",
"i$	c #5A89BC",
"j$	c #5383B8",
"k$	c #4B7DB4",
"l$	c #2F5D99",
"m$	c #28528D",
"n$	c #2B538A",
"o$	c #4A658C",
"p$	c #63605B",
"q$	c #EACB02",
"r$	c #EECE00",
"s$	c #EFCF08",
"t$	c #EDD128",
"u$	c #C5A000",
"v$	c #444444",
"w$	c #B4991A",
"x$	c #E2C213",
"y$	c #EFCF0E",
"z$	c #EECC00",
"A$	c #EECB00",
"B$	c #9D8D36",
"C$	c #6782A7",
"D$	c #4B79AF",
"E$	c #325D97",
"F$	c #335F98",
"G$	c #4B78AE",
"H$	c #5A89BD",
"I$	c #5786BB",
"J$	c #5282B8",
"K$	c #4C7EB5",
"L$	c #4578B1",
"M$	c #4072AB",
"N$	c #2E5A93",
"O$	c #28528C",
"P$	c #285089",
"Q$	c #43608B",
"R$	c #5A5C69",
"S$	c #D9B80C",
"T$	c #EEC800",
"U$	c #EEC700",
"V$	c #EFC909",
"W$	c #E9C71C",
"X$	c #434343",
"Y$	c #B99A0F",
"Z$	c #E5C00F",
"`$	c #EFC808",
" %	c #EEC500",
".%	c #6C685C",
"+%	c #5E85B6",
"@%	c #4776AE",
"#%	c #406EA7",
"$%	c #4D7FB5",
"%%	c #487AB2",
"&%	c #4377B0",
"*%	c #4072AC",
"=%	c #3F6EA5",
"-%	c #3D699D",
";%	c #335B90",
">%	c #284F88",
",%	c #395A8B",
"'%	c #545C74",
")%	c #B49722",
"!%	c #EFC200",
"~%	c #EFC100",
"{%	c #F0C308",
"]%	c #E6BD12",
"^%	c #C7A200",
"/%	c #414141",
"(%	c #C09E08",
"_%	c #E9BD09",
":%	c #EFC004",
"<%	c #EFBF00",
"[%	c #EFBE00",
"}%	c #E4B606",
"|%	c #796E50",
"1%	c #576E92",
"2%	c #3B639A",
"3%	c #2F5D98",
"4%	c #3E71AB",
"5%	c #3F71A9",
"6%	c #3F6FA6",
"7%	c #3E6CA2",
"8%	c #3D689C",
"9%	c #3C6496",
"0%	c #3B5F8F",
"a%	c #3C5D8A",
"b%	c #475F89",
"c%	c #5F5C63",
"d%	c #B79422",
"e%	c #EFBC00",
"f%	c #EFBB00",
"g%	c #EFBD07",
"h%	c #E1B50A",
"i%	c #C7A100",
"j%	c #616161",
"k%	c #787877",
"l%	c #C39F02",
"m%	c #ECB802",
"n%	c #F0B900",
"o%	c #F0B800",
"p%	c #BE971F",
"q%	c #565F73",
"r%	c #53719D",
"s%	c #4E75A5",
"t%	c #476FA0",
"u%	c #41699B",
"v%	c #3E6293",
"w%	c #436491",
"x%	c #47658F",
"y%	c #4A6189",
"z%	c #595B6F",
"A%	c #88713F",
"B%	c #EAB203",
"C%	c #F0B600",
"D%	c #F0B500",
"E%	c #F0B603",
"F%	c #DEAD03",
"G%	c #8A8674",
"H%	c #F0B400",
"I%	c #EBB103",
"J%	c #9B7D34",
"K%	c #726552",
"L%	c #676262",
"M%	c #606171",
"N%	c #59627D",
"O%	c #5D5F73",
"P%	c #645F63",
"Q%	c #6E6153",
"R%	c #88703E",
"S%	c #D5A30F",
"T%	c #D5A800",
"U%	c #565656",
"V%	c #A89339",
"W%	c #CDA405",
"X%	c #EDB202",
"Y%	c #D5A210",
"Z%	c #E9AF04",
"`%	c #E6B000",
" &	c #73642C",
".&	c #C29E03",
"+&	c #C29D03",
"@&	c #C29D02",
"#&	c #C8A200",
"$&	c #C8A100",
"%&	c #C6A100",
"                                                                                                ",
"                                                                                                ",
"                                                                                                ",
"                                                                                                ",
"                                                                                                ",
"                                                                                                ",
"      . + + @ @ + + @ @ @ # # @ @ @ @ $ .                                                       ",
"      % & * = - ; > , ' ' ) ! ! ~ ~ { > ]                                                       ",
"      ^ / ( _ : < [ } | 1 2 % ^ ^ 3 4 5 ^                                                       ",
"      6 ; ^ 4 7 6 8 + # 9 9 0 a b c d d ^ e                                                     ",
"      # f : < } 5 2 % 3 4 7 g 6 8 h + + 7 i                                                     ",
"      b ' 8 @ j 9 a c k l m n o ] p p q o o r s s s t t t t t u u u u u u                       ",
"      $ v [ 5 2 % 4 w g 8 + @ j 9 9 0 a a a j | x y z z A B C { ! ) ' D C E                     ",
"      q ! j b c k $ o ] q F G H . . I J J J J J J I I . . G K q ] o $ l a L                     ",
"      . > 2 3 7 8 + # 9 0 b c k l m $ n n n n n n $ $ m k d c a 9 j @ h 7 M                     ",
"      e B 9 d m o p q K H I N N O e P P Q Q Q Q Q P P e R N N I H K q ] m M                     ",
"      i ! 3 h S T U U U V V V V V V V V V V V V V V V V V V V V V U U U U W X X X X X X Y       ",
"      L y 0 $ Z `  .............+.+.+.+.@.@.@.@.#.#.#.$.$.%.%.%.%.&.&.&.&.*.*.*.*.*.*.=.-.      ",
"      ;.>.6 b ,.'.).!.!.!.!.~.~.~.~.~.~.~.~.{.{.{.{.{.].].].].^.^.^.^././.(.(.(.(._._.:.<.      ",
"      [.}.a p |.1.2.3.3.3.3.3.3.3.3.3.3.3.4.5.6.7.8.9.0.a.b.5.4.3.3.3.3.3.3.3.3.3.3.c.d.e.      ",
"      f.}.@ m g.h.i.3.3.3.3.3.3.3.3.3.3.j.k.l.m.n.o.p.q.r.s.t.u.v.3.3.3.3.3.3.3.3.w.x.y.z.      ",
"      A.: c K B.C.D.3.3.3.3.3.3.3.3.E.F.G.H.I.J.K.L.M.N.O.P.Q.R.S.T.U.3.3.3.3.3.3.V.c.W.X.      ",
"      Y.Z.0 q `. +.+3.3.3.3.3.3.3.++@+#+$+%+&+*+=+-+;+>+,+'+)+!+~+{+]+3.3.3.3.3.^+/+(+_+Y       ",
"      :+1 d H <+[+}+3.3.3.3.3.3.|+1+2+3+4+5+6+7+8+9+0+a+b+c+d+e+f+g+h+i+3.3.3.j+/+/+k+l+m+      ",
"      n+3 d . o+p+q+3.3.3.3.3.3.r+s+t+u+v+w+x+y+7+z+A+;+B+C+D+E+F+G+H+I+J+3.K+/+/+/+L+M+N+      ",
"      O+g d J P+Q+R+3.3.3.3.3.S+T+U+V+W+X+Y+7+7+7+Z+`+ @.@+@@@e+#@G+$@%@&@*@/+/+/+/+=@-@m+      ",
"      ;@# m O V >@,@3.3.3.3.3.'@)@!@p.~@7+7+7+7+7+{@]@^@/@(@_@:@<@[@$@}@|@/+/+/+/+/+1@2@3@      ",
"      4@0 d 5@z.6@!.3.3.3.3.3.7@8@9@0@a@z+7+7+7+b@c@d@e@f@g@h@i@j@k@l@m@n@o@/+/+/+/+p@q@r@      ",
"      s@l n t@u@v@w@3.3.3.3.x@y@z@A@B@C@D@E@F@E@D@C@G@H@I@h@J@#@K@L@M@N@O@P@/+/+/+/+Q@R@        ",
"      S@T@l U@V@W@3.3.3.3.3.X@Y@Z@`@ #.#+#@#0+##$#%#&#*#=#-#;#f+>#,#'#)#!#~#/+/+/+/+{#]#        ",
"      ^#F q /#(#_#3.3.3.3.3.:#<#[#}#|#1#2#3#4#5#6#7#8#9#0#a#b#c#d#e#l@f#g#h#/+/+/+/+Q@i#        ",
"      j#G m k#l#m#3.3.3.n#K+o#p#q#[#r#9#I@s#t#u#v#w#x#y#z#A#k@B#$@C#D#E#F#G#/+/+/+/+H#I#        ",
"      J#R G K#L#M#3.N#O#P#/+/+Q#R#S#T#U#h@V#W#X#Y#Z#`# $.$+$@$$@#$$$%$&$*$/+/+/+/+=$-$;$        ",
"      >$O m ,$'$^.)$/+/+/+/+/+!$~${$]$a#E+i@J@-#^$/$($_$:$<$[$#$}$|$1$2$3$/+/+/+/+V.4$z.        ",
"      5$s H 6$7$8$9$9$9$0$0$0$a$b$c$d$e$F+b#b#f$g$h$:$i$j$k$l$$$m$n$o$p$q$r$r$r$r$s$t$u$        ",
"      v$s m w$x$y$z$z$A$A$A$A$A$B$C$<$D$>#E$F$G$H$I$J$K$L$M$N$O$P$Q$R$S$T$T$T$T$U$V$W$3@        ",
"      X$M J Y$Z$`$ % % % % % % % %.%+%@%$@$@#%$%k$%%&%*%=%-%;%>%,%'%)%!%!%!%~%~%~%{%]%^%        ",
"      /%;.m (%_%:%<%<%<%<%<%<%[%[%}%|%1%2%3%4%M$5%6%7%8%9%0%a%b%c%d%e%e%e%f%f%f%f%g%h%i%        ",
"        j%k%l%m%n%n%n%n%n%n%o%o%o%o%o%p%q%r%s%t%u%9%v%w%x%y%z%A%B%C%C%D%D%D%D%D%D%E%F%r@        ",
"        [.G%U H%H%H%H%H%H%H%H%H%H%H%H%H%I%J%K%L%M%N%O%P%Q%R%S%H%H%H%H%H%H%H%H%H%H%H%T%X.        ",
"        U%V%W%H%H%H%H%H%H%H%H%H%H%H%H%H%H%H%H%H%X%Y%Z%H%H%H%H%H%H%H%H%H%H%H%H%H%H%`%X.          ",
"         &z.l%.&.&.&.&.&.&.&.&.&.&.&.&.&.&+&+&@&@&@&@&@&+&+&+&.&.&.&.&.&.&.&U #&$&%&            ",
"                                                                                                ",
"                                                                                                ",
"                                                                                                ",
"                                                                                                ",
"                                                                                                ",
"                                                                                                "};
