/* XPM */
static const char * folder_conn_new_xpm[] = {
"16 16 139 2",
"  	c None",
". 	c #A4A4A4",
"+ 	c #A8A8A8",
"@ 	c #A6A6A6",
"# 	c #A3A3A3",
"$ 	c #A1A1A1",
"% 	c #9C9C9C",
"& 	c #D67421",
"* 	c #D4701D",
"= 	c #A2A2A2",
"- 	c #989898",
"; 	c #929292",
"> 	c #8D8D8D",
", 	c #898989",
"' 	c #8C8C8C",
") 	c #7B7B7B",
"! 	c #B77236",
"~ 	c #DB8D42",
"{ 	c #E7AD6A",
"] 	c #E2A057",
"^ 	c #DA802E",
"/ 	c #939393",
"( 	c #878787",
"_ 	c #838383",
": 	c #808080",
"< 	c #818181",
"[ 	c #93887F",
"} 	c #C27634",
"| 	c #E5A856",
"1 	c #EAB667",
"2 	c #DF9441",
"3 	c #D36D13",
"4 	c #978F69",
"5 	c #C6B349",
"6 	c #C5B44B",
"7 	c #C3B249",
"8 	c #C2B148",
"9 	c #C1B148",
"0 	c #C3A139",
"a 	c #CF7919",
"b 	c #DF9B3A",
"c 	c #E2A442",
"d 	c #DC912F",
"e 	c #D57D12",
"f 	c #A69746",
"g 	c #F1DE3B",
"h 	c #EFD91B",
"i 	c #EFD91C",
"j 	c #C6902E",
"k 	c #D7801B",
"l 	c #DA8E25",
"m 	c #D88A22",
"n 	c #D67A12",
"o 	c #E6C22B",
"p 	c #848484",
"q 	c #AB9B40",
"r 	c #F0DD33",
"s 	c #EFD817",
"t 	c #EED717",
"u 	c #979F85",
"v 	c #AD9E99",
"w 	c #A59693",
"x 	c #C77B38",
"y 	c #B1784A",
"z 	c #8D7157",
"A 	c #CDAB2D",
"B 	c #7E7E7E",
"C 	c #B2A240",
"D 	c #F0DB2B",
"E 	c #A6A564",
"F 	c #5B7FAE",
"G 	c #93B0D5",
"H 	c #D3E9FF",
"I 	c #B1B8C4",
"J 	c #5B7CA7",
"K 	c #355F99",
"L 	c #5C7482",
"M 	c #787878",
"N 	c #B9A73E",
"O 	c #F0DA21",
"P 	c #7F9395",
"Q 	c #8CABD1",
"R 	c #8EADD4",
"S 	c #527AAD",
"T 	c #406BA3",
"U 	c #386095",
"V 	c #6F6F6F",
"W 	c #BFAC37",
"X 	c #EED60E",
"Y 	c #EED509",
"Z 	c #EDD505",
"` 	c #7D939F",
" .	c #88AAD2",
"..	c #ABC8E7",
"+.	c #B1CEEC",
"@.	c #6388B8",
"#.	c #3A639C",
"$.	c #325D97",
"%.	c #3C659B",
"&.	c #6C6C6C",
"*.	c #C2AC29",
"=.	c #EDD201",
"-.	c #EDD100",
";.	c #EDD000",
">.	c #8E9A7F",
",.	c #5981B3",
"'.	c #4871A5",
").	c #7BA0CB",
"!.	c #78A0CD",
"~.	c #4E7BB0",
"{.	c #2A5793",
"].	c #476285",
"^.	c #6A6A69",
"/.	c #C7A519",
"(.	c #EFBF00",
"_.	c #EFBE00",
":.	c #B29937",
"<.	c #5981B2",
"[.	c #345F98",
"}.	c #5682B5",
"|.	c #5887BB",
"1.	c #3D6FA8",
"2.	c #2D558E",
"3.	c #6E6A58",
"4.	c #837540",
"5.	c #CDA20A",
"6.	c #D8A707",
"7.	c #D7A606",
"8.	c #D7A506",
"9.	c #D6A505",
"0.	c #D5A404",
"a.	c #89804F",
"b.	c #3F6597",
"c.	c #4072AB",
"d.	c #3E6AA0",
"e.	c #41628F",
"f.	c #64675F",
"g.	c #4E5874",
"h.	c #4C5470",
"                                ",
"                                ",
"  . + @ # $ %         & *       ",
"  = - ; > , ' )   ! ~ { ] ^     ",
"  % / > ( _ : < [ } | 1 1 2 3   ",
"  ; 4 5 6 7 8 9 0 a b c c d e   ",
"  ' f g h h i i i j k l m n o   ",
"  p q r s s s t u v w x y z A   ",
"  B C D s s s E F G H I J K L   ",
"  M N O s s s P Q H H R S T U   ",
"  V W s X Y Z `  ...+.@.#.$.%.  ",
"  &.*.=.-.-.;.>.,.'.).!.~.{.].  ",
"  ^./.(.(._._.:.<.[.}.|.1.2.3.  ",
"  4.5.6.7.8.9.0.a.b.c.d.e.f.    ",
"                    g.h.        ",
"                                "};
