/* XPM */
static const char * folder_conn_16_xpm[] = {
"16 16 136 2",
"  	c None",
". 	c #A1A1A1",
"+ 	c #A6A6A6",
"@ 	c #A4A4A4",
"# 	c #A0A0A0",
"$ 	c #959595",
"% 	c #ACACAC",
"& 	c #9F9F9F",
"* 	c #999999",
"= 	c #919191",
"- 	c #969696",
"; 	c #929292",
"> 	c #8B8B8B",
", 	c #878787",
"' 	c #838383",
") 	c #7E7E7E",
"! 	c #898989",
"~ 	c #8A8A8A",
"{ 	c #8D8D8D",
"] 	c #8F8F8F",
"^ 	c #938F7E",
"/ 	c #9F9257",
"( 	c #9A8F53",
"_ 	c #988C50",
": 	c #968A4F",
"< 	c #958A4E",
"[ 	c #9B8F54",
"} 	c #9F9358",
"| 	c #9E8F46",
"1 	c #AE9C41",
"2 	c #F0DF4D",
"3 	c #EFDC3C",
"4 	c #EFDC3B",
"5 	c #EEDC3A",
"6 	c #EEDB3A",
"7 	c #EEDB39",
"8 	c #E8D23E",
"9 	c #B3A241",
"0 	c #F0DB2E",
"a 	c #EFD817",
"b 	c #DECB23",
"c 	c #A4A877",
"d 	c #819392",
"e 	c #95A186",
"f 	c #AAA85A",
"g 	c #EAD413",
"h 	c #E3CB2C",
"i 	c #828282",
"j 	c #BBA842",
"k 	c #F0DB26",
"l 	c #CABD3D",
"m 	c #92A7B8",
"n 	c #A7C2E2",
"o 	c #8CACD2",
"p 	c #98B8DE",
"q 	c #5F87B7",
"r 	c #5F7988",
"s 	c #D5C035",
"t 	c #7A7A7A",
"u 	c #C1AF42",
"v 	c #EFD91C",
"w 	c #EBD519",
"x 	c #7990A2",
"y 	c #6183B2",
"z 	c #B7D0EC",
"A 	c #D2E8FE",
"B 	c #8DB0D5",
"C 	c #4D75A9",
"D 	c #355F98",
"E 	c #65777B",
"F 	c #757575",
"G 	c #C5B13A",
"H 	c #EFD815",
"I 	c #EED711",
"J 	c #C1B431",
"K 	c #6F91BC",
"L 	c #B2CDEA",
"M 	c #D3E9FF",
"N 	c #CAE2FA",
"O 	c #7295C1",
"P 	c #5179AC",
"Q 	c #3B679F",
"R 	c #40628E",
"S 	c #6D6D6D",
"T 	c #C7B12A",
"U 	c #EED508",
"V 	c #EDD400",
"W 	c #AEA946",
"X 	c #779BC5",
"Y 	c #97B7DA",
"Z 	c #B6D2EF",
"` 	c #ADCBEA",
" .	c #4870A4",
"..	c #38629A",
"+.	c #325F99",
"@.	c #3C6194",
"#.	c #6C6C6C",
"$.	c #CCAE19",
"%.	c #EEC600",
"&.	c #EEC500",
"*.	c #C6AA1F",
"=.	c #7CA0CC",
"-.	c #426BA1",
";.	c #5C82B3",
">.	c #85AAD3",
",.	c #729AC8",
"'.	c #416DA5",
").	c #2A5793",
"!.	c #4F617D",
"~.	c #7A7258",
"{.	c #DAA909",
"].	c #F0B400",
"^.	c #EFB301",
"/.	c #7F8781",
"(.	c #4470A6",
"_.	c #366099",
":.	c #638FC0",
"<.	c #5787BB",
"[.	c #3667A1",
"}.	c #2F578E",
"|.	c #6A6655",
"1.	c #917C29",
"2.	c #A98C1B",
"3.	c #A98A1A",
"4.	c #A88917",
"5.	c #A58817",
"6.	c #A58715",
"7.	c #8E7A2C",
"8.	c #4B6A8D",
"9.	c #3A6AA3",
"0.	c #4074AE",
"a.	c #3E6CA2",
"b.	c #3B5E8F",
"c.	c #515B6B",
"d.	c #455783",
"e.	c #43547E",
"                                ",
"  . + @ . # $                   ",
"  % & * $ = -                   ",
"  # ; > , ' ' ) ! ~ { ] '       ",
"  * ^ / ( _ : < : _ [ } |       ",
"  ] 1 2 3 3 4 4 4 5 5 5 6 7 8   ",
"  , 9 0 a a a a b c d e f g h   ",
"  i j k a a a l m n o p q r s   ",
"  t u v a a w x y z A B C D E   ",
"  F G a H I J K L M N O P Q R   ",
"  S T U V V W X Y Z `  ...+.@.  ",
"  #.$.%.%.&.*.=.-.;.>.,.'.).!.  ",
"  ~.{.].].].^./.(._.:.<.[.}.|.  ",
"  1.2.3.4.5.6.7.8.9.0.a.b.c.    ",
"                    d.e.        ",
"                                "};
