/* XPM */
static const char *folder_arch_16_xpm[] = {
/* width height num_colors chars_per_pixel */
"    16    16      256            2",
/* colors */
"`` c None",
"`. c #afafaf",
"`# c #adadad",
"`a c #ababab",
"`b c #a7a7a7",
"`c c #a6a6a6",
"`d c #a5a5a5",
"`e c #aaaaaa",
"`f c #969696",
"`g c #919191",
"`h c #8d8d8d",
"`i c #898989",
"`j c #8b8b8b",
"`k c #c6c6c6",
"`l c #c7c7c7",
"`m c #e5e5e5",
"`n c #939393",
"`o c #8c8c8c",
"`p c #878787",
"`q c #848484",
"`r c #818181",
"`s c #838383",
"`t c #8e8e8e",
"`u c #929292",
"`v c #9b9b9b",
"`w c #9c9c9c",
"`x c #738192",
"`y c #7692b2",
"`z c #7690b1",
"`A c #758fb0",
"`B c #748faf",
"`C c #748eaf",
"`D c #7690b0",
"`E c #7792b3",
"`F c #809abb",
"`G c #9cb6d7",
"`H c #95b1d3",
"`I c #989898",
"`J c #6b829f",
"`K c #93b5da",
"`L c #82aad4",
"`M c #87aad2",
"`N c #6c86a4",
"`O c #8bb0d8",
"`P c #7fa8d3",
"`Q c #78a3d1",
"`R c #86a8cf",
"`S c #8f8f8f",
"`T c #728baa",
"`U c #86add6",
"`V c #729fcf",
"`W c #8babd2",
"`X c #748eb0",
"`Y c #81a9d4",
"`Z c #7ea7d3",
"`0 c #7ba5d2",
"`1 c #74a1d0",
"`2 c #8eadd2",
"`3 c #8a8a8a",
"`4 c #6e8db1",
"`5 c #7aa4d2",
"`6 c #77a2d1",
"`7 c #75a1d0",
"`8 c #73a0cf",
".` c #8faed1",
".. c #6688b2",
".# c #729ecf",
".a c #719ecf",
".b c #709ecf",
".c c #709ece",
".d c #709dce",
".e c #6f9dce",
".f c #8eacd1",
".g c #5882b2",
".h c #6798cc",
".i c #6698cc",
".j c #6697cc",
".k c #6597cc",
".l c #8cabd0",
".m c #708096",
".n c #4f7db4",
".o c #5584ba",
".p c #5583ba",
".q c #5483b9",
".r c #5383b8",
".s c #5282b8",
".t c #5281b8",
".u c #618ec2",
".v c #c2d2e6",
".w c #dce1e7",
".x c #e2e7ec",
".y c #000000",
".z c #000000",
".A c #000000",
".B c #000000",
".C c #000000",
".D c #000000",
".E c #000000",
".F c #000000",
".G c #000000",
".H c #000000",
".I c #000000",
".J c #000000",
".K c #000000",
".L c #000000",
".M c #000000",
".N c #000000",
".O c #000000",
".P c #000000",
".Q c #000000",
".R c #000000",
".S c #000000",
".T c #000000",
".U c #000000",
".V c #000000",
".W c #000000",
".X c #000000",
".Y c #000000",
".Z c #000000",
".0 c #000000",
".1 c #000000",
".2 c #000000",
".3 c #000000",
".4 c #000000",
".5 c #000000",
".6 c #000000",
".7 c #000000",
".8 c #000000",
"#` c #000000",
"#. c #000000",
"## c #000000",
"#a c #000000",
"#b c #000000",
"#c c #000000",
"#d c #000000",
"#e c #000000",
"#f c #000000",
"#g c #000000",
"#h c #000000",
"#i c #000000",
"#j c #000000",
"#k c #000000",
"#l c #000000",
"#m c #000000",
"#n c #000000",
"#o c #000000",
"#p c #000000",
"#q c #000000",
"#r c #000000",
"#s c #000000",
"#t c #000000",
"#u c #000000",
"#v c #000000",
"#w c #000000",
"#x c #000000",
"#y c #000000",
"#z c #000000",
"#A c #000000",
"#B c #000000",
"#C c #000000",
"#D c #000000",
"#E c #000000",
"#F c #000000",
"#G c #000000",
"#H c #000000",
"#I c #000000",
"#J c #000000",
"#K c #000000",
"#L c #000000",
"#M c #000000",
"#N c #000000",
"#O c #000000",
"#P c #000000",
"#Q c #000000",
"#R c #000000",
"#S c #000000",
"#T c #000000",
"#U c #000000",
"#V c #000000",
"#W c #000000",
"#X c #000000",
"#Y c #000000",
"#Z c #000000",
"#0 c #000000",
"#1 c #000000",
"#2 c #000000",
"#3 c #000000",
"#4 c #000000",
"#5 c #000000",
"#6 c #000000",
"#7 c #000000",
"#8 c #000000",
"a` c #000000",
"a. c #000000",
"a# c #000000",
"aa c #000000",
"ab c #000000",
"ac c #000000",
"ad c #000000",
"ae c #000000",
"af c #000000",
"ag c #000000",
"ah c #000000",
"ai c #000000",
"aj c #000000",
"ak c #000000",
"al c #000000",
"am c #000000",
"an c #000000",
"ao c #000000",
"ap c #000000",
"aq c #000000",
"ar c #000000",
"as c #000000",
"at c #000000",
"au c #000000",
"av c #000000",
"aw c #000000",
"ax c #000000",
"ay c #000000",
"az c #000000",
"aA c #000000",
"aB c #000000",
"aC c #000000",
"aD c #000000",
"aE c #000000",
"aF c #000000",
"aG c #000000",
"aH c #000000",
"aI c #000000",
"aJ c #000000",
"aK c #000000",
"aL c #000000",
"aM c #000000",
"aN c #000000",
"aO c #000000",
"aP c #000000",
"aQ c #000000",
"aR c #000000",
"aS c #000000",
"aT c #000000",
"aU c #000000",
"aV c #000000",
"aW c #000000",
"aX c #000000",
"aY c #000000",
"aZ c #000000",
"a0 c #000000",
"a1 c #000000",
"a2 c #000000",
"a3 c #000000",
"a4 c #000000",
"a5 c #000000",
"a6 c #000000",
"a7 c #000000",
"a8 c #000000",
/* pixels */
"````````````````````````````````",
"````````````````````````````````",
"```.`#`a`b`c`d``````````````````",
"```e`f`g`h`i`j`a`k`k`l`l`m``````",
"```d`n`o`p`q`r`s`t`u`f`v`b``````",
"```w`x`y`z`A`B`C`B`A`D`E`F`G`H``",
"```I`J`K`L`L`L`L`L`L`L`L`L`L`M``",
"```n`N`O`P`P`P`P`P`P`P`P`P`Q`R``",
"```S`T`U`P`P`P`P`P`P`P`P`Q`V`W``",
"```h`X`Y`P`P`P`P`Z`0`Q`1`V`V`2``",
"```3`4`Z`5`6`7`8`V`V`V`V`V`V.```",
"```i...#.a.a.b.b.c.d.e.e.e.c.f``",
"```i.g.h.h.h.i.j.j.j.j.k.k.i.l``",
"``.m.n.o.p.q.r.s.t.s.r.q.p.u.v``",
"````.w.w.w.w.w.w.w.w.w.w.x``````",
"````````````````````````````````"
};
