/* XPM */
static const char * folder_prj_16_xpm[] = {
"16 16 122 2",
"  	c None",
". 	c #A7A7A7",
"+ 	c #A5A5A5",
"@ 	c #A3A3A3",
"# 	c #A2A2A2",
"$ 	c #989898",
"% 	c #A6A6A6",
"& 	c #979797",
"* 	c #919191",
"= 	c #8D8D8D",
"- 	c #898989",
"; 	c #8B8B8B",
"> 	c #787878",
", 	c #9F9F9F",
"' 	c #939393",
") 	c #8C8C8C",
"! 	c #878787",
"~ 	c #848484",
"{ 	c #818181",
"] 	c #838383",
"^ 	c #8E8E8E",
"/ 	c #929292",
"( 	c #959595",
"_ 	c #9B9B9B",
": 	c #949494",
"< 	c #9B9160",
"[ 	c #C3B149",
"} 	c #C2B049",
"| 	c #C1AF47",
"1 	c #C0AF46",
"2 	c #C2B048",
"3 	c #C3B24A",
"4 	c #C8B544",
"5 	c #E0C635",
"6 	c #D9BD28",
"7 	c #AD9E45",
"8 	c #F1DE3A",
"9 	c #F0D91D",
"0 	c #E6D031",
"a 	c #B2A242",
"b 	c #F0DB2E",
"c 	c #EFD817",
"d 	c #EED60B",
"e 	c #E4CB2D",
"f 	c #7E7E7E",
"g 	c #B9A743",
"h 	c #F0DB26",
"i 	c #C8C385",
"j 	c #D3D1C0",
"k 	c #9B9991",
"l 	c #C1BFB0",
"m 	c #BFBEAE",
"n 	c #D9D7C2",
"o 	c #CAC9BB",
"p 	c #7A7A7A",
"q 	c #C1AF42",
"r 	c #EFD91C",
"s 	c #D0CB9B",
"t 	c #F9F9F8",
"u 	c #ABABAA",
"v 	c #121212",
"w 	c #B1B1B0",
"x 	c #ECECEB",
"y 	c #ACACA6",
"z 	c #727272",
"A 	c #C4B138",
"B 	c #EFD816",
"C 	c #EED60E",
"D 	c #EED609",
"E 	c #EDD506",
"F 	c #EDD402",
"G 	c #CFCA96",
"H 	c #636363",
"I 	c #AFAFAE",
"J 	c #616161",
"K 	c #2D2D2D",
"L 	c #B7B6AF",
"M 	c #6C6C6C",
"N 	c #C8B026",
"O 	c #EDD201",
"P 	c #EDD200",
"Q 	c #EDD100",
"R 	c #EDD000",
"S 	c #C6C191",
"T 	c #434343",
"U 	c #676767",
"V 	c #F1F1F0",
"W 	c #AAAAAA",
"X 	c #4E4E4E",
"Y 	c #A0A09B",
"Z 	c #686868",
"` 	c #CCA914",
" .	c #EFBF00",
"..	c #EFBE00",
"+.	c #BEB48C",
"@.	c #555555",
"#.	c #4D4D4D",
"$.	c #757575",
"%.	c #3E3E3E",
"&.	c #E1E1E1",
"*.	c #D7D6CD",
"=.	c #8D7C39",
"-.	c #D2A507",
";.	c #DBA905",
">.	c #DAA805",
",.	c #D9A804",
"'.	c #D9A704",
").	c #D8A703",
"!.	c #C6BC94",
"~.	c #DEDEDD",
"{.	c #EAEAEA",
"].	c #323232",
"^.	c #363636",
"/.	c #BFBFBE",
"(.	c #D5D5CF",
"_.	c #AEAEA5",
":.	c #CECECA",
"<.	c #C9C9C6",
"[.	c #ABABA8",
"}.	c #C0C0BC",
"|.	c #A7A7A5",
"1.	c #C1C3BF",
"                                ",
"                                ",
"  . . + @ # $                   ",
"  % & * = - ; >                 ",
"  , ' ) ! ~ { ] ^ / ( _ ~       ",
"  : < [ } | 1 1 1 | 2 3 4 5 6   ",
"  = 7 8 9 9 9 9 9 9 9 9 9 9 0   ",
"  ~ a b c c c c c c c c c d e   ",
"  f g h c c c c i j k l m n o   ",
"  p q r c c c c s t u v w x y   ",
"  z A B C D E F G t H I J K L   ",
"  M N O P Q Q R S T U V W X Y   ",
"  Z `  . . .....+.@.#.$.%.&.*.  ",
"  =.-.;.>.,.'.).!.~.{.].^./.(.  ",
"                _.:.<.[.}.|.1.  ",
"                                "};
