/* XPM */
static const char *folder_arch_48_xpm[] = {
/* width height num_colors chars_per_pixel */
"    48    48      256            2",
/* colors */
"`` c #3466a4",
"`. c #4c7ab4",
"`# c #94b6dc",
"`a c #848284",
"`b c #c4c2c4",
"`c c None",
"`d c #6496cc",
"`e c #5c5e5c",
"`f c #9c9e9c",
"`g c #747e84",
"`h c #acb6c4",
"`i c #3c6ea4",
"`j c #ccdaec",
"`k c #a4a2a4",
"`l c #5c8abc",
"`m c #5c6e84",
"`n c #74a2cc",
"`o c #84a6cc",
"`p c #acc6e4",
"`q c #94aecc",
"`r c #545e6c",
"`s c #e4e2e4",
"`t c #6c6e6c",
"`u c #7496c4",
"`v c #4c6e9c",
"`w c #84aed4",
"`x c #5482b4",
"`y c #9cbedc",
"`z c #949294",
"`A c #cccecc",
"`B c #6492c4",
"`C c #446a9c",
"`D c #acbedc",
"`E c #6c9ecc",
"`F c #646664",
"`G c #7c8284",
"`H c #dcdadc",
"`I c #648abc",
"`J c #7caad4",
"`K c #bccae4",
"`L c #747674",
"`M c #8caed4",
"`N c #3c66a4",
"`O c #8c8a8c",
"`P c #6c96c4",
"`Q c #7c7a7c",
"`R c #bcbabc",
"`S c #4476ac",
"`T c #b4b2b4",
"`U c #5c7694",
"`V c #7ca2d4",
"`W c #b4cee4",
"`X c #eceaec",
"`Y c #747274",
"`Z c #4c76ac",
"`0 c #5c82b4",
"`1 c #a4bedc",
"`2 c #ccd6e4",
"`3 c #8cb2d4",
"`4 c #547eb4",
"`5 c #9cbadc",
"`6 c #cccacc",
"`7 c #4472ac",
"`8 c #acaaac",
".` c #8ca6cc",
".. c #b4cae4",
".# c #9cb2d4",
".a c #4c668c",
".b c #6c727c",
".c c #749ecc",
".d c #546e8c",
".e c #9c9a9c",
".f c #6c6a6c",
".g c #dce2ec",
".h c #648ebc",
".i c #3c6aa4",
".j c #a4c2dc",
".k c #4c7eb4",
".l c #94badc",
".m c #848684",
".n c #c4c6c4",
".o c #649acc",
".p c #646264",
".q c #747e8c",
".r c #b4b6b4",
".s c #3c6eac",
".t c #d4deec",
".u c #a4a6a4",
".v c #5c8ec4",
".w c #5c728c",
".x c #74a2d4",
".y c #84aad4",
".z c #accae4",
".A c #94aed4",
".B c #e4e6e4",
".C c #6c6e74",
".D c #5486bc",
".E c #949694",
".F c #d4d2d4",
".G c #6492cc",
".H c #446aa4",
".I c #acc2e4",
".J c #5c6a7c",
".K c #dcdedc",
".L c #8caedc",
".M c #8c8e8c",
".N c #6c9acc",
".O c #7c7e7c",
".P c #bcbebc",
".Q c #64768c",
".R c #7ca6d4",
".S c #eceef4",
".T c #5c86bc",
".U c #d4d6d4",
".V c #8cb2dc",
".W c #546684",
".X c #7c9ecc",
".Y c #546e94",
".Z c #648ec4",
".0 c #3c6aac",
".1 c #a4c2e4",
".2 c #000000",
".3 c #000000",
".4 c #000000",
".5 c #000000",
".6 c #000000",
".7 c #000000",
".8 c #000000",
"#` c #000000",
"#. c #000000",
"## c #000000",
"#a c #000000",
"#b c #000000",
"#c c #000000",
"#d c #000000",
"#e c #000000",
"#f c #000000",
"#g c #000000",
"#h c #000000",
"#i c #000000",
"#j c #000000",
"#k c #000000",
"#l c #000000",
"#m c #000000",
"#n c #000000",
"#o c #000000",
"#p c #000000",
"#q c #000000",
"#r c #000000",
"#s c #000000",
"#t c #000000",
"#u c #000000",
"#v c #000000",
"#w c #000000",
"#x c #000000",
"#y c #000000",
"#z c #000000",
"#A c #000000",
"#B c #000000",
"#C c #000000",
"#D c #000000",
"#E c #000000",
"#F c #000000",
"#G c #000000",
"#H c #000000",
"#I c #000000",
"#J c #000000",
"#K c #000000",
"#L c #000000",
"#M c #000000",
"#N c #000000",
"#O c #000000",
"#P c #000000",
"#Q c #000000",
"#R c #000000",
"#S c #000000",
"#T c #000000",
"#U c #000000",
"#V c #000000",
"#W c #000000",
"#X c #000000",
"#Y c #000000",
"#Z c #000000",
"#0 c #000000",
"#1 c #000000",
"#2 c #000000",
"#3 c #000000",
"#4 c #000000",
"#5 c #000000",
"#6 c #000000",
"#7 c #000000",
"#8 c #000000",
"a` c #000000",
"a. c #000000",
"a# c #000000",
"aa c #000000",
"ab c #000000",
"ac c #000000",
"ad c #000000",
"ae c #000000",
"af c #000000",
"ag c #000000",
"ah c #000000",
"ai c #000000",
"aj c #000000",
"ak c #000000",
"al c #000000",
"am c #000000",
"an c #000000",
"ao c #000000",
"ap c #000000",
"aq c #000000",
"ar c #000000",
"as c #000000",
"at c #000000",
"au c #000000",
"av c #000000",
"aw c #000000",
"ax c #000000",
"ay c #000000",
"az c #000000",
"aA c #000000",
"aB c #000000",
"aC c #000000",
"aD c #000000",
"aE c #000000",
"aF c #000000",
"aG c #000000",
"aH c #000000",
"aI c #000000",
"aJ c #000000",
"aK c #000000",
"aL c #000000",
"aM c #000000",
"aN c #000000",
"aO c #000000",
"aP c #000000",
"aQ c #000000",
"aR c #000000",
"aS c #000000",
"aT c #000000",
"aU c #000000",
"aV c #000000",
"aW c #000000",
"aX c #000000",
"aY c #000000",
"aZ c #000000",
"a0 c #000000",
"a1 c #000000",
"a2 c #000000",
"a3 c #000000",
"a4 c #000000",
"a5 c #000000",
"a6 c #000000",
"a7 c #000000",
"a8 c #000000",
/* pixels */
"`c`c`c`c`c`c`c`c`c`c`c`c`c`c`c`c`c`c`c`c`c`c`c`c`c`c`c`c`c`c`c`c`c`c`c`c`c`c`c`c`c`c`c`c`c`c`c`c",
"`c`c`c`c`c`c`c`c`c`c`c`c`c`c`c`c`c`c`c`c`c`c`c`c`c`c`c`c`c`c`c`c`c`c`c`c`c`c`c`c`c`c`c`c`c`c`c`c",
"`c`c`c`c`c`c`c`c`c`c`c`c`c`c`c`c`c`c`c`c`c`c`c`c`c`c`c`c`c`c`c`c`c`c`c`c`c`c`c`c`c`c`c`c`c`c`c`c",
"`c`c`c`c`c`c`c`c`c`c`c`c`c`c`c`c`c`c`c`c`c`c`c`c`c`c`c`c`c`c`c`c`c`c`c`c`c`c`c`c`c`c`c`c`c`c`c`c",
"`c`c`c`c`c`c`c`c`c`c`c`c`c`c`c`c`c`c`c`c`c`c`c`c`c`c`c`c`c`c`c`c`c`c`c`c`c`c`c`c`c`c`c`c`c`c`c`c",
"`c`c`c`c`s`H`s`H`s`H`s`H`s`H`s`H`s`H`s`s`c`c`c`c`c`c`c`c`c`c`c`c`c`c`c`c`c`c`c`c`c`c`c`c`c`c`c`c",
"`c`c`c`a.M`z`O.M`z.M.M`z.M.M`z.M`z`z.M`O`z`c`c`c`c`c`c`c`c`c`c`c`c`c`c`c`c`c`c`c`c`c`c`c`c`c`c`c",
"`c`c.F.e.F.n`b`b`b.P`b`R.P`R`R`R`R.r`R.P`O.U`c`c`c`c`c`c`c`c`c`c`c`c`c`c`c`c`c`c`c`c`c`c`c`c`c`c",
"`c`c.F.E`6`8`8.u.u`k`k`f`f`f.e.e.e.E.e`f.e.r`c`c`c`c`c`c`c`c`c`c`c`c`c`c`c`c`c`c`c`c`c`c`c`c`c`c",
"`c`c.U`z`b.E.e.E`z`z.M.M`z`O`O.m`O.m.m`O.e`z`c`c`c`c`c`c`c`c`c`c`c`c`c`c`c`c`c`c`c`c`c`c`c`c`c`c",
"`c`c`H`z`6.u`k`k`f`f.e.e.E.E.E.E`z`z`z.M.E`Y.B`c`c`c`c`c`c`c`c`c`c`c`c`c`c`c`c`c`c`c`c`c`c`c`c`c",
"`c`c`H`O.P`z.M.M`O`O.m.m.m`a`a`a.O.O`G`a.O`a`Y`Y`Y`Y`Y`t`Y`Y.f`Y.f`Y.f`Y`t`R`c`c`c`c`c`c`c`c`c`c",
"`c`c`s.m`b`k`f`f.e.E.e`z`z`z.M.M.M.M`O`O`O`O.M.e`8`8`T`T`T`T.r.r`R`R`R`R`R.f`c`c`c`c`c`c`c`c`c`c",
"`c`c`s`a`R.M`O`O.m.m`a.O.O.O`Q`Q`Q`Q`L`L`L`L`Q`L`L`Q`L`Q`Q.O.O`a.O`a`a.m.m`Y`s`c`c`c`c`c`c`c`c`c",
"`c`c`X`L.P`f.E.E`z.M.M`O`O`O.m.m`a`a`a`a`a`a`G`a`a`a`a.m.m.m.m`O`O`O.M`z`z`Y.K`c`c`c`c`c`c`c`c`c",
"`c`c`c`Q.r`z.m`a`a`a.O.O`Q`L`Q`L`L`Y`Y`t`Y`t`Y`t`Y`t`L`Y`L`L`Q`L`Q.O.O`a.m`Y.U`c`c`c`c`c`c`c`c`c",
"`c`c`c`Y.r.e`z`O.i.i```N``.i```N``.i``.i``.i`N``.i```N```N```N```N``.i```N``.0`7.0.H.s.H`4`c`c`c",
"`c`c`c.f`T`O`a`g.i`p`p`p`p.I`p`p`p`p`p`p`p`p.j`p`p`p`p`p`p.j`p`p.j`p.j`p.j`p.j.I.j.I.1.1`0`K`c`c",
"`c`c`c.p`T`z.m.q`...`w`M`w`M`w`M`w`M`w`M`w`M`3`M`w`M`w`M`M`3`M.V`M.V`M.V`3`M.V`M.V`3`3...T`2`c`c",
"`c`c`c.p.u.M`a.Q`0`p.y.R.y.R.y.R`J`o`J.R.y`J.R`J.y`J`J`J.R`J.R`J.R`J`o`J.R.y.R`J.R`J.R`p`..t`c`c",
"`c`c`c.p`8.M`a.Q`I`p.R`J.R.y.R.y.R`J`o`J.R.y.R.y.R`o.R.y`o`J`o.y.R.y.R.y.R`J`o`J`o.R.x...s.S`c`c",
"`c`c`c.p`k`O.O.d`P.j.y.R.y.R`J.R.y.R.y.R.y.R`J.R`J.y.R`J`o`J.R.y.R`J`o`J`o`J`o`J.y.x`V.z```c`c`c",
"`c`c`c.p`f`O.O.Y.X.j.R.y.R.y.R.y.R`J`o`J.R.y.R.y.R.y.R.y.R.y.R`J`o`J.R`J.R.y.R`J`V.c.R.I.i`c`c`c",
"`c`c`c.f.e`O`Q`v.y`5`J.R.y.R.y.R.y.R`J`o`J`o`J`o`J.R.y.R`J.R.y.R.y.R.y`o`J.R.y.R.c`E.y`y`7`c`c`c",
"`c`c`c.f`z.m`Q`C.A.l`o`J.R.y.R`J.R.y.R.y.R`J`o`J`o`J.R.y.R.y.R`J`o`J.R`J`o`J`V.c`E.x`w`#`4`c`c`c",
"`c`c`c.f`z.m`Q.i`5`#.R.y.R`J`o`J`o`J.R`J`o`J.R`J.R.y.R`J`o`J`o`J.R.y.R.y.R.R.c.x.c.c.V`q`I`c`c`c",
"`c`c`c.f.M.m`Y```1`3.y.R.y.R`J`o`J`o`J`o`J.y.R.y.R.y.R.y.R`J.R.y.R.y.R.R`V.c`E.c`E.c.V`o`u`c`c`c",
"`c`c`c`Y`O.m`L```p`M`J.R`J`o`J.R`J`o`J.R.y.R.y.R.y.R`J.R.y.R.y.R`J.R.R`n.c`E.x.c.x.c.l.X.``c`c`c",
"`c`c`c`L`a`a.C```p.y`J`o`J`o`J`o`J.R.y.R`J`o`J.R`J`o`J`o`J.R`J.R`V`n.c.c.c.x.c`E.c.c.l`P.#`c`c`c",
"`c`c`c`Q`a.m.b`i.I`J`o`J.R.y.R.y.R.y.R.y.R.R.R.R.R`V`V.x`n`n.c.c.c.c`E.x`E.c.c.x.c`E`5`I`D`c`c`c",
"`c`c`c`Q`Q.O.J`Z`y`o`J`o`J.R.y.R.R.R.x.x.c.x.c.c.c`E`n.c.c.c.c.x`E.x.c.c.c.x`E.c.x.c.l.T`K`c`c`c",
"`c`c`c`a`Q.m`m`4`5.R`J.R.y.R.x.x.c.c.c.c.c.c.x`E.x.c.c`E.x.c`E.c.c.c`E.x`E.c.x`E.x.c`#`4`2`c`c`c",
"`c`c`c`O`Y.O.W`0`#.R.R`V.x.c.c.c.x`E.x.c`E.x.c.c.c`E.x.c.c.x.c.x`E.x.c.c.x.c.x.c`E.x`#`7.g`c`c`c",
"`c`c`c`O`Y.m.d`l`M.x.c.c`E.c`E.x.c.c.c`E.x.c`E.x.c.x.c`E.c`E.x.c.c.c`E.x`E.c`E.x.c.c.V.0`c`c`c`c",
"`c`c`c`z.f`Q.a.Z.R.c`E.c.c`E.c`E.c`E`E.c`E.c`E`E`E`E.c`E.x.N`E`E`E`E.x.N.c`E.c.N`E.x.y```c`c`c`c",
"`c`c`c.e.f.m`C`B`n`E.c.N`E`E`E.N`E`E`E`E.N`E.N.x.N.N.N.N.N.N.N.N.N.N.N.N.N.N.N.N.N`E`V`N`c`c`c`c",
"`c`c`c`f.f`Q.i`B.c.N.N.N.N.N.N.N.N.N.N.N.N.N.N`d.N.N.N.o.N.N.N.N.N.N`d.N.o.N.o.N.o.N.N`7`c`c`c`c",
"`c`c`c`k`F`a.i`B.N`d`d.o`d.o`d.o`d.o`d`d`d`d`d`d`d`d`d`d`d`d`d`d`d`d`d`d`d`d`d`d`d.N.v`4`c`c`c`c",
"`c`c`c`8`F`Q``.Z`d`d`d`d`d`d`d`d`d`d`d`d`d`d`d`d`d`d`d`d`d`d`d`d`d`d`d`d`d`d`d`d.G`d.D`I`c`c`c`c",
"`c`c`c`T.p`G```B`d`d.v`d`d.G`d.G`d.G.G`d.G`d.G`d.G`d.G`d.G`d.G`d.G`d.G`d.G`d.G.G`d.G.k.``c`c`c`c",
"`c`c`c`R`e.w`7.v`d`d`d`d.G`d.G`d.G`d`d.G`d.G`d.G`d.G`d.G`d.G`d.G`d.v`d`d.v`d`d.v`d.v.0.t`c`c`c`c",
"`c`c`c`c`r````.s.i.0``.0``.0``.0``.0``.s``.0``.s``.0``.s``.0``.s``.s.0.0.0.0.s`S.s.s.A`c`c`c`c`c",
"`c`c`c`c`c`h`h`h`h`h`1`h`h`1`h`h`1`h`h`h`h`1`h`h`h`1`h`h`h`1`h`h`h`h`h.#`h`1`2`j`j`c`c`c`c`c`c`c",
"`c`c`c`c`c`c`c`c`c`c`c`c`c`c`c`c`c`c`c`c`c`c`c`c`c`c`c`c`c`c`c`c`c`c`c`c`c`c`c`c`c`c`c`c`c`c`c`c",
"`c`c`c`c`c`c`c`c`c`c`c`c`c`c`c`c`c`c`c`c`c`c`c`c`c`c`c`c`c`c`c`c`c`c`c`c`c`c`c`c`c`c`c`c`c`c`c`c",
"`c`c`c`c`c`c`c`c`c`c`c`c`c`c`c`c`c`c`c`c`c`c`c`c`c`c`c`c`c`c`c`c`c`c`c`c`c`c`c`c`c`c`c`c`c`c`c`c",
"`c`c`c`c`c`c`c`c`c`c`c`c`c`c`c`c`c`c`c`c`c`c`c`c`c`c`c`c`c`c`c`c`c`c`c`c`c`c`c`c`c`c`c`c`c`c`c`c",
"`c`c`c`c`c`c`c`c`c`c`c`c`c`c`c`c`c`c`c`c`c`c`c`c`c`c`c`c`c`c`c`c`c`c`c`c`c`c`c`c`c`c`c`c`c`c`c`c"
};
