/* XPM */
static const char * folder_conn_del_xpm[] = {
"16 16 148 2",
"  	c None",
". 	c #A8A8A8",
"+ 	c #ABABAB",
"@ 	c #A7A7A7",
"# 	c #A4A4A4",
"$ 	c #A2A2A2",
"% 	c #999999",
"& 	c #C22323",
"* 	c #D12E2E",
"= 	c #CD1D1D",
"- 	c #C52525",
"; 	c #A5A5A5",
"> 	c #979797",
", 	c #919191",
"' 	c #8D8D8D",
") 	c #8A8A8A",
"! 	c #8C8C8C",
"~ 	c #797979",
"{ 	c #BF2C2C",
"] 	c #E78686",
"^ 	c #E88D8D",
"/ 	c #E27070",
"( 	c #EC9F9F",
"_ 	c #C62121",
": 	c #9D9D9D",
"< 	c #939393",
"[ 	c #878787",
"} 	c #848484",
"| 	c #818181",
"1 	c #828282",
"2 	c #8E8E8E",
"3 	c #BC3939",
"4 	c #CC0101",
"5 	c #F4C7C7",
"6 	c #F8DCDC",
"7 	c #CD0606",
"8 	c #9A9160",
"9 	c #C7B64D",
"0 	c #C5B44D",
"a 	c #C4B34C",
"b 	c #C2B24B",
"c 	c #C2B14B",
"d 	c #C63F2C",
"e 	c #E26C6C",
"f 	c #EFB1B1",
"g 	c #EA9A9A",
"h 	c #E68484",
"i 	c #C92F21",
"j 	c #AB9B42",
"k 	c #F1DE38",
"l 	c #EFD817",
"m 	c #EFD818",
"n 	c #C64A2B",
"o 	c #D83C3C",
"p 	c #D11919",
"q 	c #D01414",
"r 	c #D94040",
"s 	c #CD4429",
"t 	c #858585",
"u 	c #B09F3F",
"v 	c #F0DC30",
"w 	c #E5D01E",
"x 	c #98A48C",
"y 	c #A3A3BD",
"z 	c #8C5972",
"A 	c #A26D83",
"B 	c #8C5768",
"C 	c #A96235",
"D 	c #DBA726",
"E 	c #7F7F7F",
"F 	c #B7A63F",
"G 	c #F0DB28",
"H 	c #909B86",
"I 	c #6D8DBA",
"J 	c #ACC7E5",
"K 	c #CCE3FB",
"L 	c #8DAED4",
"M 	c #456EA4",
"N 	c #3D6598",
"O 	c #A7A14F",
"P 	c #787878",
"Q 	c #BEAB3F",
"R 	c #F0D91D",
"S 	c #E3CF1D",
"T 	c #6787AF",
"U 	c #9DBADB",
"V 	c #D3E9FF",
"W 	c #CDE4FC",
"X 	c #7598C3",
"Y 	c #5981B3",
"Z 	c #34609A",
"` 	c #5B727C",
" .	c #717171",
"..	c #C2AF36",
"+.	c #EED715",
"@.	c #EED60D",
"#.	c #EED508",
"$.	c #BEB331",
"%.	c #789BC6",
"&.	c #ADCBEA",
"*.	c #BFD9F4",
"=.	c #B0CEEC",
"-.	c #436BA1",
";.	c #38629A",
">.	c #335F9A",
",.	c #556B80",
"'.	c #6D6D6D",
").	c #C5AE26",
"!.	c #EDD100",
"~.	c #EDD000",
"{.	c #D6BE11",
"].	c #7D9FC5",
"^.	c #466EA3",
"/.	c #6C91BF",
"(.	c #8DB2D8",
"_.	c #6A93C2",
":.	c #3A669E",
"<.	c #2C5995",
"[.	c #66706A",
"}.	c #686868",
"|.	c #CAA616",
"1.	c #EFBF00",
"2.	c #EFBE00",
"3.	c #EFBD00",
"4.	c #808B80",
"5.	c #446FA6",
"6.	c #37619A",
"7.	c #6692C3",
"8.	c #5988BC",
"9.	c #33629D",
"0.	c #345A8F",
"a.	c #897941",
"b.	c #887939",
"c.	c #CDA20A",
"d.	c #D4A409",
"e.	c #D2A408",
"f.	c #D2A207",
"g.	c #D1A206",
"h.	c #B5941D",
"i.	c #526F8E",
"j.	c #3A69A4",
"k.	c #4276AF",
"l.	c #3E6CA3",
"m.	c #3A5D8D",
"n.	c #6C6A56",
"o.	c #4A5780",
"p.	c #465A82",
"q.	c #45537A",
"                                ",
"                                ",
"  . + @ # $ %     & * = = * -   ",
"  ; > , ' ) ! ~   { ] ^ / ( _   ",
"  : < ! [ } | 1 2 3 4 5 6 7 _   ",
"  < 8 9 0 a b c b d e f g h i   ",
"  ' j k l l m m m n o p q r s   ",
"  t u v l l l w x y z A B C D   ",
"  E F G l l l H I J K L M N O   ",
"  P Q R l l S T U V W X Y Z `   ",
"   ...+.@.#.$.%.&.*.=.-.;.>.,.  ",
"  '.).!.!.~.{.].^./.(._.:.<.[.  ",
"  }.|.1.2.2.3.4.5.6.7.8.9.0.a.  ",
"  b.c.d.e.f.g.h.i.j.k.l.m.n.    ",
"                  o.p.q.        ",
"                                "};
