/* XPM */
static const char * folder_16_xpm[] = {
"16 16 93 2",
"  	c None",
". 	c #A7A7A7",
"+ 	c #A5A5A5",
"@ 	c #A3A3A3",
"# 	c #A2A2A2",
"$ 	c #989898",
"% 	c #A6A6A6",
"& 	c #979797",
"* 	c #919191",
"= 	c #8D8D8D",
"- 	c #898989",
"; 	c #8B8B8B",
"> 	c #787878",
", 	c #9F9F9F",
"' 	c #939393",
") 	c #8C8C8C",
"! 	c #878787",
"~ 	c #848484",
"{ 	c #818181",
"] 	c #838383",
"^ 	c #8E8E8E",
"/ 	c #929292",
"( 	c #959595",
"_ 	c #9B9B9B",
": 	c #949494",
"< 	c #9B9160",
"[ 	c #C3B149",
"} 	c #C2B049",
"| 	c #C1AF47",
"1 	c #C0AF46",
"2 	c #C2B048",
"3 	c #C3B24A",
"4 	c #C8B544",
"5 	c #E0C635",
"6 	c #D9BD28",
"7 	c #AD9E45",
"8 	c #F1DE3A",
"9 	c #F0D91D",
"0 	c #E6D031",
"a 	c #B2A242",
"b 	c #F0DB2E",
"c 	c #EFD817",
"d 	c #EED60B",
"e 	c #E4CB2D",
"f 	c #7E7E7E",
"g 	c #B9A743",
"h 	c #F0DB26",
"i 	c #EED60A",
"j 	c #EDD400",
"k 	c #E3CB2F",
"l 	c #7A7A7A",
"m 	c #C1AF42",
"n 	c #EFD91C",
"o 	c #EFD815",
"p 	c #EED711",
"q 	c #EDD504",
"r 	c #E0C82C",
"s 	c #727272",
"t 	c #C4B138",
"u 	c #EFD816",
"v 	c #EED60E",
"w 	c #EED609",
"x 	c #EDD506",
"y 	c #EDD402",
"z 	c #DFC323",
"A 	c #6C6C6C",
"B 	c #C8B026",
"C 	c #EDD201",
"D 	c #EDD200",
"E 	c #EDD100",
"F 	c #EDD000",
"G 	c #EDCF00",
"H 	c #EECE00",
"I 	c #EECE02",
"J 	c #DDBC14",
"K 	c #686868",
"L 	c #CCA914",
"M 	c #EFBF00",
"N 	c #EFBE00",
"O 	c #EFBD00",
"P 	c #EFBC00",
"Q 	c #EFBC03",
"R 	c #D9AE05",
"S 	c #8D7C39",
"T 	c #D2A507",
"U 	c #DBA905",
"V 	c #DAA805",
"W 	c #D9A804",
"X 	c #D9A704",
"Y 	c #D8A703",
"Z 	c #D8A704",
"` 	c #DAA804",
" .	c #DFAB00",
"                                ",
"                                ",
"  . . + @ # $                   ",
"  % & * = - ; >                 ",
"  , ' ) ! ~ { ] ^ / ( _ ~       ",
"  : < [ } | 1 1 1 | 2 3 4 5 6   ",
"  = 7 8 9 9 9 9 9 9 9 9 9 9 0   ",
"  ~ a b c c c c c c c c c d e   ",
"  f g h c c c c c c c c i j k   ",
"  l m n c c c c o p d q j j r   ",
"  s t u v w x y j j j j j j z   ",
"  A B C D E E F F F G G H I J   ",
"  K L M M M N N O O O P P Q R   ",
"  S T U V W X Y Y Y Z W `  .    ",
"                                ",
"                                "};
