/* XPM */
static const char * folder_new_xpm[] = {
"16 16 104 2",
"  	c None",
". 	c #A3A3A3",
"+ 	c #A5A5A5",
"@ 	c #A1A1A1",
"# 	c #A0A0A0",
"$ 	c #989898",
"% 	c #D4701D",
"& 	c #A7A7A7",
"* 	c #999999",
"= 	c #939393",
"- 	c #8F8F8F",
"; 	c #8B8B8B",
"> 	c #8E8E8E",
", 	c #787878",
"' 	c #CE7429",
") 	c #D38139",
"! 	c #E7AB69",
"~ 	c #D78137",
"{ 	c #D67524",
"] 	c #9F9F9F",
"^ 	c #929292",
"/ 	c #8C8C8C",
"( 	c #878787",
"_ 	c #848484",
": 	c #828282",
"< 	c #8D8B8A",
"[ 	c #C67C3B",
"} 	c #ECBB72",
"| 	c #ECBD74",
"1 	c #D97F2F",
"2 	c #959595",
"3 	c #979069",
"4 	c #BAAA48",
"5 	c #B9A847",
"6 	c #B7A644",
"7 	c #B6A443",
"8 	c #B6A442",
"9 	c #C58124",
"0 	c #DA8D36",
"a 	c #E5AA4F",
"b 	c #E09B42",
"c 	c #D27311",
"d 	c #AB9A44",
"e 	c #F1DF41",
"f 	c #F0DB28",
"g 	c #F0DB29",
"h 	c #DA8A18",
"i 	c #DD972A",
"j 	c #DD982B",
"k 	c #D88319",
"l 	c #E8D038",
"m 	c #858585",
"n 	c #B2A143",
"o 	c #F0DC2E",
"p 	c #EFD817",
"q 	c #DB8D11",
"r 	c #DA8914",
"s 	c #DA8726",
"t 	c #D98214",
"u 	c #D8800F",
"v 	c #E2C72B",
"w 	c #7E7E7E",
"x 	c #B7A641",
"y 	c #F0DB26",
"z 	c #DD9511",
"A 	c #EDD20D",
"B 	c #EDD400",
"C 	c #E2CB2E",
"D 	c #797979",
"E 	c #BFAD41",
"F 	c #EFD91C",
"G 	c #EED713",
"H 	c #EED60D",
"I 	c #EDD506",
"J 	c #E2C82D",
"K 	c #717171",
"L 	c #C3AF37",
"M 	c #EED710",
"N 	c #EED60B",
"O 	c #EED508",
"P 	c #EDD504",
"Q 	c #EDD401",
"R 	c #DEC523",
"S 	c #6D6D6C",
"T 	c #C6B026",
"U 	c #EDD402",
"V 	c #EDD300",
"W 	c #EDD200",
"X 	c #EDD100",
"Y 	c #EDD000",
"Z 	c #EDD001",
"` 	c #DBBD17",
" .	c #6A6A6A",
"..	c #CCAA17",
"+.	c #EFC100",
"@.	c #EFC000",
"#.	c #EFBF00",
"$.	c #EFBE00",
"%.	c #EFBD02",
"&.	c #D6AF08",
"*.	c #887942",
"=.	c #DAA905",
"-.	c #E9B100",
";.	c #E4AF00",
"                                ",
"                                ",
"  . + . @ # $         %         ",
"  & * = - ; > ,   ' ) ! ~ {     ",
"  ] ^ / ( _ : : < [ } | | 1     ",
"  2 3 4 5 6 7 8 9 0 a a a b c   ",
"  ; d e f f g g g h i j j k l   ",
"  m n o p p p p p q r s t u v   ",
"  w x y p p p p p p p z A B C   ",
"  D E F p p p p p G H I B B J   ",
"  K L p M N O P Q B B B B B R   ",
"  S T U B V V W W X X X Y Z `   ",
"   ...+.+.+.@.@.#.#.$.$.$.%.&.  ",
"  *.=.-.-.-.-.-.-.-.-.-.-.;.    ",
"                                ",
"                                "};
