/* XPM */
static const char * folder_48_xpm[] = {
"48 48 325 2",
"  	c None",
". 	c #7A7A7A",
"+ 	c #888888",
"@ 	c #898989",
"# 	c #8B8B8B",
"$ 	c #828282",
"% 	c #797979",
"& 	c #929292",
"* 	c #D1D1D1",
"= 	c #C8C8C8",
"- 	c #C4C4C4",
"; 	c #C3C3C3",
"> 	c #C1C1C1",
", 	c #C0C0C0",
"' 	c #BFBFBF",
") 	c #BEBEBE",
"! 	c #BDBDBD",
"~ 	c #BCBCBC",
"{ 	c #BBBBBB",
"] 	c #BABABA",
"^ 	c #B9B9B9",
"/ 	c #B8B8B8",
"( 	c #949494",
"_ 	c #CCCCCC",
": 	c #ABABAB",
"< 	c #A9A9A9",
"[ 	c #A7A7A7",
"} 	c #A5A5A5",
"| 	c #A3A3A3",
"1 	c #A1A1A1",
"2 	c #A0A0A0",
"3 	c #9E9E9E",
"4 	c #9D9D9D",
"5 	c #9C9C9C",
"6 	c #9B9B9B",
"7 	c #9A9A9A",
"8 	c #999999",
"9 	c #989898",
"0 	c #737373",
"a 	c #8F8F8F",
"b 	c #C2C2C2",
"c 	c #979797",
"d 	c #959595",
"e 	c #939393",
"f 	c #919191",
"g 	c #909090",
"h 	c #8E8E8E",
"i 	c #8D8D8D",
"j 	c #8A8A8A",
"k 	c #878787",
"l 	c #747474",
"m 	c #CACACA",
"n 	c #A6A6A6",
"o 	c #A4A4A4",
"p 	c #A2A2A2",
"q 	c #9F9F9F",
"r 	c #707070",
"s 	c #848484",
"t 	c #868686",
"u 	c #858585",
"v 	c #838383",
"w 	c #818181",
"x 	c #808080",
"y 	c #7F7F7F",
"z 	c #7E7E7E",
"A 	c #6E6E6E",
"B 	c #6D6D6D",
"C 	c #6C6C6C",
"D 	c #6B6B6B",
"E 	c #C5C5C5",
"F 	c #969696",
"G 	c #8C8C8C",
"H 	c #AAAAAA",
"I 	c #B1B1B1",
"J 	c #B2B2B2",
"K 	c #B3B3B3",
"L 	c #B4B4B4",
"M 	c #B5B5B5",
"N 	c #B6B6B6",
"O 	c #686868",
"P 	c #787878",
"Q 	c #7D7D7D",
"R 	c #7C7C7C",
"S 	c #7B7B7B",
"T 	c #777777",
"U 	c #6A6A6A",
"V 	c #696969",
"W 	c #767676",
"X 	c #757575",
"Y 	c #727272",
"Z 	c #717171",
"` 	c #8F8E88",
" .	c #BE9F12",
"..	c #C3A005",
"+.	c #C3A004",
"@.	c #C2A004",
"#.	c #C3A105",
"$.	c #C29F03",
"%.	c #C4A101",
"&.	c #C5A200",
"*.	c #656565",
"=.	c #8A856F",
"-.	c #C5A307",
";.	c #F1E26D",
">.	c #F2E371",
",.	c #F2E370",
"'.	c #F2E36F",
").	c #F2E36E",
"!.	c #F2E36D",
"~.	c #F2E26C",
"{.	c #F2E26B",
"].	c #F2E26A",
"^.	c #F2E168",
"/.	c #D0B11A",
"(.	c #626262",
"_.	c #958D68",
":.	c #C9A913",
"<.	c #F6E878",
"[.	c #F0DB28",
"}.	c #F0DB29",
"|.	c #F0DB2A",
"1.	c #F0DC2A",
"2.	c #F0DC2B",
"3.	c #F0DC2C",
"4.	c #F0DC2D",
"5.	c #F0DC2E",
"6.	c #F0DC2F",
"7.	c #F5E770",
"8.	c #CFAF17",
"9.	c #606060",
"0.	c #938856",
"a.	c #CDB01D",
"b.	c #EFD817",
"c.	c #EED712",
"d.	c #CAA90D",
"e.	c #5E5E5E",
"f.	c #A8A8A8",
"g.	c #9C8D4E",
"h.	c #D3B926",
"i.	c #F4E667",
"j.	c #EFD815",
"k.	c #EDD406",
"l.	c #F5E877",
"m.	c #C5A204",
"n.	c #5D5D5D",
"o.	c #9E8C3F",
"p.	c #DAC12D",
"q.	c #F4E45F",
"r.	c #EED507",
"s.	c #EED60C",
"t.	c #F4E671",
"u.	c #C4A000",
"v.	c #5B5B5B",
"w.	c #A69133",
"x.	c #E1C935",
"y.	c #F3E357",
"z.	c #EED60D",
"A.	c #EDD400",
"B.	c #F1E268",
"C.	c #C5A100",
"D.	c #5A5A5A",
"E.	c #AE9625",
"F.	c #E5D03F",
"G.	c #F2E14F",
"H.	c #EED711",
"I.	c #EDD401",
"J.	c #EFD91F",
"K.	c #EFDE5F",
"L.	c #C6A200",
"M.	c #595959",
"N.	c #B69A19",
"O.	c #E9D54B",
"P.	c #F2E046",
"Q.	c #ECD955",
"R.	c #C7A300",
"S.	c #575757",
"T.	c #BC9D0F",
"U.	c #EDDA56",
"V.	c #F1DE3D",
"W.	c #EED710",
"X.	c #F0DC31",
"Y.	c #E8D44C",
"Z.	c #555555",
"`.	c #C19F06",
" +	c #F0E061",
".+	c #F0DC34",
"++	c #EFD816",
"@+	c #EED509",
"#+	c #F1DE3B",
"$+	c #E4CF42",
"%+	c #C7A400",
"&+	c #535353",
"*+	c #C4A001",
"=+	c #F3E466",
"-+	c #EED60F",
";+	c #EDD403",
">+	c #F2DF42",
",+	c #E0C936",
"'+	c #515151",
")+	c #757367",
"!+	c #C3A002",
"~+	c #F4E567",
"{+	c #F0DA20",
"]+	c #EED714",
"^+	c #EED60B",
"/+	c #EDD402",
"(+	c #F2E045",
"_+	c #DCC12B",
":+	c #505050",
"<+	c #80807F",
"[+	c #827C62",
"}+	c #C4A309",
"|+	c #F3E562",
"1+	c #EFD819",
"2+	c #EED60E",
"3+	c #EED60A",
"4+	c #EDD507",
"5+	c #EDD504",
"6+	c #D7BA1F",
"7+	c #4E4E4E",
"8+	c #827951",
"9+	c #C7A810",
"0+	c #F3E255",
"a+	c #EDD505",
"b+	c #D2B216",
"c+	c #4C4C4C",
"d+	c #8E824E",
"e+	c #CCAE16",
"f+	c #F2E048",
"g+	c #F2DF43",
"h+	c #CDAB0D",
"i+	c #494949",
"j+	c #8F803D",
"k+	c #D1B516",
"l+	c #F1DE3C",
"m+	c #F1DF3F",
"n+	c #C8A605",
"o+	c #474747",
"p+	c #6F6F6F",
"q+	c #868685",
"r+	c #9C8A3A",
"s+	c #D8BC16",
"t+	c #F1DB2B",
"u+	c #EDD506",
"v+	c #F1DD37",
"w+	c #C4A100",
"x+	c #444444",
"y+	c #696968",
"z+	c #A08B28",
"A+	c #DDC014",
"B+	c #EFD71A",
"C+	c #EDD200",
"D+	c #EDD100",
"E+	c #EDD000",
"F+	c #EDCF00",
"G+	c #EECF00",
"H+	c #EECE00",
"I+	c #EECF06",
"J+	c #EFD42A",
"K+	c #AF9521",
"L+	c #E1C112",
"M+	c #EFCF11",
"N+	c #EECC00",
"O+	c #EECB00",
"P+	c #EECA00",
"Q+	c #EEC900",
"R+	c #EEC800",
"S+	c #EECA07",
"T+	c #ECC91E",
"U+	c #414141",
"V+	c #636363",
"W+	c #B59713",
"X+	c #E4BF0E",
"Y+	c #EFC80A",
"Z+	c #EEC600",
"`+	c #EEC500",
" @	c #EEC400",
".@	c #EFC400",
"+@	c #EFC300",
"@@	c #EFC200",
"#@	c #EFC100",
"$@	c #EFC307",
"%@	c #E8BF14",
"&@	c #616161",
"*@	c #BD9D0D",
"=@	c #E8BC09",
"-@	c #EFC105",
";@	c #EFC000",
">@	c #EFBF00",
",@	c #EFBE00",
"'@	c #EFBD00",
")@	c #EFBC00",
"!@	c #EFBB00",
"~@	c #EFBC06",
"{@	c #E4B60B",
"]@	c #C6A100",
"^@	c #5C5C5C",
"/@	c #C19E05",
"(@	c #EAB802",
"_@	c #EFBA01",
":@	c #EFB900",
"<@	c #F0B900",
"[@	c #F0B800",
"}@	c #F0B700",
"|@	c #F0B600",
"1@	c #F0B500",
"2@	c #F0B603",
"3@	c #E0AF03",
"4@	c #C7A200",
"5@	c #87857B",
"6@	c #EFB300",
"7@	c #F0B400",
"8@	c #D8A900",
"9@	c #A49142",
"0@	c #CAA206",
"a@	c #EAB100",
"b@	c #C7A100",
"c@	c #6B6030",
"d@	c #C49F02",
"e@	c #C49F04",
"f@	c #C49F03",
"g@	c #C49E03",
"h@	c #C5A002",
"i@	c #CAA200",
"j@	c #C6A000",
"                                                                                                ",
"                                                                                                ",
"                                                                                                ",
"                                                                                                ",
"                                                                                                ",
"                                                                                                ",
"      . + @ @ @ @ @ @ @ @ @ @ # # # # $ %                                                       ",
"      & * = - ; > , ' ) ! ~ { ] ] ^ / ' $                                                       ",
"      ( _ : < [ } | 1 2 3 4 5 6 7 8 9 3 4 0                                                     ",
"      a b 9 c d e f g h i # j @ + k k k 5 l                                                     ",
"      + m n o p q 4 6 7 9 c d ( e & & f c r                                                     ",
"      s ) f g i # @ + t u v $ w x x y z y x A B B B B C C C C C D D D D D                       ",
"      z E p q 5 7 9 F ( & g a h i G # j j j G 3 H I J K L M N N / ] { ! N O                     ",
"      P ] a # + t u $ x y Q R S . % P T T T T T T P % . S R Q z x $ s u j U                     ",
"      0 ' 5 c ( & a i # j + k u s v $ $ w w w w w $ v s u t k @ # G h g ( V                     ",
"      A N a k s v x z R . % T W X 0 Y Y Z Z Z Z Z Y 0 0 X W P % . R z w u V                     ",
"      U ^ 9 g `  .........+.+.@.@.@.@.@.@.@.@.@.@.@.@.@.@.@.+.+.+.......#.$.%.&.&.&.&.&.&.      ",
"      *.I i v =.-.;.>.>.>.>.,.,.,.,.'.'.'.'.).).).).).!.!.!.!.~.~.~.~.{.{.{.{.{.{.{.].^./.      ",
"      (.K ( j _.:.<.[.[.[.[.}.}.}.}.|.|.1.1.1.1.2.2.2.2.2.3.3.3.3.4.4.4.4.5.5.5.5.6.6.7.8.      ",
"      9.< G x 0.a.7.b.b.b.b.b.b.b.b.b.b.b.b.b.b.b.b.b.b.b.b.b.b.b.b.b.b.b.b.b.b.b.b.c.7.d.      ",
"      e.f.g s g.h.i.b.b.b.b.b.b.b.b.b.b.b.b.b.b.b.b.b.b.b.b.b.b.b.b.b.b.b.b.b.b.b.j.k.l.m.      ",
"      n.1 # Q o.p.q.b.b.b.b.b.b.b.b.b.b.b.b.b.b.b.b.b.b.b.b.b.b.b.b.b.b.b.b.b.b.b.r.s.t.u.      ",
"      v.q G Q w.x.y.b.b.b.b.b.b.b.b.b.b.b.b.b.b.b.b.b.b.b.b.b.b.b.b.b.b.b.b.b.b.z.A.j.B.C.      ",
"      D.8 j S E.F.G.b.b.b.b.b.b.b.b.b.b.b.b.b.b.b.b.b.b.b.b.b.b.b.b.b.b.b.b.b.H.I.A.J.K.L.      ",
"      M.( + P N.O.P.b.b.b.b.b.b.b.b.b.b.b.b.b.b.b.b.b.b.b.b.b.b.b.b.b.b.b.b.H.I.A.A.[.Q.R.      ",
"      S.g @ P T.U.V.b.b.b.b.b.b.b.b.b.b.b.b.b.b.b.b.b.b.b.b.b.b.b.b.b.b.b.W.I.A.A.A.X.Y.R.      ",
"      Z.# s 0 `. +.+b.b.b.b.b.b.b.b.b.b.b.b.b.b.b.b.b.b.b.b.b.b.b.b.b.++@+A.A.A.A.A.#+$+%+      ",
"      &++ k W *+=+|.b.b.b.b.b.b.b.b.b.b.b.b.b.b.b.b.b.b.b.b.b.b.b.++-+;+A.A.A.A.A.A.>+,+C.      ",
"      '+w w )+!+~+{+b.b.b.b.b.b.b.b.b.b.b.b.b.b.b.b.b.b.b.b.b.]+^+/+A.A.A.A.A.A.A.A.(+_+        ",
"      :+<+t [+}+|+1+b.b.b.b.b.b.b.b.b.b.b.++]+c.W.2+s.3+4+5+I.A.A.A.A.A.A.A.A.A.A.A.P.6+        ",
"      7+P y 8+9+0+b.b.b.b.b.b.b.j.W.3+a+I.A.A.A.A.A.A.A.A.A.A.A.A.A.A.A.A.A.A.A.A.A.(+b+        ",
"      c+P t d+e+f+b.b.b.b.H.3+5+A.A.A.A.A.A.A.A.A.A.A.A.A.A.A.A.A.A.A.A.A.A.A.A.A.A.g+h+        ",
"      i+r Q j+k+l+b.]+^+;+A.A.A.A.A.A.A.A.A.A.A.A.A.A.A.A.A.A.A.A.A.A.A.A.A.A.A.A.A.m+n+        ",
"      o+p+q+r+s+t+u+A.A.A.A.A.A.A.A.A.A.A.A.A.A.A.A.A.A.A.A.A.A.A.A.A.A.A.A.A.A.A./+v+w+        ",
"      x+y+. z+A+B+C+C+C+C+C+D+D+D+D+D+D+D+E+E+E+E+E+E+E+E+F+F+F+F+F+F+G+H+H+H+H+H+I+J+C.        ",
"      x+O t K+L+M+N+N+N+N+O+O+O+O+O+O+O+P+P+P+P+P+P+P+Q+Q+Q+Q+Q+Q+Q+R+R+R+R+R+R+R+S+T+C.        ",
"      U+V+% W+X+Y+Z+Z+`+`+`+`+`+`+`+`+ @ @ @.@.@.@.@+@+@+@+@+@+@+@@@@@@@@@@@@@@@#@$@%@R.        ",
"        &@s *@=@-@;@>@>@>@>@>@>@>@,@,@,@,@,@,@,@'@'@'@'@'@'@'@'@)@)@)@)@)@)@)@!@!@~@{@]@        ",
"        ^@% /@(@_@:@<@<@<@<@<@<@[@[@[@[@[@[@[@}@}@}@}@}@}@}@|@|@|@|@|@|@|@1@1@1@1@2@3@4@        ",
"        ^@5@*+6@7@7@7@7@7@7@7@7@7@7@7@7@7@7@7@7@7@7@7@7@7@7@7@7@7@7@7@7@7@7@7@7@7@7@8@L.        ",
"        &+9@0@7@7@7@7@7@7@7@7@7@7@7@7@7@7@7@7@7@7@7@7@7@7@7@7@7@7@7@7@7@7@7@7@7@7@a@b@          ",
"        c@u.d@e@e@e@e@e@f@f@f@f@f@f@f@f@f@f@f@f@f@g@g@f@f@f@f@f@f@f@f@f@f@f@h@i@i@j@            ",
"                                                                                                ",
"                                                                                                ",
"                                                                                                ",
"                                                                                                ",
"                                                                                                ",
"                                                                                                "};
