/* XPM */
static const char *fullext_xpm[] = {
/* width height num_colors chars_per_pixel */
"    16    16      256            2",
/* colors */
"`` c None",
"`. c #cccddc",
"`# c #abb0c6",
"`a c #b5bbd0",
"`b c #abb4cd",
"`c c #a6abc5",
"`d c #c4c5d5",
"`e c #b9bccd",
"`f c #c5cdda",
"`g c #d9dee1",
"`h c #fefefe",
"`i c #b7bfc7",
"`j c #a3c0df",
"`k c #99b2d3",
"`l c #9aa4c2",
"`m c #c1c5d5",
"`n c #d5d7dc",
"`o c #bec9d4",
"`p c #b3bfcc",
"`q c #bcc6d0",
"`r c #a5b2c0",
"`s c #a2b9d3",
"`t c #98bade",
"`u c #b4c1ce",
"`v c #d0d3d7",
"`w c #c1c5cb",
"`x c #a2a7bc",
"`y c #e2e4e7",
"`z c #c3cad1",
"`A c #e9ebec",
"`B c #bfc8d0",
"`C c #d2e8fe",
"`D c #c6dff8",
"`E c #b4d1ee",
"`F c #a8bacc",
"`G c #b5bfc9",
"`H c #dadde1",
"`I c #ececec",
"`J c #c1c4c8",
"`K c #b9bcca",
"`L c #ffffff",
"`M c #cacdd1",
"`N c #c6daec",
"`O c #d3e9ff",
"`P c #d0e6fd",
"`Q c #bbd6f2",
"`R c #bdc7d2",
"`S c #e1e3e5",
"`T c #f5f5f6",
"`U c #f2f2f2",
"`V c #dedede",
"`W c #9599a6",
"`X c #dddfe4",
"`Y c #c0c5ca",
"`Z c #cfe3f9",
"`0 c #cfe6fd",
"`1 c #c0c7cf",
"`2 c #a3b4c7",
"`3 c #87a0bb",
"`4 c #afb8c2",
"`5 c #dcdcdc",
"`6 c #bcbdc0",
"`7 c #acaec5",
"`8 c #dcdfe1",
".` c #afbac5",
".. c #b9d0e9",
".# c #d1e8fe",
".a c #c5def7",
".b c #b6c8db",
".c c #fcfcfc",
".d c #f9f9fa",
".e c #d1d4d7",
".f c #d5d5d6",
".g c #a3a9b0",
".h c #85889d",
".i c #a9adc1",
".j c #c8ced5",
".k c #a3bad2",
".l c #b4d0ee",
".m c #bfd9f4",
".n c #c3dcf6",
".o c #c0daf5",
".p c #b6d2ef",
".q c #cbd1d7",
".r c #e6e6e7",
".s c #a3aab2",
".t c #91969e",
".u c #8990ae",
".v c #9ea6c2",
".w c #97b0ca",
".x c #a3b1c0",
".y c #bfc8d3",
".z c #b0bfd0",
".A c #aecceb",
".B c #accae9",
".C c #a4c3e5",
".D c #b5c0ca",
".E c #f5f5f5",
".F c #e1e1e1",
".G c #b9bbbd",
".H c #536d8e",
".I c #8890ad",
".J c #a6acc3",
".K c #97b4d7",
".L c #8eafd1",
".M c #fbfbfb",
".N c #afbbc8",
".O c #91b4da",
".P c #88acd4",
".Q c #7f99b7",
".R c #93a6b9",
".S c #e7e7e7",
".T c #d4d4d4",
".U c #a2a5a8",
".V c #54729a",
".W c #9397b1",
".X c #889fc5",
".Y c #8aa4c1",
".Z c #c3c9cf",
".0 c #7da5d0",
".1 c #749ecb",
".2 c #6995c5",
".3 c #6790bc",
".4 c #d6d6d6",
".5 c #c6c6c6",
".6 c #627183",
".7 c #596f95",
".8 c #8992b4",
"#` c #749bc7",
"#. c #b2b9c0",
"## c #efefef",
"#a c #f3f3f3",
"#b c #97a3b1",
"#c c #6994c4",
"#d c #618fc0",
"#e c #5787bb",
"#f c #5582b5",
"#g c #c3c3c3",
"#h c #b4b4b4",
"#i c #5c6a7e",
"#j c #757d9d",
"#k c #8093b9",
"#l c #678cb5",
"#m c #d8d8d8",
"#n c #c3c5c7",
"#o c #6081a5",
"#p c #5484b9",
"#q c #4e7fb6",
"#r c #4578b1",
"#s c #4171a8",
"#t c #a5a6a8",
"#u c #87898d",
"#v c #677696",
"#w c #b8bccf",
"#x c #8093b4",
"#y c #6d7d8f",
"#z c #4376b0",
"#A c #4074ae",
"#B c #3f70a7",
"#C c #3e6a9f",
"#D c #3c6395",
"#E c #667181",
"#F c #6b7389",
"#G c #a9aac0",
"#H c #7c8496",
"#I c #647fa7",
"#J c #5c7eaa",
"#K c #4c719f",
"#L c #486b99",
"#M c #56729a",
"#N c #5a6e93",
"#O c #7980a0",
"#P c #a4a7bd",
"#Q c #8e95b1",
"#R c #8e93af",
"#S c #9fa2ba",
"#T c #000000",
"#U c #000000",
"#V c #000000",
"#W c #000000",
"#X c #000000",
"#Y c #000000",
"#Z c #000000",
"#0 c #000000",
"#1 c #000000",
"#2 c #000000",
"#3 c #000000",
"#4 c #000000",
"#5 c #000000",
"#6 c #000000",
"#7 c #000000",
"#8 c #000000",
"a` c #000000",
"a. c #000000",
"a# c #000000",
"aa c #000000",
"ab c #000000",
"ac c #000000",
"ad c #000000",
"ae c #000000",
"af c #000000",
"ag c #000000",
"ah c #000000",
"ai c #000000",
"aj c #000000",
"ak c #000000",
"al c #000000",
"am c #000000",
"an c #000000",
"ao c #000000",
"ap c #000000",
"aq c #000000",
"ar c #000000",
"as c #000000",
"at c #000000",
"au c #000000",
"av c #000000",
"aw c #000000",
"ax c #000000",
"ay c #000000",
"az c #000000",
"aA c #000000",
"aB c #000000",
"aC c #000000",
"aD c #000000",
"aE c #000000",
"aF c #000000",
"aG c #000000",
"aH c #000000",
"aI c #000000",
"aJ c #000000",
"aK c #000000",
"aL c #000000",
"aM c #000000",
"aN c #000000",
"aO c #000000",
"aP c #000000",
"aQ c #000000",
"aR c #000000",
"aS c #000000",
"aT c #000000",
"aU c #000000",
"aV c #000000",
"aW c #000000",
"aX c #000000",
"aY c #000000",
"aZ c #000000",
"a0 c #000000",
"a1 c #000000",
"a2 c #000000",
"a3 c #000000",
"a4 c #000000",
"a5 c #000000",
"a6 c #000000",
"a7 c #000000",
"a8 c #000000",
/* pixels */
"```````````.`#`a`b`c`d``````````",
"`````````e`f`g`h`i`j`k`l````````",
"`````m`n`o`p`q`r`s`t`u`v`w`x````",
"`````y`z`A`B`C`D`E`F`G`H`I`J````",
"```K`h`L`M`N`O`P`Q`R`S`T`U`V`W``",
"```X`h`Y`Z`O`O`0`Q`1`2`3`4`5`6``",
"`7`8.`...#`O`O.a.b.c`h.d.e.f.g.h",
".i.j.k.l.m.n.o.p.q`h`h`h.r.s.t.u",
".v.w.x.y.z.A.B.C.D`h`h.E.F.G.H.I",
".J.K.L.c.M.N`t.O.P.Q.R.S.T.U.V.W",
"``.X.Y`h`h`h.Z.0.1.2.3.4.5.6.7``",
"``.8#`#.###a#b#c#d#e#f#g#h#i#j``",
"````#k#l#m#n#o#p#q#r#s#t#u#v````",
"````#w#x.5#y#z#A#B#C#D#E#F#G````",
"````````#H#I#J#K#L#M#N#O````````",
"````````````#P#Q#R#S````````````"
};
