/* XPM */
static const char *full_arrow_xpm[] = {
/* width height num_colors chars_per_pixel */
"    16    16      256            2",
/* colors */
"`` c None",
"`. c #cfd9eb",
"`# c #a2aecf",
"`a c #a4b1d0",
"`b c #bac3db",
"`c c #9aadd6",
"`d c #8fa5d3",
"`e c #728abd",
"`f c #7792ca",
"`g c #8999c4",
"`h c #a3b5d9",
"`i c #94aedc",
"`j c #8fa4cd",
"`k c #708ac0",
"`l c #6a8cce",
"`m c #a5b4d8",
"`n c #a5b9de",
"`o c #b2c1df",
"`p c #97a7cc",
"`q c #e4e8f1",
"`r c #728ac0",
"`s c #6d8ecf",
"`t c #8b9cc5",
"`u c #a2b2d6",
"`v c #a7bade",
"`w c #b5c3df",
"`x c #91a3ce",
"`y c #d0d7e9",
"`z c #7890c4",
"`A c #7495d2",
"`B c #8e9ec7",
"`C c #9badd5",
"`D c #90addd",
"`E c #9cb4de",
"`F c #9fb5de",
"`G c #9ab2de",
"`H c #7f99cd",
"`I c #acbadb",
"`J c #8399c5",
"`K c #98aed3",
"`L c #91a3c9",
"`M c #90a6d3",
"`N c #6397d9",
"`O c #6499da",
"`P c #699bda",
"`Q c #6f9cdb",
"`R c #7e9cd7",
"`S c #aab6d8",
"`T c #8aa0c9",
"`U c #a0b7d8",
"`V c #94a4ca",
"`W c #8ba2d3",
"`X c #5891d9",
"`Y c #5991d9",
"`Z c #5b92d9",
"`0 c #7595d2",
"`1 c #c8d0e4",
"`2 c #8ea5cc",
"`3 c #a9c0dd",
"`4 c #96a7cc",
"`5 c #87a0d4",
"`6 c #538ed9",
"`7 c #588fda",
"`8 c #7894ce",
".` c #dadfed",
".. c #8ca3ca",
".# c #a2b9d9",
".a c #5b8fda",
".b c #839acc",
".c c #889ec6",
".d c #9ab0d4",
".e c #91a1c9",
".f c #859acc",
".g c #91a1cf",
".h c #8096c3",
".i c #91a7cf",
".j c #ced5e7",
".k c #a9b5d3",
".l c #a8b3d2",
".m c #c1cbdf",
".n c #000000",
".o c #000000",
".p c #000000",
".q c #000000",
".r c #000000",
".s c #000000",
".t c #000000",
".u c #000000",
".v c #000000",
".w c #000000",
".x c #000000",
".y c #000000",
".z c #000000",
".A c #000000",
".B c #000000",
".C c #000000",
".D c #000000",
".E c #000000",
".F c #000000",
".G c #000000",
".H c #000000",
".I c #000000",
".J c #000000",
".K c #000000",
".L c #000000",
".M c #000000",
".N c #000000",
".O c #000000",
".P c #000000",
".Q c #000000",
".R c #000000",
".S c #000000",
".T c #000000",
".U c #000000",
".V c #000000",
".W c #000000",
".X c #000000",
".Y c #000000",
".Z c #000000",
".0 c #000000",
".1 c #000000",
".2 c #000000",
".3 c #000000",
".4 c #000000",
".5 c #000000",
".6 c #000000",
".7 c #000000",
".8 c #000000",
"#` c #000000",
"#. c #000000",
"## c #000000",
"#a c #000000",
"#b c #000000",
"#c c #000000",
"#d c #000000",
"#e c #000000",
"#f c #000000",
"#g c #000000",
"#h c #000000",
"#i c #000000",
"#j c #000000",
"#k c #000000",
"#l c #000000",
"#m c #000000",
"#n c #000000",
"#o c #000000",
"#p c #000000",
"#q c #000000",
"#r c #000000",
"#s c #000000",
"#t c #000000",
"#u c #000000",
"#v c #000000",
"#w c #000000",
"#x c #000000",
"#y c #000000",
"#z c #000000",
"#A c #000000",
"#B c #000000",
"#C c #000000",
"#D c #000000",
"#E c #000000",
"#F c #000000",
"#G c #000000",
"#H c #000000",
"#I c #000000",
"#J c #000000",
"#K c #000000",
"#L c #000000",
"#M c #000000",
"#N c #000000",
"#O c #000000",
"#P c #000000",
"#Q c #000000",
"#R c #000000",
"#S c #000000",
"#T c #000000",
"#U c #000000",
"#V c #000000",
"#W c #000000",
"#X c #000000",
"#Y c #000000",
"#Z c #000000",
"#0 c #000000",
"#1 c #000000",
"#2 c #000000",
"#3 c #000000",
"#4 c #000000",
"#5 c #000000",
"#6 c #000000",
"#7 c #000000",
"#8 c #000000",
"a` c #000000",
"a. c #000000",
"a# c #000000",
"aa c #000000",
"ab c #000000",
"ac c #000000",
"ad c #000000",
"ae c #000000",
"af c #000000",
"ag c #000000",
"ah c #000000",
"ai c #000000",
"aj c #000000",
"ak c #000000",
"al c #000000",
"am c #000000",
"an c #000000",
"ao c #000000",
"ap c #000000",
"aq c #000000",
"ar c #000000",
"as c #000000",
"at c #000000",
"au c #000000",
"av c #000000",
"aw c #000000",
"ax c #000000",
"ay c #000000",
"az c #000000",
"aA c #000000",
"aB c #000000",
"aC c #000000",
"aD c #000000",
"aE c #000000",
"aF c #000000",
"aG c #000000",
"aH c #000000",
"aI c #000000",
"aJ c #000000",
"aK c #000000",
"aL c #000000",
"aM c #000000",
"aN c #000000",
"aO c #000000",
"aP c #000000",
"aQ c #000000",
"aR c #000000",
"aS c #000000",
"aT c #000000",
"aU c #000000",
"aV c #000000",
"aW c #000000",
"aX c #000000",
"aY c #000000",
"aZ c #000000",
"a0 c #000000",
"a1 c #000000",
"a2 c #000000",
"a3 c #000000",
"a4 c #000000",
"a5 c #000000",
"a6 c #000000",
"a7 c #000000",
"a8 c #000000",
/* pixels */
"````````````````````````````````",
"````````````````````````````````",
"```````.`````````````#`a`b``````",
"```````c`d```````````e`f`g``````",
"```````h`i`j`````````k`l`g``````",
"```````m`n`o`p`q`````r`s`t``````",
"```````u`v`o`w`x`y```z`A`B``````",
"```````C`D`E`F`G`H`I`J`K`L``````",
"```````M`N`O`P`Q`R`S`T`U`V``````",
"```````W`X`Y`Z`0`1```2`3`4``````",
"```````5`6`7`8.`````...#`V``````",
"```````5.a.b````````.c.d.e``````",
"``````.f.g``````````.h.i`B``````",
"``````.j````````````.k.l.m``````",
"````````````````````````````````",
"````````````````````````````````"
};
