/* XPM */
static const char *geography16_xpm[] = {
/* width height num_colors chars_per_pixel */
"   240    16      256            2",
/* colors */
"`` c #040204",
"`. c #308418",
"`# c #9c9c9d",
"`a c #48c41c",
"`b c None",
"`c c #3c424c",
"`d c #4384ae",
"`e c #44454b",
"`f c #778597",
"`g c #6ba4ca",
"`h c #fcce04",
"`i c #044294",
"`j c #446a6c",
"`k c #0462a4",
"`l c #888c92",
"`m c #9cbdd8",
"`n c #646467",
"`o c #4fa4c9",
"`p c #244681",
"`q c #89a3ba",
"`r c #041cb4",
"`s c #2446ac",
"`t c #a4cee4",
"`u c #648a64",
"`v c #bcb9b8",
"`w c #d4d2d4",
"`x c #6495ba",
"`y c #4c89bc",
"`z c #4864b0",
"`A c #48a428",
"`B c #848dc6",
"`C c #88b5d3",
"`D c #043189",
"`E c #2c647c",
"`F c #2c5674",
"`G c #5cc68c",
"`H c #4459af",
"`I c #247eb4",
"`J c #6474b0",
"`K c #abadad",
"`L c #fcfe9c",
"`M c #4cb2b4",
"`N c #c4c3c5",
"`O c #7184cd",
"`P c #4c76a4",
"`Q c #5ce6fc",
"`R c #3c8a4c",
"`S c #4493bc",
"`T c #6cb6d4",
"`U c #072ebc",
"`V c #162835",
"`W c #6c727c",
"`X c #3052a8",
"`Y c #545556",
"`Z c #8898a5",
"`0 c #a1c4dd",
"`1 c #cccecb",
"`2 c #7b95a9",
"`3 c #4c9e9c",
"`4 c #365382",
"`5 c #343534",
"`6 c #2c82bc",
"`7 c #77a4c6",
"`8 c #8abbd8",
".` c #1f3ea4",
".. c #86c7e1",
".# c #379314",
".a c #24790c",
".b c #44729c",
".c c #44a5ec",
".d c #94a4d8",
".e c #5865b8",
".f c #4ca66c",
".g c #8998cc",
".h c #2c66a4",
".i c #aab1ca",
".j c #bfc6dc",
".k c #798ccf",
".l c #394d7b",
".m c #043c90",
".n c #2c5ea4",
".o c #dbdede",
".p c #ccc9c8",
".q c #79add1",
".r c #4caebc",
".s c #041dc4",
".t c #44b61c",
".u c #34768c",
".v c #ececec",
".w c #24232c",
".x c #b0d0e7",
".y c #5391bd",
".z c #50c2f4",
".A c #747474",
".B c #515a61",
".C c #94969a",
".D c #accae1",
".E c #34666c",
".F c #3474b6",
".G c #f6f7f6",
".H c #9ea3c4",
".I c #5c626c",
".J c #6c6d6d",
".K c #284b82",
".L c #8cacbf",
".M c #689cc4",
".N c #245591",
".O c #b4b1b1",
".P c #949dcd",
".Q c #4cd62c",
".R c #3c8aa0",
".S c #4c4c4e",
".T c #949294",
".U c #b4b6b5",
".V c #4a65bf",
".W c #54a23c",
".X c #94b4d0",
".Y c #0430a1",
".Z c #346e74",
".0 c #455eb1",
".1 c #c4cac7",
".2 c #7c86c6",
".3 c #3c55b7",
".4 c #a4cae3",
".5 c #7c92d4",
".6 c #375a94",
".7 c #4087bc",
".8 c #94bddb",
"#` c #3c923c",
"#. c #6cb65c",
"## c #fcfe04",
"#a c #045ca4",
"#b c #64c644",
"#c c #1c1e1c",
"#d c #2c5e6c",
"#e c #58d4fc",
"#f c #c0e4f4",
"#g c #848384",
"#h c #4cb7f4",
"#i c #69fbfc",
"#j c #0c6eac",
"#k c #1c427c",
"#l c #4c9a4c",
"#m c #347a4c",
"#n c #5c72c8",
"#o c #143edc",
"#p c #64e63c",
"#q c #3749b9",
"#r c #388834",
"#s c #bcd8ec",
"#t c #5a7693",
"#u c #6f8a9c",
"#v c #4c99c0",
"#w c #446294",
"#x c #5cc62c",
"#y c #40ae18",
"#z c #3c3c3e",
"#A c #419d21",
"#B c #86aed0",
"#C c #2c6ba9",
"#D c #5cd6a4",
"#E c #44967c",
"#F c #6a7cc9",
"#G c #6cbedc",
"#H c #54cedc",
"#I c #7c7c7c",
"#J c #547eac",
"#K c #377361",
"#L c #1c42ac",
"#M c #94a2a4",
"#N c #5cb6d4",
"#O c #bcbbc9",
"#P c #4cba24",
"#Q c #344e64",
"#R c #546cbc",
"#S c #2b2c30",
"#T c #5c6b83",
"#U c #0425a4",
"#V c #e4e4e4",
"#W c #348c18",
"#X c #a3a3a5",
"#Y c #d7d8d8",
"#Z c #687b8c",
"#0 c #799bb4",
"#1 c #3c5d74",
"#2 c #2c5c97",
"#3 c #50ac4c",
"#4 c #456d84",
"#5 c #143ea0",
"#6 c #3c5baf",
"#7 c #7c8eac",
"#8 c #94c3dc",
"a` c #1c76b4",
"a. c #5c97c4",
"a# c #b4d8ec",
"aa c #3c586c",
"ab c #4cae2c",
"ac c #64effc",
"ad c #54defc",
"ae c #2c42cc",
"af c #3c647b",
"ag c #54b3d4",
"ah c #3c6394",
"ai c #b4b2d4",
"aj c #53add0",
"ak c #5c90b4",
"al c #5c5c5d",
"am c #b3bad2",
"an c #3c6e9c",
"ao c #449ac4",
"ap c #4cae74",
"aq c #3c7aa4",
"ar c #f4f2f4",
"as c #3c8ed4",
"at c #044d9a",
"au c #5c8a84",
"av c #7cb2d0",
"aw c #24429c",
"ax c #6476cc",
"ay c #54cdfc",
"az c #8492ca",
"aA c #949eac",
"aB c #64ce5c",
"aC c #84929c",
"aD c #1c2e3c",
"aE c #3b7aad",
"aF c #5cd634",
"aG c #07369f",
"aH c #344ebc",
"aI c #5c7e9c",
"aJ c #347a5c",
"aK c #3c92d4",
"aL c #3c922c",
"aM c #54a880",
"aN c #0c3aa4",
"aO c #3cb234",
"aP c #3a749f",
"aQ c #596681",
"aR c #244d90",
"aS c #448bb4",
"aT c #3a6a86",
"aU c #3c89cf",
"aV c #747e94",
"aW c #0c6aac",
"aX c #9cd6ec",
"aY c #0c368c",
"aZ c #467eaa",
"a0 c #409250",
"a1 c #849eac",
"a2 c #fcfefc",
"a3 c #449a44",
"a4 c #bcbebc",
"a5 c #3452bc",
"a6 c #2c7e0c",
"a7 c #44aaf4",
"a8 c #0422c8",
/* pixels */
"`b`b`b.S`b`b`b`b`b`b`b`b`b`b`b`b`b`b`b`b`b`b.T`##g`b`b`b`b`b`b`b`b`b`b`K`Za1`Z.B`n`b`Y`Y.S`b.S.S`b`b`b`K`Za1`ZaA`b`b`b`b`b`b`b`b`b`b`b`b`b`b`b`b`b`b`b`b`b`b`b`b`b`b`b`b`b`b`b`b`b`b`b`b`b`b`b`b`b`b`b`b`b`b`b`b`b`b`b`b`b`b`b`b`b`b`b`b`b`b`b`b`b`b`b`b`b`b`b`b`b`b`b`b`b`b`b`b`b`b`b`b`b`b`b`b`b`b`b`b`b`b`b`b`b`b`b`b`b`b`b`b`b`b`b`b`b`b.pa4a4`N`b`b`b`b`b`b`b`b`b`b`b`b`b`b`b`b`b`b`b`b`b`b.w`b`b`b`b`b`b`b`bam.g`Oazam`b`b`b`b`b#g``````#I`b`b`b`b`b`b`b`b`b`b`b#g``````#I`b`b`b`b`b`b`b`b",
"`b`b`b.S.S`b`b`b`b`b`b`b`b`b`b`b`b`b`b`b`b`b.O.G#g`b.O#X`b`b`b`b`b`b`Z`m`0`0`0#T`q`b`b`b`b`b`b.S`b`b`Z`m`0`0`0`m`q`b`b`b`b`b`b`b`b`b`b`b`b`2aC#u`f#7`2`b`b`b`b`b`b`b`b`b`baCaC#u`f#7aC`b`b`b`b`b`b`b`b`b`baC`Jah#ZaC`b`b`b`b`b`b`b`b`b`b`baC`Jah#ZaC`b`b`b`b`b`b`b`b.T#I.J.J.T`b`b.T#I.J.J.T`b`b`b`b`b`b`b#.#b#3#3.6au`b`b`b`b`b`b`b`b`b`wai.P.P.P.dai`N`b`b`b`b`b`b`b`b`b`b`b`b`b`b`b`b`b`b`b`b#S`W`b`b`b`b`b`b#O`O.2.j`B.k.j`b`b`b``#I#I#I#g#I```b`b`b`b`b`b`b`b`b``#I#I#I#g#I```b`b`b`b`b`b`b",
"`b`b`b`e`l`e`b`b`b`b`b`b`b`b`b`b`b`b`b#I`b`b`Ka2.C#ga2`N.A`b`b`b`b`Z`m`7a..y.M#4.8`q`b`b`b`b`b.S`b`Z`m`7a.aZ.M.q.8`q`b`b`b`b`b`b`b`b`b`b`2.X`m.x.x`0.X`2`b`b`b`b`b`b`b`b`2.X`m.x.x`0.X`2`b`b`b`b`b`b`b.C.M#8a##fa##8.M.C`b`b`b`b`b`b`b.C.M#8a##fa##8.M.C`b`b`b`b`b`b.T#I.J.J.T`b`b.T#I.J.J.T`b`b`b`b`b`b#xaMaB`3aMaP.N#K`b`b`b`b`b`b`b`N.P.k`O.k.k`O.k.P#O`b`b`b`b`b`b`b`b`b`b`b`b`b`b`b`b`b`b`b`Y`w`n`b`b`b`b#O`Oax.k.j`B`O.5#O`b``#I`N`b`b`b`N#g```b`b`b`b`b`b`b``#I`N`b`b`b`N#g```b`b`b`b`b`b",
"`b`b`b`e#g#I`e`b`b`b`b`b`b`b`b`b`b`b#g.v`K`b#Xa2.C`la2`v.J`b`b`b`K`m`7`ya..M`g`g.q`m`Z`b`b`b`b`b`K`m`7`y`x`Vak`g.q`m`Z`b`b`b`b`b`b`b`ba1`m#B.Mak.y`7`C.8#0`b`b`b`b`b`ba1`m#B.Makak`7`C.8#0`b`b`b`b`b`f`8#faX..#Gag#G...q#u`b`b`b`b`b`f`8#faX..#Gag#G...q#u`b`b`b`b#X#g#g.J.J#g`b`b.T.A#I.J.J#g`b`b`b`b#P`aaF#p`GaU.F#2`E`.`b`b`b`b`b.j.g`O#F`O.o#V.k`O.k.g#O`b`b`b`b`b`b`b`b`b`##g`b`b`b`b`b`b`b`ca2#Y`n`b`b`baz`O`O`O.H#F.V#naz#g#I`N`b`b```b`ba4#g#g`b`b`b`b`b#g#I`N`b`b`b`b`ba4#g#g`b`b`b`b`b",
"`b`b`b`e#I.J`n#z`b`b`b`b`b`b`b`b`b`b.Tar.v#g#ga2`#`la2`v#I`b#g`baC`0a.a.`g`g.q#t`C`0`q`b`b`b`b.SaC`0a.a.`V`V`V`x`C`0`q`b`b`b`b`b`b`b`2`m.M`d`y`ya.a..M.q.8`2`b`b`b`b`2`m.M`y`y`y.ya..M.q.8`2`b`b`b`Z`Ca#..#Nag#Nagagagag.M`Z`b`b`b`Z`Ca#..#Nag#Nagagagag.M`Z`b`b`##X.C`l#I.J`n#I#I#g`l#g#I.A.J#g`b`bab.t`a.Q#D.z.cas.F#2`R.E`b`b`b`w.P`O#F#F`O`w`w`B`O.2.k.P`N`b`b`b`b`b`b`b`Ka2`N#g#I`N`b`b`b`b`ea2a2.o`n`b`baz`O.e#R`v#w.Y.Yaw``#I`b`b`b```b`b`b#g```b`b`b`b`b``#I`b`b`b`b`b`b`b#g```b`b`b`b`b",
"`b`b`b.S.J`nal.S`5`b`b`b`b`b`b`b`b`b`b`Ka2`v#gar`##ga2`v.J.Oa2#I`2`ma.`g`7.q`C#t`8`t`7`b`b`b`b.S`2`ma..M`7.q#B`8.8.4`7`b`b`b`b`b`baC.X#B`y`y.ya.a..M`g`7`8#BaC`b`baC.X#B`y`y`y`DaG.M`g`7`8#BaC`b`b`xa#..agag#NaT#Nagajajaj#J`b`b`b`xa#..agag#NaT#Nagajajaj#J`b`b#X`w.O`##g.Aal`n.A#X`w`v`##g.Jal`b#t#y#yaO#Hacacay.caU#C.E`A#t`b`bai.2#F`O`O`O`Baz`O`B.5.5.5.i`b`b`b`b`b`N`K#Xa2.O`la2`v.J`b`b`b`ea2a2a2`w`n`b.2.VaH.V.p`H`D#U.0``#g`b```````````b#I```b`b`b`b`b``#g`b```````````b#I```b`b`b`b`b",
"`b`b`b`e`nal`Y`e#z#S`b`b`b`b`b`b`b`b`b#Iar#V`N.Ga4`Ka2.p.A#V#V.J`2`C.M`g.q`8.8#Z#Za#.B.J`n`b.S.S`2`C.Ma.aD`VaD#B`0.x.L`b`b`b`b`b`baC`m.M`y.ya..M`g.q.q.q`8`maC`b`baC`m.M`y.ya..m`i`g.qav`8`maC`baA`C..ajajaj#4aTajajajaj`o`d`#`baA`C..ajajajaj#4aTajajaj`o`d`#`b#X.p.O`##g.Jal`n.A#X`N.O`##I.Jal`b`Fa3.R`M#e#i#i`Q#haK.F#m#W.W`b.p.P`O`O`O`O.k#O`v`J.0.0.V#naz`N`b`b`b.T.G.v`Nar`N`K.G.p.J.O`b`b`ea2a2a2a2`w`nai.3aH#na2`z`r.sam``#I`b`b`b```b`b`b#g```b`b`b`b`b``#I`b`b`b`b`b`b`b#g```b`b`b`b`b",
"`b`b`b.S`Y`Y`e`e`5#S#c`b`b`b`b`b`b#g#g`b#I.va2a2ar.var.G.Oa2`N#gaA#B.q.q`C`0`0.x.x.x`q`b`b`b`b`baA#B.q.q`7`V#B.Da#.x`q`b`b`b`b`b`b#u`0ak.y`D.mat#a#aaW`8`8.D#u`b`b#u`0ak.y`D.mat#a`k#j`C`8.D#u`b#t`8`T`oajafaf#4afafaf`oao`S#T`b#t`8`T`oaT#4aTafafaf`o`oao`S#T`b#X`N.O`##I.Jal`n.J#X.p`K`##g.Jal`b.Ka0.R.rayac#iad#haK.F#m`.#A`ba4.P`O`O`O#R.e`K`K.0#5#L#5aN#q.O`b`b`b`Nar.va2a2ar.var.G.G.v#I`b`ea2a2a2.Ga2.j`#.i#qa5`qaw`r.d`b#g#I`N`b`b```b`b`N#I#g`b`b`b`b`b#g#I`N`b`b`b`b`b`N#I#g`b`b`b`b`b",
"`b`b`b`e.S`e`e`5#S#S.w#c`b`b`b`b.Aa2.o#g`b`Ka2.G.G.Gar.G.Gar#I`b`b#0`C`C.8`0`ta##f`0#g`b`b`b`b`b`b`2`C`C.8#B.Da##s`0`l`b`b`b`b`b`b`f.8a.a..mat#aaWa``6#8`0.4#u`b`b`f.8a.a..mat#aaWa``6#8`0.x#u`b#w`8`o`oaa#1#1#1afaf#1aoao#v.l`b#w`8`o`oaaaf#1af#1#1aaaoao#v.l`b#X.p`K`##g.Jal`n.J#X.p.O`##I.Aal`b`p`E#EaUagay#e.z.caU#C.Z#A#l`ba4az.kax`Ha5.V`K`v`HaNaNaG.Y`p.O`b`b`b#g`va2a2.G.Gar.G.Garar#I`b`ea2a2.G.Gar.G`v.Cam#R.`.3ai`b`b`b``#ga4`b`b`b`N#I```K`b`b`b`b`b`b``#ga4`b`b`b`N#I```K`b`b`b`b`b",
"`b`b`b`e`e`e`5`5`5`b`b`b`b`b`b`b`b.C.G.v.T#Xa2ararararar.v`w#I`b`b`b`q.8`t.xa#a#`0`f`Y`b`b`b`b`b`b`b`q.8.4a#a#a#`0#u`Y`b`b`b`b`b`b#7#B.M.M`g.q`C.8`0`0`0`t`0aC`b`b#7#B.M.M`g.q#j`I`0`0`0`t`0#7`b#t`g#v#v#v#Qaaaa#1#1aa`S`S`d#T`b#t`g#v#vaa#1#1aaaa#Q`S`S`S`d#T`b#X.p.O`##g.Jal.J.A#X`N.O`##I.A`Y`b.l`p.u.fap.ra7.cas.F.h.NaTaI`b.p.P#n.3.3a5.V`N`w.6`D.Y.Y#U#6.p`b`b.Aa2.pa2a2arar.Gararar`w#I`b`ea2.Ga2ar.v.v.v`v.B`b`b`b`b`b`b`b`b``#g#g#g#I#g``a4#g##`b`b`b`b`b`b``#g#g#g#I#g``a4#g##`b`b`b`b",
"`b`b`b#z#z#z`b`5#S`b`b`b`b`b`b`b`b`b#gara2.vararar.G.v.v#V`K`l`b`b`b`b`Z#0.L.LaA`l`Y.A`Y#z`b`b`b`b`b`b`Z#0`q.L`q`l`Y.A`Y`5`b`b`b`baC`7.q`g.q`C`8`0.4`t`ta#.XaC`b`baC`7.q`g.q`C`IaU.4`t`t.x.XaC`baAak.y`S`S`S#Qaa`S`SaSaSaSaP`#`baAak.y`S`S`S`Saa#Q`SaSaSaSaP`#`b`#.O#X.T.A.Aal#g.C`#.O#X.T.A.Aal`b#7`p.Nab#A.#a0`6.F#C.h#2aR#7`b`baA#q`H.3.3.0`w.v.6#U`U`U`r.2`b`b`b.C.G.G.varararar.v.v#V`K`l`b`e.Ga2`w.v.p.S`n#T.S`b`b`b`b`b`b`b`b`b#I``````#I`K#I`L#g`5`b`b`b`b`b`b#I``````#I`K#I`L#g`5`b`b`b",
"`b`b`b#z#z`b`b`b`5#S`b`b`b`b`b`b`b`b`l.par.v#V.v.v#V#V#V#Y#g.O`b`b`b`b`b`b`b`b`b`b`b#g`#al#z`b`b`b`b`b`b`b`b`b`b`b`b#g`#`n#z`b`b`b`b`2#B#Bav`8#8`0`t.xa#.4`2`b`b`b`b`2#B#Bav`8.8`0`t.xa#.D`2`b`b`b.b.y`daSaSaSaaaS`daS`d`d.6`b`b`b.b.y`daS`yaSaaaS`daS`d`d.6`b`b.T.T`l.A.J`Yal`b`b.T.T`l.A.J`Yal`b`b.K.KaL#W.a.a#r`RaT.N.N.6`b`b`b.p.e.3.VaH.V.va2#6#U`U.sae`N`b`b`b`l.parar#V.v.v#V#V#V#Y#g`K`b`ca2#V`e#I`wal`b`b`b`b`b`b`b`b`b`b`b`b`b`b`b`b`b`b`h```5#g`5`b`b`b`b`b`b`b`b`b`b`b`h```5#g`5`b`b",
"`b`b`b`5`b`b`b`b`5`5`b`b`b`b`b`b`b`b`b#I`N#V.o.o.o.o#Y#Ya4.J`b`b`b`b`b`b`b`b`b`b`b`b#z#X`#`n`e`b`b`b`b`b`b`b`b`b`b`b#z`#`#al`e`b`b`b`b#0`C#8`m`0.4.xa#.D`q`b`b`b`b`b`b#0`C#8.8`0.4.x#s`0`q`b`b`b`b.C`P`daZ`d`daE`daE`daEah.C`b`b`b.C`P`d`d`d`d`d`daE`daEah.C`b`b`#.T#X#I`nal`b`b`b`b.T#X#I`nal`#`b`b`b`p#d#Wa6.a`.#`.NaR.K`b`b`b`b`bai`HaHa5.3.o.v`X#U.s#o.i`b`b`b`b`b#I`N#V.o.o.o.o#Y#Ya4.J`b`b`Y#V#z`b.B.o`l#g`b`b`b`b`b`b`b`b`b`b`b`b`b`b`b`b`b`b`````5#g`5`b`b`b`b`b`b`b`b`b`b`b`````5#g`5`b",
"`b`b`b`b`b`b`b`b`b#S#S`b`b`b`b`b`b`b`b`b`n.p#Y`w#Y`w.p.p.C.T`b`b`b`b`b`b`b`b`b`b`b`b`b.S#X.C.Jal`b`b`b`b`b`b`b`b`b`b`b.S#X`#.Jal`b`b`b`b#7#B#8.xa#.4.X`2`b`b`b`b`b`b`b`b#7#B`0.xa#.4.X`2`b`b`b`b`b`baV.baPaEaEaZaqaEaqah#Z`b`b`b`b`baV.baPaEaqaqaqaEaqah#Z`b`b`b.C`l`#.A`n`Y`b`b`b`b`l`#.A`n`Y.C`b`b`b`b.l#K.#.##m#d`p.l`b`b`b`b`b`b`b.i.eaH`s#5`D#U`rae.i`b`b`b`b`b`b`b`n.p`w#Y`w`w.p.p.C.T`b`b`5`c`b`b`b`W`w.I`b`b`b`b`b`b`b`b`b`b`b`b`b`b`b`b`b`b`b`````5#g`5`b`b`b`b`b`b`b`b`b`b`b`````5#g`5",
"`b`b`b`b`b`b`b`b`b#S#S`b`b`b`b`b`b`b`b`b`b#X.o.o#Y`w.p`v.J`b`b`b`b`b`b`b`b`b`b`b`b`b`b`b`Y#X#X#I`b`b`b`b`b`b`b`b`b`b`b`b`Y#X#X#I`b`b`b`b`baCaC#u#u#7aC`b`b`b`b`b`b`b`b`b`baC#7#u#uaCaC`b`b`b`b`b`b`b`b.C#wahaPaPanah`4.T`b`b`b`b`b`b`b.C#wahanaPanah`4.T`b`b`b`b.C.A.A.Jalal`b`b`b`b.A.A.Jalal.C`b`b`b`b`b`Z`u`jaaaQ`l`b`b`b`b`b`b`b`b`b.p.P`J#6`X.0`B.1`b`b`b`b`b`b`b`b`b#X.o#Y#Y`w`1`v.J`b`b`b`b`b`b`b`b`Y.v`n`b`b`b`b`b`b`b`b`b`b`b`b`b`b`b`b`b`b`b`b`````5`5`b`b`b`b`b`b`b`b`b`b`b`b`````5`5",
"`b`b`b`b`b`b`b`b`b`b`b`b`b`b`b`b`b`b`b`b`b.Salalalal`nal`n`b`b`b`b`b`b`b`b`b`b`b`b`b`b`b`b`n#g.C`b`b`b`b`b`b`b`b`b`b`b`b`b`n#g.C`b`b`b`b`b`b`b`b`b`b`b`b`b`b`b`b`b`b`b`b`b`b`b`b`b`b`b`b`b`b`b`b`b`b`b`b`baC#T.laQaC`b`b`b`b`b`b`b`b`b`b`baC#T.laQaC`b`b`b`b`b`b`b`b`b`b`b`b`b`b`b`b`b`b`b`b`b`b`b`b`b`b`b`b`b`b`b`b`b`b`b`b`b`b`b`b`b`b`b`b.p.O.O`1`b`b`b`b`b`b`b`b`b`b`b.Salalal`n`nal`n`b`b`b`b`b`b`b`b`b#S`b`b`b`b`b`b`b`b`b`b`b`b`b`b`b`b`b`b`b`b`b`b`````b`b`b`b`b`b`b`b`b`b`b`b`b`b`````b"
};
