/* XPM */
static const char *globe_imglst14_xpm[] = {
/* width height num_colors chars_per_pixel */
"   420    14      256            2",
/* colors */
"`` c #202430",
"`. c #819387",
"`# c #545e50",
"`a c #846349",
"`b c #decc8b",
"`c c #b4a471",
"`d c #5b5d90",
"`e c #7c7dac",
"`f c #9494bb",
"`g c #717967",
"`h c #827c60",
"`i c #4d4442",
"`j c #655c48",
"`k c #9c8167",
"`l c #9ca68c",
"`m c #7f7c83",
"`n c #a09468",
"`o c #6c6b4f",
"`p c #b7adaf",
"`q c #667399",
"`r c #383a37",
"`s c #4c4d6d",
"`t c #c4b67c",
"`u c #9d9490",
"`v c #a2a4ce",
"`w c #7f865f",
"`x c #7c81d4",
"`y c #5b6b6d",
"`z c #fce79b",
"`A c #828787",
"`B c #3a3c56",
"`C c #675e66",
"`D c #6a5547",
"`E c #4b5f6f",
"`F c #8e93ea",
"`G c #666b6e",
"`H c #7275b9",
"`I c #ecd693",
"`J c #5b6797",
"`K c #8486ae",
"`L c #524f3f",
"`M c #83949c",
"`N c #d4c286",
"`O c #a29f7e",
"`P c #b4a58e",
"`Q c #8e7d5e",
"`R c #7c767a",
"`S c #8f8984",
"`T c #a0a095",
"`U c #748579",
"`V c #938860",
"`W c #656791",
"`X c #69634a",
"`Y c #717f8f",
"`Z c #42474a",
"`0 c #949f99",
"`1 c #44475d",
"`2 c #746d6f",
"`3 c #373537",
"`4 c #7c7055",
"`5 c #4e517d",
"`6 c #5c5b6f",
"`7 c #9a9de2",
"`8 c #687878",
".` c #8c8280",
".. c #747594",
".# c #c3b698",
".a c #505055",
".b c #6b6dad",
".c c #9f947a",
".d c #7e7c97",
".e c #f2e099",
".f c #586373",
".g c #dacdb1",
".h c #817d73",
".i c #9aa8a8",
".j c #c4bab1",
".k c #443d3a",
".l c #a4a4e4",
".m c #888cde",
".n c #68656b",
".o c #90939b",
".p c #8c715a",
".q c #59645c",
".r c #bfb07d",
".s c #7c7ec4",
".t c #8c89aa",
".u c #5c5151",
".v c #9c98ba",
".w c #51536d",
".x c #657273",
".y c #8c8997",
".z c #aca192",
".A c #928871",
".B c #746c50",
".C c None",
".D c #8c9a97",
".E c #ccbe85",
".F c #747abe",
".G c #6b6e90",
".H c #7d7165",
".I c #a9b3a4",
".J c #74666a",
".K c #e4d28b",
".L c #745c53",
".M c #fcf3a4",
".N c #444058",
".O c #bbae91",
".P c #747779",
".Q c #535655",
".R c #2c2f30",
".S c #4c4859",
".T c #6c72aa",
".U c #848896",
".V c #9195f6",
".W c #8d8171",
".X c #646581",
".Y c #646293",
".Z c #818284",
".0 c #5a6c7f",
".1 c #696c80",
".2 c #aca06f",
".3 c #9fa0aa",
".4 c #746454",
".5 c #a5aa9a",
".6 c #898dee",
".7 c #5c5a4d",
".8 c #b9aa7a",
"#` c #6a5b5a",
"#. c #ccc1ac",
"## c #b4b2e0",
"#a c #9c8e65",
"#b c #949377",
"#c c #e4d4a6",
"#d c #bcbad4",
"#e c #aca8bc",
"#f c #acaae8",
"#g c #ccbf9d",
"#h c #8c8dc8",
"#i c #fce299",
"#j c #ac8a6c",
"#k c #bab3b0",
"#l c #5c68ac",
"#m c #8386c8",
"#n c #343647",
"#o c #2c2a38",
"#p c #ac9a6c",
"#q c #3a3c48",
"#r c #9e98a9",
"#s c #d4c696",
"#t c #44486f",
"#u c #9ca3fc",
"#v c #9c9cd2",
"#w c #ccb97a",
"#x c #7c7690",
"#y c #c4b28c",
"#z c #aca67f",
"#A c #7476a9",
"#B c #9194d1",
"#C c #66565b",
"#D c #969cf9",
"#E c #ccba98",
"#F c #efe0a6",
"#G c #5c5668",
"#H c #747ccd",
"#I c #7c6a52",
"#J c #5c6294",
"#K c #687264",
"#L c #848e74",
"#M c #fceea1",
"#N c #3c425f",
"#O c #ecda97",
"#P c #a4aea6",
"#Q c #d0c6c0",
"#R c #949a7c",
"#S c #aca17f",
"#T c #5c5b60",
"#U c #aca6d4",
"#V c #b4aa96",
"#W c #747277",
"#X c #444243",
"#Y c #747261",
"#Z c #8482b1",
"#0 c #747e67",
"#1 c #7e8264",
"#2 c #4e4a44",
"#3 c #a49a6b",
"#4 c #6c7a99",
"#5 c #a09a92",
"#6 c #8386d6",
"#7 c #5c7274",
"#8 c #848e7c",
"a` c #d7c687",
"a. c #8d825e",
"a# c #928e83",
"aa c #948e64",
"ab c #444e4c",
"ac c #434e5a",
"ad c #7f7658",
"ae c #545682",
"af c #6c7e7c",
"ag c #a39a7c",
"ah c #7c82ca",
"ai c #8f8eb1",
"aj c #a29eb6",
"ak c #9c8e78",
"al c #4f5b61",
"am c #e0cd96",
"an c #5c5e9f",
"ao c #666b5e",
"ap c #b4aec4",
"aq c #c4b686",
"ar c #82876f",
"as c #fce9a4",
"at c #4c6284",
"au c #65689f",
"av c #696457",
"aw c #93a0a9",
"ax c #5a5b82",
"ay c #596383",
"az c #9094a8",
"aA c #bcb19f",
"aB c #a8a6a8",
"aC c #91928b",
"aD c #b9b3bf",
"aE c #242a34",
"aF c #a0866c",
"aG c #838297",
"aH c #808271",
"aI c #9caeac",
"aJ c #8f765c",
"aK c #8f8e98",
"aL c #928e70",
"aM c #7d7669",
"aN c #838e98",
"aO c #3c424a",
"aP c #a4aafc",
"aQ c #5c5650",
"aR c #677281",
"aS c #919aa8",
"aT c #6c6ea3",
"aU c #fcfaac",
"aV c #747e79",
"aW c #b4a67f",
"aX c #ecd6a0",
"aY c #b4a6a4",
"aZ c #746d7e",
"a0 c #c4bec4",
"a1 c #443e48",
"a2 c #aca2a1",
"a3 c #746d5f",
"a4 c #e4d396",
"a5 c #444265",
"a6 c #2c303e",
"a7 c #ccba85",
"a8 c #847eac",
/* pixels */
".C.C.C.CaF.0`8#1ar`0.C.C.C.C.C.C.C.C.Aat.0ar#L`0.C.C.C.C.C.C.C.C#I`E.0#1ar`..C.C.C.C.C.C.C.C#I`E`yaVar`U.C.C.C.C.C.C.C.C#I`EaR`yar`U.C.C.C.C.C.C.C.C.W.0`J`y`A.I.C.C.C.C.C.C.C.C.A`yayaR`g#P.C.C.C.C.C.C.C.C.A`8`E`J`8`0.C.C.C.C.C.C.C.C.c`Ualay`q.D.C.C.C.C.C.C.C.C.`aN`YataR`M.C.C.C.C.C.C.C.C.W`y.0ay`q`M.C.C.C.C.C.C.C.C.W`8`y.f#7`M.C.C.C.C.C.C.C.C.W.x`E`y.xaN.C.C.C.C.C.C.C.C.W`8`#al`8aC.C.C.C.C.C.C.C.C.W`8`g.q`U`0.C.C.C.C.C.C.C.C#j.Q`y#0aH`T.C.C.C.C.C.C.C.C.``8`w`war.D.C.C.C.C.C.C.C.Ca#af#0ar#R`l.C.C.C.C.C.C.C.C`S`U`gaoaN.i.C.C.C.C.C.C.C.C`S`y#0ao`8aw.C.C.C.C.C.C.C.C.``8.q.xaRaz.C.C.C.C.C.C.C.C.h`8#Kal#4`M.C.C.C.C.C.C.C.C.`af`g`#.0aS.C.C.C.C.C.C.C.C.h`8`g`gaR`M.C.C.C.C.C.C.C.C.h`8`g`##7aw.C.C.C.C.C.C.C.C.h`8`g#0.x`M.C.C.C.C.C.C.C.C.h`8#0#1`A.D.C.C.C.C.C.C.C.C`R`8#0#1#8`0.C.C.C.C.C.C.C.C`R.x#1#1#8`0.C.C.C.C.C.C.C.C.W.0#0arar.i.C.C.C.C",
".C.C.C`2`G`u#E.E.r`n#1.C.C.C.C.C.C`2.J`uaq.r.2#p#1.C.C.C.C.C.C#`aZ`m.O.E`n`h#1.C.C.C.C.C.C`j`W.d.c.E`na.#K.C.C.C.C.C.Cav`C`H.U.2.8.Bav.C.C.C.C.C.C.W.n#A`e`S#3`X.Q.C.C.C.C.C.C.h.W.Tah.TaC.B.w.C.C.C.C.C.C`G`u.d.F.s`e`R.q.C.C.C.C.C.Ca3.n`v#A#H.F`W.x.C.C.C.C.C.C.H`4#4.dau.Fau`W.C.C.C.C.C.CaM`4`S`S.1`JaTay.C.C.C.C.C.C.Ha.`G`Sak.a`d`W.C.C.C.C.C.Ca3`nag.W#z`V.N`W.C.C.C.C.C.Ca3.A#y#z.c.r#Y.a.C.C.C.C.C.CaMa.aq.E`c#S#aao.C.C.C.C.C.Caoad.c`ta``t.2.c.C.C.C.C.C.C.H#a.AaBaA#y#3#1.C.C.C.C.C.C.H.h.c`S`f#raCa#.C.C.C.C.C.CaM.H.yaC`e#Z..aG.C.C.C.C.C.C.H.A`2#h`e.TauaR.C.C.C.C.C.CaM.c.Aay#m.T`J`W.C.C.C.C.C.C.H.c.caM.Y.F.Y.G.C.C.C.C.C.C`4.c.c`maGauau.1.C.C.C.C.C.C`4.c.Oaa`6aT#J.G.C.C.C.C.C.C#Iag.r.E#a`6`5.G.C.C.C.C.C.C.4.caq#w.r.A.S.1.C.C.C.C.C.C.n#aaqa7.r.8`X.n.C.C.C.C.C.C`C.Aaq.E.r.ra..q.C.C.C.C.C.C`C.`.r.E.r.8aa.h.C.C.C.C.C.C.naZ`P.E`t.8aaaH.C.C.C",
".C.C#4..#g`I.8#Sam#w`c`4.C.C.C.CaR.saC`I.E.8ak.r`nad.C.C.C.C`y`H`faq.K`Q#5.r`n.u.C.C.C.C`8#A#m`uaqag`2`R`c`X.C.C.C.C`8`K.m#Z`T.A`G.1a#`o.C.C.C.C#4az.m`F`FaC.A`m.Wad.C.C.C.C`Gah#v.m`F.m#Z.A`nad.C.C.C.CaM`m#m#6`F.m#6ah.c`h.C.C.C.C`g`S#5.n`H`F#m.s#A.W.C.C.C.C.A.ZaA`c#G.F#6ahau.G.C.C.C.Car.r.c.j#w.a.F.s.bax.C.C.C.CaHaq`Ia7aX.r.Sahauax.C.C.C.Caraq#O`Ia`a4`t#Xauay.C.C.C.Car.O#O#O`I.Ka`#3.N#J.C.C.C.C.P#S.j.gaX`I`N`t`j`1.C.C.C.C.q.x.zaz.l.l#Q`b.ra..C.C.C.C#K.Uaj#m`F`F#B#e.z#Y.C.C.C.CaH.h#h#B#6.m#H#6`e.P.C.C.C.C.A.c.d.6.6.mah.F.b.X.C.C.C.Car#z`S`e.6.m#6#Hauay.C.C.C.C.A#z#5aG.s.m#6.sauay.C.C.C.Car#s.2`W#6#6ah#Hauay.C.C.C.Car#s#O.8.a.b#6.Fauay.C.C.C.CaH#s`I`z.r#T.X`Hauay.C.C.C.C`m.E#O`Ia4.2.n`6#J.X.C.C.C.C.P#g#O`Ia4`b`h#Taxay.C.C.C.C#W.##O`Ia4`b.E`h.Nay.C.C.C.C.1aA#O`Ia4`ba7.rad.w.C.C.C.C.1#V#F`Ia4a`.E#y#aao.C.C.C.CaR#5a4ama4`b.E.r`n`h.C.C",
".CaRa8`b`b#S#s.8.r.c.A.W#q.C.CaR#AaY`b.8`2.##O#Sa3.w.a.C.C.f#m#h#S.c.d`m.caWaW`j`B.C.C.f#m#D`fag`R`m.3#y`n.W.R.C.C.f#m.V#D.V`uaWa7.r.r`V#2.C.C`g#x`F#D#D.V#maqa`.8`n`j.C.C.x.c...6#D.V`F.6.j`t`nav.C.C`g.z.8#T`F#D`F.m`x.3.2`X.C.C.A#S.g#p#J.V`F.mah.s#x`j.C.Car`b`N#O.caT#D#6#m.Fau.a.C.Car.K#F.e.Ma.#J.Vah.sau`s.C.C`g.Kas.e`z.M.2`1#6.Fau`s.C.CaoaY#F#i.e#F`b.Aax`H#J`s.C.C`G.y.l#d.e#i#O`N.aax.w`6.C.C`G.t#h#D.V##.g#g#y`4.a.a.C.C.qao#B.m.V.V`F`F`7ajaK.n.C.C#Y.y.V.V#D.V`F#6`x.saT.a.C.C`g`S#h#D#D.V`F.m.s`H.Y`5.C.C#1#5`e`F#D.V`F.mah`H#J.w.C.C#b.8`e.m#D.V`F#6ah.F.Y.w.C.Car.e`nan#D.V`F.m.s`H`d.w.C.C.A`I#MaW.aah#D#6ah`H`d.w.C.C.A`I`z#M.A#W#J`F.s`H`d.w.C.C.A`I`z`z.E.W.1.G.s`H`d.w.C.Car`I`z.e#F.Kav`W.T`H`d.w.C.CaraX#i.e.e#O#O`c#q.F`d.w.C.CaHaX`z.e.e#Oa4.K`c.aae.w.C.CaMa4as.e.e#O.K`b`Na.#q.f.C.C.fam.e#y.e#O#O`b.r#3.4.a.C.C`qa#a4#s.c#y.e`b`N`n#`#T.C",
"az#A.z`P.Z`S#c.e.r.Q`d`e#X.ZaI`H#v`n...t#V.O`Oa7`j`d`5.P`..F#D.v.c`T#V#ca4.2aLav#N.f`U#A#D#D`F`P.e#O.Ka`.r`n.aal`.#W`F#D#D#D#e.eam`N.r`c.B.q.i.A.d#D#D#D.V.l.K`Naq`c.B`A#P.8ag#Z#D#D#D`F.m#S`t#3`X`A.I.ra4`R`F#D#D`F.m.m#A`Q`L`m.I`t#M.K.X#D#D.V.m#6#H.T#q.ZaI.rasaU.e.a.V.V`F#6ah#A#t`Aaw#5as`z#M.eav.b`F`x`HaT#t.U.i`H#Q`z#Mas#a.G.T`x.s.G`BaN.i`H.VaP#F`zas.2.a.X`WaKaQ`Aaw`H#D#D#D#fa0.##g`V`G.na3aCaw`H#u#D#D#u.V.V`F`f.t`W`6`T.5ac#h#D#D#u#D#D`F#6`x.F`daS.3.1.V#D#D#D#D.V.m#6.FaT#taN.5`m.m#D#D#D#D.V.m#6.F.T#taN.I`nah#D#u#D#D`F.m#6.F.T#taN.5a`.A#A#u#D#D`F`F#m.F.b#t`M.5a`#O.`ay#D#D`F.m#6.FaT#t.o.ia``z`N`2.G#6#D.m#m.F.T`1az.ia`as`z#a...G.m.m#m.F.b`1az.ia`as.e.M`N.a.s.m#6.FaT`1az.5`Nasas`z#i.M`Q`5.m.FaT#t.o.5`N`zasasas`z`Ia.ae#Aax#taS`T.ra4asas`z`z.K.Kada5#A#qaw`Taqaq.O.M.M#i.e.c`u`n.S.waS`0.raqaq#S#F#O.Ea4adax.U`1`0aN`SamaW.O`z.r#S.n#r`Q`1ay.5",
".Faza#az.ja4#S`P.2.S.F.T`dac.G.Vazaq#c#O#M.eaW#SaQ.wauacax#D#D#B#O.M`z.e.Ka`#y`4`1aO.Q.m#u#D`7aX`z#O`I`N`t`cava6.q`K#D#u#u`F#.#i`I`baq`c`Q`rar`u.6#u#u#D#D#h.r`b`naMa.`##b.E`e#D#u#D#D#D`F`H`h#T.w.7aL#M.2#HaP#D#D.V`F#m.s`d`sac#8.eaU`V.TaP#D.V.V.m.s#A`dac`m#cas.K.c.Y#D`F.m`H.bau`d`s#4`v#iaU.r.X`H#6`F.v.Z#T`Cac#4.V`7.g#O.e`4`m`C`K.O#3`4.Q#4#D#D#D.l#U#k.#`S`m#xaW`V.7#4#D#D#D#u#D.V`F`F#m.s#A`S.7#4.V#D#u#u#D#D`F.m#6#H.b#J.q.q.T#D#u#D#u#D#D`F.m#6.FaT.X`8.V#D#u#u#u#D.V`F#m.s.T`d.w`g.t#D#u#u#D#D.V.m.m.s.baxacag.A.s#u#D#u#D.V.m#6.s.bax.a`Oaq`G#m#u#D#D.V.m#6.saTax`1`O#OaL.X#m#D#D`F.m#6#HaTaeac`O`z.K`G`e.m#D.V.m#6.saTaeac`O#i`zaU#aaeaP`F.m#6.saTaeac`O#i`zas.M`b.a#6.m#6.F.baxac#b#O`z#M.M.M.8.a#h.G.Y.b.wacar#gas#M.M`I`b.K`L`d.t.w`C`Z#b.r#gaU.M#Ma7aZ`p.A.a.t.a.a#b.c#s.Ea4aW#s`N#X#H`f.n`R`Z`A#5`uas#OaW`j.T#e.4#t#m`2`Z`Y`S#x.y.O#F#O`Q`5#6ah.w#J.a",
"#laj#i#M#M#M`Iaq#S`Z#A.T#J#n#J.VaD.M#Mas#i#O`Ia``o`5au#nay.V.V.j#M`zas.eam`N.E`j`s`Bae#D#D#Daj`z#M#O`Na`.r.2av`3`6.V#D#D#u.V`u`b`ta3`m#pa.#2`oah#u#D#u#D#D`F..`2ax#J`R`Laa.A.6aP#D#u#D.V.m#6.bau.Y`1aa`N.n#D#D#D#D#D.6.m.s.Tau`B`m#iak...6#D#D#m`H.F.F#J`d#n`J#.`z`h.b#m#D`v`paL`R.h.aa6au#D`p#s`t.W.W.X.ja`#wagad.Rau#D#D#D#vap`uai`eaz`N.2`V.k`J#D#D#D#u#D.V.6#6#6#Ha2`V#Xau#D#D#u#D#D#D.V.m#6.s.b..#2`J#D#D#u#D#D#D.V`F#6.F.T`d#q`Zah#D#D#u#D#D.V`F.m#6`HaT`sax#D#D#u#D#D#D.V.m#6#HaT`d`3.a#6#u#D#u#D#D.V.m#6.F.b`d#nao.G.V#u#D#D#D.V.m#6.saTae#n#b.h.s#D#D#D#D`F.m#6.F.bax#n.2`I`C.V#D#u#D`F.m#6.FaT`d`3.2as#iav`FaP#D`F.mah#HaTax#n.2#M#M.K#Wah#B.6.m#6.s.bae#n#3#Mas#M#O`L#H.v.w#6`eaxae#naL.e#M.e.8aX`n`B`F.1.X#x#XaE.Aa4`I`z`I`G#haAaQ`e`maQal#n`Ga4.E.c`u#c`Xan.Vaz#T.h.a#q.1`Tasa4ad`d.V#5`i.b#h`m.a`Z`Ra2.Oaq#F.2ae.V.6#ZauaT`5`Z.G.#.gas`b.c.O.Q`H.m.F.Taxa6",
"#l.j`zasas#i.e`z`c`1.F.b`d#n#J.mam#M#M#M.e`I.K.ra1auax#n`d#D`F#V.M`z#w`N.K.E`t.B.wa6`J.V#D#D#6#z`t.W.Xa#.r.2a3.Rae#D#D#D#D#D#6.G.Y`H.baK`V`r.a.m#D#D#D#D#D.V.m#H.F.b.d#2`j#A`F#D.V#D#D`F`F#6.s.b`d#qada##H#D#u#v.t.T#h`e`d.baxa6ay.#aM.d#h###.a7`n#a.c#Xae#n`J#haY`Ta#aoa2.e.K`N`t`n#2a6`J.V`F.V`f#m#h#m#.`b.8.2ad.Rau.V#D#D#D.V`F.6.m.maA#p`Q`rau.V#D#D#D#D#D`F.m#6.F`H.h.kau#D#D#D#D#D#D`F.m#6`H.b`daOau#D#D#D#D#D#D`F.mah.saTax#n`Zah#D#D#D#D#D.V`F.mah`Hau`sau#D#D#D#D#D.V`F.m#m.FaTaxa6ae#D#D#D#D#D.V`F.m#m.FaTae`r.n#6#u#D#D#D#D`F.mah.FaTae#n`VaG.V#u#D#D.V`F.m#m.FaTaea6.2.raT#u#u#D.V`F.m#6.FaTaea6#3.e`V`H#B#6.V`F`F#6.FaTaea6#3`N#O`nae.l.n.F#u..aeauaea6`V.K.2#5`N.a.s`f`6`e`ma1`1#n`Vakam`Q`H.l.Waeap`XaQ.G.a```O.8.w`v`n.S.V`7aM`2#K`6`R`r#a#s.r`6.6#vao`d`F#m`m`s`R#2#za4`Paq.f`F#D.mah#H.Fau.Y.a`c`z#Maq.OavaT.V#6#6.FaT#t.Q.`#Oasasas#O`N.7au#6.Fauae#o",
"`q#V.e.e#i.e#O#O`4#t`e`dae#X`q.m`T`I`cag.Ka4a`#waQ#T.SaOay`F`F#m#a`R.T..aWa7.8av.a.Rax`F`F#D#D.saT#H.m`H#S.2.u.R.f.m.V#D#D#D.V`F.mah.F`e`h.R`G.m`7.m.V.V.V.m.mah`Hauax#2#K.d`7#d.3`m#Z.v`6.T.Fauae`1aR.`#W#e#cam.E`ca7ad`B.Tae`Z`q#hazaGaGaX.e`I`ba`.2.k`5`Z#4`F.6#6.m`F#U.K`ba7.8`V#X`1.G`F#D#D#D#D`F.6.vaq`c`n`j`r#4`F.V#D#D#D`F.6.m.s.F.Zad#X#4`F.V#D#D.V`F.m.mah`Hau.X.7`q`F.V#D#D.V`F.m.mah`Hau`5.a#4`F.V#D#D.V`F.m.mah`Hau`5.aav`H.V.V#D#D.V.V.m#m.s.T.Yax#4`F.V#D#D#D`F`F#6ah`Hau.w`Z#4`F.V#D#D.V.V`F#6ah`Hau`5`ZaR.V.V#D.V#D`F.m#6ah`Hau`5.a#Ka8`F.V#D#D.V`F#6.s`Hau.waOaL#W#m`e.6#u.V.m#6.s`H`W`5.a#K#5a3.s#Z`W.l`f.w#J.s`W`saOaH.1.t`QaT`f`m.X.d`Ga1aeae`Z.1a#.w.VaK`C.v.h`j.waG#Y#n.a`g#A#B.7#H#D`uav`R#G..#S`X#Xag.A.s#D#Z`W.m.m#m.G.Yaz`Q#2`O#saM.F#u`F.6.m#6.s.b`H`S#2#z#Oa4#S.w.V`F.m.m.s`H`d.Gal#z.e#O`z`z`4#J.V#6#H.Tau`1al`S.K.e.e.e`z#w`1#6ah#A.Y`5`Z",
"az...W.1.c`b.K`b#a`s`Cae`B.1.i`H#m.G`H.saG`N`N`c.a.w`B.1`A.F`F`F#6#6`F#6`K.r`c#2`Bac`m.U`F.6.V.V.V.m#m.s.d`Q`3acaV.z#r#h`7ah.m#6ah.saT`W#X.a.o`Sa4.r`u#ka3`d#6.F.b`W`B.x.3`W#V.e.K`b.K`t.kau`H`W`B#K.3`H`xaj.e#O`Ia4`badaOaT#n.P.3#H.m.6`F.j.K`ba7.r`h.S`B.Paj`H.V.V`F`F.ma2.8.8`c`X#o.P.3#H.m`F`F.m`F.mah#Aa#`n.R.Paj`H`F`F`F.6`F#6#m.FaT`e`L`g.3`H`F`F`F`F.m.m#m.F.b`W.S`AaS`H`F`F`F`F.m.m#m.F.b`W`B.Zaw#H`F`F`F`F`F#6ah.saT`W#n`A`T`5.m`F`F`F`F#h.m.s`H.b`5aKaS#H`F`F`F`F.m.m#m.FaT`W#n.Zaz`H.V`F`F`F.m#6#m.FaT`W#n.ZaS.G`F.V#D`F.m.m#m.FaT`W#n`AaN.G#x`7`7.s#m.mah.FaT#J#n.Zaz`6ai.1#haz`G`sah#HaT#J#n`AaKau`Rai`R`R.X#x.n.S#J`W`B`Aaz`d.m`m`m.h.n.w#r#5`h`3`BaCaz`H.G.m#B`R.1`2`W#k.8`Q.R`AaC#A`F.s#6`F.m`e.b#maA`Q`r`A.O`h.s.V`F`F.m.mah`Hah.c`3`A.5.K#a#J#D`F.m.mah.FauaT`Z`A`T#w.e.8.w.V.m.m.s.Fau#J#naK#5`c`I#O`N.a`x.mah.FaT`da6aK.o.W`O`b#O.e#p`1#Z#J.b`d#n.o",
".C`q#H.m#Ha#a``b.B`1ay`5a6.C.C...s.m.m.m`xak.r`V#qaea6.C.C#WaK`x`F.m#6#6`H.h`4.N``.C.C`4.#aKau`F#m.s.F.Tau.a``.C.Cada``N.8a1#6ah.s.bau.w``.C.C#Waqa4.K`I.B`sah.Tau`s#n.C.CaT.t.E.K`b#s.8#Xauau`sa6.C.C`q`x#h`P`N`Na7.2.a`d`5#n.C.C`W`x.m.m#mak#Saq#3`i#t#n.C.Cauah#h.m.m#6.F#A#Sa.#q#n.C.C`W`x.m.m.m#6ah.s.b.t`jaE.C.Cau`x.m.m#6#6ah.s.Tau.n`3.C.Cau`x.m.m.m#6ah.s.bau`s#q.C.Cau#m.m.m.m#6#m.F.Tau`s#n.C.C`W#6.m.m.m#6ah.s.bau`s#n.C.C.a.T.m.m.m#6#6.s.F.T`d`s.C.C.G#m#6.m.m#6.s.s.bau`s#n.C.C.Xa8ah.m.m#6#m.F.Tau`s#n.C.C#T.d...Y.m#6ah.F.Tau#t`3.C.C.n#W..aG.waT#6.F#Aau#t#n.C.C.f`R`4`6aG`u`2`5.Gau.w`3.C.Cau#A#W.n`6aj#Eaq.B#q`s`1.C.C`W#6ah....#AaY`N.2`V`3#q.C.C`J#6.m.m#6.F`xaD`cav#2`r.C.Cax#6.m.m.m#6ah.F.t`h`3aO.C.C`X`H`F#6.m#6ah.FaT.G.N`r.C.C`n`Q.b.V.m#6.s.F.b`Wa5#q.C.C`h.K`V.Y#h.sah.F.b`Wa5#q.C.C`5aW.K`N`j`q`C.T.b`Wa5aO.C.C`W.b.y`N.K.r.S`C.waT.NaO.C",
".C.C#A`H#6#A.A#paQ`sae#n.C.C.C.C.1`H#6ah.saTa3#T#t#n.C.C.C.C.Bax#6.s#H.FaT`d`1a6.C.C.C.C`n`V.wah.s`H.T.Y`5aE.C.C.C.C`haq.r#2.b.F.b`W`5a6.C.C.C.C`m.c.E`t`jae`Hau`s#n.C.C.C.C.T..ag#y#w`j`5aT`s#n.C.C.C.C#A`H.F#xaW.r`X#t.w#n.C.C.C.C#A`H#m.s`H`K`c.7`B`B.C.C.C.C.T.Fah.s.s`H`Ha##X#n.C.C.C.C#A`H#m.s.F`H.Tau`6`r.C.C.C.C.T.F#m.s.s`H.Tau#taO.C.C.C.C.T`H#m.s.s`H.bau`s#q.C.C.C.CaT.F#m.s.s`H.bau#t#q.C.C.C.CaT.Fah.s.F`H.b`W#t#q.C.C.C.C.aauahah.s#H`HaTae.w.C.C.C.C.X.s#6.s.s`HaTau#t#q.C.C.C.C#W#x.s#m.F.saTau#t#q.C.C.C.C`G.z.h#A.F`H#A.Y#t#q.C.C.C.C.w#x#y#yaM.wauaT`1#q.C.C.C.C#Jau.v#s.r`c`j.N`5#X.C.C.C.CaT.F.s`f.E`n`Va3a6`1.C.C.C.CaT.s`x.s#h#S`4.a#q#q.C.C.C.CaT#Hah.s.s`H`R.Q`B#q.C.C.C.C.G.F#m.s#H`H.b#J`BaO.C.C.C.C.n.Tahah.s`HaT.Ya5aO.C.C.C.Ca..1.X.F.s`HaT.Y#N`1.C.C.C.Cak.r.7`6.Y.FaT`W#N`1.C.C.C.C.G#Sa``jaeax.b`W#N`1.C.C.C.C#A`H`S#w`n#qau`W#N`1.C.C",
".C.C.C.X`d.b`d.w#t#t.k.C.C.C.C.C.C.X`d.bau`J`5#N.k.C.C.C.C.C.C#X`d.bau`Wae`1`3.C.C.C.C.C.C`j#qaTau.Yae#t`3.C.C.C.C.C.C.B.B#NaT#Jae`1`3.C.C.C.C.C.C.n.W`h`B`Jae.Na1.C.C.C.C.C.C.Yae.c`h#nae#Na1.C.C.C.C.C.C.XanauaGad#n.N`i.C.C.C.C.C.C.X`dauauaTav.R`i.C.C.C.C.C.C.XanaTau`Jae`i.k.C.C.C.C.C.C.Xanauauauae`B.k.C.C.C.C.C.C.X`dauau`Jae`B`i.C.C.C.C.C.C.Y`dauau`Jae`B`i.C.C.C.C.C.C.Y`dauau#Jae`B`i.C.C.C.C.C.Cax.Y.bauauae`B`i.C.C.C.C.C.CaQ#t.TaTau`d#t.w.C.C.C.C.C.C`Cae.baT`d`5`B`i.C.C.C.C.C.C`4`CaeaT`W#t`B`i.C.C.C.C.C.Cad`Q.B.N#Jax`3`i.C.C.C.C.C.C#W`had`h#X#t.N`i.C.C.C.C.C.Cax`R`4`C`C`1#q`i.C.C.C.C.C.Cax#J..av.S#t#n`i.C.C.C.C.C.Caxan.b`W`5#t`B#2.C.C.C.C.C.Cax#J.bau#J`5`B#2.C.C.C.C.C.C`5.Y.bau#J`5#q.a.C.C.C.C.C.C.N`daTau#J`5`B.a.C.C.C.C.C.C#X`1auau#J`5.N.a.C.C.C.C.C.C`X#Xaeau#J`5`B.a.C.C.C.C.C.C.w.H#2aeau`5`B.a.C.C.C.C.C.C.X`5.1`C`sae`B#2.C.C.C",
".C.C.C.C`q.J#`.J.p`G.C.C.C.C.C.C.C.C`q.J#C.L.p`G.C.C.C.C.C.C.C.C`q.u#`.L#I`G.C.C.C.C.C.C.C.C`q.u#`.L.4`G.C.C.C.C.C.C.C.C`q#2#C.L`a`G.C.C.C.C.C.C.C.C`q`j.u.L.p`G.C.C.C.C.C.C.C.C`q.J`D`D.p`G.C.C.C.C.C.C.C.C`q.J#C`D.p`G.C.C.C.C.C.C.C.CaT.n#`#`.p`G.C.C.C.C.C.C.C.C`q.J#C.L.p`G.C.C.C.C.C.C.C.C`q.J#`#`.p`G.C.C.C.C.C.C.C.CaT.n#`.L.p`G.C.C.C.C.C.C.C.C`q.J#C.LaJ`G.C.C.C.C.C.C.C.C`q.J#C.LaJ`G.C.C.C.C.C.C.C.C`q`C#``DaJ`G.C.C.C.C.C.C.C.C.T#I`i#`.H`G.C.C.C.C.C.C.C.C`q.n`D`j`kao.C.C.C.C.C.C.C.C`q`D#C`D`Q`G.C.C.C.C.C.C.C.C`q#``D#``Q`G.C.C.C.C.C.C.C.CaT#`.u.L`Q`G.C.C.C.C.C.C.C.C`q`C#C#``k`G.C.C.C.C.C.C.C.CaT`C#C.L`k`G.C.C.C.C.C.C.C.C`q`C#`.L`k`G.C.C.C.C.C.C.C.CaT.n#`#``k`G.C.C.C.C.C.C.C.C`q`C#`.L`k`G.C.C.C.C.C.C.C.C`q`C#`#``k`G.C.C.C.C.C.C.C.C.T`C#`.L`k`G.C.C.C.C.C.C.C.C`q`C#`.L`k`G.C.C.C.C.C.C.C.C`q`C#`#`aFao.C.C.C.C.C.C.C.C.T.n#C.L`Q`G.C.C.C.C"
};
