/* XPM */
static const char * gml_dset_16_xpm[] = {
"16 16 121 2",
"  	c None",
". 	c #CE5D02",
"+ 	c #E59856",
"@ 	c #E59958",
"# 	c #D1640B",
"$ 	c #D16208",
"% 	c #FFF9F4",
"& 	c #FBCEA1",
"* 	c #FBCDA1",
"= 	c #FEF4EB",
"- 	c #D47120",
"; 	c #FEF0E2",
"> 	c #F68517",
", 	c #F58417",
"' 	c #F38317",
") 	c #F18217",
"! 	c #FBE2CA",
"~ 	c #AEA59B",
"{ 	c #80450C",
"] 	c #86480D",
"^ 	c #CC6E13",
"/ 	c #502B07",
"( 	c #96510E",
"_ 	c #C56A12",
": 	c #211103",
"< 	c #F28217",
"[ 	c #482707",
"} 	c #EE7E14",
"| 	c #FAE0C8",
"1 	c #4B4742",
"2 	c #EF8116",
"3 	c #F28317",
"4 	c #5C3209",
"5 	c #77400B",
"6 	c #79410B",
"7 	c #512C08",
"8 	c #EF8017",
"9 	c #422306",
"0 	c #EA7405",
"a 	c #7E440C",
"b 	c #5B3109",
"c 	c #C56913",
"d 	c #A85A10",
"e 	c #512B08",
"f 	c #EC7E17",
"g 	c #412002",
"h 	c #E66E00",
"i 	c #F9DFC8",
"j 	c #A9A097",
"k 	c #884A0D",
"l 	c #904D0E",
"m 	c #593009",
"n 	c #EE8017",
"o 	c #ED7D15",
"p 	c #502905",
"q 	c #E77105",
"r 	c #251200",
"s 	c #7F3D00",
"t 	c #8B7D70",
"u 	c #BC641C",
"v 	c #F08117",
"w 	c #EC7A0F",
"x 	c #EA7306",
"y 	c #E76F00",
"z 	c #E56D00",
"A 	c #E36C00",
"B 	c #E16A00",
"C 	c #DF6900",
"D 	c #F8DEC8",
"E 	c #FDEFE2",
"F 	c #CC6D14",
"G 	c #88490D",
"H 	c #A85306",
"I 	c #E86F00",
"J 	c #E46C00",
"K 	c #E26B00",
"L 	c #AC5100",
"M 	c #7B3A00",
"N 	c #B55400",
"O 	c #F7DEC8",
"P 	c #C75D08",
"Q 	c #413E3A",
"R 	c #763F0C",
"S 	c #DD6E09",
"T 	c #E46D00",
"U 	c #E06A00",
"V 	c #DE6800",
"W 	c #DD6700",
"X 	c #D46200",
"Y 	c #7B3800",
"Z 	c #3A342F",
"` 	c #BD651D",
" .	c #F8EADE",
"..	c #AD580A",
"+.	c #7E3C00",
"@.	c #A64E00",
"#.	c #DB6600",
"$.	c #A94E00",
"%.	c #753600",
"&.	c #974500",
"*.	c #EED6C2",
"=.	c #FCEFE2",
"-.	c #E36D02",
";.	c #DD6800",
">.	c #DC6600",
",.	c #DA6500",
"'.	c #D86300",
").	c #D66200",
"!.	c #D46000",
"~.	c #D25F00",
"{.	c #F5DCC8",
"].	c #FEFCFA",
"^.	c #F9E3D0",
"/.	c #F8E3D0",
"(.	c #F8E2D0",
"_.	c #F7E2D0",
":.	c #F6E1D0",
"<.	c #FDF9F5",
"[.	c #CE5C00",
"}.	c #D36C18",
"|.	c #CF5E03",
"                                ",
"  . + @ @ @ @ @ @ @ @ @ @ @ #   ",
"  $ % & & & & & & & & & * = -   ",
"  $ ; > , > > > > > , ' ) ! -   ",
"  $ ~ { ] ^ / ( _ : < [ } | -   ",
"  $ 1 > 2 3 4 5 6 7 8 9 0 | -   ",
"  $ 1 > a 6 b c d e f g h i -   ",
"  $ j k 6 l m n o p q r s t u   ",
"  $ ; < v 8 w x y z A B C D -   ",
"  $ E F G H I h J K L M N O -   ",
"  P Q R S h T K U V W X Y Z `   ",
"  $  ...+.@.B C W #.$.%.&.*.-   ",
"  $ =.-.B C ;.>.,.'.).!.~.{.-   ",
"  $ ].^.^.^./.(._._._.:.:.<.-   ",
"  [.}.}.}.}.}.}.}.}.}.}.}.}.|.  ",
"                                "};
