/* XPM */
static const char * gml_dset_48_xpm[] = {
"48 48 408 2",
"  	c None",
". 	c #CD5C00",
"+ 	c #CE5C00",
"@ 	c #D6690F",
"# 	c #FEF7F0",
"$ 	c #FEF7F1",
"% 	c #FEF8F1",
"& 	c #E29E67",
"* 	c #D76A10",
"= 	c #FFFFFF",
"- 	c #E3A06A",
"; 	c #FEF6EE",
"> 	c #FDE5CD",
", 	c #FDE4CD",
"' 	c #FDEDDC",
") 	c #E29E68",
"! 	c #FCD5B0",
"~ 	c #F68517",
"{ 	c #F58417",
"] 	c #F48417",
"^ 	c #F48317",
"/ 	c #F38317",
"( 	c #F6A960",
"_ 	c #F38217",
": 	c #F28217",
"< 	c #F5A960",
"[ 	c #F18217",
"} 	c #F18117",
"| 	c #E67C15",
"1 	c #C16812",
"2 	c #AA5C10",
"3 	c #C36912",
"4 	c #EA7F16",
"5 	c #EE8116",
"6 	c #D77414",
"7 	c #E47B15",
"8 	c #D87514",
"9 	c #DB7715",
"0 	c #D67414",
"a 	c #D47214",
"b 	c #EC7F16",
"c 	c #F08117",
"d 	c #F4A65C",
"e 	c #C0A286",
"f 	c #2C1804",
"g 	c #000000",
"h 	c #010100",
"i 	c #090501",
"j 	c #5D3209",
"k 	c #B86411",
"l 	c #221203",
"m 	c #1F1103",
"n 	c #C26813",
"o 	c #EF8017",
"p 	c #F3A154",
"q 	c #8B8B8B",
"r 	c #160C02",
"s 	c #9E560F",
"t 	c #DB7614",
"u 	c #F28317",
"v 	c #D37214",
"w 	c #924F0E",
"x 	c #251403",
"y 	c #1C0F03",
"z 	c #A95B10",
"A 	c #482707",
"B 	c #1E1003",
"C 	c #ED7C11",
"D 	c #F29E50",
"E 	c #D8D8D8",
"F 	c #070707",
"G 	c #090806",
"H 	c #DC7715",
"I 	c #F08216",
"J 	c #4D2A07",
"K 	c #3A1F05",
"L 	c #3C2006",
"M 	c #CD6E13",
"N 	c #84470C",
"O 	c #080501",
"P 	c #C16713",
"Q 	c #EE7F17",
"R 	c #EB7505",
"S 	c #F19E50",
"T 	c #5E5E5E",
"U 	c #6C5B4B",
"V 	c #C46A12",
"W 	c #190D02",
"X 	c #D67314",
"Y 	c #C06713",
"Z 	c #ED7F17",
"` 	c #EC770B",
" .	c #EA7100",
"..	c #F09D50",
"+.	c #2F2F2F",
"@.	c #A38A72",
"#.	c #221303",
"$.	c #572F08",
"%.	c #070401",
"&.	c #7F440C",
"*.	c #DA7515",
"=.	c #080401",
"-.	c #BF6613",
";.	c #EB7B12",
">.	c #E97000",
",.	c #EF9D50",
"'.	c #D56910",
").	c #080808",
"!.	c #C3A588",
"~.	c #B15F11",
"{.	c #A1570F",
"].	c #CD6F13",
"^.	c #4D2907",
"/.	c #8E4D0D",
"(.	c #050300",
"_.	c #5A3009",
":.	c #E07815",
"<.	c #D97515",
"[.	c #EE8017",
"}.	c #BF6512",
"|.	c #E97203",
"1.	c #E87000",
"2.	c #E86F00",
"3.	c #EF9C50",
"4.	c #121212",
"5.	c #BC9F83",
"6.	c #321B05",
"7.	c #030200",
"8.	c #7D440C",
"9.	c #B86311",
"0.	c #4C2907",
"a.	c #E97D16",
"b.	c #120A02",
"c.	c #64360A",
"d.	c #ED7E17",
"e.	c #BC5D04",
"f.	c #E76F00",
"g.	c #E76E00",
"h.	c #EE9B50",
"i.	c #3E3E3E",
"j.	c #9E866E",
"k.	c #713D0B",
"l.	c #7D430C",
"m.	c #B66211",
"n.	c #703C0B",
"o.	c #D17014",
"p.	c #D97415",
"q.	c #EC7E17",
"r.	c #EB7D17",
"s.	c #BB5A00",
"t.	c #E66E00",
"u.	c #ED9B50",
"v.	c #7E7E7E",
"w.	c #4E4237",
"x.	c #703D0B",
"y.	c #7C430C",
"z.	c #B56111",
"A.	c #4C2807",
"B.	c #D87315",
"C.	c #EA7C16",
"D.	c #080400",
"E.	c #BA5900",
"F.	c #E56D00",
"G.	c #E46D00",
"H.	c #EC9A50",
"I.	c #F4F4F4",
"J.	c #1E1E1E",
"K.	c #010101",
"L.	c #AB5C10",
"M.	c #7B420C",
"N.	c #4B2807",
"O.	c #D67215",
"P.	c #1D1003",
"Q.	c #EA7D17",
"R.	c #E9770F",
"S.	c #E77002",
"T.	c #B95800",
"U.	c #E46C00",
"V.	c #E36C00",
"W.	c #EC9950",
"X.	c #C4C4C4",
"Y.	c #221C17",
"Z.	c #502B07",
"`.	c #87490D",
" +	c #A0560F",
".+	c #80450C",
"++	c #1D0F03",
"@+	c #B46111",
"#+	c #D57115",
"$+	c #1D0F02",
"%+	c #E87206",
"&+	c #4A2300",
"*+	c #5C2C00",
"=+	c #5B2B00",
"-+	c #5F3E20",
";+	c #676767",
">+	c #7C5739",
",+	c #F4CEAA",
"'+	c #85470C",
")+	c #4A2807",
"!+	c #241403",
"~+	c #100902",
"{+	c #2C1704",
"]+	c #512B08",
"^+	c #C36913",
"/+	c #3B2006",
"(+	c #743E0B",
"_+	c #EC7C14",
":+	c #EA790F",
"<+	c #EA760A",
"[+	c #D96A06",
"}+	c #391C00",
"|+	c #502600",
"1+	c #3F1E00",
"2+	c #381B00",
"3+	c #381A00",
"4+	c #3A2614",
"5+	c #3F3F3F",
"6+	c #61442D",
"7+	c #FBD5B0",
"8+	c #EE7E16",
"9+	c #EC780D",
"0+	c #EB7406",
"a+	c #EA7202",
"b+	c #E36B00",
"c+	c #E26B00",
"d+	c #E16A00",
"e+	c #E06900",
"f+	c #E99850",
"g+	c #EC7B0F",
"h+	c #EA7303",
"i+	c #DF6900",
"j+	c #E89750",
"k+	c #FBD4B0",
"l+	c #ED7D14",
"m+	c #E06A00",
"n+	c #DE6800",
"o+	c #FAD4B0",
"p+	c #BD6512",
"q+	c #944D0C",
"r+	c #B05300",
"s+	c #994800",
"t+	c #D66400",
"u+	c #DF6800",
"v+	c #DD6700",
"w+	c #E79650",
"x+	c #D66A10",
"y+	c #E77B16",
"z+	c #A65910",
"A+	c #5E3209",
"B+	c #170C02",
"C+	c #391B00",
"D+	c #884000",
"E+	c #060300",
"F+	c #401E00",
"G+	c #823D00",
"H+	c #C45B00",
"I+	c #DC6600",
"J+	c #DB6600",
"K+	c #E69650",
"L+	c #E1BE9E",
"M+	c #904D0E",
"N+	c #472607",
"O+	c #010000",
"P+	c #2D1804",
"Q+	c #703A08",
"R+	c #B15501",
"S+	c #E46E00",
"T+	c #C05A00",
"U+	c #813C00",
"V+	c #411E00",
"W+	c #090400",
"X+	c #291300",
"Y+	c #6B3200",
"Z+	c #B77740",
"`+	c #FEFEFE",
" @	c #C3600F",
".@	c #818181",
"+@	c #343434",
"@@	c #110902",
"#@	c #522C08",
"$@	c #954F0E",
"%@	c #D77315",
"&@	c #EB7A13",
"*@	c #E97101",
"=@	c #DC6700",
"-@	c #D56300",
";@	c #9F4A00",
">@	c #612D00",
",@	c #221000",
"'@	c #191919",
")@	c #656565",
"!@	c #AD7950",
"~@	c #94490B",
"{@	c #5C4E41",
"]@	c #CC6D14",
"^@	c #EB7C15",
"/@	c #E87003",
"(@	c #E66D00",
"_@	c #DB6500",
":@	c #DA6500",
"<@	c #D96400",
"[@	c #CD5E00",
"}@	c #80532D",
"|@	c #111111",
"1@	c #4A3322",
"2@	c #CF660F",
"3@	c #B2B2B2",
"4@	c #191612",
"5@	c #251404",
"6@	c #67370A",
"7@	c #A85304",
"8@	c #E06C00",
"9@	c #B35200",
"0@	c #753600",
"a@	c #371900",
"b@	c #040200",
"c@	c #070503",
"d@	c #494949",
"e@	c #969696",
"f@	c #C98D5D",
"g@	c #F7D2AF",
"h@	c #BB6412",
"i@	c #753E0C",
"j@	c #2E1702",
"k@	c #422000",
"l@	c #833E00",
"m@	c #C65E00",
"n@	c #CF6000",
"o@	c #944500",
"p@	c #552700",
"q@	c #180B00",
"r@	c #150A00",
"s@	c #542600",
"t@	c #944400",
"u@	c #D98D4D",
"v@	c #F8D2B0",
"w@	c #E97C17",
"x@	c #E97812",
"y@	c #CF6200",
"z@	c #8B4200",
"A@	c #462100",
"B@	c #311700",
"C@	c #7E3A00",
"D@	c #2A1300",
"E@	c #6B3100",
"F@	c #AB4E00",
"G@	c #D56200",
"H@	c #D56100",
"I@	c #E19350",
"J@	c #F7D2B0",
"K@	c #E87B17",
"L@	c #E66F04",
"M@	c #DB6800",
"N@	c #B55600",
"O@	c #BC5600",
"P@	c #C15900",
"Q@	c #D76300",
"R@	c #D66200",
"S@	c #D46100",
"T@	c #D46000",
"U@	c #E19250",
"V@	c #E6740C",
"W@	c #D96500",
"X@	c #D86400",
"Y@	c #D86300",
"Z@	c #D36000",
"`@	c #D25F00",
" #	c #E09150",
".#	c #F7D1AE",
"+#	c #E46C01",
"@#	c #DD6800",
"##	c #D35F00",
"$#	c #D15E00",
"%#	c #DF9150",
"&#	c #F6CEAA",
"*#	c #D76200",
"=#	c #D15F00",
"-#	c #D05E00",
";#	c #DF9050",
">#	c #D46910",
",#	c #F9E1CB",
"'#	c #EEA768",
")#	c #EDA768",
"!#	c #EDA668",
"~#	c #ECA668",
"{#	c #EBA668",
"]#	c #EBA568",
"^#	c #EAA468",
"/#	c #E9A468",
"(#	c #E8A368",
"_#	c #E7A368",
":#	c #E7A268",
"<#	c #E6A268",
"[#	c #E6A168",
"}#	c #E5A168",
"|#	c #E4A068",
"1#	c #E3A068",
"2#	c #E39F68",
"3#	c #EBBD97",
"4#	c #D46810",
"5#	c #CF5F05",
"6#	c #DE9151",
"7#	c #DE9050",
"8#	c #DE8F50",
"9#	c #DD8F50",
"0#	c #D47020",
"a#	c #CE5B00",
"                                                                                                ",
"                                                                                                ",
"        . + + + + + + + + + + + + + + + + + + + + + + + + + + + + + + + + + + + + + + +         ",
"      + + + + + + + + + + + + + + + + + + + + + + + + + + + + + + + + + + + + + + + + + +       ",
"      + + + + + + + + + + + + + + + + + + + + + + + + + + + + + + + + + + + + + + + + + +       ",
"      + + @ # $ % % % % % % % % % % % % % % % % % % % % % % % % % % % % % % % % % $ & + +       ",
"      + + * = = = = = = = = = = = = = = = = = = = = = = = = = = = = = = = = = = = = - + +       ",
"      + + * = = ; > > > > > > > > > > > > > > > > > > > > > > > > > > > > , , ' = = ) + +       ",
"      + + * = = ! ~ ~ ~ ~ ~ ~ ~ ~ ~ ~ ~ ~ ~ ~ ~ ~ ~ ~ ~ ~ ~ ~ ~ ~ ~ ~ { ] ^ / ( = = ) + +       ",
"      + + * = = ! ~ ~ ~ ~ ~ ~ ~ ~ ~ ~ ~ ~ ~ ~ ~ ~ ~ ~ ~ ~ ~ ~ ~ ~ { ] ^ / _ : < = = ) + +       ",
"      + + * = = ! ~ ~ ~ ~ ~ ~ ~ ~ ~ ~ ~ ~ ~ ~ ~ ~ ~ ~ ~ ~ ~ ~ { { ^ / / : [ } < = = ) + +       ",
"      + + * = = ! ~ | 1 2 3 4 ~ ~ ~ 5 6 6 7 ~ ~ ~ ~ ~ 8 6 9 { ] / 0 a b } c c d = = ) + +       ",
"      + + * = = e f g g h g i j ~ ~ k g g l ] ~ ~ ~ k g g m ^ / : i g n c c o p = = ) + +       ",
"      + + * = q g r s t u v w x ~ ~ k g y g z ~ ~ ~ A y g B : : } i g n c o C D = = ) + +       ",
"      + + * E F G H ~ ~ ~ ~ ~ I ~ ~ k g J K L ~ { M h N g B [ } c O g P o Q R S = = ) + +       ",
"      + + * T g U ~ ~ ~ ~ ~ ~ ~ ~ ~ k g J z g V ] j W X g B c c c O g Y Z `  ...= = ) + +       ",
"      + + * +.g @.~ ~ ~ ~ ~ ~ ~ ~ ~ k g J / #.$.H %.&.*.g B c o o =.g -.;. .>.,.= = ) + +       ",
"      + + '.).g !.~ ~ ~ ~.{.{.{.].~ k g ^.^ /.(._.i :.<.g B o [.Q =.g }.|.1.2.3.= = ) + +       ",
"      + + * 4.g 5.~ ~ ~ 6.%.7.g 8.{ 9.g 0./ a.b.g c.c <.g B Q Z d.=.g e.2.f.g.h.= = ) + +       ",
"      + + * i.g j.~ ~ ~ ~ ~ k.g l.] m.g 0.: } {.n.o.o p.g B d.q.r.=.g s.f.t.t.u.= = ) + +       ",
"      + + * v.g w.~ ~ ~ ~ ~ x.g y./ z.g A.c c c o o Q B.g B q.r.C.D.g E.t.F.G.H.= = ) + +       ",
"      + + * I.J.K.L.~ ~ { ] n.g M.: z.g N.c c o [.Q Z O.g P.Q.R.S.D.g T.F.U.V.W.= = ) + +       ",
"      + + * = X.Y.g Z.`. +.+++g `.} @+g N.o [.Q Z d.q.#+g $+%+g.t.D.g &+*+*+=+-+;+;+>++ +       ",
"      + + * = = ,+'+)+!+~+{+]+z.c c ^+/+(+Q Z d._+:+<+[+}+|+t.t.F.1+2+2+3+3+3+4+5+5+6++ +       ",
"      + + * = = 7+^ / : : } c c c o o Q 8+9+0+a+>.1.2.f.t.t.F.G.U.V.b+c+d+d+e+f+= = ) + +       ",
"      + + * = = 7+: : } } c c c o [.Q g+h+ .>.1.2.f.g.t.F.F.U.V.b+c+d+d+e+i+i+j+= = ) + +       ",
"      + + * = = k+[ } c c c o [.Q l+0+ .>.>.2.f.g.t.F.F.U.U.V.c+c+d+m+e+i+n+n+j+= = ) + +       ",
"      + + * = = o+c c c o o Z p+q+a+>.>.2.2.g.t.t.F.G.U.V.c+c+r+s+t+i+u+n+v+v+w+= = ) + +       ",
"      + + x+= = o+c o y+z+A+B+g C+>.1.2.f.t.t.F.G.U.V.b+c+d+d+D+g E+F+G+H+I+J+K+= = ) + +       ",
"      + + x+= = L+M+N+=.O+P+Q+R+S+2.f.g.t.F.F.U.V.b+c+d+d+e+i+i+T+U+V+W+g X+Y+Z+`+= ) + +       ",
"      + +  @.@+@K.@@#@$@%@&@*@2.f.g.t.F.F.U.V.b+c+c+d+m+e+i+n+n+v+=@I+-@;@>@,@g '@)@!@+ +       ",
"      + + ~@g K.{@]@q.r.^@/@f.g.t.(@F.G.U.V.c+c+d+m+e+i+n+n+v+v+I+J+_@:@<@<@[@}@|@g 1@+ +       ",
"      + + 2@3@)@4@g 5@6@7@8@t.t.F.G.U.V.c+c+d+d+e+i+u+n+v+v+I+J+J+:@:@9@0@a@b@c@d@e@f@+ +       ",
"      + + '.= = g@h@i@j@O+W+k@l@m@V.b+c+d+d+e+i+i+n+n+v+=@I+J+n@o@p@q@g r@s@t@u@= = ) + +       ",
"      + + '.= = v@w@x@t.y@z@A@W+B@c+c+d+m+e+i+n+n+v+=@I+J+:@:@C@O+D@E@F@G@H@H@I@= = ) + +       ",
"      + + '.= = J@K@L@F.G.U.V.M@N@d+m+e+i+n+n+v+v+I+J+_@:@<@<@O@P@Q@R@G@H@S@T@U@= = ) + +       ",
"      + + '.= = J@V@G.U.V.c+c+d+d+e+i+u+n+v+v+I+J+_@:@W@<@X@Y@Q@R@R@H@S@T@Z@`@ #= = ) + +       ",
"      + + '.= = .#+#V.b+c+d+d+e+i+u+n+@#v+=@I+J+:@:@<@X@Y@Q@R@R@H@H@T@Z@##`@$#%#= = ) + +       ",
"      + + '.= = &#b+c+d+d+m+e+i+n+n+v+=@I+J+:@:@<@<@Y@Q@*#R@H@H@T@Z@Z@`@=#$#-#;#= = ) + +       ",
"      + + >#= = ,#'#)#)#!#~#{#{#]#]#^#^#^#/#(#(#(#_#:#:#<#[#[#[#}#|#|#|#1#2#2#3#= = ) + +       ",
"      + + 4#= = = = = = = = = = = = = = = = = = = = = = = = = = = = = = = = = = = = ) + +       ",
"      + + 4#= = = = = = = = = = = = = = = = = = = = = = = = = = = = = = = = = = = = ) + +       ",
"      + + 5#6#7#7#7#7#7#7#7#7#7#7#8#8#8#8#8#9#9#9#9#9#9#9#9#9#9#9#9#9#9#9#9#9#9#9#9#0#+ +       ",
"      + + + + + + + + + + + + + + + + + + + + + + + + + + + + + + + + + + + + + + + + + +       ",
"        + + + + + + + + + + + + + + + + + + + + + + + + + + + + + + + + + + + + + + + a#        ",
"                                                                                                ",
"                                                                                                ",
"                                                                                                "};
