/* XPM */
static const char *gnm_48_xpm[] = {
/* width height num_colors chars_per_pixel */
"    48    48      256            2",
/* colors */
"`` c #040204",
"`. c #44820c",
"`# c #6cc21c",
"`a c #244604",
"`b c #bcd69c",
"`c c #54a20c",
"`d c #a4ca7c",
"`e c #34620c",
"`f c #142204",
"`g c #64b214",
"`h c #7cd62c",
"`i c #2c5204",
"`j c #4c920c",
"`k c #e4f6cc",
"`l c #74ce24",
"`m c #6ca634",
"`n c #0c1204",
"`o c #3c7204",
"`p c #bcea8c",
"`q c #1c320c",
"`r c #5caa0c",
"`s c #94de44",
"`t c #548224",
"`u c #244a04",
"`v c #74b234",
"`w c #84de34",
"`x c #0c1a04",
"`y c #345a0c",
"`z c #7cc23c",
"`A c #3c6a14",
"`B c #5c922c",
"`C c #bce28c",
"`D c #64a61c",
"`E c #8cd63c",
"`F c #345214",
"`G c #84ce34",
"`H c #dcf6bc",
"`I c #4c8a0c",
"`J c #34421c",
"`K c #acd684",
"`L c #1c2a04",
"`M c #64ba1c",
"`N c #3c7a04",
"`O c #cceaa4",
"`P c #243a14",
"`Q c #1c1a14",
"`R c #5ca214",
"`S c #44661c",
"`T c #f4faf4",
"`U c #b4de84",
"`V c #040a04",
"`W c #74ca24",
"`X c #3c6214",
"`Y c #34520c",
"`Z c #4c9e04",
"`0 c #64aa1c",
"`1 c #548e14",
"`2 c #2c4a04",
"`3 c #74ba34",
"`4 c #bce29c",
"`5 c #2c4214",
"`6 c #1c2214",
"`7 c #6cb224",
"`8 c #84d62c",
".` c #ecfadc",
".. c #7cce24",
".# c #6cae24",
".a c #141214",
".b c #141a0c",
".c c #7cca24",
".d c #5c9e14",
".e c #2c3a1c",
".f c #5ca21c",
".g c #2c4a14",
".h c #4c860c",
".i c #74c224",
".j c #a4d27c",
".k c #2c5604",
".l c #e4f2dc",
".m c #4c7624",
".n c #c4eaa4",
".o c #64ae14",
".p c #8ce234",
".q c #446a24",
".r c #8cda3c",
".s c #84d234",
".t c #4c8e0c",
".u c #b4d69c",
".v c #447e04",
".w c #ccf2ac",
".x c #b4ea7c",
".y c #0c0a0c",
".z c #2c4e04",
".A c #c4e29c",
".B c #84d63c",
".C c #7cce34",
".D c #141e14",
".E c #bcde9c",
".F c #3c660c",
".G c #142604",
".H c #64b614",
".I c #549214",
".J c #0c1604",
".K c #44721c",
".L c #bcee94",
".M c #2c361c",
".N c #5cae14",
".O c #94e644",
".P c #54862c",
".Q c #74b634",
".R c #3c5a1c",
".S c #446e14",
".T c #345614",
".U c #34461c",
".V c #b4da84",
".W c #1c2e0c",
".X c #6cba1c",
".Y c #cceeac",
".Z c #1c1e14",
".0 c #5ca60c",
".1 c #b4e28c",
".2 c #3c6614",
".3 c #549a14",
".4 c #5c8a2c",
".5 c #7cbe34",
".6 c #2c4614",
".7 c #84da2c",
".8 c #7cd22c",
"#` c #74ae34",
"#. c #5c9a24",
"## c #84ca3c",
"#a c #243614",
"#b c None",
"#c c #ecf2e4",
"#d c #64962c",
"#e c #8cde44",
"#f c #447a14",
"#g c #acd284",
"#h c #649a2c",
"#i c #6cae34",
"#j c #4c861c",
"#k c #346604",
"#l c #6caa2c",
"#m c #3c6e0c",
"#n c #243e0c",
"#o c #64ae24",
"#p c #1c260c",
"#q c #6cb62c",
"#r c #141e04",
"#s c #2c3e1c",
"#t c #0c0e04",
"#u c #c4e6a4",
"#v c #549e0c",
"#w c #040604",
"#x c #44860c",
"#y c #bcda9c",
"#z c #54a60c",
"#A c #a4ce7c",
"#B c #94e244",
"#C c #345e0c",
"#D c #7cc63c",
"#E c #bce68c",
"#F c #acda84",
"#G c #34560c",
"#H c #141614",
"#I c #5ca61c",
"#J c #74c624",
"#K c #549614",
"#L c #6cbe1c",
"#M c #5c8e2c",
"#N c #ecf6e4",
"#O c #6cc224",
"#P c #24460c",
"#Q c #14220c",
"#R c #2c520c",
"#S c #3c720c",
"#T c #bcea94",
"#U c #5caa14",
"#V c #54822c",
"#W c #64a624",
"#X c #8cd644",
"#Y c #34521c",
"#Z c #84ce3c",
"#0 c #4c8a14",
"#1 c #1c2a0c",
"#2 c #cceaac",
"#3 c #b4de8c",
"#4 c #74ca2c",
"#5 c #3c621c",
"#6 c #2c4a0c",
"#7 c #2c421c",
"#8 c #84d634",
"a` c #7cce2c",
"a. c #7cca2c",
"a# c #2c560c",
"aa c #8ce23c",
"ab c #8cda44",
"ac c #84d23c",
"ad c #4c8e14",
"ae c #447e0c",
"af c #2c4e0c",
"ag c #c4e2a4",
"ah c #64b61c",
"ai c #0c160c",
"aj c #74b63c",
"ak c #344624",
"al c #1c1e1c",
"am c #5ca614",
"an c #7cbe3c",
"ao c #141e0c",
"ap c #2c3e24",
"aq c #0c0e0c",
"ar c #000000",
"as c #000000",
"at c #000000",
"au c #000000",
"av c #000000",
"aw c #000000",
"ax c #000000",
"ay c #000000",
"az c #000000",
"aA c #000000",
"aB c #000000",
"aC c #000000",
"aD c #000000",
"aE c #000000",
"aF c #000000",
"aG c #000000",
"aH c #000000",
"aI c #000000",
"aJ c #000000",
"aK c #000000",
"aL c #000000",
"aM c #000000",
"aN c #000000",
"aO c #000000",
"aP c #000000",
"aQ c #000000",
"aR c #000000",
"aS c #000000",
"aT c #000000",
"aU c #000000",
"aV c #000000",
"aW c #000000",
"aX c #000000",
"aY c #000000",
"aZ c #000000",
"a0 c #000000",
"a1 c #000000",
"a2 c #000000",
"a3 c #000000",
"a4 c #000000",
"a5 c #000000",
"a6 c #000000",
"a7 c #000000",
"a8 c #000000",
/* pixels */
"#b#b#b#b#b#b#b#b#b#b#b#b#b#b#b#b#b#b#b#b#b#b#b#b#b#b#b#b#b#b#b#b#b#b#b#b#b#b#b#b#b#b#b#b#b#b#b#b",
"#b#b#b#b#b#b#b#b#b#b#b#b#b#b#b#b#b#b#b#b#b#b#b#b#b#b#b#b#b#b#b#b#b#b#b#b#b#b#b#b#b#b#b#b#b#b#b#b",
"#b#b#b#b.`.w.w.w.Y.w.Y.Y.Y#2.Y`O.n#2.n`O#u#u#u#u#u#uagagagag`4ag.Eag.E.E#y.E#y#y#y#y#y`b`T#b#b#b",
"#b#b#b`k#B.p.7.7.7`8`8.8.8.8..`la.`W#J#J#J.i`##L#L.X.X`M.H.H`g`g.N.o.N#U#Uam#z#z`c`c#v`Z#i#N#b#b",
"#b#b#b.x`w.p`w.7.7#8`h`h.8.8..`l`W`W`W#J#J`#.i`##L#L`M.Xah.Hah`g.N.N.N`r#U`r.0`c`c`c#v#v`Z`b#b#b",
"#b#b#b.x.p`w.6#7ak.U.U.U.U.U.Uak.Uak.U#7.U#7.U#7`J#7`J#7`J`J#7#7`J`J#7`J#s#s#7#s#s#s`A#v`Z.u#b#b",
"#b#b#b.x`w`w`naq#H#H#H#H#H#H#H#H#H#H#H`Q#H`Q#H`Q#H`Q#H`Q#H#H`Q#H#H`Q#H#H`Q#H`Q#H`Q#H`Y`Z#v.u#b#b",
"#b#b#b.x.p`w.J.a`Qalalalalalalalalal`Qal`Q`Qal`Qalal`Qalal`Qal`Qal`Qal`Qal`Q`Qal#H.aaf#v`Z.u#b#b",
"#b#b#b.x`w.p`naqap#B.O#B.O#B.O#B.O.O.O.O.O.O#B.O#B.O.O#B.O.O.O.O.O.O.O.O#B#B#e`z`Q#waf#v`Z`b#b#b",
"#b#b#b.x`w`w.J.a#s.O.O.O.O.O.O.O#B.O#B.O#B.O.O.O.O#B.O.O.O#B.O#B.O#B#B#B#B#e#Ban.a``af`Z#v.u#b#b",
"#b#b#b.x.p`w.J.a.e.O#B.O#B.O#B.O.O.O.O.O.O.O.O#B.O.O.O#B.O.O.O.O#B#B`m#Z`s#e#ean#w``af#v`Z.u#b#b",
"#b#b#b.x`w.p`n.a#s.O.O.O.O.O.O.O#B.O#B.O#B.O.O.O.O#B.O.O.O#B#B#B###Q```V.P#eaban````.z`Z#K.u#b#b",
"#b#b#b.x`w`w.J.a`J#B#B.O#B.O#B.O.O.O.O.O.O#B.O#B.O.O.O#B.O#B#B#B.m``````.bab.r#q````af`Z`Z`b#b#b",
"#b#b#b.x.p`w.J.a.e.O.O.O.O.O.O.O#B.O#B.O.O.O.O.O.O#B.O.O#B#B#B`s.R``````#wac.B`7````#6#v`Z.u#b#b",
"#b#b#b.x`w.p`n#Hap.O#B.Oaj#V#X.O.O.O.O#B.O#B.O#B.O.O#B#B`s`s#e#e#7```````F`E.8#o`````u#v`Z`b#b#b",
"#b#b#b.x`w.p`n#H`J#B.O.q````.yan.O#B.O.O.O.O.O#B#B#B#B`s#e#e#e.4``#Y`y.4ac#8a`.o````.z`Z#v.u#b#b",
"#b#b#b.x`w`w.J#H.e.O`saq``````.q.O.O.O#B.O#B#B#B#B#B`s#e`sab`v#w#aac#X.B.Ba`..`0`````u.3`Z`b#b#b",
"#b#b#b.x.p`w.J`Q.e.O`s`n```````6ab#B.O.O#B#B#B#B`s`sab#eab##`xai#D`Eacaca``l`W`0````.z`Z#v.u#b#b",
"#b#b#b.x`w.p`n#Hap.O.O.q````#w``#Qan#B#B#B#B`s`s#eababab#X`P#w#lacacaca`..`W`W`0`````u.3`Z.u#b#b",
"#b#b#b.x`w.p.J`Q.e.O.O#Baj`tab#`.J.y#d`s#B`s#eab#eabab.r.2```tac`E#Za`.c`W#J#J`D`````u#v`Z`b#b#b",
"#b#b#b.x`w`w.J`Qap#B.O.O.O.O#B.O#Z`P``.R#Xab#eababab`E`B``#Yacac`Ga``W`W#J#J#J#I`````u#v`Z.u#b#b",
"#b#b#b.x.p`w.b.a`J#B.O.O#B.O#B#B`s#e.q``#1anabab`E.B.Q`V#1`G#Z.C.c`W#J#J#J#J`#.f`````u#v`Z`b#b#b",
"#b#b#b.x`w.p.J#H.e.O.O#B#B#B`s#e`s#e.r#h`V`n`B.r.B###r`n`3.Ca``W#J#J#J#J`#`#.i`R`````u#v`j.u#b#b",
"#b#b#b.x`w.p.b#Hap#B#B#B#B`s#e#e#eabab.ran.W``#5`G#n#w#..c`W#J#J#J#J`#.i`##L#L.f`````u#v`Z`b#b#b",
"#b#b#b.x`w`w.b#H`J#B#B#B#e`s#eabab.r.r`E.B.C.T```x``#m`W`W#J#J#J`##J`#`##L#L#L.d`````u#v`Z.u#b#b",
"#b#b#b.x.p`w.b#H.e`s#e`s#eabab.r.r.r.B.B.8....#j``.G`W#J#J#J.i`#.i`##L#L#L.X.X#v`````a#v`Z`b#b#b",
"#b#b#b.x`w.p.b`Q.e`s#e#eababab.r#X.Ba`a`..`l#4`W.G`q#J#J.i`#`#`#`##L#L.X.X`M`M.3`````u#v`Z.u#b#b",
"#b#b#b.x`w`w.b#Hap#eababab.r.B`E.Ba`..`la``W.c`W`Y`V.i`##J`#.i#L#L.X.X`M.X`M.X#K`````a#v`Z`b#b#b",
"#b#b#b.x.p`w#r`Q.eab.r.r`E.B`E.s..`la``W`W`W#J#J#f``#I`##L#L#L#L.X.X`M.X.H.H`g#K`````a#v`Z.u#b#b",
"#b#b#b.x`w.p.b#H.eab`E.B`Eac.s`la.`W`W`W#J#J#J.i.d``#f#L#L#L.X.X`M`M.H.Hah`g`g`j`````a`Z#v.u#b#b",
"#b#b#b.x`w`wao`Q.e`E.B`Eacaca``W`W`W#J#J#J#J`#`##L#w`Y#L.X.X`M`M.X.Hah`g`g`g.N#K`````a#v`Z.u#b#b",
"#b#b#b.x.p`w.Z#H.eacacacac`W`W`W#J#J#J#J.i`#.i`##L`f.J`R`M.X`M.X`g`g`g`g.N`g.N`j`````a`Z#v.u#b#b",
"#b#b#b.x`w.pao#H.e`Eacac.c`W.c#J#J#J#J`#.i#L#L#L.2``````#0.H.H`g`g`g.N`g.N.N#U.I`````a#v`j.u#b#b",
"#b#b#b.x`w`w.Z#H.e#Z#Za``W`W#J#J#J`#.i#L#L#L#L#L.J``````#n.H`g`g.N`g.N.N.N#U`r.t`````a`Z#v.V#b#b",
"#b#b#b.x.p`w`6#H.eac.C#J#J#J`#.i`#`##L#L#L#L`M.X`x```````a`g.N`g.N.N.o#U`r#U.0.t`````a#v`Z.u#b#b",
"#b#b#b.x`w.pao`Q.ea.a.#J`#.i`#`#`##L#L#L.X`M.X`M#S#w```Vad`g.N.o.N.N`r#U.0.0#z`I`````a`Z#K.u#b#b",
"#b#b#b.x`w.p#Q#H.ea.#O#J.i`#.i#L#L#L.X.X`M.X.H.H`g.d#mam.N.o.N#U`r#U`r#z.0#z#z#x`````a#v`Z.u#b#b",
"#b#b#b.x`w.p.Z#H.M.i#O`#`##L#L#L.X.X`M.H.H.H`g`g`g.N.N`g.N`r#U`r#U`r#zam`c`c`c#x`````a`Z#v.u#b#b",
"#b#b#b.x`w`w`6#H#1#O.i#L#L#L.X`M.X`Mah.X`gah`g`g.N`g.N.N`r#U`r#U#z.0`c`c`c`c`c#x`````a`Z#K#g#b#b",
"#b#b#b.x.p`w`6.a`x#K#K.I.I.I.I.Iad`1.t#0ad`I#0#0`I#x.h#x.h`.`.`.`.aeae.vae`N.v#k`````a`Z#v`b#b#b",
"#b#b#b.x`w.p`6#w`````````````````````````````````````````````````````````````````````a`j`Z.u#b#b",
"#b#b#b.x`w`w#r```````````````````````````````````````````````````````````````````````a#v`Z`b#b#b",
"#b#b#b.x.p`w.K.F`e`X`e`e#C`e#C#C#C#C`y`ya##C.k`ya#.ka#.k.k`i.k`i`i`i`i`u`i`u`i`u`u`u`o`Z#v.u#b#b",
"#b#b#b.x`w.p`w.7.7`8`h`8.8.8a`..`W`W`W#J#J`#.i`##L#L.X.Xah.H`g`g.N.N.N.N`r#z`r#z#z`c#v#v`Z.u#b#b",
"#b#b#b`H.p`w`w.7.7`h`8.8.8.8..`la.`W#J#J#J`#`##L#L#L`M.X.Hahah`g.N.o.N`r#U`r#z`R`c`c#v`Z`D.l#b#b",
"#b#b#b#b`k.L`p`p#T#T`p`p#E#E.1`C.1.1.1.1`U.1`U#3#F.V#F#F#F`K`K`K`K#g.j#g.j#A.j#A`d#A`d`d#c#b#b#b",
"#b#b#b#b#b#b#b#b#b#b#b#b#b#b#b#b#b#b#b#b#b#b#b#b#b#b#b#b#b#b#b#b#b#b#b#b#b#b#b#b#b#b#b#b#b#b#b#b",
"#b#b#b#b#b#b#b#b#b#b#b#b#b#b#b#b#b#b#b#b#b#b#b#b#b#b#b#b#b#b#b#b#b#b#b#b#b#b#b#b#b#b#b#b#b#b#b#b"
};
