/* XPM */
static const char *gnm_16_xpm[] = {
/* width height num_colors chars_per_pixel */
"    16    16      256            2",
/* colors */
"`` c #95e349",
"`. c #80d530",
"`# c #7ed02d",
"`a c #7acb2a",
"`b c #76c827",
"`c c #72c324",
"`d c #6fbf21",
"`e c #6cba1e",
"`f c #68b61c",
"`g c #64b119",
"`h c #61ad16",
"`i c #5da913",
"`j c #59a610",
"`k c #55a10e",
"`l c #539e0b",
"`m c #64a723",
"`n c #88e033",
"`o c #0f110c",
"`p c #171717",
"`q c #1a2214",
"`r c #509c07",
"`s c #10120d",
"`t c #8cd844",
"`u c #95e546",
"`v c #8fdc43",
"`w c #91df43",
"`x c #84cc3e",
"`y c #101809",
"`z c #11130e",
"`A c #90df44",
"`B c #213410",
"`C c #375519",
"`D c #7dc637",
"`E c #0b1204",
"`F c #527e26",
"`G c #7fc43c",
"`H c #94e345",
"`I c #91e044",
"`J c #81c93c",
"`K c #131e09",
"`L c #436b1f",
"`M c #73be29",
"`N c #0a1203",
"`O c #12140f",
"`P c #7ec33d",
"`Q c #060803",
"`R c #1a280c",
"`S c #90dd44",
"`T c #94e445",
"`U c #92e144",
"`V c #8fde42",
"`W c #89d83f",
"`X c #345217",
"`Y c #7dc337",
"`Z c #7ed02e",
"`0 c #6cb822",
"`1 c #131510",
"`2 c #74b337",
"`3 c #7bbd3a",
"`4 c #355219",
"`5 c #79bb38",
"`6 c #8ddc41",
"`7 c #8bd93f",
"`8 c #3f631c",
".` c #6eae31",
".. c #7ece30",
".# c #75c924",
".a c #67b31f",
".b c #0a1103",
".c c #141611",
".d c #93e244",
".e c #90df43",
".f c #89d53f",
".g c #3f621c",
".h c #588a27",
".i c #528323",
".j c #558a22",
".k c #78ca29",
".l c #73c622",
".m c #70c320",
".n c #64ae1b",
".o c #091102",
".p c #141612",
".q c #8ad341",
".r c #8edd42",
".s c #8bda40",
".t c #89d73d",
".u c #80d231",
".v c #4d8019",
".w c #2f510f",
".x c #73c723",
".y c #71c421",
".z c #6ec11f",
".A c #6cbe1d",
".B c #5fa818",
".C c #091002",
".D c #151712",
".E c #85cf3d",
".F c #8ad83e",
".G c #86d53a",
".H c #7bcf2a",
".I c #77cb25",
".J c #74c823",
".K c #33580f",
".L c #6fc11f",
".M c #6abb1b",
".N c #67b819",
".O c #5ba415",
".P c #161813",
".Q c #81ca3a",
".R c #85d238",
".S c #79cc28",
".T c #72c522",
".U c #6fc220",
".V c #25410a",
".W c #67b61b",
".X c #68b91a",
".Y c #65b618",
".Z c #62b216",
".0 c #579f12",
".1 c #080f02",
".2 c #161814",
".3 c #7dc537",
".4 c #77ca27",
".5 c #72c622",
".6 c #6dbf1e",
".7 c #60a819",
".8 c #020401",
"#` c #284a0a",
"#. c #63b316",
"## c #60b014",
"#a c #5ead12",
"#b c #529a0e",
"#c c #080f01",
"#d c #171915",
"#e c #73bd2a",
"#f c #6ec01e",
"#g c #6bbd1c",
"#h c #69ba1a",
"#i c #66b718",
"#j c #31590b",
"#k c #519311",
"#l c #5caa10",
"#m c #59a70e",
"#n c #4e950b",
"#o c #58991a",
"#p c #5ba018",
"#q c #599e17",
"#r c #579a15",
"#s c #549813",
"#t c #529512",
"#u c #509310",
"#v c #4e900e",
"#w c #4c8e0d",
"#x c #498b0b",
"#y c #478909",
"#z c #3f7a07",
"#A c #070e01",
"#B c #16210a",
"#C c #0d1704",
"#D c #0d1703",
"#E c #0d1603",
"#F c #0c1603",
"#G c #0c1502",
"#H c #0b1502",
"#I c #0b1402",
"#J c #0b1401",
"#K c #0a1401",
"#L c #0a1301",
"#M c #102001",
"#N c #94e149",
"#O c #84db30",
"#P c #81d72d",
"#Q c #7dd22a",
"#R c #79ce27",
"#S c #72c521",
"#T c #6abc1c",
"#U c #66b719",
"#V c #5fae13",
"#W c #5baa10",
"#X c #57a50d",
"#Y c #54a10a",
"#Z c #63a622",
"#0 c #000000",
"#1 c #000000",
"#2 c #000000",
"#3 c #000000",
"#4 c #000000",
"#5 c #000000",
"#6 c #000000",
"#7 c #000000",
"#8 c #000000",
"a` c #000000",
"a. c #000000",
"a# c #000000",
"aa c #000000",
"ab c #000000",
"ac c #000000",
"ad c #000000",
"ae c #000000",
"af c #000000",
"ag c #000000",
"ah c #000000",
"ai c #000000",
"aj c #000000",
"ak c #000000",
"al c #000000",
"am c #000000",
"an c #000000",
"ao c #000000",
"ap c #000000",
"aq c #000000",
"ar c #000000",
"as c #000000",
"at c #000000",
"au c #000000",
"av c #000000",
"aw c #000000",
"ax c #000000",
"ay c #000000",
"az c #000000",
"aA c #000000",
"aB c #000000",
"aC c #000000",
"aD c #000000",
"aE c #000000",
"aF c #000000",
"aG c #000000",
"aH c #000000",
"aI c #000000",
"aJ c #000000",
"aK c #000000",
"aL c #000000",
"aM c #000000",
"aN c #000000",
"aO c #000000",
"aP c #000000",
"aQ c #000000",
"aR c #000000",
"aS c #000000",
"aT c #000000",
"aU c #000000",
"aV c #000000",
"aW c #000000",
"aX c #000000",
"aY c #000000",
"aZ c #000000",
"a0 c #000000",
"a1 c #000000",
"a2 c #000000",
"a3 c #000000",
"a4 c #000000",
"a5 c #000000",
"a6 c #000000",
"a7 c #000000",
"a8 c #000000",
/* pixels */
"```.`#`a`b`c`d`e`f`g`h`i`j`k`l`m",
"`n`o`p`p`p`p`p`p`p`p`p`p`p`p`q`r",
"`n`s`t`u`u`u`u`u`u`u`u`v`w`x`y`r",
"`n`z`t`u`u`u`u`u`u`u`A`B`C`D`E`r",
"`n`z`t`F`G`u`u`u`H`I`J`K`L`M`N`r",
"`n`O`P`Q`R`S`T`U`V`W`X`Y`Z`0`N`r",
"`n`1`t`2`3`4`5`6`7`8.`...#.a.b`r",
"`n.c`t.d.e.f.g.h.i.j.k.l.m.n.o`r",
"`n.p.q.r.s.t.u.v.w.x.y.z.A.B.C`r",
"`n.D.E.F.G.H.I.J.K.L.A.M.N.O.C`r",
"`n.P.Q.R.S.J.T.U.V.W.X.Y.Z.0.1`r",
"`n.2.3.4.5.m.6.7.8#`#.###a#b#c`r",
"`n#d#e.m#f#g#h#i#j#k#a#l#m#n#c`r",
"`n.p#o#p#q#r#s#t#u#v#w#x#y#z#A`r",
"`n#B#C#D#E#F#F#G#H#I#J#K#L#L#M`r",
"#N#O#P#Q#R.##S#f#T#U#.#V#W#X#Y#Z"
};
