/* XPM */
static const char *gp_menu_16_xpm[] = {
/* width height num_colors chars_per_pixel */
"    16    16      256            2",
/* colors */
"`` c #b2c2d8",
"`. c #aebed4",
"`# c #a4b3c9",
"`a c None",
"`b c #ffffff",
"`c c #9cabc0",
"`d c #354963",
"`e c #afbfd5",
"`f c #95a4b9",
"`g c #bac5d4",
"`h c #abbbd1",
"`i c #93a2b7",
"`j c #364a64",
"`k c #a7b6cc",
"`l c #97a0b1",
"`m c #8f99ab",
"`n c #8692a7",
"`o c #7f8ba2",
"`p c #fbfcfd",
"`q c #b4c3d8",
"`r c #a3b2c8",
"`s c #f5f7fa",
"`t c #e9edf5",
"`u c #90ab82",
"`v c #9eaec3",
"`w c #68e949",
"`x c #54e92a",
"`y c #3de906",
"`z c #3ae001",
"`A c #3fd50f",
"`B c #e1e7f1",
"`C c #88a27d",
"`D c #79906f",
"`E c #9aa9be",
"`F c #fcfdfe",
"`G c #e6ebf4",
"`H c #dae1ee",
"`I c #819977",
"`J c #a9d794",
"`K c #96a5ba",
"`L c #98a0b1",
"`M c #8f99ac",
"`N c #8691a7",
"`O c #7f8ba1",
"`P c #96b387",
"`Q c #7a9171",
"`R c #aedc97",
"`S c #87c070",
"`T c #f0f3f8",
"`U c #bae7a3",
"`V c #b5e39c",
"`W c #b0e098",
"`X c #acdb94",
"`Y c #a9d793",
"`Z c #7fbb67",
"`0 c #76ac5f",
"`1 c #f9fafc",
"`2 c #eef1f7",
"`3 c #d5ddec",
"`4 c #b7e5a0",
"`5 c #9eda82",
"`6 c #95d17b",
"`7 c #8bc671",
"`8 c #75b05e",
".` c #68a454",
".. c #5b8e4b",
".# c #5e7057",
".a c #afdf97",
".b c #7bad66",
".c c #73a55e",
".d c #6a9c56",
".e c #61924f",
".f c #457339",
".g c #192018",
".h c #20291f",
".i c #283226",
".j c #303d2e",
".k c #374635",
".l c #578946",
".m c #768a6d",
".n c #000000",
".o c #000000",
".p c #000000",
".q c #000000",
".r c #000000",
".s c #000000",
".t c #000000",
".u c #000000",
".v c #000000",
".w c #000000",
".x c #000000",
".y c #000000",
".z c #000000",
".A c #000000",
".B c #000000",
".C c #000000",
".D c #000000",
".E c #000000",
".F c #000000",
".G c #000000",
".H c #000000",
".I c #000000",
".J c #000000",
".K c #000000",
".L c #000000",
".M c #000000",
".N c #000000",
".O c #000000",
".P c #000000",
".Q c #000000",
".R c #000000",
".S c #000000",
".T c #000000",
".U c #000000",
".V c #000000",
".W c #000000",
".X c #000000",
".Y c #000000",
".Z c #000000",
".0 c #000000",
".1 c #000000",
".2 c #000000",
".3 c #000000",
".4 c #000000",
".5 c #000000",
".6 c #000000",
".7 c #000000",
".8 c #000000",
"#` c #000000",
"#. c #000000",
"## c #000000",
"#a c #000000",
"#b c #000000",
"#c c #000000",
"#d c #000000",
"#e c #000000",
"#f c #000000",
"#g c #000000",
"#h c #000000",
"#i c #000000",
"#j c #000000",
"#k c #000000",
"#l c #000000",
"#m c #000000",
"#n c #000000",
"#o c #000000",
"#p c #000000",
"#q c #000000",
"#r c #000000",
"#s c #000000",
"#t c #000000",
"#u c #000000",
"#v c #000000",
"#w c #000000",
"#x c #000000",
"#y c #000000",
"#z c #000000",
"#A c #000000",
"#B c #000000",
"#C c #000000",
"#D c #000000",
"#E c #000000",
"#F c #000000",
"#G c #000000",
"#H c #000000",
"#I c #000000",
"#J c #000000",
"#K c #000000",
"#L c #000000",
"#M c #000000",
"#N c #000000",
"#O c #000000",
"#P c #000000",
"#Q c #000000",
"#R c #000000",
"#S c #000000",
"#T c #000000",
"#U c #000000",
"#V c #000000",
"#W c #000000",
"#X c #000000",
"#Y c #000000",
"#Z c #000000",
"#0 c #000000",
"#1 c #000000",
"#2 c #000000",
"#3 c #000000",
"#4 c #000000",
"#5 c #000000",
"#6 c #000000",
"#7 c #000000",
"#8 c #000000",
"a` c #000000",
"a. c #000000",
"a# c #000000",
"aa c #000000",
"ab c #000000",
"ac c #000000",
"ad c #000000",
"ae c #000000",
"af c #000000",
"ag c #000000",
"ah c #000000",
"ai c #000000",
"aj c #000000",
"ak c #000000",
"al c #000000",
"am c #000000",
"an c #000000",
"ao c #000000",
"ap c #000000",
"aq c #000000",
"ar c #000000",
"as c #000000",
"at c #000000",
"au c #000000",
"av c #000000",
"aw c #000000",
"ax c #000000",
"ay c #000000",
"az c #000000",
"aA c #000000",
"aB c #000000",
"aC c #000000",
"aD c #000000",
"aE c #000000",
"aF c #000000",
"aG c #000000",
"aH c #000000",
"aI c #000000",
"aJ c #000000",
"aK c #000000",
"aL c #000000",
"aM c #000000",
"aN c #000000",
"aO c #000000",
"aP c #000000",
"aQ c #000000",
"aR c #000000",
"aS c #000000",
"aT c #000000",
"aU c #000000",
"aV c #000000",
"aW c #000000",
"aX c #000000",
"aY c #000000",
"aZ c #000000",
"a0 c #000000",
"a1 c #000000",
"a2 c #000000",
"a3 c #000000",
"a4 c #000000",
"a5 c #000000",
"a6 c #000000",
"a7 c #000000",
"a8 c #000000",
/* pixels */
"```````````.`#`a`a`a`a`a`a`a`a`a",
"```b`b`b`b`b`c`d`a`a`a`a`a`a`a`a",
"`e`b`b`b`b`b`f`g`d`a`a`a`a`a`a`a",
"`h`b`b`b`b`b`i`j`j`j`a`a`a`a`a`a",
"`k`b`l`m`n`o`p`q`q`j`a`a`a`a`a`a",
"`r`b`b`b`b`b`s`t`q`d`u`a`a`a`a`a",
"`v`b`w`x`y`z`A`B`q`d`C`D`a`a`a`a",
"`E`b`b`b`b`F`G`H`q`d`I`J`D`a`a`a",
"`K`b`L`M`N`O`P`u`C`I`Q`R`S`D`a`a",
"`i`b`b`b`p`T`u`U`V`W`X`Y`Z`0`D`a",
"`i`b`1`2`B`3`C`4`5`6`7`Z`8.`...#",
"`i`b`q`q`q`q`I.a.b.c.d.e.`.f.g`a",
"`i`d`d`d`d`d`Q.h.i.j.k.l.f.g`a`a",
"`a`a`a`a`a`a`a`a`a`a.m.f.g`a`a`a",
"`a`a`a`a`a`a`a`a`a`a.m.g`a`a`a`a",
"`a`a`a`a`a`a`a`a`a`a.m`a`a`a`a`a"
};
