/* XPM */
static const char * id_xpm[] = {
"16 16 27 1",
" 	c None",
".	c #75507B",
"+	c #76507B",
"@	c #76517C",
"#	c #7E5883",
"$	c #78547D",
"%	c #9D729B",
"&	c #AA7CA5",
"*	c #815A85",
"=	c #7C5C82",
"-	c #754F7A",
";	c #AB7EA7",
">	c #AD7FA8",
",	c #966C95",
"'	c #BABDB6",
")	c #855D88",
"!	c #976D97",
"~	c #917C94",
"{	c #BABEB7",
"]	c #76527C",
"^	c #927A94",
"/	c #BABCB6",
"(	c #7A5880",
"_	c #76517B",
":	c #907B93",
"<	c #B9BBB6",
"[	c #BBBDB5",
"                ",
"                ",
"                ",
"       .        ",
"     ...+       ",
"    ..@#.$      ",
"    .@%&*.=     ",
"   -.*;>,.@'    ",
"    ..)!@.~'{   ",
"     ]...^/'    ",
"      (_:/''    ",
"       <'''     ",
"        [       ",
"                ",
"                ",
"                "};
