/* XPM */
static const char * info_xpm[] = {
"16 16 83 1",
" 	c None",
".	c #6189B9",
"+	c #5E85B6",
"@	c #5C82B1",
"#	c #5C81B1",
"$	c #5D85B4",
"%	c #5F89B7",
"&	c #5D82B1",
"*	c #4C6E9F",
"=	c #4F70A0",
"-	c #5071A1",
";	c #4B6D9E",
">	c #5980B1",
",	c #5479A8",
"'	c #6582AC",
")	c #9DAFCA",
"!	c #5077A7",
"~	c #5B81B2",
"{	c #8199BC",
"]	c #FFFFFF",
"^	c #577EB0",
"/	c #5D87B7",
"(	c #6783AD",
"_	c #A2B4CD",
":	c #4A6D9F",
"<	c #5A86B5",
"[	c #5B83B3",
"}	c #5171A1",
"|	c #5172A1",
"1	c #5272A2",
"2	c #5B7AA7",
"3	c #7891B6",
"4	c #7992B6",
"5	c #5E7CA8",
"6	c #5373A2",
"7	c #5474A3",
"8	c #537DB0",
"9	c #5C82B3",
"0	c #5575A4",
"a	c #5676A4",
"b	c #8098BB",
"c	c #7E96BA",
"d	c #486B9D",
"e	c #5877A5",
"f	c #557FAF",
"g	c #5880B0",
"h	c #5A79A6",
"i	c #5B79A7",
"j	c #849BBD",
"k	c #6683AD",
"l	c #204A87",
"m	c #29528C",
"n	c #44679A",
"o	c #5A78A6",
"p	c #537EB1",
"q	c #4E6FA0",
"r	c #5F7DA9",
"s	c #5C7BA8",
"t	c #4A6C9E",
"u	c #6481AC",
"v	c #224C88",
"w	c #4E7BAF",
"x	c #26508C",
"y	c #244D89",
"z	c #234C88",
"A	c #244F8B",
"B	c #5482B5",
"C	c #4B76AA",
"D	c #214A87",
"E	c #4572A8",
"F	c #39669D",
"G	c #3E6297",
"H	c #97ABC7",
"I	c #45689B",
"J	c #35639B",
"K	c #4774A9",
"L	c #234F8B",
"M	c #4472A8",
"N	c #5482B3",
"O	c #4B79AD",
"P	c #4272A7",
"Q	c #4879AD",
"R	c #5180B3",
"                ",
"     .+@#$%     ",
"    &*=--=;>    ",
"   ,=-'))'-=!   ",
"  ~=--{]]{--=^  ",
" /*---(__(---:< ",
" [}||1234567768 ",
" 900aab]]cdeeef ",
" ghhiij]]klmnof ",
" pqrstu]]klllvw ",
" <xyzle]]klllAB ",
"  CDlle]]klllE  ",
"   FllGHHIllJ   ",
"    KAllllLM    ",
"     NOPPQR     ",
"                "};
