/* XPM */
static const char * json_dset_16_xpm[] = {
"16 16 118 2",
"  	c None",
". 	c #709ECD",
"+ 	c #5783B6",
"@ 	c #5883B7",
"# 	c #5782B6",
"$ 	c #5682B6",
"% 	c #5581B5",
"& 	c #5480B4",
"* 	c #537FB4",
"= 	c #527EB4",
"- 	c #527EB3",
"; 	c #6F9BCC",
"> 	c #709CCE",
", 	c #244E8A",
"' 	c #426CA3",
") 	c #406AA2",
"! 	c #3F69A1",
"~ 	c #3D67A0",
"{ 	c #3B669E",
"] 	c #3A649D",
"^ 	c #38639C",
"/ 	c #37619B",
"( 	c #35609A",
"_ 	c #335E99",
": 	c #6794C4",
"< 	c #2A5490",
"[ 	c #759ECC",
"} 	c #769ECB",
"| 	c #CAD5E2",
"1 	c #E6E9EA",
"2 	c #7B9FC8",
"3 	c #7B9DC6",
"4 	c #E5E8E9",
"5 	c #C4D0DE",
"6 	c #5A84B8",
"7 	c #507CB3",
"8 	c #28538F",
"9 	c #92B1D2",
"0 	c #E7EAEA",
"a 	c #759CC8",
"b 	c #658FC1",
"c 	c #628BBE",
"d 	c #6A92C1",
"e 	c #E8E9EA",
"f 	c #7C9CC4",
"g 	c #4E7AB3",
"h 	c #26528E",
"i 	c #A0BAD6",
"j 	c #D9E0E6",
"k 	c #6893C4",
"l 	c #648FC1",
"m 	c #618BBE",
"n 	c #5C88BC",
"o 	c #D8DEE4",
"p 	c #8DA8CA",
"q 	c #4372AE",
"r 	c #ACC2DA",
"s 	c #D4DCE4",
"t 	c #D1D9E2",
"u 	c #95AECC",
"v 	c #3F6FAC",
"w 	c #AAC1DA",
"x 	c #E0E4E8",
"y 	c #AAC0D9",
"z 	c #5F8ABE",
"A 	c #5784B9",
"B 	c #9BB2CF",
"C 	c #DAE0E5",
"D 	c #8DA8C9",
"E 	c #ADC3DB",
"F 	c #E1E5E8",
"G 	c #A8BED8",
"H 	c #638FC2",
"I 	c #5987BD",
"J 	c #5180B8",
"K 	c #4C7CB5",
"L 	c #93ADCC",
"M 	c #DCE1E6",
"N 	c #92ABCA",
"O 	c #2A5590",
"P 	c #ADC3DA",
"Q 	c #D1DAE3",
"R 	c #5988BE",
"S 	c #5584BB",
"T 	c #CCD6E0",
"U 	c #9BB7D5",
"V 	c #D7DEE5",
"W 	c #D5DCE3",
"X 	c #83A1C6",
"Y 	c #2B5590",
"Z 	c #6F9ACA",
"` 	c #89AACF",
" .	c #628EC1",
"..	c #E7E9E9",
"+.	c #7194BF",
"@.	c #6895C7",
"#.	c #6995C6",
"$.	c #CCD7E2",
"%.	c #ECECEB",
"&.	c #7097C4",
"*.	c #6F95C2",
"=.	c #EBECEB",
"-.	c #C6D2DE",
";.	c #4A78B2",
">.	c #224C88",
",.	c #2D5893",
"'.	c #2C5792",
").	c #2B5692",
"!.	c #2B5591",
"~.	c #2A5591",
"{.	c #295490",
"].	c #27528F",
"^.	c #26518E",
"/.	c #214B88",
"(.	c #729FCE",
"_.	c #6997C8",
":.	c #6996C8",
"<.	c #6E9CCC",
"                                ",
"  . + @ # $ $ % & & * = - - ;   ",
"  > , ' ) ! ~ { ] ^ / ( _ , :   ",
"  > < [ } | 1 2 3 4 5 6 7 8 :   ",
"  > < [ 9 0 a b c d e f g h :   ",
"  > < [ i j k l m n o p q h :   ",
"  > < [ r s k l m n t u v h :   ",
"  > < w x y k l z A B C D h :   ",
"  > < E F G H I J K L M N h :   ",
"  > O [ P Q R S J K T L v h :   ",
"  > O [ U V R S J K W X v h :   ",
"  > Y Z ` 1  .S J A ..+.v h :   ",
"  > O @.#.$.%.&.*.=.-.;.v h :   ",
"  > >.,.'.).!.~.{.8 ].h ^./.:   ",
"  (._._._._._._._.:.:.:.:.:.<.  ",
"                                "};
