/* XPM */
static const char * json_dset_48_xpm[] = {
"48 48 422 2",
"  	c None",
". 	c #72A0CF",
"+ 	c #729FCF",
"@ 	c #719ECF",
"# 	c #6C99CB",
"$ 	c #254F8B",
"% 	c #244E8B",
"& 	c #244E8A",
"* 	c #234E8A",
"= 	c #234D8A",
"- 	c #5781B5",
"; 	c #6C99CA",
"> 	c #204A87",
", 	c #527DB2",
"' 	c #26508C",
") 	c #335C96",
"! 	c #325C96",
"~ 	c #325C95",
"{ 	c #315B95",
"] 	c #315A95",
"^ 	c #305A95",
"/ 	c #305A94",
"( 	c #2F5A94",
"_ 	c #2F5994",
": 	c #2E5893",
"< 	c #2D5893",
"[ 	c #2D5792",
"} 	c #2C5792",
"| 	c #2C5692",
"1 	c #2C5691",
"2 	c #2B5691",
"3 	c #2B5591",
"4 	c #2A5590",
"5 	c #27518D",
"6 	c #517CB2",
"7 	c #3E679F",
"8 	c #769FCD",
"9 	c #759ECC",
"0 	c #739DCB",
"a 	c #729CCA",
"b 	c #709AC9",
"c 	c #6F99C8",
"d 	c #6D98C8",
"e 	c #6D96C7",
"f 	c #6B95C6",
"g 	c #6A94C5",
"h 	c #6893C4",
"i 	c #6792C3",
"j 	c #6590C2",
"k 	c #648FC1",
"l 	c #638DC0",
"m 	c #628CBF",
"n 	c #618BBE",
"o 	c #5F8ABD",
"p 	c #5E89BD",
"q 	c #5C88BC",
"r 	c #5B86BB",
"s 	c #5985BA",
"t 	c #5983B9",
"u 	c #5782B8",
"v 	c #5681B7",
"w 	c #5480B6",
"x 	c #537FB5",
"y 	c #517EB4",
"z 	c #507CB3",
"A 	c #4E7BB3",
"B 	c #406AA5",
"C 	c #244D89",
"D 	c #A1B1C6",
"E 	c #ACBCCF",
"F 	c #C1D1E0",
"G 	c #C1D0E0",
"H 	c #ACC3DA",
"I 	c #779DCA",
"J 	c #B0C4DA",
"K 	c #CBD6E2",
"L 	c #D4DDE4",
"M 	c #C5D2E0",
"N 	c #A3BAD5",
"O 	c #6F97C5",
"P 	c #608ABD",
"Q 	c #9BB4D1",
"R 	c #C1CEDD",
"S 	c #CBD6E0",
"T 	c #ABBFD5",
"U 	c #698EBE",
"V 	c #92ACCB",
"W 	c #B4C4D7",
"X 	c #8CA7C9",
"Y 	c #5373A0",
"Z 	c #B4C4D6",
"` 	c #81A9D3",
" .	c #254E89",
"..	c #BBC5D3",
"+.	c #C3CDD9",
"@.	c #D0DAE4",
"#.	c #ECECEB",
"$.	c #CFDAE4",
"%.	c #7AA1CC",
"&.	c #E2E6E9",
"*.	c #E8EAEA",
"=.	c #AEC2D9",
"-.	c #C3D0DF",
";.	c #E9EAEA",
">.	c #90AECF",
",.	c #BECCDC",
"'.	c #EDEDEC",
").	c #BACADB",
"!.	c #ADC0D6",
"~.	c #E0E4E7",
"{.	c #DEE2E6",
"].	c #6C91BF",
"^.	c #B8C7D9",
"/.	c #EEEEEC",
"(.	c #E2E5E8",
"_.	c #527EB5",
":.	c #728CAF",
"<.	c #8AAED5",
"[.	c #E3E7E9",
"}.	c #BCCDDE",
"|.	c #83A5CD",
"1.	c #7399C6",
"2.	c #81A2C8",
"3.	c #A6BBD4",
"4.	c #7196C2",
"5.	c #EBECEB",
"6.	c #B0C2D7",
"7.	c #ECEDEB",
"8.	c #E7E9E9",
"9.	c #8AA6C8",
"0.	c #3C68A3",
"a.	c #D4DDE5",
"b.	c #D9E0E6",
"c.	c #B4C6D9",
"d.	c #7095C3",
"e.	c #CAD4E0",
"f.	c #E5E8E9",
"g.	c #5883B8",
"h.	c #EAEBEB",
"i.	c #ADBFD5",
"j.	c #CDD7E0",
"k.	c #3663A0",
"l.	c #B3C7DC",
"m.	c #EDEEEC",
"n.	c #8EADD0",
"o.	c #CAD5E0",
"p.	c #AEC0D6",
"q.	c #668DBD",
"r.	c #6B8FBD",
"s.	c #5B7FB0",
"t.	c #80A5CD",
"u.	c #D8DFE6",
"v.	c #B1C5DA",
"w.	c #87A8CD",
"x.	c #6690C2",
"y.	c #D7DEE4",
"z.	c #DBE1E6",
"A.	c #A4B9D3",
"B.	c #7496C1",
"C.	c #C2CEDC",
"D.	c #ABBBD0",
"E.	c #7EA2CC",
"F.	c #B4C7DB",
"G.	c #CFD9E3",
"H.	c #DFE3E7",
"I.	c #D5DDE4",
"J.	c #9EB5D1",
"K.	c #7C9CC4",
"L.	c #4875B0",
"M.	c #7697C0",
"N.	c #EAEBEA",
"O.	c #325890",
"P.	c #7A9FC9",
"Q.	c #B2C5DA",
"R.	c #C2CFDE",
"S.	c #D3DBE3",
"T.	c #DEE3E7",
"U.	c #A7BBD4",
"V.	c #6F93C0",
"W.	c #3F6FAC",
"X.	c #3F70AC",
"Y.	c #D9DFE4",
"Z.	c #8399B8",
"`.	c #CCD8E3",
" +	c #D0D9E3",
".+	c #E6E8E9",
"++	c #C6D2DF",
"@+	c #608ABE",
"#+	c #B5C5D8",
"$+	c #6189BB",
"%+	c #3D6EAB",
"&+	c #8CA4C4",
"*+	c #D7DCE1",
"=+	c #758EB1",
"-+	c #73A0CF",
";+	c #87AAD1",
">+	c #BFCFDF",
",+	c #CAD5E1",
"'+	c #E4E7E9",
")+	c #A5BBD4",
"!+	c #7D9FC7",
"~+	c #D8DEE5",
"{+	c #D6DDE4",
"]+	c #537FB6",
"^+	c #B3C4D7",
"/+	c #436DA6",
"(+	c #E8E9E9",
"_+	c #B5C1D0",
":+	c #89AED4",
"<+	c #C6D4E1",
"[+	c #3E6296",
"}+	c #466DA2",
"|+	c #B5C8DD",
"1+	c #A4BDD8",
"2+	c #9EB7D5",
"3+	c #7098C7",
"4+	c #6E97C6",
"5+	c #99B4D2",
"6+	c #C3D1DF",
"7+	c #608BBD",
"8+	c #96B0CE",
"9+	c #9CB3D0",
"0+	c #5581B7",
"a+	c #4776B1",
"b+	c #B2C3D6",
"c+	c #33619F",
"d+	c #A3B2C7",
"e+	c #84AAD3",
"f+	c #DDE0E4",
"g+	c #E6E8E8",
"h+	c #D2DBE5",
"i+	c #769FCC",
"j+	c #DDE3E7",
"k+	c #EAECEB",
"l+	c #D4DCE4",
"m+	c #7299C5",
"n+	c #8FACCD",
"o+	c #B9C8DA",
"p+	c #5A85B9",
"q+	c #4978B2",
"r+	c #4373AF",
"s+	c #4C6D9D",
"t+	c #719CCB",
"u+	c #5D7AA5",
"v+	c #768FB1",
"w+	c #859EBE",
"x+	c #95B3D5",
"y+	c #7FA2CC",
"z+	c #99B4D3",
"A+	c #A4BCD6",
"B+	c #9BB6D3",
"C+	c #86A7CC",
"D+	c #6D93C2",
"E+	c #8CA9CC",
"F+	c #95AFCE",
"G+	c #769AC4",
"H+	c #547FB6",
"I+	c #4877B2",
"J+	c #4575B0",
"K+	c #5E86B8",
"L+	c #6A8FBC",
"M+	c #50719F",
"N+	c #7899C1",
"O+	c #78A3D0",
"P+	c #5884B9",
"Q+	c #4D7CB5",
"R+	c #4676B1",
"S+	c #4272AE",
"T+	c #4071AD",
"U+	c #7EA2CB",
"V+	c #A6BDD7",
"W+	c #B3C6DA",
"X+	c #B3C5DA",
"Y+	c #608BBE",
"Z+	c #5B88BC",
"`+	c #ACBFD6",
" @	c #A9BDD5",
".@	c #97B1CE",
"+@	c #638BBC",
"@@	c #4979B3",
"#@	c #85A7CE",
"$@	c #A5BCD5",
"%@	c #5987BD",
"&@	c #5583BA",
"*@	c #5281B9",
"=@	c #5180B8",
"-@	c #9DB5D1",
";@	c #BCCBDB",
">@	c #E1E5E8",
",@	c #678EBD",
"'@	c #96B2D1",
")@	c #5A88BE",
"!@	c #5685BC",
"~@	c #5584BB",
"{@	c #5482BA",
"]@	c #4F7EB7",
"^@	c #4E7DB6",
"/@	c #86A5C9",
"(@	c #99B2CF",
"_@	c #BACBDD",
":@	c #5887BD",
"<@	c #648DBD",
"[@	c #A9BDD4",
"}@	c #6A94C6",
"|@	c #B6C8DB",
"1@	c #6D96C4",
"2@	c #618BBC",
"3@	c #AABED5",
"4@	c #6A96C6",
"5@	c #5F8DC1",
"6@	c #BAC9DA",
"7@	c #6B96C7",
"8@	c #5F8EC2",
"9@	c #E9EBEA",
"0@	c #D8DFE5",
"a@	c #5988BE",
"b@	c #4C7CB5",
"c@	c #517EB5",
"d@	c #94B1D2",
"e@	c #D1DAE3",
"f@	c #CED8E2",
"g@	c #7B9FC9",
"h@	c #6F94C1",
"i@	c #CAD4DF",
"j@	c #CBD5E0",
"k@	c #82A1C6",
"l@	c #719BCA",
"m@	c #6491C5",
"n@	c #81A5CC",
"o@	c #AEC3D9",
"p@	c #D3DCE4",
"q@	c #8CA8CA",
"r@	c #E3E6E8",
"s@	c #CED7E1",
"t@	c #A2B8D1",
"u@	c #6B91BE",
"v@	c #739CCB",
"w@	c #6794C6",
"x@	c #6290C4",
"y@	c #618FC3",
"z@	c #608DC2",
"A@	c #E2E6E8",
"B@	c #4977B2",
"C@	c #6B97C8",
"D@	c #6492C5",
"E@	c #5E8CC1",
"F@	c #BDCDDD",
"G@	c #6993C3",
"H@	c #5D88BB",
"I@	c #B2C4D7",
"J@	c #729CCB",
"K@	c #6593C6",
"L@	c #759FCD",
"M@	c #6996C8",
"N@	c #739AC6",
"O@	c #6890BE",
"P@	c #A7BCD4",
"Q@	c #6F9BCB",
"R@	c #6794C7",
"S@	c #A2BBD5",
"T@	c #9CB6D3",
"U@	c #94AFCD",
"V@	c #94AECD",
"W@	c #3D679F",
"X@	c #6896C8",
"Y@	c #6B95C5",
"Z@	c #E0E4E8",
"`@	c #DFE4E7",
" #	c #C0CEDD",
".#	c #BDCBDC",
"+#	c #DCE1E6",
"@#	c #5984B8",
"##	c #3A659E",
"$#	c #5C8BC0",
"%#	c #5D8BC0",
"&#	c #7DA1C9",
"*#	c #8BAACD",
"=#	c #8EACCE",
"-#	c #89A7CA",
";#	c #84A3C8",
">#	c #7397C2",
",#	c #4E7CB5",
"'#	c #4B77AD",
")#	c #4A76AD",
"!#	c #4975AC",
"~#	c #4875AC",
"{#	c #4773AB",
"]#	c #4673AB",
"^#	c #4572AA",
"/#	c #4571A9",
"(#	c #4470A9",
"_#	c #436FA8",
":#	c #426FA8",
"<#	c #416EA7",
"[#	c #406DA6",
"}#	c #3F6CA6",
"|#	c #3F6BA5",
"1#	c #3E6BA5",
"2#	c #3D6AA4",
"3#	c #3C69A3",
"4#	c #3B68A3",
"5#	c #3A68A2",
"6#	c #3966A2",
"7#	c #3866A1",
"8#	c #3865A0",
"9#	c #3764A0",
"0#	c #36639F",
"a#	c #35629F",
"b#	c #34629E",
"c#	c #33619E",
"d#	c #32609D",
"e#	c #315F9C",
"f#	c #2B5895",
"g#	c #709DCE",
"h#	c #5884B8",
"i#	c #5784B8",
"j#	c #5783B8",
"k#	c #5783B7",
"l#	c #5683B7",
"m#	c #5682B7",
"n#	c #6894C6",
"o#	c #729FD0",
"                                                                                                ",
"                                                                                                ",
"        . + + + + + + + + + + + + + + + + + + + + + + + + + + + + + + + + + + + + + + @         ",
"      + + + + + + + + + + + + + + + + + + + + + + + + + + + + + + + + + + + + + + + + + +       ",
"      + + + + + + + + + + + + + + + + + + + + + + + + + + + + + + + + + + + + + + + + + +       ",
"      + + # $ $ $ $ $ $ $ $ $ $ $ $ % % % % % % & & & & & & & & * = = = = = = = = = - + +       ",
"      + + ; > > > > > > > > > > > > > > > > > > > > > > > > > > > > > > > > > > > > , + +       ",
"      + + ; > > ' ) ! ! ~ { { { ] ^ / / ( _ _ : : : : < [ [ } | | 1 2 3 3 4 4 5 > > 6 + +       ",
"      + + ; > > 7 8 9 0 a b c d e f g h i j k l m n o p q r s t u v w x y z A B > > 6 + +       ",
"      + + ; C D E F G H a b c d I J K L M N O l m n P Q R S T U u v w V W X A B > Y Z ` +       ",
"      + + ;  ...+.@.#.$.a b c %.&.*.M =.-.;.>.l m n ,.'.).!.~.{.].v w ^./.(._.B > :./.<.+       ",
"      + + ; > > 7 8 [.$.a b c }./.|.g h i O 1.l m 2./.3.q r 4.5.6.v w ^.7.8.9.0.> :./.<.+       ",
"      + + ; > > 7 8 [.$.a b c a.b.f g h i j k l m c./.d.q r s e.f.g.w ^.h.i.j.k.> :./.<.+       ",
"      + + ; > > 7 8 [.$.a b c l.m.n.g h i j k l m o.f.p q r s p./.q.w ^.h.r./.s.> :./.<.+       ",
"      + + ; > > 7 8 [.$.a b c t.*./.u.v.w.x.k l m y.z.p q r s A./.B.w ^.h.z C.D.> :./.<.+       ",
"      + + ; > > 7 8 [.$.a b c d E.F.z././.G.1.l m H.I.p q r s J./.K.w ^.h.L.M.N.O.:./.<.+       ",
"      + + ; > > 7 8 [.$.a b c d e f g P.Q./.R.l m S.T.p q r s U./.V.w ^.h.W.X.Y.Z.:./.<.+       ",
"      + + ; > > 7 8 *.`.a b c d e f g h i  +.+l m ++h.@+q r s #+/.$+w ^.h.W.%+&+*+=+/.<.+       ",
"      + -+; > > 7 ;+/.>+a b c d e f g h i ,+'+l m )+/.!+q r s ~+{+v ]+^+h.W.%+/+(+_+/.<.+       ",
"      + :+<+[+> }+|+/.1+a b c l.2+3+g 4+5+/.6+l m d.7.++7+r 8+/.9+0+a+b+h.W.%+c+d+'./.<.+       ",
"      + e+*./.f+g+/.h+i+a b c }./.'.j+k+/.l+m+l m n n+h.;.~./.o+p+q+r+b+h.W.%+c+s+/./.<.+       ",
"      + + t+u+v+w+x+9 0 a b c d y+z+A+B+C+j k l m n o D+E+F+G+H+I+J+r+K+L+W.%+c+> M+N+O++       ",
"      + + ; > > 7 8 9 0 a b c d e f g h i j k l m n o p q P+Q+I+R+J+r+S+T+W.%+c+> > 6 + +       ",
"      + + ; > > 7 8 9 0 a b c d e f U+V+W+X+k l Y+Z+`+ @.@+@@@I+R+J+r+S+T+W.%+c+> > 6 + +       ",
"      + + ; > > 7 8 9 0 a b c d e #@7.[.6+$@%@&@*@=@-@;@>@5.,@I+R+J+r+S+T+W.%+c+> > 6 + +       ",
"      + + ; > > 7 8 9 0 a b c d e =./.'@)@!@~@{@*@=@]@^@/@/.(@I+R+J+r+S+T+W.%+c+> > 6 + +       ",
"      + + ; > > 7 8 9 0 a b c d e _@/.O :@!@~@{@*@=@]@^@<@/.[@I+R+J+r+S+T+W.%+c+> > 6 + +       ",
"      + + ; > > 7 8 9 0 a b c d }@|@/.1@:@!@~@{@*@=@]@^@2@/.3@I+R+J+r+S+T+W.%+c+> > 6 + +       ",
"      + + ; > > 7 8 9 0 a b c 4@5@6+/.j :@!@~@{@*@=@]@^@P+/.6@I+R+J+r+S+T+W.%+c+> > 6 + +       ",
"      + + ; > > 7 8 9 0 a b 7@8@h 9@0@a@:@!@~@{@*@=@]@^@b@0@.+c@R+J+r+S+T+W.%+c+> > 6 + +       ",
"      + + ; > > 7 8 9 0 a d d@e@7.f@g@a@:@!@~@{@*@=@]@^@b@h@i@5.j@k@r+S+T+W.%+c+> > 6 + +       ",
"      + + ; > > 7 8 9 0 l@m@n@o@p@'+'@a@:@!@~@{@*@=@]@^@b@q@r@s@t@u@r+S+T+W.%+c+> > 6 + +       ",
"      + + ; > > 7 8 9 v@w@x@y@8@z@[.A@a@:@!@~@{@*@=@]@^@b@~.T.B@R+J+r+S+T+W.%+c+> > 6 + +       ",
"      + + ; > > 7 8 9 C@D@x@y@8@E@F@/.G@:@!@~@{@*@=@]@^@H@/.I@I+R+J+r+S+T+W.%+c+> > 6 + +       ",
"      + + ; > > 7 8 J@K@D@x@y@8@E@|@/.1@:@!@~@{@*@=@]@^@2@/.3@I+R+J+r+S+T+W.%+c+> > 6 + +       ",
"      + + ; > > 7 L@M@K@D@x@y@8@E@W+/.N@:@!@~@{@*@=@]@^@O@/.P@I+R+J+r+S+T+W.%+c+> > 6 + +       ",
"      + + ; > > 7 Q@R@K@D@x@y@8@E@S@/.T@:@!@~@{@*@=@]@^@U@/.V@I+R+J+r+S+T+W.%+c+> > 6 + +       ",
"      + + ; > > W@X@R@K@D@x@y@8@E@Y@Z@/.`@ #~@{@*@=@.#H./.+#@#I+R+J+r+S+T+W.%+c+> > 6 + +       ",
"      + + ; > > ##X@R@K@D@x@y@8@E@$#%#&#*#=#~@{@*@=@-#;#>#,#@@I+R+J+r+S+T+W.%+c+> > 6 + +       ",
"      + + ; > > ( '#)#!#~#{#]#^#/#(#_#:#<#[#}#|#1#2#3#4#5#6#7#8#9#0#a#b#c#d#e#f#> > 6 + +       ",
"      + + ; > > > > > > > > > > > > > > > > > > > > > > > > > > > > > > > > > > > > 6 + +       ",
"      + + ; > > > > > > > > > > > > > > > > > > > > > > > > > > > > > > > > > > > > 6 + +       ",
"      + + g#@#h#h#h#h#h#h#h#h#h#h#h#h#h#i#j#j#j#j#j#j#j#k#k#k#k#l#l#m#m#m#m#m#m#m#m#n#+ +       ",
"      + + + + + + + + + + + + + + + + + + + + + + + + + + + + + + + + + + + + + + + + + +       ",
"        o#+ + + + + + + + + + + + + + + + + + + + + + + + + + + + + + + + + + + + + + +         ",
"                                                                                                ",
"                                                                                                ",
"                                                                                                "};
