/* XPM */
static const char * kml_subdset_16_xpm[] = {
"16 16 117 2",
"  	c None",
". 	c #29518C",
"+ 	c #4C6D9E",
"@ 	c #5475A3",
"# 	c #2F568E",
"$ 	c #2A528C",
"% 	c #FAFBFC",
"& 	c #FEFEFE",
"* 	c #FCFDFD",
"= 	c #E8EDF4",
"- 	c #DFE7F0",
"; 	c #DFE6F0",
"> 	c #DEE6F0",
", 	c #E6ECF3",
"' 	c #FDFEFE",
") 	c #738DB3",
"! 	c #FBFBFC",
"~ 	c #FFFFFF",
"{ 	c #FDFDFE",
"] 	c #ACC0DA",
"^ 	c #4E79B0",
"/ 	c #4673AC",
"( 	c #88A4C9",
"_ 	c #718CB3",
": 	c #F5F7FA",
"< 	c #6389B9",
"[ 	c #95AFD0",
"} 	c #DAE3EF",
"| 	c #DBE4EF",
"1 	c #567FB3",
"2 	c #4672AC",
"3 	c #DFE7F1",
"4 	c #708BB3",
"5 	c #527CB1",
"6 	c #4874AD",
"7 	c #98B1D1",
"8 	c #F9FAFC",
"9 	c #E2E9F2",
"0 	c #5A82B5",
"a 	c #3A6AA7",
"b 	c #BACAE0",
"c 	c #6F8BB3",
"d 	c #F6F7FA",
"e 	c #6288B9",
"f 	c #406EA9",
"g 	c #3465A4",
"h 	c #B7C9DF",
"i 	c #6E8AB2",
"j 	c #F7F9FB",
"k 	c #537EB2",
"l 	c #507AB1",
"m 	c #CCD8E8",
"n 	c #8CA8CC",
"o 	c #B8C9DF",
"p 	c #6E89B2",
"q 	c #CEDAE9",
"r 	c #4270AA",
"s 	c #3C6BA8",
"t 	c #3666A5",
"u 	c #3767A5",
"v 	c #CBD8E8",
"w 	c #F3F6FA",
"x 	c #B8CADF",
"y 	c #6C89B2",
"z 	c #29528C",
"A 	c #F4F6F9",
"B 	c #E1E8F1",
"C 	c #5D84B7",
"D 	c #4572AB",
"E 	c #E9EEF5",
"F 	c #B0C3DC",
"G 	c #6C88B1",
"H 	c #EFF3F8",
"I 	c #83A1C8",
"J 	c #FAFBFD",
"K 	c #F8FAFC",
"L 	c #88A5CA",
"M 	c #6B8FBD",
"N 	c #BECEE2",
"O 	c #6B87B1",
"P 	c #28508B",
"Q 	c #4E78AF",
"R 	c #7E9DC5",
"S 	c #BECDE2",
"T 	c #D6E0ED",
"U 	c #6A87B0",
"V 	c #27508B",
"W 	c #4471AB",
"X 	c #3B6AA7",
"Y 	c #92ACCE",
"Z 	c #EAEFF6",
"` 	c #EAEFF5",
" .	c #4D78AF",
"..	c #E9EFF6",
"+.	c #6A86B0",
"@.	c #264F8B",
"#.	c #EDF2F7",
"$.	c #C8D6E7",
"%.	c #C6D4E6",
"&.	c #C7D5E6",
"*.	c #C8D5E7",
"=.	c #C9D7E7",
"-.	c #DDE5F0",
";.	c #ECF1F7",
">.	c #EEF2F7",
",.	c #6A86AF",
"'.	c #254E8A",
").	c #5A7BA8",
"!.	c #6382AE",
"~.	c #6281AD",
"{.	c #6180AC",
"].	c #607FAC",
"^.	c #5F7EAB",
"/.	c #5E7EAA",
"(.	c #5D7DAA",
"_.	c #5D7CA9",
":.	c #325891",
"                                ",
"  . + @ @ @ @ @ @ @ @ @ @ @ #   ",
"  $ % & & * = - ; > > , ' & )   ",
"  $ ! ' ~ ~ { ] ^ / / / ( { _   ",
"  $ : < [ } ~ ~ | 1 / / 2 3 4   ",
"  $ : 5 / 6 7 8 ~ 9 0 / a b c   ",
"  $ d 5 / / / e > ~ ; f g h i   ",
"  $ j k / / / / l m ~ n g o p   ",
"  $ ! q l / r s t u v w 2 x y   ",
"  z A j B C g g g g D E F x G   ",
"  . H I J K L t g g g M J N O   ",
"  P H Q 0 > ~ 3 R u g g S T U   ",
"  V H W g X Y Z ~ ` 7 6  ...+.  ",
"  @.#.$.%.&.*.=.-.;.;.Z } >.,.  ",
"  '.).!.~.{.].].^./.(._._._.:.  ",
"                                "};
