/* XPM */
static const char * kml_subdset_48_xpm[] = {
"48 48 208 2",
"  	c None",
". 	c #204A87",
"+ 	c #204B87",
"@ 	c #869DBC",
"# 	c #BBC7D9",
"$ 	c #BDC9DA",
"% 	c #BCC8D9",
"& 	c #9EB0CA",
"* 	c #D9DFE7",
"= 	c #FFFFFF",
"- 	c #F7F8FA",
"; 	c #F6F8FA",
"> 	c #FEFEFE",
", 	c #C0D0E3",
"' 	c #7A9AC4",
") 	c #7496C1",
"! 	c #8DA8CC",
"~ 	c #F2F5F9",
"{ 	c #E7EDF4",
"] 	c #7A9AC3",
"^ 	c #4673AC",
"/ 	c #6187B8",
"( 	c #E8EEF5",
"_ 	c #BDCDE2",
": 	c #567FB3",
"< 	c #5B83B5",
"[ 	c #E4EAF2",
"} 	c #E9EEF5",
"| 	c #F1F5F9",
"1 	c #8BA7CB",
"2 	c #688CBB",
"3 	c #FCFDFE",
"4 	c #6389B9",
"5 	c #6086B7",
"6 	c #97B1D1",
"7 	c #DAE3EF",
"8 	c #B8C9DF",
"9 	c #4B77AE",
"0 	c #A9BED8",
"a 	c #658BBA",
"b 	c #A9BED9",
"c 	c #ECF0F6",
"d 	c #D4DEEC",
"e 	c #577FB3",
"f 	c #406EA9",
"g 	c #FBFCFD",
"h 	c #F5F7FA",
"i 	c #4874AD",
"j 	c #7F9EC6",
"k 	c #E5EBF3",
"l 	c #E9EFF5",
"m 	c #688CBC",
"n 	c #3E6DA9",
"o 	c #3465A4",
"p 	c #E6ECF4",
"q 	c #9DB4D2",
"r 	c #F6F9FB",
"s 	c #F3F6FA",
"t 	c #6B8EBD",
"u 	c #4471AB",
"v 	c #3566A4",
"w 	c #DAE3EE",
"x 	c #5981B5",
"y 	c #C4D2E5",
"z 	c #668BBB",
"A 	c #3868A6",
"B 	c #93ACCE",
"C 	c #FAFBFD",
"D 	c #EFF2F8",
"E 	c #3D6CA8",
"F 	c #698DBC",
"G 	c #EBF0F6",
"H 	c #547DB3",
"I 	c #406EAA",
"J 	c #4F7AB1",
"K 	c #C8D4E6",
"L 	c #BFCFE3",
"M 	c #416FAA",
"N 	c #4875AD",
"O 	c #B5C7DE",
"P 	c #7D9DC5",
"Q 	c #F4F7FA",
"R 	c #A1B7D5",
"S 	c #EDF1F7",
"T 	c #4370AB",
"U 	c #8DA9CC",
"V 	c #B7C9DF",
"W 	c #7899C2",
"X 	c #7596C1",
"Y 	c #F6F8FB",
"Z 	c #7294C0",
"` 	c #D9DFE8",
" .	c #F2F6FA",
"..	c #7294BF",
"+.	c #4572AC",
"@.	c #3C6BA8",
"#.	c #3969A6",
"$.	c #3566A5",
"%.	c #5F86B7",
"&.	c #E0E7F1",
"*.	c #3667A5",
"=.	c #F4F6FA",
"-.	c #D8DEE7",
";.	c #3E6DA8",
">.	c #7898C2",
",.	c #809FC6",
"'.	c #D7DDE7",
").	c #A6BCD7",
"!.	c #4774AC",
"~.	c #3767A5",
"{.	c #A0B7D5",
"].	c #D5DDE7",
"^.	c #C1D1E4",
"/.	c #4D77AF",
"(.	c #3666A5",
"_.	c #C8D5E6",
":.	c #88A5CA",
"<.	c #F4F6F9",
"[.	c #D3DCE7",
"}.	c #DCE5F0",
"|.	c #3B6AA7",
"1.	c #4270AA",
"2.	c #F3F6F9",
"3.	c #D2DBE7",
"4.	c #B6C8DF",
"5.	c #F7F9FB",
"6.	c #84A2C8",
"7.	c #D0DAE6",
"8.	c #658ABA",
"9.	c #C5D3E5",
"0.	c #BDCDE1",
"a.	c #426FAA",
"b.	c #89A6CA",
"c.	c #CFD9E6",
"d.	c #4E79B0",
"e.	c #DCE4F0",
"f.	c #E8EDF5",
"g.	c #D9E2EE",
"h.	c #5C83B6",
"i.	c #CDD8E5",
"j.	c #DCE5EF",
"k.	c #FDFDFE",
"l.	c #A2B8D5",
"m.	c #6288B9",
"n.	c #FEFEFF",
"o.	c #CCD7E5",
"p.	c #3A69A6",
"q.	c #FDFEFE",
"r.	c #A3B9D6",
"s.	c #B3C5DD",
"t.	c #F1F4F9",
"u.	c #DBE3EF",
"v.	c #CAD6E5",
"w.	c #6489B9",
"x.	c #F8FAFC",
"y.	c #A8BDD8",
"z.	c #4A76AE",
"A.	c #4672AC",
"B.	c #F3F5F9",
"C.	c #C9D6E4",
"D.	c #B0C3DC",
"E.	c #AEC1DB",
"F.	c #4F7AB0",
"G.	c #C7D4E4",
"H.	c #C3D2E4",
"I.	c #6F92BE",
"J.	c #C6D3E4",
"K.	c #5881B4",
"L.	c #98B0D1",
"M.	c #F5F8FB",
"N.	c #E4EAF3",
"O.	c #91ACCE",
"P.	c #C5D3E4",
"Q.	c #547DB2",
"R.	c #ABC0DA",
"S.	c #F9FAFC",
"T.	c #B3C6DD",
"U.	c #5E85B7",
"V.	c #C3D2E3",
"W.	c #537DB2",
"X.	c #D6E0EC",
"Y.	c #3A6AA7",
"Z.	c #4C77AF",
"`.	c #C2D1E3",
" +	c #F7F9FC",
".+	c #FCFCFD",
"++	c #97AECB",
"@+	c #D9E3EE",
"#+	c #D8E2ED",
"$+	c #D8E1ED",
"%+	c #D7E1ED",
"&+	c #D7E0EC",
"*+	c #D6DFEC",
"=+	c #D5DFEB",
"-+	c #D5DEEB",
";+	c #D4DEEB",
">+	c #D4DEEA",
",+	c #D4DDEA",
"'+	c #D3DDEA",
")+	c #D3DCEA",
"!+	c #D3DCE9",
"~+	c #D2DCE9",
"{+	c #D2DBE9",
"]+	c #D1DBE9",
"^+	c #D1DBE8",
"/+	c #C5D0E1",
"(+	c #204987",
"_+	c #204A86",
"                                                                                                ",
"                                                                                                ",
"                                                                                                ",
"        . . . . . . . . . . . . . . . . . . . . . . . . . . . . . . . . . . . . . . . . +       ",
"      . . . . . . . . . . . . . . . . . . . . . . . . . . . . . . . . . . . . . . . . . .       ",
"      . . . @ # $ $ $ $ $ $ $ $ $ $ $ $ $ $ $ $ $ $ $ $ $ $ $ $ $ $ $ $ $ $ $ $ $ % & . .       ",
"      . . . * = = = = = = = = = = = = = = = = = = = = = = = = = = = = = = = = = = = - . .       ",
"      . . . * = = = = = = = = = = = = = = = = = = = = = = = = = = = = = = = = = = = ; . .       ",
"      . . . * = = = = = = = = = = = > , ' ) ) ) ) ) ) ) ) ) ) ) ) ) ) ! ~ = = = = = ; . .       ",
"      . . . * = = = = = = = = = = = = = { ] ^ ^ ^ ^ ^ ^ ^ ^ ^ ^ ^ ^ ^ ^ / ( = = = = ; . .       ",
"      . . . * = = = = = = = = = = = = = = = _ : ^ ^ ^ ^ ^ ^ ^ ^ ^ ^ ^ ^ ^ < [ = = = ; . .       ",
"      . . . * = = } = = = = = = = = = = = = = | 1 ^ ^ ^ ^ ^ ^ ^ ^ ^ ^ ^ ^ ^ 2 3 = = ; . .       ",
"      . . . * = = 4 5 6 7 = = = = = = = = = = = = 8 9 ^ ^ ^ ^ ^ ^ ^ ^ ^ ^ ^ ^ 0 = = ; . .       ",
"      . . . * = = 4 ^ ^ ^ a b c = = = = = = = = = = d e ^ ^ ^ ^ ^ ^ ^ ^ ^ ^ ^ f g = h . .       ",
"      . . . * = = 4 ^ ^ ^ ^ ^ i j k = = = = = = = = = l m ^ ^ ^ ^ ^ ^ ^ ^ ^ n o p = h . .       ",
"      . . . * = = 4 ^ ^ ^ ^ ^ ^ ^ 9 q r = = = = = = = = s t ^ ^ ^ ^ ^ ^ ^ u v o w = h . .       ",
"      . . . * = = 4 ^ ^ ^ ^ ^ ^ ^ ^ ^ x y = = = = = = = = | z ^ ^ ^ ^ ^ ^ A o o w = h . .       ",
"      . . . * = = 4 ^ ^ ^ ^ ^ ^ ^ ^ ^ ^ ^ B C = = = = = = = D 4 ^ ^ ^ ^ E o o o w = h . .       ",
"      . . . * = = 4 ^ ^ ^ ^ ^ ^ ^ ^ ^ ^ ^ ^ F k = = = = = = = G H ^ ^ I o o o o w = h . .       ",
"      . . . * = = 4 ^ ^ ^ ^ ^ ^ ^ ^ ^ ^ ^ ^ ^ J K = = = = = = = L ^ M o o o o o w = h . .       ",
"      . . . * = = 4 ^ ^ ^ ^ ^ ^ ^ ^ ^ ^ ^ ^ ^ ^ N O = = = = = = = P o o o o o o w = Q . .       ",
"      . . . * = = 4 ^ ^ ^ ^ ^ ^ ^ ^ ^ ^ ^ ^ ^ ^ ^ ^ R = = = = = = S T o o o o o w = Q . .       ",
"      . . . * = = 4 ^ ^ ^ ^ ^ ^ ^ ^ ^ ^ ^ ^ ^ ^ ^ ^ ^ U 3 = = = = = V o o o o o w = Q . .       ",
"      . . . * = = W ^ ^ ^ ^ ^ ^ ^ ^ ^ ^ ^ ^ ^ ^ ^ ^ u f X Y = = = = = Z o o o o w = Q . .       ",
"      . . . ` = =  ...^ ^ ^ ^ ^ ^ ^ ^ ^ ^ +.f @.#.$.o o o %.Y = = = = &.*.o o o w = =.. .       ",
"      . . . -.= = = C 1 ^ ^ ^ ^ ^ ^ ^ ^ ;.v o o o o o o o o >.= = = = = ,.o o o w = =.. .       ",
"      . . . '.= = = = = ).!.^ ^ ^ ^ M ~.o o o o o o o o o o o {.= = = = p #.o o w = =.. .       ",
"      . . . ].= = = = = = ^./.^ ^ E o o o o o o o o o o o o o (._.= = = = :.o o w = <.. .       ",
"      . . . [.= = = = = = = }.4 |.o o o o o o o o o o o o o o o 1.k = = = G |.o w = 2.. .       ",
"      . . . 3.= = 4.= = = = = 5.6.o o o o o o o o o o o o o o o o x 5.= = = 1 o w = 2.. .       ",
"      . . . 7.= = 8.9.= = = = = = 0.a.o o o o o o o o o o o o o o o b.= = = w o w = 2.. .       ",
"      . . . c.= = 4 d.e.= = = = = = f.8.o o o o o o o o o o o o o o *.g.= = = h.w = 2.. .       ",
"      . . . i.= = 4 ^ x j.= = = = = = k.l.T o o o o o o o o o o o o o m.n.= = 0 w = 2.. .       ",
"      . . . o.= = 4 ^ T p.{.q.= = = = = = Y r.^ o o o o o o o o o o o o s.= = t.u.= 2.. .       ",
"      . . . v.= = 4 ^ A o o w.k = = = = = = = x.y.z.o o o o o o o o o o A.~ = = p = B.. .       ",
"      . . . C.= = 4 n o o o o n D.= = = = = = = = C E.F.o o o o o o o o o 1 = = Q = B.. .       ",
"      . . . G.= = / v o o o o o o Z G = = = = = = = = q.H.I.(.o o o o o o *.w = = = B.. .       ",
"      . . . J.= = K.o o o o o o o o @.L.M.= = = = = = = = = N.O.T o o o o o 4 n.= = B.. .       ",
"      . . . P.= = Q.o o o o o o o o o o A.R.3 = = = = = = = = = S.T.U.o o o o O = = ~ . .       ",
"      . . . V.= = Q.o o o o o o o o o o o o W.T.M.= = = = = = = = = = X.,.Y.o Z.n.= ~ . .       ",
"      . . . `.= = h s s s s s s s s s s s s s s =. +.+= = = = = = = = = = n.C h n.= ~ . .       ",
"      . . . L = = = = = = = = = = = = = = = = = = = = = = = = = = = = = = = = = = = ~ . .       ",
"      . . . ++w @+g.g.#+$+$+$+%+&+X.X.X.*+=+=+-+-+;+>+,+'+'+)+!+~+~+{+]+^+^+^+^+^+^+/+. .       ",
"      . . . . . . . . . . . . . . . . . . . . . . . . . . . . . . . . . . . . . . . . . .       ",
"        . . . . . . . . . . . . . . . . . . . . . . . . . . . . . . . . . . . . . . . . (+      ",
"          (+(+(+(+(+(+(+(+(+(+(+(+(+(+(+(+(+(+(+(+(+(+(+(+(+(+(+(+(+(+(+(+(+(+(+(+(+(+_+        ",
"                                                                                                ",
"                                                                                                "};
