/* XPM */
static const char * kml_dset_48_xpm[] = {
"48 48 226 2",
"  	c None",
". 	c #204A87",
"+ 	c #204A86",
"@ 	c #204987",
"# 	c #5373A1",
"$ 	c #95A9C4",
"% 	c #96AAC5",
"& 	c #94A8C3",
"* 	c #395E95",
"= 	c #ACBAD0",
"- 	c #FFFFFF",
"; 	c #6683AD",
"> 	c #FDFDFE",
", 	c #D5DFEC",
"' 	c #B0C3DC",
") 	c #AEC2DB",
"! 	c #B5C7DE",
"~ 	c #F0F3F8",
"{ 	c #DFE6F0",
"] 	c #6F92BE",
"^ 	c #4673AC",
"/ 	c #517BB1",
"( 	c #FEFEFF",
"_ 	c #FDFEFE",
": 	c #B2C4DC",
"< 	c #4F7AB1",
"[ 	c #4E79B0",
"} 	c #DBE4EF",
"| 	c #B4C6DD",
"1 	c #8EA9CC",
"2 	c #CCD9E8",
"3 	c #FCFDFE",
"4 	c #E6ECF4",
"5 	c #5F86B7",
"6 	c #6B8EBD",
"7 	c #FEFFFF",
"8 	c #547DB3",
"9 	c #8FA9CD",
"0 	c #D1DCEA",
"a 	c #EEF2F7",
"b 	c #688CBB",
"c 	c #3D6CA8",
"d 	c #E0E8F1",
"e 	c #86A3C8",
"f 	c #F0F4F9",
"g 	c #F3F6FA",
"h 	c #7093BF",
"i 	c #4471AB",
"j 	c #3566A4",
"k 	c #B8C9DF",
"l 	c #577FB3",
"m 	c #C4D2E5",
"n 	c #F8FAFB",
"o 	c #7B9BC4",
"p 	c #3868A6",
"q 	c #3465A4",
"r 	c #B3C6DD",
"s 	c #FBFCFD",
"t 	c #83A1C8",
"u 	c #3C6BA8",
"v 	c #D0DCEA",
"w 	c #F6F9FB",
"x 	c #5D84B6",
"y 	c #7C93B7",
"z 	c #B2C1D6",
"A 	c #7D99BE",
"B 	c #39659F",
"C 	c #3C68A1",
"D 	c #B6C8DE",
"E 	c #204A88",
"F 	c #27518E",
"G 	c #AABFD9",
"H 	c #87A4C9",
"I 	c #496B9D",
"J 	c #8198BA",
"K 	c #839ABB",
"L 	c #8098B9",
"M 	c #325990",
"N 	c #3A6AA6",
"O 	c #90ABCD",
"P 	c #F5F8FB",
"Q 	c #4874AD",
"R 	c #5F7DA9",
"S 	c #3364A3",
"T 	c #95AFD0",
"U 	c #ABBFD9",
"V 	c #FCFCFD",
"W 	c #D7E1ED",
"X 	c #BBCBE0",
"Y 	c #BACBE0",
"Z 	c #C2D1E4",
"` 	c #BECDE2",
" .	c #FAFBFD",
"..	c #4D78AF",
"+.	c #D6E0ED",
"@.	c #668BBB",
"#.	c #5780B3",
"$.	c #DDE6F0",
"%.	c #3E6DA9",
"&.	c #DEE6F0",
"*.	c #B3C5DD",
"=.	c #A6BCD7",
"-.	c #4C77AF",
";.	c #537CB2",
">.	c #E1E8F1",
",.	c #527CB2",
"'.	c #9EB5D3",
").	c #5981B4",
"!.	c #7294C0",
"~.	c #85A3C8",
"{.	c #9BB4D2",
"].	c #A9BED8",
"^.	c #9CB3D2",
"/.	c #DCE4F0",
"(.	c #E7EDF4",
"_.	c #6086B7",
":.	c #E3EAF2",
"<.	c #3666A5",
"[.	c #4774AC",
"}.	c #92ACCE",
"|.	c #678BBB",
"1.	c #BACAE0",
"2.	c #5D84B7",
"3.	c #C8D5E6",
"4.	c #F2F6FA",
"5.	c #3B6AA7",
"6.	c #ADC1DA",
"7.	c #E5EBF3",
"8.	c #94AECF",
"9.	c #F7F9FB",
"0.	c #7797C2",
"a.	c #EAF0F5",
"b.	c #A4BAD6",
"c.	c #4270AA",
"d.	c #F0F4F8",
"e.	c #F1F5F9",
"f.	c #F8F9FB",
"g.	c #C6D4E6",
"h.	c #3667A5",
"i.	c #84A1C8",
"j.	c #CDD9E8",
"k.	c #C2D1E3",
"l.	c #E9EEF5",
"m.	c #9BB3D2",
"n.	c #527BB1",
"o.	c #4370AB",
"p.	c #F3F6F9",
"q.	c #4A76AE",
"r.	c #BDCCE1",
"s.	c #7C9CC4",
"t.	c #ADBBD0",
"u.	c #D8E2EE",
"v.	c #406EA9",
"w.	c #A2B9D6",
"x.	c #E2E8F1",
"y.	c #E7ECF3",
"z.	c #E6ECF3",
"A.	c #E6EBF3",
"B.	c #5D7CA8",
"C.	c #ACBBD0",
"D.	c #C6D3E6",
"E.	c #4E78B0",
"F.	c #3A69A6",
"G.	c #3566A5",
"H.	c #A5BBD7",
"I.	c #A1B8D5",
"J.	c #AABAD0",
"K.	c #DAE3EF",
"L.	c #4572AC",
"M.	c #CAD7E7",
"N.	c #4672AC",
"O.	c #A8B9CF",
"P.	c #EBF0F6",
"Q.	c #6C8FBD",
"R.	c #3767A5",
"S.	c #A6B7CE",
"T.	c #C6D4E5",
"U.	c #91ABCD",
"V.	c #5981B5",
"W.	c #F8FAFC",
"X.	c #4572AB",
"Y.	c #A4B6CE",
"Z.	c #A2B9D5",
"`.	c #C7D5E6",
" +	c #4773AD",
".+	c #8DA9CC",
"++	c #A2B5CE",
"@+	c #EEF2F8",
"#+	c #7597C1",
"$+	c #DCE4EF",
"%+	c #A0B4CE",
"&+	c #3A6AA7",
"*+	c #82A0C7",
"=+	c #F5F7FA",
"-+	c #D9E2EE",
";+	c #7798C2",
">+	c #668BBA",
",+	c #C3D2E4",
"'+	c #9EB2CD",
")+	c #416FAA",
"!+	c #CFDBEA",
"~+	c #7D9DC5",
"{+	c #9CB1CD",
"]+	c #A8BDD8",
"^+	c #93ADCE",
"/+	c #4975AD",
"(+	c #9BB0CC",
"_+	c #B7C9DF",
":+	c #6389B9",
"<+	c #91ACCE",
"[+	c #98AFCC",
"}+	c #A0B7D5",
"|+	c #567FB3",
"1+	c #BDCDE1",
"2+	c #DAE3EE",
"3+	c #3969A6",
"4+	c #F6F8FB",
"5+	c #96AECB",
"6+	c #87A1C3",
"7+	c #F5F7FB",
"8+	c #F4F7FA",
"9+	c #F4F6FA",
"0+	c #F3F5F9",
"a+	c #5B7AA7",
"b+	c #204988",
"c+	c #1F4B87",
"                                                                                                ",
"                                                                                                ",
"                                                                                                ",
"                                . . . . . . . . . . . . . . . . . . . . . . . . . . . . +       ",
"                              @ . # $ % % % % % % % % % % % % % % % % % % % % % % % & * .       ",
"                              @ . = - - - - - - - - - - - - - - - - - - - - - - - - - ; .       ",
"                              @ . = - - - - - - - > , ' ) ) ) ) ) ) ) ) ) ! ~ - - - - ; .       ",
"                              @ . = - - - - - - - - - { ] ^ ^ ^ ^ ^ ^ ^ ^ ^ / , - - - ; .       ",
"                              @ . = - ( - - - - - - - - _ : < ^ ^ ^ ^ ^ ^ ^ ^ [ } - - ; .       ",
"                              @ . = - | 1 2 3 - - - - - - - 4 5 ^ ^ ^ ^ ^ ^ ^ ^ 6 7 - ; .       ",
"                              @ . = - ) ^ ^ 8 9 0 - - - - - - a b ^ ^ ^ ^ ^ ^ ^ c d - ; .       ",
"                              @ . = - ) ^ ^ ^ ^ ^ e f - - - - - g h ^ ^ ^ ^ ^ i j k - ; .       ",
"                              @ . = - ) ^ ^ ^ ^ ^ ^ l m - - - - - n o ^ ^ ^ ^ p q r - ; .       ",
"                              @ . = - ) ^ ^ ^ ^ ^ ^ ^ ^ e f - - - - s t ^ ^ u q q r - ; .       ",
"                              @ . = - ) ^ ^ ^ ^ ^ ^ ^ ^ ^ l v - - - - w x c q q q r - ; .       ",
"                              @ . y z A B B B B B B B B B B C D - - - - 2 j q q q r - ; .       ",
"      E . . . . . . . . . . . . . . . . . . . . . . . . . . . F G - - - - H q q q r - ; .       ",
"    . . I J K K K K K K K K K K K K K K K K K K K K K K K L M . N O ( - - P Q q q r - ; .       ",
"    . . = - - - - - - - - - - - - - - - - - - - - - - - - - R . S q T - - - U q q r - ; .       ",
"    . . = - - - - - - - V W X Y Y Y Y Y Y Y Y Y Z P - - - - R . S q j ` - -  ...q r - ; .       ",
"    . . = - - - - - - - - - +.@.^ ^ ^ ^ ^ ^ ^ ^ ^ #.$.- - - R . S q q %.&.- - *.q r - ; .       ",
"    . . = - - - - - - - - - - s =.-.^ ^ ^ ^ ^ ^ ^ ^ ;.>.- - R . S q q q ,.g - > [ r - ; .       ",
"    . . = - ! '.} - - - - - - - - &.).^ ^ ^ ^ ^ ^ ^ ^ !.- - R . S q q q q ~.- - {.r - ; .       ",
"    . . = - ].^ ^ 5 ^./.- - - - - - (._.^ ^ ^ ^ ^ ^ ^ c :.- R . S q q q q <., - (.| - ; .       ",
"    . . = - ].^ ^ ^ ^ [.}.w - - - - - a |.^ ^ ^ ^ ^ i j 1.- R . S q q q q q 2._ - 3.- ; .       ",
"    . . = - ].^ ^ ^ ^ ^ ^ x v - - - - - 4.] ^ ^ ^ ^ p q r - R . 5.q q q q q q 6.- 7.- ; .       ",
"    . . = - ].^ ^ ^ ^ ^ ^ ^ [.8.9.- - - - 9.0.^ ^ c q q r - R . a.b./ q q q q c.d.> - ; .       ",
"    . . = - ].^ ^ ^ ^ ^ ^ ^ ^ ^ 5 /.- - - - e.#.%.q q q r - R . f.- ( g.!.h.q q i.- - ; .       ",
"    . . = - ].^ ^ ^ ^ ^ ^ ^ ^ ^ ^ < j.- - - - k.q q q q r - R . f.- - - - l.m.n.o.p.- ; .       ",
"    . . = - ].^ ^ ^ ^ ^ ^ ^ ^ ^ ^ ^ q.r.- - - - s.q q q r - R . f.- - - - - - - - - - ; .       ",
"    . . t.- u.Q ^ ^ ^ ^ ^ ^ ^ ^ ^ i v.c w.- - - e.i q q r - R . x.(.(.y.z.z.A.A.A.A.7.B..       ",
"    . . C.- - D.E.^ ^ ^ ^ ^ o.F.G.q q q q H.- - - I.q q r - R . . . . . . . . . . . . . .       ",
"    . . J.- - - K.).^ ^ L.5.q q q q q q q h.M.- - 9.N.q r - R . @ . . . . . . . . . . .         ",
"    . . O.- > - - P.Q.i R.q q q q q q q q q o.4 - - b.q r - R .                                 ",
"    . . S.- T.( - -  .U.j q q q q q q q q q q V.9.- W.X.r - R .                                 ",
"    . . Y.- ].Z.- - - - `. +q q q q q q q q q q .+- - 1 r - R .                                 ",
"    . . ++- ].^ 1.- - - - @+#+q q q q q q q q q R.$+- $+r - R .                                 ",
"    . . %+- ].^ &+*+=+- - - - -+;+<.q q q q q q q >+- - ,+- R .                                 ",
"    . . '+- ].)+q q [ !+- - - - - &.~+h.q q q q q q k - d - R .                                 ",
"    . . {+- ]+h.q q q <.^+9.- - - - - (.8.N.q q q q /+P s - R .                                 ",
"    . . (+- b.q q q q q q /+' > - - - - -  ._+:+q q q <+- - R .                                 ",
"    . . [+- }+q q q q q q q q |+1+ .- - - - - - 2+~.c 3+4+- R .                                 ",
"    . . 5+- - - - - - - - - - - - - - - - - - - - - - - - - R .                                 ",
"    . . 6+w 4+4+4+P P P P 7+=+8+8+8+8+8+9+g g p.p.p.p.p.p.0+a+.                                 ",
"    b+. . . . . . . . . . . . . . . . . . . . . . . . . . . . .                                 ",
"      c+. . . . . . . . . . . . . . . . . . . . . . . . . . .                                   ",
"                                                                                                ",
"                                                                                                "};
