/* XPM */
static const char * kml_dset_16_xpm[] = {
"16 16 137 2",
"  	c None",
". 	c #A3B4CC",
"+ 	c #DDE4EB",
"@ 	c #D5DDE9",
"# 	c #D2DBE7",
"$ 	c #D9E0EA",
"% 	c #7B93B7",
"& 	c #E4E8EE",
"* 	c #FFFFFF",
"= 	c #EEF1F7",
"- 	c #8AA7CA",
"; 	c #5780B4",
"> 	c #688CBB",
", 	c #EAEFF5",
"' 	c #B5C3D6",
") 	c #DCE3EC",
"! 	c #688DBC",
"~ 	c #9EB4D3",
"{ 	c #F1F5F9",
"] 	c #A4BAD6",
"^ 	c #4673AC",
"/ 	c #87A4C9",
"( 	c #B0C0D6",
"_ 	c #527CB1",
": 	c #5780B3",
"< 	c #B3C3DB",
"[ 	c #B9C6D9",
"} 	c #7F9BC0",
"| 	c #37639F",
"1 	c #4D74A9",
"2 	c #7D97BB",
"3 	c #DEE4EC",
"4 	c #537DB2",
"5 	c #3D659C",
"6 	c #BDC9D9",
"7 	c #DBE2EA",
"8 	c #D9E0E9",
"9 	c #D0D9E6",
"0 	c #CFD9E6",
"a 	c #D8E0E9",
"b 	c #DBE1EA",
"c 	c #5676A5",
"d 	c #E2E8EE",
"e 	c #CBD7E8",
"f 	c #4F79B0",
"g 	c #416FAA",
"h 	c #3A629A",
"i 	c #F5F6F8",
"j 	c #DDE6F0",
"k 	c #7899C2",
"l 	c #7A9AC3",
"m 	c #F9FAFC",
"n 	c #7690B6",
"o 	c #D3DDE9",
"p 	c #D1DCEA",
"q 	c #E0E7F1",
"r 	c #5981B4",
"s 	c #38619A",
"t 	c #E2E8F1",
"u 	c #6A8EBC",
"v 	c #ABBFDA",
"w 	c #FAFBFD",
"x 	c #FBFCFD",
"y 	c #85A3C8",
"z 	c #B7C8DF",
"A 	c #748FB5",
"B 	c #D1DBE9",
"C 	c #557FB3",
"D 	c #B5C7DE",
"E 	c #F9FBFD",
"F 	c #6080AC",
"G 	c #658BBA",
"H 	c #DAE3EF",
"I 	c #FDFEFE",
"J 	c #8BA7CB",
"K 	c #3E6CA8",
"L 	c #8EAACD",
"M 	c #718DB4",
"N 	c #CED9E8",
"O 	c #4370AB",
"P 	c #3465A4",
"Q 	c #6D90BD",
"R 	c #6D8AB2",
"S 	c #E4EAF1",
"T 	c #4C77AF",
"U 	c #C2D1E3",
"V 	c #F5F8FB",
"W 	c #4975AD",
"X 	c #8FAACD",
"Y 	c #6E8BB4",
"Z 	c #9AB0CE",
"` 	c #D0DBEA",
" .	c #CFDBEA",
"..	c #6F8AB2",
"+.	c #F3F5F8",
"@.	c #A8BDD8",
"#.	c #4774AC",
"$.	c #3F6DA9",
"%.	c #3868A6",
"&.	c #3666A5",
"*.	c #C0CFE3",
"=.	c #B8C9DF",
"-.	c #6C8AB3",
";.	c #345A91",
">.	c #DEE5EF",
",.	c #E6ECF4",
"'.	c #C7D5E6",
").	c #3E6DA9",
"!.	c #E2E9F2",
"~.	c #A7BDD8",
"{.	c #6A88B1",
"].	c #345B92",
"^.	c #D9E2EE",
"/.	c #CEDAE9",
"(.	c #F1F4F9",
"_.	c #94AECF",
":.	c #D2DDEB",
"<.	c #6986B0",
"[.	c #315992",
"}.	c #D8E1EE",
"|.	c #3565A4",
"1.	c #809EC6",
"2.	c #DDE5F0",
"3.	c #F4F7FA",
"4.	c #A9BED8",
"5.	c #557EB3",
"6.	c #6784AF",
"7.	c #2E5791",
"8.	c #B5C7DC",
"9.	c #CCD8E8",
"0.	c #CBD8E8",
"a.	c #CBD7E7",
"b.	c #CAD7E7",
"c.	c #CED9E7",
"d.	c #CCD7E6",
"e.	c #C9D5E5",
"f.	c #5072A2",
"                                ",
"  . + + @ # # # $ + %           ",
"  & * * = - ; ; > , '           ",
"  ) ! ~ { * ] ^ ^ / (           ",
"  ) _ ^ : < [ } | 1 2           ",
"  3 4 ^ ^ 5 6 7 8 9 9 0 0 a b c ",
"  d e f g h i * * j k ; ; l m n ",
"  o p q r s t u v w x y ^ ^ z A ",
"  B C D E F t ^ ^ G H I J K L M ",
"  N O P Q R S ^ ^ ^ T U V W X Y ",
"  Z p `  ...+.@.#.$.%.&.*.=.X -.",
"          ;.>.,.'.^ P P ).!.~.{.",
"          ].^.4 /.(._.).P Q :.<.",
"          [.}.|.&.1.2.3.4.5.` 6.",
"          7.8.9.0.a.b.N c.d.e.f.",
"                                "};
