/* XPM */
static const char * kmz_dset_48_xpm[] = {
"48 48 238 2",
"  	c None",
". 	c #5C3566",
"+ 	c #5B3566",
"@ 	c #E3DDE4",
"# 	c #F0EEF1",
"$ 	c #F0EDF1",
"% 	c #917698",
"& 	c #F9F9F9",
"* 	c #FFFFFF",
"= 	c #A08AA7",
"- 	c #EDE9EE",
"; 	c #B7A3B9",
"> 	c #A58DA9",
", 	c #AA93AE",
"' 	c #EAE5EB",
") 	c #FDFDFD",
"! 	c #C6B6C8",
"~ 	c #86658B",
"{ 	c #816087",
"] 	c #86668B",
"^ 	c #DCD3DE",
"/ 	c #A08AA6",
"( 	c #EEE9EF",
"_ 	c #A28AA7",
": 	c #84638A",
"< 	c #E6DEE6",
"[ 	c #A48CA8",
"} 	c #B39EB5",
"| 	c #FDFCFD",
"1 	c #C2B2C5",
"2 	c #826188",
"3 	c #9A7E9E",
"4 	c #9D83A1",
"5 	c #8B6C90",
"6 	c #B39FB6",
"7 	c #DFD7E1",
"8 	c #D8CDDA",
"9 	c #87678C",
"0 	c #7A5680",
"a 	c #E9E3EA",
"b 	c #AD96B1",
"c 	c #F5F2F6",
"d 	c #E8E2E9",
"e 	c #7F5D85",
"f 	c #75507B",
"g 	c #CFC2D0",
"h 	c #8C6D91",
"i 	c #D7CCD9",
"j 	c #E6DFE7",
"k 	c #89698E",
"l 	c #815F86",
"m 	c #77527D",
"n 	c #CCBECE",
"o 	c #F1EEF3",
"p 	c #E5DFE7",
"q 	c #CEC2D0",
"r 	c #805F86",
"s 	c #7B5982",
"t 	c #75517C",
"u 	c #714C78",
"v 	c #BAA9BE",
"w 	c #957D9C",
"x 	c #7F5E86",
"y 	c #684371",
"z 	c #7A5881",
"A 	c #5D3667",
"B 	c #FAF9FA",
"C 	c #FEFEFE",
"D 	c #937A9A",
"E 	c #FCFCFC",
"F 	c #947B9B",
"G 	c #F2EDF2",
"H 	c #957899",
"I 	c #78557E",
"J 	c #F7F4F7",
"K 	c #B5A1B8",
"L 	c #896A8F",
"M 	c #D4C8D5",
"N 	c #F8F8F9",
"O 	c #805E85",
"P 	c #79557F",
"Q 	c #704B77",
"R 	c #DED5DF",
"S 	c #937697",
"T 	c #CBBDCD",
"U 	c #F7F7F9",
"V 	c #B39FB7",
"W 	c #7C5982",
"X 	c #EFEBF0",
"Y 	c #FAFAFA",
"Z 	c #BCAABF",
"` 	c #DDD4DE",
" .	c #F6F7F9",
"..	c #FBFAFB",
"+.	c #CDC0D0",
"@.	c #95799A",
"#.	c #987D9D",
"$.	c #C1B1C4",
"%.	c #EBE6EC",
"&.	c #D9CFDB",
"*.	c #907396",
"=.	c #FEFDFE",
"-.	c #F5F6F8",
";.	c #BAA7BD",
">.	c #E9E4EA",
",.	c #8F7194",
"'.	c #967B9B",
").	c #C4B4C7",
"!.	c #917496",
"~.	c #78537E",
"{.	c #F3F5F8",
"].	c #B8A4BB",
"^.	c #B29DB5",
"/.	c #76517C",
"(.	c #F2F0F3",
"_.	c #947798",
":.	c #7D5A82",
"<.	c #D5CAD7",
"[.	c #F2F4F8",
"}.	c #BDAABF",
"|.	c #DAD0DB",
"1.	c #836389",
"2.	c #BEADC1",
"3.	c #FCFBFC",
"4.	c #D4C9D6",
"5.	c #F1F4F8",
"6.	c #805E86",
"7.	c #937698",
"8.	c #ECE6EC",
"9.	c #E0D9E2",
"0.	c #E7E1E8",
"a.	c #EFEAEF",
"b.	c #8C6E92",
"c.	c #77537D",
"d.	c #F0F3F7",
"e.	c #7B5881",
"f.	c #C8BACB",
"g.	c #C7B8C9",
"h.	c #EFF2F7",
"i.	c #9A7F9E",
"j.	c #9F85A3",
"k.	c #EEEAEF",
"l.	c #A891AC",
"m.	c #EDF1F7",
"n.	c #947899",
"o.	c #B4A0B7",
"p.	c #AA95AE",
"q.	c #F5F3F6",
"r.	c #826087",
"s.	c #ECF1F6",
"t.	c #A790AC",
"u.	c #9B809F",
"v.	c #F6F4F7",
"w.	c #D2C6D4",
"x.	c #EBF0F6",
"y.	c #FBFAFC",
"z.	c #FBFBFC",
"A.	c #DED6E0",
"B.	c #F9F7FA",
"C.	c #A58CA9",
"D.	c #78547E",
"E.	c #907295",
"F.	c #E8ECF3",
"G.	c #FBFCFC",
"H.	c #B6A2B9",
"I.	c #A68EAA",
"J.	c #DBD2DD",
"K.	c #643F6E",
"L.	c #664270",
"M.	c #64406E",
"N.	c #C9BBCC",
"O.	c #836289",
"P.	c #C2B1C5",
"Q.	c #5C3466",
"R.	c #FAFBFC",
"S.	c #F4F2F5",
"T.	c #E2DAE3",
"U.	c #88698E",
"V.	c #E0D7E1",
"W.	c #F9FAFB",
"X.	c #AB94AE",
"Y.	c #A38AA7",
"Z.	c #F3F0F4",
"`.	c #917395",
" +	c #F8F9FB",
".+	c #A992AC",
"++	c #A993AD",
"@+	c #C5B6C8",
"#+	c #F7F9FB",
"$+	c #EDE8EE",
"%+	c #AC95AF",
"&+	c #E1D9E2",
"*+	c #F6F3F6",
"=+	c #F6F8FB",
"-+	c #7F5C84",
";+	c #836288",
">+	c #F0ECF1",
",+	c #B19CB4",
"'+	c #7A5780",
")+	c #E3DBE4",
"!+	c #F5F8FB",
"~+	c #B09BB3",
"{+	c #F4F1F4",
"]+	c #C7B8CA",
"^+	c #F5F7FB",
"/+	c #8B6B90",
"(+	c #D9CEDA",
"_+	c #CDBFCF",
":+	c #F5F2F5",
"<+	c #F4F7FA",
"[+	c #9A7F9F",
"}+	c #E5DEE6",
"|+	c #E3DCE5",
"1+	c #AD97B0",
"2+	c #F3F6FA",
"3+	c #A087A4",
"4+	c #B7A3BA",
"5+	c #F7F5F8",
"6+	c #CDBFCE",
"7+	c #9E84A2",
"8+	c #FAF8FA",
"9+	c #F2F5FA",
"0+	c #DCDEEA",
"a+	c #EAECF2",
"b+	c #E9EBF2",
"c+	c #E8EBF2",
"d+	c #E8EAF2",
"e+	c #E7EAF1",
"f+	c #E7E9F1",
"g+	c #E6E9F1",
"h+	c #E6E8F0",
"i+	c #E5E8F0",
"j+	c #E5E7F0",
"k+	c #E4E7EF",
"l+	c #E3E6EF",
"m+	c #E3E6EE",
"n+	c #E2E5EE",
"o+	c #8B7092",
"                                                                                                ",
"                                                                                                ",
"      . . . . . . . . . . . . . . . . . . . . . . . . . . . . . +                               ",
"    . . . . . . . . . . . . . . . . . . . . . . . . . . . . . . .                               ",
"    . . @ # # # # # # # # # # # # # # # # # # # # # # # # $ $ % .                               ",
"    . . & * * * * * * * * * * * * * * * * * * * * * * * * * * = .                               ",
"    . . & * * * * * * * * - ; > > > > > > > > > > , ' * * * * = .                               ",
"    . . & * * * * * * * * * ) ! ~ { { { { { { { { { ] ^ * * * / .                               ",
"    . . & * ) * * * * * * * * * ( _ { { { { { { { { { : < * * / .                               ",
"    . . & * [ } ^ | * * * * * * * * 1 2 { { { { { { { { 3 * * / .                               ",
"    . . & * 4 { { 5 6 7 * * * * * * * 8 9 { { { { { { { 0 a * / .                               ",
"    . . & * 4 { { { { { b c * * * * * * d 5 { { { { { e f g * / .                               ",
"    . . & * 4 { { { { { { h i * * * * * * j k { { { l m f n * / .                               ",
"    . . & * 4 { { { { { { { { b o p p p p p q r s s t u u v p w .                               ",
"    . . & * 4 { { { { { { { { x y . . . . . . . . . . . . . . . . . . . . . . . . . . . . . .   ",
"    . . & * 4 { { { { { { { { z . . . A A A A A A A A A A A A A A A A A A A A A A A A A A . .   ",
"    . . & * 4 { { { { { { { { z . . B C C C C C C C C C C C C C C C C C C C C C C C C C C D .   ",
"    . . & * [ { { { { { { { { z . . E * * * * * * * * * * * * * * * * * * * * * * * * * * F .   ",
"    . . & * G H { { { { { { { I . . E * * * * * * * * J K L L L L L L L L L L 5 M * * * * F .   ",
"    . . N * * J _ { { { { O P Q . . E * * * * * * * * * * R S { { { { { { { { { 2 T * * * F .   ",
"    . . U * * * | V { { W f f Q . . E * X * * * * * * * * * Y Z 2 { { { { { { { { { ` * * F .   ",
"    . .  .* ..* * * +.r f f f Q . . E * @.#.$.%.* * * * * * * * &.9 { { { { { { { { *.=.* F .   ",
"    . . -.* ;.) * * * >.,.f f Q . . E * @.{ { { '.)...* * * * * * a !.{ { { { { { { ~.a * F .   ",
"    . . {.* 4 ].* * * * ..^./.Q . . E * @.{ { { { { '.< * * * * * * (._.{ { { { { :.f <.* F .   ",
"    . . [.* 4 { }.) * * * * |.9 . . E * @.{ { { { { { 1.2.3.* * * * * $ !.{ { { e /.f 4.* F .   ",
"    . . 5.* 4 6./.7.8.* * * * 9.. . E * @.{ { { { { { { { #.0.* * * * * a.b.{ l c.f f 4.* F .   ",
"    . . d.* 4 P f f e.f.* * * 9.. . E * @.{ { { { { { { { { : g.* * * * * 8 l ~.f f f 4.* F .   ",
"    . . h.* i.f f f f f j.k.* 9.. . E * @.{ { { { { { { { { { { ].C * * * * l.f f f f 4.* F .   ",
"    . . m.* n.f f f f f f P o.&.. . E * @.{ { { { { { { { { { { { p...* * * q.r.f f f 4.* F .   ",
"    . . s.* 7.f f f f f f f f I . . E * t.{ { { { { { { { { { { e :.u.v.* * * w.f f f 4.* F .   ",
"    . . x.* 3...........y.y.z.A.. . E * B.C.{ { { { { { l e.D./.f f f E.B * * * 7.f f 4.* F .   ",
"    . . F.* * * * * * * * * * 9.. . G.* * ) H.{ { { { :./.f f f f f f f I.* * * J.f f 4.* F .   ",
"    . . K.L.L.L.L.L.L.L.L.L.L.M.. . z.* * * * N.O.l P f f f f f f f f f f P.* * * #.f 4.* F .   ",
"    Q.. . . . . . . . . . . . . . . R.* S.* * * T.U.f f f f f f f f f f f m J.* * V.f 4.* F .   ",
"                                . . W.* X.B * * * v.Y.f f f f f f f f f f f O Z.* * `.4.* F .   ",
"                                . .  +* @..+C * * * * N.e.f f f f f f f f f f ++* * @+4.* F .   ",
"                                . . #+* @.{ > q.* * * * $+%+D.f f f f f f f f /.&+* *+<.* F .   ",
"                                . . =+* @.-+f ;+&.* * * * * >+,+'+f f f f f f f `.C * )+* F .   ",
"                                . . !+* H c.f f /.~+B * * * * * {+].O f f f f f f ]+* Z.* F .   ",
"                                . . ^+* E.f f f f f /+(+* * * * * * .._+S f f f f e :+* * F .   ",
"                                . . <+* /+f f f f f f f [+}+* * * * * * * |+++0 f f 1+* * F .   ",
"                                . . 2+* 3+,.,.,.,.,.,.,.,.E.4+)+C * * * * * * 5+6+7+`.8+* F .   ",
"                                . . 9+* * * * * * * * * * * * * * * * * * * * * * * * * * F .   ",
"                                . . 0+a+b+b+c+d+d+e+f+f+g+h+i+i+j+j+k+k+l+m+m+n+n+n+n+n+n+o+.   ",
"                                . . . . . . . . . . . . . . . . . . . . . . . . . . . . . . .   ",
"                                . . . . . . . . . . . . . . . . . . . . . . . . . . . . . . .   ",
"                                                                                                ",
"                                                                                                "};
