/* XPM */
static const char *layers_16_xpm[] = {
/* width height num_colors chars_per_pixel */
"    16    16      256            2",
/* colors */
"`` c #d1c779",
"`. c #cebd39",
"`# c None",
"`a c #ffffd6",
"`b c #ffffd3",
"`c c #fefed0",
"`d c #fefecc",
"`e c #fdfdc8",
"`f c #fcfcc4",
"`g c #fcfcbf",
"`h c #ffffd5",
"`i c #a39944",
"`j c #fefece",
"`k c #fdfdc5",
"`l c #fbfbba",
"`m c #f9f9ad",
"`n c #666654",
"`o c #fefecf",
"`p c #666651",
"`q c #fdfdc7",
"`r c #65654e",
"`s c #fcfcbe",
"`t c #64644a",
"`u c #fafab3",
"`v c #f8f8a0",
"`w c #fdfdca",
"`x c #fdfdc6",
"`y c #fcfcc1",
"`z c #fbfbbc",
"`A c #fbfbb7",
"`B c #fafab2",
"`C c #f9f9ac",
"`D c #f8f8a6",
"`E c #f6f693",
"`F c #65654d",
"`G c #fbfbbb",
"`H c #fbfbb6",
"`I c #fafab0",
"`J c #f9f9aa",
"`K c #f8f8a5",
"`L c #636340",
"`M c #f6f699",
"`N c #f4f486",
"`O c #fafab4",
"`P c #fafaaf",
"`Q c #f9f9a9",
"`R c #f8f8a3",
"`S c #f7f79d",
"`T c #f6f697",
"`U c #f5f591",
"`V c #f5f58c",
"`W c #646443",
"`X c #f8f8a2",
"`Y c #f7f79c",
"`Z c #f6f696",
"`0 c #f5f590",
"`1 c #f4f48a",
"`2 c #626235",
"`3 c #f3f37f",
"`4 c #f7f79a",
"`5 c #f6f694",
"`6 c #f5f58f",
"`7 c #f4f489",
"`8 c #f3f383",
".` c #f3f37e",
".. c #f2f279",
".# c #f1f174",
".a c #626238",
".b c #f4f487",
".c c #616134",
".d c #f3f37d",
".e c #616130",
".f c #f1f173",
".g c #60602c",
".h c #f0f06b",
".i c #f3f381",
".j c #f2f27b",
".k c #f2f276",
".l c #f1f172",
".m c #f0f06e",
".n c #f0f06a",
".o c #efef66",
".p c #efef64",
".q c #000000",
".r c #000000",
".s c #000000",
".t c #000000",
".u c #000000",
".v c #000000",
".w c #000000",
".x c #000000",
".y c #000000",
".z c #000000",
".A c #000000",
".B c #000000",
".C c #000000",
".D c #000000",
".E c #000000",
".F c #000000",
".G c #000000",
".H c #000000",
".I c #000000",
".J c #000000",
".K c #000000",
".L c #000000",
".M c #000000",
".N c #000000",
".O c #000000",
".P c #000000",
".Q c #000000",
".R c #000000",
".S c #000000",
".T c #000000",
".U c #000000",
".V c #000000",
".W c #000000",
".X c #000000",
".Y c #000000",
".Z c #000000",
".0 c #000000",
".1 c #000000",
".2 c #000000",
".3 c #000000",
".4 c #000000",
".5 c #000000",
".6 c #000000",
".7 c #891500",
".8 c #891598",
"#` c #000307",
"#. c #000100",
"## c #000300",
"#a c #000100",
"#b c #88f8d4",
"#c c #000000",
"#d c #88f880",
"#e c #000000",
"#f c #000000",
"#g c #000006",
"#h c #000000",
"#i c #000000",
"#j c #000000",
"#k c #000000",
"#l c #000000",
"#m c #000000",
"#n c #000162",
"#o c #00009c",
"#p c #00000d",
"#q c #000000",
"#r c #000000",
"#s c #000000",
"#t c #000000",
"#u c #000000",
"#v c #000000",
"#w c #000000",
"#x c #000000",
"#y c #000000",
"#z c #000000",
"#A c #000000",
"#B c #000000",
"#C c #000000",
"#D c #000000",
"#E c #000000",
"#F c #000000",
"#G c #000000",
"#H c #000000",
"#I c #000000",
"#J c #000000",
"#K c #000000",
"#L c #000000",
"#M c #000000",
"#N c #000000",
"#O c #000000",
"#P c #000000",
"#Q c #000000",
"#R c #00ff00",
"#S c #00000a",
"#T c #000000",
"#U c #000000",
"#V c #000000",
"#W c #000000",
"#X c #000001",
"#Y c #000000",
"#Z c #000000",
"#0 c #000000",
"#1 c #000000",
"#2 c #000000",
"#3 c #000000",
"#4 c #000000",
"#5 c #000000",
"#6 c #000000",
"#7 c #000000",
"#8 c #0000d9",
"a` c #000071",
"a. c #000000",
"a# c #88f7a4",
"aa c #88f7a4",
"ab c #000858",
"ac c #000000",
"ad c #000000",
"ae c #000000",
"af c #000000",
"ag c #46dcc8",
"ah c #88f474",
"ai c #612608",
"aj c #612608",
"ak c #0011f4",
"al c #000000",
"am c #000000",
"an c #826828",
"ao c #000000",
"ap c #612608",
"aq c #612608",
"ar c #0011d8",
"as c #590008",
"at c #000000",
"au c #000000",
"av c #000000",
"aw c #000000",
"ax c #000001",
"ay c #00000a",
"az c #000000",
"aA c #000014",
"aB c #000001",
"aC c #000000",
"aD c #000000",
"aE c #000000",
"aF c #00000c",
"aG c #000004",
"aH c #00004c",
"aI c #00004f",
"aJ c #481db8",
"aK c #88f474",
"aL c #870008",
"aM c #000000",
"aN c #000000",
"aO c #000000",
"aP c #000001",
"aQ c #000001",
"aR c #00000a",
"aS c #000000",
"aT c #000014",
"aU c #000001",
"aV c #000000",
"aW c #000000",
"aX c #000000",
"aY c #00000c",
"aZ c #000004",
"a0 c #000000",
"a1 c #612608",
"a2 c #612608",
"a3 c #001140",
"a4 c #417d89",
"a5 c #000000",
"a6 c #4868fc",
"a7 c #88f474",
"a8 c #000000",
/* pixels */
"```.`.`.`.`.`.`.`.`.```#`#`#`#`#",
"`.`a`a`a`b`c`d`e`f`g`.`#`#`#`#`#",
"`.`h`i`.`.`.`.`.`.`.`.`.```#`#`#",
"`.`j`.`a`a`a`b`c`d`e`f`g`.`#`#`#",
"`.`k`.`h`i`.`.`.`.`.`.`.`.`.```#",
"`.`l`.`j`.`a`a`a`b`c`d`e`f`g`.`#",
"`.`m`.`k`.`h`n`o`p`q`r`s`t`u`.`#",
"`.`v`.`l`.`j`w`x`y`z`A`B`C`D`.`#",
"`.`E`.`m`.`k`F`G`H`I`J`K`L`M`.`#",
"`.`N`.`v`.`l`O`P`Q`R`S`T`U`V`.`#",
"```.`.`E`.`m`W`X`Y`Z`0`1`2`3`.`#",
"`#`#`.`N`.`v`4`5`6`7`8.`...#`.`#",
"`#`#```.`.`E.a.b.c.d.e.f.g.h`.`#",
"`#`#`#`#`.`N.i.j.k.l.m.n.o.p`.`#",
"`#`#`#`#```.`.`.`.`.`.`.`.`.```#",
"`#`#`#`#`#`#`#`#`#`#`#`#`#`#`#`#"
};
