/* XPM */
static const char *link_xpm[] = {
/* columns rows colors chars-per-pixel */
"16 16 80 1",
"  c #555753",
". c #565854",
"X c #575956",
"o c #595B57",
"O c #5A5C58",
"+ c #5B5D59",
"@ c #5B5D5A",
"# c #5D5F5C",
"$ c #61635F",
"% c #636562",
"& c #646662",
"* c #646464",
"= c #676966",
"- c #696B67",
"; c #686868",
": c #6E706C",
"> c #6F716D",
", c #737471",
"< c #767875",
"1 c #777976",
"2 c #797A77",
"3 c #7F807D",
"4 c #858683",
"5 c #888888",
"6 c #8B8C89",
"7 c #8B8D8A",
"8 c #8C8E8B",
"9 c #8E8E8E",
"0 c #8F8F8F",
"q c #919390",
"w c #929391",
"e c #939492",
"r c #939592",
"t c #949494",
"y c #999B98",
"u c #A2A3A1",
"i c #A6A7A5",
"p c #A9A9A9",
"a c #A9ABA8",
"s c #AAABA9",
"d c #AAAAAA",
"f c #ABACAB",
"g c #ACADAB",
"h c #ADADAD",
"j c #AFAFAF",
"k c #AFB0AE",
"l c #B0B0B0",
"z c #B1B2B1",
"x c #B3B3B3",
"c c #B6B7B5",
"v c #B7B8B6",
"b c #BFBFBF",
"n c #C0C0C0",
"m c #C3C4C2",
"M c #C6C7C5",
"N c #C7C8C7",
"B c #C9C9C9",
"V c #CBCBCB",
"C c #CBCCCB",
"Z c #CCCCCC",
"A c #CDCDCD",
"S c #D1D1D0",
"D c #D1D1D1",
"F c #D1D2D1",
"G c #D2D2D2",
"H c #D9D9D9",
"J c #DBDBDB",
"K c #DCDCDC",
"L c #E5E5E5",
"P c #EAEAEA",
"I c #EBEBEB",
"U c #EFEFEF",
"Y c #F3F3F3",
"T c #F4F4F4",
"R c #F7F8F7",
"E c #FAFAFA",
"W c #FCFCFC",
"Q c #FDFDFD",
"! c #FEFEFE",
"~ c #FFFFFF",
/* pixels */
"~~~~~DLMbNDC~~~~",
"~~~~WcHppgbk~~~~",
"~~~~~qV777zq~~~~",
"~~~~W1B>t,p,~~~~",
"~~~~~XVOY+p$~~~~",
"~~~~~ -CT9  ~~~~",
"~~~~~v  K  z~~~~",
"~~~~~TL Z mS~~~~",
"~~~~Wm  Z  i~~~~",
"~~~~W 5UpZ  ~~~~",
"~~~~WoEXqXp ~~~~",
"~~~~WoPo*XpX~~~~",
"~~~~W%V%+Opo~~~~",
"~~~~~<Z---h&~~~~",
"~~~~~qD4j3x2~~~~",
"~~~~~fKuPynq~~~~"
};
