/* XPM */
static const char *lnk_16_xpm[] = {
/* columns rows colors chars-per-pixel */
"9 9 29 1",
"  c #494949",
". c #4E4E4E",
"X c #5B5B5B",
"o c #626262",
"O c #696969",
"+ c #747474",
"@ c #8A8A8A",
"# c #929292",
"$ c #959595",
"% c #A0A0A0",
"& c #A4A4A4",
"* c #ADADAD",
"= c #B0B0B0",
"- c #B4B4B4",
"; c #BEBEBE",
": c #C1C1C1",
"> c #C6C6C6",
", c #CACACA",
"< c #CECECE",
"1 c #D2D2D2",
"2 c #D6D6D6",
"3 c #DFDFDF",
"4 c #E1E1E1",
"5 c #E6E6E6",
"6 c #E9E9E9",
"7 c #F2F2F2",
"8 c #F7F7F7",
"9 c #FBFBFB",
"0 c #FEFEFE",
/* pixels */
"%;:::::;%",
":5566655:",
":6,@#521:",
">4X. Oo,>",
">=45+  ,>",
">388$  <>",
",787-=*5>",
">7890987,",
"&,,<<<,>%"
};
