/* XPM */
static const char *lnk_48_xpm[] = {
/* columns rows colors chars-per-pixel */
"16 16 70 1",
"  c #494949",
". c #4A4A4A",
"X c #4B4B4B",
"o c #4C4C4C",
"O c #535353",
"+ c #545454",
"@ c #555555",
"# c #575757",
"$ c #585858",
"% c #5A5A5A",
"& c #626262",
"* c #696969",
"= c #6D6D6D",
"- c #747474",
"; c #888888",
": c #8B8B8B",
"> c #8C8C8C",
", c #8D8D8D",
"< c #8E8E8E",
"1 c #999999",
"2 c #A9A9A9",
"3 c #AFAFAF",
"4 c #B0B0B0",
"5 c #B1B1B1",
"6 c #B3B3B3",
"7 c #B6B6B6",
"8 c #B7B7B7",
"9 c #B8B8B8",
"0 c #B9B9B9",
"q c #BABABA",
"w c #BCBCBC",
"e c #BDBDBD",
"r c #C4C4C4",
"t c #C6C6C6",
"y c #C8C8C8",
"u c #CACACA",
"i c #D2D2D2",
"p c #D8D8D8",
"a c #D9D9D9",
"s c #DBDBDB",
"d c #DDDDDD",
"f c #E3E3E3",
"g c #E4E4E4",
"h c #E5E5E5",
"j c #E6E6E6",
"k c #E7E7E7",
"l c #E8E8E8",
"z c #E9E9E9",
"x c #EAEAEA",
"c c #EBEBEB",
"v c #ECECEC",
"b c #EDEDED",
"n c #EEEEEE",
"m c #EFEFEF",
"M c #F0F0F0",
"N c #F1F1F1",
"B c #F2F2F2",
"V c #F3F3F3",
"C c #F4F4F4",
"Z c #F5F5F5",
"A c #F6F6F6",
"S c #F7F7F7",
"D c #F8F8F8",
"F c #F9F9F9",
"G c #FAFAFA",
"H c #FBFBFB",
"J c #FCFCFC",
"K c #FDFDFD",
"L c #FEFEFE",
"P c None",
/* pixels */
"P;667666636336;P",
";xffggggggxggfx;",
"6fggxggxxxggggg7",
"7xgxxxxxxxbxxxg9",
"7xxxxbbbbbxbxxx9",
"7xxbbx92tMbbsxx9",
"7xbbg*...=di&bb9",
"9bbb-o$...$++bbe",
"9bM31CC7O...OMbe",
"9MMeCCFCr...Obbe",
"9MCgCFFs$.o.+MMe",
"9MMCFFFsuuutuCMe",
"9MCCCFKKKKFCCCMe",
"9MCCFFKKKKFFCCM9",
"<CCCCFFKKFFCCMC<",
"P<977977979779<P"
};
