/* XPM */
static const char *localc_48_xpm[] = {
/* width height num_colors chars_per_pixel */
"    48    48      256            2",
/* colors */
"`` c #146a04",
"`. c #94968c",
"`# c #1ca204",
"`a c #8cce84",
"`b c #e4ca74",
"`c c #64aa5c",
"`d c #5c8654",
"`e c #148604",
"`f c #54be44",
"`g c #cce6cc",
"`h c #9cd2ec",
"`i c #cc926c",
"`j c #348624",
"`k c #3ca22c",
"`l c #5ca6cc",
"`m c #fce6a4",
"`n c #347a2c",
"`o c #8cde7c",
"`p c #74be6c",
"`q c #74a26c",
"`r c #cccacc",
"`s c #349624",
"`t c #147a04",
"`u c #9cbe94",
"`v c #7c9274",
"`w c #3cb224",
"`x c #5c9654",
"`y c #e4c25c",
"`z c #acdaa4",
"`A c #f4cab4",
"`B c #ccf2c4",
"`C c #448e3c",
"`D c #74d264",
"`E c #74b664",
"`F c #24721c",
"`G c #2cae14",
"`H c #eceaec",
"`I c #e4dab4",
"`J c #c4c2c4",
"`K c #149604",
"`L c #acdef4",
"`M c #44ba34",
"`N c #a4a6a4",
"`O c #64c254",
"`P c #348e24",
"`Q c #a4e29c",
"`R c #f4f6ec",
"`S c #147204",
"`T c #acd2ac",
"`U c #54ba3c",
"`V c #64925c",
"`W c #dcead4",
"`X c #bcd2bc",
"`Y c #74c664",
"`Z c #acaeac",
"`0 c #94a294",
"`1 c #e4cabc",
"`2 c #247a1c",
"`3 c #4cb23c",
"`4 c #84b27c",
"`5 c #2caa14",
"`6 c #3c9e2c",
"`7 c #6c9664",
"`8 c #74ba64",
".` c #ecb694",
".. c #249e0c",
".# c #f4fef4",
".a c #24aa14",
".b c #8cd67c",
".c c #f4e294",
".d c #548e44",
".e c #d4eecc",
".f c #3c8634",
".g c #3caa2c",
".h c #447e3c",
".i c #94e284",
".j c #74aa6c",
".k c #3c962c",
".l c #44b62c",
".m c #dcba7c",
".n c #dcf2dc",
".o c #34ae1c",
".p c #149e04",
".q c #64c654",
".r c #b4e6ac",
".s c #1c720c",
".t c #bcd6bc",
".u c #84c67c",
".v c #bcbabc",
".w c #9c9a9c",
".x c #24a214",
".y c #6cae64",
".z c #148e04",
".A c #5cbe4c",
".B c #d4eacc",
".C c #64aed4",
".D c #94da84",
".E c #d4d2d4",
".F c #b4dea4",
".G c #4c8e3c",
".H c #84d27c",
".I c #7cb274",
".J c #dcdadc",
".K c #3c8e2c",
".L c #ace29c",
".M c #fcfafc",
".N c #6cb264",
".O c #2c8224",
".P c #6c9e64",
".Q c #dcc2b4",
".R c #5c8e54",
".S c #1c6e0c",
".T c #dcce94",
".U c #6ca664",
".V c #cceac4",
".W c #a4daf4",
".X c #ccaa94",
".Y c #348a24",
".Z c #64aad4",
".0 c #3c8234",
".1 c #84be84",
".2 c #349a24",
".3 c #148204",
".4 c #94bacc",
".5 c #84927c",
".6 c #3cb62c",
".7 c #acdea4",
".8 c #ece2dc",
"#` c #d4f6d4",
"#. c #c4eac4",
"## c #accadc",
"#a c #9cd694",
"#b c #9cca94",
"#c c #b4cedc",
"#d c #dceed4",
"#e c #f4f2f4",
"#f c #b4b6b4",
"#g c #e4e2e4",
"#h c #8c9e8c",
"#i c #2c7624",
"#j c #6cbe64",
"#k c #e4e6e4",
"#l c #44ae34",
"#m c #6cca64",
"#n c #e4d2bc",
"#o c #649664",
"#p c #5cba4c",
"#q c #7cd66c",
"#r c #4cba3c",
"#s c #acaaac",
"#t c #6c8e64",
"#u c #7cca6c",
"#v c #b4b2b4",
"#w c #9ca29c",
"#x c #2c7a1c",
"#y c #4c8244",
"#z c #7caa74",
"#A c #c4dabc",
"#B c #e4c6bc",
"#C c #9cbed4",
"#D c #e4ce84",
"#E c #fcceb4",
"#F c #b4ceac",
"#G c #dcbe8c",
"#H c #3c7a34",
"#I c None",
"#J c #fce29c",
"#K c #1c9e04",
"#L c #d4aa94",
"#M c #fceaac",
"#N c #247614",
"#O c #f4faf4",
"#P c #ecba9c",
"#Q c #549244",
"#R c #3c8a2c",
"#S c #3cae24",
"#T c #dcbe84",
"#U c #dcf6d4",
"#V c #34b224",
"#W c #1c760c",
"#X c #84ca74",
"#Y c #24a60c",
"#Z c #5cc24c",
"#0 c #4c9244",
"#1 c #84d684",
"#2 c #ace6a4",
"#3 c #2c7e24",
"#4 c #146e04",
"#5 c #148a04",
"#6 c #3ca62c",
"#7 c #74c26c",
"#8 c #74a66c",
"a` c #cccecc",
"a. c #147e04",
"a# c #7c9674",
"aa c #e4c65c",
"ab c #ccf6c4",
"ac c #eceeec",
"ad c #c4c6c4",
"ae c #149a04",
"af c #349224",
"ag c #147604",
"ah c #74ca64",
"ai c #e4cebc",
"aj c #6c9a64",
"ak c #3c9a2c",
"al c #bcbebc",
"am c #9c9e9c",
"an c #149204",
"ao c #94de84",
"ap c #d4d6d4",
"aq c #7cb674",
"ar c #dcdedc",
"as c #3c922c",
"at c #6caa64",
"au c #4cbe3c",
"av c #6c9264",
"aw c #9ca69c",
"ax c #7cae74",
"ay c #b4d2ac",
"az c #1ca20c",
"aA c #5ca6d4",
"aB c #8cde84",
"aC c #3cb22c",
"aD c #74b66c",
"aE c #2cae1c",
"aF c #64c25c",
"aG c #f4f6f4",
"aH c #54ba44",
"aI c #4cb244",
"aJ c #74ba6c",
"aK c #8cd684",
"aL c #44b634",
"aM c #34ae24",
"aN c #4c8e44",
"aO c #ace2a4",
"aP c #6c9e6c",
"aQ c #cceacc",
"aR c #348a2c",
"aS c #349a2c",
"aT c #acdeac",
"aU c #c4dac4",
"aV c #1c9e0c",
"aW c #54924c",
"aX c #1c7614",
"aY c #5cc254",
"aZ c #000000",
"a0 c #000000",
"a1 c #000000",
"a2 c #000000",
"a3 c #000000",
"a4 c #000000",
"a5 c #000000",
"a6 c #000000",
"a7 c #000000",
"a8 c #000000",
/* pixels */
"#I#I#I#I#I#I#I#I#I#I#I#I#I#I#I#I#I#I#I#I#I#I#I#I#I#I#I#I#I#I#I#I#I#I#I#I#I#I#I#I#I#I#I#I#I#I#I#I",
"#I#I#I#I#I#I#I#I#I#I#I#I#I#I#I#I#I#I#I#I#I#I#I#I#I#I#I#I#I#I#I#I#I#I#I#I#I#I#I#I#I#I#I#I#I#I#I#I",
"#I#I#I#I#I#I#O.r`YaHaHaHaHaHaHaHaHaHaHaHaHaHaHaHaHaHaHaHaHaHaHaHaHaHaHaHaHaHaH.A#u.e#I#I#I#I#I#I",
"#I#I#I#I#I.VaM#K.p`#`#.p`#.p`#.p`#.p`#.p`#.p`#.p`#.p`#.p`#.p`#.p`#.p`#.p`#.p`#.p`#`#aF#I#I#I#I#I",
"#I#I#I#I#a`#.p`#`3.u`T.t.t#A.t.t.t#A.t.t.t#A.t.t.t#A.t.t.t#A.t#j`#.p`#.p`#.p`#.p.p`#.p#S.n#I#I#I",
"#I#I#I.naz.p.x#b#g#kac#e`R#eaG`RaG#e`RaGaG#e`RaGaG#e`RaGaG#e#e#g#j.p`#.p.p`#.p`#.p.p`#.p#p#I#I#I",
"#I#I#I`3#K#Kay#gac#I#I#I#I#I#I#I#I#I#I#I#I#I#I#I#I#I#I#I#I#I#IaG#g`p.p#K.p.p#K.p#K.p.p#K.p`a#I#I",
"#I#I#1#K.p`8araG#I#I#I#I#I#I#I#I#I#I#I#I#I#I#I#I#I#I#I#I#I#I#I#IaG#g#jae#Kae.pae.p#Kaeae#K#p#I#I",
"#I#I#Xaeae`X`H#I#I#I#I#I#I#I#I#I#I#I#I#I#I#I#I#I#I#I#I#I#I#I#I#I#I#ear`8ae#Kae#Kae#Kae#Kae`3#I#I",
"#I#I#7#K...JaG#I#I#I#I#I#I.M#I.M#I.M#I.M#I.M#I.M#I.M#I.M#I.M#I#I.M#I.M.J`Eae`K#K`K`K#K`Kae#l#I#I",
"#I#I#7`K`kap.M#I.M#I.M#I#I#I#I#I#I#I#I#I#I#I#I#I#I#I#I#I#I#I#I#I#I.M#IaG.JaJ`K`K#K`K`K`K`K.g#I#I",
"#I#I`p`K`kar.M#I.M#I.M#I.M.M.M.M.M.M.M.M.M.M.M.M.M.M.M.M.M.M.M.M#I.M#I.MaG.Jaq`Kan`K`K`K`K#6#I#I",
"#I#I#7`K`kap#I.M#I.M.e`w#V`w#V`w#V`w#V`w#V`w#V`w#V`w#V`w#V`w#V`w#V`w#V.6.M#eapaq`K`K`K`K`K#6#I#I",
"#I#I`p`K`6ap#I.M#I.M#..6`o`o`o`o`o`o`D`M`o`o`o`o`o`o`oaE`o`o`o`o`o`o`oaE#I#IaGapaqan`Kan..`k#I#I",
"#I#I`pan`6ap.M.M.M#I#..6.iaB.i.iaB.i#q`MaB.i.iaB.i.iaB`GaB.i.iaB.iaB.iaE.M.M.M#eap.Ianan.z#6#I#I",
"#I#I`panakap.M#I.M.M#..6.i.i.i.i.i.i#q`M.i.i.i.i.i.i.iaE.i.i.i.i.i.i.iaE#I.M.M.M#eap`4anan`k#I#I",
"#I#I`8an.2.E.M#O.M.M.V`5auauauauauau`MaEauauauauauauau.aauauauauauauau`G.M.M.M.M.M#ea`atan`k#I#I",
"#I#IaJ.zaka`.M.M.M#O.B`M#2.r#2#2#2#2.D#r.r#2#2#2#2#2#2aE#2#2#2#2.r#2#2aM.M#O.M#O.M.Mar.I.z`6#I#I",
"#I#I`8.z`sa`.M#O.M.M.B`f#`#U#`#U#U#`.r`O#`#U#U#U#U#U#`aM#U#U#U#`#U#`#UaC.M.M.M.M#O.Marax.z`6#I#I",
"#I#IaD.z`sa`.M.M#O.MaQaH#`#d#`#`#U#`.raY#U#`#`#`#`#`#U#V#`#`#`#U#`#U#`aC#O.M#O.M.M#O.Jax.z`6#I#I",
"#I#I`E#5`s`raG.MaG.M.B`w.H.H.H.H#X.H#m.l#X.H.H.H.H.H#X`5.H#X.H.H#X.H.H.o#O.M#O.M#O.M.J.j#5`6#I#I",
"#I#IaJ#5af`r.M#O.M#O.B#V.b.H.b.H.b.bahaL#1.b.H.b.b.H.b.aaK#1.b.H.b#1.b`5.M.MaG.M.MaG.J.j#5ak#I#I",
"#I#I`E`eafadaG.M.MaG.B`f#`#U#`#U#`#`.r#Z.n#`#U#`#`.n#`aM#`#U#`#U#`.e#UaCaG.MaG.MaG.Map#8`eak#I#I",
"#I#IaD`eaf`J.MaG.MaG.B`f#`#`#d#`#`#d.r#Z#`.e.V.B`g.V.B.g.V.B.VaQ.BaQaQ#lac#eaG.MaG.Map#8`eak#I#I",
"#I#I`E.3`P`JaGaG.MaGaQaL.7`Q`Q.L`Q`QaK#r.7#h#s`Z#v`Z#v`Z#v`Z#v#v`Z#v#v`Z`N`ZaG.MaGaGap`q`eak#I#I",
"#I#I.N.3`Pal.MaGaG.M.BaE`O.q`O`O`O`O.A.o.q`7#e#e#e#e.Q#L#L.8#e#e#e#e#eaG#e#saGaG.MaG.E`q.3.k#I#I",
"#I#I`E.3`PalaG.MaGaG.BaH#`#U#`#U#U#`.r#Z#U#waG#I#I#I`i#E#P`1#I.M#I.M#I.Mac`Z.MaG.MaG.E`q.3.k#I#I",
"#I#I.y.3.YalaGaG.M#eaQaH#`#U.e#`#`#U.r#Z#U#waG#####c`i#E#P.QaGaGaGaGaGaG#e#saGaG#eaG.E.P.3.k#I#I",
"#I#I`Ea..Y.vaGaG#eaG.B#r`B`B`B`B`B`B.7#Z`B`0#e`l`h`l`i#E#Pai.M.M.M`Q.7.Lac`ZaG.MaGaGa`.Pa.as#I#I",
"#I#I.ya..O.vaG.MaGaG.B#YaLaCaL#l.6#l#V.a.l#taG.C`LaA`i#E#P#BaGaGaGaoabaoac`Z#eaG.M#e.Eaja.as#I#I",
"#I#I.ja..Y#faG#eaG#eaQaH#`#`#`#`#`#`.r.A#`#waG.C`L.Z`i#E#P#G`yaa#Daoabaoac`Z.M#e#eaG`raja.af#I#I",
"#I#I.y`t.O#faGaGaGaG.BaH#`.n.e#U.e#U.r#Z.naw#e.C`L.Z`i#E.`#T.c#M`baoabaB#e#s#eaGaG#e`raj`t.K#I#I",
"#I#I.ja..O#vaG#e#e#e`g`f.e#`#`#`#`#`.FaY#`#waG.C`L.Z`i`A#P.m.c#M`bao`Baoac`Z#eaG#eaG`r`7`t`P#I#I",
"#I#Iat`t.O#v#eaGaGaG.B#YaC#S#S#S#S`waM`5aM#t#e.Z.WaA`i#E.`.m.c`m`baB`BaBac#saG#eaG#e`r#o`t.K#I#I",
"#I#I.jag.O#v#eaG#e#eaG#eaGaGaGaG#eaG#eaG#e`N#g.4.4#C.Q.X.X#n.T.T`I`z`zaTar#saG#eaG#ead`7agaR#I#I",
"#I#Iatag#3`Z#e#eaG#e#e#e#e#e#e#e#e#e#e#e#eal#s#s#s#s#s#s#s#s#s#s#s#s`Z#s#sad#e#e#eaGad`VagaR#I#I",
"#I#I.j`S#3#s`R#e#e#eaG#eaGacaG#eaGacaGaG#eaG#e#e#e#e#e#e#e#e#e#e#e#e#eaG#e#eaG#e#e#ead`V`S#R#I#I",
"#I#I.U`S`2`N`H#e`R#eacaG#eaG#eacaGaG#e#e#e#e`RacaG#eacaG#eacaG#eaGacaG#e#e#e#eaG#e#e#v.R`SaR#I#I",
"#I#I.U`S`Samap#eacaG#e#eac#e#eaG#eac#eacaGacaG#e#eaG#eacaG#e#eacaG#e#eacaGacaGacaGac`N.0`SaR#I#I",
"#I#Iax`S#4a#`ZacaG#eacaG#e#eac#e#eaG#eaG#e#eacaGac#eaG#e#eacaG#e#eacaG#e#e#e#e#e#eadamaX#4`C#I#I",
"#I#I.1ag#4#Namal#eac#e#eac#e#eac#eac#eacacaG#eac#eac#eacaG#eac#eacaGac#eac#eac#eapam`d#4#4#0#I#I",
"#I#I#I#0#4#4#y.w#sarac#eac#eacaGacaGacaG#eac#e#e#eacaGac#eac#eacaG#e#eac#eac#kal.w`v#4#4#4`4#I#I",
"#I#I#I`WaX``#4#i`v.wam#s`Z`Z`Z`Z`Z`Z`Z`Z`Z`Z`Z`Z`Z`Z`Z`Z`Z`Z`Z`Z`Z#s`Z`Z`Z#w.w`.#y``#4```C`R#I#I",
"#I#I#I#I`u`S``````#4`n.h.h.h.h.h.h.h.h.h.h.h.h.h.h.h.h.h.h.h.h.h.h.h.h.h.h#H`F````````aR.t#I#I#I",
"#I#I#I#I#I#F.f`````````````````````````````````````````````````````````````````````SaNaU#I#I#I#I",
"#I#I#I#I#I#I#IaW`C#0aNaNaNaNaNaNaNaNaNaNaNaNaNaNaNaNaNaNaNaNaNaNaNaNaNaNaNaNaNaN.0#0#I#I#I#I#I#I",
"#I#I#I#I#I#I#I#I#I#I#I#I#I#I#I#I#I#I#I#I#I#I#I#I#I#I#I#I#I#I#I#I#I#I#I#I#I#I#I#I#I#I#I#I#I#I#I#I",
"#I#I#I#I#I#I#I#I#I#I#I#I#I#I#I#I#I#I#I#I#I#I#I#I#I#I#I#I#I#I#I#I#I#I#I#I#I#I#I#I#I#I#I#I#I#I#I#I"
};
