/* XPM */
static const char *localc_16_xpm[] = {
/* width height num_colors chars_per_pixel */
"    16    16      256            2",
/* colors */
"`` c #ffffff",
"`. c #80c880",
"`# c #7eca71",
"`a c #7dc970",
"`b c #8ed07b",
"`c c #a4da9d",
"`d c #2da91a",
"`e c #55b945",
"`f c #67c059",
"`g c #46b335",
"`h c #18a003",
"`i c #22a40d",
"`j c #6fc462",
"`k c #80bf80",
"`l c #32a820",
"`m c #d4ecd1",
"`n c #fefefe",
"`o c #f9fcf8",
"`p c #5fba51",
"`q c #179c03",
"`r c #1e9f0b",
"`s c #49b23a",
"`t c #85c87a",
"`u c #41ab31",
"`v c #fdfdfd",
"`w c #f9fbf9",
"`x c #65ba58",
"`y c #169803",
"`z c #52b144",
"`A c #48aa39",
"`B c #fcfcfc",
"`C c #86927b",
"`D c #81956e",
"`E c #717e64",
"`F c #778768",
"`G c #7b8c6a",
"`H c #848f7a",
"`I c #fafbfa",
"`J c #6dbb61",
"`K c #169403",
"`L c #52af44",
"`M c #85c27a",
"`N c #46a738",
"`O c #fafafa",
"`P c #899a79",
"`Q c #95c26a",
"`R c #77905f",
"`S c #83a464",
"`T c #89ae66",
"`U c #f9faf9",
"`V c #56ae49",
"`W c #50ac43",
"`X c #80bc74",
"`Y c #46a438",
"`Z c #f9f9f9",
"`0 c #7e8c71",
"`1 c #768f5f",
"`2 c #69765c",
"`3 c #7f946b",
"`4 c #738365",
"`5 c #788967",
"`6 c #80946d",
"`7 c #7d8773",
"`8 c #71b866",
".` c #50a843",
".. c #459f38",
".# c #f8f8f8",
".a c #889979",
".b c #94c16a",
".c c #8f9d82",
".d c #cacbc9",
".e c #d9dad9",
".f c #abacaa",
".g c #70b566",
".h c #4fa543",
".i c #80b774",
".j c #459c37",
".k c #f7f7f7",
".l c #79866e",
".m c #737c6b",
".n c #929491",
".o c #9b9c99",
".p c #939492",
".q c #70b265",
".r c #4fa143",
".s c #449937",
".t c #f6f6f6",
".u c #889878",
".v c #93c069",
".w c #8e9c81",
".x c #c9c9c8",
".y c #d8d8d7",
".z c #aaaba9",
".A c #6faf65",
".B c #4e9e41",
".C c #80b174",
".D c #449536",
".E c #f5f5f5",
".F c #7b886f",
".G c #768e5e",
".H c #737b6a",
".I c #929391",
".J c #9a9b99",
".K c #8f908d",
".L c #6eac64",
".M c #4e9b41",
".N c #439236",
".O c #f4f4f4",
".P c #879878",
".Q c #92bf68",
".R c #8d9b7f",
".S c #c7c8c7",
".T c #d6d6d6",
".U c #a9aaa8",
".V c #6da964",
".W c #4c9741",
".X c #80ae74",
".Y c #348728",
".Z c #f3f3f3",
".0 c #98a18f",
".1 c #8f9b82",
".2 c #8e9b81",
".3 c #888f82",
".4 c #9c9e9b",
".5 c #a1a2a0",
".6 c #a6a7a5",
".7 c #5e9f54",
".8 c #4d9540",
"#` c #808080",
"#. c #2d7f20",
"## c #b0cbac",
"#a c #f1f1f1",
"#b c #cadbc8",
"#c c #227914",
"#d c #287e19",
"#e c #95bd8f",
"#f c #29791c",
"#g c #2a7b1e",
"#h c #39842e",
"#i c #2f7d23",
"#j c #217514",
"#k c #478c3c",
"#l c #dfebdf",
"#m c #87b380",
"#n c #3d8332",
"#o c #3e8333",
"#p c #1b6e0f",
"#q c #000000",
"#r c #000000",
"#s c #000000",
"#t c #000000",
"#u c #000000",
"#v c #000000",
"#w c #000000",
"#x c #000000",
"#y c #000000",
"#z c #000000",
"#A c #000000",
"#B c #000000",
"#C c #000000",
"#D c #000000",
"#E c #000000",
"#F c #000000",
"#G c #000000",
"#H c #000000",
"#I c #000000",
"#J c #000000",
"#K c #000000",
"#L c #000000",
"#M c #000000",
"#N c #000000",
"#O c #000000",
"#P c #000000",
"#Q c #000000",
"#R c #000000",
"#S c #000000",
"#T c #000000",
"#U c #000000",
"#V c #000000",
"#W c #000000",
"#X c #000000",
"#Y c #000000",
"#Z c #000000",
"#0 c #000000",
"#1 c #000000",
"#2 c #000000",
"#3 c #000000",
"#4 c #000000",
"#5 c #000000",
"#6 c #000000",
"#7 c #000000",
"#8 c #000000",
"a` c #000000",
"a. c #000000",
"a# c #000000",
"aa c #000000",
"ab c #000000",
"ac c #000000",
"ad c #000000",
"ae c #000000",
"af c #000000",
"ag c #000000",
"ah c #000000",
"ai c #000000",
"aj c #000000",
"ak c #000000",
"al c #000000",
"am c #000000",
"an c #000000",
"ao c #000000",
"ap c #000000",
"aq c #000000",
"ar c #000000",
"as c #000000",
"at c #000000",
"au c #000000",
"av c #000000",
"aw c #000000",
"ax c #000000",
"ay c #000000",
"az c #000000",
"aA c #000000",
"aB c #000000",
"aC c #000000",
"aD c #000000",
"aE c #000000",
"aF c #000000",
"aG c #000000",
"aH c #000000",
"aI c #000000",
"aJ c #000000",
"aK c #000000",
"aL c #000000",
"aM c #000000",
"aN c #000000",
"aO c #000000",
"aP c #000000",
"aQ c #000000",
"aR c #000000",
"aS c #000000",
"aT c #000000",
"aU c #000000",
"aV c #000000",
"aW c #000000",
"aX c #000000",
"aY c #000000",
"aZ c #000000",
"a0 c #000000",
"a1 c #000000",
"a2 c #000000",
"a3 c #000000",
"a4 c #000000",
"a5 c #000000",
"a6 c #000000",
"a7 c #000000",
"a8 c #000000",
/* pixels */
"`````.`#`a`a`a`a`a`a`a`a`a`b````",
"```c`d`e`f`f`f`f`f`f`g`h`h`i`j``",
"`k`l`m`n`n`n`n`n`n`n`o`p`q`q`r`s",
"`t`u`v`v`v`v`v`v`v`v`v`w`x`y`y`z",
"`t`A`B`C`D`D`E`D`F`G`D`H`I`J`K`L",
"`M`N`O`P`Q`Q`R`Q`S`T`Q`P`O`U`V`W",
"`X`Y`Z`0`1`1`2`3`4`5`6`7`Z`Z`8.`",
"`X...#.a.b.b.c.#.d.e.#.f.#.#.g.h",
".i.j.k.l`1`1.m.f.n.o.f.p.k.k.q.r",
".i.s.t.u.v.v.w.t.x.y.t.z.t.t.A.B",
".C.D.E.F.G.G.H.z.I.J.z.K.E.E.L.M",
".C.N.O.P.Q.Q.R.O.S.T.O.U.O.O.V.W",
".X.Y.Z.0.1.2.3.U.4.5.U.6.Z.Z.7.8",
"#`#.###a#a#a#a#a#a#a#a#a#a#b#c#d",
"``#e#f#g#h#h#h#h#h#h#h#h#i#j#k#l",
"````#m#n#o#o#o#o#o#o#o#o#o#p````"
};
