/* XPM */
static const char *mainframecat_xpm[] = {
/* width height num_colors chars_per_pixel */
"    16    16      256            2",
/* colors */
"`` c None",
"`. c #c0aa83",
"`# c #dcc398",
"`a c #dcc297",
"`b c #dcc196",
"`c c #dbc195",
"`d c #dbc094",
"`e c #dabf92",
"`f c #dabf91",
"`g c #dabe90",
"`h c #b4a17b",
"`i c #c1ac85",
"`j c #eecb94",
"`k c #e9b96e",
"`l c #ecc991",
"`m c #b29f78",
"`n c #c7aa79",
"`o c #c5831a",
"`p c #b79e72",
"`q c #c3a672",
"`r c #b8821c",
"`s c #c29816",
"`t c #c39815",
"`u c #bd9316",
"`v c #bd821e",
"`w c #b39a6d",
"`x c #c1a36f",
"`y c #ba8920",
"`z c #ffdc00",
"`A c #fbd800",
"`B c #b78727",
"`C c #b1986a",
"`D c #bfa16b",
"`E c #e1bc02",
"`F c #c59e04",
"`G c #e8c402",
"`H c #b09666",
"`I c #bf9f67",
"`J c #b38505",
"`K c #aa6a03",
"`L c #b98e05",
"`M c #ad9463",
"`N c #bd9d64",
"`O c #be8522",
"`P c #bd9023",
"`Q c #be9122",
"`R c #a87917",
"`S c #9f6f11",
"`T c #ac7e1a",
"`U c #b98d23",
"`V c #c48725",
"`W c #ab9160",
"`X c #bc9a61",
"`Y c #b17b1c",
"`Z c #868552",
"`0 c #858553",
"`1 c #89834c",
"`2 c #bc7d17",
"`3 c #aa8f5d",
"`4 c #ba985d",
"`5 c #8b844f",
"`6 c #00c0ff",
"`7 c #04bcf6",
"`8 c #a08440",
".` c #a88d59",
".. c #b89559",
".# c #8a8450",
".a c #01bffd",
".b c #04bdf7",
".c c #00bffe",
".d c #04bcf7",
".e c #9e8440",
".f c #a78b56",
".g c #b79355",
".h c #587b5d",
".i c #83651d",
".j c #4b8474",
".k c #a58852",
".l c #b59051",
".m c #a1843f",
".n c #599081",
".o c #589182",
".p c #776f38",
".q c #8d691a",
".r c #717444",
".s c #5e8b77",
".t c #b48837",
".u c #a0834d",
".v c #b39053",
".w c #c78a29",
".x c #ca8d2d",
".y c #c98c2c",
".z c #c98c2b",
".A c #c98b2a",
".B c #c98b29",
".C c #c88a28",
".D c #c78926",
".E c #c58520",
".F c #9b7e47",
".G c #8d8060",
".H c #938565",
".I c #928464",
".J c #918364",
".K c #918363",
".L c #908362",
".M c #8f8261",
".N c #8f8160",
".O c #8f8161",
".P c #8f805f",
".Q c #887c60",
".R c #000000",
".S c #000000",
".T c #000000",
".U c #000000",
".V c #000000",
".W c #000000",
".X c #000000",
".Y c #000000",
".Z c #000000",
".0 c #000000",
".1 c #000000",
".2 c #000000",
".3 c #000000",
".4 c #000000",
".5 c #000000",
".6 c #000000",
".7 c #000000",
".8 c #000000",
"#` c #000000",
"#. c #000000",
"## c #000000",
"#a c #000000",
"#b c #000000",
"#c c #000000",
"#d c #000000",
"#e c #000000",
"#f c #000000",
"#g c #000000",
"#h c #000000",
"#i c #000000",
"#j c #000000",
"#k c #000000",
"#l c #000000",
"#m c #000000",
"#n c #000000",
"#o c #000000",
"#p c #000000",
"#q c #000000",
"#r c #000000",
"#s c #000000",
"#t c #000000",
"#u c #000000",
"#v c #000000",
"#w c #000000",
"#x c #000000",
"#y c #000000",
"#z c #000000",
"#A c #000000",
"#B c #000000",
"#C c #000000",
"#D c #000000",
"#E c #000000",
"#F c #000000",
"#G c #000000",
"#H c #000000",
"#I c #000000",
"#J c #000000",
"#K c #000000",
"#L c #000000",
"#M c #000000",
"#N c #000000",
"#O c #000000",
"#P c #000000",
"#Q c #000000",
"#R c #000000",
"#S c #000000",
"#T c #000000",
"#U c #000000",
"#V c #000000",
"#W c #000000",
"#X c #000000",
"#Y c #000000",
"#Z c #000000",
"#0 c #000000",
"#1 c #000000",
"#2 c #000000",
"#3 c #000000",
"#4 c #000000",
"#5 c #000000",
"#6 c #000000",
"#7 c #000000",
"#8 c #000000",
"a` c #000000",
"a. c #000000",
"a# c #000000",
"aa c #000000",
"ab c #000000",
"ac c #000000",
"ad c #000000",
"ae c #000000",
"af c #000000",
"ag c #000000",
"ah c #000000",
"ai c #000000",
"aj c #000000",
"ak c #000000",
"al c #000000",
"am c #000000",
"an c #000000",
"ao c #000000",
"ap c #000000",
"aq c #000000",
"ar c #000000",
"as c #000000",
"at c #000000",
"au c #000000",
"av c #000000",
"aw c #000000",
"ax c #000000",
"ay c #000000",
"az c #000000",
"aA c #000000",
"aB c #000000",
"aC c #000000",
"aD c #000000",
"aE c #000000",
"aF c #000000",
"aG c #000000",
"aH c #000000",
"aI c #000000",
"aJ c #000000",
"aK c #000000",
"aL c #000000",
"aM c #000000",
"aN c #000000",
"aO c #000000",
"aP c #000000",
"aQ c #000000",
"aR c #000000",
"aS c #000000",
"aT c #000000",
"aU c #000000",
"aV c #000000",
"aW c #000000",
"aX c #000000",
"aY c #000000",
"aZ c #000000",
"a0 c #000000",
"a1 c #000000",
"a2 c #000000",
"a3 c #000000",
"a4 c #000000",
"a5 c #000000",
"a6 c #000000",
"a7 c #000000",
"a8 c #000000",
/* pixels */
"```````.`#`a`b`c`d`e`f`g`h``````",
"`````i`j`k`k`k`k`k`k`k`k`l`m````",
"`````n`o`o`o`o`o`o`o`o`o`o`p````",
"`````q`r`s`t`t`t`t`t`t`u`v`w````",
"`````x`y`z`z`z`z`z`z`z`A`B`C````",
"`````D`y`z`z`E`F`F`G`z`A`B`H````",
"`````I`y`z`z`J`K`K`L`z`A`B`M````",
"`````N`O`P`Q`R`S`S`T`Q`U`V`W````",
"`````X`Y`Z`0`0`0`0`0`0`1`2`3````",
"`````4`5`6`6`6`6`6`6`6`7`8.`````",
"````...#`6`6.a.b.b.c`6.d.e.f````",
"````.g.#`6`6.h.i.i.j`6.d.e.k````",
"````.l.m.n.o.p.q.q.r.o.s.t.u````",
"````.v.w.x.x.y.z.A.B.C.D.E.F````",
"````.G.H.I.J.K.K.L.M.N.O.P.Q````",
"````````````````````````````````"
};
