/* XPM */
static const char * mainframecat_x_xpm[] = {
"16 16 93 2",
"  	c None",
". 	c #C0AA83",
"+ 	c #DCC398",
"@ 	c #DCC297",
"# 	c #DCC196",
"$ 	c #DBC195",
"% 	c #DBC094",
"& 	c #DABF92",
"* 	c #DABF91",
"= 	c #DABE90",
"- 	c #B4A17B",
"; 	c #C1AC85",
"> 	c #EECB94",
", 	c #E9B96E",
"' 	c #ECC991",
") 	c #B29F78",
"! 	c #C7AA79",
"~ 	c #C5831A",
"{ 	c #B78727",
"] 	c #B79E72",
"^ 	c #C3A672",
"/ 	c #F8F8F8",
"( 	c #B39A6D",
"_ 	c #C1A36F",
": 	c #BA8920",
"< 	c #FFFEFD",
"[ 	c #FFFEFE",
"} 	c #FFFFFF",
"| 	c #B1986A",
"1 	c #BFA16B",
"2 	c #E0DFD9",
"3 	c #C59E04",
"4 	c #E0E0E0",
"5 	c #FFFEFB",
"6 	c #FEFEF9",
"7 	c #B09666",
"8 	c #BF9F67",
"9 	c #B38505",
"0 	c #AA6A03",
"a 	c #B98E05",
"b 	c #FFFEF8",
"c 	c #FEFDF5",
"d 	c #AD9463",
"e 	c #BD9D64",
"f 	c #BE8522",
"g 	c #BD9023",
"h 	c #BE9122",
"i 	c #A87917",
"j 	c #9F6F11",
"k 	c #AC7E1A",
"l 	c #B98D23",
"m 	c #AB9160",
"n 	c #BC9A61",
"o 	c #FF2400",
"p 	c #AA8F5D",
"q 	c #BA985D",
"r 	c #FF0200",
"s 	c #FF1500",
"t 	c #FF1300",
"u 	c #FF1700",
"v 	c #A88D59",
"w 	c #B89559",
"x 	c #FF9898",
"y 	c #FB0D03",
"z 	c #FF0000",
"A 	c #A78B56",
"B 	c #B79355",
"C 	c #FF3800",
"D 	c #FD1800",
"E 	c #A58852",
"F 	c #B59051",
"G 	c #A0834D",
"H 	c #B39053",
"I 	c #C78A29",
"J 	c #CA8D2D",
"K 	c #C98C2C",
"L 	c #C98C2B",
"M 	c #C98B2A",
"N 	c #C98B29",
"O 	c #C88A28",
"P 	c #C78926",
"Q 	c #9B7E47",
"R 	c #8D8060",
"S 	c #938565",
"T 	c #928464",
"U 	c #918364",
"V 	c #918363",
"W 	c #908362",
"X 	c #8F8261",
"Y 	c #8F8160",
"Z 	c #8F8161",
"` 	c #8F805F",
" .	c #887C60",
"      . + @ # $ % & * = -       ",
"    ; > , , , , , , , , ' )     ",
"    ! ~ ~ ~ ~ ~ ~ ~ ~ ~ { ]     ",
"    ^ { / / / / / / / / { (     ",
"    _ : < [ / } } } } } { |     ",
"    1 : } / 2 3 3 4 5 6 { 7     ",
"    8 : } } 9 0 0 a b c { d     ",
"    e f g h i j j k h l { m     ",
"    n { o o o o o o o o { p     ",
"    q { o r s t u s s t { v     ",
"    w { u r x 3 3 x y z { A     ",
"    B { z t 9 0 0 a C D { E     ",
"    F { { { i j j k { { { G     ",
"    H I J J K L M N O P { Q     ",
"    R S T U V V W X Y Z `  .    ",
"                                "};
