/* XPM */
static const char * mainframemap_xpm[] = {
"16 16 221 2",
"  	c None",
". 	c #C0BEC0",
"+ 	c #ADB0C2",
"@ 	c #B6BBCD",
"# 	c #BCC2CF",
"$ 	c #ABB2C6",
"% 	c #A4ADC7",
"& 	c #A5A9BF",
"* 	c #C6C5C8",
"= 	c #B9B6B6",
"- 	c #B3B6C7",
"; 	c #CDD2DC",
"> 	c #C4D1DD",
", 	c #D8DBDE",
"' 	c #FBFBFB",
") 	c #AAB3BB",
"! 	c #AFCAE5",
"~ 	c #A4BFDE",
"{ 	c #A9B4C8",
"] 	c #A8ABBE",
"^ 	c #BBB8B8",
"/ 	c #C6C3C4",
"( 	c #AFB3C3",
"_ 	c #CED3D9",
": 	c #BEC9D4",
"< 	c #C2CCD6",
"[ 	c #C7CCD2",
"} 	c #BBC7D5",
"| 	c #C1D0DF",
"1 	c #BCD2EA",
"2 	c #C6CCD4",
"3 	c #C5CAD0",
"4 	c #D0D3D6",
"5 	c #8F95A9",
"6 	c #BDBBBB",
"7 	c #B3B6C9",
"8 	c #F5F5F6",
"9 	c #CCD2D8",
"0 	c #F7F7F7",
"a 	c #BFC7CE",
"b 	c #E3F1FF",
"c 	c #DBEBFB",
"d 	c #CEE1F4",
"e 	c #B7C1CC",
"f 	c #C2C8D0",
"g 	c #E1E3E5",
"h 	c #EFEFEF",
"i 	c #D7D7D9",
"j 	c #989EB1",
"k 	c #DFDFE9",
"l 	c #DADCE2",
"m 	c #FEFEFE",
"n 	c #BAC0C5",
"o 	c #D2DEEB",
"p 	c #CDCFD1",
"q 	c #D1D2D3",
"r 	c #CFD2D4",
"s 	c #D0D1D1",
"t 	c #BFC1C2",
"u 	c #F1F2F2",
"v 	c #F4F4F4",
"w 	c #DEDEDE",
"x 	c #ADB1B6",
"y 	c #A7AEC6",
"z 	c #F8F8F9",
"A 	c #FDFDFD",
"B 	c #AFB8C1",
"C 	c #D2DEEC",
"D 	c #D2D5D9",
"E 	c #8CA7C6",
"F 	c #97B4D6",
"G 	c #9EB9DA",
"H 	c #8AA5C5",
"I 	c #C1CCD7",
"J 	c #B2B7BC",
"K 	c #A0AEBC",
"L 	c #E0E0E0",
"M 	c #CFD0D0",
"N 	c #8B90A9",
"O 	c #B9BDCB",
"P 	c #BAC0C7",
"Q 	c #A6B3C1",
"R 	c #C5DEF8",
"S 	c #CECFD0",
"T 	c #88A5C8",
"U 	c #D7E5F3",
"V 	c #E8F0F8",
"W 	c #D9E4F1",
"X 	c #CEDEEE",
"Y 	c #8EADD1",
"Z 	c #CFD5DC",
"` 	c #C9CACC",
" .	c #CECFD1",
"..	c #9EA4AB",
"+.	c #868C9A",
"@.	c #C2C6D0",
"#.	c #B2BDC9",
"$.	c #A4C3E3",
"%.	c #B0C8E1",
"&.	c #BAC4D1",
"*.	c #9FBDDE",
"=.	c #DAE7F4",
"-.	c #DDE8F4",
";.	c #DAE4EE",
">.	c #CBDCED",
",.	c #A5C1E0",
"'.	c #9AAFCA",
").	c #C4C4C4",
"!.	c #A1A9B2",
"~.	c #AFB0B3",
"{.	c #7884A4",
"].	c #9BA6C2",
"^.	c #96AABF",
"/.	c #A6B5C5",
"(.	c #B0B6BD",
"_.	c #A3B5CB",
":.	c #A7C4E3",
"<.	c #C9DBEE",
"[.	c #CBDCEF",
"}.	c #CED9E6",
"|.	c #C6D8EB",
"1.	c #B1CAE4",
"2.	c #93ABC9",
"3.	c #C3C3C3",
"4.	c #BCBEC1",
"5.	c #5A6E87",
"6.	c #7985A5",
"7.	c #9CA6C2",
"8.	c #84A9D2",
"9.	c #9FB4CC",
"0.	c #ECECEC",
"a.	c #C2CAD5",
"b.	c #83A5CA",
"c.	c #A1C0E0",
"d.	c #9FBEDF",
"e.	c #8AAED4",
"f.	c #7F9DBE",
"g.	c #85A4C5",
"h.	c #97ADC7",
"i.	c #BBBBBB",
"j.	c #BBBBBC",
"k.	c #4A678A",
"l.	c #878DAA",
"m.	c #9AA2BC",
"n.	c #88AAD1",
"o.	c #A9B6C4",
"p.	c #CECECE",
"q.	c #91AAC8",
"r.	c #8FACC9",
"s.	c #7AA3D0",
"t.	c #759FCD",
"u.	c #6E99C9",
"v.	c #6890BE",
"w.	c #D4D8DB",
"x.	c #B3B3B3",
"y.	c #7A838E",
"z.	c #54729A",
"A.	c #8F93AF",
"B.	c #C0BEBF",
"C.	c #94A5BF",
"D.	c #6F93BA",
"E.	c #DCDDDF",
"F.	c #DCDCDC",
"G.	c #D8D9DA",
"H.	c #94AAC5",
"I.	c #7096C1",
"J.	c #6992C0",
"K.	c #7999BF",
"L.	c #D2D8DF",
"M.	c #979797",
"N.	c #69727D",
"O.	c #6D799C",
"P.	c #A2A8C1",
"Q.	c #7898C3",
"R.	c #7D92AA",
"S.	c #DDDDDD",
"T.	c #BFBFC2",
"U.	c #BABDBF",
"V.	c #D4D4D4",
"W.	c #D9D9D9",
"X.	c #C8C9CA",
"Y.	c #6F8193",
"Z.	c #B1B1B1",
"`.	c #A0A0A0",
" +	c #949596",
".+	c #9696AB",
"++	c #8D95B1",
"@+	c #8197B2",
"#+	c #C6C6C6",
"$+	c #738394",
"%+	c #477AB2",
"&+	c #4577AF",
"*+	c #4573A9",
"=+	c #3E6DA3",
"-+	c #3D6699",
";+	c #797D81",
">+	c #A7A7A7",
",+	c #A8A8A8",
"'+	c #969696",
")+	c #D2D0D0",
"!+	c #979CB1",
"~+	c #9499A1",
"{+	c #587FAC",
"]+	c #4571A4",
"^+	c #3D699D",
"/+	c #3D6597",
"(+	c #426694",
"_+	c #526D95",
":+	c #6E799A",
"<+	c #8D909D",
"[+	c #A5A5A5",
"}+	c #C1C1C1",
"|+	c #BABABA",
"1+	c #C0BDBF",
"2+	c #9397B2",
"3+	c #868EAC",
"4+	c #737FA1",
"5+	c #727D9E",
"6+	c #838BA7",
"7+	c #9B9DB1",
"8+	c #B4B4B4",
"        . + @ # $ % & *         ",
"    = - ; > , ' ) ! ~ { ] ^     ",
"  / ( _ : < [ } | 1 2 3 4 5 6   ",
"  7 8 9 0 a b c d e f g h i j   ",
"k l m m n o p q r s t u v w x = ",
"y z A B C D E F G H I J K L M N ",
"O P Q R S T U V W X Y Z `  ...+.",
"@.#.$.%.&.*.=.-.;.>.,.'.).!.~.{.",
"].^./.(._.:.<.[.}.|.1.2.3.4.5.6.",
"7.8.9.0.a.b.c.d.e.f.g.h.i.j.k.l.",
"m.n.o.A p.q.r.s.t.u.v.w.x.y.z.A.",
"B.C.D.E.F.G.H.I.J.K.L.p.M.N.O.= ",
"  P.Q.R.S.T.U.V.W.X.Y.Z.`. +.+  ",
"  = ++@+#+$+%+&+*+=+-+;+>+,+'+6 ",
"    )+!+~+{+]+^+/+(+_+:+<+[+}+|+",
"        1+2+3+4+5+6+7+1+  = x.8+"};
