/* XPM */
static const char *map_rotate_xpm[] = {
/* width height num_colors chars_per_pixel */
"    16    16      256            2",
/* colors */
"`` c None",
"`. c #616161",
"`# c #757575",
"`a c #9e9e9e",
"`b c #c7c7c7",
"`c c #cccdcd",
"`d c #0f1112",
"`e c #0b0c0e",
"`f c #18191b",
"`g c #787879",
"`h c #c4c4c5",
"`i c #bcbcbf",
"`j c #272b31",
"`k c #6c7073",
"`l c #eff1f1",
"`m c #dddde6",
"`n c #a1a3bd",
"`o c #8a8dac",
"`p c #8689a9",
"`q c #a6a7be",
"`r c #5c6268",
"`s c #84898e",
"`t c #fbfbfb",
"`u c #9ea0b8",
"`v c #b5b6c6",
"`w c #c3c9d3",
"`x c #f3f3f3",
"`y c #adb9c9",
"`z c #9fadca",
"`A c #9395ab",
"`B c #adaec4",
"`C c #6a727b",
"`D c #f4f5f5",
"`E c #9c9eb8",
"`F c #d4d5db",
"`G c #c9cfd5",
"`H c #d2dee9",
"`I c #c9d5e3",
"`J c #c2d1e5",
"`K c #b7c2cd",
"`L c #cfd1d6",
"`M c #bcbdc5",
"`N c #b8b8cb",
"`O c #b6bac0",
"`P c #d6d6e1",
"`Q c #d0d1d9",
"`R c #fefefe",
"`S c #c0c4c8",
"`T c #d8e5f2",
"`U c #e0effe",
"`V c #c5d4e6",
"`W c #d5d8db",
"`X c #f5f5f6",
"`Y c #e5e5e5",
"`Z c #8f919e",
"`0 c #dadde0",
"`1 c #9799b5",
"`2 c #eaeced",
"`3 c #bcc2c8",
"`4 c #daedff",
"`5 c #dfefff",
"`6 c #dbecfd",
"`7 c #c0cbd7",
"`8 c #ccd0d5",
".` c #abb7c4",
".. c #d3d4d6",
".# c #b7b7bb",
".a c #babacc",
".b c #f1f2f4",
".c c #9498ae",
".d c #aeb8c5",
".e c #b1ceeb",
".f c #c6def7",
".g c #d1e4f9",
".h c #c9def4",
".i c #e5e6e8",
".j c #fdfdfd",
".k c #b8bcc1",
".l c #9298a2",
".m c #8a8ba8",
".n c #ebeff1",
".o c #7d80a3",
".p c #99acc3",
".q c #b5c0cc",
".r c #afbcca",
".s c #a9c8e8",
".t c #a2c2e4",
".u c #c0c7ce",
".v c #e0e2e5",
".w c #eeeeee",
".x c #cacbcb",
".y c #667690",
".z c #8a8ca9",
".A c #f4f4f4",
".B c #edeff2",
".C c #9395b2",
".D c #859cbf",
".E c #dfe2e5",
".F c #bfc6ce",
".G c #84a9d1",
".H c #78a0cd",
".I c #7497be",
".J c #dadada",
".K c #9fa3a7",
".L c #616d95",
".M c #bcbccc",
".N c #e4e4e4",
".O c #d7d7e1",
".P c #7f85a7",
".Q c #8b9eb1",
".R c #f0f0f0",
".S c #ced0d4",
".T c #6894c3",
".U c #5e8cbe",
".V c #5381b6",
".W c #c1c1c1",
".X c #787f8a",
".Y c #66678d",
".Z c #efeff3",
".0 c #c5c5c5",
".1 c #9498b3",
".2 c #7b8aae",
".3 c #cfcfcf",
".4 c #667f9a",
".5 c #4b7db4",
".6 c #4276af",
".7 c #3e6ca2",
".8 c #909396",
"#` c #6c6f89",
"#. c #bdbed0",
"## c #ededed",
"#a c #8e8e8e",
"#b c #9899b3",
"#c c #7f8193",
"#d c #6076a1",
"#e c #516f9d",
"#f c #526c97",
"#g c #5d6b93",
"#h c #64658c",
"#i c #b3b3c7",
"#j c #f7f7f7",
"#k c #8d8d8d",
"#l c #a0a1ba",
"#m c #797a9b",
"#n c #7c7ea0",
"#o c #a9a9c0",
"#p c #eaeaef",
"#q c #e0e0e0",
"#r c #6b6b6b",
"#s c #434343",
"#t c #c2c2c2",
"#u c #6f6f6f",
"#v c #1f1f1f",
"#w c #181818",
"#x c #1c1c1c",
"#y c #d1d1d1",
"#z c #b2b2b2",
"#A c #898989",
"#B c #777777",
"#C c #000000",
"#D c #000000",
"#E c #000000",
"#F c #000000",
"#G c #000000",
"#H c #000000",
"#I c #000000",
"#J c #000000",
"#K c #000000",
"#L c #000000",
"#M c #000000",
"#N c #000000",
"#O c #000000",
"#P c #000000",
"#Q c #000000",
"#R c #000000",
"#S c #000000",
"#T c #000000",
"#U c #000000",
"#V c #000000",
"#W c #000000",
"#X c #000000",
"#Y c #000000",
"#Z c #000000",
"#0 c #000000",
"#1 c #000000",
"#2 c #000000",
"#3 c #000000",
"#4 c #000000",
"#5 c #000000",
"#6 c #000000",
"#7 c #000000",
"#8 c #000000",
"a` c #000000",
"a. c #000000",
"a# c #000000",
"aa c #000000",
"ab c #000000",
"ac c #000000",
"ad c #000000",
"ae c #000000",
"af c #000000",
"ag c #000000",
"ah c #000000",
"ai c #000000",
"aj c #000000",
"ak c #000000",
"al c #000000",
"am c #000000",
"an c #000000",
"ao c #000000",
"ap c #000000",
"aq c #000000",
"ar c #000000",
"as c #000000",
"at c #000000",
"au c #000000",
"av c #000000",
"aw c #000000",
"ax c #000000",
"ay c #000000",
"az c #000000",
"aA c #000000",
"aB c #000000",
"aC c #000000",
"aD c #000000",
"aE c #000000",
"aF c #000000",
"aG c #000000",
"aH c #000000",
"aI c #000000",
"aJ c #000000",
"aK c #000000",
"aL c #000000",
"aM c #000000",
"aN c #000000",
"aO c #000000",
"aP c #000000",
"aQ c #000000",
"aR c #000000",
"aS c #000000",
"aT c #000000",
"aU c #000000",
"aV c #000000",
"aW c #000000",
"aX c #000000",
"aY c #000000",
"aZ c #000000",
"a0 c #000000",
"a1 c #000000",
"a2 c #000000",
"a3 c #000000",
"a4 c #000000",
"a5 c #000000",
"a6 c #000000",
"a7 c #000000",
"a8 c #000000",
/* pixels */
"```.`#`a`b``````````````````````",
"```c`d`e`f`g`h``````````````````",
"```i`j`k`l`m`n`o`p`q````````````",
"```r`s`t`u`v`w`x`y`z`A`B````````",
"```C`D`E`F`G`H`I`J`K`L`M`N``````",
"```O`P`Q`R`S`T`U`V`W`X`Y`Z``````",
"```0`1`2`3`4`5`6`7`8.`...#.a````",
"``.b.c.d.e.f.g.h.i`R.j.k.l.m````",
"``.n.o.p.q.r.s.t.u.v.w.x.y.z.A``",
"``.B.C.D.E`R.F.G.H.I.J.K.L.M.N``",
"````.O.P.Q.R.S.T.U.V.W.X.Y.Z.0``",
"``````.1.2.3.4.5.6.7.8#`#.###a``",
"````````#b#c#d#e#f#g#h#i#j#k#k``",
"````````````#l#m#n#o#p#q#r#s.J``",
"``````````````````#t#u#v#w#x#y``",
"````````````````````````#z#A#B``"
};
