/* XPM */
static const char * md_dset_48_xpm[] = {
"48 48 356 2",
"  	c None",
". 	c #AB7DA6",
"+ 	c #A97BA5",
"@ 	c #A779A3",
"# 	c #A578A1",
"$ 	c #A376A0",
"% 	c #A1749E",
"& 	c #9F729D",
"* 	c #9D719B",
"= 	c #9B6F9A",
"- 	c #996D98",
"; 	c #986B97",
"> 	c #966A95",
", 	c #946893",
"' 	c #926692",
") 	c #906490",
"! 	c #8E638F",
"~ 	c #8C618D",
"{ 	c #8A5F8B",
"] 	c #885D8A",
"^ 	c #865C88",
"/ 	c #845A87",
"( 	c #825885",
"_ 	c #805684",
": 	c #7E5482",
"< 	c #7D5381",
"[ 	c #7B517F",
"} 	c #794F7D",
"| 	c #774D7C",
"1 	c #754C7A",
"2 	c #734A79",
"3 	c #714877",
"4 	c #6F4676",
"5 	c #6D4574",
"6 	c #6B4372",
"7 	c #694171",
"8 	c #673F6F",
"9 	c #653E6E",
"0 	c #643C6C",
"a 	c #623A6B",
"b 	c #603869",
"c 	c #5E3767",
"d 	c #AD80A8",
"e 	c #E4D5E2",
"f 	c #EBE0EB",
"g 	c #EBE1EA",
"h 	c #EBE0EA",
"i 	c #EAE0EA",
"j 	c #EAE0E9",
"k 	c #EADFE9",
"l 	c #E9DFE9",
"m 	c #E9DFE8",
"n 	c #E9DEE8",
"o 	c #E8DEE8",
"p 	c #E8DEE7",
"q 	c #E7DDE7",
"r 	c #E6DDE6",
"s 	c #E6DCE6",
"t 	c #E5DCE6",
"u 	c #E5DBE5",
"v 	c #E4DAE5",
"w 	c #E4DAE4",
"x 	c #E3DAE4",
"y 	c #E3D9E4",
"z 	c #E3D9E3",
"A 	c #E3D8E3",
"B 	c #AD96B1",
"C 	c #F7F3F7",
"D 	c #FFFFFF",
"E 	c #C7B5C9",
"F 	c #FCFCFC",
"G 	c #F0ECF0",
"H 	c #E3DBE4",
"I 	c #D5CAD7",
"J 	c #D3C8D5",
"K 	c #F5F2F6",
"L 	c #C6B4C8",
"M 	c #FDFDFD",
"N 	c #DED6E0",
"O 	c #B4A0B8",
"P 	c #9B809F",
"Q 	c #8D6E92",
"R 	c #826188",
"S 	c #816087",
"T 	c #DFD7E1",
"U 	c #B4A0B7",
"V 	c #8B6D91",
"W 	c #816187",
"X 	c #DED5E0",
"Y 	c #C6B3C8",
"Z 	c #FEFEFE",
"` 	c #CEC1D1",
" .	c #8D6F93",
"..	c #815F87",
"+.	c #DCD3DE",
"@.	c #C6B3C7",
"#.	c #9A809F",
"$.	c #826187",
"%.	c #977A9B",
"&.	c #EEEAEF",
"*.	c #C5B3C7",
"=.	c #F1EEF2",
"-.	c #AE98B2",
";.	c #8A6A8E",
">.	c #AC95B0",
",.	c #D1C4D2",
"'.	c #F4F0F4",
").	c #C5B2C6",
"!.	c #DED5DF",
"~.	c #88688D",
"{.	c #8E6F93",
"].	c #B8A4BB",
"^.	c #E1D9E2",
"/.	c #C4B2C6",
"(.	c #D2C6D3",
"_.	c #836389",
":.	c #8B6D90",
"<.	c #F8F6F8",
"[.	c #C4B3C6",
"}.	c #84638A",
"|.	c #FDFCFD",
"1.	c #CBBDCE",
"2.	c #A48BA8",
"3.	c #7F5D85",
"4.	c #C3B1C6",
"5.	c #89698E",
"6.	c #BBA9BE",
"7.	c #F9F7F9",
"8.	c #D9CEDB",
"9.	c #B6A3BA",
"0.	c #957899",
"a.	c #7D5A82",
"b.	c #75507B",
"c.	c #C3B1C5",
"d.	c #BAA8BD",
"e.	c #927596",
"f.	c #C8BACB",
"g.	c #FAF8FA",
"h.	c #FAFAFA",
"i.	c #D4C9D6",
"j.	c #A991AC",
"k.	c #805E85",
"l.	c #76517C",
"m.	c #C2B1C5",
"n.	c #D6CBD8",
"o.	c #DCD2DD",
"p.	c #AF9AB3",
"q.	c #805E86",
"r.	c #77527D",
"s.	c #C2B0C5",
"t.	c #ECE7ED",
"u.	c #87678C",
"v.	c #C6B6C8",
"w.	c #E4DCE5",
"x.	c #8C6D91",
"y.	c #C2B0C4",
"z.	c #967A9B",
"A.	c #AF99B3",
"B.	c #F2F0F3",
"C.	c #EFEAEF",
"D.	c #BEADC1",
"E.	c #927597",
"F.	c #815F86",
"G.	c #E2DAE3",
"H.	c #C1AFC4",
"I.	c #B09BB3",
"J.	c #E2DBE3",
"K.	c #A58CA9",
"L.	c #7C5982",
"M.	c #8E7093",
"N.	c #D2C5D4",
"O.	c #F0ECF1",
"P.	c #F4F2F5",
"Q.	c #C1AFC3",
"R.	c #E6DFE7",
"S.	c #9F86A4",
"T.	c #F7F5F8",
"U.	c #C1B1C4",
"V.	c #907295",
"W.	c #7E5C84",
"X.	c #77537D",
"Y.	c #F6F4F7",
"Z.	c #C0AEC3",
"`.	c #E4DCE6",
" +	c #B19CB4",
".+	c #85648B",
"++	c #7A5780",
"@+	c #7F5C84",
"#+	c #A188A5",
"$+	c #C9BACB",
"%+	c #F7F4F7",
"&+	c #E6E0E7",
"*+	c #A087A4",
"=+	c #7B5781",
"-+	c #78547E",
";+	c #75517B",
">+	c #B29EB5",
",+	c #977B9C",
"'+	c #BFAEC2",
")+	c #A38BA7",
"!+	c #9A7F9E",
"~+	c #D1C5D3",
"{+	c #DAD0DB",
"]+	c #BCABBF",
"^+	c #9F85A3",
"/+	c #E0D8E2",
"(+	c #B6A2B9",
"_+	c #EDE8ED",
":+	c #FBFAFB",
"<+	c #D8CEDA",
"[+	c #AE98B1",
"}+	c #8A6A8F",
"|+	c #BFADC2",
"1+	c #7D5B83",
"2+	c #CEC1D0",
"3+	c #F5F2F5",
"4+	c #CCBECE",
"5+	c #A289A6",
"6+	c #7B5881",
"7+	c #BEADC2",
"8+	c #89698D",
"9+	c #C6B7C9",
"0+	c #EBE6EC",
"a+	c #C1B0C3",
"b+	c #977B9B",
"c+	c #BEACC1",
"d+	c #DFD6E0",
"e+	c #E7E1E8",
"f+	c #8B6B90",
"g+	c #BDACC1",
"h+	c #F8F4F7",
"i+	c #BAA7BD",
"j+	c #BFADC1",
"k+	c #8D6F92",
"l+	c #B9A6BC",
"m+	c #E8E2E9",
"n+	c #FAF9FA",
"o+	c #FCFCFD",
"p+	c #BDABC0",
"q+	c #836288",
"r+	c #A38AA7",
"s+	c #C3B3C6",
"t+	c #FCFBFC",
"u+	c #BCABC0",
"v+	c #EEE8EE",
"w+	c #B39FB6",
"x+	c #B5A1B8",
"y+	c #AE99B2",
"z+	c #D5C9D7",
"A+	c #927496",
"B+	c #F3EFF3",
"C+	c #E1D9E3",
"D+	c #C8B9CA",
"E+	c #95789A",
"F+	c #A790AB",
"G+	c #7E5B83",
"H+	c #BCAABF",
"I+	c #B29DB5",
"J+	c #E5DEE6",
"K+	c #C4B4C7",
"L+	c #836188",
"M+	c #BBAABF",
"N+	c #AB94AF",
"O+	c #BEACC0",
"P+	c #9D82A1",
"Q+	c #7D5A83",
"R+	c #BBA9BF",
"S+	c #9A7F9F",
"T+	c #85648A",
"U+	c #CABCCC",
"V+	c #E7E0E8",
"W+	c #79557F",
"X+	c #BAA9BE",
"Y+	c #F7F3F6",
"Z+	c #9F86A3",
"`+	c #F5F3F6",
" @	c #D7CDD9",
".@	c #85658B",
"+@	c #BAA8BE",
"@@	c #F6F2F6",
"#@	c #D0C4D2",
"$@	c #7A5680",
"%@	c #EAE5EB",
"&@	c #D1C5D2",
"*@	c #CFC3D1",
"=@	c #A97CA5",
"-@	c #C8B0C7",
";@	c #C9B3C9",
">@	c #C8B3C8",
",@	c #C8B2C8",
"'@	c #C7B1C7",
")@	c #C6B0C6",
"!@	c #C5B0C6",
"~@	c #C4AFC5",
"{@	c #C4AEC5",
"]@	c #C3ADC4",
"^@	c #C2ADC3",
"/@	c #C1ACC2",
"(@	c #C0ABC2",
"_@	c #BFAAC1",
":@	c #BFAAC0",
"<@	c #BEA9C0",
"[@	c #BDA8BF",
"}@	c #BCA7BE",
"|@	c #BBA7BE",
"1@	c #BAA6BD",
"2@	c #BAA5BD",
"3@	c #B9A4BC",
"4@	c #B7A3BA",
"5@	c #B7A2BA",
"6@	c #B6A1B9",
"7@	c #B5A1B9",
"8@	c #B39FB7",
"9@	c #B29FB7",
"0@	c #B29EB6",
"a@	c #B19EB6",
"b@	c #B19DB5",
"c@	c #B09DB5",
"d@	c #B09CB5",
"e@	c #B09CB4",
"f@	c #8E7194",
"g@	c #5E3766",
"h@	c #A77AA3",
"i@	c #A3769F",
"j@	c #9F729E",
"k@	c #9E719C",
"l@	c #9C6F9A",
"m@	c #9A6D98",
"n@	c #986B98",
"o@	c #966B94",
"p@	c #946792",
"q@	c #926592",
"r@	c #906390",
"s@	c #8F638F",
"t@	c #8D628D",
"u@	c #8B608B",
"v@	c #895E8B",
"w@	c #855C89",
"x@	c #835A87",
"y@	c #815885",
"z@	c #805683",
"A@	c #7E5481",
"B@	c #7E5381",
"C@	c #7C5180",
"D@	c #7A4F7E",
"E@	c #764D7C",
"F@	c #744D7A",
"G@	c #72497A",
"H@	c #714776",
"I@	c #6F4576",
"J@	c #6B4472",
"K@	c #694271",
"L@	c #67406F",
"M@	c #653E6F",
"N@	c #633C6D",
"O@	c #60396A",
"                                                                                                ",
"                                                                                                ",
"                                                                                                ",
"        . + @ # $ % & * = - ; > , ' ) ! ~ { ] ^ / ( _ : < [ } | 1 2 3 4 5 6 7 8 9 0 a b c       ",
"      d . + @ # $ % & * = - ; > , ' ) ! ~ { ] ^ / ( _ : < [ } | 1 2 3 4 5 6 7 8 9 0 a b c       ",
"      d . + e f g g h i i j k l m m n o o p q q q r s s s t u u u v w w x y z z z A B b c       ",
"      d . + C D D D D D D D D D D D D D D D D D D D D D D D D D D D D D D D D D D D E b c       ",
"      d . + C D D D D D D D D D D D D D D D D D D D D D D D D D D D D F G H I J K D L b c       ",
"      d . + C D D D D D D D D D D D D D D D D D D D D D D D M N O P Q R S S S S T D L b c       ",
"      d . + C D D D D D D D D D D D D D D D D D D D D M N U V S S W S S S S S S X D Y b c       ",
"      d . + C D D D D D D D D D D D D D D D D D D Z `  .S S W S S S S S S S S ..+.D @.b c       ",
"      d . + C D D D D D D D D D D D D D D D D D H #.S $.S S S S S S S S S S R %.&.D *.b c       ",
"      d . + C D D D D D D D D D D D D D D D =.-.S S S S S S S S S S S ;.>.,.'.D D D ).b c       ",
"      d . + C D D D D D D D D D D D D D D !.~.S S S S S S S S S {.].^.M D D D D D D /.b c       ",
"      d . + C D D D D D D D D D D D D D (._.R S S S S S S :.O T Z D D D D D D Z <.D /.b c       ",
"      d . + C D D D D D D D D D D D D [.W R S S S S }.-.+.|.D D D D D D G 1.2.3.+.D 4.b c       ",
"      d . + C D D D D D D D D D D M O S R S S S 5.6.=.D D D D D 7.8.9.0.a.b.b.b.+.D c.b c       ",
"      d . + C D D D D D D D D D D d.S S S S e.f.g.D D D D h.i.j.}.S S k.l.b.b.b.+.D m.b c       ",
"      d . + C D D D D D D D D D n.S W S 0.I M D D D M o.p.~.S S S S q.r.b.b.b.b.+.D s.b c       ",
"      d . + C D D D D D D D D t.u.R ~.v.F D D D w.9.x.S S S S S S q.r.b.b.b.b.b.+.D y.b c       ",
"      d . + C D D D D D D D g.z.R A.B.D D C.D.E.S S S S S S S S q.r.b.b.b.b.b.F.G.D H.b c       ",
"      d . + C D D D D D D D I.z.J.D M 8.K.R S S S S S S S S S L.l.b.l.M.I.N.O.D P.D Q.b c       ",
"      d . + C D D D D D D R.S.T.'.U.V.S S S S S S S S S S W.X.M.O n.Y.D D D D D Y.D Z.b c       ",
"      d . + C D D D D D D U.`. +.+S S S S S S S 3.a.++@+#+$+O.D D D D D D D D D <.D Z.b c       ",
"      d . + %+D D D D D &+*+S S S S S S F.=+-+;+F.>+o.F D D D D D D D D C.N.O ,+!.D '+b c       ",
"      d . + %+D D D D D )+S S S S S ..L.l.l.!+~+F D D D D D D Y.{+]+^+S b.b.b.b.+.D '+b c       ",
"      d . + %+D D D D /+S S S S S @+r.S (+_+D D D D D :+<+[+}+l.b.b.b.b.b.b.b.b.+.D |+b c       ",
"      d . + %+D D D D >.S S S S 1+~.2+F D D D D 3+4+5+6+b.b.b.b.b.b.b.b.b.b.b.b.+.D 7+b c       ",
"      d . + %+D D D F 8+S S S ;.9+F D D D 0+a+b+r.b.b.b.b.b.b.b.b.b.b.b.b.b.b.b.+.D c+b c       ",
"      d . + %+D D D d+S S ;.a+g.D D e+9.f+b.b.b.b.b.b.b.b.b.b.b.b.b.b.b.b.b.b.l.T D g+b c       ",
"      d . + h+D D D i+S 2.Y.D C.j+k+b.b.b.b.b.b.b.b.b.b.b.b.b.b.b.l.~.*+l+N.m+n+o+D p+b c       ",
"      d . + C D D D 0.9.7.4+b+l.b.b.b.b.b.b.b.b.b.b.b.b.b.q+r+s+^.7.D D D D D D t+D u+b c       ",
"      d . + C D D v+w+x+W.b.b.b.b.b.b.b.b.b.b.b.b.Q y+2+&.D D D D D D D D D D D :+D u+b c       ",
"      d . + C D D z+S -+b.b.b.b.b.b.b.b.b.b.A+'+t.D D D D D D D D D D B+!.$+U ^+C+D ]+b c       ",
"      d . + C D D D+a.b.b.b.b.b.b.b.l.E+m.C.D D D D D D D t.N.]+F+E.G+b.b.b.b.b.+.D H+b c       ",
"      d . + C D D 6.l.b.b.b.b.b.6+I+&.D D D D D Z J+K+2.L+b.b.b.b.b.b.b.b.b.b.b.+.D M+b c       ",
"      d . + C D D N+b.b.b.b.L+O+Y.D D D :+!.p+P+Q+b.b.b.b.b.b.b.b.b.b.b.b.b.b.b.+.D R+b c       ",
"      d . + C D D S+b.b.T+U+t+D D V+D.z.W+b.b.b.b.b.b.b.b.b.b.b.b.b.b.b.b.b.b.b.+.D X+b c       ",
"      d . + Y+D D k+b.Z+`+:+ @y+.@b.b.b.b.b.b.b.b.b.b.b.b.b.b.b.b.b.b.b.b.b.b.b.+.D +@b c       ",
"      d . + @@D D q+]+#@K.L.b.b.b.b.b.b.b.b.b.b.b.b.b.b.b.b.b.b.b.b.b.b.b.b.b.$@%@D +@b c       ",
"      d . + @@D D I &@*@*@*@*@*@*@*@*@*@*@*@*@*@*@*@*@*@*@*@*@*@*@*@*@*@*@*@*@R.D D +@b c       ",
"      d . =@3+D D D D D D D D D D D D D D D D D D D D D D D D D D D D D D D D D D D +@b c       ",
"      d . + -@;@>@,@'@)@!@~@{@]@^@/@(@_@:@<@[@}@|@1@2@3@].4@5@6@7@O 8@9@0@a@b@c@d@e@f@b c       ",
"      d . + @ # $ % & * = - ; > , ' ) ! ~ { ] ^ / ( _ : < [ } | 1 2 3 4 5 6 7 8 9 0 a b c       ",
"        . + @ # $ % & * = - ; > , ' ) ! ~ { ] ^ / ( _ : < [ } | 1 2 3 4 5 6 7 8 9 0 a b g@      ",
"          =@h@# i@% j@k@l@m@n@o@p@q@r@s@t@u@v@w@x@y@z@A@B@C@D@E@F@G@H@I@5 J@K@L@M@N@a O@        ",
"                                                                                                ",
"                                                                                                "};
