/* XPM */
static const char * md_dset_16_xpm[] = {
"16 16 135 2",
"  	c None",
". 	c #AB7DA6",
"+ 	c #BD9CBA",
"@ 	c #BB9AB9",
"# 	c #B797B6",
"$ 	c #B394B3",
"% 	c #AF90B0",
"& 	c #AB8CAC",
"* 	c #A889AA",
"= 	c #A587A7",
"- 	c #A082A4",
"; 	c #9D7FA0",
"> 	c #987C9D",
", 	c #95789A",
"' 	c #6A4472",
") 	c #FCFAFC",
"! 	c #F6F1F6",
"~ 	c #F5F0F5",
"{ 	c #E4DBE5",
"] 	c #C6B5C8",
"^ 	c #E4DCE4",
"/ 	c #83638A",
"( 	c #FBF8FA",
"_ 	c #FFFFFF",
": 	c #E3DCE4",
"< 	c #9F84A2",
"[ 	c #947798",
"} 	c #8C6E92",
"| 	c #816087",
"1 	c #C4B3C6",
"2 	c #FAF8FA",
"3 	c #FEFEFE",
"4 	c #BBA9BE",
"5 	c #8E7094",
"6 	c #826188",
"7 	c #9F86A4",
"8 	c #CABCCC",
"9 	c #EEEAEE",
"0 	c #F4F1F4",
"a 	c #82628A",
"b 	c #F7F5F8",
"c 	c #9E83A1",
"d 	c #8F7194",
"e 	c #BEADC1",
"f 	c #F0EDF1",
"g 	c #E1D9E2",
"h 	c #BBAABF",
"i 	c #937597",
"j 	c #BCA9BE",
"k 	c #826289",
"l 	c #AD97B1",
"m 	c #E7E1E8",
"n 	c #BDACC0",
"o 	c #917395",
"p 	c #79557F",
"q 	c #75507B",
"r 	c #826189",
"s 	c #FAF9FA",
"t 	c #C8B9CA",
"u 	c #9F85A3",
"v 	c #805E86",
"w 	c #8C6D91",
"x 	c #AE99B1",
"y 	c #CFC3D1",
"z 	c #F0ECF1",
"A 	c #E2DAE3",
"B 	c #FCFBFC",
"C 	c #9A7F9F",
"D 	c #815F86",
"E 	c #84638A",
"F 	c #B19CB5",
"G 	c #E5DEE6",
"H 	c #F1EDF2",
"I 	c #CEC1D0",
"J 	c #B19CB4",
"K 	c #947899",
"L 	c #BCAABE",
"M 	c #816188",
"N 	c #DCD3DE",
"O 	c #8D6E93",
"P 	c #C0AFC3",
"Q 	c #E2DBE4",
"R 	c #BDABC0",
"S 	c #927597",
"T 	c #76517C",
"U 	c #BAA7BC",
"V 	c #AA7DA6",
"W 	c #FAF8F9",
"X 	c #C2B3C5",
"Y 	c #B5A1B8",
"Z 	c #8D6E92",
"` 	c #7E5B83",
" .	c #9E83A2",
"..	c #BEACC0",
"+.	c #D8CEDA",
"@.	c #E6DFE6",
"#.	c #806087",
"$.	c #AA7CA5",
"%.	c #A086A4",
"&.	c #7C5982",
"*.	c #AE98B1",
"=.	c #DBD1DC",
"-.	c #D7CCD9",
";.	c #BCABBF",
">.	c #A78FAB",
",.	c #917496",
"'.	c #7F5F86",
").	c #F9F7F9",
"!.	c #8F7294",
"~.	c #B7A4BA",
"{.	c #CDC0CF",
"].	c #8C6E91",
"^.	c #B8A5BA",
"/.	c #A97CA5",
"(.	c #FBFAFB",
"_.	c #C1AFC3",
":.	c #B4A1B8",
"<.	c #B19DB5",
"[.	c #B09CB5",
"}.	c #B09CB4",
"|.	c #E5DFE6",
"1.	c #A97BA5",
"2.	c #B08AAC",
"3.	c #AB86AA",
"4.	c #A682A6",
"5.	c #A27EA1",
"6.	c #9D799F",
"7.	c #98749B",
"8.	c #937197",
"9.	c #906D93",
"0.	c #8B688F",
"a.	c #86648C",
"b.	c #826088",
"c.	c #7E5D85",
"d.	c #643E6D",
"                                ",
"  . + @ # $ % & * = - ; > , '   ",
"  . ) ! ! ! ! ! ! ! ~ { ] ^ /   ",
"  . ( _ _ _ _ _ : < [ } | 1 /   ",
"  . 2 _ _ _ 3 4 5 6 7 8 9 0 a   ",
"  . 2 _ _ b c d e f g h i j k   ",
"  . 2 _ _ l 1 m n o | p q j r   ",
"  . s _ : t u | v w x y z A 6   ",
"  . s B C D E F G H I J K L M   ",
"  . 2 N O P Q R S T q q q U |   ",
"  V W X Y Z q q `  ...+.z @.#.  ",
"  $.2 %.q &.*.=.0 -.;.>.,.j '.  ",
"  $.).!.~.{.l ].T q q q q ^.'.  ",
"  /.(._.:.<.F F F F [.[.}.|.'.  ",
"  1.2.3.4.5.6.7.8.9.0.a.b.c.d.  ",
"                                "};
