/* XPM */
static const char *metadata_16_xpm[] = {
/* columns rows colors chars-per-pixel */
"16 16 61 1",
"  c #FF6600",
". c #FE6601",
"X c #FE6703",
"o c #FE6704",
"O c #FE6805",
"+ c #FE6B08",
"@ c #FE6B0A",
"# c #FE6C0B",
"$ c #FE6C0C",
"% c #FE7113",
"& c #FE7214",
"* c #FE7215",
"= c #FE7417",
"- c #FE7318",
"; c #FE761B",
": c #FE761C",
"> c #FE7A22",
", c #FE7A23",
"< c #FE7D27",
"1 c #FE7F2B",
"2 c #FE802C",
"3 c #FE822F",
"4 c #FE8432",
"5 c #FE8433",
"6 c #FE8534",
"7 c #FE8737",
"8 c #FE8A3D",
"9 c #FE9149",
"0 c #FE954F",
"q c #FE9A57",
"w c #FE9A58",
"e c #FE9B5A",
"r c #FE9C5A",
"t c #FEA468",
"y c #FEA56A",
"u c #FEA76D",
"i c #FEAA71",
"p c #FEAB73",
"a c #FEAC75",
"s c #FEAD76",
"d c #FEAF7A",
"f c #FEB07C",
"g c #FEB98B",
"h c #FEBA8D",
"j c #FEBC90",
"k c #FEC29A",
"l c #FEC39B",
"z c #FEC7A3",
"x c #FECBA8",
"c c #FECDAC",
"v c #FECEAD",
"b c #FECFAF",
"n c #FED5B9",
"m c #FEE0CC",
"M c #FEE3D1",
"N c #FEEEE2",
"B c #FEEFE5",
"V c #FEF6EF",
"C c #FEF6F0",
"Z c #FEF8F3",
"A c #FEFEFE",
/* pixels */
"    ........    ",
"    -0.gg.0=..  ",
"    8z =-.z8... ",
"  dy.>9pp9>.yd. ",
"  619wj33jw916..",
" y$on6amms6no$y.",
"$c:c6hAAAAj6c:c@",
"...w>VAAAAC:w...",
"6l;M3ZAAAAZ1N=k4",
":r.9<cAAAAb<9 w;",
".$=yk=xCCx=ly-@ ",
".uc 6M=>,=M6.cu ",
".o@#=4dkkf5-@@. ",
"   hj.@..@.jh.  ",
"   Oo#N33B$oo.  ",
"    ..>..>..    "
};
