/* XPM */
static const char * mi_dset_16_xpm[] = {
"16 16 123 2",
"  	c None",
". 	c #C07C11",
"+ 	c #CE9D50",
"@ 	c #CD9D52",
"# 	c #CA9C51",
"$ 	c #C89A50",
"% 	c #C69850",
"& 	c #C39750",
"* 	c #C1954F",
"= 	c #BF934E",
"- 	c #BD924D",
"; 	c #BA8F4D",
"> 	c #B78F4C",
", 	c #B68D4B",
"' 	c #976410",
") 	c #FDFAF7",
"! 	c #F9F1E6",
"~ 	c #F9F0E5",
"{ 	c #F0DFC5",
"] 	c #E2C28F",
"^ 	c #F1E1C9",
"/ 	c #A97D35",
"( 	c #FCF8F3",
"_ 	c #FFFFFF",
": 	c #F1E2CA",
"< 	c #CF9B48",
"[ 	c #CA9033",
"} 	c #C78926",
"| 	c #C17D12",
"1 	c #E2C493",
"2 	c #FFFEFE",
"3 	c #DEB97F",
"4 	c #C88B2A",
"5 	c #C17E12",
"6 	c #D09C4A",
"7 	c #E5C89A",
"8 	c #F7EEDF",
"9 	c #FAF4EC",
"0 	c #FBF7F0",
"a 	c #CF9A46",
"b 	c #DFBC85",
"c 	c #F8F0E4",
"d 	c #F0E0C6",
"e 	c #DEBA80",
"f 	c #CD9741",
"g 	c #DFBE88",
"h 	c #A87D35",
"i 	c #D7AB64",
"j 	c #E2C18E",
"k 	c #F3E7D2",
"l 	c #DFBB83",
"m 	c #C98D2E",
"n 	c #C17D11",
"o 	c #E0BF89",
"p 	c #A87C35",
"q 	c #E4C696",
"r 	c #D09C49",
"s 	c #C88C2C",
"t 	c #DAB271",
"u 	c #EAD2AD",
"v 	c #F8F1E5",
"w 	c #F2E3CC",
"x 	c #A87C34",
"y 	c #FEFCF9",
"z 	c #CD963F",
"A 	c #C5851F",
"B 	c #DBB476",
"C 	c #F9F2E7",
"D 	c #E9D1AB",
"E 	c #DCB679",
"F 	c #CF9B47",
"G 	c #E0BE8A",
"H 	c #A77C34",
"I 	c #FBF8F3",
"J 	c #EEDBBE",
"K 	c #F2E4CE",
"L 	c #E1C18D",
"M 	c #CE9943",
"N 	c #DEBD86",
"O 	c #E1C18C",
"P 	c #DDB77B",
"Q 	c #CC933A",
"R 	c #C58520",
"S 	c #D3A357",
"T 	c #EDDABC",
"U 	c #F3E7D3",
"V 	c #A77B34",
"W 	c #BF7C11",
"X 	c #D2A151",
"Y 	c #C4841D",
"Z 	c #DBB373",
"` 	c #EFDDC0",
" .	c #FAF4EB",
"..	c #EDD9BA",
"+.	c #E1C08C",
"@.	c #D7AC67",
"#.	c #CE9842",
"$.	c #E0BE8B",
"%.	c #BF7B11",
"&.	c #FBF8F2",
"*.	c #CC963D",
"=.	c #E9D0A9",
"-.	c #DAB272",
";.	c #CB9339",
">.	c #DEBB85",
",.	c #FCFBF7",
"'.	c #E2C392",
").	c #DCB579",
"!.	c #DBB579",
"~.	c #F2E7D3",
"{.	c #C48C34",
"].	c #C18C35",
"^.	c #BF8934",
"/.	c #BB8833",
"(.	c #B98532",
"_.	c #B68332",
":.	c #B48131",
"<.	c #B17F30",
"[.	c #AE7E2F",
"}.	c #AB7B2E",
"|.	c #A8792E",
"1.	c #A6772D",
"2.	c #94600A",
"                                ",
"  . + @ # $ % & * = - ; > , '   ",
"  . ) ! ! ! ! ! ! ! ~ { ] ^ /   ",
"  . ( _ _ _ _ _ : < [ } | 1 /   ",
"  . ( _ _ _ 2 3 4 5 6 7 8 9 /   ",
"  . ( _ _ 0 a 4 b c d e f g h   ",
"  . ( _ _ i j k l m n n n o p   ",
"  . ( _ : q r n n s t u v w x   ",
"  . ( y z n A B k C D E F G H   ",
"  . I J } ] K L M 5 n n n N H   ",
"  . I O P Q n n R S j T v U V   ",
"  W I X n Y Z `  ...+.@.#.$.V   ",
"  %.&.*.l =.-.;.5 n n n n >.V   ",
"  %.,.'.3 ).).).!.!.!.!.!.~.V   ",
"  %.{.].^./.(._.:.<.[.}.|.1.2.  ",
"                                "};
