/* XPM */
static const char * mi_dset_48_xpm[] = {
"48 48 305 2",
"  	c None",
". 	c #C07C11",
"+ 	c #BE7B10",
"@ 	c #BD7A10",
"# 	c #BC7910",
"$ 	c #BB790F",
"% 	c #BA780F",
"& 	c #B8770E",
"* 	c #B7760E",
"= 	c #B6750E",
"- 	c #B5740D",
"; 	c #B4730D",
"> 	c #B3730D",
", 	c #B1720C",
"' 	c #B0710C",
") 	c #AF700C",
"! 	c #AE6F0B",
"~ 	c #AD6E0B",
"{ 	c #AB6D0B",
"] 	c #AA6D0A",
"^ 	c #A96C0A",
"/ 	c #A86B09",
"( 	c #A76A09",
"_ 	c #A56909",
": 	c #A46808",
"< 	c #A36708",
"[ 	c #A26708",
"} 	c #A16607",
"| 	c #A06507",
"1 	c #9E6407",
"2 	c #9D6306",
"3 	c #9C6206",
"4 	c #9B6106",
"5 	c #9A6105",
"6 	c #986005",
"7 	c #975F04",
"8 	c #965E04",
"9 	c #955D04",
"0 	c #945C03",
"a 	c #925B03",
"b 	c #915B03",
"c 	c #905A02",
"d 	c #C17C11",
"e 	c #EAD5B3",
"f 	c #F0E1C8",
"g 	c #F0E1C9",
"h 	c #EFE0C9",
"i 	c #EFE0C8",
"j 	c #EEE0C8",
"k 	c #EEDFC8",
"l 	c #EDDFC8",
"m 	c #EDDEC8",
"n 	c #ECDEC8",
"o 	c #ECDEC7",
"p 	c #EBDEC7",
"q 	c #EBDDC7",
"r 	c #C5A572",
"s 	c #F9F3EA",
"t 	c #FFFFFF",
"u 	c #D7BD93",
"v 	c #FEFCFA",
"w 	c #F8F0E3",
"x 	c #F1E1C9",
"y 	c #EAD4B0",
"z 	c #EAD2AD",
"A 	c #FAF5EC",
"B 	c #FEFDFC",
"C 	c #EFDDC1",
"D 	c #DAB272",
"E 	c #CD9741",
"F 	c #C78927",
"G 	c #C17E13",
"H 	c #C17D11",
"I 	c #EFDEC3",
"J 	c #DAB271",
"K 	c #C68825",
"L 	c #C17D12",
"M 	c #FFFEFD",
"N 	c #E7CDA3",
"O 	c #C78928",
"P 	c #D6BC93",
"Q 	c #CD9740",
"R 	c #C17E12",
"S 	c #F7EFE3",
"T 	c #F8F1E6",
"U 	c #D7AB66",
"V 	c #C58520",
"W 	c #D6A961",
"X 	c #E8CFA6",
"Y 	c #EFDDC0",
"Z 	c #C4841D",
"` 	c #C78A28",
" .	c #DCB578",
"..	c #F0E0C6",
"+.	c #E9D0A9",
"@.	c #C27F15",
"#.	c #C68724",
"$.	c #FCF8F3",
"%.	c #D5BC93",
"&.	c #E2C18E",
"*.	c #C28016",
"=.	c #D7AB65",
"-.	c #EEDBBE",
";.	c #FEFDFB",
">.	c #C68723",
",.	c #C5851F",
"'.	c #DDB97E",
").	c #F8F1E5",
"!.	c #ECD7B6",
"~.	c #DBB476",
"{.	c #CA9135",
"].	c #D5BB93",
"^.	c #DDB87C",
"/.	c #C98E30",
"(.	c #E4C697",
"_.	c #FCF9F4",
":.	c #FDFAF7",
"<.	c #EAD3AF",
"[.	c #D4A55B",
"}.	c #C28017",
"|.	c #D4BB93",
"1.	c #EBD5B2",
"2.	c #EEDBBD",
"3.	c #D8AC68",
"4.	c #F9F4EA",
"5.	c #F6ECDC",
"6.	c #C4831C",
"7.	c #E3C392",
"8.	c #F1E2CB",
"9.	c #C68826",
"0.	c #FCF9F5",
"a.	c #CB9339",
"b.	c #D7AC67",
"c.	c #F9F2E8",
"d.	c #F7EEDF",
"e.	c #DFBC85",
"f.	c #C98E31",
"g.	c #F2E3CD",
"h.	c #D8AD69",
"i.	c #CB9238",
"j.	c #F1E1C8",
"k.	c #D3A254",
"l.	c #CC953D",
"m.	c #DCB577",
"n.	c #EBD4B1",
"o.	c #FAF5ED",
"p.	c #D3BA93",
"q.	c #F3E5CF",
"r.	c #D09C4A",
"s.	c #FBF7F0",
"t.	c #E1BF8A",
"u.	c #C88C2C",
"v.	c #EDD8B8",
"w.	c #D3BA92",
"x.	c #FAF4EA",
"y.	c #E1C08A",
"z.	c #F2E3CC",
"A.	c #D8AE6B",
"B.	c #C38118",
"C.	c #D5A75E",
"D.	c #E7CCA2",
"E.	c #FCF8F2",
"F.	c #FAF4EB",
"G.	c #F3E5D1",
"H.	c #D09D4B",
"I.	c #DCB77A",
"J.	c #EFDEC2",
"K.	c #D09D4C",
"L.	c #F0DFC6",
"M.	c #F9F4EB",
"N.	c #D2A050",
"O.	c #EEDCBF",
"P.	c #E1C08C",
"Q.	c #D4A459",
"R.	c #C78926",
"S.	c #D2BA92",
"T.	c #F0DFC5",
"U.	c #DEBA81",
"V.	c #FDFBF8",
"W.	c #EDDABC",
"X.	c #DBB373",
"Y.	c #CA9034",
"Z.	c #D2B992",
"`.	c #CA8F32",
" +	c #E9D1AA",
".+	c #E8CFA7",
"++	c #C4841E",
"@+	c #E5C99D",
"#+	c #E3C494",
"$+	c #C27F14",
"%+	c #FDFAF6",
"&+	c #F4E9D6",
"*+	c #DEBB82",
"=+	c #CB9136",
"-+	c #D1B992",
";+	c #DDB77B",
">+	c #D2A152",
",+	c #FBF6EE",
"'+	c #E2C290",
")+	c #CC943B",
"!+	c #D4A65C",
"~+	c #DFBD86",
"{+	c #F5EAD8",
"]+	c #DBB475",
"^+	c #C78A29",
"/+	c #D6A860",
"(+	c #FDFCF9",
"_+	c #D1B892",
":+	c #F6EDDD",
"<+	c #D9B06E",
"[+	c #CC933A",
"}+	c #DBB374",
"|+	c #E9D1AB",
"1+	c #F7EFE2",
"2+	c #D0B892",
"3+	c #EAD4AF",
"4+	c #CE9842",
"5+	c #E2C391",
"6+	c #F6EDDE",
"7+	c #DDB87D",
"8+	c #F1E3CB",
"9+	c #D0B891",
"0+	c #F9F3EB",
"a+	c #E4C696",
"b+	c #CF9B48",
"c+	c #E4C596",
"d+	c #CE9943",
"e+	c #DEB97F",
"f+	c #DCB67A",
"g+	c #F3E7D2",
"h+	c #E4C799",
"i+	c #E1C18D",
"j+	c #D3A255",
"k+	c #D2A051",
"l+	c #E7CDA4",
"m+	c #FEFCF9",
"n+	c #F4E8D5",
"o+	c #E2C28F",
"p+	c #D4A55A",
"q+	c #EDDABB",
"r+	c #C88C2D",
"s+	c #CFB791",
"t+	c #D6AA63",
"u+	c #C38219",
"v+	c #BE7B11",
"w+	c #ECD8B8",
"x+	c #EBD3B0",
"y+	c #F4E7D3",
"z+	c #BE7C11",
"A+	c #F8F3EA",
"B+	c #D7B47C",
"C+	c #D8B886",
"D+	c #D7B886",
"E+	c #D6B785",
"F+	c #D5B785",
"G+	c #D5B685",
"H+	c #D4B685",
"I+	c #D3B584",
"J+	c #D3B484",
"K+	c #D2B484",
"L+	c #D1B384",
"M+	c #D1B383",
"N+	c #D0B383",
"O+	c #D0B283",
"P+	c #CFB283",
"Q+	c #CEB183",
"R+	c #CDB183",
"S+	c #CDB082",
"T+	c #CCB082",
"U+	c #CCAF82",
"V+	c #CBAF82",
"W+	c #CAAE82",
"X+	c #CAAE81",
"Y+	c #C9AE81",
"Z+	c #C9AD81",
"`+	c #C8AD81",
" @	c #B0894A",
".@	c #BD7C11",
"+@	c #BD7A11",
"@@	c #BC7A11",
"#@	c #BC7A0F",
"$@	c #B8760D",
"%@	c #B6740D",
"&@	c #B4720D",
"*@	c #B2720D",
"=@	c #B0720B",
"-@	c #B0710B",
";@	c #AE710B",
">@	c #AD6F0B",
",@	c #AB6D09",
"'@	c #A96D09",
")@	c #A96B09",
"!@	c #A76B09",
"~@	c #A16708",
"{@	c #A16508",
"]@	c #9F6508",
"^@	c #9E6308",
"/@	c #9E6306",
"(@	c #9A6206",
"_@	c #986006",
":@	c #986004",
"<@	c #945E04",
"[@	c #945C04",
"}@	c #925C04",
"|@	c #915B04",
"                                                                                                ",
"                                                                                                ",
"                                                                                                ",
"        . + @ # $ % & * = - ; > , ' ) ! ~ { ] ^ / ( _ : < [ } | 1 2 3 4 5 6 7 8 9 0 a b c       ",
"      d . + @ # $ % & * = - ; > , ' ) ! ~ { ] ^ / ( _ : < [ } | 1 2 3 4 5 6 7 8 9 0 a b c       ",
"      d . + e f g g g g h h h h i i j j k k k k l l l l l l m n n o o o o p q q q q r b c       ",
"      d . + s t t t t t t t t t t t t t t t t t t t t t t t t t t t t t t t t t t t u b c       ",
"      d . + s t t t t t t t t t t t t t t t t t t t t t t t t t t t t v w x y z A t u b c       ",
"      d . + s t t t t t t t t t t t t t t t t t t t t t t t B C D E F G H H H H I t u b c       ",
"      d . + s t t t t t t t t t t t t t t t t t t t t B C J K H H L H H H H H H I t u b c       ",
"      d . + s t t t t t t t t t t t t t t t t t t M N O H H L H H H H H H H H H I t P b c       ",
"      d . + s t t t t t t t t t t t t t t t t t x Q H L H H H H H H H H H H R E S t P b c       ",
"      d . + s t t t t t t t t t t t t t t t T U H H H H H H H H H H H V W X s t t t P b c       ",
"      d . + s t t t t t t t t t t t t t t Y Z H H H H H H H H H `  ...B t t t t t t P b c       ",
"      d . + s t t t t t t t t t t t t t +.@.R H H H H H H #.D I M t t t t t t M $.t %.b c       ",
"      d . + s t t t t t t t t t t t t &.L R H H H H *.=.-.;.t t t t t t w N W >.I t %.b c       ",
"      d . + s t t t t t t t t t t B D H R H H H ,.'.).t t t t t $.!.~.{.H H H H I t ].b c       ",
"      d . + s t t t t t t t t t t ^.H H H H /.(._.t t t t :.<.[.}.H H H H H H H I t |.b c       ",
"      d . + s t t t t t t t t t 1.H L H {.y B t t t B 2.3.Z H H H H H H H H H H I t |.b c       ",
"      d . + 4.t t t t t t t t 5.6.R Z 7.v t t t 8.~.9.H H H H H H H H H H H H H I t |.b c       ",
"      d . + 4.t t t t t t t 0.a.R b.c.t t d.e.f.H H H H H H H H H H H H H H H 9.g.t |.b c       ",
"      d . + 4.t t t t t t t h.i.j.t B !.k.R H H H H H H H H H H H H G l.m.n.T t o.t p.b c       ",
"      d . + 4.t t t t t t q.r.s.s t.u.H H H H H H H H H H H H l.'.v.s.t t t t t s.t w.b c       ",
"      d . + x.t t t t t t y.z.A.B.H H H H H H H H H H Z C.D.T t t t t t t t t t E.t w.b c       ",
"      d . + F.t t t t t G.H.H H H H H H H H H H 9.I.J.v t t t t t t t t w n.'.K.L.t w.b c       ",
"      d . + M.t t t t t N.H H H H H H H H R N.y v t t t t t t s.O.P.Q.R.H H H H I t S.b c       ",
"      d . + M.t t t t T.H H H H H H H R.U.d.t t t t t V.W.X.Y.R H H H H H H H H I t Z.b c       ",
"      d . + M.t t t t W H H H H H `. +v t t t t o..+C.6.H H H H H H H H H H H H I t Z.b c       ",
"      d . + M.t t t v ++L H H ` @+v t t t 5.#+H.$+H H H H H H H H H H H H H H H I t Z.b c       ",
"      d . + M.t t t J.H H V &.%+t t &+*+=+H H H H H H H H H H H H H H H H H H R f t -+b c       ",
"      d . + M.t t t ;+H >+,+t w '+)+H H H H H H H H H H H H H H H R `.!+~+n.{+:.;.t -+b c       ",
"      d . + M.t t t {.]+$..+H.R H H H H H H H H H H H H H ^+/+(.8.0.t t t t t t (+t _+b c       ",
"      d . + M.t t :+<+]+,.H H H H H H H H H H H H [+}+|+1+t t t t t t t t t t t V.t 2+b c       ",
"      d . + M.t t 3+H H H H H H H H H H H H 4+5+6+t t t t t t t t t t s ..D.7+Q.8+t 9+b c       ",
"      d . + 0+t t a+H H H H H H H H R b+c+w t t t t t t t 6+n.P.3.d+V H H H H H I t 9+b c       ",
"      d . + M.t t e+H H H H H H 6.f+1+t t t t t M g+h+W ` H H H H H H H H H H H I t 9+b c       ",
"      d . + 0+t t h.H H H H ` &.s.t t t V...i+j+,.H H H H H H H H H H H H H H H I t 9+b c       ",
"      d . + 0+t t k+H H u.l+m+t t n+o+r.B.H H H H H H H H H H H H H H H H H H H I t 9+b c       ",
"      d . + 0+t t )+H p+,+V.q+}+r+H H H H H H H H H H H H H H H H H H H H H H H I t s+b c       ",
"      d . + 0+t t ^+P.<.t+Z H H H H H H H H H H H H H H H H H H H H H H H H H u+5.t s+b c       ",
"      d . v+0+t t w+x+z z z z z z z z z z z z z z z z z z z z z z z z z z z z y+t t s+b c       ",
"      d . z+A+t t t t t t t t t t t t t t t t t t t t t t t t t t t t t t t t t t t s+b c       ",
"      d . v+B+C+C+D+E+E+F+G+G+H+I+I+J+K+K+L+M+N+O+P+P+Q+Q+R+S+T+U+V+V+W+X+Y+Y+Z+Z+`+ @b c       ",
"      d . + @ # $ % & * = - ; > , ' ) ! ~ { ] ^ / ( _ : < [ } | 1 2 3 4 5 6 7 8 9 0 a b c       ",
"        . + @ # $ % & * = - ; > , ' ) ! ~ { ] ^ / ( _ : < [ } | 1 2 3 4 5 6 7 8 9 0 a b c       ",
"          .@+@@@#@% $@$@%@%@&@*@=@-@;@! >@{ ,@'@)@!@_ < < ~@{@]@^@/@3 3 (@_@:@8 <@[@}@|@        ",
"                                                                                                ",
"                                                                                                "};
