/* XPM */
static const char *mi_wor_48_xpm[] = {
"48 48 379 2",
"  	c None",
". 	c #C07D11",
"+ 	c #BF7B10",
"@ 	c #BD7A10",
"# 	c #BC790F",
"$ 	c #BA780F",
"% 	c #B9770F",
"& 	c #B7760E",
"* 	c #B6750E",
"= 	c #B4740D",
"- 	c #B3730D",
"; 	c #B2720C",
"> 	c #B0710C",
", 	c #AF700B",
"' 	c #AD6F0B",
") 	c #AC6E0B",
"! 	c #AA6D0A",
"~ 	c #A96B0A",
"{ 	c #A76A09",
"] 	c #A66909",
"^ 	c #A46808",
"/ 	c #A36708",
"( 	c #A16607",
"_ 	c #A06507",
": 	c #9E6407",
"< 	c #9D6306",
"[ 	c #9B6206",
"} 	c #9A6105",
"| 	c #986005",
"1 	c #975F04",
"2 	c #965E04",
"3 	c #945D04",
"4 	c #935C03",
"5 	c #915B03",
"6 	c #915802",
"7 	c #C07C11",
"8 	c #C58B2E",
"9 	c #C79139",
"0 	c #C79039",
"a 	c #C68F39",
"b 	c #C48E38",
"c 	c #C38D38",
"d 	c #C18C37",
"e 	c #C18B37",
"f 	c #C08B37",
"g 	c #BE8A37",
"h 	c #BD8936",
"i 	c #BC8836",
"j 	c #BB8736",
"k 	c #B98635",
"l 	c #B88535",
"m 	c #B68435",
"n 	c #B68335",
"o 	c #B48234",
"p 	c #B38134",
"q 	c #B18133",
"r 	c #B18033",
"s 	c #AF8033",
"t 	c #AE7F32",
"u 	c #AC7E32",
"v 	c #AC7D31",
"w 	c #AA7C31",
"x 	c #A97B30",
"y 	c #A87B30",
"z 	c #A67A30",
"A 	c #9F6E1F",
"B 	c #915902",
"C 	c #F3E7D3",
"D 	c #FFFFFF",
"E 	c #E2CEAD",
"F 	c #FFFEFE",
"G 	c #F9F3EA",
"H 	c #F3E6D1",
"I 	c #F6ECDC",
"J 	c #E2CDAB",
"K 	c #FFFEFD",
"L 	c #F0DFC4",
"M 	c #DBB475",
"N 	c #CE9944",
"O 	c #C78A29",
"P 	c #C27F14",
"Q 	c #C17D11",
"R 	c #CE9842",
"S 	c #E1CDAB",
"T 	c #F3E7D4",
"U 	c #F1E2CB",
"V 	c #DBB476",
"W 	c #C68824",
"X 	c #C27F16",
"Y 	c #CD9640",
"Z 	c #E1CCAB",
"` 	c #F7EEDF",
" .	c #D4A559",
"..	c #C27F15",
"+.	c #CE9742",
"@.	c #FCF9F4",
"#.	c #DEBA81",
"$.	c #C68826",
"%.	c #D8AC68",
"&.	c #E9D1AB",
"*.	c #FBF7F0",
"=.	c #F3E6D0",
"-.	c #C78927",
";.	c #C27E13",
">.	c #CA9034",
",.	c #DFBC85",
"'.	c #F3E5CF",
").	c #E1CDAD",
"!.	c #EDDABC",
"~.	c #C3821A",
"{.	c #C98D2E",
"].	c #DEB97F",
"^.	c #F0E0C6",
"/.	c #E1CDAE",
"(.	c #E7CDA4",
"_.	c #C27E14",
":.	c #C17E13",
"<.	c #D4A55B",
"[.	c #F0DFC5",
"}.	c #FEFDFC",
"|.	c #F2E3CC",
"1.	c #E1C08B",
"2.	c #D09C4A",
"3.	c #C28016",
"4.	c #DFCBAB",
"5.	c #F4E7D4",
"6.	c #E5C89A",
"7.	c #BF7C10",
"8.	c #BF7D14",
"9.	c #C89038",
"0.	c #D2A762",
"a.	c #D5AD6F",
"b.	c #D3AD6F",
"c.	c #D3AC6F",
"d.	c #D1AA6C",
"e.	c #C99A4F",
"f.	c #BF872E",
"g.	c #B87914",
"h.	c #B5750D",
"i.	c #B67C1F",
"j.	c #CAA66C",
"k.	c #BC9049",
"l.	c #9C6206",
"m.	c #9B6106",
"n.	c #9F6507",
"o.	c #9E6307",
"p.	c #9C6107",
"q.	c #996005",
"r.	c #976003",
"s.	c #955E03",
"t.	c #945C03",
"u.	c #915C03",
"v.	c #F4E8D4",
"w.	c #F1E1C8",
"x.	c #BE7B10",
"y.	c #BC7910",
"z.	c #BB780F",
"A.	c #B8760E",
"B.	c #B5740D",
"C.	c #AF700C",
"D.	c #A96C0A",
"E.	c #A76B09",
"F.	c #A66A09",
"G.	c #A56808",
"H.	c #A26608",
"I.	c #9F6407",
"J.	c #905A02",
"K.	c #F4E8D5",
"L.	c #C28015",
"M.	c #C3831C",
"N.	c #D1A154",
"O.	c #DCB77F",
"P.	c #DBB87F",
"Q.	c #DBB77F",
"R.	c #DAB77F",
"S.	c #D9B67F",
"T.	c #D8B67F",
"U.	c #D7B57E",
"V.	c #D7B47E",
"W.	c #D6B47E",
"X.	c #D5B37D",
"Y.	c #D4B37D",
"Z.	c #D4B27D",
"`.	c #D3B27D",
" +	c #D2B27C",
".+	c #D2B17C",
"++	c #D1B07C",
"@+	c #D0B07C",
"#+	c #CFAF7C",
"$+	c #CEAE7C",
"%+	c #CDAD7B",
"&+	c #CCAD7B",
"*+	c #CBAD7B",
"=+	c #CBAC7B",
"-+	c #CAAB7B",
";+	c #C09D66",
">+	c #D09D4B",
",+	c #F1E2CA",
"'+	c #C88D2E",
")+	c #E9D2AD",
"!+	c #F3EADB",
"~+	c #E4C697",
"{+	c #DCB77A",
"]+	c #F2E4CE",
"^+	c #FFFFFE",
"/+	c #FBF5EE",
"(+	c #EDDABB",
"_+	c #E7CCA2",
":+	c #E0BE89",
"<+	c #E1C08D",
"[+	c #F3EBDC",
"}+	c #FDFAF6",
"|+	c #E3C492",
"1+	c #EAD2AD",
"2+	c #F5EAD8",
"3+	c #E0BE88",
"4+	c #CA9135",
"5+	c #C17D12",
"6+	c #F3EADC",
"7+	c #E7CDA3",
"8+	c #C88C2C",
"9+	c #FDFBF8",
"0+	c #E2C391",
"a+	c #FCF9F5",
"b+	c #C58621",
"c+	c #EBD5B2",
"d+	c #C88B2B",
"e+	c #C17E12",
"f+	c #E3C595",
"g+	c #C38118",
"h+	c #C3841D",
"i+	c #F5E9D7",
"j+	c #D19E4D",
"k+	c #C58622",
"l+	c #D6A962",
"m+	c #E8CFA6",
"n+	c #F2EADB",
"o+	c #F3E8D5",
"p+	c #CE9945",
"q+	c #D8AE6B",
"r+	c #F8F0E3",
"s+	c #EBD4B1",
"t+	c #C68723",
"u+	c #DAB06F",
"v+	c #EFDDC0",
"w+	c #F5EEE2",
"x+	c #FAF5ED",
"y+	c #D4A65C",
"z+	c #FBF7F1",
"A+	c #C58723",
"B+	c #E9D3AE",
"C+	c #E4C696",
"D+	c #C4841E",
"E+	c #FEFDFB",
"F+	c #EDD8B8",
"G+	c #DCB67A",
"H+	c #F2E9DA",
"I+	c #E9D1AA",
"J+	c #FEFCF9",
"K+	c #ECD6B4",
"L+	c #D5A75E",
"M+	c #EAD3AE",
"N+	c #C88C2D",
"O+	c #FCF8F2",
"P+	c #F2E3CD",
"Q+	c #F2E8D9",
"R+	c #F3E7D6",
"S+	c #DAB272",
"T+	c #E8CEA6",
"U+	c #DDB87C",
"V+	c #C68825",
"W+	c #DFBB83",
"X+	c #CD9741",
"Y+	c #E9D2AC",
"Z+	c #F1E8D9",
"`+	c #CC953C",
" @	c #EDD9BA",
".@	c #CC943B",
"+@	c #EEDCC0",
"@@	c #F6EBDB",
"#@	c #DFBD86",
"$@	c #C98E31",
"%@	c #C17F15",
"&@	c #EAD3AF",
"*@	c #F7EFE2",
"=@	c #C5841E",
"-@	c #E5C89B",
";@	c #F9F2E8",
">@	c #E4C596",
",@	c #F2E7D6",
"'@	c #ECD7B6",
")@	c #CD963F",
"!@	c #DBB374",
"~@	c #EEDBBE",
"{@	c #E8CEA5",
"]@	c #D6A961",
"^@	c #C78B2A",
"/@	c #EAD3B0",
"(@	c #FBF6EF",
"_@	c #E3C392",
":@	c #CA8F32",
"<@	c #CA8F33",
"[@	c #FAF4EA",
"}@	c #D2A152",
"|@	c #F0E7D9",
"1@	c #D4A55A",
"2@	c #D7AA64",
"3@	c #EAD4B0",
"4@	c #D3A254",
"5@	c #F2E7D5",
"6@	c #F1E3CD",
"7@	c #C68928",
"8@	c #C78926",
"9@	c #F8F1E5",
"0@	c #E6CA9E",
"a@	c #D7AB66",
"b@	c #EFE2CD",
"c@	c #FCFBF8",
"d@	c #C78C2D",
"e@	c #EAD4B1",
"f@	c #FEFCFA",
"g@	c #E0BD87",
"h@	c #EAD3B1",
"i@	c #EDD9B9",
"j@	c #DAB170",
"k@	c #C17C11",
"l@	c #E9D4B1",
"m@	c #C38119",
"n@	c #E3C493",
"o@	c #D7AB65",
"p@	c #C4831B",
"q@	c #DEBB82",
"r@	c #EFE7D9",
"s@	c #BE7C10",
"t@	c #E9D3B1",
"u@	c #EEDBBD",
"v@	c #C78A28",
"w@	c #DCB577",
"x@	c #FDFAF7",
"y@	c #E0BE87",
"z@	c #C4831C",
"A@	c #D3A357",
"B@	c #E1C18D",
"C@	c #EFDEC3",
"D@	c #CF9A47",
"E@	c #C5851F",
"F@	c #D7AC67",
"G@	c #ECD7B5",
"H@	c #FCF8F3",
"I@	c #CE9A46",
"J@	c #EFE6D9",
"K@	c #E8D3B2",
"L@	c #D8AD6A",
"M@	c #F8F0E4",
"N@	c #DBB373",
"O@	c #DFBC84",
"P@	c #E6CCA1",
"Q@	c #EEE6D8",
"R@	c #E6CA9F",
"S@	c #F5EBDA",
"T@	c #DEBA80",
"U@	c #CC9338",
"V@	c #C68722",
"W@	c #D9B06E",
"X@	c #E7D2B1",
"Y@	c #D7B277",
"Z@	c #E3CEAC",
"`@	c #E0CBAB",
" #	c #DFCAAA",
".#	c #DECAAA",
"+#	c #DDC9AA",
"@#	c #DCC9AA",
"##	c #DCC8A9",
"$#	c #DBC8A9",
"%#	c #DAC8A9",
"&#	c #DAC7A9",
"*#	c #D9C7A9",
"=#	c #CEB68E",
"-#	c #C07C10",
"                                                                                                ",
"  . + @ # $ % & * = - ; > , ' ) ! ~ { ] ^ / ( _ : < [ } | 1 2 3 4 5 6                           ",
"  7 + 8 9 0 a b c d e f g h i j k l m n o p q r s t u v w x y z A 5 B                           ",
"  7 + C D D D D D D D D D D D D D D D D D D D D D D D D D D D D E 5 B                           ",
"  7 + C D D D D D D D D D D D D D D D D D D D D D D D F G H I D J 5 B                           ",
"  7 + C D D D D D D D D D D D D D D D D D D K L M N O P Q Q R D S 5 B                           ",
"  7 + T D D D D D D D D D D D D D D D D U V W Q X Q Q Q Q Q Y D Z 5 B                           ",
"  7 + T D D D D D D D D D D D D D D `  .Q ..Q Q Q Q Q Q Q Q +.D Z 5 B                           ",
"  7 + T D D D D D D D D D D D D @.#.X ..Q Q Q Q Q Q Q $.%.&.*.D Z 5 B                           ",
"  7 + T D D D D D D D D D D D =.-.;.Q Q Q Q Q Q >.,.'.F D D D D ).5 B                           ",
"  7 + T D D D D D D D D D D !.~.P Q Q Q Q {.].=.D D D D D @.^.D /.5 B                           ",
"  7 + T D D D D D D D D D (._.;.Q Q :.<.[.D D D D }.|.1.2.3.Y D 4.5 B                           ",
"  7 + 5.D D D D D D D D 6.Q 7 7.8.9.0.a.b.c.d.e.f.g.h.= - - i.j.k.l.m.n.n.o.p.} q.r.s.t.t.u.    ",
"  7 + v.D D D D D D D w._.. 7.x.y.z.% A.* B.- ; > C.' ) ! D.E.F.G./ H._ I.< l.} q.1 2 3 4 5 J.  ",
"  7 + K.D D D D D D G $.L.M.7.N.O.P.Q.R.S.S.T.U.V.W.X.Y.Z.`. +.+++@+@+#+#+$+$+%+&+*+=+-+;+5 J.  ",
"  7 + K.D D D D D }.>+R ,+'+7.)+D D D D D D D D D D D D D D D D D D D D D D D D D D D D !+5 J.  ",
"  7 + K.D D D D D ~+{+K ]+M.7.)+D ^+F F F F F F F F F F F F F F F F F F F /+5.(+_+:+<+D [+5 J.  ",
"  7 + K.D D D D }+|+1+N Q . 7.)+D D D D D D D D D D D D D D D D D D 2+3+4+Q Q Q Q 5+3.D 6+5 J.  ",
"  7 + K.D D D D 7+8+Q Q Q . 7.)+D D D D D D D D D D D D D D D 9+0+>.Q P 5+Q Q Q Q Q 3.D !+5 J.  ",
"  7 + K.D D D a+b+Q Q Q Q . 7.)+D D D D D D D D D D D D D D c+d+5+Q Q Q Q Q Q Q Q e+N D !+5 J.  ",
"  7 + K.D D D f+e+Q Q Q g+h+7.)+D D D D D D D D D D D D i+j+Q ;.Q Q Q Q Q Q k+l+m+G D D n+5 J.  ",
"  7 + o+D D D p+:.Q P q+r+'+7.)+D D D D D D D D D D D s+3.P Q Q Q Q Q t+u+v+}.D D D D D w+5 J.  ",
"  7 + o+D D x+e+Q y+2+D z+A+7.B+D D D D D D D D D D C+e+e+Q Q Q D+q+!.E+D D D D @.F+G+D H+5 J.  ",
"  7 + o+D D I+g+1+J+K+L+g+. 7.M+D D D D D D D D F {+Q Q Q Q N+f+O+D D D K P+1.>+3.Q 3.D Q+5 J.  ",
"  7 + R+D D S+T+U+V+Q Q Q . 7.M+D D D D D D D D W+Q Q Q X+Y+E+D D D ,+M V+Q Q Q Q Q 3.D Z+5 J.  ",
"  7 + R+D D `+Q Q Q Q Q Q . 7.M+D D D D D D D  @5+Q .@+@D D D @@#@$@Q Q Q Q Q Q Q Q 3.D Z+5 J.  ",
"  7 + R+D E+e+Q Q Q Q Q Q %@7.&@D D D D D D *@=@t+-@}.D ;@>@X+Q Q Q Q Q Q Q Q Q Q Q 3.D Z+5 J.  ",
"  7 + ,@D ;@Q Q Q Q Q 2.'@'+7.&@D D D D D 9+)@!@x+F ~@y+P Q Q Q Q Q Q Q Q Q Q 4+u+{@K.D Z+5 J.  ",
"  7 + ,@D H Q Q P ]@P+D D ^@7./@D D D D D ~+_+(@_@:@Q Q Q Q Q Q Q Q Q <@V s+[@D D D D D Z+5 J.  ",
"  7 + ,@D (+Q <@=.J++@G+>.. 7./@D D D D }+~+!@~.Q Q Q Q Q Q Q g+}@~+I D D D D D D F I D |@5 J.  ",
"  7 + ,@D (.1@(.2@D+Q Q Q . 7.3@D D D D 6.:.Q Q Q Q Q Q Q j+&.}+D D D D D x+(+3+4@b+3.D |@5 J.  ",
"  7 + 5@D ;@6@U U U U U U 7@7./@D D D a+b+5+Q Q Q Q 8@].I D D D D 9@0@a@<@Q Q Q Q Q 3.D |@5 J.  ",
"  7 + b@9+9+9+9+9+c@c@c@c@d@7.e@D D D 7+Q Q Q Q 4+1+f@D D F '.g@)@Q Q Q Q Q Q Q Q Q 3.D |@5 J.  ",
"  7 + @ # $ % & * = - ; > x.7.h@D D D 1@P Q d+_+}.D 9+i@j@O Q Q Q Q Q Q Q Q Q Q Q Q 3.D |@5 J.  ",
"  k@+ @ # $ % & * = - ; > x.7.l@D D 9+m@~.n@9+E+(+o@p@Q Q Q Q Q Q Q Q Q Q Q Q :.4+L+q@D r@5 J.  ",
"                          s@7.t@D D u@v@]+H w@$.Q Q Q Q Q Q Q Q Q Q ..X+V 7+]+x@D D D D r@5 J.  ",
"                          . 7.t@D D y@#@X+Q Q Q Q Q Q Q Q Q z@A@B@C@}+D D D D D D D D D r@5 J.  ",
"                          . 7.t@D D D@Q Q Q Q Q Q Q Q E@F@G@9+D D D D D D H@'.Y+3+o@I@D J@5 J.  ",
"                          . 7.K@D D N+Q Q Q Q Q g+L@(+J+D D D D M@&.N@>+-.Q Q Q Q Q 3.D J@5 J.  ",
"                          . 7.K@D D g+Q Q Q k+O@G D D D @@P@%.{.Q Q Q Q Q Q Q Q Q Q 3.D Q@5 J.  ",
"                          . 7.K@D O+Q Q O -@}+D M@R@L+$.Q Q Q Q Q Q Q Q Q Q Q Q Q Q 3.D Q@5 J.  ",
"                          . 7.K@D S@Q 4@[@w.T@.@Q Q Q Q Q Q Q Q Q Q Q Q Q Q Q Q Q Q 3.D Q@5 J.  ",
"                          . 7.K@D w.L+U+U@V@V@V@V@V@V@V@V@V@V@V@V@V@V@V@V@V@V@V@V@V@W@D Q@5 J.  ",
"                          . 7.X@D D D D D D D D D D D D D D D D D D D D D D D D D D D D Q@5 J.  ",
"                          . 7.Y@Z@Z@Z@J J J Z Z `@`@`@4. #.#.#.#+#+#@###$#$#%#&#&#&#*#*#=#5 J.  ",
"                          . 7.x.y.z.% A.* B.- ; > C.' ) ! D.E.F.G./ H._ I.< l.} q.1 2 3 4 5 J.  ",
"                            -#x.y.z.% A.* B.- ; > C.' ) ! D.E.F.G./ H._ I.< l.} q.1 2 3 4 5 J.  ",
"                                                                                                "};
