/* XPM */
static const char *mi_wor_16_xpm[] = {
"16 16 163 2",
"  	c None",
". 	c #C38421",
"+ 	c #BD8122",
"@ 	c #BA7F21",
"# 	c #B77D20",
"$ 	c #B47A1F",
"% 	c #B0771D",
"& 	c #AC731C",
"* 	c #A8721B",
"= 	c #A5701B",
"- 	c #A16B18",
"; 	c #C07C11",
"> 	c #F9F3EA",
", 	c #F7EFE2",
"' 	c #F1E3CC",
") 	c #E3C595",
"! 	c #F2E5CF",
"~ 	c #955D04",
"{ 	c #F6EDDE",
"] 	c #FFFFFF",
"^ 	c #FEFDFB",
"/ 	c #DAB06F",
"( 	c #CC943B",
"_ 	c #C68825",
": 	c #C98D2E",
"< 	c #EDDBBC",
"[ 	c #945D04",
"} 	c #CF9945",
"| 	c #C88D2E",
"1 	c #DFBC84",
"2 	c #F3E5CF",
"3 	c #EFDEC3",
"4 	c #EFE0C8",
"5 	c #945B03",
"6 	c #FAF5EC",
"7 	c #C88E30",
"8 	c #CA933F",
"9 	c #C99646",
"0 	c #C4903E",
"a 	c #C08B37",
"b 	c #BC8835",
"c 	c #BC8C40",
"d 	c #B58333",
"e 	c #B38334",
"f 	c #AF8134",
"g 	c #AB7B31",
"h 	c #955E03",
"i 	c #E2C391",
"j 	c #C88D30",
"k 	c #F7EEE1",
"l 	c #F7EFE1",
"m 	c #F6EEDF",
"n 	c #ECD9B8",
"o 	c #DBB577",
"p 	c #F0DFC5",
"q 	c #955E04",
"r 	c #EAD5B0",
"s 	c #C68521",
"t 	c #C3821B",
"u 	c #F6ECDC",
"v 	c #FDFAF7",
"w 	c #D7AC66",
"x 	c #C98E31",
"y 	c #CE9943",
"z 	c #EBD7B7",
"A 	c #D8AE6A",
"B 	c #E1C08B",
"C 	c #CA9136",
"D 	c #F2E2CC",
"E 	c #CD9740",
"F 	c #CC953D",
"G 	c #E4C799",
"H 	c #F4E8D5",
"I 	c #E9D2AC",
"J 	c #ECD8B8",
"K 	c #935D04",
"L 	c #F5ECDE",
"M 	c #D5A75E",
"N 	c #C17E13",
"O 	c #C18015",
"P 	c #F9F2E8",
"Q 	c #D4A65C",
"R 	c #ECD6B4",
"S 	c #E7CDA3",
"T 	c #D09D4C",
"U 	c #C17E12",
"V 	c #C17D11",
"W 	c #E3C597",
"X 	c #935C02",
"Y 	c #BF7A11",
"Z 	c #F3E9D9",
"` 	c #CD9640",
" .	c #E0BE88",
"..	c #CB9339",
"+.	c #F6EBDB",
"@.	c #E1C18D",
"#.	c #D8AD6A",
"$.	c #C3821A",
"%.	c #C38118",
"&.	c #D3A254",
"*.	c #E4C596",
"=.	c #F2E4CE",
"-.	c #EEDCC1",
";.	c #925C02",
">.	c #F5EDE0",
",.	c #E2C291",
"'.	c #DCB77D",
").	c #F5EBDB",
"!.	c #EBD4B1",
"~.	c #C4841D",
"{.	c #CD9741",
"].	c #E7CCA2",
"^.	c #F1E1C9",
"/.	c #E2C28F",
"(.	c #D3A458",
"_.	c #E2C496",
":.	c #BD7B11",
"<.	c #BA770F",
"[.	c #B5750D",
"}.	c #B1710C",
"|.	c #BA790E",
"1.	c #D9B16F",
"2.	c #DFBD86",
"3.	c #DCB77A",
"4.	c #C98D2F",
"5.	c #C28017",
"6.	c #CE9842",
"7.	c #D9AF6D",
"8.	c #E8D3AF",
"9.	c #915A02",
"0.	c #BE7C11",
"a.	c #F4EADB",
"b.	c #D3A459",
"c.	c #C88C2D",
"d.	c #DDB77B",
"e.	c #EFDDC0",
"f.	c #F1E1C8",
"g.	c #E9D0A9",
"h.	c #E7CFA9",
"i.	c #F3E8D8",
"j.	c #D09D4B",
"k.	c #D2A153",
"l.	c #C4831C",
"m.	c #E1C495",
"n.	c #905A02",
"o.	c #BE7B0F",
"p.	c #EEDFC9",
"q.	c #E3C99F",
"r.	c #E1C394",
"s.	c #E1C393",
"t.	c #E0C293",
"u.	c #DFC293",
"v.	c #DFC294",
"w.	c #ECE0CD",
"x.	c #B9760F",
"y.	c #B6740D",
"z.	c #B0710D",
"A.	c #AD6F0C",
"B.	c #A96C09",
"C.	c #A56809",
"D.	c #A16408",
"E.	c #9C6205",
"F.	c #985F05",
"  . + @ # $ % & * = -           ",
"; > , , , , , , ' ) ! ~         ",
"; { ] ] ] ^ / ( _ : < [         ",
"; { ] ] { } | 1 2 3 4 5         ",
"; { ] 6 7 8 9 0 a b c d e f g h ",
"; { ] i j k l l l l l m n o p q ",
"; { r s t u ] ] ] v w x t y z ~ ",
"; { A B C u ] ] D E F G H I J K ",
"; L M N O u ] P Q R S T U V W X ",
"Y Z `  ...+.] @.#.$.%.&.*.=.-.;.",
"Y >.,.'.7 ).!.~.{.].^./.(._ _.;.",
":.<.[.}.|.).1.2.3.4.V 5.6.7.8.9.",
"        0.a.b.V c.d.e.f.g.2.h.9.",
"        0.i.j. .@.k.l.V V V m.n.",
"        o.p.q.r.r.s.t.t.u.v.w.n.",
"          x.y.z.A.B.C.D.E.F.[   "};
