/* XPM */
static char *network-wired_xpm[] = {
/* width height num_colors chars_per_pixel */
"    16    16      256            2",
/* colors */
"`` c None",
"`. c #3a3a3a",
"`# c #90876e",
"`a c #727272",
"`b c #ae9f76",
"`c c #fcefc7",
"`d c #fbf4de",
"`e c #dddddd",
"`f c #717171",
"`g c #82807e",
"`h c #ffe479",
"`i c #fdf1ca",
"`j c #fafafa",
"`k c #f7f7f7",
"`l c #d2d2d2",
"`m c #646464",
"`n c #939393",
"`o c #cdcdcd",
"`p c #fcfcfc",
"`q c #f0f0f0",
"`r c #eeeeee",
"`s c #e9e9e9",
"`t c #f4f4f4",
"`u c #c8c8c8",
"`v c #575757",
"`w c #6f6f6f",
"`x c #c1c1c1",
"`y c #b9b9b9",
"`z c #efefef",
"`A c #f8f8f8",
"`B c #e8e8e8",
"`C c #e0e0e0",
"`D c #3d3d3d",
"`E c #333333",
"`F c #7c7c7c",
"`G c #c2c2c2",
"`H c #b0b0b0",
"`I c #f1f1f1",
"`J c #f3f3f4",
"`K c #dcdcdd",
"`L c #cbcbcb",
"`M c #404040",
"`N c #2d2d2d",
"`O c #6a6a6a",
"`P c #aeaeae",
"`Q c #e6e6e6",
"`R c #b3b3b3",
"`S c #d1d1d2",
"`T c #555555",
"`U c #232323",
"`V c #5a5a5a",
"`W c #bfbfbf",
"`X c #a1a1a1",
"`Y c #888888",
"`Z c #4d4d4e",
"`0 c #555556",
"`1 c #404041",
"`2 c #3d3d3e",
"`3 c #3e3e3f",
"`4 c #1b1b1b",
"`5 c #4d4d4d",
"`6 c #bababa",
"`7 c #8c8c8c",
"`8 c #505051",
".` c #6d6d6e",
".. c #5c5c5d",
".# c #131313",
".a c #737373",
".b c #2c2c2c",
".c c #303031",
".d c #444445",
".e c #7f7f80",
".f c #a8a8a9",
".g c #0d0d0d",
".h c #191919",
".i c #272727",
".j c #434344",
".k c #868688",
".l c #8c8c8f",
".m c #4b4b4b",
".n c #3f3f3f",
".o c #232324",
".p c #454545",
".q c #535356",
".r c #29292b",
".s c #000000",
".t c #000000",
".u c #000000",
".v c #000000",
".w c #000000",
".x c #000000",
".y c #000000",
".z c #000000",
".A c #000000",
".B c #000000",
".C c #000000",
".D c #000000",
".E c #000000",
".F c #000000",
".G c #000000",
".H c #000000",
".I c #000000",
".J c #000000",
".K c #000000",
".L c #000000",
".M c #000000",
".N c #000000",
".O c #000000",
".P c #000000",
".Q c #000000",
".R c #000000",
".S c #000000",
".T c #000000",
".U c #000000",
".V c #000000",
".W c #000000",
".X c #000000",
".Y c #000000",
".Z c #000000",
".0 c #000000",
".1 c #000000",
".2 c #000000",
".3 c #000000",
".4 c #000000",
".5 c #000000",
".6 c #000000",
".7 c #000000",
".8 c #000000",
"#` c #000000",
"#. c #000000",
"## c #000000",
"#a c #000000",
"#b c #000000",
"#c c #000000",
"#d c #000000",
"#e c #000000",
"#f c #000000",
"#g c #000000",
"#h c #000000",
"#i c #000000",
"#j c #000000",
"#k c #000000",
"#l c #000000",
"#m c #000000",
"#n c #000000",
"#o c #000000",
"#p c #000000",
"#q c #000000",
"#r c #000000",
"#s c #000000",
"#t c #000000",
"#u c #000000",
"#v c #000000",
"#w c #000000",
"#x c #000000",
"#y c #000000",
"#z c #000000",
"#A c #000000",
"#B c #000000",
"#C c #000000",
"#D c #000000",
"#E c #000000",
"#F c #000000",
"#G c #000000",
"#H c #000000",
"#I c #000000",
"#J c #000000",
"#K c #000000",
"#L c #000000",
"#M c #000000",
"#N c #000000",
"#O c #000000",
"#P c #000000",
"#Q c #000000",
"#R c #000000",
"#S c #000000",
"#T c #000000",
"#U c #000000",
"#V c #000000",
"#W c #000000",
"#X c #000000",
"#Y c #000000",
"#Z c #000000",
"#0 c #000000",
"#1 c #000000",
"#2 c #000000",
"#3 c #000000",
"#4 c #000000",
"#5 c #000000",
"#6 c #000000",
"#7 c #000000",
"#8 c #000000",
"a` c #000000",
"a. c #000000",
"a# c #000000",
"aa c #000000",
"ab c #000000",
"ac c #000000",
"ad c #000000",
"ae c #000000",
"af c #000000",
"ag c #000000",
"ah c #000000",
"ai c #000000",
"aj c #000000",
"ak c #000000",
"al c #000000",
"am c #000000",
"an c #000000",
"ao c #000000",
"ap c #000000",
"aq c #000000",
"ar c #000000",
"as c #000000",
"at c #000000",
"au c #000000",
"av c #000000",
"aw c #000000",
"ax c #000000",
"ay c #000000",
"az c #000000",
"aA c #000000",
"aB c #000000",
"aC c #000000",
"aD c #000000",
"aE c #000000",
"aF c #000000",
"aG c #000000",
"aH c #000000",
"aI c #000000",
"aJ c #000000",
"aK c #000000",
"aL c #000000",
"aM c #000000",
"aN c #000000",
"aO c #000000",
"aP c #000000",
"aQ c #000000",
"aR c #000000",
"aS c #000000",
"aT c #000000",
"aU c #000000",
"aV c #000000",
"aW c #000000",
"aX c #000000",
"aY c #000000",
"aZ c #000000",
"a0 c #000000",
"a1 c #000000",
"a2 c #000000",
"a3 c #000000",
"a4 c #000000",
"a5 c #000000",
"a6 c #000000",
"a7 c #000000",
"a8 c #000000",
/* pixels */
"```````.`.``````````````````````",
"`````.`#`a`.`.``````````````````",
"```.`b`c`d`e`f`.`.``````````````",
"`.`g`h`i`j`k`k`l`m`.`.``````````",
"`.`n`o`p`j`q`r`s`t`u`v`.````````",
"`.`w`x`y`k`z`s`A`s`B`C`D````````",
"```E`F`G`H`I`J`K`t`j`L`M````````",
"`````N`O`x`P`Q`t`R`e`S`T````````",
"```````U`V`W`H`X`Y`Z`0`1`2`3````",
"`````````4`5`6`7`a`3`8.`..`3`3``",
"``````````.#`D.a.b.c.d.e.f.``3``",
"````````````.g.h````.i.j.k.l.m.n",
"``````````````````````.o.p.`.q``",
"````````````````````````.r``````",
"````````````````````````````````",
"````````````````````````````````"
};
