/* XPM */
static const char *nextext_xpm[] = {
/* width height num_colors chars_per_pixel */
"    16    16      256            2",
/* colors */
"`` c None",
"`. c #89a8cf",
"`# c #6790c1",
"`a c #668fc0",
"`b c #83a5cb",
"`c c #5a87bc",
"`d c #6296ce",
"`e c #81b2e0",
"`f c #9ac4ea",
"`g c #92bfe8",
"`h c #75abde",
"`i c #5d94cd",
"`j c #5684ba",
"`k c #5688bf",
"`l c #92bee7",
"`m c #d6e7f6",
"`n c #ddebf8",
"`o c #d6e7f7",
"`p c #cfe3f5",
"`q c #c8dff4",
"`r c #b3d3ef",
"`s c #79b0e2",
"`t c #598cc3",
"`u c #598bc1",
"`v c #a5caec",
"`w c #dcebf8",
"`x c #e4eff9",
"`y c #cbdbec",
"`z c #7f9dc2",
"`A c #d1e4f6",
"`B c #c9dff4",
"`C c #c1daf2",
"`D c #b5d4f0",
"`E c #7fb4e5",
"`F c #5c8fc6",
"`G c #5f89bc",
"`H c #81b3e3",
"`I c #d1e4f5",
"`J c #d8e8f7",
"`K c #adc2dc",
"`L c #8ea5c5",
"`M c #6687b3",
"`N c #c2daf0",
"`O c #c0daf2",
"`P c #b8d5f0",
"`Q c #80b5e5",
"`R c #6da9e0",
"`S c #5a86bc",
"`T c #5b91c9",
"`U c #adcfee",
"`V c #9ab5d4",
"`W c #7393bb",
"`X c #7493bc",
"`Y c #6082b0",
"`Z c #a0b5d0",
"`0 c #a5b9d5",
"`1 c #6182af",
"`2 c #afcce8",
"`3 c #b3d2ef",
"`4 c #70abe1",
"`5 c #6eaae1",
"`6 c #5d95cf",
"`7 c #9fb8d7",
"`8 c #619ad3",
".` c #bad7f1",
".. c #6081ae",
".# c #a2b8d3",
".a c #98b1cf",
".b c #9bb2d0",
".c c #99b2d1",
".d c #7495c0",
".e c #96afcf",
".f c #6686b1",
".g c #87b0da",
".h c #68a3db",
".i c #7b9fc9",
".j c #7196c4",
".k c #73ace0",
".l c #5d7fae",
".m c #83a1c7",
".n c #678cbc",
".o c #6f93c0",
".p c #7094c2",
".q c #628abb",
".r c #527cb2",
".s c #7898c1",
".t c #6788b4",
".u c #588fc8",
".v c #638ebf",
".w c #7196c5",
".x c #6ca8df",
".y c #aacded",
".z c #577bab",
".A c #6b8ebd",
".B c #4d7ab3",
".C c #5583b9",
".D c #5381b9",
".E c #4e7db6",
".F c #4474af",
".G c #537db3",
".H c #7492bb",
".I c #4d80b9",
".J c #648ec0",
".K c #a0bad7",
".L c #609ad3",
".M c #94c0e9",
".N c #5479aa",
".O c #7c9cc5",
".P c #6f95c3",
".Q c #7a9fcb",
".R c #7ea3cd",
".S c #5988be",
".T c #7096c3",
".U c #698ab5",
".V c #5288c0",
".W c #7c9fc8",
".X c #5c90c8",
".Y c #74ade2",
".Z c #5a89be",
".0 c #5177aa",
".1 c #5278ab",
".2 c #4b72a6",
".3 c #8da9cc",
".4 c #8aaad0",
".5 c #5c80af",
".6 c #5c94cc",
".7 c #5c96ce",
".8 c #608bbe",
"#` c #6aa6dd",
"#. c #5d95cd",
"## c #7c99bf",
"#a c #5077a9",
"#b c #649ed6",
"#c c #5a87bb",
"#d c #5989c1",
"#e c #639cd4",
"#f c #3f6da6",
"#g c #6aa5dc",
"#h c #5b8fc6",
"#i c #5588be",
"#j c #6aa5dd",
"#k c #6ca7df",
"#l c #588ac2",
"#m c #5c86ba",
"#n c #5b92cb",
"#o c #649ed7",
"#p c #6ea9e1",
"#q c #65a0d8",
"#r c #5b92cc",
"#s c #5785b9",
"#t c #91afd2",
"#u c #6a93c2",
"#v c #6790c2",
"#w c #8caacf",
"#x c #000000",
"#y c #000000",
"#z c #000000",
"#A c #000000",
"#B c #000000",
"#C c #000000",
"#D c #000000",
"#E c #000000",
"#F c #000000",
"#G c #000000",
"#H c #000000",
"#I c #000000",
"#J c #000000",
"#K c #000000",
"#L c #000000",
"#M c #000000",
"#N c #000000",
"#O c #000000",
"#P c #000000",
"#Q c #000000",
"#R c #000000",
"#S c #000000",
"#T c #000000",
"#U c #000000",
"#V c #000000",
"#W c #000000",
"#X c #000000",
"#Y c #000000",
"#Z c #000000",
"#0 c #000000",
"#1 c #000000",
"#2 c #000000",
"#3 c #000000",
"#4 c #000000",
"#5 c #000000",
"#6 c #000000",
"#7 c #000000",
"#8 c #000000",
"a` c #000000",
"a. c #000000",
"a# c #000000",
"aa c #000000",
"ab c #000000",
"ac c #000000",
"ad c #000000",
"ae c #000000",
"af c #000000",
"ag c #000000",
"ah c #000000",
"ai c #000000",
"aj c #000000",
"ak c #000000",
"al c #000000",
"am c #000000",
"an c #000000",
"ao c #000000",
"ap c #000000",
"aq c #000000",
"ar c #000000",
"as c #000000",
"at c #000000",
"au c #000000",
"av c #000000",
"aw c #000000",
"ax c #000000",
"ay c #000000",
"az c #000000",
"aA c #000000",
"aB c #000000",
"aC c #000000",
"aD c #000000",
"aE c #000000",
"aF c #000000",
"aG c #000000",
"aH c #000000",
"aI c #000000",
"aJ c #000000",
"aK c #000000",
"aL c #000000",
"aM c #000000",
"aN c #000000",
"aO c #000000",
"aP c #000000",
"aQ c #000000",
"aR c #000000",
"aS c #000000",
"aT c #000000",
"aU c #000000",
"aV c #000000",
"aW c #000000",
"aX c #000000",
"aY c #000000",
"aZ c #000000",
"a0 c #000000",
"a1 c #000000",
"a2 c #000000",
"a3 c #000000",
"a4 c #000000",
"a5 c #000000",
"a6 c #000000",
"a7 c #000000",
"a8 c #000000",
/* pixels */
"`````````````.`#`a`b````````````",
"`````````c`d`e`f`g`h`i`j````````",
"```````k`l`m`n`o`p`q`r`s`t``````",
"`````u`v`w`x`y`z`A`B`C`D`E`F````",
"```G`H`I`J`n`K`L`M`N`O`P`Q`R`S``",
"```T`U`V`W`X`Y`Z`0`1`2`3`4`5`6``",
"`7`8.`...#.a.b.c.d.e.f.g`5`5.h.i",
".j.k`P.l.m.n.o.p.q.r.s.t.u`5`5.v",
".w.x.y.z.A.B.C.D.E.F.G.H.I`5`5.J",
".K.L.M.N.O.P.Q.R.S.T.U.V`5`5.h.W",
"``.X.Y.Z.0.1.2.3.4.5.6`5`5`5.7``",
"``.8#``5`5`5#.###a#b`5`5`5`R#c``",
"````#d`5`5`5#e#f#g`5`5`5`5#h````",
"``````#i#j`5`5`5`5`5`5#k#l``````",
"````````#m#n#o#p`5#q#r#s````````",
"````````````#t#u#v#w````````````"
};
