/* XPM */
static const char *ngmanager32_xpm[] = {
/* width height num_colors chars_per_pixel */
"    32    32      256            2",
/* colors */
"`` c #bee8f3",
"`. c #4bc0de",
"`# c #31b7da",
"`a c #43bddd",
"`b c #90d8eb",
"`c c #8fd8eb",
"`d c #8cd7ea",
"`e c #8bd6ea",
"`f c #88d5ea",
"`g c #87d5e9",
"`h c #84d4e9",
"`i c #83d4e9",
"`j c #80d3e8",
"`k c #7ed2e8",
"`l c #7cd1e7",
"`m c #7ad0e7",
"`n c #78d0e7",
"`o c #76cfe6",
"`p c #73cee6",
"`q c #6acbe4",
"`r c #32b7da",
"`s c #a2dfee",
"`t c #c5ebf5",
"`u c #a0deee",
"`v c #a3dfee",
"`w c #a5e0ef",
"`x c #a7e0ef",
"`y c #a9e1f0",
"`z c #ace2f0",
"`A c #ade2f0",
"`B c #b0e3f1",
"`C c #b2e4f1",
"`D c #b5e5f2",
"`E c #b6e6f2",
"`F c #b9e6f2",
"`G c #bbe7f3",
"`H c #bde8f3",
"`I c #e8f7fb",
"`J c #6fcde5",
"`K c #e5f6fa",
"`L c #51c2e0",
"`M c #5ac5e1",
"`N c #6bcbe4",
"`O c #53c3e0",
"`P c #b8e6f2",
"`Q c #dcf3f9",
"`R c #9cdced",
"`S c #c6ebf5",
"`T c #89d6ea",
"`U c #3fbcdc",
"`V c #f2fafd",
"`W c #3bbadc",
"`X c #9eddee",
"`Y c #98dbed",
"`Z c #58c5e1",
"`0 c #3dbbdc",
"`1 c #bfe9f4",
"`2 c #7bd1e7",
"`3 c #e1f5fa",
"`4 c #55c4e1",
"`5 c #59c5e1",
"`6 c #d3eff7",
"`7 c #63c9e3",
"`8 c #56c4e1",
".` c #4bc0df",
".. c #38badb",
".# c #f1fafd",
".a c #42bddd",
".b c #99dbed",
".c c #37b9db",
".d c #e6f6fb",
".e c #87d5ea",
".f c #ddf3f9",
".g c #60c7e2",
".h c #36b9db",
".i c #33b8da",
".j c #6ecce5",
".k c #d1eff7",
".l c #64c9e3",
".m c #fafdfe",
".n c #ffffff",
".o c #fbfefe",
".p c #97daed",
".q c #d4f0f7",
".r c #93d9ec",
".s c #9fddee",
".t c #f7fcfe",
".u c #f6fcfd",
".v c #6ccce5",
".w c #71cde5",
".x c #8bd7ea",
".y c #49bfde",
".z c #62c8e3",
".A c #61c8e3",
".B c #5fc7e2",
".C c #47bfde",
".D c #a1deee",
".E c #a4dfef",
".F c #a5dfef",
".G c #caedf6",
".H c #4fc1df",
".I c #ecf9fc",
".J c #41bcdc",
".K c #3ebbdc",
".L c #8dd7eb",
".M c #7ad0e6",
".N c #f8fcfe",
".O c #e0f4fa",
".P c #93daeb",
".Q c #48bfde",
".R c #45bedd",
".S c #91d9eb",
".T c #dff3f9",
".U c #fdfeff",
".V c #c8ecf5",
".W c #7bd0e7",
".X c #38b9db",
".Y c #35b8da",
".Z c #c1eaf3",
".0 c #f4fafd",
".1 c #ade3f0",
".2 c #60c7e3",
".3 c #a2deee",
".4 c #ecf8fb",
".5 c #3cbadc",
".6 c #82d3e8",
".7 c #7cd2e8",
".8 c #4abfdd",
"#` c #6ccbe4",
"#. c #b3e5f1",
"## c #000000",
"#a c #000000",
"#b c #000000",
"#c c #000000",
"#d c #000000",
"#e c #000000",
"#f c #000000",
"#g c #000000",
"#h c #000000",
"#i c #000000",
"#j c #000000",
"#k c #000000",
"#l c #000000",
"#m c #000000",
"#n c #000000",
"#o c #000000",
"#p c #000000",
"#q c #000000",
"#r c #000000",
"#s c #000000",
"#t c #000000",
"#u c #000000",
"#v c #000000",
"#w c #000000",
"#x c #000000",
"#y c #000000",
"#z c #000000",
"#A c #000000",
"#B c #000000",
"#C c #000000",
"#D c #000000",
"#E c #000000",
"#F c #000000",
"#G c #000000",
"#H c #000000",
"#I c #000000",
"#J c #000000",
"#K c #000000",
"#L c #000000",
"#M c #000000",
"#N c #000000",
"#O c #000000",
"#P c #000000",
"#Q c #000000",
"#R c #000000",
"#S c #000000",
"#T c #000000",
"#U c #000000",
"#V c #000000",
"#W c #000000",
"#X c #000000",
"#Y c #000000",
"#Z c #000000",
"#0 c #000000",
"#1 c #000000",
"#2 c #000000",
"#3 c #000000",
"#4 c #000000",
"#5 c #000000",
"#6 c #000000",
"#7 c #000000",
"#8 c #000000",
"a` c #000000",
"a. c #000000",
"a# c #000000",
"aa c #000000",
"ab c #000000",
"ac c #000000",
"ad c #000000",
"ae c #000000",
"af c #000000",
"ag c #000000",
"ah c #000000",
"ai c #000000",
"aj c #000000",
"ak c #000000",
"al c #000000",
"am c #000000",
"an c #000000",
"ao c #000000",
"ap c #000000",
"aq c #000000",
"ar c #000000",
"as c #000000",
"at c #000000",
"au c #000000",
"av c #000000",
"aw c #000000",
"ax c #000000",
"ay c #000000",
"az c #000000",
"aA c #000000",
"aB c #000000",
"aC c #000000",
"aD c #000000",
"aE c #000000",
"aF c #000000",
"aG c #000000",
"aH c #000000",
"aI c #000000",
"aJ c #000000",
"aK c #000000",
"aL c #000000",
"aM c #000000",
"aN c #000000",
"aO c #000000",
"aP c #000000",
"aQ c #000000",
"aR c #000000",
"aS c #000000",
"aT c #000000",
"aU c #000000",
"aV c #000000",
"aW c #000000",
"aX c #000000",
"aY c #000000",
"aZ c #000000",
"a0 c #000000",
"a1 c #000000",
"a2 c #000000",
"a3 c #000000",
"a4 c #000000",
"a5 c #000000",
"a6 c #000000",
"a7 c #000000",
"a8 c #000000",
/* pixels */
"```.`#`#`#`#`#`#`#`#`#`#`#`#`#`#`#`#`#`#`#`#`#`#`#`#`#`#`#`#`.``",
"`.`#`#`#`#`#`#`#`#`#`#`#`#`#`#`#`#`#`#`#`#`#`#`#`#`#`#`#`#`#`#`.",
"`#`#`#`#`#`#`#`#`#`#`#`#`#`#`#`#`#`#`#`#`#`#`#`#`#`#`#`#`#`#`#`#",
"`#`#`#`#`#`#`#`a`b`c`d`e`f`g`h`i`j`k`l`m`n`o`p`q`r`#`#`#`#`#`#`#",
"`#`#`#`#`#`#`#`s`t`u`v`w`x`y`z`A`B`C`D`E`F`G`H`I`J`#`#`#`#`#`#`#",
"`#`#`#`#`#`#`#`K`L`#`M`N`N`N`N`N`N`N`N`N`N`O`#`i`P`#`#`#`#`#`#`#",
"`#`#`#`#`#`#`M`Q`#`#`R`S`S`S`S`S`S`S`S`S`S`T`#`U`V`W`#`#`#`#`#`#",
"`#`#`#`#`#`#`X`Y`#`W`Z`Z`Z`Z`Z`Z`Z`Z`Z`Z`Z`Z`0`#`1`2`#`#`#`#`#`#",
"`#`#`#`#`#`#`3`4`#`5`6`6`6`6`6`6`6`6`6`6`6`6`7`#`o`t`#`#`#`#`#`#",
"`#`#`#`#`#`8`3`#`r.`.`.`.`.`.`.`.`.`.`.`.`.`.``r...#.a`#`#`#`#`#",
"`#`#`#`#`#.b`X`#.c.d.d.d.d.d.d.d.d.d.d.d.d.d.d.c`#`C.e`#`#`#`#`#",
"`#`#`#`#`#.f.g.c.c.c.c.c.h.i`r`r`r`r.i.h.c.c.c.c.c.j.k`#`#`#`#`#",
"`#`#`#`#.l.m.n.n.n.n.n.n`G`#`#`#`#`#`#`G.n.n.n.n.n.n.o`5`#`#`#`#",
"`#`#`#`#.p.n.n.n.n.n.n.n.n.q`t`t`t`t.q.n.n.n.n.n.n.n.n.r`#`#`#`#",
"`#`#`#`#.s.n.n.n.n.n.n.n.n.n.n.n.n.n.n.n.n.n.n.n.n.n.n.s`#`#`#`#",
"`#`#`#`#.s.n.n.n.n.n.n.n.n.n.n.n.n.n.n.n.n.n.n.n.n.n.n.s`#`#`#`#",
"`#`#`#`#.s.n.n.n.n.n.n.t`3.n.n.n.n.n.n`3.u.n.n.n.n.n.n.s`#`#`#`#",
"`#`#`#`#.s.n.n.n.n.n.n`b.v.n.n.n.n.n.n.w.x.n.n.n.n.n.n.s`#`#`#`#",
"`#`#`#`#.s.n.n.n.n.n.n.`.y`7.z.A.A.g.B.C.`.n.n.n.n.n.n.s`#`#`#`#",
"`#`#`#`#.s.n.n.n.n.n.n`S.s`u`u.D`s`v.E.F.G.n.n.n.n.n.n.s`#`#`#`#",
"`#`#`#`#.s.n.n.n.n.n.n.n.n.n.n.n.n.n.n.n.n.n.n.n.n.n.n.s`#`#`#`#",
"`#`#`#`#.s.n.n.n.n.n.n.n.n.n.n.n.n.n.n.n.n.n.n.n.n.n.n.s`#`#`#`#",
"`#`#`#`#`Y.n.n.n.n.n.n.n.n.n.n.n.n.n.n.n.n.n.n.n.n.n.n`Y`#`#`#`#",
"`#`#`#`#.H.I.n.n.n.n.n.n.n.n.n.n.n.n.n.n.n.n.n.n.n.n.I.H`#`#`#`#",
".J`#`#`#`#.c`L`L`L`L`L`L`L`L`L`L`L`L`L`L`L`L`L`L`L`L.c`#`#`#`#.K",
".L`#`#`#`#`#`#`#`#`#`#`#`#`#`#`#`#`#`#`#`#`#`#`#`#`#`#`#`#`#`#`j",
".o`j`#`#`#`#`#`#`#`#`#`#`#`#`#`#`#`#`#`#`#`#`#`#`#`#`#`#`#`#.M.N",
".n.n.O.P.Q`#`#`#`#`#`#`#`#`#`#`#`#`#`#`#`#`#`#`#`#`#`#.R.S.T.n.n",
".n.n.n.n.U.V.W.X`#`#`#`#`#`#`#`#`#`#`#`#`#`#`#`#.Y.w.Z.U.n.n.n.n",
".n.n.n.n.n.n.n.0.1.2`#`#`#`#`#`#`#`#`#`#`#`#`O.3.4.n.n.n.n.n.n.n",
".n.n.n.n.n.n.n.n.n.n.O.P.Q`#`#`#`#`#`#.5.6`6.n.n.n.n.n.n.n.n.n.n",
".n.n.n.n.n.n.n.n.n.n.n.n.U.V.7.8.a#`#..N.n.n.n.n.n.n.n.n.n.n.n.n"
};
