/* XPM */
static const char *ngmanager48_xpm[] = {
/* width height num_colors chars_per_pixel */
"    48    48      256            2",
/* colors */
"`` c #f1fafd",
"`. c #93daeb",
"`# c #42bddd",
"`a c #31b7da",
"`b c #5bc6e2",
"`c c #bce8f3",
"`d c #bae7f3",
"`e c #b9e6f2",
"`f c #b6e6f2",
"`g c #b5e5f2",
"`h c #b2e4f1",
"`i c #b1e4f1",
"`j c #afe3f1",
"`k c #ade2f0",
"`l c #abe2f0",
"`m c #a9e1ef",
"`n c #a7e0ef",
"`o c #a5e0ef",
"`p c #a3dfee",
"`q c #a1deee",
"`r c #9fddee",
"`s c #9ddded",
"`t c #9cdced",
"`u c #99dbed",
"`v c #98dbec",
"`w c #95daec",
"`x c #94d9ec",
"`y c #7fd2e8",
"`z c #32b7da",
"`A c #cdedf6",
"`B c #f4fbfd",
"`C c #daf2f8",
"`D c #dcf3f9",
"`E c #def3f9",
"`F c #e0f4f9",
"`G c #e3f5fa",
"`H c #e4f6fa",
"`I c #e7f7fb",
"`J c #e8f7fb",
"`K c #ebf8fb",
"`L c #ecf9fc",
"`M c #eff9fc",
"`N c #f0fafc",
"`O c #f3fbfd",
"`P c #f7fcfe",
"`Q c #f9fdfe",
"`R c #fbfefe",
"`S c #fdfeff",
"`T c #ffffff",
"`U c #7ad0e7",
"`V c #43bddd",
"`W c #97dbec",
"`X c #34b8db",
"`Y c #37b9db",
"`Z c #c4eaf4",
"`0 c #84d4e9",
"`1 c #54c3e0",
"`2 c #7bd1e7",
"`3 c #85d4e9",
"`4 c #70cde5",
"`5 c #9adced",
"`6 c #fcfefe",
"`7 c #c7ecf5",
"`8 c #dff4f9",
".` c #55c3e0",
".. c #51c2e0",
".# c #88d5ea",
".a c #3fbcdc",
".b c #3bbadc",
".c c #3ebcdc",
".d c #36b9db",
".e c #d5f0f7",
".f c #d3eff7",
".g c #59c5e1",
".h c #72cee6",
".i c #64c9e3",
".j c #8bd7ea",
".k c #4ec1df",
".l c #c2eaf4",
".m c #e4f5fa",
".n c #f8fcfe",
".o c #44bedd",
".p c #3cbbdc",
".q c #a0deee",
".r c #48bfde",
".s c #58c5e1",
".t c #4ac0de",
".u c #e1f5fa",
".v c #79d0e7",
".w c #5dc7e2",
".x c #4dc1df",
".y c #7dd2e8",
".z c #5cc6e2",
".A c #a6e0ef",
".B c #38badb",
".C c #6acbe4",
".D c #71cee6",
".E c #62c8e3",
".F c #67cae4",
".G c #33b8da",
".H c #73cee6",
".I c #6bcbe4",
".J c #cfeef7",
".K c #fcfeff",
".L c #ceeef6",
".M c #39badb",
".N c #feffff",
".O c #44bddd",
".P c #3dbbdc",
".Q c #68cae4",
".R c #4fc1df",
".S c #f5fcfd",
".T c #50c2e0",
".U c #aee3f0",
".V c #7cd1e7",
".W c #78d0e7",
".X c #77d0e7",
".Y c #76cfe6",
".Z c #75cfe6",
".0 c #40bcdd",
".1 c #ddf3f9",
".2 c #dbf2f8",
".3 c #dbf3f9",
".4 c #e2f5fa",
".5 c #41bddd",
".6 c #fafdfe",
".7 c #39b9db",
".8 c #5ec7e2",
"#` c #7cd1e6",
"#. c #6fcce5",
"## c #cfeef5",
"#a c #33b7da",
"#b c #b7e6f1",
"#c c #bfe8f3",
"#d c #36b8db",
"#e c #b1e3f1",
"#f c #d9f1f7",
"#g c #7dd1e7",
"#h c #d8f1f8",
"#i c #f5fbfd",
"#j c #63c8e3",
"#k c #5cc7e1",
"#l c #f4fafd",
"#m c #e3f5f9",
"#n c #98daeb",
"#o c #4bc0de",
"#p c #8dd6eb",
"#q c #ddf2f9",
"#r c #ccecf6",
"#s c #7fd2e7",
"#t c #3abadb",
"#u c #34b8da",
"#v c #bee9f3",
"#w c #fcfdfd",
"#x c #b1e4f0",
"#y c #51c2df",
"#z c #a0ddee",
"#A c #e5f5f9",
"#B c #99daed",
"#C c #3cbadb",
"#D c #81d3e9",
"#E c #d0eef6",
"#F c #ccedf6",
"#G c #7ed1e8",
"#H c #63c9e2",
"#I c #b3e5f1",
"#J c #78cfe6",
"#K c #4abfdd",
"#L c #97dbed",
"#M c #e2f4fa",
"#N c #000000",
"#O c #000000",
"#P c #000000",
"#Q c #000000",
"#R c #000000",
"#S c #000000",
"#T c #000000",
"#U c #000000",
"#V c #000000",
"#W c #000000",
"#X c #000000",
"#Y c #000000",
"#Z c #000000",
"#0 c #000000",
"#1 c #000000",
"#2 c #000000",
"#3 c #000000",
"#4 c #000000",
"#5 c #000000",
"#6 c #000000",
"#7 c #000000",
"#8 c #000000",
"a` c #000000",
"a. c #000000",
"a# c #000000",
"aa c #000000",
"ab c #000000",
"ac c #000000",
"ad c #000000",
"ae c #000000",
"af c #000000",
"ag c #000000",
"ah c #000000",
"ai c #000000",
"aj c #000000",
"ak c #000000",
"al c #000000",
"am c #000000",
"an c #000000",
"ao c #000000",
"ap c #000000",
"aq c #000000",
"ar c #000000",
"as c #000000",
"at c #000000",
"au c #000000",
"av c #000000",
"aw c #000000",
"ax c #000000",
"ay c #000000",
"az c #000000",
"aA c #000000",
"aB c #000000",
"aC c #000000",
"aD c #000000",
"aE c #000000",
"aF c #000000",
"aG c #000000",
"aH c #000000",
"aI c #000000",
"aJ c #000000",
"aK c #000000",
"aL c #000000",
"aM c #000000",
"aN c #000000",
"aO c #000000",
"aP c #000000",
"aQ c #000000",
"aR c #000000",
"aS c #000000",
"aT c #000000",
"aU c #000000",
"aV c #000000",
"aW c #000000",
"aX c #000000",
"aY c #000000",
"aZ c #000000",
"a0 c #000000",
"a1 c #000000",
"a2 c #000000",
"a3 c #000000",
"a4 c #000000",
"a5 c #000000",
"a6 c #000000",
"a7 c #000000",
"a8 c #000000",
/* pixels */
"```.`#`a`a`a`a`a`a`a`a`a`a`a`a`a`a`a`a`a`a`a`a`a`a`a`a`a`a`a`a`a`a`a`a`a`a`a`a`a`a`a`a`a`a`#`.``",
"`.`a`a`a`a`a`a`a`a`a`a`a`a`a`a`a`a`a`a`a`a`a`a`a`a`a`a`a`a`a`a`a`a`a`a`a`a`a`a`a`a`a`a`a`a`a`a`.",
"`#`a`a`a`a`a`a`a`a`a`a`a`a`a`a`a`a`a`a`a`a`a`a`a`a`a`a`a`a`a`a`a`a`a`a`a`a`a`a`a`a`a`a`a`a`a`a`#",
"`a`a`a`a`a`a`a`a`a`a`a`a`a`a`a`a`a`a`a`a`a`a`a`a`a`a`a`a`a`a`a`a`a`a`a`a`a`a`a`a`a`a`a`a`a`a`a`a",
"`a`a`a`a`a`a`a`a`a`a`a`a`a`a`a`a`a`a`a`a`a`a`a`a`a`a`a`a`a`a`a`a`a`a`a`a`a`a`a`a`a`a`a`a`a`a`a`a",
"`a`a`a`a`a`a`a`a`a`a`a`b`c`c`d`e`f`g`h`i`j`k`l`m`n`o`p`q`r`s`t`u`v`w`x`y`z`a`a`a`a`a`a`a`a`a`a`a",
"`a`a`a`a`a`a`a`a`a`a`a`A`B`C`D`E`F`G`H`I`J`K`L`M`N`O`B`P`Q`R`S`T`T`T`T`T`U`a`a`a`a`a`a`a`a`a`a`a",
"`a`a`a`a`a`a`a`a`a`a`V`S`W`a`a`a`a`a`a`a`a`a`a`a`a`a`a`a`a`a`a`a`z`X`Y`G`Z`a`a`a`a`a`a`a`a`a`a`a",
"`a`a`a`a`a`a`a`a`a`a`0`T`1`a`Y`2`3`3`3`3`3`3`3`3`3`3`3`3`3`3`3`3`4`a`a`5`6`#`a`a`a`a`a`a`a`a`a`a",
"`a`a`a`a`a`a`a`a`a`a`7`8`a`a.``S`T`T`T`T`T`T`T`T`T`T`T`T`T`T`T`T`N`X`a..`T.#`a`a`a`a`a`a`a`a`a`a",
"`a`a`a`a`a`a`a`a`a.a`6`t`a`a`a.b.c.c.c.c.c.c.c.c.c.c.c.c.c.c.c.c.d`a`a`a.e.f`a`a`a`a`a`a`a`a`a`a",
"`a`a`a`a`a`a`a`a`a`y`T.g`a`a`b.h.h.h.h.h.h.h.h.h.h.h.h.h.h.h.h.h.h.i`a`a.j`T.k`a`a`a`a`a`a`a`a`a",
"`a`a`a`a`a`a`a`a`a.l.m`a`a`X.n`T`T`T`T`T`T`T`T`T`T`T`T`T`T`T`T`T`T`S`#`a.o`S`v`a`a`a`a`a`a`a`a`a",
"`a`a`a`a`a`a`a`a.p`Q.q`a`a`a.r.s.s.s.s.s.s.s.s.s.s.s.s.s.s.s.s.s.s.t`a`a`a`7.u`a`a`a`a`a`a`a`a`a",
"`a`a`a`a`a`a`a`a.v`T.w`a`a.x.s.s.s.s.s.s.s.s.s.s.s.s.s.s.s.s.s.s.s.s..`a`a.y`T.z`a`a`a`a`a`a`a`a",
"`a`a`a`a`a`a`a`a`c`J`z`a.``T`T`T`T`T`T`T`T`T`T`T`T`T`T`T`T`T`T`T`T`T`T`1`a.p.n.A`a`a`a`a`a`a`a`a",
"`a`a`a`a`a`a`a.B`P`o`a`a`a.C.h.h.h.h.h.D.i.E.E.E.E.E.E.i.D.h.h.h.h.h.F`z`a`a`e`L.G`a`a`a`a`a`a`a",
"`a`a`a`a`a`a`a.H`T.F`Y`Y`Y`Y`Y`Y`Y`Y`Y`z`a`a`a`a`a`a`a`a`z`Y`Y`Y`Y`Y`Y`Y`Y`Y.H`T.I`a`a`a`a`a`a`a",
"`a`a`a`a`a`a`a.J`6`T`T`T`T`T`T`T`T`T`M.G`a`a`a`a`a`a`a`a.G`M`T`T`T`T`T`T`T`T`T.K.L`a`a`a`a`a`a`a",
"`a`a`a`a`a`a.M.N`T`T`T`T`T`T`T`T`T`T`T`u.O.P.P.P.P.P.P.O`u`T`T`T`T`T`T`T`T`T`T`T`S.M`a`a`a`a`a`a",
"`a`a`a`a`a`a.Q`T`T`T`T`T`T`T`T`T`T`T`T`T`T`T`T`T`T`T`T`T`T`T`T`T`T`T`T`T`T`T`T`T`T.Q`a`a`a`a`a`a",
"`a`a`a`a`a`a.I`T`T`T`T`T`T`T`T`T`T`T`T`T`T`T`T`T`T`T`T`T`T`T`T`T`T`T`T`T`T`T`T`T`T.I`a`a`a`a`a`a",
"`a`a`a`a`a`a.I`T`T`T`T`T`T`T`T`T`T`T`T`T`T`T`T`T`T`T`T`T`T`T`T`T`T`T`T`T`T`T`T`T`T.I`a`a`a`a`a`a",
"`a`a`a`a`a`a.I`T`T`T`T`T`T`T`T`T`T`T`T`T`T`T`T`T`T`T`T`T`T`T`T`T`T`T`T`T`T`T`T`T`T.I`a`a`a`a`a`a",
"`a`a`a`a`a`a.I`T`T`T`T`T`T`T`T`T`T`T`T`T`T`T`T`T`T`T`T`T`T`T`T`T`T`T`T`T`T`T`T`T`T.I`a`a`a`a`a`a",
"`a`a`a`a`a`a.I`T`T`T`T`T`T`T`T`T`T`j.R```T`T`T`T`T`T`T`T.S.T.U`T`T`T`T`T`T`T`T`T`T.I`a`a`a`a`a`a",
"`a`a`a`a`a`a.I`T`T`T`T`T`T`T`T`T`S.r.d```T`T`T`T`T`T`T`T`B.M.o`R`T`T`T`T`T`T`T`T`T.I`a`a`a`a`a`a",
"`a`a`a`a`a`a.I`T`T`T`T`T`T`T`T`T`c`a`V.y.V`2`U.W.X.Y.Z.H.h.0`a`e`T`T`T`T`T`T`T`T`T.I`a`a`a`a`a`a",
"`a`a`a`a`a`a.I`T`T`T`T`T`T`T`T`T`l`a`a`a`a`a`a`a`a`a`a`a`a`a`a`k`T`T`T`T`T`T`T`T`T.I`a`a`a`a`a`a",
"`a`a`a`a`a`a.I`T`T`T`T`T`T`T`T`T`T.1`C.2.3`D`E`8`8`F.4`G.m`H`K`T`T`T`T`T`T`T`T`T`T.I`a`a`a`a`a`a",
"`a`a`a`a`a`a.I`T`T`T`T`T`T`T`T`T`T`T`T`T`T`T`T`T`T`T`T`T`T`T`T`T`T`T`T`T`T`T`T`T`T.I`a`a`a`a`a`a",
"`a`a`a`a`a`a.I`T`T`T`T`T`T`T`T`T`T`T`T`T`T`T`T`T`T`T`T`T`T`T`T`T`T`T`T`T`T`T`T`T`T.I`a`a`a`a`a`a",
"`a`a`a`a`a`a.I`T`T`T`T`T`T`T`T`T`T`T`T`T`T`T`T`T`T`T`T`T`T`T`T`T`T`T`T`T`T`T`T`T`T.I`a`a`a`a`a`a",
"`a`a`a`a`a`a.C`T`T`T`T`T`T`T`T`T`T`T`T`T`T`T`T`T`T`T`T`T`T`T`T`T`T`T`T`T`T`T`T`T`T.C`a`a`a`a`a`a",
"`a`a`a`a`a`a.5.6`T`T`T`T`T`T`T`T`T`T`T`T`T`T`T`T`T`T`T`T`T`T`T`T`T`T`T`T`T`T`T`T.6.5`a`a`a`a`a`a",
"`a`a`a`a`a`a`a`W`P`T`T`T`T`T`T`T`T`T`T`T`T`T`T`T`T`T`T`T`T`T`T`T`T`T`T`T`T`T`T`P`W`a`a`a`a`a`a`a",
".7`a`a`a`a`a`a`a.P.8.8.8.8.8.8.8.8.8.8.8.8.8.8.8.8.8.8.8.8.8.8.8.8.8.8.8.8.8.8.P`a`a`a`a`a`a`a`Y",
"#``a`a`a`a`a`a`a`a`a`a`a`a`a`a`a`a`a`a`a`a`a`a`a`a`a`a`a`a`a`a`a`a`a`a`a`a`a`a`a`a`a`a`a`a`a`a#.",
"###a`a`a`a`a`a`a`a`a`a`a`a`a`a`a`a`a`a`a`a`a`a`a`a`a`a`a`a`a`a`a`a`a`a`a`a`a`a`a`a`a`a`a`a`a`a#b",
"`T#c.7`a`a`a`a`a`a`a`a`a`a`a`a`a`a`a`a`a`a`a`a`a`a`a`a`a`a`a`a`a`a`a`a`a`a`a`a`a`a`a`a`a`a#d#e`T",
"`T`T#f#g.M`a`a`a`a`a`a`a`a`a`a`a`a`a`a`a`a`a`a`a`a`a`a`a`a`a`a`a`a`a`a`a`a`a`a`a`a`a`a.7#`#h`T`T",
"`T`T`T`T#i#e#j`a`a`a`a`a`a`a`a`a`a`a`a`a`a`a`a`a`a`a`a`a`a`a`a`a`a`a`a`a`a`a`a`a`a#k`k#l`T`T`T`T",
"`T`T`T`T`T`T`T#m#n#o`a`a`a`a`a`a`a`a`a`a`a`a`a`a`a`a`a`a`a`a`a`a`a`a`a`a`a`a`##p#q`T`T`T`T`T`T`T",
"`T`T`T`T`T`T`T`T`T.N#r#s#t`a`a`a`a`a`a`a`a`a`a`a`a`a`a`a`a`a`a`a`a`a`a#u`4#v#w`T`T`T`T`T`T`T`T`T",
"`T`T`T`T`T`T`T`T`T`T`T`T#i#x.i`a`a`a`a`a`a`a`a`a`a`a`a`a`a`a`a`a`a#y#z`K`T`T`T`T`T`T`T`T`T`T`T`T",
"`T`T`T`T`T`T`T`T`T`T`T`T`T`T`T#A#B#o`a`a`a`a`a`a`a`a`a`a`a`a#C#D#E`T`T`T`T`T`T`T`T`T`T`T`T`T`T`T",
"`T`T`T`T`T`T`T`T`T`T`T`T`T`T`T`T`T.N#F#G#t`a`a`a`a`a`a`a#H#x`P`T`T`T`T`T`T`T`T`T`T`T`T`T`T`T`T`T",
"`T`T`T`T`T`T`T`T`T`T`T`T`T`T`T`T`T`T`T`T#i#I#J#K`#.C#L#M`T`T`T`T`T`T`T`T`T`T`T`T`T`T`T`T`T`T`T`T"
};
