/* XPM */
static const char *ngmanager16_xpm[] = {
/* width height num_colors chars_per_pixel */
"    16    16      256            2",
/* colors */
"`` c #5cc7e1",
"`. c #31b7da",
"`# c #35b8db",
"`a c #5dc6e2",
"`b c #5cc6e2",
"`c c #59c5e1",
"`d c #58c5e1",
"`e c #56c4e1",
"`f c #55c3e0",
"`g c #53c3e0",
"`h c #50c2e0",
"`i c #7dd2e8",
"`j c #7fd2e8",
"`k c #80d2e8",
"`l c #83d3e8",
"`m c #84d4e9",
"`n c #85d4e9",
"`o c #83d4e8",
"`p c #96daec",
"`q c #62c8e3",
"`r c #a0deee",
"`s c #33b8da",
"`t c #7cd2e7",
"`u c #76cfe6",
"`v c #36b9db",
"`w c #9bdced",
"`x c #3abadc",
"`y c #41bddd",
"`z c #8dd7ea",
"`A c #44bddd",
"`B c #9adced",
"`C c #74cee6",
"`D c #5ac5e1",
"`E c #61c8e3",
"`F c #8bd7ea",
"`G c #66cae3",
"`H c #60c7e2",
"`I c #6fcde5",
"`J c #b4e5f1",
"`K c #ffffff",
"`L c #bbe7f3",
"`M c #77d0e7",
"`N c #afe3f0",
"`O c #ccedf6",
"`P c #e8f7fb",
"`Q c #e5f6fa",
"`R c #c6ebf5",
"`S c #7ed2e8",
"`T c #83d4e9",
"`U c #80d3e8",
"`V c #7ad0e7",
"`W c #c5ebf5",
"`X c #60c7e3",
"`Y c #3ebcdc",
"`Z c #46bedd",
"`0 c #35b8da",
"`1 c #74cde6",
"`2 c #dbf1f7",
"`3 c #f0f9fc",
"`4 c #a8e1ef",
"`5 c #5bc5e1",
"`6 c #56c3e0",
"`7 c #a4deef",
"`8 c #eff9fc",
".` c #ddf2f9",
".. c #90d8ea",
".# c #55c2e0",
".a c #52c3df",
".b c #86d5ea",
".c c #d6f1f8",
".d c #000000",
".e c #000000",
".f c #000000",
".g c #000000",
".h c #000000",
".i c #000000",
".j c #000000",
".k c #000000",
".l c #000000",
".m c #000000",
".n c #000000",
".o c #000000",
".p c #000000",
".q c #000000",
".r c #000000",
".s c #000000",
".t c #000000",
".u c #000000",
".v c #000000",
".w c #000000",
".x c #000000",
".y c #000000",
".z c #000000",
".A c #000000",
".B c #000000",
".C c #000000",
".D c #000000",
".E c #000000",
".F c #000000",
".G c #000000",
".H c #000000",
".I c #000000",
".J c #000000",
".K c #000000",
".L c #000000",
".M c #000000",
".N c #000000",
".O c #000000",
".P c #000000",
".Q c #000000",
".R c #000000",
".S c #000000",
".T c #000000",
".U c #000000",
".V c #000000",
".W c #000000",
".X c #000000",
".Y c #000000",
".Z c #000000",
".0 c #000000",
".1 c #000000",
".2 c #000000",
".3 c #000000",
".4 c #000000",
".5 c #000000",
".6 c #000000",
".7 c #000000",
".8 c #000000",
"#` c #000000",
"#. c #000000",
"## c #000000",
"#a c #000000",
"#b c #000000",
"#c c #000000",
"#d c #000000",
"#e c #000000",
"#f c #000000",
"#g c #000000",
"#h c #000000",
"#i c #000000",
"#j c #000000",
"#k c #000000",
"#l c #000000",
"#m c #000000",
"#n c #000000",
"#o c #000000",
"#p c #000000",
"#q c #000000",
"#r c #000000",
"#s c #000000",
"#t c #000000",
"#u c #000000",
"#v c #000000",
"#w c #000000",
"#x c #000000",
"#y c #000000",
"#z c #000000",
"#A c #000000",
"#B c #000000",
"#C c #000000",
"#D c #000000",
"#E c #000000",
"#F c #000000",
"#G c #000000",
"#H c #000000",
"#I c #000000",
"#J c #000000",
"#K c #000000",
"#L c #000000",
"#M c #000000",
"#N c #000000",
"#O c #000000",
"#P c #000000",
"#Q c #000000",
"#R c #000000",
"#S c #000000",
"#T c #000000",
"#U c #000000",
"#V c #000000",
"#W c #000000",
"#X c #000000",
"#Y c #000000",
"#Z c #000000",
"#0 c #000000",
"#1 c #000000",
"#2 c #000000",
"#3 c #000000",
"#4 c #000000",
"#5 c #000000",
"#6 c #000000",
"#7 c #000000",
"#8 c #000000",
"a` c #000000",
"a. c #000000",
"a# c #000000",
"aa c #000000",
"ab c #000000",
"ac c #000000",
"ad c #000000",
"ae c #000000",
"af c #000000",
"ag c #000000",
"ah c #000000",
"ai c #000000",
"aj c #000000",
"ak c #000000",
"al c #000000",
"am c #000000",
"an c #000000",
"ao c #000000",
"ap c #000000",
"aq c #000000",
"ar c #000000",
"as c #000000",
"at c #000000",
"au c #000000",
"av c #000000",
"aw c #000000",
"ax c #000000",
"ay c #000000",
"az c #000000",
"aA c #000000",
"aB c #000000",
"aC c #000000",
"aD c #000000",
"aE c #000000",
"aF c #000000",
"aG c #000000",
"aH c #000000",
"aI c #000000",
"aJ c #000000",
"aK c #000000",
"aL c #000000",
"aM c #000000",
"aN c #000000",
"aO c #000000",
"aP c #000000",
"aQ c #000000",
"aR c #000000",
"aS c #000000",
"aT c #000000",
"aU c #000000",
"aV c #000000",
"aW c #000000",
"aX c #000000",
"aY c #000000",
"aZ c #000000",
"a0 c #000000",
"a1 c #000000",
"a2 c #000000",
"a3 c #000000",
"a4 c #000000",
"a5 c #000000",
"a6 c #000000",
"a7 c #000000",
"a8 c #000000",
/* pixels */
"```.`.`.`.`.`.`.`.`.`.`.`.`.`.``",
"`.`.`.`#`a`b`c`d`e`f`g`h`.`.`.`.",
"`.`.`.`i`j`i`k`l`m`n`o`p`q`.`.`.",
"`.`.`.`r`s`t`n`n`n`n`u`v`w`.`.`.",
"`.`.`x`p`y`z`z`z`z`z`z`A`B`#`.`.",
"`.`.`C`D`E`F`t`G`G`t`F`E`H`I`.`.",
"`.`.`J`K`K`K`L`M`M`L`K`K`K`N`.`.",
"`.`.`O`K`K`K`K`K`K`K`K`K`K`O`.`.",
"`.`.`O`K`K`P`P`K`K`P`Q`K`K`O`.`.",
"`.`.`O`K`K`R`S`T`U`V`W`K`K`O`.`.",
"`.`.`O`K`K`K`K`K`K`K`K`K`K`O`.`.",
"`.`.`w`K`K`K`K`K`K`K`K`K`K`w`.`.",
"`X`.`.`Y`Y`Y`Y`Y`Y`Y`Y`Y`Y`.`.`Z",
"`Q`C`0`.`.`.`.`.`.`.`.`.`.`0`1`2",
"`K`K`3`4`5`.`.`.`.`.`.`6`7`8`K`K",
"`K`K`K`K`K.`...#.a.b.c`K`K`K`K`K"
};
