/* XPM */
static const char *ngmanager64_xpm[] = {
/* width height num_colors chars_per_pixel */
"    64    64      256            2",
/* colors */
"`` c #ffffff",
"`. c #c5eaf5",
"`# c #5fc7e2",
"`a c #37b9db",
"`b c #31b7da",
"`c c #5cc7e1",
"`d c #7ad0e7",
"`e c #edf9fc",
"`f c #f0fafc",
"`g c #eef9fc",
"`h c #ecf8fc",
"`i c #eaf8fb",
"`j c #e8f7fb",
"`k c #e5f6fa",
"`l c #e4f5fa",
"`m c #e1f5fa",
"`n c #dff4f9",
"`o c #ddf3f9",
"`p c #dbf3f9",
"`q c #d9f2f8",
"`r c #d7f1f8",
"`s c #d5f0f7",
"`t c #d3eff7",
"`u c #d1eff7",
"`v c #cfeef6",
"`w c #ccedf6",
"`x c #caedf6",
"`y c #c8ecf5",
"`z c #c6ebf5",
"`A c #c4eaf4",
"`B c #c2eaf4",
"`C c #c0e9f4",
"`D c #bee8f3",
"`E c #bce8f3",
"`F c #bae7f3",
"`G c #b8e6f2",
"`H c #b5e5f2",
"`I c #b4e5f2",
"`J c #90d8eb",
"`K c #33b8da",
"`L c #eff9fc",
"`M c #87d5e9",
"`N c #66cae4",
"`O c #3fbcdc",
"`P c #40bcdd",
"`Q c #43bddd",
"`R c #44bedd",
"`S c #47bfde",
"`T c #48bfde",
"`U c #4ac0de",
"`V c #4cc1df",
"`W c #4ec1df",
"`X c #51c2e0",
"`Y c #52c3e0",
"`Z c #55c3e0",
"`0 c #56c4e1",
"`1 c #58c5e1",
"`2 c #5ac5e1",
"`3 c #5cc6e2",
"`4 c #5ec7e2",
"`5 c #60c7e2",
"`6 c #62c8e3",
"`7 c #64c9e3",
"`8 c #66c9e3",
".` c #68cae4",
".. c #6acbe4",
".# c #6ccce5",
".a c #6ecce5",
".b c #70cde5",
".c c #72cee6",
".d c #73cee6",
".e c #76cfe6",
".f c #9fddee",
".g c #d0eff7",
".h c #a9e1f0",
".i c #98dbed",
".j c #39badb",
".k c #f5fcfd",
".l c #55c4e1",
".m c #3cbbdc",
".n c #94daec",
".o c #a5e0ef",
".p c #81d3e8",
".q c #95daec",
".r c #e0f4f9",
".s c #9ddded",
".t c #8bd7ea",
".u c #ecf9fc",
".v c #59c5e1",
".w c #32b7da",
".x c #a6e0ef",
".y c #a4dfef",
".z c #5dc7e2",
".A c #35b8db",
".B c #85d4e9",
".C c #82d3e9",
".D c #3abadc",
".E c #ebf8fb",
".F c #a1deee",
".G c #a3dfee",
".H c #7bd1e7",
".I c #93d9ec",
".J c #e4f6fa",
".K c #ace2f0",
".L c #98dbec",
".M c #b1e4f1",
".N c #f4fbfd",
".O c #38badb",
".P c #a8e1ef",
".Q c #41bddd",
".R c #65c9e3",
".S c #89d6ea",
".T c #9cdced",
".U c #fcfefe",
".V c #fbfefe",
".W c #ade2f0",
".X c #dcf3f9",
".Y c #34b8da",
".Z c #7ed2e8",
".0 c #fdfeff",
".1 c #53c3e0",
".2 c #4fc2df",
".3 c #c1e9f4",
".4 c #97dbec",
".5 c #bfe9f4",
".6 c #f1fafc",
".7 c #86d5e9",
".8 c #84d4e9",
"#` c #e6f6fa",
"#. c #91d9eb",
"## c #feffff",
"#a c #50c2e0",
"#b c #4bc0df",
"#c c #6fcde5",
"#d c #92d9eb",
"#e c #96daec",
"#f c #94d9ec",
"#g c #8fd8eb",
"#h c #8dd7eb",
"#i c #8cd7ea",
"#j c #8ad6ea",
"#k c #6bcbe4",
"#l c #87d5ea",
"#m c #45bede",
"#n c #46bede",
"#o c #49bfde",
"#p c #4cc0df",
"#q c #4dc1df",
"#r c #4fc1df",
"#s c #bde8f3",
"#t c #71cde5",
"#u c #33b7da",
"#v c #4fc1e0",
"#w c #8fd7eb",
"#x c #a4deef",
"#y c #f2f9fc",
"#z c #4abfdd",
"#A c #5bc5e1",
"#B c #bde8f2",
"#C c #f7fcfe",
"#D c #78d0e6",
"#E c #6fcce5",
"#F c #def2f9",
"#G c #e8f6fb",
"#H c #9cdcec",
"#I c #4bc0de",
"#J c #99daed",
"#K c #e7f7fb",
"#L c #d0eef6",
"#M c #82d3e8",
"#N c #3dbbdc",
"#O c #38b9db",
"#P c #7bd0e7",
"#Q c #c9ecf4",
"#R c #f9fcfd",
"#S c #b7e5f2",
"#T c #6acae4",
"#U c #aae2ef",
"#V c #f3fbfd",
"#W c #e8f6fa",
"#X c #51c2df",
"#Y c #41bcdd",
"#Z c #8bd6e9",
"#0 c #daf2f8",
"#1 c #84d4e8",
"#2 c #6ecce4",
"#3 c #bde7f3",
"#4 c #b7e6f1",
"#5 c #4ec0df",
"#6 c #9eddee",
"#7 c #e9f7fb",
"#8 c #7fd2e7",
"a` c #cdeef5",
"a. c #d1eef7",
"a# c #3dbcdc",
"aa c #5fc7e1",
"ab c #afe3f1",
"ac c #f5fbfd",
"ad c #44bddc",
"ae c #dff3f9",
"af c #a8e0ee",
"ag c #41bcdc",
"ah c #68c9e4",
"ai c #fcfdfd",
"aj c #000000",
"ak c #000000",
"al c #000000",
"am c #000000",
"an c #000000",
"ao c #000000",
"ap c #000000",
"aq c #000000",
"ar c #000000",
"as c #000000",
"at c #000000",
"au c #000000",
"av c #000000",
"aw c #000000",
"ax c #000000",
"ay c #000000",
"az c #000000",
"aA c #000000",
"aB c #000000",
"aC c #000000",
"aD c #000000",
"aE c #000000",
"aF c #000000",
"aG c #000000",
"aH c #000000",
"aI c #000000",
"aJ c #000000",
"aK c #000000",
"aL c #000000",
"aM c #000000",
"aN c #000000",
"aO c #000000",
"aP c #000000",
"aQ c #000000",
"aR c #000000",
"aS c #000000",
"aT c #000000",
"aU c #000000",
"aV c #000000",
"aW c #000000",
"aX c #000000",
"aY c #000000",
"aZ c #000000",
"a0 c #000000",
"a1 c #000000",
"a2 c #000000",
"a3 c #000000",
"a4 c #000000",
"a5 c #000000",
"a6 c #000000",
"a7 c #000000",
"a8 c #000000",
/* pixels */
"```.`#`a`b`b`b`b`b`b`b`b`b`b`b`b`b`b`b`b`b`b`b`b`b`b`b`b`b`b`b`b`b`b`b`b`b`b`b`b`b`b`b`b`b`b`b`b`b`b`b`b`b`b`b`b`b`b`b`b`a`#`.``",
"`.`b`b`b`b`b`b`b`b`b`b`b`b`b`b`b`b`b`b`b`b`b`b`b`b`b`b`b`b`b`b`b`b`b`b`b`b`b`b`b`b`b`b`b`b`b`b`b`b`b`b`b`b`b`b`b`b`b`b`b`b`b`b`.",
"`c`b`b`b`b`b`b`b`b`b`b`b`b`b`b`b`b`b`b`b`b`b`b`b`b`b`b`b`b`b`b`b`b`b`b`b`b`b`b`b`b`b`b`b`b`b`b`b`b`b`b`b`b`b`b`b`b`b`b`b`b`b`b`c",
"`a`b`b`b`b`b`b`b`b`b`b`b`b`b`b`b`b`b`b`b`b`b`b`b`b`b`b`b`b`b`b`b`b`b`b`b`b`b`b`b`b`b`b`b`b`b`b`b`b`b`b`b`b`b`b`b`b`b`b`b`b`b`b`a",
"`b`b`b`b`b`b`b`b`b`b`b`b`b`b`b`b`b`b`b`b`b`b`b`b`b`b`b`b`b`b`b`b`b`b`b`b`b`b`b`b`b`b`b`b`b`b`b`b`b`b`b`b`b`b`b`b`b`b`b`b`b`b`b`b",
"`b`b`b`b`b`b`b`b`b`b`b`b`b`b`b`b`b`b`b`b`b`b`b`b`b`b`b`b`b`b`b`b`b`b`b`b`b`b`b`b`b`b`b`b`b`b`b`b`b`b`b`b`b`b`b`b`b`b`b`b`b`b`b`b",
"`b`b`b`b`b`b`b`b`b`b`b`b`b`b`b`b`b`b`b`b`b`b`b`b`b`b`b`b`b`b`b`b`b`b`b`b`b`b`b`b`b`b`b`b`b`b`b`b`b`b`b`b`b`b`b`b`b`b`b`b`b`b`b`b",
"`b`b`b`b`b`b`b`b`b`b`b`b`b`b`b`d`e`f`g`h`i`j`k`l`m`n`o`p`q`r`s`t`u`v`w`x`y`z`A`B`C`D`E`F`G`H`I`J`K`b`b`b`b`b`b`b`b`b`b`b`b`b`b`b",
"`b`b`b`b`b`b`b`b`b`b`b`b`b`b`K`L`````````````````````````````````````````````````````````````````M`b`b`b`b`b`b`b`b`b`b`b`b`b`b`b",
"`b`b`b`b`b`b`b`b`b`b`b`b`b`b`N```p`O`P`Q`R`S`T`U`V`W`X`Y`Z`0`1`2`3`4`5`6`7`8.`...#.a.b.c.d.e.f``.g`b`b`b`b`b`b`b`b`b`b`b`b`b`b`b",
"`b`b`b`b`b`b`b`b`b`b`b`b`b`b.h``.i`b`b`b`b`b`b`b`b`b`b`b`b`b`b`b`b`b`b`b`b`b`b`b`b`b`b`b`b`b.j.k```V`b`b`b`b`b`b`b`b`b`b`b`b`b`b",
"`b`b`b`b`b`b`b`b`b`b`b`b`b`K`h``.l`b`b.m.n.o.o.o.o.o.o.o.o.o.o.o.o.o.o.o.o.o.o.o.o.o.o.p`b`b`b`H``.q`b`b`b`b`b`b`b`b`b`b`b`b`b`b",
"`b`b`b`b`b`b`b`b`b`b`b`b`b`6``.r`b`b`b.d````````````````````````````````````````````````.m`b`b..```n`b`b`b`b`b`b`b`b`b`b`b`b`b`b",
"`b`b`b`b`b`b`b`b`b`b`b`b`b.o``.s`b`b`b`K.p.t.t.t.t.t.t.t.t.t.t.t.t.t.t.t.t.t.t.t.t.t.t`N`b`b`b`K.u``.v`b`b`b`b`b`b`b`b`b`b`b`b`b",
"`b`b`b`b`b`b`b`b`b`b`b`b.w`j```2`b`b`b`b`b`b`b`b`b`b`b`b`b`b`b`b`b`b`b`b`b`b`b`b`b`b`b`b`b`b`b`b.x``.y`b`b`b`b`b`b`b`b`b`b`b`b`b",
"`b`b`b`b`b`b`b`b`b`b`b`b.z```k`b`b`b.A.e.B.B.B.B.B.B.B.B.B.B.B.B.B.B.B.B.B.B.B.B.B.B.B.B.C.D`b`b`3``.E`K`b`b`b`b`b`b`b`b`b`b`b`b",
"`b`b`b`b`b`b`b`b`b`b`b`b.F``.G`b`b`b.H````````````````````````````````````````````````````.I`b`b`b`m``.``b`b`b`b`b`b`b`b`b`b`b`b",
"`b`b`b`b`b`b`b`b`b`b`b`b.J```#`b`b`b.m.G.K.K.K.K.K.K.K.K.K.K.K.K.K.K.K.K.K.K.K.K.K.K.K.K.y`U`b`b`b.L``.M`b`b`b`b`b`b`b`b`b`b`b`b",
"`b`b`b`b`b`b`b`b`b`b`b.v```i.w`b`b`b`b`b`b`b`b`b`b`b`b`b`b`b`b`b`b`b`b`b`b`b`b`b`b`b`b`b`b`b`b`b`b`W``.N.O`b`b`b`b`b`b`b`b`b`b`b",
"`b`b`b`b`b`b`b`b`b`b`b.s``.P`b`b`b.Q.R.R.R.R.R.R.R.R.R.R.R.R.R.R.R.R.R.R.R.R.R.R.R.R.R.R.R.R`S`b`b`b`t``.e`b`b`b`b`b`b`b`b`b`b`b",
"`b`b`b`b`b`b`b`b`b`b`b.r``.R`b`b`b`e`````````````````````````````````````````````````````````i`b`b`b.S```C`b`b`b`b`b`b`b`b`b`b`b",
"`b`b`b`b`b`b`b`b`b`b.l```e`K`b`b`b.T`w`w`w`w`w`w`w`w`w`w`w`w`w`w`w`w`w`w`w`w`w`w`w`w`w`w`w`w.i`b`b`b`Q.U.V`P`b`b`b`b`b`b`b`b`b`b",
"`b`b`b`b`b`b`b`b`b`b.i``.W`b`b`b`b`b`b`b`b`b`b`b`b`b`b`b`b`b`b`b`b`b`b`b`b`b`b`b`b`b`b`b`b`b`b`b`b`b`b`A``.B`b`b`b`b`b`b`b`b`b`b",
"`b`b`b`b`b`b`b`b`b`b.X``.a`a`a`a`a`a`a`a`a`a`a`a`a.Y`b`b`b`b`b`b`b`b`b`b`b`b.Y`a`a`a`a`a`a`a`a`a`a`a`a.Z```v`b`b`b`b`b`b`b`b`b`b",
"`b`b`b`b`b`b`b`b`b`0``.0``````````````````````````.1`b`b`b`b`b`b`b`b`b`b`b`b.1``````````````````````````.0``.2`b`b`b`b`b`b`b`b`b",
"`b`b`b`b`b`b`b`b`b.3``````````````````````````````.4`b`b`b`b`b`b`b`b`b`b`b`b.4``````````````````````````````.5`b`b`b`b`b`b`b`b`b",
"`b`b`b`b`b`b`b`b`b.6``````````````````````````````.0`C.7.8.8.8.8.8.8.8.8.7`C.0``````````````````````````````#``b`b`b`b`b`b`b`b`b",
"`b`b`b`b`b`b`b`b`a`````````````````````````````````````````````````````````````````````````````````````````````a`b`b`b`b`b`b`b`b",
"`b`b`b`b`b`b`b`b`a`````````````````````````````````````````````````````````````````````````````````````````````a`b`b`b`b`b`b`b`b",
"`b`b`b`b`b`b`b`b`a`````````````````````````````````````````````````````````````````````````````````````````````a`b`b`b`b`b`b`b`b",
"`b`b`b`b`b`b`b`b`a`````````````````````````````````````````````````````````````````````````````````````````````a`b`b`b`b`b`b`b`b",
"`b`b`b`b`b`b`b`b`a`````````````````````````````````````````````````````````````````````````````````````````````a`b`b`b`b`b`b`b`b",
"`b`b`b`b`b`b`b`b`a`````````````````````````````````````````````````````````````````````````````````````````````a`b`b`b`b`b`b`b`b",
"`b`b`b`b`b`b`b`b`a`````````````````````````````q.n.E````````````````````````.u#.`p`````````````````````````````a`b`b`b`b`b`b`b`b",
"`b`b`b`b`b`b`b`b`a``````````````````````````###a`b#.````````````````````````.L`b#b.0```````````````````````````a`b`b`b`b`b`b`b`b",
"`b`b`b`b`b`b`b`b`a```````````````````````````z`b`b`H````````````````````````.3`b`b.3```````````````````````````a`b`b`b`b`b`b`b`b",
"`b`b`b`b`b`b`b`b`a``````````````````````````#c`b.w#d.4#e.n#f.I#d#.`J`J#g#h#i#j`K`b#k```````````````````````````a`b`b`b`b`b`b`b`b",
"`b`b`b`b`b`b`b`b`a```````````````````````````a`b`b`b`b`b`b`b`b`b`b`b`b`b`b`b`b`b`b.A.0`````````````````````````a`b`b`b`b`b`b`b`b",
"`b`b`b`b`b`b`b`b`a``````````````````````````#l`R#m#n`S`S`T`T#o`U#b#p`V#q`W`W#r#a`X#e```````````````````````````a`b`b`b`b`b`b`b`b",
"`b`b`b`b`b`b`b`b`a`````````````````````````````````````````````````````````````````````````````````````````````a`b`b`b`b`b`b`b`b",
"`b`b`b`b`b`b`b`b`a`````````````````````````````````````````````````````````````````````````````````````````````a`b`b`b`b`b`b`b`b",
"`b`b`b`b`b`b`b`b`a`````````````````````````````````````````````````````````````````````````````````````````````a`b`b`b`b`b`b`b`b",
"`b`b`b`b`b`b`b`b`a`````````````````````````````````````````````````````````````````````````````````````````````a`b`b`b`b`b`b`b`b",
"`b`b`b`b`b`b`b`b`a`````````````````````````````````````````````````````````````````````````````````````````````a`b`b`b`b`b`b`b`b",
"`b`b`b`b`b`b`b`b`a`````````````````````````````````````````````````````````````````````````````````````````````a`b`b`b`b`b`b`b`b",
"`b`b`b`b`b`b`b`b`K.u````````````````````````````````````````````````````````````````````````````````````````.u`K`b`b`b`b`b`b`b`b",
"`b`b`b`b`b`b`b`b`b.s````````````````````````````````````````````````````````````````````````````````````````.s`b`b`b`b`b`b`b`b`b",
"`b`b`b`b`b`b`b`b`b#n#s.U````````````````````````````````````````````````````````````````````````````````.U#s#n`b`b`b`b`b`b`b`b`b",
".w`b`b`b`b`b`b`b`b`b`b`S#t.c.c.c.c.c.c.c.c.c.c.c.c.c.c.c.c.c.c.c.c.c.c.c.c.c.c.c.c.c.c.c.c.c.c.c.c.c.c#t`S`b`b`b`b`b`b`b`b`b`b#u",
"#v`b`b`b`b`b`b`b`b`b`b`b`b`b`b`b`b`b`b`b`b`b`b`b`b`b`b`b`b`b`b`b`b`b`b`b`b`b`b`b`b`b`b`b`b`b`b`b`b`b`b`b`b`b`b`b`b`b`b`b`b`b`b`7",
"#w`b`b`b`b`b`b`b`b`b`b`b`b`b`b`b`b`b`b`b`b`b`b`b`b`b`b`b`b`b`b`b`b`b`b`b`b`b`b`b`b`b`b`b`b`b`b`b`b`b`b`b`b`b`b`b`b`b`b`b`b`b`b#x",
"#y#z`b`b`b`b`b`b`b`b`b`b`b`b`b`b`b`b`b`b`b`b`b`b`b`b`b`b`b`b`b`b`b`b`b`b`b`b`b`b`b`b`b`b`b`b`b`b`b`b`b`b`b`b`b`b`b`b`b`b`b`b`a`k",
"``.E#A`b`b`b`b`b`b`b`b`b`b`b`b`b`b`b`b`b`b`b`b`b`b`b`b`b`b`b`b`b`b`b`b`b`b`b`b`b`b`b`b`b`b`b`b`b`b`b`b`b`b`b`b`b`b`b`b`b`b.Y#B``",
"````#C#D.w`b`b`b`b`b`b`b`b`b`b`b`b`b`b`b`b`b`b`b`b`b`b`b`b`b`b`b`b`b`b`b`b`b`b`b`b`b`b`b`b`b`b`b`b`b`b`b`b`b`b`b`b`b`b.w#E#F````",
"````````#G#H#v`b`b`b`b`b`b`b`b`b`b`b`b`b`b`b`b`b`b`b`b`b`b`b`b`b`b`b`b`b`b`b`b`b`b`b`b`b`b`b`b`b`b`b`b`b`b`b`b`b`b#I#J#K````````",
"``````````````#L#M#N`b`b`b`b`b`b`b`b`b`b`b`b`b`b`b`b`b`b`b`b`b`b`b`b`b`b`b`b`b`b`b`b`b`b`b`b`b`b`b`b`b`b`b`b#O#P#Q##````````````",
"``````````````````#R#S#T.w`b`b`b`b`b`b`b`b`b`b`b`b`b`b`b`b`b`b`b`b`b`b`b`b`b`b`b`b`b`b`b`b`b`b`b`b`b`b`b#A#U#V``````````````````",
"````````````````````````#W#H#X`b`b`b`b`b`b`b`b`b`b`b`b`b`b`b`b`b`b`b`b`b`b`b`b`b`b`b`b`b`b`b`b`b`b#Y#Z#0````````````````````````",
"``````````````````````````````#L#1#N`b`b`b`b`b`b`b`b`b`b`b`b`b`b`b`b`b`b`b`b`b`b`b`b`b`b`b`b#u#2#3.V````````````````````````````",
"``````````````````````````````````#R#4...w`b`b`b`b`b`b`b`b`b`b`b`b`b`b`b`b`b`b`b`b`b`b`b#5#6#7``````````````````````````````````",
"````````````````````````````````````````#W#6#X`b`b`b`b`b`b`b`b`b`b`b`b`b`b`b`b`b`b.j#8a`````````````````````````````````````````",
"``````````````````````````````````````````````a.#1a#`b`b`b`b`b`b`b`b`b`b`b`b`baaabac````````````````````````````````````````````",
"``````````````````````````````````````````````````#R#4...w`b`b`b`b`b`b`bad#wae``````````````````````````````````````````````````",
"````````````````````````````````````````````````````````#Waf#D#Iagah#.`Bai``````````````````````````````````````````````````````"
};
