/* XPM */
static const char *ngw_layer_16_xpm[] = {
/* columns rows colors chars-per-pixel */
"16 16 137 2",
"   c #04070B",
".  c #0D0F11",
"X  c #09111B",
"o  c #131416",
"O  c #15191C",
"+  c #16191C",
"@  c #171B1F",
"#  c #0E1721",
"$  c #0F1A26",
"%  c #131B25",
"&  c #191D21",
"*  c #1A1E21",
"=  c #191C22",
"-  c #1B1E22",
";  c #1B1F23",
":  c #131D28",
">  c #101C2A",
",  c #111D2B",
"<  c #121E2D",
"1  c #101D2E",
"2  c #101E2F",
"3  c #1C2024",
"4  c #1D2024",
"5  c #14202D",
"6  c #15212E",
"7  c #16222F",
"8  c #132132",
"9  c #172330",
"0  c #182431",
"q  c #192531",
"w  c #182636",
"e  c #1C2D40",
"r  c #25374D",
"t  c #2B3A4D",
"y  c #2C3B4E",
"u  c #2E3C4E",
"i  c #2F3D4F",
"p  c #233953",
"a  c #223A57",
"s  c #253B54",
"d  c #253C57",
"f  c #303F50",
"g  c #2D4057",
"h  c #2E445D",
"j  c #314051",
"k  c #334252",
"l  c #344353",
"z  c #324357",
"x  c #364454",
"c  c #374555",
"v  c #32475E",
"b  c #2E4460",
"n  c #354961",
"m  c #314A67",
"M  c #2E517C",
"N  c #2F537F",
"B  c #325177",
"V  c #3A5470",
"C  c #37577E",
"Z  c #2D5385",
"A  c #325582",
"S  c #365884",
"D  c #3B5A80",
"F  c #395B86",
"G  c #325B8D",
"H  c #3C5E88",
"J  c #365E90",
"K  c #3F608B",
"L  c #3B608C",
"P  c #396192",
"I  c #3C6496",
"U  c #35649E",
"Y  c #3665A2",
"T  c #466385",
"R  c #496483",
"E  c #42648C",
"W  c #43658C",
"Q  c #44688D",
"!  c #486A90",
"~  c #486A92",
"^  c #4C6D93",
"/  c #4F6F95",
"(  c #416898",
")  c #41699A",
"_  c #436B9A",
"`  c #466D9E",
"'  c #486F9C",
"]  c #4E7096",
"[  c #4C739F",
"{  c #517297",
"}  c #567599",
"|  c #55759B",
" . c #4070AC",
".. c #4474AF",
"X. c #4776AF",
"o. c #4A78AF",
"O. c #5076A2",
"+. c #527AA5",
"@. c #557BAA",
"#. c #567DA8",
"$. c #4777B1",
"%. c #4878B2",
"&. c #4E7CB2",
"*. c #4D7CB4",
"=. c #517DB3",
"-. c #5C81AB",
";. c #5683B5",
":. c #5581B6",
">. c #5180B8",
",. c #5684BA",
"<. c #5685BB",
"1. c #5984B9",
"2. c #5C86B9",
"3. c #5E87B8",
"4. c #5A89BE",
"5. c #5D88BC",
"6. c #638BB8",
"7. c #658CB9",
"8. c #618BBE",
"9. c #5F8DC2",
"0. c #6590C1",
"q. c #6490C2",
"w. c #6590C3",
"e. c #6391C5",
"r. c #6994C4",
"t. c #6995C7",
"y. c #6D97C7",
"u. c #6896C9",
"i. c #6D97C8",
"p. c #6F9DCD",
"a. c #719AC7",
"s. c #719BCA",
"d. c #709BCB",
"f. c #709CCE",
"g. c #709DCE",
"h. c #759FCD",
"j. c None",
/* pixels */
"j.j.j.j.j.j.j.j.j.j.j.j.j.j.j.j.",
"j.f.| { / ^ ! Q E E H F S A U j.",
"j.p.o c c k k j i i u u t & Z j.",
"j.p.@ h.s.y.r.0.3.5.1.:.=.w Z j.",
"j.p.O a.s.y.r.V % 3.1.:.` X Z j.",
"j.p.@ z | y.r.] g 5.1.D a 1 Z j.",
"j.p.& h.R v 7.0.9.3.b B  .2 Z j.",
"j.p.& h.s.7.v T @.r I $. .2 Z j.",
"j.p.& h.s.i.0.W e o.$.1 M 1 Z j.",
"j.p.4 h.s.0.;.,.s *.$.2 N 1 Z j.",
"j.p.4 h.u.h > ,.C H %.$. .2 Z j.",
"j.p.4 f.e.! m ,.&.d %.$. .2 Z j.",
"j.p.3 u.e.9.4.,.=.p o... .2 Z j.",
"j.p.. 0 0 9 7 7 8 # $ 1 >   Z j.",
"j.f.-.#.+.O.[ [ _ ( I P J G Y j.",
"j.j.j.j.j.j.j.j.j.j.j.j.j.j.j.j."
};
