/* XPM */
static const char *ngw_conn_guest_48_xpm[] = {
/* columns rows colors chars-per-pixel */
"48 48 205 2",
"   c #333333",
".  c #3E3E34",
"X  c #3D3D3D",
"o  c #454435",
"O  c #514F36",
"+  c #534C3C",
"@  c #605635",
"#  c #706D25",
"$  c #756630",
"%  c #3E454D",
"&  c #3D4652",
"*  c #3F4954",
"=  c #3B4D64",
"-  c #444444",
";  c #4B4B4B",
":  c #5F5B4F",
">  c #545454",
",  c #5C5C5C",
"<  c #7D7745",
"1  c #505760",
"2  c #495D76",
"3  c #4B5F79",
"4  c #5A6068",
"5  c #4E627C",
"6  c #50647E",
"7  c #646464",
"8  c #6D6D6D",
"9  c #6A7765",
"0  c #6D7962",
"q  c #7A7563",
"w  c #737373",
"e  c #7B7B7B",
"r  c #967E1E",
"t  c #867433",
"y  c #877B51",
"u  c #8F8A1B",
"i  c #908B1B",
"p  c #B58F04",
"a  c #B89206",
"s  c #BC9A0C",
"d  c #B19116",
"f  c #BE9C12",
"g  c #ADA718",
"h  c #B1AA18",
"j  c #9C8737",
"k  c #978A35",
"l  c #9A873C",
"z  c #AB9127",
"x  c #B39A2E",
"c  c #BDA329",
"v  c #C09A0A",
"b  c #C19F14",
"n  c #C5BD0C",
"m  c #C8BF0D",
"M  c #C8A71A",
"N  c #C6A81C",
"B  c #C9A91B",
"V  c #C3BC10",
"C  c #C6AA20",
"Z  c #C9AE23",
"A  c #CBB225",
"S  c #CDBD24",
"D  c #CEBD28",
"F  c #D2B62A",
"G  c #D4BE2C",
"H  c #C3AB32",
"J  c #CDB83F",
"K  c #D2BC34",
"L  c #D1BB38",
"P  c #CCC30A",
"I  c #D0C70B",
"U  c #D4CB0C",
"Y  c #D8CF0D",
"T  c #DBD20E",
"R  c #CCC313",
"E  c #CFC51D",
"W  c #D6CD15",
"Q  c #D0C71B",
"!  c #D8CE18",
"~  c #DFD511",
"^  c #DBD11A",
"/  c #E0D70F",
"(  c #E3DA1C",
")  c #D5CB23",
"_  c #D8CE24",
"`  c #D5C32B",
"'  c #DCD322",
"]  c #DFD42B",
"[  c #D6C333",
"{  c #D9C435",
"}  c #D7C33D",
"|  c #E3DB2B",
" . c #E6DC31",
".. c #E7DE3C",
"X. c #EAE03F",
"o. c #928C42",
"O. c #ADA141",
"+. c #838078",
"@. c #C2A741",
"#. c #C6B74C",
"$. c #C7B84B",
"%. c #D6CF48",
"&. c #D7D045",
"*. c #DAD444",
"=. c #E4DD45",
"-. c #EDDF46",
";. c #E6DF4D",
":. c #ECDE4E",
">. c #EDE545",
",. c #E7E04D",
"<. c #EBE44A",
"1. c #EFE84E",
"2. c #F4EC46",
"3. c #F2EA4B",
"4. c #F8EF48",
"5. c #F9F147",
"6. c #FDF449",
"7. c #ECE552",
"8. c #F1E251",
"9. c #F6E954",
"0. c #F8ED55",
"q. c #FDF452",
"w. c #FEF65B",
"e. c #365D8E",
"r. c #385D8D",
"t. c #3C6191",
"y. c #3F6896",
"u. c #34619A",
"i. c #3465A4",
"p. c #3B6AA6",
"a. c #3E6DA8",
"s. c #526680",
"d. c #5F738D",
"f. c #416697",
"g. c #416893",
"h. c #466B9C",
"j. c #496E9D",
"k. c #4B709F",
"l. c #62768F",
"z. c #777D86",
"x. c #657993",
"c. c #697D96",
"v. c #6B7F99",
"b. c #406EA9",
"n. c #4D72A1",
"m. c #4571AB",
"M. c #4B76AD",
"N. c #4E78AE",
"B. c #5176A6",
"V. c #5378A7",
"C. c #507AAF",
"Z. c #567EB1",
"A. c #587FB2",
"S. c #6D819B",
"D. c #5B82B3",
"F. c #6286B6",
"G. c #668AB7",
"H. c #6A8DB9",
"J. c #6F91BB",
"K. c #7192BB",
"L. c #7897BE",
"P. c #7A99BF",
"I. c #7D9BC0",
"U. c #838383",
"Y. c #8B8B8B",
"T. c #979489",
"R. c #848A92",
"E. c #888E96",
"W. c #949494",
"Q. c #9E9E9E",
"!. c #949BA3",
"~. c #99A0A7",
"^. c #9FA5AD",
"/. c #A3A3A3",
"(. c #ACACAC",
"). c #B4B4B4",
"_. c #BBBBBB",
"`. c #839FC2",
"'. c #84A0C3",
"]. c #8BA5C6",
"[. c #96ADCA",
"{. c #98AFCB",
"}. c #9BB1CC",
"|. c #A2B6CE",
" X c #A6B9D0",
".X c #ABBCD2",
"XX c #B5C4D6",
"oX c #B8C6D7",
"OX c #B9C7D8",
"+X c #BDCAD9",
"@X c #C3C3C3",
"#X c #C1CDDA",
"$X c #C7D1DD",
"%X c #CAD4DE",
"&X c #D3D3D3",
"*X c #DCDCDC",
"=X c #CFD7E0",
"-X c #D4DBE2",
";X c #DADFE4",
":X c #DCE1E5",
">X c #E2E5E7",
",X c #E3E6E8",
"<X c #E7E9E9",
"1X c #EEEEEC",
"2X c None",
/* pixels */
"2X2X2X2X2X2X2X2X2X2X2X2X2X2X2X2X2X2X2X2X2X2X2X2X2X2X2X2X2X2X2X2X2X2X2X2X2X2X2X2X2X2X2X2X2X2X2X2X",
"2X2X2X2X2X2X2X2X2X2X2X2X2X2X2X2X2X2X- - - - - X 2X2X2X2X2X2X2X2X2X2X2X2X2X2X2X2X2X2X2X2X2X2X2X2X",
"2X2X2X2X2X2X2X2X2X2X2X2X2X2X* % 4 R.!.!.^.^.!.E.z.1 % & 2X2X2X2X2X2X2X2X2X2X2X2X2X2X2X2X2X2X2X2X",
"2X2X2X2Xi.i.i.i.i.i.i.i.i.i.i.i.i.i.i.i.i.i.i.i.i.i.i.i.i.i.i.i.i.i.i.i.i.i.i.i.i.i.i.i.i.i.i.2X",
"2X2X2X2Xi.i.i.i.i.i.i.i.i.i.i.i.i.i.i.i.i.i.i.i.i.i.i.i.i.i.i.i.i.i.i.i.i.i.i.i.i.i.i.i.i.i.i.2X",
"2X2X2X2Xi.i.i.C.I.L.L.i.i.i.i.F.L.I.i.i.i.i.i.i.N.L. X.X].M.i.i.G.L.L.i.i.i.i.i.i.i.D.L.L.m.i.2X",
"2X2X2X2Xi.i.i.'.1X1X1XD.i.i.i.oX1X1Xi.i.i.i.i.'.1X1X1X1X1X<X'.i..X1X1Xp.i.i.i.i.i.i.}.1X1XN.i.2X",
"2X2X2X2Xi.i.i.'.1X1X1X{.i.i.i.oX1X1Xi.i.i.i.}.1X1X1X1X1X1X1X.Xi.}.1X1XM.i.i.i.i.i.i..X1X1Xp.i.2X",
"2X2X2X2Xi.i.i.'.1X1X1X-Xi.i.i.oX1X1Xi.i.i.Z.1X1X1X<XoX|.=X1X.Xi.'.1X1XD.i.i.i.i.i.i.XX1X>Xi.i.2X",
"2X2X2X2Xi.i.i.`.1X1X1X1XD.i.i.oX1X1Xi.i.i.}.1X1X<XD.i.i.i.L. Xi.L.1X1XH.i.i.i.i.i.i.#X1X=Xi.i.2X",
"2X2X2X2Xi.i.i.'.1X1X<X1X[.i.i.oX1X1Xi.i.i.>X1X1X].i.i.i.i.i.M.i.D.1X1XI.i.`.oXXXa.i.=X1X+Xi.i.2X",
"2X2X2X2Xu.i.i.'.1X1XoX1X-Xi.i.oX1X1Xi.i.Z.1X1X1XC.i.i.i.i.i.i.i.M.1X1X].i.#X1X1XF.i.:X1X.Xi.i.2X",
"2X2X2X2Xe.i.i.'.1X1XI.<X1XD.i.oX1X1Xi.i.F.1X1X>Xi.i.i.i.i.i.i.i.i.1X1X}.i.:X1X1X'.i.<X1X}.i.i.2X",
"2X2X2X2Xt.i.i.'.1X1XJ.oX1X{.i.oX1X1Xp.i.L.1X1X-Xi.i.i.i.i.i.i.i.i.:X1X.Xa.1X1X1X Xp.1X1X'.i.i.2X",
"2X2X2X2Xh.i.i.'.1X1XK.L.1X-Xi.oX1X1Xi.i.].1X1X#Xi.i..X1X1X1X1XZ.i.$X1XOXD.1X;X1X%Xm.1X1XK.i.i.2X",
"2X2X2X- n.i.i.'.1X1XK.m.1X1XD.oX1X1Xi.i.`.1X1X-Xi.i..X1X1X1X1XZ.i.oX1X%XL.1X}.1X<XA.1X1XF.i.i.2X",
"2X2X2X- n.i.p.`.1X1XI.i.OX1X[.OX1X1Xp.i.H.1X1X:Xi.i..X1X1X1X1XZ.i.|.1X:X[.1XK.-X1XP.1X1XN.i.i.2X",
"2X2X2X- k.i.i.`.1X1XH.i.`.1X-XOX1X1Xi.i.Z.1X1X1Xp.i.i.i.[.1X1XZ.i.].1X1XXX1XN..X1X.X1X1Xp.i.i.2X",
"2X2X2X> j.i.i.`.1X1XA.p.p.<X1X:X1X1Xi.i.a.1X1X1XI.i.i.i.[.1X1XD.i.L.1X1X-X1Xi.].1X:X1X<Xi.i.i.2X",
"2X2X2X, B.i.i.`.1X1XI.i.i.OX1X1X1X1Xi.i.i.OX1X1X+Xp.i.i.[.1X1XZ.i.G.1X1X1X%Xi.G.1X1X1X%Xi.i.i.2X",
"2X2X2X; V.i.i.`.1X1XI.i.i.`.<X1X1X1Xi.i.i.I.1X1X1XXXG.Z.OX1X1XD.i.N.1X1X1X Xi.m.1X1X1X+Xi.i.i.2X",
"2X2X2X- V.i.i.`.1X1XA.i.i.b.<X1X1X1Xi.i.i.i.=X<X1X1X1X1X1X1X1XZ.i.a.1X1X1X].i.i.:X1X1X.Xi.i.i.2X",
"2X2X2XX B.i.i.`.1X1XI.i.i.i..X1X1X1Xp.i.i.i.p.=X1X1X1X1X1X1X#Xm.i.i.<X1X1XH.i.i.oX1X1X}.i.i.i.2X",
"2X2X2X- k.i.i.K.#X$XA.i.i.i.I.OX#X#Xi.i.i.i.i.p.[.=X<X,X=X].i.i.i.i..X+X#Xm.i.i.I.#X#XK.i.i.i.2X",
"2X2X2X2Xf.i.i.i.i.i.i.i.i.i.i.i.i.i.i.i.i.i.i.i.i.i.p.i.i.i.i.i.i.i.i.i.i.i.i.i.i.i.i.i.i.i.i.2X",
"2X2X2X2Xr.i.i.i.i.i.i.i.i.i.i.i.i.i.i.i.i.i.i.i.i.i.i.i.i.i.i.p.9 o.O.$.$.O.o.0 g.i.i.i.i.i.i.2X",
"2X2X2X2X= l.S.c.x.s.s.s.s.s.s.s.5 s.v.v.v.v.v.v.x.x.l.l.3 2 < $.0.w.w.6.6.w.w.9.} k 2X2X2X2X2X2X",
"2X2X2X2X2X; Q.Y.Y.e , , , , , , 4 y W.E.Y.Y.Y.Y.S.+.y z.: z :.6.6.6.6.6.6.6.6.6.q.8.M 2X2X2X2X2X",
"2X2X2X2X2XX e Y.U.Y.e , , , , , 4 w Y.Y.U.U.U.v.z.y w q H q.6.6.6.6.5.6.6.5.5.5.5.3.0.G 2X2X2X2X",
"2X2X2X2X2X2X- Y.U.U.U.7 , , , , 4 e U.U.U.U.U.y z.w w x 6.6.6.6.6.4.O o o o =.5.4.2.2.4.B 2X2X2X",
"2X2X2X2X2X2X2X- Y.U.e 7 > , , 7 e U.U.e z.w e e e w l -.6.4.6.5.5.5..       *.3.2.2.2.2.-.v 2X2X",
"2X2X2X2X2X2X2X2X> Y.U.7 , > , 7 e e e e e w w w w q L 5.5.5.5.5.4.4..       *.>.2.2.>.>.>.{ 2X2X",
"2X2X2X2X2X2X2X2X2X; U.8 > > , 8 w w w w w w w 8 w j >.5.5.4.4.4.2.4..       &.2.>.>.>.>.>.X.s 2X",
"2X2X2X2X2X2X2X2X2X2X- 8 w , 8 w w w w w w w w w w x 2.4.3.2.2.3.2.<..       &.>.>.<.>.>.<.X.B 2X",
"2X2X2X2X2X2X2X2X2X2X2XX > w U.e w w w w w w w 8 w H X.4.3.3.3.<.2.<..       %.<.<.>.>.,.,.X.A 2X",
"2X2X2X2X2X2X2X2X2X2X2X2X2XX ; 8 Y.S.y e e w e z.y L 3.4.1.3.1.1.1.<..       E ( X.>.,.,.,.;.` 2X",
"2X2X2X2X2X2X2X2X2X2X2X2X2X2X2XX X - > , 7 7 , ; ; $.3.1.1.1.1.1.7.7..       R ~ ~ ~ | =.,.=.` 2X",
"2X2X2X2X2X2X2X2X2X2X2X2X2X2X2X2X2X2X> > ; > , ; 2XF 8.8.7.7.7.7.7.>..       R T T ~ Y Y ' ' A 2X",
"2X2X2X2X2X2X2X2X2X2X2X2X2X2X2X2X2X2X, Y.e e e > 2XB >.8.7.7.7.,.| T h g g g U T Y Y Y Y Y ! N 2X",
"2X2X2X2X2X2X2X2X2X2X2X2X2X2X- ; ; - 8 Q.e e e ; ; r  . .>. .^ ~ T T T T T T Y Y U Y U U U _ s 2X",
"2X2X2X2X2X2X2X2X2X2X2X2X2X- 7 w w w e U.e e e w w y [ T T T T T T Y # # # # P Y U I I I I ` 2X2X",
"2X2X2X2X2X2X; ; - ; ; ; ; ; @X&X*X1X<X<X<X<X1X1X<X1X@.] T T T Y U Y         n U I P I I ) s 2X2X",
"2X2X2X2X2X2X2X_.).(.(./.Q.> W.W.W.W.W.W.W.W.W.W.W.W.T.c ^ Y Y U U U         h U P P P R A 2X2X2X",
"2X2X2X2X2X2X2X_._.).(././.; 7 7 7 7 7 7 7 7 7 7 7 7 7 $ K W U U U I i u u u n P P P R D 2X2X2X2X",
"2X2X2X2X2X2X2X> > , > , , ; w w w w w w w w w w w w w ; t H ) P P P P P P P n P P E Z a 2X2X2X2X",
"2X2X2X2X2X2X2X2X2X2X2X2X2X- > , , , 7 , 7 , , 7 , 7 > - 2X@ d D W P P P P n n R D f 2X2X2X2X2X2X",
"2X2X2X2X2X2X2X2X2X2X2X2X2X2X2X2X2X2X2X2X2X2X2X2X2X2X2X2X2X2X2X2Xb C A S S A C f p 2X2X2X2X2X2X2X",
"2X2X2X2X2X2X2X2X2X2X2X2X2X2X2X2X2X2X2X2X2X2X2X2X2X2X2X2X2X2X2X2X2X2X2X2X2X2X2X2X2X2X2X2X2X2X2X2X"
};
