/* XPM */
static const char * ngw_disconn_48_xpm[] = {
"48 48 353 2",
"  	c None",
". 	c #414A56",
"+ 	c #424A55",
"@ 	c #424A52",
"# 	c #424952",
"$ 	c #414953",
"% 	c #414955",
"& 	c #3B4756",
"* 	c #3465A4",
"= 	c #3B6AA7",
"- 	c #6387B6",
"; 	c #4C77AD",
"> 	c #3868A5",
", 	c #3767A5",
"' 	c #3566A4",
") 	c #517AAF",
"! 	c #7394BD",
"~ 	c #839FC2",
"{ 	c #698CB8",
"] 	c #547DB0",
"^ 	c #4874AC",
"/ 	c #527BB0",
"( 	c #4B76AD",
"_ 	c #4F79AE",
": 	c #EEEEEC",
"< 	c #C2CDDB",
"[ 	c #4370AA",
"} 	c #416FA9",
"| 	c #3F6DA8",
"1 	c #B4C4D6",
"2 	c #D7DDE3",
"3 	c #A7B9D0",
"4 	c #8FA8C7",
"5 	c #B7C5D7",
"6 	c #84A0C3",
"7 	c #3465A3",
"8 	c #4E78AE",
"9 	c #C5D0DC",
"0 	c #E0E4E7",
"a 	c #CAD4DE",
"b 	c #E9EAEA",
"c 	c #3566A5",
"d 	c #90A9C8",
"e 	c #A1B6CE",
"f 	c #C4CFDC",
"g 	c #6E90BB",
"h 	c #366094",
"i 	c #94ACC9",
"j 	c #668AB7",
"k 	c #A4B8CF",
"l 	c #3A69A6",
"m 	c #ACBED3",
"n 	c #7998BF",
"o 	c #D3DAE2",
"p 	c #5980B2",
"q 	c #454545",
"r 	c #456B9D",
"s 	c #D5DCE2",
"t 	c #D9DEE4",
"u 	c #ACBDD2",
"v 	c #E6E8E9",
"w 	c #3D6CA8",
"x 	c #6287B6",
"y 	c #C7D1DD",
"z 	c #B7C6D7",
"A 	c #95ACCA",
"B 	c #E1E4E7",
"C 	c #4471AA",
"D 	c #656565",
"E 	c #4970A1",
"F 	c #8EA8C7",
"G 	c #BCC9D9",
"H 	c #EDEDEB",
"I 	c #464646",
"J 	c #9B9B9B",
"K 	c #416799",
"L 	c #4A75AC",
"M 	c #ADBED3",
"N 	c #DBE0E5",
"O 	c #537CB0",
"P 	c #8CA5C6",
"Q 	c #5B81B3",
"R 	c #ECECEB",
"S 	c #EAEBEB",
"T 	c #406EA9",
"U 	c #E2E5E7",
"V 	c #757575",
"W 	c #838383",
"X 	c #406798",
"Y 	c #B9C7D8",
"Z 	c #E8EAEA",
"` 	c #7897BE",
" .	c #87A2C4",
"..	c #D8DEE4",
"+.	c #7091BB",
"@.	c #AFBFD3",
"#.	c #6C8EBA",
"$.	c #C0CCDA",
"%.	c #474747",
"&.	c #9A9A9A",
"*.	c #6C6C6C",
"=.	c #7293BC",
"-.	c #5C83B4",
";.	c #A3B7CF",
">.	c #A4B7CF",
",.	c #ABBDD2",
"'.	c #545454",
").	c #878787",
"!.	c #696969",
"~.	c #406698",
"{.	c #3868A6",
"].	c #AABCD2",
"^.	c #3D6BA7",
"/.	c #B8C6D7",
"(.	c #D1D9E1",
"_.	c #E7E9E9",
":.	c #96ADCA",
"<.	c #7C7C7C",
"[.	c #777777",
"}.	c #42689A",
"|.	c #9EB3CD",
"1.	c #6589B7",
"2.	c #A0B5CE",
"3.	c #94ABC9",
"4.	c #C3CEDB",
"5.	c #819DC2",
"6.	c #414141",
"7.	c #8B8B8B",
"8.	c #737373",
"9.	c #A2A2A2",
"0.	c #5077A8",
"a.	c #577FB2",
"b.	c #DADFE4",
"c.	c #EBECEB",
"d.	c #7D9BC0",
"e.	c #9BB1CC",
"f.	c #8A8A8A",
"g.	c #828282",
"h.	c #B0B0B0",
"i.	c #4F76A7",
"j.	c #5E84B4",
"k.	c #7393BC",
"l.	c #444444",
"m.	c #959595",
"n.	c #6E6E6E",
"o.	c #7F7F7F",
"p.	c #4A70A2",
"q.	c #557DB1",
"r.	c #7B99BF",
"s.	c #3969A6",
"t.	c #ACACAC",
"u.	c #727272",
"v.	c #42699A",
"w.	c #A0A0A0",
"x.	c #9F9F9F",
"y.	c #A4A4A4",
"z.	c #7E8389",
"A.	c #848B93",
"B.	c #767C84",
"C.	c #686F77",
"D.	c #7D848C",
"E.	c #969CA4",
"F.	c #A8AEB6",
"G.	c #A7AEB5",
"H.	c #A6ACB4",
"I.	c #A4AAB2",
"J.	c #A1A7AF",
"K.	c #9EA4AC",
"L.	c #6B7179",
"M.	c #5E646C",
"N.	c #5D636B",
"O.	c #5B6269",
"P.	c #5A6169",
"Q.	c #595F67",
"R.	c #585E66",
"S.	c #565C64",
"T.	c #545B62",
"U.	c #535961",
"V.	c #535A62",
"W.	c #686E76",
"X.	c #787E86",
"Y.	c #3E454E",
"Z.	c #939393",
"`.	c #9D9D9D",
" +	c #A3A3A3",
".+	c #686868",
"++	c #666666",
"@+	c #676767",
"#+	c #797979",
"$+	c #B2B2B2",
"%+	c #B1B1B1",
"&+	c #AEAEAE",
"*+	c #ABABAB",
"=+	c #A8A8A8",
"-+	c #9E9E9E",
";+	c #6D6D6D",
">+	c #747474",
",+	c #5D5D5D",
"'+	c #5B5B5B",
")+	c #5A5A5A",
"!+	c #585858",
"~+	c #575757",
"{+	c #565656",
"]+	c #5E5E5E",
"^+	c #717171",
"/+	c #808080",
"(+	c #3E3E3E",
"_+	c #7A7A7A",
":+	c #8C8C8C",
"<+	c #646464",
"[+	c #A9A9A9",
"}+	c #A5A5A5",
"|+	c #969696",
"1+	c #929292",
"2+	c #5C5C5C",
"3+	c #595959",
"4+	c #3F3F3F",
"5+	c #525252",
"6+	c #989898",
"7+	c #767676",
"8+	c #626262",
"9+	c #636363",
"0+	c #7E7E7E",
"a+	c #9C9C9C",
"b+	c #A1A1A1",
"c+	c #999999",
"d+	c #919191",
"e+	c #8D8D8D",
"f+	c #787878",
"g+	c #424242",
"h+	c #909090",
"i+	c #707070",
"j+	c #606060",
"k+	c #616161",
"l+	c #888888",
"m+	c #555555",
"n+	c #858585",
"o+	c #5F5F5F",
"p+	c #949494",
"q+	c #868686",
"r+	c #898989",
"s+	c #8E8E8E",
"t+	c #848484",
"u+	c #818181",
"v+	c #7D7D7D",
"w+	c #6F6F6F",
"x+	c #7B7B7B",
"y+	c #3D3D3D",
"z+	c #6B6B6B",
"A+	c #746767",
"B+	c #8E3232",
"C+	c #A11212",
"D+	c #A31414",
"E+	c #A01010",
"F+	c #9D0A0A",
"G+	c #A70505",
"H+	c #A80303",
"I+	c #A80000",
"J+	c #9A2323",
"K+	c #C83A3A",
"L+	c #DB5555",
"M+	c #DA5050",
"N+	c #DA5252",
"O+	c #D44F4F",
"P+	c #AB0A0A",
"Q+	c #404040",
"R+	c #A81313",
"S+	c #DB4C4C",
"T+	c #CC0000",
"U+	c #D94141",
"V+	c #D63333",
"W+	c #D21F1F",
"X+	c #DD5353",
"Y+	c #CD0606",
"Z+	c #D42A2A",
"`+	c #C23030",
" @	c #3C3C3C",
".@	c #AF1818",
"+@	c #D94040",
"@@	c #D21E1E",
"#@	c #FFFFFF",
"$@	c #FFFEFE",
"%@	c #E16969",
"&@	c #D42828",
"*@	c #FAE7E7",
"=@	c #E37272",
"-@	c #D21D1D",
";@	c #C73838",
">@	c #6A6A6A",
",@	c #4A4A4A",
"'@	c #B11717",
")@	c #CF0F0F",
"!@	c #F9DFDF",
"~@	c #FEFCFC",
"{@	c #D83D3D",
"]@	c #494949",
"^@	c #AC1A1A",
"/@	c #D22020",
"(@	c #F9E0E0",
"_@	c #FFFDFD",
":@	c #DE5B5B",
"<@	c #AC1D1D",
"[@	c #E68181",
"}@	c #DE5C5C",
"|@	c #4E4E4E",
"1@	c #4B4B4B",
"2@	c #515151",
"3@	c #C1C1C1",
"4@	c #D0D0D0",
"5@	c #E1E1E1",
"6@	c #E5E5E5",
"7@	c #B22222",
"8@	c #D32121",
"9@	c #F9E1E1",
"0@	c #DF5D5D",
"a@	c #C8C8C8",
"b@	c #C2C2C2",
"c@	c #BBBBBB",
"d@	c #B4B4B4",
"e@	c #AE1F1F",
"f@	c #DA4444",
"g@	c #ECA0A0",
"h@	c #979797",
"i@	c #535353",
"j@	c #AC1C1C",
"k@	c #4C4C4C",
"l@	c #AD1D1D",
"m@	c #E37474",
"n@	c #F9E2E2",
"o@	c #DF6060",
"p@	c #D32222",
"q@	c #FAE5E5",
"r@	c #D32323",
"s@	c #F9E3E3",
"t@	c #DC4E4E",
"u@	c #FEF9F9",
"v@	c #DF6161",
"w@	c #E26E6E",
"x@	c #AB0E0E",
"y@	c #CC0101",
"z@	c #D63232",
"A@	c #CF1111",
"B@	c #DB4949",
"C@	c #D52E2E",
"D@	c #C12F2F",
"E@	c #C73535",
"F@	c #DA5656",
"G@	c #DA5353",
"H@	c #DA5454",
"I@	c #D24A4A",
"J@	c #AA0909",
"K@	c #A90000",
"L@	c #A70000",
"                                                                                                ",
"                                          . + @ # $ % &                                         ",
"                        * * * * * * * * * * * * * * * * * * * * * * * * * * * * * * * * * *     ",
"                        * * = - - ; * * > - - , * * * ' ) ! ~ { , * ] - ^ * * * * * / - ( *     ",
"                        * * _ : : < * * [ : : } * * | 1 : : : : 2 ' 3 : 4 * * * * * 5 : 6 *     ",
"                        7 * _ : : : 8 * [ : : } * * 9 : : 0 a b : c d : e * * * * * f : g *     ",
"                        h * _ : : : i * [ : : } * j : : k c * l m c n : 1 * * * * * o : p *     ",
"                      q r * _ : : s t c [ : : } * u : v w * * * ' * x : y * z : A * B : C *     ",
"                      D E * _ : : F : j [ : : } * f : G * * * * * * ( : t * t : G c H b ' *     ",
"                    I J K * _ : : L H M [ : : } * N : m * O P P P Q , R S T : S U [ : s * *     ",
"                    V W X * _ : : c Y Z _ : : } * N : m * ` : : :  .* ..: +.: @.: #.: $.* *     ",
"                  %.&.*.X * _ : : c =.: 4 : : } * f : G * -.;...:  .* < : >.H x : e : ,.* *     ",
"                  '.).!.~.* _ : : c {.0 s : : } * ].: v ^.* * /.:  .* ].: 2 (., _.2 : :.* *     ",
"                  <.[.!.}.* _ : : c * |.: : : } * 1.: : 2.* * /.:  .* 3.: : ].* 4.: : 5.* *     ",
"                6.7.8.9.0.* _ : : c * a.: : : } * * 9 : : b.f c.:  .* d.: : 6 * e.: : #.* *     ",
"                q f.g.h.i.* _ : : c * * a : : } * * T z : : : : a O * j : : j.* k.: : a.* *     ",
"                l.m.n.o.p.* = - - * * * 8 - - , * * * ' q.r.~ - c * * ^.- - {.* w - - s.* *     ",
"                l.t.).u.v.* * * * * * * * * * * * * * * * * * * * * * * * * * * * * * * * *     ",
"                l.w.x.y.z.A.B.C.D.E.F.F.G.H.I.J.K.L.M.N.O.P.Q.R.S.T.U.V.U.W.X.Y.                ",
"                6.Z.`.x. +x..+++@+#+y.$+%+h.&+*+=+-+;+>+#+.+,+'+)+!+~+{+]+^+/+(+                ",
"                  _+-+&.-+:+<+D D ++;+ +*+[+=+}+9.x.J |+1+o.2+)+3+~+{+~+*.^+V 4+                ",
"                  5+9.m.6+7+8+9+9+<+<+++0+a+b+x.a+c+m.d+e+g.2+3+!+{+{+9+^+f+,+                  ",
"                  g+a+h+Z.i+j+k+k+8+8+8+8+i+J c+|+Z.h+:+l+W ,+!+{+{+m+.+i+0+q                   ",
"                    *.m.e+n+o+o+j+j+j+j+j+W p+1+h+e+f.q+W 0+<+{+{+m+m+@+8.i+(+                  ",
"                    g+Z.l+r+V ,+]+]+]+]+]+e+s+:+f.).t+u+v+#+2+{+m+m+m+@+v+q                     ",
"                      '+Z.W n+w+2+2+2+2+]+).).q+t+u+0+x+f+>+'+m+m+m+!.f+++y+                    ",
"                      4+i+f.o.u.)+)+)+8+f+g.u+o.v+x+f+V >+8.9+m+m+{+i+8.4+                      ",
"                        4+x+q+u.!+!+3+z+<.<._+#+[.V >+8.u.u.z+m+m+9+#+6.                        ",
"                          4+n./+~+~+~+^+7+V >+>+8.8.u.u.^+^+w+~+.+^+6.                          ",
"                            (+'+^+8+n.8.8.8.8.u.u.u.^+^+A+B+C+D+E+F+G+H+H+H+H+H+H+H+H+I+        ",
"                                6.D t+0+7+u.^+^+^+i+i+^+J+K+L+M+M+M+M+M+M+M+M+M+M+M+N+O+P+      ",
"                                    Q+'.i+<.u+u+o./+<.^+R+S+T+U+V+T+T+T+T+T+T+T+W+X+Y+Z+`+      ",
"                                         @6.I %.%.I Q+4+.@+@@@#@$@%@T+T+T+T+T+&@*@#@=@-@;@      ",
"                                          %.9+>@u.#+,@  '@+@)@!@#@$@%@T+T+T+&@*@#@~@{@-@;@      ",
"                                      ]@]@]@x.g._+_+,@]@^@+@T+/@(@#@$@%@T+&@*@#@_@:@T+-@;@      ",
"                                  ]@k+*.*.;+W <._+_+n.*.<@+@T+T+/@(@#@$@[@*@#@_@}@T+T+-@;@      ",
"                      |@,@,@1@1@1@2@3@4@5@6@6@6@6@6@6@6@7@+@T+T+T+8@9@#@#@#@_@0@T+T+T+-@;@      ",
"                        a@b@c@d@&+,+f.:+:+:+:+:+:+:+:+:+e@+@T+T+T+T+f@~@#@#@g@T+T+T+T+-@;@      ",
"                        a+h@h+7.).i@@+.+.+.+.+.+.+.+.+.+j@+@T+T+T+&@*@#@#@#@$@%@T+T+T+-@;@      ",
"                      k@,@,@1@k@1@,@*.f+f+f+f+f+f+f+f+f+l@+@T+T+&@*@#@_@m@n@#@$@%@T+T+-@;@      ",
"                                    1@1@1@1@1@1@1@1@1@1@^@+@T+&@*@#@_@o@T+p@n@#@$@%@T+-@;@      ",
"                                                        '@+@Y+q@#@_@o@T+T+T+r@s@#@$@t@-@;@      ",
"                                                        '@+@-@u@_@v@T+T+T+T+T+r@s@#@w@-@;@      ",
"                                                        x@t@y@z@V+T+T+T+T+T+T+T+A@B@y@C@D@      ",
"                                                        I+E@F@G@G@G@G@G@G@G@G@G@G@G@H@I@J@      ",
"                                                            K@I+I+I+I+I+I+I+I+I+I+I+I+L@        ",
"                                                                                                ",
"                                                                                                "};
