/* XPM */
static const char * ngw_disconn_16_xpm[] = {
"16 16 137 2",
"  	c None",
". 	c #777A7E",
"+ 	c #75797C",
"@ 	c #3465A4",
"# 	c #3667A5",
"$ 	c #3868A5",
"% 	c #3969A6",
"& 	c #426FA9",
"* 	c #3566A4",
"= 	c #3868A6",
"- 	c #8EA8C7",
"; 	c #CCD5DF",
"> 	c #DADFE4",
", 	c #6E8FBA",
"' 	c #D7DDE3",
") 	c #E7E9E9",
"! 	c #7192BB",
"~ 	c #B7C5D7",
"{ 	c #D6DCE3",
"] 	c #3867A6",
"^ 	c #396399",
"/ 	c #EAEBEA",
"( 	c #507AAF",
"_ 	c #CAD3DE",
": 	c #7394BD",
"< 	c #4370AA",
"[ 	c #537CB0",
"} 	c #C7D1DD",
"| 	c #6589B7",
"1 	c #567EB1",
"2 	c #D3DAE2",
"3 	c #4D6E97",
"4 	c #B7C6D7",
"5 	c #8FA8C7",
"6 	c #406EA9",
"7 	c #4571AA",
"8 	c #6387B6",
"9 	c #4672AB",
"0 	c #D1D9E1",
"a 	c #B1C1D4",
"b 	c #97AECA",
"c 	c #CAD4DE",
"d 	c #4E6C94",
"e 	c #8AA4C5",
"f 	c #BECBD9",
"g 	c #5A81B3",
"h 	c #7E9BC1",
"i 	c #CDD6DF",
"j 	c #A8BAD1",
"k 	c #BCC9D9",
"l 	c #B9C7D8",
"m 	c #506E95",
"n 	c #88A3C4",
"o 	c #A4B7CF",
"p 	c #EAEBEB",
"q 	c #C9D3DE",
"r 	c #7897BE",
"s 	c #94ACC9",
"t 	c #C1CDDA",
"u 	c #A2B6CF",
"v 	c #A7BAD1",
"w 	c #4E6E97",
"x 	c #678BB8",
"y 	c #EEEEEC",
"z 	c #6B8DB9",
"A 	c #D5DCE2",
"B 	c #ACBED3",
"C 	c #84A0C3",
"D 	c #4D6A8F",
"E 	c #456DA0",
"F 	c #3C6498",
"G 	c #3E6699",
"H 	c #466EA2",
"I 	c #466DA1",
"J 	c #476FA1",
"K 	c #43699B",
"L 	c #3A6296",
"M 	c #39649B",
"N 	c #3365A4",
"O 	c #7F7F7F",
"P 	c #737373",
"Q 	c #5D5D5D",
"R 	c #676767",
"S 	c #8A8A8A",
"T 	c #848484",
"U 	c #7B7B7B",
"V 	c #615C5C",
"W 	c #753A3A",
"X 	c #834242",
"Y 	c #747474",
"Z 	c #585858",
"` 	c #757575",
" .	c #797979",
"..	c #727272",
"+.	c #9F3C3C",
"@.	c #D53030",
"#.	c #D22424",
"$.	c #D01A1A",
"%.	c #D73A3A",
"&.	c #CA2828",
"*.	c #636363",
"=.	c #767676",
"-.	c #707070",
";.	c #AC3838",
">.	c #DB4C4C",
",.	c #F2BFBF",
"'.	c #E06767",
").	c #F1BABA",
"!.	c #CC2020",
"~.	c #5C5C5C",
"{.	c #C62929",
"].	c #CC0000",
"^.	c #E99494",
"/.	c #FCEEEE",
"(.	c #D01616",
"_.	c #CC1E1E",
":.	c #565656",
"<.	c #7D7D7D",
"[.	c #9B9B9B",
"}.	c #949494",
"|.	c #7E7E7E",
"1.	c #AE3131",
"2.	c #DC4F4F",
"3.	c #F1BBBB",
"4.	c #DF6060",
"5.	c #F2BDBD",
"6.	c #9E9E9E",
"7.	c #929292",
"8.	c #696969",
"9.	c #646464",
"0.	c #A34040",
"a.	c #D43030",
"b.	c #D32626",
"c.	c #D11D1D",
"d.	c #D63737",
"e.	c #CB2828",
"f.	c #5A5A5A",
"            . +                 ",
"  @ # $ @ % @ @ $ & * $ @ @ = @ ",
"  @ - ; @ > # , ' ) ! ~ @ @ { ] ",
"  ^ - / ( > # _ : < [ } | 1 2 @ ",
"  3 - 4 5 > 6 / 7 8 9 0 a b c @ ",
"  d - e f > 6 / g ' h i j k l @ ",
"  m - n o p # q r s h t u t v @ ",
"  w - n x y # z A ) | B C u s @ ",
"  D E F F G H I J K L G M N N @ ",
"    O P Q R S T U V W X         ",
"      Y Z `  .Y ..+.@.#.$.%.&.  ",
"        *.Y =.=.-.;.>.,.'.).!.  ",
"            Q ~.  {.].^./.(._.  ",
"        :.<.[.}.|.1.2.3.4.5.!.  ",
"    6.7.8.9.9.9.9.0.a.b.c.d.e.  ",
"          ~.~.~.f.              "};
