/* XPM */
static const char *ngw_conn_guest_16_xpm[] = {
/* columns rows colors chars-per-pixel */
"16 16 150 2",
"   c #676538",
".  c #686638",
"X  c #73703B",
"o  c #76733A",
"O  c #565656",
"+  c #585858",
"@  c #5A5A5A",
"#  c #5C5C5C",
"$  c #5D5D5D",
"%  c #636363",
"&  c #656463",
"*  c #646464",
"=  c #676767",
"-  c #696969",
";  c #737373",
":  c #747474",
">  c #757575",
",  c #767676",
"<  c #75797C",
"1  c #777A7E",
"2  c #797979",
"3  c #7B7B7B",
"4  c #7D7D7D",
"5  c #7F7F7F",
"6  c #827D22",
"7  c #78896E",
"8  c #9B9617",
"9  c #9B951B",
"0  c #9E991A",
"q  c #A09A17",
"w  c #B3A11C",
"e  c #8D882B",
"r  c #B6A632",
"t  c #C0AE17",
"y  c #C4B312",
"u  c #C6B517",
"i  c #CEBF35",
"p  c #CCC30D",
"a  c #D3CB0C",
"s  c #D2C90E",
"d  c #D3CB0F",
"f  c #DBD20F",
"g  c #DCD30E",
"h  c #E0D61D",
"j  c #D4C222",
"k  c #DDD521",
"l  c #DBCB33",
"z  c #E3D035",
"x  c #9C9254",
"c  c #A49953",
"v  c #B9AA42",
"b  c #BEB249",
"n  c #ADB05F",
"m  c #AFB15E",
"M  c #80906E",
"N  c #CEC743",
"B  c #D4CD44",
"V  c #EAE241",
"C  c #EAE247",
"Z  c #EEE644",
"A  c #E9E24B",
"S  c #F2EA46",
"D  c #F7EF47",
"F  c #F8EE46",
"G  c #F1E94A",
"H  c #F3EB4B",
"J  c #F7EE48",
"K  c #FCF249",
"L  c #EDE651",
"P  c #396399",
"I  c #3C6498",
"U  c #3E6699",
"Y  c #3365A4",
"T  c #3465A4",
"R  c #3566A4",
"E  c #3667A5",
"W  c #3867A6",
"Q  c #3868A5",
"!  c #3868A6",
"~  c #3969A6",
"^  c #4D6A8F",
"/  c #4E6C94",
"(  c #4D6E97",
")  c #4E6E97",
"_  c #43699B",
"`  c #506E95",
"'  c #456DA0",
"]  c #466DA1",
"[  c #476FA1",
"{  c #466EA2",
"}  c #406EA9",
"|  c #426FA9",
" . c #4370AA",
".. c #4571AA",
"X. c #4672AB",
"o. c #507AAF",
"O. c #537CB0",
"+. c #567EB1",
"@. c #5A81B3",
"#. c #6387B6",
"$. c #6589B7",
"%. c #678BB8",
"&. c #6B8DB9",
"*. c #6E8FBA",
"=. c #7192BB",
"-. c #7394BD",
";. c #7897BE",
":. c #7E9BC1",
">. c #848484",
",. c #8A8A8A",
"<. c #929292",
"1. c #949494",
"2. c #9B9B9B",
"3. c #9E9E9E",
"4. c #84A0C3",
"5. c #88A3C4",
"6. c #8AA4C5",
"7. c #8EA8C7",
"8. c #8FA8C7",
"9. c #94ACC9",
"0. c #97AECA",
"q. c #A2B6CF",
"w. c #A4B7CF",
"e. c #A7BAD1",
"r. c #A8BAD1",
"t. c #ACBED3",
"y. c #B1C1D4",
"u. c #B7C5D7",
"i. c #B7C6D7",
"p. c #B9C7D8",
"a. c #BCC9D9",
"s. c #BECBD9",
"d. c #C1CDDA",
"f. c #C7D1DD",
"g. c #C9D3DE",
"h. c #CAD3DE",
"j. c #CAD4DE",
"k. c #CCD5DF",
"l. c #CDD6DF",
"z. c #D1D9E1",
"x. c #D3DAE2",
"c. c #D5DCE2",
"v. c #D6DCE3",
"b. c #D7DDE3",
"n. c #DADFE4",
"m. c #E7E9E9",
"M. c #EAEBEA",
"N. c #EAEBEB",
"B. c #EEEEEC",
"V. c None",
/* pixels */
"V.V.V.V.V.V.1 < V.V.V.V.V.V.V.V.",
"V.T T Q T Q T T Q  .T Q T T Q T ",
"V.T 8.l.T n.Q &.b.m.=.u.T T b.W ",
"V.P 7.N.o.n.Q h.-. .O.f.%.+.x.T ",
"V.( 7.i.8.n.} N...#...x.y.0.h.Y ",
"V.( 7.6.s.n.} N.@.b.:.l.e.a.p.T ",
"V.` 7.5.w.N.T h.;.9.:.d.q.s.e.T ",
"V.( 7.5.%.B.Q &.b.m.$.t.4.q.0.T ",
"V.^ _ I U U ' ' ' _ 7 n m 7 E E ",
"V.V.#.; # = ,.>.3 v K B N D z V.",
"V.V.V., @ , 3 : x D D o . S Z V.",
"V.V.V.V.% ; , , b H H X . V A l ",
"V.V.V.V.V.V.# # i L C e 6 g k j ",
"V.V.V.V.O 4 2.1.c h f 0 9 a a V.",
"V.V.3.1.- * * * & r a q 9 p u V.",
"V.V.V.V.V.# # # @ V.w t y V.V.V."
};
