/* XPM */
static const char * ngw_layer_16_xpm[] = {
/* width height num_colors chars_per_pixel */
"    16    16      256            2",
/* colors */
"`` c None",
"`. c #6da4c8",
"`# c #7097c7",
"`a c #6897c7",
"`b c #608fc7",
"`c c #608fbf",
"`d c #5887bf",
"`e c #5887b7",
"`f c #5080b7",
"`g c #4878af",
"`h c #4070af",
"`i c #3870a7",
"`j c #3a68a2",
"`k c #709cce",
"`l c #55759b",
"`m c #517297",
"`n c #4f6f95",
"`o c #4c6d93",
"`p c #486a90",
"`q c #44688d",
"`r c #42648c",
"`s c #3f608b",
"`t c #3c5e88",
"`u c #395b86",
"`v c #365884",
"`w c #325582",
"`x c #35649e",
"`y c #356a9f",
"`z c #6f9dcd",
"`A c #131416",
"`B c #374555",
"`C c #364454",
"`D c #344353",
"`E c #334252",
"`F c #314051",
"`G c #303f50",
"`H c #2f3d4f",
"`I c #2e3c4e",
"`J c #2c3b4e",
"`K c #2b3a4d",
"`L c #191c22",
"`M c #2d5385",
"`N c #3868a7",
"`O c #171b1f",
"`P c #759fcd",
"`Q c #719bca",
"`R c #6d97c8",
"`S c #6994c4",
"`T c #6590c1",
"`U c #5e87b8",
"`V c #5d88bc",
"`W c #5984b9",
"`X c #5581b6",
"`Y c #517db3",
"`Z c #182636",
"`0 c #16191c",
"`1 c #719ac7",
"`2 c #3a5470",
"`3 c #131b25",
"`4 c #5c86b9",
"`5 c #466d9e",
"`6 c #09111b",
"`7 c #15191c",
"`8 c #324357",
".` c #567599",
".. c #4e7096",
".# c #2d4057",
".a c #3b5a80",
".b c #223a57",
".c c #101d2e",
".d c #191d21",
".e c #496483",
".f c #354961",
".g c #638bb8",
".h c #618bbe",
".i c #2e4460",
".j c #325177",
".k c #4070ac",
".l c #101e2f",
".m c #1a1e21",
".n c #658cb9",
".o c #32475e",
".p c #466385",
".q c #557baa",
".r c #25374d",
".s c #41699a",
".t c #4474af",
".u c #1b1e22",
".v c #6d97c7",
".w c #6490c2",
".x c #43658c",
".y c #1c2d40",
".z c #4a78af",
".A c #4776af",
".B c #121e2d",
".C c #2e517c",
".D c #1b1f23",
".E c #6590c3",
".F c #5683b5",
".G c #5685bb",
".H c #253b54",
".I c #4d7cb4",
".J c #132132",
".K c #2f537f",
".L c #1c2024",
".M c #6995c7",
".N c #2e445d",
".O c #131d28",
".P c #5684ba",
".Q c #37577e",
".R c #3b608c",
".S c #4878b2",
".T c #1d2024",
".U c #709bcb",
".V c #6391c5",
".W c #486a92",
".X c #314a67",
".Y c #4e7cb2",
".Z c #253c57",
".0 c #6896c9",
".1 c #5f8dc2",
".2 c #5a89be",
".3 c #5180b8",
".4 c #233953",
".5 c #4777b1",
".6 c #0d0f11",
".7 c #192531",
".8 c #182431",
"#` c #172330",
"#. c #16222f",
"## c #15212e",
"#a c #14202d",
"#b c #0e1721",
"#c c #0f1a26",
"#d c #111d2b",
"#e c #101c2a",
"#f c #04070b",
"#g c #709dce",
"#h c #5c81ab",
"#i c #567da8",
"#j c #527aa5",
"#k c #5076a2",
"#l c #4c739f",
"#m c #486f9c",
"#n c #436b9a",
"#o c #416898",
"#p c #3c6496",
"#q c #396192",
"#r c #365e90",
"#s c #325b8d",
"#t c #3665a2",
"#u c #3366a3",
"#v c #6f9bd3",
"#w c #6a9aca",
"#x c #6595ca",
"#y c #658fc5",
"#z c #608fc5",
"#A c #5a8abf",
"#B c #5585ba",
"#C c #5080ba",
"#D c #4a7ab5",
"#E c #4575af",
"#F c #4070aa",
"#G c #3a6aaa",
"#H c #3a66a8",
"#I c #000000",
"#J c #000000",
"#K c #000000",
"#L c #000000",
"#M c #000000",
"#N c #000000",
"#O c #000000",
"#P c #000000",
"#Q c #000000",
"#R c #000000",
"#S c #000000",
"#T c #000000",
"#U c #000000",
"#V c #000000",
"#W c #000000",
"#X c #000000",
"#Y c #000000",
"#Z c #000000",
"#0 c #000000",
"#1 c #000000",
"#2 c #000000",
"#3 c #000000",
"#4 c #000000",
"#5 c #000000",
"#6 c #000000",
"#7 c #000000",
"#8 c #000000",
"a` c #000000",
"a. c #000000",
"a# c #000000",
"aa c #000000",
"ab c #000000",
"ac c #000000",
"ad c #000000",
"ae c #000000",
"af c #000000",
"ag c #000000",
"ah c #000000",
"ai c #000000",
"aj c #000000",
"ak c #000000",
"al c #000000",
"am c #000000",
"an c #000000",
"ao c #000000",
"ap c #000000",
"aq c #000000",
"ar c #000000",
"as c #000000",
"at c #000000",
"au c #000000",
"av c #000000",
"aw c #000000",
"ax c #000000",
"ay c #000000",
"az c #000000",
"aA c #000000",
"aB c #000000",
"aC c #000000",
"aD c #000000",
"aE c #000000",
"aF c #000000",
"aG c #000000",
"aH c #000000",
"aI c #000000",
"aJ c #000000",
"aK c #000000",
"aL c #000000",
"aM c #000000",
"aN c #000000",
"aO c #000000",
"aP c #000000",
"aQ c #000000",
"aR c #000000",
"aS c #000000",
"aT c #000000",
"aU c #000000",
"aV c #000000",
"aW c #000000",
"aX c #000000",
"aY c #000000",
"aZ c #000000",
"a0 c #000000",
"a1 c #000000",
"a2 c #000000",
"a3 c #000000",
"a4 c #000000",
"a5 c #000000",
"a6 c #000000",
"a7 c #000000",
"a8 c #000000",
/* pixels */
"```.`#`a`b`c`d`e`f`f`g`g`h`i`j``",
"```k`l`m`n`o`p`q`r`s`t`u`v`w`x`y",
"```z`A`B`C`D`E`F`G`H`I`J`K`L`M`N",
"```z`O`P`Q`R`S`T`U`V`W`X`Y`Z`M`N",
"```z`0`1`Q`R`S`2`3`4`W`X`5`6`M`N",
"```z`7`8.``R`S...#`V`W.a.b.c`M`N",
"```z.d`P.e.f.g`T.h`4.i.j.k.l`M`N",
"```z.m`P`Q.n.o.p.q.r.s.t.k.l`M`N",
"```z.u`P`Q.v.w.x.y.z.A.B.C.l`M`N",
"```z.D`P`Q.E.F.G.H.I.A.J.K.l`M`N",
"```z.L`P.M.N.O.P.Q.R.S.t.k.l`M`N",
"```z.T.U.V.W.X.G.Y.Z.S.t.k.l`M`N",
"```z.L.0.V.1.2.G.3.4.5.t.k.l`M`N",
"```z.6.7.8#`#.###a#b#c#d#e#f`M`N",
"``#g#h#i#j#k#l#m#n#o#p#q#r#s#t#u",
"``#v#w#x#y#z#A#B#C#D#D#E#F#G#H``"
};
