/* XPM */
static const char *ngw_layer_48_xpm[] = {
/* columns rows colors chars-per-pixel */
"48 48 120 2",
"   c #000000",
".  c #040609",
"X  c #06090C",
"o  c #0A0B0B",
"O  c #070B10",
"+  c #0A0E12",
"@  c #0D1115",
"#  c #0D141C",
"$  c #161616",
"%  c #121519",
"&  c #15191C",
"*  c #191B1C",
"=  c #111A24",
"-  c #1A1E21",
";  c #131F2C",
":  c #111F30",
">  c #16212E",
",  c #19222C",
"<  c #142233",
"1  c #192534",
"2  c #1B2A3C",
"3  c #272E37",
"4  c #282F37",
"5  c #232E3C",
"6  c #26313D",
"7  c #29303A",
"8  c #1D2E43",
"9  c #182E49",
"0  c #1F3147",
"q  c #1B314C",
"w  c #1E3655",
"e  c #212F40",
"r  c #233243",
"t  c #2B3541",
"y  c #2D3843",
"u  c #23364B",
"i  c #27384C",
"p  c #2A3A4C",
"a  c #203550",
"s  c #223955",
"d  c #2A3C52",
"f  c #243D5A",
"g  c #283F5B",
"h  c #2C435D",
"j  c #31465E",
"k  c #254060",
"l  c #2D4663",
"z  c #2F4865",
"x  c #29476B",
"c  c #314761",
"v  c #334A63",
"b  c #3A4E65",
"n  c #334E6E",
"m  c #39516C",
"M  c #2A4A70",
"N  c #284B78",
"B  c #304E71",
"V  c #325176",
"C  c #3B5573",
"Z  c #3F5873",
"A  c #36577C",
"S  c #3E5B7E",
"D  c #415974",
"F  c #315784",
"G  c #355A87",
"H  c #395B83",
"J  c #345C8E",
"K  c #385E8B",
"L  c #3D628C",
"P  c #3C6291",
"I  c #39649A",
"U  c #3566A5",
"Y  c #3768A6",
"T  c #3969A5",
"R  c #3D6EAA",
"E  c #446285",
"W  c #4A6684",
"Q  c #426691",
"!  c #446994",
"~  c #4A6D95",
"^  c #456B99",
"/  c #4A6E99",
"(  c #4D719A",
")  c #507096",
"_  c #51749D",
"`  c #587598",
"'  c #436EA2",
"]  c #4571A4",
"[  c #4F75A1",
"{  c #4272AD",
"}  c #4976AB",
"|  c #5177A5",
" . c #5A7CA5",
".. c #537DAE",
"X. c #587FAD",
"o. c #4676B0",
"O. c #4778B2",
"+. c #4B7BB4",
"@. c #517EB5",
"#. c #5B82AF",
"$. c #5581B6",
"%. c #5E86B5",
"&. c #5F88B6",
"*. c #5483BA",
"=. c #5986BA",
"-. c #5C89BD",
";. c #6184AA",
":. c #6489B2",
">. c #628CBE",
",. c #6791BF",
"<. c #6C93BE",
"1. c #5E8CC1",
"2. c #618EC2",
"3. c #6491C4",
"4. c #6A94C5",
"5. c #6795C8",
"6. c #6C97C8",
"7. c #6E9BCB",
"8. c #729DCD",
"9. c None",
/* pixels */
"9.9.9.9.9.9.9.9.9.9.9.9.9.9.9.9.9.9.9.9.9.9.9.9.9.9.9.9.9.9.9.9.9.9.9.9.9.9.9.9.9.9.9.9.9.9.9.9.",
"9.9.9.9.9.9.9.9.9.9.9.9.9.9.9.9.9.9.9.9.9.9.9.9.9.9.9.9.9.9.9.9.9.9.9.9.9.9.9.9.9.9.9.9.9.9.9.9.",
"9.9.9.9.9.9.9.9.9.9.9.9.9.9.9.9.9.9.9.9.9.9.9.9.9.9.9.9.9.9.9.9.9.9.9.9.9.9.9.9.9.9.9.9.9.9.9.9.",
"9.9.9.9.8.7.7.7.6.4.5.5.5.3.3.1.1.1.1.1.=.-.*.*.*.*.@.@.@.+.O.O.o.o.o.{ } { { R R T T Y U 9.9.9.",
"9.9.9.8.7.8.7.7.6.6.4.5.3.3.3.4.1.1.-.-.-.*.=.*.*.@.@.@.@.+.O.O.o.o.{ { { { { { R T Y Y Y 9.9.9.",
"9.9.9.8.7.7.r r y y y y y y 7 7 t t t t r t 6 t e t r t r 5 5 t e 7 7 e 5 5 5 5 5 5 x Y U 9.9.9.",
"9.9.9.8.8.7.@ o $ $ $ * $ $ $ $ $ $ $ $ $ $ $ $ $ $ $ $ $ $ $ $ $ $ $ $ @ $ $ $ & $ 9 Y U 9.9.9.",
"9.9.9.8.7.7.O $ * * * * * * * * * * * * * * * * * * * * * * * * * * * * * * * * & @ 8 Y U 9.9.9.",
"9.9.9.8.8.7.@ @ 4 8.8.8.8.8.8.6.6.4.4.4.4.,.4.>.2.>.>.=.=.=.=.=.X.@.@.@.@.@.@.^ $ X 9 Y U 9.9.9.",
"9.9.9.8.7.8.+ @ 4 8.8.8.8.<.<.8.6.4.4.4.4.3.,.3.>.>.>.-.>.=.=.=.>.@.@.>.@.@.+.^ $   9 Y U 9.9.9.",
"9.9.9.8.8.7.o $ 7 8.8.8.6.8.6.8.6.6.4.4.2.4.>.>.2.>.>.>.>.=.=.%.>.@.=.$.@.X.@.^ .   9 Y U 9.9.9.",
"9.9.9.8.8.8.+ @ 7 8.8.8.8.8.8.4.6.4.4.4.4.>.3.2.,.>.>.-.-.=.-.$.@.=.@.@.@.@.@.Q     9 Y U 9.9.9.",
"9.9.9.8.8.8.+ @ 7 8.8.8.8.8.<.8.8.6.4.4.>.4.:.c # d X.-.=.-.=.=.=.X.@.@.@.@.+.I     9 Y U 9.9.9.",
"9.9.9.8.8.8.+ @ 7 8.8.8.8.8.8.8.4.4.4.4.4.4.m       i >.>.$.=.=.=.$.=.@.@.@.] :     9 Y U 9.9.9.",
"9.9.9.8.8.8.# # $ ` 8.8.8.<.8.<.6.4.4.4.4.>.1       O -.>.-.=.%.=.$.$.X.@.Q #       9 Y U 9.9.9.",
"9.9.9.8.8.8.# @ o o y <.8.8.8.8.6.6.6.<.4.3.j       5 >.=.=.-.@.$.$.$.@.n . + M     9 Y U 9.9.9.",
"9.9.9.8.8.8.+ $ 4 D   @ W 8.6.8.6.6.4.<.4.,.X.5   1 _ -.=.=.=.=.$.$.@.e   < Y J     9 T U 9.9.9.",
"9.9.9.8.8.8.+ $ 4 8.;., o 7  .6.6.6.4.4.4.2.3.>.:.>.>.>.-.=.=.=.$./ =   g { R J     9 T U 9.9.9.",
"9.9.9.8.7.7.o $ 4 8.8.8.D o o D 4.6.4.4.3.,.4.>.2.>.>.-.-.-.=.%.C . + G R R R J     9 Y U 9.9.9.",
"9.9.9.8.8.8.$ $ 4 8.8.8.8.;.7 o ,  .4.4.4.4.>.,.2.>.>.-.=.-.X.u   1 ' o.o.R R J     9 Y U 9.9.9.",
"9.9.9.8.8.6.o $ 4 8.8.8.8.<.8.D o . v ,.4.3.2.2.>.>.>.-.>.[ =   k +.{ { o.R R J     9 Y U 9.9.9.",
"9.9.9.8.8.8.$ $ 4 8.8.8.8.8.8.<.,.y   % ) ,.3.2.>.>.>.>.S . + K O.o.{ { R R R J     9 Y U 9.9.9.",
"9.9.9.8.8.8.$ $ y 8.8.8.8.8.8.<.6.4.) %   p :.2.>.>.=.d   ; ] o.o.o.o.R o.R R I     9 Y U 9.9.9.",
"9.9.9.8.8.8.$ * y 8.8.8.8.<.8.8.6.4.4.,.j   + E >.| ;   d +.@.o.o.o.o.o.o.R R J     9 Y U 9.9.9.",
"9.9.9.8.8.8.= = 4 8.8.8.8.8.<.8.4.7.4.5.4.( =   ; X O G +.+.+.O.o.o.F h T R R J     9 Y U 9.9.9.",
"9.9.9.8.8.8.# & y 8.8.8.8.8.8.8.7.4.4.3.-.*.*.l   O ] +.+.+.+.O.+.9     . I R J     9 Y U 9.9.9.",
"9.9.9.8.7.8.# $ 7 8.8.8.8.8.<.<.4.4.1.=.-.*.*.*.2 X @.@.+.O.+.+.]         s R J     9 Y U 9.9.9.",
"9.9.9.8.8.7.% $ y 8.8.8.8.8.8.8.4.2.-.1.-.*.*.*.A   H @.+.+.+.+.{ .       f R J     9 T U 9.9.9.",
"9.9.9.8.7.8.= $ 7 8.8.8.8.7.7.4.2.1.1.-.*.*.*.*.+.. 8 @.+.@.O.O.o.w     O I R J     9 Y U 9.9.9.",
"9.9.9.8.8.7.& $ 7 8.8.8.6.8.7.2.2.1.=.*.-.-.-.*.*.8 X O.@.+.O.O.o.o.K x R { R J     9 Y U 9.9.9.",
"9.9.9.8.8.7.& % 7 8.8.8.8.6.3.1.[ 1 . u @.*.*.*.*.A   A @.O.+.O.o.o.{ o.{ { R J     9 Y U 9.9.9.",
"9.9.9.8.8.7.& $ 7 8.8.8.8.4.3.3.2       z -.*.*.*.+.. 8 @.@.+.O.o.o.o.{ { R R J     9 Y U 9.9.9.",
"9.9.9.8.8.7.= & 4 8.8.8.6.3.3.2.X       1 =.*.*.*.*.9 . } +.+.O.O.o.{ { R R R J     9 Y U 9.9.9.",
"9.9.9.8.8.7.& $ 7 8.8.7.3.3.3.2.r       V =.*.*.*.*.L   V +.+.O.O.o.o.{ O.R R I     9 Y U 9.9.9.",
"9.9.9.8.7.7.* $ 7 8.8.5.3.3.3.1...0 @ l $.=.*.*.*.$.+.X 1 +.+.O.O.o.{ { O.R R J     9 Y U 9.9.9.",
"9.9.9.8.8.8.- $ 7 8.8.6.3.3.3.2.1.1.1.=.=.=.*.*.*.*.$.u . ] +.O.O.o.o.{ R R R J     9 Y U 9.9.9.",
"9.9.9.8.8.8.- % 6 7.5.5.3.3.3.1.1.1.1.1.-.*.*.*.$.+.*.J   M +.O.o.o.{ { { R R J     9 Y U 9.9.9.",
"9.9.9.8.8.8.- $ 3 5.5.5.3.3.3.1.1.1.-.=.*.-.*.*.*.*.$.+.@ > O.O.o.o.o.{ { { R J     9 Y U 9.9.9.",
"9.9.9.8.8.8.< % , 5.5.5.3.3.3.1.1.1.-.-.-.*.*.*.*.$.+.$.w   ] O.o.o.{ { { R R J     9 Y U 9.9.9.",
"9.9.9.8.8.8.> @ # _ _ _ ( ( ( ] ~ / ~ ^ ! ! ! Q P P P P B   s L K G K G G F G M     9 Y U 9.9.9.",
"9.9.9.8.8.7., .                                                                     9 Y U 9.9.9.",
"9.9.9.8.7.7.$                                                                       9 Y U 9.9.9.",
"9.9.9.8.8.7.A v b v z v j z v z l h l h h h h h h f h g g f w h s s w w s w s w w w N Y U 9.9.9.",
"9.9.9.8.8.8.7.7.7.5.5.5.3.3.3.2.1.1.-.1.-.*.*.*.*.*.+.*.+.+.+.+.O.O.o.o.{ { R R R Y Y Y U 9.9.9.",
"9.9.9.9.8.7.7.7.6.6.5.5.3.3.3.1.1.1.-.=.*.*.*.*.$.@.@.+.+.+.+.O.O.o.o.{ { R R R R T Y Y U 9.9.9.",
"9.9.9.9.9.8.7.7.6.5.5.5.5.3.3.1.2.1.1.-.1.1.*.1.*.@.+.*.+.*.+.O.o.o.{ { { { R R R R T Y 9.9.9.9.",
"9.9.9.9.9.9.9.9.9.9.9.9.9.9.9.9.9.9.9.9.9.9.9.9.9.9.9.9.9.9.9.9.9.9.9.9.9.9.9.9.9.9.9.9.9.9.9.9.",
"9.9.9.9.9.9.9.9.9.9.9.9.9.9.9.9.9.9.9.9.9.9.9.9.9.9.9.9.9.9.9.9.9.9.9.9.9.9.9.9.9.9.9.9.9.9.9.9."
};
