/* XPM */
static const char * ngw_layer_48_xpm[] = {
/* width height num_colors chars_per_pixel */
"    48    48      256            2",
/* colors */
"`` c #040204",
"`. c #5482b4",
"`# c #244264",
"`a c #3c628c",
"`b c #14222c",
"`c c #4472a4",
"`d c #1c3244",
"`e c None",
"`f c #345274",
"`g c #6496c4",
"`h c #0c1214",
"`i c #243a4c",
"`j c #5c8ec4",
"`k c #446284",
"`l c #547294",
"`m c #34465c",
"`n c #3c5a74",
"`o c #6486ac",
"`p c #242e34",
"`q c #141a1c",
"`r c #346aa4",
"`s c #243a54",
"`t c #5c8ab4",
"`u c #447ab4",
"`v c #2c323c",
"`w c #2c4a64",
"`x c #1c2a3c",
"`y c #6c9ecc",
"`z c #547eac",
"`A c #445a74",
"`B c #040a0c",
"`C c #3462a4",
"`D c #446a94",
"`E c #345a84",
"`F c #5c82ac",
"`G c #4472ac",
"`H c #1c324c",
"`I c #6c92bc",
"`J c #344e64",
"`K c #141e2c",
"`L c #2c3a54",
"`M c #749acc",
"`N c #141214",
"`O c #3c5a84",
"`P c #2c425c",
"`Q c #3c629c",
"`R c #1c222c",
"`S c #34567c",
"`T c #6c96c4",
"`U c #648ebc",
"`V c #5c769c",
"`W c #1c1a1c",
"`X c #0c0a0c",
"`Y c #4c6e94",
"`Z c #2c3a44",
"`0 c #5476a4",
"`1 c #2c2e34",
"`2 c #3c6aa4",
"`3 c #243e54",
"`4 c #2c4a74",
"`5 c #1c2e4c",
"`6 c #5c7ea4",
"`7 c #5c82bc",
"`8 c #4c76ac",
".` c #24364c",
".. c #3c4e64",
".# c #2c466c",
".a c #6492bc",
".b c #040604",
".c c #5486bc",
".d c #3c6694",
".e c #4c729c",
".f c #24323c",
".g c #3c526c",
".h c #0c161c",
".i c #4c6684",
".j c #54769c",
".k c #344a64",
".l c #648abc",
".m c #242e44",
".n c #141e24",
".o c #5c8ac4",
".p c #4c7ab4",
".q c #2c3644",
".r c #1c2e3c",
".s c #749ecc",
".t c #3466a4",
".u c #446ea4",
".v c #345e8c",
".w c #4476ac",
".x c #344e74",
".y c #2c3e54",
".z c #141614",
".A c #3c5e84",
".B c #2c465c",
".C c #1c2634",
".D c #6c9acc",
".E c #0c0e0c",
".F c #2c3e4c",
".G c #3c6eac",
".H c #2c4e74",
".I c #5482bc",
".J c #3c6294",
".K c #142234",
".L c #6496cc",
".M c #0c121c",
".N c #446694",
".O c #54729c",
".P c #344664",
".Q c #3c5a7c",
".R c #648ab4",
".S c #242e3c",
".T c #141a24",
".U c #243a5c",
".V c #5c8abc",
".W c #2c3244",
".X c #547eb4",
".Y c #040a14",
".Z c #446a9c",
".0 c #345a8c",
".1 c #5c86b4",
".2 c #1c3654",
".3 c #6c92c4",
".4 c #344e6c",
".5 c #141e34",
".6 c #3c669c",
".7 c #1c2234",
".8 c #345684",
"#` c #6c96cc",
"#. c #1c1e24",
"## c #4c76a4",
"#a c #3c5674",
"#b c #5c86bc",
"#c c #4c7eb4",
"#d c #74a2cc",
"#e c #648ec4",
"#f c #4c6e9c",
"#g c #2c3a4c",
"#h c #3c6aac",
"#i c #243e5c",
"#j c #2c4a7c",
"#k c #5c7eac",
"#l c #243654",
"#m c #6492c4",
"#n c #04060c",
"#o c #243244",
"#p c #1c2e44",
"#q c #3466ac",
"#r c #4476b4",
"#s c #2c3e5c",
"#t c #14161c",
"#u c #3c5e8c",
"#v c #2c4664",
"#w c #0c0e14",
"#x c #000000",
"#y c #000000",
"#z c #000000",
"#A c #000000",
"#B c #000000",
"#C c #000000",
"#D c #000000",
"#E c #000000",
"#F c #000000",
"#G c #000000",
"#H c #000000",
"#I c #000000",
"#J c #000000",
"#K c #000000",
"#L c #000000",
"#M c #000000",
"#N c #000000",
"#O c #000000",
"#P c #000000",
"#Q c #000000",
"#R c #000000",
"#S c #000000",
"#T c #000000",
"#U c #000000",
"#V c #000000",
"#W c #000000",
"#X c #000000",
"#Y c #000000",
"#Z c #000000",
"#0 c #000000",
"#1 c #000000",
"#2 c #000000",
"#3 c #000000",
"#4 c #000000",
"#5 c #000000",
"#6 c #000000",
"#7 c #000000",
"#8 c #000000",
"a` c #000000",
"a. c #000000",
"a# c #000000",
"aa c #000000",
"ab c #000000",
"ac c #000000",
"ad c #000000",
"ae c #000000",
"af c #000000",
"ag c #000000",
"ah c #000000",
"ai c #000000",
"aj c #000000",
"ak c #000000",
"al c #000000",
"am c #000000",
"an c #000000",
"ao c #000000",
"ap c #000000",
"aq c #000000",
"ar c #000000",
"as c #000000",
"at c #000000",
"au c #000000",
"av c #000000",
"aw c #000000",
"ax c #000000",
"ay c #000000",
"az c #000000",
"aA c #000000",
"aB c #000000",
"aC c #000000",
"aD c #000000",
"aE c #000000",
"aF c #000000",
"aG c #000000",
"aH c #000000",
"aI c #000000",
"aJ c #000000",
"aK c #000000",
"aL c #000000",
"aM c #000000",
"aN c #000000",
"aO c #000000",
"aP c #000000",
"aQ c #000000",
"aR c #000000",
"aS c #000000",
"aT c #000000",
"aU c #000000",
"aV c #000000",
"aW c #000000",
"aX c #000000",
"aY c #000000",
"aZ c #000000",
"a0 c #000000",
"a1 c #000000",
"a2 c #000000",
"a3 c #000000",
"a4 c #000000",
"a5 c #000000",
"a6 c #000000",
"a7 c #000000",
"a8 c #000000",
/* pixels */
"`e`e`e`e`e`e`e`e`e`e`e`e`e`e`e`e`e`e`e`e`e`e`e`e`e`e`e`e`e`e`e`e`e`e`e`e`e`e`e`e`e`e`e`e`e`e`e`e",
"`e`e`e`e`e`e`e`e`e`e`e`e`e`e`e`e`e`e`e`e`e`e`e`e`e`e`e`e`e`e`e`e`e`e`e`e`e`e`e`e`e`e`e`e`e`e`e`e",
"`e`e`e`e#d.s.D.D.D#`#`.L.3#m#m#e#e`j.o.V#b.c#b.I.I.I.I#c#c.p#c.p`u`8#r`G`G`G.G.u.G#h#h`r#q`e`e`e",
"`e`e`e#d`M`y.D.D#`#``g#m#m#m#m`j`j.o.V.V#b.c.c.I`..I#c.X.p.p.p#r`8#r`G#r`G.G.G.G#h`2`r#h.t`C`e`e",
"`e`e`e.s`y`M.D.D#``g#`.L#m#m#e`j#e.V.o.V#b.c#b.I.I#c.X#c#c.p.p`u`8#r`G`G`G.G`G.G#h#h`r.6#q.t`e`e",
"`e`e`e#d.s`y#o.f.q.q.q.q.q.q.q.q.q`v.q#o.q.f#o`v.f.W.f#o#o.f.S.f.m.f.f.S.S.f.S.S.S.S`#`r#q.t`e`e",
"`e`e`e.s`y`M#w#w`W.z`W.z`q.z.z.z.z#t`W.z`W.z`W.z`q.z`W.z`W`W.z`W.z`W.z`W#t`W.z.z.z`q`H#h`C.t`e`e",
"`e`e`e.s.s.D#w#w`W`W`q`W`W#.`W#.`W`W`W`q`W`W`q`W`W`W`W`W#t`W`W`q`W`W`q`W`W`q`W`W.z`N#p.t.t.t`e`e",
"`e`e`e#d`y.D#w`N`p#d.s.s.s`M.D`T.D`T`T`T.a#m.a#e`U.V.V.V.V#b.1`7`.`..X.X.X.X.p.Z`W.b`5`r.t.t`e`e",
"`e`e`e.s.s`y#w`h`1.s#d.s`M`M`M`T.D`T.3`g.3#m`U#e`U.l`U.V#b#b.c.1.I`7`.`..X.p.X`D`N```5.t.t.t`e`e",
"`e`e`e#d`y`M#w`N`v.s.s.s.s.D`M`T.D`T`T.3#m.3`U#e`U.o.l.V.V#b#b`7`.`F.I.X.X#c.p`D`B``#p`r#q.t`e`e",
"`e`e`e.s.s.D#w`h`1.s.s.s.s`M`T.D`T`T.3`T#m.a#e`U#e.V.l.V.V#b.1.c`7.I`..X.X.X#c`D`````5.t.t.t`e`e",
"`e`e`e#d`y.D#w.z`v.s#d.s`M`y`M`T`M`T`T#m.3#m.l`m.h.y`z.l#b#b#b.1.I`F.I.X.X#c.X.v````#p.t.t.t`e`e",
"`e`e`e.s.s`y#w`N.f.s.s.s.s`M.D`T.D.3`T.3#m.a.g``````.`.V.V#b#b.I`F.I`..X.X.X`c.5`````5`r.t.t`e`e",
"`e`e`e#d`y`M#w#t`X`V.s.s`M.s`M`T.D`T`T.3.3#m`R``````.E.V.V#b#b#b.I.I`..X.X.d.M``````#p#q.t.t`e`e",
"`e`e`e.s.s.D#w`h#n``#g`T`M.D`M`T.D.3`T`g.3#m.B``````.r.V#b#b#b.c`F`7`..X.x``.Y`w````#p.t.t.t`e`e",
"`e`e`e#d`y.D#w#t`1..``.E.i`y`M`T.D`T`T.3#m#m`F.S``.K.j.V.V#b.1`7.I`..X#p``.K`2.0`````5`r.t.t`e`e",
"`e`e`e.s.s`y#w`W`p#d`o`b```p.R.D`T.3`T#m.3.a#e#e.1.l.V.l.V#b#b.c`F#f.h``#i.G.G.v````#p#q.t.t`e`e",
"`e`e`e#d`y`M#w#t`v.s.s.s#a#n.b`A`T`T`T`T#m.3`U#e`U.l`j.V#b#b#b.1`f#n#w`E`G.G.G.v````#p.t.t.t`e`e",
"`e`e`e.s.s.D.M.z`1.s.s.s.s.R.S```b`6.3`T#m#m#e`U#e.V.l.V.V#b`..```.K.u`G.G`G.G.v`````5`r.t.t`e`e",
"`e`e`e#d`y.D.M`W.S#d.s.s`M`M.D`k.E``.k.a.3#m`U#e`U.l.V.l.V.e.T```P`8.w#r`G.G`G.0````#p#q.t.t`e`e",
"`e`e`e.s.s.D.M.z`1.s#d.s.s.D`M.D.R#g``.h`l#e#m`U#e.V`U.V`O#n#w.A`u#r`G`G.G`G.G.v````#p.t.t.t`e`e",
"`e`e`e#d`y`M.M`W`1.s.s.s.s`M.D`M`T`T`Y.M``#g`t#e`U.l#b`L```b`c`8#r.w#r`G`G.G.G.v`````5`r.t.t`e`e",
"`e`e`e.s.s`y.M.z`v.s#d.s`M.s.D`T`T`T.3`U`P``#w`k.l##`K```s.p.p`u`8#r`G#r`G.G`G.0````#p#q.t.t`e`e",
"`e`e`e#d`y`M.M`W`1.s.s.s.s`M.D`M`T#``T`T#m.e.T```K`B`B`E#c.p.p#r#r`8.8#i`2`G.G.v````#p.t.t.t`e`e",
"`e`e`e.s.s`y`N#t`v.s#d.s`M`M.D`T`T`T`T#e.V.c`.#v``.Y.e#c.p.p.p`u`8#p````.b`C.G.v`````5`r.t.t`e`e",
"`e`e`e#d`y`M.h#t`v.s.s.s.s`M.D`M`T`T`j.V#b.c#b.I`x`B#c#c#c.p.p`u.u.b```````s.G.v````#p#q.t.t`e`e",
"`e`e`e.s.s`y#t.z`1.s.s.s.s`M.D.D`T.o.V.V#b.c.c`.`E```O#c.p#c.p`8`G#n``````#i.G.0````#p.t.t.t`e`e",
"`e`e`e#d`y`M#t#t`v.s#d.s`M.s.D`T`U.o.V.o.c#b.c.I`z.b#p#c#c.p.p`u#r.2`````B`C.G.v`````5`r.t.t`e`e",
"`e`e`e.s.s.D#t`q`1.s.s.s.s`M`T`U`j.o.1.V#b.c.c.I.I#p#n.p#c.p.p#r`8.w.v.#.G`c.G.v````#p#q.t.t`e`e",
"`e`e`e#d`y`y#t`W`1#d.s.s`M.D#m`j.O.C.b.`.X.c#b`..I`E```S.p.p.p.p#r.w`G`G`G.G.G.v````#p.t.t.t`e`e",
"`e`e`e.s.s.D.T#t`1.s#d.s`M#m#e`j.r``````#v.c.c.I`.#c#n`x#c.p.p#r`8#r`G`G.G`G.G.v`````5`r.t.t`e`e",
"`e`e`e.s`y`M.T`W.S.s.s.s#`#m#m#e`B``````.C.c#b.I`..X`d#n`8.p.p`u.w`8#r`G`G.G`G.0````#p#q.t.t`e`e",
"`e`e`e#d.s.D.T.z`v.s#d`M#m#m`j#e`d``````.4.c.c.I.I#c#u``.H#c.p.p#r#r`G#r.G`G.G.v````#p.t.t.t`e`e",
"`e`e`e.s`y.s.T`W`1.s.s#m#m#m#e`j`z.`#w`P`..c#b`..I.I#c`B.C.p`u`8#r.w`G`G`G.G.G.v`````5`r.t.t`e`e",
"`e`e`e#d.s.D`W#t`v.s#`#`#m#m#e#e`j.V.o.V.c#b.c.I`.#c.X#l```G.p`u`8#r#r`G`G.G`G.0````#p#q.t.t`e`e",
"`e`e`e.s`y`M.n.z`1.s.L#m#m#m`j#e`j.o.V.V#b.c.c.I.I.I#c`a``.H.p.w`8#r`G#r.G`G.G.v````#p.t.t.t`e`e",
"`e`e`e#d.s.D#.#t.S#``g.L#m#m#m`j#e.V.o.V.c#b.c.I`.#c.I#c#w`b.p`u#r`8`G`G`G.G.G.v`````5`r.t.t`e`e",
"`e`e`e.s`y`y#.`W`R`T.L.3#m#m#e`j#e.o.V.V.c.c.c.I.I.I#c#c#l``.u.p#r#r#r`G.G`G.G.v````#p#q.t.t`e`e",
"`e`e`e#d.s.D#.#w.h.j.e.O.e.e#f#f`Y`D`Y`D`D`D.N.N.d`k.J`a.x``.2.A.v`O.0`E.0`E.8.#````#p.t.t.t`e`e",
"`e`e`e.s`y`M#..b`````````````````````````````````````````````````````````````````````5`r.t.t`e`e",
"`e`e`e#d.s`y#t``````````````````````````````````````````````````````````````````````#p#q.t.t`e`e",
"`e`e`e.s`y.D#a.k.k.k`w.k.B.P.B#v.B`P.B`P`P`#`P#i`P#i`3#i`3.U`3`s.2`s.2`s.2.2.2.2.2`H#j`r.t.t`e`e",
"`e`e`e.s.s`y.D.D.D`T`g#m#m#m#m#e`j.o.V.o#b.c.c`..I.X#c.X#c.p.p`u.p#r.w`G`G.G`G#h.G`r`r#q.t.t`e`e",
"`e`e`e#d`y`M.D.D#`.L#``g#m#m#e`j#e.V.o.V.c#b.c.I`.#c.I#c.p.p.p#r.w#r`G`G.G`G.G.G`2#h`2`r.t`C`e`e",
"`e`e`e`e.s`y.D.D.D#`#m.L#m#e#m`j#e.V.V.V.c.c#b.I.I.I#c.X#c#c`u.p.w`8#r`G`G.G.G.G.G`2`r#h.t`e`e`e",
"`e`e`e`e`e`e`e`e`e`e`e`e`e`e`e`e`e`e`e`e`e`e`e`e`e`e`e`e`e`e`e`e`e`e`e`e`e`e`e`e`e`e`e`e`e`e`e`e",
"`e`e`e`e`e`e`e`e`e`e`e`e`e`e`e`e`e`e`e`e`e`e`e`e`e`e`e`e`e`e`e`e`e`e`e`e`e`e`e`e`e`e`e`e`e`e`e`e"
};
