/* XPM */
static const char *open_xpm[] = {
"16 16 141 2",
"  	c None",
". 	c #A7A7A7",
"+ 	c #A5A5A5",
"@ 	c #A3A3A3",
"# 	c #A2A2A2",
"$ 	c #989898",
"% 	c #365E96",
"& 	c #6B8AB5",
"* 	c #A6A6A6",
"= 	c #979797",
"- 	c #919191",
"; 	c #8D8D8D",
"> 	c #898989",
", 	c #8B8B8B",
"' 	c #787878",
") 	c #44618A",
"! 	c #678BBB",
"~ 	c #6283B1",
"{ 	c #446492",
"] 	c #9F9F9F",
"^ 	c #939393",
"/ 	c #8C8C8C",
"( 	c #878787",
"_ 	c #848484",
": 	c #818181",
"< 	c #7C7F83",
"[ 	c #677993",
"} 	c #5E79A0",
"| 	c #6A8DBB",
"1 	c #3667A5",
"2 	c #5C82B2",
"3 	c #466CA2",
"4 	c #949494",
"5 	c #9B9160",
"6 	c #C3B149",
"7 	c #C2B049",
"8 	c #C1AF47",
"9 	c #98975D",
"0 	c #728DA7",
"a 	c #7294BF",
"b 	c #6388B9",
"c 	c #537DB2",
"d 	c #3C6BA8",
"e 	c #3465A4",
"f 	c #517AB0",
"g 	c #658093",
"h 	c #AD9E45",
"i 	c #F1DE3A",
"j 	c #F0D91D",
"k 	c #D4C62C",
"l 	c #7793AC",
"m 	c #7093C0",
"n 	c #698EBC",
"o 	c #6288B9",
"p 	c #5A82B5",
"q 	c #4773AC",
"r 	c #587EAE",
"s 	c #808F77",
"t 	c #B2A242",
"u 	c #F0DB2E",
"v 	c #EFD817",
"w 	c #81937A",
"x 	c #84A1C8",
"y 	c #7899C3",
"z 	c #7897C1",
"A 	c #7B96B1",
"B 	c #6E90BB",
"C 	c #507AB0",
"D 	c #517AAB",
"E 	c #819165",
"F 	c #E4CB2D",
"G 	c #7E7E7E",
"H 	c #B9A743",
"I 	c #F0DB26",
"J 	c #7F979D",
"K 	c #87A4C9",
"L 	c #829DB5",
"M 	c #9DA460",
"N 	c #D0C328",
"O 	c #6E8DAE",
"P 	c #688BB6",
"Q 	c #7D8D66",
"R 	c #EDD400",
"S 	c #E3CB2F",
"T 	c #7A7A7A",
"U 	c #C1AF42",
"V 	c #EFD91C",
"W 	c #7C94A2",
"X 	c #8FAACC",
"Y 	c #909D6B",
"Z 	c #EFD815",
"` 	c #E3D017",
" .	c #708DAA",
"..	c #7E8E6A",
"+.	c #ECD301",
"@.	c #E0C82C",
"#.	c #727272",
"$.	c #C4B138",
"%.	c #EFD816",
"&.	c #EED60E",
"*.	c #7E917D",
"=.	c #89A5C8",
"-.	c #AAA833",
";.	c #EBD301",
">.	c #6E7F5E",
",.	c #DFC323",
"'.	c #6C6C6C",
").	c #C8B026",
"!.	c #EDD201",
"~.	c #EDD200",
"{.	c #B7AE25",
"].	c #99A795",
"^.	c #979D5C",
"/.	c #EDD000",
"(.	c #ECCF00",
"_.	c #EDCF00",
":.	c #EECE00",
"<.	c #EECE02",
"[.	c #DDBC14",
"}.	c #686868",
"|.	c #CCA914",
"1.	c #EFBF00",
"2.	c #B7A02A",
"3.	c #8C906F",
"4.	c #AA9A3A",
"5.	c #EFBD00",
"6.	c #EFBC00",
"7.	c #EFBC03",
"8.	c #D9AE05",
"9.	c #8D7C39",
"0.	c #D2A507",
"a.	c #DBA905",
"b.	c #DAA805",
"c.	c #D9A804",
"d.	c #D9A704",
"e.	c #C49D11",
"f.	c #AA9330",
"g.	c #AD9225",
"h.	c #CDA10C",
"i.	c #DAA804",
"j.	c #DFAB00",
"                                ",
"                                ",
"  . . + @ # $     % &           ",
"  * = - ; > , '   ) ! ~ {       ",
"  ] ^ / ( _ : < [ } | 1 2 3     ",
"  4 5 6 7 8 9 0 a b c d e f g   ",
"  ; h i j k l m n o p q e r s   ",
"  _ t u v w x y z A B C D E F   ",
"  G H I v J K L M N O P Q R S   ",
"  T U V v W X Y Z `  ...+.R @.  ",
"  #.$.%.&.*.=.-.R ;.>.+.R R ,.  ",
"  '.).!.~.{.].^././.(._.:.<.[.  ",
"  }.|.1.1.1.2.3.4.5.5.6.6.7.8.  ",
"  9.0.a.b.c.d.e.f.g.h.c.i.j.    ",
"                                ",
"                                "};
