/* XPM */
static const char *options_xpm[] = {
/* width height num_colors chars_per_pixel */
"    16    16      256            2",
/* colors */
"`` c None",
"`. c #cecfcd",
"`# c #cbccca",
"`a c #c9c9c8",
"`b c #d4d5d3",
"`c c #e0e3e7",
"`d c #c9ced5",
"`e c #c3c3c2",
"`f c #dfdfdf",
"`g c #d8d8d8",
"`h c #d6d6d5",
"`i c #cfd4da",
"`j c #b9c4cf",
"`k c #bdc9d6",
"`l c #bcc2cb",
"`m c #cbcbc9",
"`n c #cacbc9",
"`o c #cdd1d8",
"`p c #c0cbd7",
"`q c #c3d0dd",
"`r c #bfccd9",
"`s c #bac0c9",
"`t c #d0d1cf",
"`u c #c8c9c6",
"`v c #d5d6d4",
"`w c #ececec",
"`x c #d1d2d0",
"`y c #bfc5cd",
"`z c #b6c1cb",
"`A c #b3bec9",
"`B c #b0b7c0",
"`C c #e3e3e3",
"`D c #cdcfcd",
"`E c #cececd",
"`F c #dedede",
"`G c #dcdcdc",
"`H c #c8c8c7",
"`I c #d2d5da",
"`J c #bac0c8",
"`K c #b3b9c2",
"`L c #d4d5d2",
"`M c #eeeeee",
"`N c #ededed",
"`O c #dbdbdb",
"`P c #c7c7c6",
"`Q c #ced1d6",
"`R c #bdc2c9",
"`S c #b6bcc3",
"`T c #e9e9e8",
"`U c #d2d3d0",
"`V c #d5d5d4",
"`W c #d3d4d1",
"`X c #eaeaea",
"`Y c #c8cbd1",
"`Z c #bcc1c7",
"`0 c #b9bec5",
"`1 c #cbcdcc",
"`2 c #c6c9ce",
"`3 c #bec2c9",
"`4 c #b7bbc3",
"`5 c #c2c3c3",
"`6 c #d9e0eb",
"`7 c #7e9bc1",
"`8 c #7694bb",
".` c #758daf",
".. c #b6bbc2",
".# c #dddedf",
".a c #cacac8",
".b c #d5dee9",
".c c #7293be",
".d c #628cc1",
".e c #5881b8",
".f c #5077ac",
".g c #a5aeba",
".h c #e4e4e4",
".i c #e5e5e5",
".j c #e6e6e5",
".k c #c8c9c7",
".l c #d3dce8",
".m c #7292bf",
".n c #608ac0",
".o c #6788b2",
".p c #426da3",
".q c #587cae",
".r c #dee3e9",
".s c #e0e0e0",
".t c #94aac8",
".u c #7192bf",
".v c #88a7cf",
".w c #7895b9",
".x c #3e6599",
".y c #577eb0",
".z c #b3c2d9",
".A c #c5c6c3",
".B c #dadada",
".C c #d8d8d7",
".D c #849dc1",
".E c #7fa2ce",
".F c #b0c5e0",
".G c #6d8eba",
".H c #3c6295",
".I c #567cb1",
".J c #a9bbd4",
".K c #c3c4c1",
".L c #d3d3d3",
".M c #c7c7c7",
".N c #c8c8c8",
".O c #dadbd9",
".P c #7392bd",
".Q c #84a4ce",
".R c #547eb5",
".S c #3a6294",
".T c #5079b1",
".U c #9eb2ce",
".V c #c0c1bf",
".W c #c2c2c2",
".X c #c6c6c6",
".Y c #c9c9c7",
".Z c #91a8c8",
".0 c #5d83b7",
".1 c #416ca2",
".2 c #4775b0",
".3 c #7391bb",
".4 c #c5c6c4",
".5 c #c7c8c6",
".6 c #879fc1",
".7 c #6183b1",
".8 c #7a97bf",
"#` c #000000",
"#. c #000000",
"## c #000000",
"#a c #000000",
"#b c #000000",
"#c c #000000",
"#d c #000000",
"#e c #000000",
"#f c #000000",
"#g c #000000",
"#h c #000000",
"#i c #000000",
"#j c #000000",
"#k c #000000",
"#l c #000000",
"#m c #000000",
"#n c #000000",
"#o c #000000",
"#p c #000000",
"#q c #000000",
"#r c #000000",
"#s c #000000",
"#t c #000000",
"#u c #000000",
"#v c #000000",
"#w c #000000",
"#x c #000000",
"#y c #000000",
"#z c #000000",
"#A c #000000",
"#B c #000000",
"#C c #000000",
"#D c #000000",
"#E c #000000",
"#F c #000000",
"#G c #000000",
"#H c #000000",
"#I c #000000",
"#J c #000000",
"#K c #000000",
"#L c #000000",
"#M c #000000",
"#N c #000000",
"#O c #000000",
"#P c #000000",
"#Q c #000000",
"#R c #000000",
"#S c #000000",
"#T c #000000",
"#U c #000000",
"#V c #000000",
"#W c #000000",
"#X c #000000",
"#Y c #000000",
"#Z c #000000",
"#0 c #000000",
"#1 c #000000",
"#2 c #000000",
"#3 c #000000",
"#4 c #000000",
"#5 c #000000",
"#6 c #000000",
"#7 c #000000",
"#8 c #000000",
"a` c #000000",
"a. c #000000",
"a# c #000000",
"aa c #000000",
"ab c #000000",
"ac c #000000",
"ad c #000000",
"ae c #000000",
"af c #000000",
"ag c #000000",
"ah c #000000",
"ai c #000000",
"aj c #000000",
"ak c #000000",
"al c #000000",
"am c #000000",
"an c #000000",
"ao c #000000",
"ap c #000000",
"aq c #000000",
"ar c #000000",
"as c #000000",
"at c #000000",
"au c #000000",
"av c #000000",
"aw c #000000",
"ax c #000000",
"ay c #000000",
"az c #000000",
"aA c #000000",
"aB c #000000",
"aC c #000000",
"aD c #000000",
"aE c #000000",
"aF c #000000",
"aG c #000000",
"aH c #000000",
"aI c #000000",
"aJ c #000000",
"aK c #000000",
"aL c #000000",
"aM c #000000",
"aN c #000000",
"aO c #000000",
"aP c #000000",
"aQ c #000000",
"aR c #000000",
"aS c #000000",
"aT c #000000",
"aU c #000000",
"aV c #000000",
"aW c #000000",
"aX c #000000",
"aY c #000000",
"aZ c #000000",
"a0 c #000000",
"a1 c #000000",
"a2 c #000000",
"a3 c #000000",
"a4 c #000000",
"a5 c #000000",
"a6 c #000000",
"a7 c #000000",
"a8 c #000000",
/* pixels */
"```````.`#`a`b`````````````c`d``",
"`````````e`f`g`h`````````i`j`k`l",
"```````````m`f`n```````o`p`q`r`s",
"`t`u```````v`w`x```````y`z`A`B``",
"`.`C`.`D`E`F`G`H`````I`J`K`K````",
"```L`M`M`N`N`O`C`P`Q`R`S````````",
"```T`U`V`L`W`w`X`Y`Z`0``````````",
"`````````````1`2`3`4`5``````````",
"`````````6`7`8.`...#`w.a````````",
"``````.b.c.d.e.f.g.h.i.j.k``````",
"````.l.m.n.o.p.q.r.k.s`f.s.k````",
"``.t.u.v.w.x.y.z````.A.B.B.C.k``",
".D.E.F.G.H.I.J````````.K.L.M.N.O",
".P.Q.R.S.T.U````````````.V.W.X.Y",
".Z.0.1.2.3````````````````.4.5``",
"``.6.7.8````````````````````````"
};
