/* XPM */
static const char *other_48_xpm[] = {
/* width height num_colors chars_per_pixel */
"    48    48      256            2",
/* colors */
"`` c None",
"`. c #d48204",
"`# c #e4b25c",
"`a c #e4961c",
"`b c #ecce9c",
"`c c #e4a644",
"`d c #e4be7c",
"`e c #ec961c",
"`f c #f4be64",
"`g c #dc8604",
"`h c #e4ae5c",
"`i c #f4b254",
"`j c #f4deac",
"`k c #e4c284",
"`l c #ec9a34",
"`m c #ec8a24",
"`n c #f4c274",
"`o c #f4b25c",
"`p c #ecd6ac",
"`q c #f4a62c",
"`r c #e49e34",
"`s c #dc8e14",
"`t c #f4a654",
"`u c #f4ba5c",
"`v c #eca234",
"`w c #dc962c",
"`x c #fcce8c",
"`y c #ec9e24",
"`z c #f4c68c",
"`A c #f47604",
"`B c #ecba64",
"`C c #f4e2c4",
"`D c #f4ae3c",
"`E c #ecca8c",
"`F c #f49a34",
"`G c #fcb25c",
"`H c #e48e14",
"`I c #f4ae4c",
"`J c #ecb264",
"`K c #f4b674",
"`L c #fce2b4",
"`M c #fcca84",
"`N c #f4b26c",
"`O c #f4a63c",
"`P c #e4962c",
"`Q c #f47e0c",
"`R c #f4ce94",
"`S c #eca634",
"`T c #f49624",
"`U c #e48a0c",
"`V c #ecaa4c",
"`W c #ecc27c",
"`X c #ec9a44",
"`Y c #ec922c",
"`Z c #fcc67c",
"`0 c #fcd6a4",
"`1 c #f4ae5c",
"`2 c #f46a04",
"`3 c #ecba74",
"`4 c #dc8a14",
"`5 c #fcb244",
"`6 c #f4debc",
"`7 c #f4c684",
"`8 c #f4b65c",
".` c #fcba5c",
".. c #fcd69c",
".# c #f4a22c",
".a c #f47a04",
".b c #e49214",
".c c #f4d294",
".d c #eca644",
".e c #ecae5c",
".f c #ecc68c",
".g c #ecb254",
".h c #e49a24",
".i c #ec9a1c",
".j c #f4c26c",
".k c #dc8a0c",
".l c #ec9e34",
".m c #ec8e24",
".n c #f4c67c",
".o c #f4d6a4",
".p c #f4aa34",
".q c #e4a23c",
".r c #dc8e24",
".s c #f4ba6c",
".t c #f4a234",
".u c #dc9a34",
".v c #fcd29c",
".w c #eca22c",
".x c #f4ca8c",
".y c #ecb664",
".z c #f4aa3c",
".A c #e49a2c",
".B c #ecae4c",
".C c #ecc684",
".D c #fcae5c",
".E c #f47204",
".F c #ecbe74",
".G c #dc8204",
".H c #e49624",
".I c #f4be6c",
".J c #dc860c",
".K c #f4b654",
".L c #f4deb4",
".M c #ec9a3c",
".N c #f4c27c",
".O c #f4b264",
".P c #ecdab4",
".Q c #f4a634",
".R c #e49e3c",
".S c #f4aa5c",
".T c #f4ba64",
".U c #eca23c",
".V c #dc9634",
".W c #fcd294",
".X c #ec9e2c",
".Y c #f4760c",
".Z c #ecba6c",
".0 c #f4e6cc",
".1 c #f4ae44",
".2 c #ecca94",
".3 c #f49e34",
".4 c #e48e1c",
".5 c #f4ae54",
".6 c #f4be74",
".7 c #fce2bc",
".8 c #f4b66c",
"#` c #f47e14",
"#. c #fcb654",
"## c #f49224",
"#a c #fcdaac",
"#b c #ec9e44",
"#c c #f46e04",
"#d c #f4e2bc",
"#e c #ecaa44",
"#f c #dc9224",
"#g c #f4ce9c",
"#h c #eca63c",
"#i c #f4962c",
"#j c #ecc284",
"#k c #f4ae64",
"#l c #f4b664",
"#m c #f47a0c",
"#n c #e4921c",
"#o c #f4d29c",
"#p c #ecb25c",
"#q c #ec9a24",
"#r c #ec8e2c",
"#s c #f4ca94",
"#t c #ecb66c",
"#u c #f4aa44",
"#v c #e49a34",
"#w c #ecae54",
"#x c #ecbe7c",
"#y c #000000",
"#z c #000000",
"#A c #000000",
"#B c #000000",
"#C c #000000",
"#D c #000000",
"#E c #000000",
"#F c #000000",
"#G c #000000",
"#H c #000000",
"#I c #000000",
"#J c #000000",
"#K c #000000",
"#L c #000000",
"#M c #000000",
"#N c #000000",
"#O c #000000",
"#P c #000000",
"#Q c #000000",
"#R c #000000",
"#S c #000000",
"#T c #000000",
"#U c #000000",
"#V c #000000",
"#W c #000000",
"#X c #000000",
"#Y c #000000",
"#Z c #000000",
"#0 c #000000",
"#1 c #000000",
"#2 c #000000",
"#3 c #000000",
"#4 c #000000",
"#5 c #000000",
"#6 c #000000",
"#7 c #000000",
"#8 c #000000",
"a` c #000000",
"a. c #000000",
"a# c #000000",
"aa c #000000",
"ab c #000000",
"ac c #000000",
"ad c #000000",
"ae c #000000",
"af c #000000",
"ag c #000000",
"ah c #000000",
"ai c #000000",
"aj c #000000",
"ak c #000000",
"al c #000000",
"am c #000000",
"an c #000000",
"ao c #000000",
"ap c #000000",
"aq c #000000",
"ar c #000000",
"as c #000000",
"at c #000000",
"au c #000000",
"av c #000000",
"aw c #000000",
"ax c #000000",
"ay c #000000",
"az c #000000",
"aA c #000000",
"aB c #000000",
"aC c #000000",
"aD c #000000",
"aE c #000000",
"aF c #000000",
"aG c #000000",
"aH c #000000",
"aI c #000000",
"aJ c #000000",
"aK c #000000",
"aL c #000000",
"aM c #000000",
"aN c #000000",
"aO c #000000",
"aP c #000000",
"aQ c #000000",
"aR c #000000",
"aS c #000000",
"aT c #000000",
"aU c #000000",
"aV c #000000",
"aW c #000000",
"aX c #000000",
"aY c #000000",
"aZ c #000000",
"a0 c #000000",
"a1 c #000000",
"a2 c #000000",
"a3 c #000000",
"a4 c #000000",
"a5 c #000000",
"a6 c #000000",
"a7 c #000000",
"a8 c #000000",
/* pixels */
"````````````````````````````````````````````````````````````````````````````````````````````````",
"``````````````````````````````````````````````#``A``````````````````````````````````````````````",
"````````````````````````````````````````````.Y#r.M#c````````````````````````````````````````````",
"```````````````````````````````````````````Q`F`d#j.M#c``````````````````````````````````````````",
"````````````````````````````````````````#m`K`6#f.r`k.M#c````````````````````````````````````````",
"``````````````````````````````````````#m`N.o.V`..G#f#j.M#c``````````````````````````````````````",
"````````````````````````````````````#m`N.0.u.G.J.J`.#f.f.M#c````````````````````````````````````",
"```````````````````````````````````A#k.0#g.u.G.J`4`4`.#f.C.M#c``````````````````````````````````",
"````````````````````````````````#m##`6`b.f`h.J`4`.`4`4.J`w#j.M.E````````````````````````````````",
"``````````````````````````````.Y#r#j#t.f#j#j`3.F.q.J`4`4`g`P.f.M.E``````````````````````````````",
"````````````````````````````#m##.f#v`w.2.N.f.f`b`h.J`4`4`s.J`w#j.M#c````````````````````````````",
"``````````````````````````.Y`m#j.R.G.H#j.f.f#x`J#v`s`H`s`4`s.k.H#j.M#c``````````````````````````",
"````````````````````````.Y###j.R.k`4#f#j`z.f.q`g`4`H`s`H`s`H`s.k`P`W.M#c````````````````````````",
"``````````````````````.Y`m.f.R.k`s`H#n`W.f#s.q`U#n`s`H`s`H`s`H`s.k`P`W.M#c``````````````````````",
"````````````````````.Y###j`r.k.4`s`H#f`W`z`E.R.k#n`s#n`H`s.4`H`s.4.k`P`W.M#c````````````````````",
"``````````````````#m###x.R.k.4`s#n`s.H`7.f.x`J.A#n#n#n#f.b.4#f`H.4`s`s`P.F.M.E``````````````````",
"````````````````#m`m#x.R`4#n.b.4#n`H#v`E`z.f.x#s#p`H#n.b#n.b#n`s#n.b#n`s`P.F`l.E````````````````",
"``````````````.Y###j.R`H.b.4#f.b#n`H`c`R.f.x.2#g`#`H`a#n#n#n#n#n`a#n#n#n`s.A#x`l#c``````````````",
"````````````.Y`m#x`r`H`s#n.b#n#n`a.b.y`R#s`W.U.d.A.b`a#n.b`a#n.h.f#w.k`U.q`7`c`3.M#c````````````",
"``````````.Y`m.F.R`H.b#n#n#n#n`a#n.H`7.x`R#w`H`a`e.H`a.U#p#n`H`r#s`W.d`c.y#g`c#n.Z#b#c``````````",
"````````#m`m.6`r`H#n#f.b#n`a`a`a.b`V`R.2`z.q`e.h`e.h`e.y#o#p#p.N.x`E#s`R.x.f`z`J#p`6`t.E````````",
"``````#m`m.F.R`H#n.b#n#n`a`a.H`a`e#j#s.x`7.X`a`e.H`e.b`V`R#s`R.2#s.x`z`E`z.x`E#s.f`R`p`Y.E``````",
"````.Y`m.F`r`H#n#n#n`a#n`a.H`e#n#p`R.x#s`R`7.U#h.N.U.B#s#s.x.x#s.x`E#s.x.2`z`E`z.f`7#s`b`l#c````",
"``#`###t`r`U#n#n#n`a`a.H`e.H`e.l.x#s#s`R`R#o.y.B#o#s`R`R`R.x`R.x`R.x.x#s.x`E.x.f.x`E.f#s.L.S`A``",
"``.a`Y.Z.A`s#n#n`a#n`a`e.H.H#q.C`R`R`R`V.g.N`v`e.N#o.x`R.x`R#s`R`E#s#s`E.x#s.x.x.f.x`z`E`6`1.E``",
"````.E.m.Z`r`H`a`a.H.H`e.H#q`n#g.x`R`8`e.i`l.i.B#g`R`R`R`R`R.x`R#s`R.x#s.x`E#s`E#s.f.x`6.S#c````",
"```````A`Y.Z`r.b.H`e.H`e.X`W#g.x`R.6#q`y#h.x.I.x.c`R`R`R.x`R`R`R.x`R`R.x#s.x.x#s`7#s`6.e`2``````",
"`````````A##.Z.l`a`a`e.d.x`R.x`R`R`7.X#q#e.x#o`R`x#g`x`R`x`R`R`R`R.x#s`R.x#s#s`E#s#d.S#c````````",
"``````````.E`Y.y.X.l.Z`R`R.x#g`R`R#o.6.X.##h`x#g`R`x#g`R#g`R`x`R#s`R`R.x`R.x.x#s.L`1`2``````````",
"````````````.E`F.o`R`R#s`R#o.T`v.N.v`8`y.i.K#o.W#o#g.W`R`x#g`R`R`R`R`R#s`R.x`R`6`1`2````````````",
"```````````````A`K#d`R#s.x.B#q`y.X#u`y#u`i`7.v`R.W`R.W#g.c`x#o`x#g`R`R`R.x`R#d`1`2``````````````",
"````````````````.a.8.7#g.N#q.3.w.#.X.#.n`0.v`R.v.c.v.c.v`R.v`R#g`R`x`R.x`R`6`1#c````````````````",
"```````````````````A`N.7#o#e`y.#.w.#.w#u.I.c.v.c.v`x#o`x#o`R.W`R.W`R`R`R.7`1#c``````````````````",
"`````````````````````A.8`j#u`y.#.#`v.Q.#.z.W.v`R.v#o.v#o.v.v.c.v`R`R`x#d`1#c````````````````````",
"```````````````````````A##.T`O.X.t.#.Q.#.z#o.v.v.W.v#o.W.W`R.v`R`x#g.7`1#c``````````````````````",
"````````````````````````.E#i.T.z.w.Q.#`8`M.W#o..#o.v.W#o.v.c.v.c#o.7`1#c````````````````````````",
"``````````````````````````.E`T.T.z.#`q.n`0...W.v...v...W.v#o`x#o`L`1#c``````````````````````````",
"`````````````````````````````A#i.T.z.Q`D.1`Z.o...W.o.W#o.v.c.v`L`1#c````````````````````````````",
"``````````````````````````````.E`T`f.z.Q`q#....v...W.....W.v#d`1#c``````````````````````````````",
"`````````````````````````````````A#i`f.z.Q#............v#o`L`1.E````````````````````````````````",
"``````````````````````````````````.E`T.`.``0`0...v.o.W.v`L`1#c``````````````````````````````````",
"````````````````````````````````````.E`T.I`M`u`x`0.W..#d.D#c````````````````````````````````````",
"``````````````````````````````````````.E`T.`.Q.1.W..`L`1#c``````````````````````````````````````",
"`````````````````````````````````````````A`T.``D`x.7`1.E````````````````````````````````````````",
"```````````````````````````````````````````A##`M.7.5.E``````````````````````````````````````````",
"````````````````````````````````````````````.E.3.5.E````````````````````````````````````````````",
"```````````````````````````````````````````````A`A``````````````````````````````````````````````",
"````````````````````````````````````````````````````````````````````````````````````````````````"
};
