/* XPM */
static const char *other_16_xpm[] = {
/* width height num_colors chars_per_pixel */
"    16    16      256            2",
/* colors */
"`` c None",
"`. c #ed905d",
"`# c #ea8750",
"`a c #f4a482",
"`b c #dc9f29",
"`c c #d8920e",
"`d c #ed8a52",
"`e c #ed864b",
"`f c #e8c573",
"`g c #e9b675",
"`h c #dd8a1a",
"`i c #dc9916",
"`j c #ed8a53",
"`k c #ee8a50",
"`l c #dd9814",
"`m c #e8ab5d",
"`n c #e8b05c",
"`o c #de8a0e",
"`p c #de8915",
"`q c #de9c1c",
"`r c #ed894f",
"`s c #ee884e",
"`t c #e09f21",
"`u c #df850e",
"`v c #ebb666",
"`w c #edc17f",
"`x c #e39422",
"`y c #e18e13",
"`z c #e08915",
"`A c #df9c17",
"`B c #ed864a",
"`C c #ee874a",
"`D c #e1a020",
"`E c #e28c18",
"`F c #e4941d",
"`G c #efc17d",
"`H c #eaa94b",
"`I c #e5941d",
"`J c #e79f34",
"`K c #eaae55",
"`L c #eaab5b",
"`M c #e8bd5c",
"`N c #ef8d56",
"`O c #e19e1e",
"`P c #e38f1e",
"`Q c #e49013",
"`R c #eaaa4a",
"`S c #f3cf99",
"`T c #eba744",
"`U c #ecac4e",
"`V c #f2c98d",
"`W c #f2cc93",
"`X c #f2cd95",
"`Y c #f0c590",
"`Z c #eed18a",
"`0 c #f19c6a",
"`1 c #ed8649",
"`2 c #e29f1d",
"`3 c #e58c14",
"`4 c #eaa53f",
"`5 c #f3cc92",
"`6 c #eead4e",
"`7 c #efb35a",
"`8 c #f5ce96",
".` c #f4cd93",
".. c #f3ca90",
".# c #f2ca8d",
".a c #f1c48d",
".b c #f0d592",
".c c #f2a074",
".d c #f08847",
".e c #edc05e",
".f c #f3c48a",
".g c #f2c37c",
".h c #efa73e",
".i c #f4c47c",
".j c #f6d099",
".k c #f5cd92",
".l c #f4cd92",
".m c #f3c792",
".n c #f2d993",
".o c #f49b73",
".p c #f7a78b",
".q c #f0c361",
".r c #ed9520",
".s c #f2af4c",
".t c #f7ce92",
".u c #f7d097",
".v c #f6cf95",
".w c #f6c996",
".x c #f4db96",
".y c #f49b74",
".z c #f38c4e",
".A c #f0ac29",
".B c #f4ab4b",
".C c #f8d298",
".D c #f8cd99",
".E c #f6dd98",
".F c #f59d74",
".G c #f48846",
".H c #f4b83f",
".I c #f9cb91",
".J c #fad19f",
".K c #f8df9a",
".L c #f69d75",
".M c #f58a43",
".N c #f8cb6e",
".O c #fae09f",
".P c #f89e74",
".Q c #f69247",
".R c #f8a26b",
".S c #000000",
".T c #000000",
".U c #000000",
".V c #000000",
".W c #000000",
".X c #000000",
".Y c #000000",
".Z c #000000",
".0 c #000000",
".1 c #000000",
".2 c #000000",
".3 c #000000",
".4 c #000000",
".5 c #000000",
".6 c #000000",
".7 c #000000",
".8 c #000000",
"#` c #000000",
"#. c #000000",
"## c #000000",
"#a c #000000",
"#b c #000000",
"#c c #000000",
"#d c #000000",
"#e c #000000",
"#f c #000000",
"#g c #000000",
"#h c #000000",
"#i c #000000",
"#j c #000000",
"#k c #000000",
"#l c #000000",
"#m c #000000",
"#n c #000000",
"#o c #000000",
"#p c #000000",
"#q c #000000",
"#r c #000000",
"#s c #000000",
"#t c #000000",
"#u c #000000",
"#v c #000000",
"#w c #000000",
"#x c #000000",
"#y c #000000",
"#z c #000000",
"#A c #000000",
"#B c #000000",
"#C c #000000",
"#D c #000000",
"#E c #000000",
"#F c #000000",
"#G c #000000",
"#H c #000000",
"#I c #000000",
"#J c #000000",
"#K c #000000",
"#L c #000000",
"#M c #000000",
"#N c #000000",
"#O c #000000",
"#P c #000000",
"#Q c #000000",
"#R c #000000",
"#S c #000000",
"#T c #000000",
"#U c #000000",
"#V c #000000",
"#W c #000000",
"#X c #000000",
"#Y c #000000",
"#Z c #000000",
"#0 c #000000",
"#1 c #000000",
"#2 c #000000",
"#3 c #000000",
"#4 c #000000",
"#5 c #000000",
"#6 c #000000",
"#7 c #000000",
"#8 c #000000",
"a` c #000000",
"a. c #000000",
"a# c #000000",
"aa c #000000",
"ab c #000000",
"ac c #000000",
"ad c #000000",
"ae c #000000",
"af c #000000",
"ag c #000000",
"ah c #000000",
"ai c #000000",
"aj c #000000",
"ak c #000000",
"al c #000000",
"am c #000000",
"an c #000000",
"ao c #000000",
"ap c #000000",
"aq c #000000",
"ar c #000000",
"as c #000000",
"at c #000000",
"au c #000000",
"av c #000000",
"aw c #000000",
"ax c #000000",
"ay c #000000",
"az c #000000",
"aA c #000000",
"aB c #000000",
"aC c #000000",
"aD c #000000",
"aE c #000000",
"aF c #000000",
"aG c #000000",
"aH c #000000",
"aI c #000000",
"aJ c #000000",
"aK c #000000",
"aL c #000000",
"aM c #000000",
"aN c #000000",
"aO c #000000",
"aP c #000000",
"aQ c #000000",
"aR c #000000",
"aS c #000000",
"aT c #000000",
"aU c #000000",
"aV c #000000",
"aW c #000000",
"aX c #000000",
"aY c #000000",
"aZ c #000000",
"a0 c #000000",
"a1 c #000000",
"a2 c #000000",
"a3 c #000000",
"a4 c #000000",
"a5 c #000000",
"a6 c #000000",
"a7 c #000000",
"a8 c #000000",
/* pixels */
"````````````````````````````````",
"```````````````.`#``````````````",
"`````````````a`b`c`d````````````",
"```````````e`f`g`h`i`j``````````",
"`````````k`l`m`n`o`p`q`r````````",
"```````s`t`u`v`w`x`y`z`A`B``````",
"`````C`D`E`F`G`H`I`J`K`L`M`N````",
"```B`O`P`Q`R`S`T`U`V`W`X`Y`Z`0``",
"```1`2`3`4`5`6`7`8.`...#.a.b.c``",
"````.d.e.f.g.h.i.j.k.l.m.n.o````",
"``````.p.q.r.s.t.u.v.w.x.y``````",
"````````.z.A.B.C.C.D.E.F````````",
"``````````.G.H.I.J.K.L``````````",
"````````````.M.N.O.P````````````",
"``````````````.Q.R``````````````",
"````````````````````````````````"
};
