/* XPM */
static const char *package_48_xpm[] = {
/* columns rows colors chars-per-pixel */
"48 48 151 2",
"   c #654107",
".  c #6D4607",
"X  c #634008",
"o  c #794E0A",
"O  c #9F670C",
"+  c #996511",
"@  c #9D6814",
"#  c #A0670D",
"$  c #A1690D",
"%  c #A26A12",
"&  c #AA6E11",
"*  c #A36D18",
"=  c #AC7112",
"-  c #A6701A",
";  c #AA731C",
":  c #B27514",
">  c #B3771A",
",  c #B5791B",
"<  c #BC7D1C",
"1  c #AA7522",
"2  c #AF7822",
"3  c #AE7A2A",
"4  c #B47B23",
"5  c #B87F23",
"6  c #A07A3D",
"7  c #BD8124",
"8  c #B38234",
"9  c #B58539",
"0  c #B7893F",
"q  c #B9883A",
"w  c #C5831D",
"e  c #C9871E",
"r  c #CD8A1E",
"t  c #D28D1F",
"y  c #C38525",
"u  c #CC8A23",
"i  c #C08428",
"p  c #D38E21",
"a  c #D59022",
"s  c #DB9323",
"d  c #C68A30",
"f  c #C58E39",
"g  c #CC933C",
"h  c #D39737",
"j  c #DA9834",
"k  c #D3993E",
"l  c #B18745",
"z  c #B78A41",
"x  c #BC8D44",
"c  c #BE934D",
"v  c #B49461",
"b  c #B99B6A",
"n  c #BA9E72",
"m  c #C09145",
"M  c #CB9340",
"N  c #CE9947",
"B  c #C6984F",
"V  c #D29B47",
"C  c #D29E4E",
"Z  c #C19653",
"A  c #D7A14E",
"S  c #D5A355",
"D  c #DBA655",
"F  c #DFAC5D",
"G  c #C7A062",
"H  c #CEA564",
"J  c #CFA96F",
"K  c #D4A760",
"L  c #DCAD63",
"P  c #D3AB6C",
"I  c #CEAA72",
"U  c #DAB376",
"Y  c #DCB67B",
"T  c #DFB87C",
"R  c #E4B264",
"E  c #E1B269",
"W  c #E8B76B",
"Q  c #E6B86F",
"!  c #EABA6F",
"~  c #EABD76",
"^  c #ECBF7A",
"/  c #ECC17D",
"(  c #BAA88A",
")  c #BCB8B3",
"_  c #C9AE85",
"`  c #DFBA81",
"'  c #DDBD8C",
"]  c #C9B392",
"[  c #D3BA92",
"{  c #DCBF91",
"}  c #D4BE9B",
"|  c #E2BC82",
" . c #C5BCAD",
".. c #C1BBB3",
"X. c #EDC483",
"o. c #E5C28B",
"O. c #EEC789",
"+. c #EEC98D",
"@. c #E3C494",
"#. c #EAC791",
"$. c #EDCA93",
"%. c #E3C79B",
"&. c #E5C89C",
"*. c #ECCD9B",
"=. c #F0CD96",
"-. c #F0CF99",
";. c #F1D19D",
":. c #D4C2A4",
">. c #D8C5A6",
",. c #D6C6AE",
"<. c #D8C7AA",
"1. c #CBC7BF",
"2. c #D0C5B2",
"3. c #D8CBB5",
"4. c #D0C9BC",
"5. c #DFD1BF",
"6. c #EACEA2",
"7. c #EDD1A6",
"8. c #EBD2AB",
"9. c #F1D4A6",
"0. c #F1D5AA",
"q. c #F3D8AD",
"w. c #EBD6B6",
"e. c #EDD9BA",
"r. c #F0D7B3",
"t. c #F1D9B4",
"y. c #F1DCBC",
"u. c #C5C5C5",
"i. c #CFCBC5",
"p. c #D3CEC5",
"a. c #D4D1CA",
"s. c #D9D5CE",
"d. c #D7D5D3",
"f. c #E5D9C7",
"g. c #E4DAC9",
"h. c #F2DFC2",
"j. c #E2DDD5",
"k. c #EBE0CE",
"l. c #F3E1C4",
"z. c #F4E3CA",
"x. c #F8E6CE",
"c. c #F8E8CF",
"v. c #F1E5D3",
"b. c #F7EBD8",
"n. c #F8ECD9",
"m. c #E2E2E1",
"M. c #ECECEC",
"N. c #F2EEE9",
"B. c #F2F2F2",
"V. c #F8F8F8",
"C. c None",
/* pixels */
"C.C.C.C.C.C.C.C.C.C.C.C.C.C.C.C.C.C.C.C.C.C.C.C.C.C.C.C.C.C.C.C.C.C.C.C.C.C.C.C.C.C.C.C.C.C.C.C.",
"C.C.C.C.C.C.C.C.C.C.C.C.C.C.C.C.C.C.C.C.C.C.C.C.C.C.C.C.C.C.C.C.C.C.C.C.C.C.C.C.C.C.C.C.C.C.C.C.",
"C.C.C.C.C.C.C.C.C.C.C.C.C.C.C.C.C.C.C.C.C.C.C.C.C.C.C.C.C.C.C.C.C.C.C.C.C.C.C.C.C.C.C.C.C.C.C.C.",
"C.C.C.C.C.C.C.C.C.C.C.C.C.C.C.C.C.C.C.C.C.C.C.C.C.C.C.C.C.C.C.C.C.C.C.C.C.C.C.C.C.C.C.C.C.C.C.C.",
"C.C.C.C.C.C.C.C.C.C.C.C.C.C.C.C.C.C.C.C.C.C.C.C.C.C.C.C.C.C.C.C.C.C.C.C.C.C.C.C.C.C.C.C.C.C.C.C.",
"C.C.C.C.C.C.C.C.C.C.C.C.C.C.C.C.C.C.C.C.C.C.C.C.C.C.C.C.C.C.C.C.C.C.C.C.C.C.C.C.C.C.C.C.C.C.C.C.",
"C.C.C.C.C.C.C.C.C.C.C.C.C.C.C.C.C.C.C.C.C.C.C.C.C.C.C.C.C.C.C.C.C.C.C.C.C.C.C.C.C.C.C.C.C.C.C.C.",
"C.C.C.C.C.C.C.C.C.C.C.C.C.C.C.C.C.C.C.C.C.C.C.C.C.C.C.C.C.C.C.C.C.C.C.C.C.C.C.C.C.C.C.C.C.C.C.C.",
"C.C.C.C.C.C.C.C.C.C.C.C.C.C.C.C.C.C.C.C.C.C.C.C.C.C.C.C.C.C.C.C.C.C.C.C.C.C.C.C.C.C.C.C.C.C.C.C.",
"C.C.C.C.C.C.C.C.C.C.C.C.C.* $ O # $ # # $ $ $ O $ $ $ $ $ $ $ $ $ $ C.C.C.C.C.C.C.C.C.C.C.C.C.C.",
"C.C.C.C.C.C.C.C.C.C.C.* x | ` ` | | o.o.o.#.%.*.7.7.8.t.y.h.l.l.h.w.3 $ C.C.C.C.C.C.C.C.C.C.C.C.",
"C.C.C.C.C.C.C.C.* % c @.| 3 1 1 1 1 2 4 4 4 7 7 7 y y y u u u a a H %.r : # C.C.C.C.C.C.C.C.C.C.",
"C.C.C.C.C.C.C.& 9 y.c.Y B * * * * - - > 4 > , < < w y w w e r r t a &.L s t & # C.C.C.C.C.C.C.C.",
"C.C.C.C.C.C.* 3 l.c.6.T - * * * * v :.N.N.2.n l _ g.B.d.] Z r r t t h e.j a t & C.C.C.C.C.C.C.C.",
"C.C.C.C.C.C.1 y.c.x.T q * * * @ ( M.B.B.M.m.u.m.B.V.B.M.m.d.b e t a t P @.a p e $ C.C.C.C.C.C.C.",
"C.C.C.C.C.- w.c.c.@.T z z z 0 6 1.p.p.a.p.) ) d.s.s.s.a.i.1. .9 k V j k w.K t u w $ C.C.C.C.C.C.",
"C.C.C.C.* 8.c.e.G 7.-.*.-.-.*.&.@.' { [ [ } :.>.<.,.,.3.5.f.k.v.b.b.b.n.n.w.: e y < $ C.C.C.C.C.",
"C.C.C.& 6.e.c & { r.9.9.9.;.;.;.;.;.-.*.-.=.=.=.=.=.=.=.$.=.=.+.=.$.+.+.O.y.P $ : < : $ C.C.C.C.",
"C.C.* I c @ % Z l.9.-.-.-.-.=.=.=.=.=.=.=.=.$.$.=.=.+.+.+.+.O.O.+.O.X.O.O.+.l.x # $ = : $ C.C.C.",
"C.% % % C.C.; l.9.=.=.=.=.=.=.=.=.+.=.$.$.+.+.O.O.O.O.O.O.O.O.X.X.X.X.X.X.X.*.y.; C.# # $ $ C.C.",
"* * C.C.C.* %.t.=.=.=.+.=.+.+.+.O.+.+.O.O.O.X.O.X.O.X.X.X.X./ / / X./ / / ^ ^ 0.6.% C.C.C.# # C.",
"C.C.C.C.C.Z l.+.O.O.O.O.O.O.O.O.O.X.X.X.X.X.X.X.X./ X./ / / / / ^ ^ ~ ^ ~ ~ ~ ~ y.P % C.C.C.C.C.",
"C.C.C.C.; h.z.z.z.z.z.z.z.z.z.z.z.z.z.z.z.c.z.z.z.z.z.z.z.z.z.z.z.z.z.z.z.z.z.z.z.l.8 C.C.C.C.C.",
"C.C.C.C.# # $ $ % $ $ $ $ $ # # $ $ $ $ $ $ O $ $ $ $ $ $ $ $ $ % $ $ $ $ $ % # # # # & C.C.C.C.",
"C.C.C.C.C.C.C.# ' i i i i i i i i i 7 y i 7 y 7 7 i 7 i i i i i y i i i i f P # C.C.C.C.C.C.C.C.",
"C.C.C.C.C.C.C.# @.d d d d d d d d d d d d d d d d d d d d d d d d d d d d g U $ C.C.C.C.C.C.C.C.",
"C.C.C.C.C.C.C.# @.f g f g g g g g f g f g f g g g g f g d g g g g g g g f V Y # C.C.C.C.C.C.C.C.",
"C.C.C.C.C.C.C.# %.k g k g g g g M k k M g k g N g N h g k N g g M g g g M C Y $ C.C.C.C.C.C.C.C.",
"C.C.C.C.C.C.C.# *.V V V V V V V V V V V V V V V V V V V V V V V V V V V N S ` $ C.C.C.C.C.C.C.C.",
"C.C.C.C.C.C.C.$ 6.A C A A A A A A A A A A A A A A A A A A A A A A A A A A F | # C.C.C.C.C.C.C.C.",
"C.C.C.C.C.C.C.$ 6.D D D D D D D D D D D D D D D D D D D D D D D D D D D D L o.$ C.C.C.C.C.C.C.C.",
"C.C.C.C.C.C.C.$ 7.F F F F F F F F F F F F F F F F F F F F F F F F F F F F E o.$ C.C.C.C.C.C.C.C.",
"C.C.C.C.C.C.C.$ 0.R R R R R R R R R R R R R R R R R R R R R R R R R R R R Q +.@ C.C.C.C.C.C.C.C.",
"C.C.C.C.C.C.C.$ 0.W W W W W W W W W W W W W W W W W W W W W W W W W W W W ~ $.O C.C.C.C.C.C.C.C.",
"C.C.C.C.C.C.C.# q.! ! ! ! ! ! ! ! ! ! ! ! ! ! ! ! ! ! ! ! ! ! ! ! ! ! ! ! ^ $.@ C.C.C.C.C.C.C.C.",
"C.C.C.C.C.C.C.# q.! ! ! ! ! ! ! ! ! ! ! ! ! ! ! ! ! ! ! ! ! ! ~ ! ! ! ! ~ ^ $.O C.C.C.C.C.C.C.C.",
"C.C.C.C.C.C.C.% @.O.^ ^ ^ ^ ^ ^ ^ ^ ^ ^ ^ ^ ^ ^ ^ ^ ^ ^ ^ ^ ^ ^ ~ ~ / ~ / O.T O C.C.C.C.C.C.C.C.",
"C.C.C.C.C.C.C.o 8 | *.$.*.$.$.*.$.$.*.$.$.$.$.$.@.$.$.#.$.$.#.#.#.#.#.#.#.U 1   C.C.C.C.C.C.C.C.",
"C.C.C.C.C.C.C.C.. @ % @ % % @ @ % @ % % @ @ % @ % % @ % @ @ % % % % % % % @ X C.C.C.C.C.C.C.C.C.",
"C.C.C.C.C.C.C.C.C.C.C.C.C.C.C.C.C.C.C.C.C.C.C.C.C.C.C.C.C.C.C.C.C.C.C.C.C.C.C.C.C.C.C.C.C.C.C.C.",
"C.C.C.C.C.C.C.C.C.C.C.C.C.C.C.C.C.C.C.C.C.C.C.C.C.C.C.C.C.C.C.C.C.C.C.C.C.C.C.C.C.C.C.C.C.C.C.C.",
"C.C.C.C.C.C.C.C.C.C.C.C.C.C.C.C.C.C.C.C.C.C.C.C.C.C.C.C.C.C.C.C.C.C.C.C.C.C.C.C.C.C.C.C.C.C.C.C.",
"C.C.C.C.C.C.C.C.C.C.C.C.C.C.C.C.C.C.C.C.C.C.C.C.C.C.C.C.C.C.C.C.C.C.C.C.C.C.C.C.C.C.C.C.C.C.C.C.",
"C.C.C.C.C.C.C.C.C.C.C.C.C.C.C.C.C.C.C.C.C.C.C.C.C.C.C.C.C.C.C.C.C.C.C.C.C.C.C.C.C.C.C.C.C.C.C.C.",
"C.C.C.C.C.C.C.C.C.C.C.C.C.C.C.C.C.C.C.C.C.C.C.C.C.C.C.C.C.C.C.C.C.C.C.C.C.C.C.C.C.C.C.C.C.C.C.C.",
"C.C.C.C.C.C.C.C.C.C.C.C.C.C.C.C.C.C.C.C.C.C.C.C.C.C.C.C.C.C.C.C.C.C.C.C.C.C.C.C.C.C.C.C.C.C.C.C.",
"C.C.C.C.C.C.C.C.C.C.C.C.C.C.C.C.C.C.C.C.C.C.C.C.C.C.C.C.C.C.C.C.C.C.C.C.C.C.C.C.C.C.C.C.C.C.C.C.",
"C.C.C.C.C.C.C.C.C.C.C.C.C.C.C.C.C.C.C.C.C.C.C.C.C.C.C.C.C.C.C.C.C.C.C.C.C.C.C.C.C.C.C.C.C.C.C.C."
};
