/* XPM */
static const char *pan1_cur_xpm[] = {
/* width height num_colors chars_per_pixel */
"    16    16      256            2",
/* colors */
"`` c None",
"`. c #000000",
"`# c #f5f5f5",
"`a c #ffffff",
"`b c #949494",
"`c c #c0c0c0",
"`d c #ececec",
"`e c #9a9a9a",
"`f c #b7b7b7",
"`g c #f8f8f8",
"`h c #858585",
"`i c #fdfdfd",
"`j c #9f9f9f",
"`k c #bdbdbd",
"`l c #bababa",
"`m c #828282",
"`n c #f3f3f3",
"`o c #818181",
"`p c #bcbcbc",
"`q c #6f6f6f",
"`r c #f9f9f9",
"`s c #efefef",
"`t c #e8e8e8",
"`u c #c1c1c1",
"`v c #f4f4f4",
"`w c #bebebe",
"`x c #ababab",
"`y c #fbfbfb",
"`z c #cacaca",
"`A c #e4e4e4",
"`B c #eeeeee",
"`C c #f6f6f6",
"`D c #b5b5b5",
"`E c #f7f7f7",
"`F c #c3c3c3",
"`G c #fefefe",
"`H c #dddddd",
"`I c #f2f2f2",
"`J c #f0f0f0",
"`K c #d5d5d5",
"`L c #eaeaea",
"`M c #ededed",
"`N c #e6e6e6",
"`O c #aeaeae",
"`P c #c8c7c7",
"`Q c #e5e5e5",
"`R c #e3e3e3",
"`S c #e2e2e2",
"`T c #d7d7d7",
"`U c #c4c4c4",
"`V c #dfdfdf",
"`W c #dcdcdc",
"`X c #dadada",
"`Y c #c8c8c8",
"`Z c #d6d6d6",
"`0 c #d3d3d3",
"`1 c #969696",
"`2 c #dbdbdb",
"`3 c #d8d8d8",
"`4 c #cccccc",
"`5 c #000000",
"`6 c #000000",
"`7 c #000000",
"`8 c #000000",
".` c #000000",
".. c #000000",
".# c #000000",
".a c #000000",
".b c #000000",
".c c #000000",
".d c #000000",
".e c #000000",
".f c #000000",
".g c #000000",
".h c #000000",
".i c #000000",
".j c #000000",
".k c #000000",
".l c #000000",
".m c #000000",
".n c #000000",
".o c #000000",
".p c #000000",
".q c #000000",
".r c #000000",
".s c #000000",
".t c #000000",
".u c #000000",
".v c #000000",
".w c #000000",
".x c #000000",
".y c #000000",
".z c #000000",
".A c #000000",
".B c #000000",
".C c #000000",
".D c #000000",
".E c #000000",
".F c #000000",
".G c #000000",
".H c #000000",
".I c #000000",
".J c #000000",
".K c #000000",
".L c #000000",
".M c #000000",
".N c #000000",
".O c #000000",
".P c #000000",
".Q c #000000",
".R c #c4adcc",
".S c #c4adcc",
".T c #000058",
".U c #000000",
".V c #000000",
".W c #000000",
".X c #000000",
".Y c #080000",
".Z c #000000",
".0 c #c48510",
".1 c #c4abbc",
".2 c #000034",
".3 c #000000",
".4 c #c483f8",
".5 c #c4838c",
".6 c #000024",
".7 c #000000",
".8 c #000000",
"#` c #400000",
"#. c #000000",
"## c #000000",
"#a c #000104",
"#b c #000013",
"#c c #417cc0",
"#d c #000000",
"#e c #000000",
"#f c #c45724",
"#g c #c45724",
"#h c #0006f0",
"#i c #000000",
"#j c #000000",
"#k c #000000",
"#l c #000000",
"#m c #000000",
"#n c #000000",
"#o c #c45748",
"#p c #c45748",
"#q c #0006cc",
"#r c #000000",
"#s c #c45758",
"#t c #c45758",
"#u c #0006bc",
"#v c #000000",
"#w c #000000",
"#x c #000000",
"#y c #000000",
"#z c #000000",
"#A c #000000",
"#B c #c4577c",
"#C c #c4577c",
"#D c #000698",
"#E c #000000",
"#F c #c4578c",
"#G c #c4578c",
"#H c #000688",
"#I c #000000",
"#J c #000000",
"#K c #000000",
"#L c #000000",
"#M c #001000",
"#N c #000000",
"#O c #c457b0",
"#P c #c457b0",
"#Q c #000664",
"#R c #2e2a3b",
"#S c #3b6570",
"#T c #706a2e",
"#U c #2e2a3b",
"#V c #666966",
"#W c #6a2e2a",
"#X c #2a3b67",
"#Y c #65706a",
"#Z c #2a7c29",
"#0 c #65706a",
"#1 c #2e2a3b",
"#2 c #3b6570",
"#3 c #706a2e",
"#4 c #2e2a3b",
"#5 c #666966",
"#6 c #6a2e2a",
"#7 c #2a3b67",
"#8 c #65706a",
"a` c #504a7c",
"a. c #282047",
"a# c #706a2e",
"aa c #7c2967",
"ab c #706a2e",
"ac c #4a7c67",
"ad c #204745",
"ae c #6a2e2a",
"af c #7c2965",
"ag c #706a2e",
"ah c #504a7c",
"ai c #282047",
"aj c #706a2e",
"ak c #2a7c29",
"al c #67706a",
"am c #45504a",
"an c #2a2820",
"ao c #69666a",
"ap c #2a7c29",
"aq c #69666a",
"ar c #69467c",
"as c #656968",
"at c #6d6920",
"au c #206567",
"av c #474550",
"aw c #2e2a28",
"ax c #296770",
"ay c #6a2e2a",
"az c #467c67",
"aA c #696863",
"aB c #692072",
"aC c #656761",
"aD c #45504a",
"aE c #2a2820",
"aF c #65706a",
"aG c #2a7c29",
"aH c #65706a",
"aI c #000000",
"aJ c #c4589c",
"aK c #c4589c",
"aL c #000578",
"aM c #f0f0f0",
"aN c #00f0f0",
"aO c #76ed00",
"aP c #767676",
"aQ c #767676",
"aR c #00f076",
"aS c #76ec00",
"aT c #f0f0f0",
"aU c #f0f0f0",
"aV c #00f076",
"aW c #76ec00",
"aX c #eee3ee",
"aY c #eee3ee",
"aZ c #00f076",
"a0 c #76ec00",
"a1 c #eeeeee",
"a2 c #eeeeee",
"a3 c #00f076",
"a4 c #76ec00",
"a5 c #db0f1b",
"a6 c #8a88a1",
"a7 c #00f076",
"a8 c #76ec00",
/* pixels */
"`````````````.`.`.``````````````",
"`````````````.`#`.```.`.````````",
"```````.`````.`a`b`.`a`c`.``````",
"`````.`d`.```.`a`e`.`a`f`.``````",
"`````.`g`d`.`h`i`j`.`a`k`.```.``",
"```````.`a`l`m`n`j`o`a`p`q`.`r`.",
"```````.`s`t`u`v`w`x`y`z`q`t`A`.",
"```.`.```.`d`i`i`n`B`v`C`D`E`F`.",
"`.`G`H`.`u`m`a`E`E`#`v`#`#`I`.``",
"```.`C`t`m`m`G`n`v`v`n`J`J`K`.``",
"`````.`I`y`L`I`v`n`n`M`L`N`O`.``",
"`````.`P`#`B`Q`L`L`N`R`S`T`h`.``",
"```````.`U`A`V`W`H`W`X`X`c`.````",
"`````````.`Y`Z`Z`K`0`z`Y`1`.````",
"```````````.`X`2`3`0`4`l`.``````",
"```````````.`.`.`.`.`.`.`.``````"
};
