/* XPM */
static const char *pan2_cur_xpm[] = {
/* width height num_colors chars_per_pixel */
"    16    16      256            2",
/* colors */
"`` c None",
"`. c #000000",
"`# c #ffffff",
"`a c #c0c0c0",
"`b c #a0a0a0",
"`c c #b7b7b7",
"`d c #8b8b8b",
"`e c #f8f8f8",
"`f c #ececec",
"`g c #c1c1c1",
"`h c #f4f4f4",
"`i c #ababab",
"`j c #fbfbfb",
"`k c #cacaca",
"`l c #6f6f6f",
"`m c #fdfdfd",
"`n c #f3f3f3",
"`o c #eeeeee",
"`p c #f6f6f6",
"`q c #e8e8e8",
"`r c #fefefe",
"`s c #f7f7f7",
"`t c #f5f5f5",
"`u c #f2f2f2",
"`v c #c8c7c7",
"`w c #f0f0f0",
"`x c #d5d5d5",
"`y c #eaeaea",
"`z c #ededed",
"`A c #e6e6e6",
"`B c #aeaeae",
"`C c #e5e5e5",
"`D c #e3e3e3",
"`E c #e2e2e2",
"`F c #d7d7d7",
"`G c #858585",
"`H c #c4c4c4",
"`I c #e4e4e4",
"`J c #dfdfdf",
"`K c #dcdcdc",
"`L c #dddddd",
"`M c #dadada",
"`N c #c8c8c8",
"`O c #d6d6d6",
"`P c #d3d3d3",
"`Q c #969696",
"`R c #dbdbdb",
"`S c #d8d8d8",
"`T c #cccccc",
"`U c #bababa",
"`V c #000000",
"`W c #000000",
"`X c #000000",
"`Y c #000000",
"`Z c #000000",
"`0 c #000000",
"`1 c #000000",
"`2 c #000000",
"`3 c #000000",
"`4 c #000000",
"`5 c #000000",
"`6 c #000000",
"`7 c #000000",
"`8 c #000000",
".` c #000000",
".. c #000000",
".# c #000000",
".a c #000000",
".b c #000000",
".c c #000000",
".d c #000000",
".e c #000000",
".f c #000000",
".g c #000000",
".h c #000000",
".i c #000000",
".j c #000000",
".k c #000000",
".l c #000000",
".m c #000000",
".n c #000000",
".o c #000000",
".p c #000000",
".q c #000000",
".r c #000000",
".s c #000000",
".t c #000000",
".u c #000000",
".v c #000000",
".w c #000000",
".x c #000000",
".y c #000000",
".z c #000000",
".A c #000000",
".B c #000000",
".C c #000000",
".D c #000000",
".E c #000000",
".F c #000000",
".G c #000000",
".H c #000000",
".I c #be0000",
".J c #c4b01c",
".K c #c49974",
".L c #c49974",
".M c #000dd0",
".N c #c31658",
".O c #c499cc",
".P c #000000",
".Q c #000000",
".R c #000010",
".S c #000010",
".T c #000001",
".U c #000000",
".V c #000000",
".W c #000002",
".X c #000000",
".Y c #011940",
".Z c #000000",
".0 c #000000",
".1 c #000000",
".2 c #000000",
".3 c #000000",
".4 c #000000",
".5 c #c499c8",
".6 c #c499c8",
".7 c #000d7c",
".8 c #000010",
"#` c #000010",
"#. c #000000",
"## c #ffffff",
"#a c #c499e4",
"#b c #c499e4",
"#c c #000d60",
"#d c #ffffff",
"#e c #ffffff",
"#f c #00ffff",
"#g c #000000",
"#h c #000000",
"#i c #ffff00",
"#j c #00ffff",
"#k c #ff00ff",
"#l c #ffff00",
"#m c #00ffff",
"#n c #ffffff",
"#o c #ffffff",
"#p c #ffffff",
"#q c #ffffff",
"#r c #00ffff",
"#s c #f5f500",
"#t c #000000",
"#u c #00ff00",
"#v c #000000",
"#w c #ff00ff",
"#x c #ffff00",
"#y c #00ffff",
"#z c #ffffff",
"#A c #ffffff",
"#B c #0000ff",
"#C c #ffffff",
"#D c #00ffff",
"#E c #ffff00",
"#F c #949494",
"#G c #ff0000",
"#H c #c0c0ff",
"#I c #000000",
"#J c #ffff00",
"#K c #00ffff",
"#L c #ffffff",
"#M c #00ffff",
"#N c #ecec00",
"#O c #000000",
"#P c #00ffff",
"#Q c #ffff00",
"#R c #9a9a9a",
"#S c #ff0000",
"#T c #b7b7ff",
"#U c #000000",
"#V c #ffff00",
"#W c #00ffff",
"#X c #ffffff",
"#Y c #00ffff",
"#Z c #f8f800",
"#0 c #ececec",
"#1 c #850000",
"#2 c #c49abc",
"#3 c #c49abc",
"#4 c #000e74",
"#5 c #bdbdff",
"#6 c #000000",
"#7 c #00ff00",
"#8 c #00ff00",
"a` c #ffffff",
"a. c #ffffff",
"a# c #0000ff",
"aa c #ffffff",
"ab c #82baba",
"ac c #f3f382",
"ad c #9f9f9f",
"ae c #ff8181",
"af c #bcbcff",
"ag c #6f6f6f",
"ah c #f90000",
"ai c #0000f9",
"aj c #ffffff",
"ak c #ffffff",
"al c #0000ff",
"am c #efefef",
"an c #c1e8e8",
"ao c #f4f4c1",
"ap c #bebebe",
"aq c #fbabab",
"ar c #cacafb",
"as c #6f6f6f",
"at c #e4e8e8",
"au c #0000e4",
"av c #ffffff",
"aw c #000000",
"ax c #ffff00",
"ay c #000000",
"az c #fdecec",
"aA c #fdfdfd",
"aB c #f3f3f3",
"aC c #f4eeee",
"aD c #f6f6f4",
"aE c #b5b5b5",
"aF c #c3f7f7",
"aG c #0000c3",
"aH c #000000",
"aI c #ddfefe",
"aJ c #0000dd",
"aK c #c1c1c1",
"aL c #ff8282",
"aM c #f7f7ff",
"aN c #f7f7f7",
"aO c #f4f5f5",
"aP c #f5f5f4",
"aQ c #f5f5f5",
"aR c #00f2f2",
"aS c #ffff00",
"aT c #ffffff",
"aU c #f60000",
"aV c #e8e8f6",
"aW c #828282",
"aX c #fe8282",
"aY c #f3f3fe",
"aZ c #f4f4f4",
"a0 c #f3f4f4",
"a1 c #f0f0f3",
"a2 c #f0f0f0",
"a3 c #00d5d5",
"a4 c #ffff00",
"a5 c #ffffff",
"a6 c #00ffff",
"a7 c #f2f200",
"a8 c #fbfbfb",
/* pixels */
"````````````````````````````````",
"````````````````````````````````",
"````````````````````````````````",
"```````````````.`.``````````````",
"`````````````.`#`a`.`.`.````````",
"`````````.`.`b`#`c`d`#`c`.``````",
"```````.`e`f`g`h`a`i`j`k`l`.````",
"```````.`e`f`m`m`n`o`h`p`n`q`.``",
"```````.`c`r`#`s`s`t`h`t`t`u`.``",
"`````.`r`v`r`r`n`h`h`n`w`w`x`.``",
"`````.`p`j`y`u`h`n`n`z`y`A`B`.``",
"`````.`v`t`o`C`y`y`A`D`E`F`G`.``",
"```````.`H`I`J`K`L`K`M`M`a`.````",
"`````````.`N`O`O`x`P`k`N`Q`.````",
"```````````.`M`R`S`P`T`U`.``````",
"```````````.`.`.`.`.`.`.`.``````"
};
