/* XPM */
static const char * pg_vec_48_xpm[] = {
"48 48 533 2",
"  	c None",
". 	c #D0D3CC",
"+ 	c #CDD0C9",
"@ 	c #CACDC6",
"# 	c #C7CAC3",
"$ 	c #C4C7C0",
"% 	c #C1C4BD",
"& 	c #BEC1BA",
"* 	c #BBBEB7",
"= 	c #B8BBB4",
"- 	c #B5B8B1",
"; 	c #B2B5AE",
"> 	c #AFB2AB",
", 	c #ACAFA8",
"' 	c #A9ACA5",
") 	c #A6A9A2",
"! 	c #A3A69F",
"~ 	c #A0A39C",
"{ 	c #9DA099",
"] 	c #9A9D97",
"^ 	c #979A94",
"/ 	c #949791",
"( 	c #91948E",
"_ 	c #8E918B",
": 	c #8B8D88",
"< 	c #888A85",
"[ 	c #858782",
"} 	c #82847F",
"| 	c #7F817C",
"1 	c #7C7E79",
"2 	c #797B76",
"3 	c #767873",
"4 	c #737570",
"5 	c #70726D",
"6 	c #6D6F6A",
"7 	c #6A6C67",
"8 	c #676964",
"9 	c #646661",
"0 	c #61635F",
"a 	c #5E605C",
"b 	c #5B5D59",
"c 	c #585A55",
"d 	c #D3D6CE",
"e 	c #585A56",
"f 	c #414240",
"g 	c #3C3D3B",
"h 	c #434442",
"i 	c #424341",
"j 	c #424241",
"k 	c #40413F",
"l 	c #3F403E",
"m 	c #3E3F3D",
"n 	c #3E3E3D",
"o 	c #3D3E3C",
"p 	c #3D3D3C",
"q 	c #3B3C3B",
"r 	c #3B3B3B",
"s 	c #3B3B3A",
"t 	c #3A3B39",
"u 	c #393A39",
"v 	c #393A38",
"w 	c #393938",
"x 	c #383937",
"y 	c #383837",
"z 	c #373836",
"A 	c #373736",
"B 	c #363735",
"C 	c #353634",
"D 	c #494A47",
"E 	c #131312",
"F 	c #0F0F0F",
"G 	c #171717",
"H 	c #101010",
"I 	c #181818",
"J 	c #1C1C1C",
"K 	c #121212",
"L 	c #3B3D3A",
"M 	c #3A3B3A",
"N 	c #D7DBD3",
"O 	c #D6DAD2",
"P 	c #D4D8D1",
"Q 	c #D2D6CF",
"R 	c #D1D4CD",
"S 	c #B2B5AF",
"T 	c #080808",
"U 	c #3B3C39",
"V 	c #111111",
"W 	c #D5D9D2",
"X 	c #D3D7D0",
"Y 	c #D2D4CE",
"Z 	c #D0D2CC",
"` 	c #CDD1CA",
" .	c #AFB2AC",
"..	c #131313",
"+.	c #000000",
"@.	c #D2D5CE",
"#.	c #CED2CA",
"$.	c #CCD0C8",
"%.	c #CACEC7",
"&.	c #ACAFA9",
"*.	c #393B39",
"=.	c #D2D5CF",
"-.	c #D0D3CD",
";.	c #CED2CB",
">.	c #CACEC8",
",.	c #C8CCC5",
"'.	c #A8ABA5",
").	c #6C6E6A",
"!.	c #1F201F",
"~.	c #60625E",
"{.	c #C4C8C1",
"].	c #CFD2CB",
"^.	c #CDD1C9",
"/.	c #CBCFC8",
"(.	c #C9CCC6",
"_.	c #C8CAC4",
":.	c #C6C8C2",
"<.	c #C3C7C0",
"[.	c #A1A49E",
"}.	c #141414",
"|.	c #575855",
"1.	c #D3D6D0",
"2.	c #D1D4CE",
"3.	c #CFD2CC",
"4.	c #C9CDC6",
"5.	c #C8CBC4",
"6.	c #C6C9C2",
"7.	c #C4C8C0",
"8.	c #C2C6BE",
"9.	c #343533",
"0.	c #383936",
"a.	c #0D0D0D",
"b.	c #9FA19C",
"c.	c #CACDC7",
"d.	c #C8CBC5",
"e.	c #C7C9C3",
"f.	c #C5C8C1",
"g.	c #C2C6BF",
"h.	c #C0C4BD",
"i.	c #9C9F9A",
"j.	c #1B1C1B",
"k.	c #040404",
"l.	c #090909",
"m.	c #51524F",
"n.	c #C8CCC4",
"o.	c #696A67",
"p.	c #454643",
"q.	c #C3C7BF",
"r.	c #BFC2BC",
"s.	c #747572",
"t.	c #070706",
"u.	c #161615",
"v.	c #757873",
"w.	c #363835",
"x.	c #161616",
"y.	c #383938",
"z.	c #696B67",
"A.	c #8E908B",
"B.	c #464745",
"C.	c #020202",
"D.	c #ABAFA8",
"E.	c #CBCEC8",
"F.	c #C1C5BE",
"G.	c #BFC3BD",
"H.	c #B6B9B4",
"I.	c #454644",
"J.	c #353635",
"K.	c #A3A6A0",
"L.	c #92948E",
"M.	c #B3B6AF",
"N.	c #2F302E",
"O.	c #BFC2BB",
"P.	c #D5D8D2",
"Q.	c #D2D6D0",
"R.	c #C3C6BF",
"S.	c #C2C5BE",
"T.	c #C0C3BD",
"U.	c #BEC1BB",
"V.	c #9FA09B",
"W.	c #20201F",
"X.	c #030303",
"Y.	c #5F615D",
"Z.	c #ACB0A9",
"`.	c #8E928C",
" +	c #141413",
".+	c #D5D9D1",
"++	c #7B7D79",
"@+	c #0A0A0A",
"#+	c #0B0B0B",
"$+	c #7C7E7A",
"%+	c #CCCFC8",
"&+	c #BEC2BC",
"*+	c #BDC0BA",
"=+	c #787A76",
"-+	c #131413",
";+	c #878984",
">+	c #AAADA6",
",+	c #A8ABA4",
"'+	c #8C8E89",
")+	c #343633",
"!+	c #151514",
"~+	c #30312F",
"{+	c #B0B3AE",
"]+	c #B6B8B2",
"^+	c #4A4C49",
"/+	c #323331",
"(+	c #A0A39D",
"_+	c #AAAEA7",
":+	c #A6A9A3",
"<+	c #A4A7A1",
"[+	c #898B86",
"}+	c #8B8D89",
"|+	c #050505",
"1+	c #666864",
"2+	c #C5C8C2",
"3+	c #BDC1BB",
"4+	c #BCBFB9",
"5+	c #A0A29C",
"6+	c #232322",
"7+	c #010101",
"8+	c #5C5D5A",
"9+	c #A7AAA3",
"0+	c #A4A8A1",
"a+	c #A2A69F",
"b+	c #A0A49D",
"c+	c #858883",
"d+	c #333432",
"e+	c #D7DAD3",
"f+	c #4C4E4B",
"g+	c #202120",
"h+	c #9A9C97",
"i+	c #BDBFB9",
"j+	c #BABDB7",
"k+	c #7B7E79",
"l+	c #101110",
"m+	c #828581",
"n+	c #AAADA7",
"o+	c #A7AAA4",
"p+	c #A5A8A2",
"q+	c #9FA29C",
"r+	c #9DA09A",
"s+	c #83857F",
"t+	c #171716",
"u+	c #CED1CA",
"v+	c #939590",
"w+	c #1A1B1A",
"x+	c #50524F",
"y+	c #B5B9B3",
"z+	c #BBBDB7",
"A+	c #4E504D",
"B+	c #2C2D2B",
"C+	c #9B9E98",
"D+	c #A5A9A2",
"E+	c #A3A7A0",
"F+	c #A1A59E",
"G+	c #999C96",
"H+	c #7F827D",
"I+	c #D6D9D2",
"J+	c #BBBEB8",
"K+	c #585956",
"L+	c #81837F",
"M+	c #B8BCB5",
"N+	c #9FA39C",
"O+	c #252625",
"P+	c #525350",
"Q+	c #A2A59F",
"R+	c #9EA19B",
"S+	c #9C9F98",
"T+	c #989B94",
"U+	c #959892",
"V+	c #313230",
"W+	c #181817",
"X+	c #3A3A3A",
"Y+	c #C8CCC6",
"Z+	c #C7CAC4",
"`+	c #BDC1BA",
" @	c #959792",
".@	c #2A2B28",
"+@	c #0A0B0A",
"@@	c #0D0D0C",
"#@	c #9C9F99",
"$@	c #72746F",
"%@	c #545652",
"&@	c #8B8E89",
"*@	c #92958F",
"=@	c #797C77",
"-@	c #30322F",
";@	c #191918",
">@	c #3A3A39",
",@	c #B4B8B1",
"'@	c #B1B5AE",
")@	c #5D5F5B",
"!@	c #111110",
"~@	c #9FA29B",
"{@	c #9B9E97",
"]@	c #3C3E3B",
"^@	c #070707",
"/@	c #7F827C",
"(@	c #767974",
"_@	c #191A19",
":@	c #C9CDC7",
"<@	c #C6C9C3",
"[@	c #BEC2BB",
"}@	c #BCBFB8",
"|@	c #B6B9B2",
"1@	c #B0B3AC",
"2@	c #AEB1AA",
"3@	c #0C0D0C",
"4@	c #8F928C",
"5@	c #484947",
"6@	c #8A8D88",
"7@	c #737571",
"8@	c #191919",
"9@	c #B3B7B0",
"0@	c #B0B4AD",
"a@	c #AEB2AB",
"b@	c #6D6F6B",
"c@	c #727470",
"d@	c #999D96",
"e@	c #8D908A",
"f@	c #070807",
"g@	c #878A84",
"h@	c #70736E",
"i@	c #2F2F2E",
"j@	c #1A1A1A",
"k@	c #C1C5BD",
"l@	c #BFC3BC",
"m@	c #BCBEB8",
"n@	c #B8BBB5",
"o@	c #ADB0A9",
"p@	c #ABAEA7",
"q@	c #A6AAA3",
"r@	c #3A3B38",
"s@	c #989B95",
"t@	c #969993",
"u@	c #90938D",
"v@	c #41423F",
"w@	c #0C0C0B",
"x@	c #787B76",
"y@	c #838680",
"z@	c #2E2F2D",
"A@	c #1B1B1A",
"B@	c #B6BAB3",
"C@	c #AFB3AC",
"D@	c #ADB1AA",
"E@	c #ABAEA8",
"F@	c #080908",
"G@	c #8C8F89",
"H@	c #8A8D87",
"I@	c #6E716C",
"J@	c #535451",
"K@	c #80827D",
"L@	c #6A6C68",
"M@	c #2D2F2C",
"N@	c #1B1B1B",
"O@	c #363736",
"P@	c #B9BCB5",
"Q@	c #050504",
"R@	c #969893",
"S@	c #646662",
"T@	c #8F918C",
"U@	c #8C8F8A",
"V@	c #888B86",
"W@	c #868983",
"X@	c #848781",
"Y@	c #82857F",
"Z@	c #80837D",
"`@	c #7E817B",
" #	c #7C7F79",
".#	c #2D2E2C",
"+#	c #363635",
"@#	c #B9BDB6",
"##	c #B7BBB4",
"$#	c #B5B8B2",
"%#	c #ADB0AA",
"&#	c #9B9F98",
"*#	c #90928D",
"=#	c #0A0A09",
"-#	c #8B8E88",
";#	c #898C86",
">#	c #838580",
",#	c #81837E",
"'#	c #7C7F7A",
")#	c #7A7D78",
"!#	c #636662",
"~#	c #B6B9B3",
"{#	c #B4B7B1",
"]#	c #A8ACA5",
"^#	c #2B2C2A",
"/#	c #050605",
"(#	c #838681",
"_#	c #858882",
":#	c #81847E",
"<#	c #7D807A",
"[#	c #7B7D78",
"}#	c #777974",
"|#	c #757772",
"1#	c #61635E",
"2#	c #2C2C2B",
"3#	c #1D1D1D",
"4#	c #343534",
"5#	c #B4B7B2",
"6#	c #B3B5B0",
"7#	c #A1A49D",
"8#	c #393A37",
"9#	c #565855",
"0#	c #656763",
"a#	c #575955",
"b#	c #848681",
"c#	c #7D807B",
"d#	c #777A75",
"e#	c #737671",
"f#	c #71736F",
"g#	c #5E5F5B",
"h#	c #1D1D1C",
"i#	c #343433",
"j#	c #B1B4AE",
"k#	c #AEB1AB",
"l#	c #898C87",
"m#	c #121211",
"n#	c #888B85",
"o#	c #0C0C0C",
"p#	c #282927",
"q#	c #7A7C77",
"r#	c #787A75",
"s#	c #747671",
"t#	c #71746F",
"u#	c #6F726D",
"v#	c #6D706B",
"w#	c #5A5D59",
"x#	c #2A2B29",
"y#	c #1D1E1D",
"z#	c #A2A59E",
"A#	c #9EA19A",
"B#	c #939690",
"C#	c #747772",
"D#	c #6E706B",
"E#	c #6C6E69",
"F#	c #585955",
"G#	c #292B28",
"H#	c #1E1F1E",
"I#	c #323332",
"J#	c #8D908B",
"K#	c #4B4C49",
"L#	c #727570",
"M#	c #6C6F6A",
"N#	c #6A6D68",
"O#	c #686A66",
"P#	c #545653",
"Q#	c #292A28",
"R#	c #1F1F1F",
"S#	c #30302F",
"T#	c #9CA099",
"U#	c #868883",
"V#	c #81847F",
"W#	c #0E0E0D",
"X#	c #6F716C",
"Y#	c #6B6D68",
"Z#	c #696B66",
"`#	c #666964",
" $	c #656762",
".$	c #626560",
"+$	c #51534F",
"@$	c #90938E",
"#$	c #6B6E69",
"$$	c #676965",
"%$	c #636561",
"&$	c #282827",
"*$	c #161716",
"=$	c #6E706C",
"-$	c #6B6D69",
";$	c #686965",
">$	c #656864",
",$	c #626561",
"'$	c #5F625E",
")$	c #5C5E5A",
"!$	c #595B57",
"~$	c #464844",
"{$	c #313330",
"]$	c #535450",
"^$	c #50514D",
"/$	c #4D504C",
"($	c #4C4E4A",
"_$	c #474945",
":$	c #272826",
"<$	c #646663",
"[$	c #555653",
"}$	c #535552",
"|$	c #525450",
"1$	c #50514E",
"2$	c #4F504D",
"3$	c #4D4F4C",
"4$	c #4A4B48",
"5$	c #484A47",
"6$	c #474845",
"7$	c #464744",
"8$	c #434542",
"9$	c #3F413E",
"0$	c #3E403D",
"a$	c #3C3D3A",
"b$	c #363734",
"c$	c #323330",
"d$	c #31322F",
"e$	c #CCD0C9",
"f$	c #CBCCC7",
"g$	c #C7CBC3",
"h$	c #C5C7BF",
"i$	c #BCBDB8",
"j$	c #B8BCB4",
"k$	c #B6B8B0",
"l$	c #B2B6AE",
"m$	c #ADAEA9",
"n$	c #A9ADA5",
"o$	c #A7A9A1",
"p$	c #A3A79F",
"q$	c #9E9F9A",
"r$	c #9A9E98",
"s$	c #989A94",
"t$	c #949890",
"u$	c #90948F",
"v$	c #8F908B",
"w$	c #898B85",
"x$	c #858781",
"y$	c #818380",
"z$	c #80817C",
"A$	c #7A7C76",
"B$	c #767872",
"C$	c #727471",
"D$	c #71726D",
"E$	c #6B6D67",
"F$	c #676963",
"G$	c #636562",
"H$	c #626360",
"                                                                                                ",
"                                                                                                ",
"                                                                                                ",
"        . + @ # $ % & * = - ; > , ' ) ! ~ { ] ^ / ( _ : < [ } | 1 2 3 4 5 6 7 8 9 0 a b c       ",
"      d . + @ # $ % & * = - ; > , ' ) ! ~ { ] ^ / ( _ : < [ } | 1 2 3 4 5 6 7 8 9 0 a b e       ",
"      d . + f g h i i j f f k k l l m m n o p g g q q r s s t t u v w x y z A B B C D b e       ",
"      d . + E F G G G G G G G G G G G G G G G G G G G G G G G G G G G G G G G G G G l b e       ",
"      d . + E H I J J J J J J J J J J J J J J J J J J J J J J J J J J J J J J J G K L b e       ",
"      d . + E H M N N N N N N N N N N N N N N N N N N N N N N N N N N O P Q R S G T U b e       ",
"      d . + E V M N N N N N N N N N N N N N N N N N N N N N N N N N W X Y Z `  ...+.t b e       ",
"      d . + E K M N N N N N N N N N N N N N N N N N N N N N N N W X @.. #.$.%.&.T +.*.b e       ",
"      d . + E ..M N N N N N N N N N N N N N N N N N N N N N O P =.-.;.$.>.,.# '.+.+.v b e       ",
"      d . + E ..M N N N N N N N N N N N N N #.).!.~.{.N O P Q R ].^./.(._.:.<.[.+.+.x b e       ",
"      d . + E }.M N N N N N N N N N N N N N 2 +.+.+.|.W 1.2.3.` /.4.5.6.7.8.- 9.+.+.0.b e       ",
"      d . + E }.a.b.N N N N N N N N N N N N C +.+.+...@.. #.$.c.d.e.f.g.h.i.j.k.+.+.z b e       ",
"      d . + E K l.+.m.n.N N N N N N N N N N o.+.+.+.p.;.$.%.,.# f.q.% r.s.t.u.v.+.+.w.b e       ",
"      d . + E x.y.z.k.E A.N N N N N N N N O h.B.C.x D.E.(._.:.<.F.G.H.I.+.J.K.L.+.+.B b e       ",
"      d . + E G M N M.N.+.k O.N N N N N P.Q.2.3.R./.4.5.6.7.S.T.U.V.W.X.Y.Z.D.`.+.+.C b e       ",
"      d . +  +G M N N .+++@+#+$+.+N W X @.. #.%+c.d.e.{.g.h.&+*+=+T -+;+, >+,+'++.+.)+b e       ",
"      d . + !+G M N N N N & l +.~+{+=.. #.$.%.,.# f.R.% r.*+]+^++./+(+_+'.:+<+[++.+.9.b e       ",
"      d . + !+G M N N N N N O }+K |+1+5.E.(._.2+<.F.G.3+4+5+6+7+8+&.' 9+0+a+b+c++.+.d+b e       ",
"      d . + u.G M N N N e+P.Q.R T.f++.g+h+6.$ S.T.U.i+j+k+@+l+m+n+o+p+K.[.q+r+s++.+./+b e       ",
"      d . + t+G M N N W X @.. u+%+c.v+w+7+x+y+&+*+z+- A++.B+C+,+D+E+F+q+r+C+G+H++.+./+b e       ",
"      d . + t+G M I+X @.. #.$.%.,.# f.J+K+C.}.L+M+N+O+7+P+:+:+<+Q+(+R+S+] T+U+1 +.+.V+b e       ",
"      d . + W+G X+Q R ].+ E.Y+Z+2+<.F.G.`+ @6++..@+@@@2 9+0+a+(+R+#@$@%@&@/ *@=@+.+.-@b e       ",
"      d . + ;@G >@].^./.4.5.6.$ S.T.U.j+,@'@Z.)@C.!@/ p+K.[.~@r+{@]@+.+.^@/@_ (@+.+.~+b e       ",
"      d . + _@G v %+:@d.<@{.g.h.[@}@|@; 1@2@, >+C 3@b+[.q+r+C+G+4@|++.+.+.5@6@7@+.+.N.b e       ",
"      d . + 8@G y.,.# f.R.% r.*+j+9@0@a@&.n+'.:+b@+.c@R+S+d@^ U+e@f@+.+.+.^+g@h@+.+.i@b e       ",
"      d . + j@G y 2+<.k@l@`+m@n@; > o@p@' q@0+Q+] f@r@] s@t@/ *@u@v@+.+.w@x@y@6 +.+.z@b e       ",
"      d . + A@G z S.T.U.4+j+B@C@D@E@<+o+p+! [.~@{ w.F@*@/ *@u@_ G@H@I@J@K@} H+L@+.+.M@b e       ",
"      d . + N@G O@[@i+z+P@|@2@, e@z@Q@k R@q+r+C+G+z.+.S@( T@U@6@V@W@X@Y@Z@`@ #8 +.+..#b e       ",
"      d . + j.G +#J+@###$#%#n+'.9.+.+.+.%@&#G+^ U+*#=#~+e@-#;#g@[ >#,#| '#)#x@!#+.+.B+b e       ",
"      d . + J G C = ~#{#Z.]#q@0+@++.+.+.^#s@t@/ *@*#z /#(#g@_#y@:#/@<#[#2 }#|#1#+.+.2#b e       ",
"      d . + 3#G 4#5#6#%#o+p+! 7#8#+.+.+.9#/ *@u@_ G@0#+.a#b#} H+c#k+=@d#v.e#f#g#+.+.^#b e       ",
"      d . + h#G i#j#k#D+K.[.q+r+l#L m#^+e@( T@U@H@n#X@o#p#Z@`@1 q#r#3 s#t#u#v#w#+.+.x#b e       ",
"      d . + y#G d+k#) z#~ A#&#G+^ U+B#( 4@e@-#;#;+[ >#B X.C#)#x@(@C#$@5 D#E#7 F#+.+.G#b e       ",
"      d . + H#G I#o+(+R+#@] s@t@/ *@*#J#-#;#g@_#y@:#/@~.+.K#}#|#L#h@I@M#N#O#1+P#+.+.Q#b e       ",
"      d . + R#G S#~@T#] s@t@/ *@u@_ G@H@n#U#b#V#H+c#k+=@W#g+4 f#X#6 Y#Z#`# $.$+$+.+.p#b e       ",
"      d . + R#G 6+C+G+^ U+B#@$_ G@H@n#W@X@Y@Z@`@1 q#r#3 )+C.`#v##$z.$$0#%$0 Y.A++.+.&$b e       ",
"      d . + W.H *$3 C#4 f#5 =$M#-$z.;$>$S@,$0 '$a )$b !$~$+.{$]$+$^$/$($^+D _$U +.+.:$b e       ",
"      d . + g+k.+.+.+.+.+.+.+.+.+.+.+.+.+.+.+.+.+.+.+.+.+.+.+.+.+.+.+.+.+.+.+.+.+.+.:$b e       ",
"      d . + 8@+.+.+.+.+.+.+.+.+.+.+.+.+.+.+.+.+.+.+.+.+.+.+.+.+.+.+.+.+.+.+.+.+.+.+.:$b e       ",
"      d . + <$[$}$|$m.1$2$3$($K#4$5$6$7$p.8$i v@9$0$o a$t v x z b$9.d+c$d$~+N.z@z@.#i b e       ",
"      d . + @ # $ % & * = - ; > , ' ) ! ~ { ] ^ / ( _ : < [ } | 1 2 3 4 5 6 7 8 9 0 a b e       ",
"        . + @ # $ % & * = - ; > , ' ) ! ~ { ] ^ / ( _ : < [ } | 1 2 3 4 5 6 7 8 9 0 a b e       ",
"          e$f$g$h$k@`+i$j$k$l$a@m$n$o$p$N+q$r$s$t$u$v$}+w$x$y$z$$+A$B$C$D$b@E$F$G$H$a b         ",
"                                                                                                ",
"                                                                                                "};
