/* XPM */
static const char * pg_vec_16_xpm[] = {
"16 16 151 2",
"  	c None",
". 	c #CFD3CC",
"+ 	c #989B95",
"@ 	c #91938E",
"# 	c #8C8D89",
"$ 	c #868883",
"% 	c #80827C",
"& 	c #797B77",
"* 	c #737572",
"= 	c #6E6F6C",
"- 	c #686967",
"; 	c #626460",
"> 	c #5C5D5A",
", 	c #565754",
"' 	c #5A5C58",
") 	c #171716",
"! 	c #595958",
"~ 	c #595957",
"{ 	c #252525",
"] 	c #50524E",
"^ 	c #20201F",
"/ 	c #D7DBD3",
"( 	c #D0D4CC",
"_ 	c #D2D5CE",
": 	c #CCD0C8",
"< 	c #3D3E3C",
"[ 	c #4F514E",
"} 	c #1D1D1C",
"| 	c #7C7F7A",
"1 	c #2A2A29",
"2 	c #D0D3CD",
"3 	c #CDD1CA",
"4 	c #C8CBC4",
"5 	c #AAAEA8",
"6 	c #4E504D",
"7 	c #5B5D59",
"8 	c #A3A6A0",
"9 	c #A5A8A2",
"0 	c #5F605D",
"a 	c #C9CCC6",
"b 	c #C3C7C0",
"c 	c #858884",
"d 	c #5A5B58",
"e 	c #2F2F2D",
"f 	c #4E4F4C",
"g 	c #222221",
"h 	c #8B8E89",
"i 	c #686A66",
"j 	c #C4C7C0",
"k 	c #CACEC7",
"l 	c #C5C8C1",
"m 	c #BCBFB9",
"n 	c #60625E",
"o 	c #757873",
"p 	c #A6A9A3",
"q 	c #2D2D2C",
"r 	c #BDC0B9",
"s 	c #858782",
"t 	c #4A4C49",
"u 	c #91948E",
"v 	c #A1A59E",
"w 	c #9B9E98",
"x 	c #292A29",
"y 	c #4D4E4B",
"z 	c #222322",
"A 	c #CDD1C9",
"B 	c #C2C5BE",
"C 	c #B9BDB7",
"D 	c #838681",
"E 	c #3B3C3A",
"F 	c #9DA09A",
"G 	c #9A9D97",
"H 	c #272826",
"I 	c #262726",
"J 	c #4C4E4A",
"K 	c #CFD3CB",
"L 	c #232322",
"M 	c #BDC1BA",
"N 	c #B3B6AF",
"O 	c #A3A69F",
"P 	c #A4A8A1",
"Q 	c #484A47",
"R 	c #979A94",
"S 	c #8F928C",
"T 	c #272827",
"U 	c #626461",
"V 	c #232423",
"W 	c #4B4D4A",
"X 	c #CED2CB",
"Y 	c #232323",
"Z 	c #B9BDB6",
"` 	c #AFB2AC",
" .	c #646662",
"..	c #6D6F6B",
"+.	c #878A84",
"@.	c #81837E",
"#.	c #7A7D78",
"$.	c #202120",
"%.	c #CED2CA",
"&.	c #222222",
"*.	c #ACB0A9",
"=.	c #A1A49E",
"-.	c #757772",
";.	c #51524F",
">.	c #8F918C",
",.	c #848781",
"'.	c #3F403D",
").	c #7C7E79",
"!.	c #767873",
"~.	c #6F726D",
"{.	c #1D1E1D",
"].	c #4A4B49",
"^.	c #212121",
"/.	c #9DA19A",
"(.	c #969993",
"_.	c #90938D",
":.	c #8A8D87",
"<.	c #848681",
"[.	c #7D807B",
"}.	c #373836",
"|.	c #70726E",
"1.	c #6B6D68",
"2.	c #656762",
"3.	c #1A1B1A",
"4.	c #4A4B48",
"5.	c #0F0F0F",
"6.	c #242523",
"7.	c #212220",
"8.	c #1F201F",
"9.	c #1E1E1D",
"0.	c #1C1D1C",
"a.	c #141413",
"b.	c #151615",
"c.	c #181817",
"d.	c #161715",
"e.	c #060606",
"f.	c #494A48",
"g.	c #CED0C9",
"h.	c #A3A49F",
"i.	c #999C96",
"j.	c #91958E",
"k.	c #8B8D87",
"l.	c #848580",
"m.	c #7C7E7A",
"n.	c #747773",
"o.	c #6E6F6B",
"p.	c #666863",
"q.	c #5F615D",
"r.	c #595B56",
"s.	c #525350",
"t.	c #595B57",
"                                ",
"  . + @ # $ % & * = - ; > , '   ",
"  . ) ! ! ! ! ! ! ! ! ! ~ { ]   ",
"  . ^ / / / / / ( / / _ : < [   ",
"  . } ( / / / | 1 2 3 4 5 } 6   ",
"  . } 7 8 / / 9 0 a b c d e f   ",
"  . g / h i j k l m n o p q f   ",
"  . g / _ r 0 s p t u v w x y   ",
"  . z A 4 B C D E F G H i I J   ",
"  K L b M N O P Q R S T U V W   ",
"  X Y Z ` [ g +  ...+.@.#.$.t   ",
"  %.&.*.=.-.;.>.,.'.).!.~.{.].  ",
"  3 ^./.(._.:.<.[.}.|.1.2.3.4.  ",
"  A 5.6.z 7.8.9.0.a.b.c.d.e.f.  ",
"  g.h.i.j.k.l.m.n.o.p.q.r.s.t.  ",
"                                "};
