/* XPM */
static const char *prevext_xpm[] = {
/* width height num_colors chars_per_pixel */
"    16    16      256            2",
/* colors */
"`` c None",
"`. c #89a8cf",
"`# c #6790c1",
"`a c #668fc0",
"`b c #83a5cb",
"`c c #5a87bc",
"`d c #6296ce",
"`e c #81b2e0",
"`f c #9ac4ea",
"`g c #92bfe8",
"`h c #75abde",
"`i c #5d94cd",
"`j c #5684ba",
"`k c #5688bf",
"`l c #92bee7",
"`m c #d6e7f6",
"`n c #ddebf8",
"`o c #d6e7f7",
"`p c #cfe3f5",
"`q c #c8dff4",
"`r c #b3d3ef",
"`s c #79b0e2",
"`t c #598cc3",
"`u c #598bc1",
"`v c #a5caec",
"`w c #dcebf8",
"`x c #e4eff9",
"`y c #e1eef9",
"`z c #d9e9f7",
"`A c #84a1c6",
"`B c #adc6e2",
"`C c #c1daf2",
"`D c #b5d4f0",
"`E c #7fb4e5",
"`F c #5c8fc6",
"`G c #5f89bc",
"`H c #81b3e3",
"`I c #d1e4f5",
"`J c #d8e8f7",
"`K c #dbe9f7",
"`L c #6e8db7",
"`M c #96abc9",
"`N c #8dabce",
"`O c #c0daf2",
"`P c #b8d5f0",
"`Q c #80b5e5",
"`R c #6da9e0",
"`S c #5a86bc",
"`T c #5b91c9",
"`U c #adcfee",
"`V c #cce1f4",
"`W c #ccdff1",
"`X c #6383b0",
"`Y c #a3b7d3",
"`Z c #a9bcd6",
"`0 c #5679aa",
"`1 c #6b8dba",
"`2 c #688bb9",
"`3 c #568ac2",
"`4 c #6eaae1",
"`5 c #5d95cf",
"`6 c #9fb8d7",
"`7 c #619ad3",
"`8 c #bad7f1",
".` c #c4ddf3",
".. c #b6cfe8",
".# c #6081ae",
".a c #98aecf",
".b c #7596c1",
".c c #95afd0",
".d c #9bb2d1",
".e c #99b1cf",
".f c #9fb5d2",
".g c #5c81b1",
".h c #68a3db",
".i c #7b9fc9",
".j c #7196c4",
".k c #73ace0",
".l c #9ebddd",
".m c #6484b0",
".n c #7d9cc3",
".o c #517cb2",
".p c #6089bb",
".q c #6f94c2",
".r c #7094c1",
".s c #688dbd",
".t c #7a9ac4",
".u c #5a81af",
".v c #638ebf",
".w c #7196c5",
".x c #6ca8df",
".y c #aacded",
".z c #80a3cb",
".A c #718fb8",
".B c #5980b4",
".C c #4373af",
".D c #4d7cb5",
".E c #5281b8",
".F c #5682b9",
".G c #4e7cb3",
".H c #6188b9",
".I c #547bac",
".J c #648ec0",
".K c #a0bad7",
".L c #609ad3",
".M c #94c0e9",
".N c #abceee",
".O c #84a9d1",
".P c #6585b1",
".Q c #7599c4",
".R c #5887bd",
".S c #79a0cc",
".T c #7ba0cb",
".U c #7096c4",
".V c #7699c4",
".W c #5179ab",
".X c #7c9fc8",
".Y c #5c90c8",
".Z c #74ade2",
".0 c #81b5e5",
".1 c #8dbce7",
".2 c #7daad8",
".3 c #567bab",
".4 c #8aa9cf",
".5 c #91aed0",
".6 c #466ea3",
".7 c #4c75aa",
".8 c #4b74a8",
"#` c #4c7db6",
"#. c #5c96ce",
"## c #608bbe",
"#a c #6aa6dd",
"#b c #67a2d9",
"#c c #4a74a8",
"#d c #87a3c6",
"#e c #568cc5",
"#f c #5a87bb",
"#g c #5989c1",
"#h c #6ca7de",
"#i c #4371aa",
"#j c #5e96ce",
"#k c #5b8fc6",
"#l c #5588be",
"#m c #6aa5dd",
"#n c #6ca7df",
"#o c #588ac2",
"#p c #5c86ba",
"#q c #5b92cb",
"#r c #649ed7",
"#s c #6ea9e1",
"#t c #65a0d8",
"#u c #5b92cc",
"#v c #5785b9",
"#w c #91afd2",
"#x c #6a93c2",
"#y c #6790c2",
"#z c #8caacf",
"#A c #000000",
"#B c #000000",
"#C c #000000",
"#D c #000000",
"#E c #000000",
"#F c #000000",
"#G c #000000",
"#H c #000000",
"#I c #000000",
"#J c #000000",
"#K c #000000",
"#L c #000000",
"#M c #000000",
"#N c #000000",
"#O c #000000",
"#P c #000000",
"#Q c #000000",
"#R c #000000",
"#S c #000000",
"#T c #000000",
"#U c #000000",
"#V c #000000",
"#W c #000000",
"#X c #000000",
"#Y c #000000",
"#Z c #000000",
"#0 c #000000",
"#1 c #000000",
"#2 c #000000",
"#3 c #000000",
"#4 c #000000",
"#5 c #000000",
"#6 c #000000",
"#7 c #000000",
"#8 c #000000",
"a` c #000000",
"a. c #000000",
"a# c #000000",
"aa c #000000",
"ab c #000000",
"ac c #000000",
"ad c #000000",
"ae c #000000",
"af c #000000",
"ag c #000000",
"ah c #000000",
"ai c #000000",
"aj c #000000",
"ak c #000000",
"al c #000000",
"am c #000000",
"an c #000000",
"ao c #000000",
"ap c #000000",
"aq c #000000",
"ar c #000000",
"as c #000000",
"at c #000000",
"au c #000000",
"av c #000000",
"aw c #000000",
"ax c #000000",
"ay c #000000",
"az c #000000",
"aA c #000000",
"aB c #000000",
"aC c #000000",
"aD c #000000",
"aE c #000000",
"aF c #000000",
"aG c #000000",
"aH c #000000",
"aI c #000000",
"aJ c #000000",
"aK c #000000",
"aL c #000000",
"aM c #000000",
"aN c #000000",
"aO c #000000",
"aP c #000000",
"aQ c #000000",
"aR c #000000",
"aS c #000000",
"aT c #000000",
"aU c #000000",
"aV c #000000",
"aW c #000000",
"aX c #000000",
"aY c #000000",
"aZ c #000000",
"a0 c #000000",
"a1 c #000000",
"a2 c #000000",
"a3 c #000000",
"a4 c #000000",
"a5 c #000000",
"a6 c #000000",
"a7 c #000000",
"a8 c #000000",
/* pixels */
"`````````````.`#`a`b````````````",
"`````````c`d`e`f`g`h`i`j````````",
"```````k`l`m`n`o`p`q`r`s`t``````",
"`````u`v`w`x`y`z`A`B`C`D`E`F````",
"```G`H`I`J`n`K`L`M`N`O`P`Q`R`S``",
"```T`U`V`I`W`X`Y`Z`0`1`2`3`4`5``",
"`6`7`8.`...#.a.b.c.d.e.f.g`4.h.i",
".j.k`P.l.m.n.o.p.q.r.s.t.u`4`4.v",
".w.x.y.z.A.B.C.D.E.F.G.H.I`4`4.J",
".K.L.M.N.O.P.Q.R.S.T.U.V.W`4.h.X",
"``.Y.Z.0.1.2.3.4.5.6.7.8#``4#.``",
"``###a`4`4`4#b#c#d#e`4`4`4`R#f``",
"````#g`4`4`4`4#h#i#j`4`4`4#k````",
"``````#l#m`4`4`4`4`4`4#n#o``````",
"````````#p#q#r#s`4#t#u#v````````",
"````````````#w#x#y#z````````````"
};
