/* XPM */
static const char * process_working_16_xpm[] = {
"496 16 204 2",
"  	c None",
". 	c #DEDEDE",
"+ 	c #E0E0E0",
"@ 	c #DADADA",
"# 	c #2D2D2D",
"$ 	c #424242",
"% 	c #232323",
"& 	c #353535",
"* 	c #303030",
"= 	c #3F3F3F",
"- 	c #4B4B4B",
"; 	c #505050",
"> 	c #585858",
", 	c #696969",
"' 	c #686868",
") 	c #898989",
"! 	c #888888",
"~ 	c #ADADAD",
"{ 	c #B5B5B5",
"] 	c #CECECE",
"^ 	c #D4D4D4",
"/ 	c #DFDFDF",
"( 	c #CBCBCB",
"_ 	c #626262",
": 	c #000000",
"< 	c #CFCFCF",
"[ 	c #6D6D6D",
"} 	c #020202",
"| 	c #161616",
"1 	c #797979",
"2 	c #101010",
"3 	c #212121",
"4 	c #878787",
"5 	c #1E1E1E",
"6 	c #2B2B2B",
"7 	c #C2C2C2",
"8 	c #2F2F2F",
"9 	c #373737",
"0 	c #D0D0D0",
"a 	c #464646",
"b 	c #C7C7C7",
"c 	c #818181",
"d 	c #575757",
"e 	c #CCCCCC",
"f 	c #5B5B5B",
"g 	c #D9D9D9",
"h 	c #666666",
"i 	c #DBDBDB",
"j 	c #848484",
"k 	c #7C7C7C",
"l 	c #737373",
"m 	c #9F9F9F",
"n 	c #959595",
"o 	c #C0C0C0",
"p 	c #939393",
"q 	c #CDCDCD",
"r 	c #C9C9C9",
"s 	c #D1D1D1",
"t 	c #D2D2D2",
"u 	c #D5D5D5",
"v 	c #8C8C8C",
"w 	c #515151",
"x 	c #616161",
"y 	c #A5A5A5",
"z 	c #171717",
"A 	c #141414",
"B 	c #272727",
"C 	c #404040",
"D 	c #B6B6B6",
"E 	c #2A2A2A",
"F 	c #313131",
"G 	c #868686",
"H 	c #C4C4C4",
"I 	c #434343",
"J 	c #3D3D3D",
"K 	c #545454",
"L 	c #6C6C6C",
"M 	c #D3D3D3",
"N 	c #5C5C5C",
"O 	c #717171",
"P 	c #4A4A4A",
"Q 	c #5E5E5E",
"R 	c #060606",
"S 	c #6A6A6A",
"T 	c #808080",
"U 	c #595959",
"V 	c #6B6B6B",
"W 	c #D6D6D6",
"X 	c #A2A2A2",
"Y 	c #9D9D9D",
"Z 	c #787878",
"` 	c #242424",
" .	c #B7B7B7",
"..	c #C3C3C3",
"+.	c #7F7F7F",
"@.	c #333333",
"#.	c #BBBBBB",
"$.	c #979797",
"%.	c #454545",
"&.	c #151515",
"*.	c #A9A9A9",
"=.	c #C5C5C5",
"-.	c #BDBDBD",
";.	c #6F6F6F",
">.	c #DCDCDC",
",.	c #858585",
"'.	c #646464",
").	c #BCBCBC",
"!.	c #ABABAB",
"~.	c #D7D7D7",
"{.	c #4E4E4E",
"].	c #565656",
"^.	c #1C1C1C",
"/.	c #B0B0B0",
"(.	c #282828",
"_.	c #767676",
":.	c #040404",
"<.	c #757575",
"[.	c #DDDDDD",
"}.	c #949494",
"|.	c #1D1D1D",
"1.	c #D8D8D8",
"2.	c #A6A6A6",
"3.	c #8B8B8B",
"4.	c #BABABA",
"5.	c #B8B8B8",
"6.	c #989898",
"7.	c #8D8D8D",
"8.	c #191919",
"9.	c #C6C6C6",
"0.	c #2E2E2E",
"a.	c #A7A7A7",
"b.	c #606060",
"c.	c #CACACA",
"d.	c #484848",
"e.	c #7E7E7E",
"f.	c #969696",
"g.	c #B1B1B1",
"h.	c #393939",
"i.	c #474747",
"j.	c #181818",
"k.	c #1A1A1A",
"l.	c #919191",
"m.	c #252525",
"n.	c #3A3A3A",
"o.	c #363636",
"p.	c #656565",
"q.	c #999999",
"r.	c #B9B9B9",
"s.	c #0D0D0D",
"t.	c #0E0E0E",
"u.	c #1B1B1B",
"v.	c #1F1F1F",
"w.	c #5D5D5D",
"x.	c #3E3E3E",
"y.	c #7A7A7A",
"z.	c #BFBFBF",
"A.	c #A0A0A0",
"B.	c #121212",
"C.	c #929292",
"D.	c #262626",
"E.	c #414141",
"F.	c #343434",
"G.	c #707070",
"H.	c #444444",
"I.	c #636363",
"J.	c #777777",
"K.	c #A4A4A4",
"L.	c #AAAAAA",
"M.	c #292929",
"N.	c #3B3B3B",
"O.	c #727272",
"P.	c #2C2C2C",
"Q.	c #747474",
"R.	c #494949",
"S.	c #828282",
"T.	c #AEAEAE",
"U.	c #6E6E6E",
"V.	c #B3B3B3",
"W.	c #C1C1C1",
"X.	c #9A9A9A",
"Y.	c #9C9C9C",
"Z.	c #080808",
"`.	c #838383",
" +	c #A1A1A1",
".+	c #3C3C3C",
"++	c #070707",
"@+	c #0B0B0B",
"#+	c #111111",
"$+	c #202020",
"%+	c #535353",
"&+	c #010101",
"*+	c #383838",
"=+	c #5A5A5A",
"-+	c #4F4F4F",
";+	c #AFAFAF",
">+	c #9B9B9B",
",+	c #BEBEBE",
"'+	c #A3A3A3",
")+	c #0F0F0F",
"!+	c #8E8E8E",
"~+	c #ACACAC",
"{+	c #5F5F5F",
"]+	c #909090",
"                                                                                                                                                                                                                                                                                                                                                                                                                                                                                                                                                                                                                                                                                                                                                                                                                                                                                                                                                                                                                                ",
"                                                                                .                               +                                                                                                                                                                                                                                                                                                                                                                                                                                                                                                                                                                                                                                                                                                                                                                                                                                                                                                               ",
"                @                               # $                             % &                             * =                             = -                             ; >                             , '                             ) !                             ~ {                             ] ^                               /                                                                                                                                                                                                                                                                                                                                                                                                                                                                                                                                                                                                                                                             @               ",
"        ( _     : >                     < [     } |                     ^ 1     2 3                       4     5 6                       7     8 9                       0     $ a   b c                       d d   e f g                     [ '   0 h i                     j k   ^ l .                     m n   g c                       o ~   / p                       q r     b                       e s                             e 0                             e t                             ( u                             ] ^                             ] ^                             ] ^                             ] ^                             ] ^                             ] ^                             ] ^                             ] ^                             ] ^                             ] ^                             ] ^                             ] ^                             ] ^                       v     w                       ( x     : >             ",
"        y : &   z p   e                 ~ A $   B C   e                 D E ;   F -   G                 H I x   J K   : L               M N O   P Q   R S                 T G   U V   A : W               X Y   V Z   ` :  .              .. .  +.4   @.} #.              ] <   n $.  %.&.o               s s   ~ *.  U E =.              s t   b -.  ;.%.>.              u t   M ^   ,.'.                u t   t >.  m j                 u t   t i   ).!.                @ t   t i   ] e                 @ t   t @   q u                 >.t   t @   q ~.                >.t   t @   q i                 >.t   t @   q .                 >.t   t @   e                   >.t   t @   e                   >.t   t @   e                   >.t   t @   e                   >.t   t @   e                   >.t   t @   e                   . M   t @   e                   V (   t @   e                   {.*   ^ @   ]                   ].^.  u @   ]                 /.: (.  _.    ]                 y : &   z p   ]         ",
"          ' :.@       =.                  <.| >.      =.                  j 6 /     [.7                   }.$       /.|.1.                2.f        .: 3.                4.1       5.: +.                < 6.      ).: G                 >. .      o R 7.                >.=.      =.8.}.                [.9.      ( 0.Y                 [.9.      t a a.                . 9.      g b./.                . 9.        T ).                . 9.        m c.                . 9.        -.@                 . 9.        9.                  [.9.        9.                  [.9.        9.                  [.9.        =.                  [.9.        =.                  [.9.        =.                  [.9.        =.                  [.9.        =.                  [.9.        =.                  [.9.        =.                  b H         =.                  = d.        =.                  d : i       =.                  b.: 1.      =.                  N : M       =.                  ' :.@       =.        ",
"                                                                                                                                                                                      1.                                                                                                                                                                                                                                                                                                                                                                                                                                                                                                                                                                                                                                                                                    g                               [.                              /                                                                                   ",
"      ~ _ ,             c.g           c.e.e.            c.g           / $.f.            c.g             { g.            c.g             ( c.            ( g             0 s             X ^             < 0           =.: h.            ^ 0           < : =             ^ 0           s :.i.            ^ 0           M j.k.l.          ^ 0           W (.m.f           ^ 0           @ n.o.'           ^ 0           [.{.P _.          ^ 0             p.x G           ^ 0             e._.g.          ^ 0             q.f.<           ^ 0             D /.            ^ 0             ( (             ^ 0             ( <             ^ 0             ( <             ^ 0             ( s             1.u             c.^             r.c.            c.g             m.J             c.g             B s.            c.g           ' t.u.            c.g           w v.(.            c.g           w.# &             c.g           V x.%.            c.g           y.w ].            c.g           6.'.,             c.g     ",
"      z.+.4             s [.          W q.A.            s [.            r.4.            s [.            0 ]             s [.            0 s             s [.            0 0             u .             s 0             2.7             M 0           W 2 {.            M 0           1.z K             M 0           >.(.B.C.          M 0           . @.D.h           M 0             E.F.G.          W 0             w H.k           W 0             I.d )           W 0             J.' /.          W 0             v c e           W 0             K.X             W 0             z.z.            W 0             t t             W s             s ~.            W t             s >.            H L.            s [.            M.|.            s [.            8 2             s [.            N.v.            s [.          O.^.P.            s [.          ' 8 h.            s [.          Q.E.R.            s [.          S.K N             s [.          l.S G.            s [.          T.c G             s [.    ",
"                                                                                                                                                                                                                                                                                                                      @                                                                                                                                                                                                                                                                                                                     i                               @                               i                                                                                                                                                                                                                                                                                                                   ",
"          @ 9.        ..                  i 9.        ..                  >.9.        ..                  >.9.        ..                  >.9.        ..                  >.9.        ..                  >.9.        ..                  >.9.        ..                  >.9.        ..                  >.9.        i.,                 >.9.      /.: U.                >.9.      !.: J.                . =.      V.: e.                . =.      -.: <.                . =.      W.2 +.                . =.      b m.v                 . =.      q J X.                  Y.i     M > *.                e &.s     @ <.4.                N : 1.      n q                 f : g       { .                 d : ^       H /                 b.Z.~.      H                   S u.@       H                   _.F .       H                   `.R.        H                   C.'.        ..                   +S.        ..                  V.X         ..                  r -.        ..                  @ 9.        ..        ",
"          ] <   0 ~.  ]                   t <   0 ~.  ]                   ^ <   0 W   ]                   ~.]   0 W   ]                   ~.]   0 W   ]                   ~.]   0 W   ]                   i <   0 W   ]                   [.<   0 W   ]                   [.<   0 W   ]                   [.<   0 W   i s                 [.<   0 g   .+O.                [.<   0 [.>.++y.                . <   ^ *.~.2 +.                . <   V.B   ` : /               . <   .+0.  @.@+H               + 0   #+J   $ $+c.              + 0   k.i.  %+9 0               . n.>.6 ].  h ; W               G.&+  *+'.  y.L                 b.j.  d.l   l.l.                Q 3   =+,.  *.D               V.: x.  [ q.  b ]               L.&+-+  `.;+  ] ^               /.A b.  >+b   ] ~.               .6 O.  { 1.  ] i               ,+I 4   e ~.  ] i               q w.Y   s ~.  ]                   +.g.  s ~.  ]                   '+(   0 ~.  ]                   H s   0 ~.  ]                   q 0   0 ~.  ]         ",
"                e M                             e M                             ( W                             e W                             e W                             e W                             e W                             e W                             e W                             e W                             e W                             e ~.                            < s                             ..x.  ~.3.                      $+*   < ' +                     : =   t l                       R H.  W T                       )+J   @ !+                      5 -+    ~+                      8 x     <                       $ Q.                      3.    d )                     W h     U. +                    g l     G 5.                    [.S.    K.0                       p     =.M                       D     ( t                       ~.    e s                             e s                             e M                             e M             ",
"                                                                                                                                                                                                                                                                                                                                                                                                                                                                                M                               u                               ^                               o.,                             % {+                            @.[                             a e.                            f ]+                            +.'+                            T.r                             c.                                                                                                                                                                                                              ",
"                                                                                                                                                                                                                                                                                                                                                                                                                                                                                                                                                                                                                i                               .                                                                                                                                                                                                                                                                                                                                                                               ",
"                                                                                                                                                                                                                                                                                                                                                                                                                                                                                                                                                                                                                                                                                                                                                                                                                                                                                                                                                                                                                                "};
