/* XPM */
static const char *process_stop_xpm[] = {
/* width height num_colors chars_per_pixel */
"    16    16      256            2",
/* colors */
"`` c None",
"`. c #af5252",
"`# c #860000",
"`a c #a94343",
"`b c #af5050",
"`c c #b22929",
"`d c #f68888",
"`e c #f78b8b",
"`f c #f68a8a",
"`g c #f68787",
"`h c #f58383",
"`i c #ba2a2a",
"`j c #aa4747",
"`k c #ae4e4e",
"`l c #b42929",
"`m c #f38383",
"`n c #dc4242",
"`o c #d52f2f",
"`p c #db3c3c",
"`q c #f17575",
"`r c #b72626",
"`s c #ac4a4a",
"`t c #ad4d4d",
"`u c #b52b2b",
"`v c #d53737",
"`w c #da3b3b",
"`x c #f06f6f",
"`y c #b42323",
"`z c #ac4b4b",
"`A c #b62d2d",
"`B c #db4141",
"`C c #d75757",
"`D c #dacdcd",
"`E c #d75f5f",
"`F c #d85c5c",
"`G c #e6d9d9",
"`H c #db5f5f",
"`I c #d93b3b",
"`J c #ef6a6a",
"`K c #b32020",
"`L c #af5151",
"`M c #880202",
"`N c #f68989",
"`O c #db4040",
"`P c #d89292",
"`Q c #dbdbdb",
"`R c #dad6d6",
"`S c #d76060",
"`T c #d85a5a",
"`U c #e6e0e0",
"`V c #ededed",
"`W c #e5a5a5",
"`X c #d22f2f",
"`Y c #d63b3b",
"`Z c #ee6868",
"`0 c #890303",
"`1 c #d53030",
"`2 c #d89999",
"`3 c #dfdfdf",
"`4 c #e2dede",
"`5 c #e6dfdf",
"`6 c #ececec",
"`7 c #e6abab",
"`8 c #d23131",
".` c #d02f2f",
".. c #ce2f2f",
".# c #ed6565",
".a c #890202",
".b c #deacac",
".c c #e8e8e8",
".d c #e8bcbc",
".e c #d13131",
".f c #cf2f2f",
".g c #cc2f2f",
".h c #ec6161",
".i c #d85b5b",
".j c #f1f1f1",
".k c #f3eded",
".l c #da6464",
".m c #c92929",
".n c #e94545",
".o c #f58585",
".p c #d75b5b",
".q c #e5dfdf",
".r c #e4aaaa",
".s c #e6a5a5",
".t c #f9f9f9",
".u c #fcf7f7",
".v c #da6767",
".w c #c51a1a",
".x c #bd0202",
".y c #e83737",
".z c #f26969",
".A c #d52323",
".B c #d21f1f",
".C c #de9292",
".D c #ce2828",
".E c #e9a5a5",
".F c #fefefe",
".G c #e39696",
".H c #bd0000",
".I c #bd0303",
".J c #e63434",
".K c #ef5a5a",
".L c #d31111",
".M c #cb0101",
".N c #d65858",
".O c #c70303",
".P c #c50000",
".Q c #c30000",
".R c #c10101",
".S c #d65f5f",
".T c #be0404",
".U c #df2b2b",
".V c #c81f1f",
".W c #911414",
".X c #a94444",
".Y c #b92828",
".Z c #ed5252",
".0 c #d01010",
".1 c #c70000",
".2 c #c10000",
".3 c #bf0000",
".4 c #be0505",
".5 c #df2c2c",
".6 c #c51e1e",
".7 c #941919",
".8 c #b72424",
"#` c #eb4c4c",
"#. c #cc0f0f",
"## c #bf0505",
"#a c #df2d2d",
"#b c #c01c1c",
"#c c #972020",
"#d c #b42121",
"#e c #ec4a4a",
"#f c #ed4747",
"#g c #eb4343",
"#h c #ea3f3f",
"#i c #e83b3b",
"#j c #e73737",
"#k c #be1c1c",
"#l c #9b2727",
"#m c #9f3030",
"#n c #000000",
"#o c #000000",
"#p c #000000",
"#q c #000000",
"#r c #000000",
"#s c #000000",
"#t c #000000",
"#u c #000000",
"#v c #000000",
"#w c #000000",
"#x c #000000",
"#y c #000000",
"#z c #000000",
"#A c #000000",
"#B c #000000",
"#C c #000000",
"#D c #000000",
"#E c #000000",
"#F c #000000",
"#G c #000000",
"#H c #000000",
"#I c #000000",
"#J c #000000",
"#K c #000000",
"#L c #000000",
"#M c #000000",
"#N c #000000",
"#O c #000000",
"#P c #000000",
"#Q c #000000",
"#R c #000000",
"#S c #000000",
"#T c #000000",
"#U c #000000",
"#V c #000000",
"#W c #000000",
"#X c #000000",
"#Y c #000000",
"#Z c #000000",
"#0 c #000000",
"#1 c #000000",
"#2 c #000000",
"#3 c #000000",
"#4 c #000000",
"#5 c #000000",
"#6 c #000000",
"#7 c #000000",
"#8 c #000000",
"a` c #000000",
"a. c #000000",
"a# c #000000",
"aa c #000000",
"ab c #000000",
"ac c #000000",
"ad c #000000",
"ae c #000000",
"af c #000000",
"ag c #000000",
"ah c #000000",
"ai c #000000",
"aj c #000000",
"ak c #000000",
"al c #000000",
"am c #000000",
"an c #000000",
"ao c #000000",
"ap c #000000",
"aq c #000000",
"ar c #000000",
"as c #000000",
"at c #000000",
"au c #000000",
"av c #000000",
"aw c #000000",
"ax c #000000",
"ay c #000000",
"az c #000000",
"aA c #000000",
"aB c #000000",
"aC c #000000",
"aD c #000000",
"aE c #000000",
"aF c #000000",
"aG c #000000",
"aH c #000000",
"aI c #000000",
"aJ c #000000",
"aK c #000000",
"aL c #000000",
"aM c #000000",
"aN c #000000",
"aO c #000000",
"aP c #000000",
"aQ c #000000",
"aR c #000000",
"aS c #000000",
"aT c #000000",
"aU c #000000",
"aV c #000000",
"aW c #000000",
"aX c #000000",
"aY c #000000",
"aZ c #000000",
"a0 c #000000",
"a1 c #000000",
"a2 c #000000",
"a3 c #000000",
"a4 c #000000",
"a5 c #000000",
"a6 c #000000",
"a7 c #000000",
"a8 c #000000",
/* pixels */
"`````````.`#`#`#`#`#`#`a````````",
"```````b`c`d`e`e`f`g`h`i`j``````",
"`````k`l`m`n`o`o`o`o`p`q`r`s````",
"```t`u`m`n`v`o`o`o`o`v`w`x`y`k``",
"`z`A`m`B`C`D`E`o`o`F`G`H`I`J`K`L",
"`M`N`O`o`P`Q`R`S`T`U`V`W`X`Y`Z`M",
"`0`d`o`o`1`2`3`4`5`6`7`8.`...#.a",
"`0`d`o`o`o`1.b.c`6.d.e.f...g.h.a",
"`0`d`o`o`o.i`5`6.j.k.l...g.m.n.a",
"`0.o`o`o.p.q`6.r.s.t.u.v.w.x.y.a",
"`M.z.A.B.C`6.r.`.D.E.F.G.H.I.J.a",
"`a`i.K.L.M.N.O.P.Q.R.S.x.T.U.V.W",
"``.X.Y.Z.0.1.P.Q.2.3.H.4.5.6.7``",
"````.X.8#`#..Q.2.3.H###a#b#c````",
"``````.X#d#e#f#g#h#i#j#k#l``````",
"````````.X`#`#`#`#`#`##m````````"
};
