/* XPM */
static const char *properties_xpm[] = {
/* width height num_colors chars_per_pixel */
"    16    16      256            2",
/* colors */
"`` c None",
"`. c #d8d8d8",
"`# c #dfdfdf",
"`a c #e0e0e0",
"`b c #dddddd",
"`c c #dcdcdc",
"`d c #dbdbdb",
"`e c #dadada",
"`f c #d6d6d6",
"`g c #d5d5d5",
"`h c #d3d3d3",
"`i c #c3c3c3",
"`j c #dedede",
"`k c #e3e3e3",
"`l c #e2e2e2",
"`m c #e4e4e4",
"`n c #e5e5e5",
"`o c #d0d0d0",
"`p c #d4d4d4",
"`q c #cccccc",
"`r c #cdcdcd",
"`s c #e7e7e7",
"`t c #e1e1e1",
"`u c #e6e6e6",
"`v c #e9e9e9",
"`w c #d9d9d9",
"`x c #e8e8e8",
"`y c #cecece",
"`z c #cfcfcf",
"`A c #9e9e9e",
"`B c #929292",
"`C c #b8b8b8",
"`D c #ebebeb",
"`E c #9d9d9d",
"`F c #ededed",
"`G c #d1d1d1",
"`H c #d7d7d7",
"`I c #eaeaea",
"`J c #c0c0c0",
"`K c #d2d2d2",
"`L c #979797",
"`M c #909090",
"`N c #cacaca",
"`O c #efefef",
"`P c #9f9f9f",
"`Q c #b5b5b5",
"`R c #afafaf",
"`S c #9b9b9b",
"`T c #a6a6a6",
"`U c #f1f1f1",
"`V c #adadad",
"`W c #9a9a9a",
"`X c #959595",
"`Y c #989898",
"`Z c #a1a1a1",
"`0 c #ececec",
"`1 c #aaaaaa",
"`2 c #b2b2b2",
"`3 c #cbcbcb",
"`4 c #c8c8c8",
"`5 c #f9f9f9",
"`6 c #eeeeee",
"`7 c #f0f0f0",
"`8 c #f2f2f2",
".` c #f4f4f4",
".. c #f6f6f6",
".# c #f8f8f8",
".a c #f7f7f7",
".b c #bfbfbf",
".c c #c1c1c1",
".d c #000000",
".e c #000000",
".f c #000000",
".g c #000000",
".h c #000000",
".i c #000000",
".j c #000000",
".k c #000000",
".l c #000000",
".m c #000000",
".n c #000000",
".o c #000000",
".p c #000000",
".q c #000000",
".r c #000000",
".s c #000000",
".t c #000000",
".u c #000000",
".v c #000000",
".w c #000000",
".x c #000000",
".y c #000000",
".z c #000000",
".A c #000000",
".B c #000000",
".C c #000000",
".D c #000000",
".E c #000000",
".F c #000000",
".G c #000000",
".H c #000000",
".I c #000000",
".J c #000000",
".K c #000000",
".L c #000000",
".M c #000000",
".N c #000000",
".O c #000000",
".P c #000000",
".Q c #000000",
".R c #000000",
".S c #000000",
".T c #000000",
".U c #000000",
".V c #000000",
".W c #000000",
".X c #000000",
".Y c #000000",
".Z c #000000",
".0 c #000000",
".1 c #000000",
".2 c #000000",
".3 c #000000",
".4 c #000000",
".5 c #000000",
".6 c #000000",
".7 c #000000",
".8 c #000000",
"#` c #000000",
"#. c #000000",
"## c #000000",
"#a c #000000",
"#b c #000000",
"#c c #000000",
"#d c #000000",
"#e c #000000",
"#f c #000000",
"#g c #000000",
"#h c #000000",
"#i c #000000",
"#j c #000000",
"#k c #000000",
"#l c #000000",
"#m c #000000",
"#n c #000000",
"#o c #000000",
"#p c #000000",
"#q c #000000",
"#r c #000000",
"#s c #000000",
"#t c #000000",
"#u c #000000",
"#v c #000000",
"#w c #000000",
"#x c #000000",
"#y c #000000",
"#z c #000000",
"#A c #000000",
"#B c #000000",
"#C c #000000",
"#D c #000000",
"#E c #000000",
"#F c #000000",
"#G c #000000",
"#H c #000000",
"#I c #000000",
"#J c #000000",
"#K c #000000",
"#L c #000000",
"#M c #000000",
"#N c #000000",
"#O c #000000",
"#P c #000000",
"#Q c #000000",
"#R c #000000",
"#S c #000000",
"#T c #000000",
"#U c #000000",
"#V c #000000",
"#W c #000000",
"#X c #000000",
"#Y c #000000",
"#Z c #000000",
"#0 c #000000",
"#1 c #000000",
"#2 c #000000",
"#3 c #000000",
"#4 c #000000",
"#5 c #000000",
"#6 c #000000",
"#7 c #000000",
"#8 c #000000",
"a` c #000000",
"a. c #000000",
"a# c #000000",
"aa c #000000",
"ab c #000000",
"ac c #000000",
"ad c #000000",
"ae c #000000",
"af c #000000",
"ag c #000000",
"ah c #000000",
"ai c #000000",
"aj c #000000",
"ak c #000000",
"al c #000000",
"am c #000000",
"an c #000000",
"ao c #000000",
"ap c #000000",
"aq c #000000",
"ar c #000000",
"as c #000000",
"at c #000000",
"au c #000000",
"av c #000000",
"aw c #000000",
"ax c #000000",
"ay c #000000",
"az c #000000",
"aA c #000000",
"aB c #000000",
"aC c #000000",
"aD c #000000",
"aE c #000000",
"aF c #000000",
"aG c #000000",
"aH c #000000",
"aI c #000000",
"aJ c #000000",
"aK c #000000",
"aL c #000000",
"aM c #000000",
"aN c #000000",
"aO c #000000",
"aP c #000000",
"aQ c #000000",
"aR c #000000",
"aS c #000000",
"aT c #000000",
"aU c #000000",
"aV c #000000",
"aW c #000000",
"aX c #000000",
"aY c #000000",
"aZ c #000000",
"a0 c #000000",
"a1 c #000000",
"a2 c #000000",
"a3 c #000000",
"a4 c #000000",
"a5 c #000000",
"a6 c #000000",
"a7 c #000000",
"a8 c #000000",
/* pixels */
"````````````````````````````````",
"`````.`#`a`b`c`d`e`.`f`g`h`i````",
"`````c`j`k`l`k`m`n`n`n`n`n`o````",
"`````c`a`m`p`q`r`r`r`r`r`s`o````",
"`````c`t`u`c`e`d`f`d`c`c`v`o````",
"`````w`t`x`f`y`z`A`B`C`o`D`o````",
"`````.`t`v`a`b`b`c`A`E`e`F`G````",
"`````H`n`I`q`J`G`K`L`M`N`O`G````",
"`````f`u`D`o`P`Q`R`S`T`t`U`o````",
"`````p`a`D`a`V`W`X`Y`Z`V`v`o````",
"`````h`n`0`k`#`r`y`r`1`2`3`y````",
"`````G`x`0`c`h`p`f`H`4`V`r`3````",
"`````o`x`F`m`l`k`u`s`5`v`g`r````",
"`````z`x`0`6`7`8.`...#.a`D`z````",
"````.b`z`K`K`h`p`p`g`g`g`g.c````",
"````````````````````````````````"
};
