/* XPM */
static const char *qgis_48_xpm[] = {
"48 48 244 2",
"  	c None",
". 	c #4E9906",
"+ 	c #4E9A06",
"@ 	c #A2C67F",
"# 	c #E4E9DE",
"$ 	c #5CA11A",
"% 	c #A8C987",
"& 	c #EEEEEC",
"* 	c #EBEEE9",
"= 	c #95BF6B",
"- 	c #BBD3A4",
"; 	c #5CA21B",
"> 	c #9CC377",
", 	c #D8E2CD",
"' 	c #A5C883",
") 	c #5EA31E",
"! 	c #4E9A07",
"~ 	c #539C0C",
"{ 	c #EBE8DB",
"] 	c #E6DFBF",
"^ 	c #E2D7A7",
"/ 	c #E2D7A8",
"( 	c #E6DFBE",
"_ 	c #EBE8D9",
": 	c #98C171",
"< 	c #4F9A07",
"[ 	c #75AE3D",
"} 	c #ECEAE1",
"| 	c #DBCB81",
"1 	c #CDB134",
"2 	c #C4A001",
"3 	c #C4A000",
"4 	c #CCAF2C",
"5 	c #D9C775",
"6 	c #EAE6D4",
"7 	c #589F14",
"8 	c #CEDDBF",
"9 	c #E0D39B",
"0 	c #C8A818",
"a 	c #C5A206",
"b 	c #CDB031",
"c 	c #D4BF5D",
"d 	c #D7C46D",
"e 	c #CFB43C",
"f 	c #C6A40B",
"g 	c #C6A309",
"h 	c #D8C673",
"i 	c #EDECE5",
"j 	c #539D0E",
"k 	c #519C0A",
"l 	c #D8C46E",
"m 	c #CBAD26",
"n 	c #E7E2C7",
"o 	c #ECEBE2",
"p 	c #D2BA4F",
"q 	c #CEB236",
"r 	c #EBE8DA",
"s 	c #A1C57C",
"t 	c #6EAB34",
"u 	c #D7C46C",
"v 	c #D1B746",
"w 	c #DACA7E",
"x 	c #A5A515",
"y 	c #59A016",
"z 	c #C2D6AD",
"A 	c #E7E1C3",
"B 	c #C4A103",
"C 	c #C5A205",
"D 	c #EAE6D3",
"E 	c #CEB339",
"F 	c #A89F01",
"G 	c #539A06",
"H 	c #A7C985",
"I 	c #62A422",
"J 	c #509B08",
"K 	c #CFB540",
"L 	c #D3BD57",
"M 	c #E2D8A8",
"N 	c #AA9F01",
"O 	c #549A06",
"P 	c #519A06",
"Q 	c #A3B957",
"R 	c #B2CF96",
"S 	c #E1D6A5",
"T 	c #E7E0C2",
"U 	c #B4D098",
"V 	c #A19E02",
"W 	c #CDB030",
"X 	c #EEEEEB",
"Y 	c #CAAB22",
"Z 	c #B9D29F",
"` 	c #509A06",
" .	c #9F9E02",
"..	c #E4DCB5",
"+.	c #E9E5CF",
"@.	c #D3BC54",
"#.	c #BDD4A6",
"$.	c #4F9B07",
"%.	c #9C9E02",
"&.	c #E2D8AA",
"*.	c #D7C36B",
"=.	c #C2D6AC",
"-.	c #4F9B08",
";.	c #91B751",
">.	c #D4BE5B",
",.	c #DCCC85",
"'.	c #DBCB83",
").	c #C6D8B2",
"!.	c #8BBA5D",
"~.	c #D5C060",
"{.	c #DBE4D0",
"].	c #5BA118",
"^.	c #90BC65",
"/.	c #C6A50E",
"(.	c #CFB43B",
"_.	c #E4DBB3",
":.	c #DCE5D3",
"<.	c #63A525",
"[.	c #A8C988",
"}.	c #CAAB20",
"|.	c #CAAC24",
"1.	c #E8E2C9",
"2.	c #DFE6D6",
"3.	c #65A627",
"4.	c #A4C782",
"5.	c #E6E0C1",
"6.	c #CDB135",
"7.	c #E1E7D9",
"8.	c #68A82B",
"9.	c #A0C57C",
"0.	c #C8A716",
"a.	c #D1B849",
"b.	c #E4DBB2",
"c.	c #E3E8DC",
"d.	c #6BA92F",
"e.	c #9CC376",
"f.	c #C5A308",
"g.	c #D5BF5D",
"h.	c #E1D6A2",
"i.	c #6DAA33",
"j.	c #5A9B05",
"k.	c #A4B850",
"l.	c #E8E2C8",
"m.	c #EEEDEA",
"n.	c #EDECE7",
"o.	c #C9AA1F",
"p.	c #DDCE8B",
"q.	c #DED092",
"r.	c #E6EAE0",
"s.	c #71AC38",
"t.	c #7C9C04",
"u.	c #B59F01",
"v.	c #C6A40C",
"w.	c #D6C164",
"x.	c #EDECE6",
"y.	c #D0B644",
"z.	c #E9E5D1",
"A.	c #D7C97D",
"B.	c #74AE3C",
"C.	c #819D03",
"D.	c #C7A612",
"E.	c #ECEBE3",
"F.	c #E8E3CB",
"G.	c #DFD195",
"H.	c #CCAE2B",
"I.	c #A4A61B",
"J.	c #559A06",
"K.	c #BFA000",
"L.	c #D1B84A",
"M.	c #EEEDE9",
"N.	c #D2B94C",
"O.	c #D9C878",
"P.	c #DFD298",
"Q.	c #ECEAE0",
"R.	c #DDCF8F",
"S.	c #B89F01",
"T.	c #7B9C04",
"U.	c #EBE9DD",
"V.	c #D3BB52",
"W.	c #D3BC53",
"X.	c #CAAD26",
"Y.	c #B2A617",
"Z.	c #C9A91D",
"`.	c #D1B847",
" +	c #C7A611",
".+	c #C6A40D",
"++	c #EBEDE8",
"@+	c #92B03B",
"#+	c #C3A000",
"$+	c #CBAD27",
"%+	c #D6C165",
"&+	c #C8A817",
"*+	c #DDCF8E",
"=+	c #ECEDE9",
"-+	c #85B754",
";+	c #C5A104",
">+	c #EBE9DC",
",+	c #DBCB82",
"'+	c #D3BC56",
")+	c #ECEEEA",
"!+	c #ADCC8E",
"~+	c #6CAA31",
"{+	c #7AB145",
"]+	c #DCCF8F",
"^+	c #D2B94D",
"/+	c #E0D59F",
"(+	c #B0CE92",
"_+	c #509B09",
":+	c #559E10",
"<+	c #E8EBE4",
"[+	c #D6C267",
"}+	c #D4BD59",
"|+	c #CFB53F",
"1+	c #E8EAE3",
"2+	c #BED5A8",
"3+	c #87B858",
"4+	c #73AD3B",
"5+	c #5FA31E",
"6+	c #74AE3D",
"7+	c #D4BD58",
"8+	c #CBAD29",
"9+	c #ECEADF",
"0+	c #BBD4A3",
"a+	c #E7E1C4",
"b+	c #E3D9AC",
"c+	c #DBCA7F",
"d+	c #E7E1C5",
"e+	c #529C0C",
"f+	c #D2BA50",
"g+	c #CCAF2D",
"h+	c #E5DDB8",
"i+	c #5BA119",
"j+	c #75AF3E",
"k+	c #CBAD28",
"l+	c #BDD4A5",
"m+	c #C9A91B",
"n+	c #ECE9DE",
"o+	c #DAC97D",
"p+	c #D0B744",
"q+	c #E4DCB6",
"r+	c #DCCD89",
"s+	c #E5DDB7",
"t+	c #E9EBE5",
"u+	c #4E9A05",
"                                                                                                ",
"    . + + + + + + + + + + + + + + + + + + + + + + + + + + + + + + + + + + + + + + + + + + + +   ",
"  + + + + + + + + + + + + + + + + + + + + + + + + + + + + + + + + + + + + + + + + + + + + + +   ",
"  . + + + + + + + + + + + + + + + + + + + + + + + + + + + + + + + + + + + + + + + + + + + + +   ",
"  . + + @ # # # # # # # # # # # # # # # # # # # # # # # # # # # # # # # # # # # # # # # $ + +   ",
"  . + + % & & & & & & & & & & & & & & & & & & & & & & & & & & & & & & & & & & * = - & & ; + +   ",
"  . + + % & & & & & & & & & & & & & & & & & & & & & & & & & & & & & & & & > $ + + , & & ; + +   ",
"  . + + % & & & & & & & & & & & & & & & & & & & & & & & & & & & & & ' ) ! + + + ~ & & & ; + +   ",
"  . + + % & & & & & & & & & & & & & & & & { ] ^ / ( _ & & & & & : < + + + + + + [ & & & ; + +   ",
"  . + + % & & & & & & & & & & & & & } | 1 2 3 3 3 3 3 4 5 6 & & * 7 + + + + + + 8 & & & ; + +   ",
"  . + + % & & & & & & & & & & & & 9 0 3 3 a b c d e f 3 3 g h i & * j + + + + k & & & & ; + +   ",
"  . + + % & & & & & & & & & & & l 3 3 3 m n & & & & o p 3 3 3 q r s + + + + + t & & & & ; + +   ",
"  . + + % & & & & & & & & & & u 3 3 3 v } & & & & & & & w 3 3 3 x + + + y + + z & & & & ; + +   ",
"  . + + % & & & & & & & & & A B 3 3 C D & & & & & & & & & E 3 F G + + H & I J & & & & & ; + +   ",
"  . + + % & & & & & & & & & K 3 3 3 L & & & & & & & & & & M N O + P Q & & & R & & & & & ; + +   ",
"  . + + % & & & & & & & & S 3 3 3 3 T & & & & & & & & & & U O + P V W & & & & & & & & & ; + +   ",
"  . + + % & & & & & & & X Y 3 3 3 1 & & & & & & & & & & Z < + `  .3 3 ..& & & & & & & & ; + +   ",
"  . + + % & & & & & & & +.3 3 3 3 @.& & & & & & & & & #.$.+ + %.3 3 3 | & & & & & & & & ; + +   ",
"  . + + % & & & & & & & &.3 3 3 3 *.& & & & & & & & =.-.+ + ;.3 3 3 3 >.& & & & & & & & ; + +   ",
"  . + + % & & & & & & & ,.3 3 3 3 '.& & & & & & & ).J + + !._ 3 3 3 3 1 & & & & & & & & ; + +   ",
"  . + + % & & & & & & & ~.3 3 3 3 9 & & & & & & {.].+ + ^.& & a 3 3 3 /.& & & & & & & & ; + +   ",
"  . + + % & & & & & & & (.3 3 3 3 _.& & & & & :.<.+ + [.& & & }.3 3 3 3 6 & & & & & & & ; + +   ",
"  . + + % & & & & & & & |.3 3 3 3 1.& & & & 2.3.+ + 4.& & & & |.3 3 3 3 5.& & & & & & & ; + +   ",
"  . + + % & & & & & & & 6.3 3 3 3 T & & & 7.8.+ + 9.& & & & & 0.3 3 3 3 _ & & & & & & & ; + +   ",
"  . + + % & & & & & & & a.3 3 3 3 b.& & c.d.+ + e.& & & & & & f.3 3 3 a X & & & & & & & ; + +   ",
"  . + + % & & & & & & & g.3 3 3 3 h.& # i.+ j.k.l.m.& & & & n.3 3 3 3 o.& & & & & & & & ; + +   ",
"  . + + % & & & & & & & p.3 3 3 3 q.r.s.t.u.3 3 3 v.w.x.& & _ 3 3 3 3 y.& & & & & & & & ; + +   ",
"  . + + % & & & & & & & z.3 3 3 3 A.B.C.3 3 D.e a 3 3 1 E.& F.3 3 3 3 G.& & & & & & & & ; + +   ",
"  . + + % & & & & & & & & H.3 3 3 I.J.K.3 L.M.& r N.3 3 O.& P.3 3 3 f.Q.& & & & & & & & ; + +   ",
"  . + + % & & & & & & & & R.3 3 3 S.T.3 3 z.& & & D g 3 f U.V.3 3 3 W.& & & & & & & & & ; + +   ",
"  . + + % & & & & & & & & M.X.3 3 3 Y.3 Z.& & & & & `.3 3 R. +3 3 .+z.& & & & & & & & & ; + +   ",
"  . + + % & & & & & & & & ++@+#+3 3 .+3 $+& & & & & %+3 3 &+3 3 3 *+& & & & & & & & & & ; + +   ",
"  . + + % & & & & & & & =+-++ t.3 3 3 3 ;+>+& & & & ,+3 3 3 3 3 '+& & & & & & & & & & & ; + +   ",
"  . + + % & & & & )+!+~+J + + {+]+D.3 3 3 ^+{ & & & /+3 3 3 3 l X & & & & & & & & & & & ; + +   ",
"  . + + % & )+(+i._++ + + + :+<+& >+[+;+3 3 .+'+}+|+Z.3 3 3 1 & & & & & & & & & & & & & ; + +   ",
"  . + + % & 1+2+s 3+4+5++ + 6+& & & & n 7+8+C 3 3 3 3 3 3 3 a 9+& & & & & & & & & & & & ; + +   ",
"  . + + % & & & & & & 1++ + 0+& & & & & & & n.a+b+l.D 3 3 3 3 9 & & c+7+d+& & & & & & & ; + +   ",
"  . + + % & & & & & & & k e+& & & & & & & & & & & & m.B 3 3 3 f+& & g+3 h+& & & & & & & ; + +   ",
"  . + + % & & & & & & & i+j+& & & & & & & & & & & & & k+3 3 3 B F.o f.3 a+& & & & & & & ; + +   ",
"  . + + % & & & & & & & ~+l+& & & & & & & & & & & & & l 3 3 3 3 m+(.3 v.n+& & & & & & & ; + +   ",
"  . + + % & & & & & & & H & & & & & & & & & & & & & & n /.3 3 3 3 3 3 o+& & & & & & & & ; + +   ",
"  . + + % & & & & & & & & & & & & & & & & & & & & & & & ..g 3 3 3 3 p+x.& & & & & & & & ; + +   ",
"  . + + % & & & & & & & & & & & & & & & & & & & & & & & & } q+r+'.s+& & & & & & & & & & ; + +   ",
"  . + + ' t+t+t+t+t+t+t+t+t+t+t+t+t+t+t+t+t+t+t+t+t+t+t+t+t+t+t+t+t+t+t+t+t+t+t+t+t+t+t+; + +   ",
"  . + + + + + + + + + + + + + + + + + + + + + + + + + + + + + + + + + + + + + + + + + + + + +   ",
"  + + + + + + + + + + + + + + + + + + + + + + + + + + + + + + + + + + + + + + + + + + + + + +   ",
"    + + + + + + + + + + + + + + + + + + + + + + + + + + + + + + + + + + + + + + + + + + + + u+  ",
"                                                                                                "};
