/* XPM */
static const char * querysql_xpm[] = {
"16 16 44 1",
" 	c None",
".	c #FCEF86",
"+	c #FCF08C",
"@	c #FCF092",
"#	c #FDFADA",
"$	c #FEFADE",
"%	c #FCF08B",
"&	c #FDF3A4",
"*	c #FEFBE6",
"=	c #FEFCEA",
"-	c #FCF199",
";	c #3465A4",
">	c #D4D072",
",	c #F4EB95",
"'	c #FDF3A5",
")	c #FCEC6E",
"!	c #396AA7",
"~	c #3969A7",
"{	c #708D8E",
"]	c #9BAA7A",
"^	c #FCEA5B",
"/	c #3F6FAB",
"(	c #3F6FAC",
"_	c #3E6FAB",
":	c #3E6EAA",
"<	c #4673A7",
"[	c #4474AF",
"}	c #4474B0",
"|	c #4979B3",
"1	c #4A79B3",
"2	c #4A7AB4",
"3	c #4A7AB3",
"4	c #4F7FB7",
"5	c #507EB7",
"6	c #507FB7",
"7	c #4F7EB7",
"8	c #5584BB",
"9	c #5584BA",
"0	c #5583BB",
"a	c #5B89BE",
"b	c #5B89BF",
"c	c #5A89BF",
"d	c #5A89BE",
"e	c #618EC3",
"                ",
"                ",
"            .+  ",
"           @#$% ",
"           &*=- ",
" ;;   ;;;  >,') ",
"!~ ~ !~!!! {]^  ",
"//   /( (_ :<   ",
" [[  [} [[ [[   ",
"  |1 23 11 31   ",
"  44 56 47 44   ",
"8 88 89808 88   ",
" ab   cbb  bcbd ",
"         e      ",
"                ",
"                "};
