/* XPM */
static const char * raster_png16_xpm[] = {
"16 16 61 1",
" 	c None",
".	c #986C98",
"+	c #A175A1",
"@	c #9C739D",
"#	c #906591",
"$	c #9B6F9B",
"%	c #966D97",
"&	c #8A5E8A",
"*	c #956C96",
"=	c #8F6290",
"-	c #8B618B",
";	c #B487B4",
">	c #EEC1EE",
",	c #E6B9E6",
"'	c #B285B3",
")	c #F2C6F2",
"!	c #EABDEB",
"~	c #AF83AF",
"{	c #CB9ECB",
"]	c #BF91C0",
"^	c #8D638D",
"/	c #B086B0",
"(	c #916591",
"_	c #9D709E",
":	c #996D99",
"<	c #A77BA7",
"[	c #F9CCF9",
"}	c #F0C3F1",
"|	c #A87BA8",
"1	c #FFE4FF",
"2	c #E2B7E3",
"3	c #A074A0",
"4	c #815481",
"5	c #B588B5",
"6	c #6C426C",
"7	c #BF94C0",
"8	c #6E416F",
"9	c #784B78",
"0	c #8B5F8B",
"a	c #936793",
"b	c #7F527F",
"c	c #9F759F",
"d	c #FBCFFB",
"e	c #FFD9FF",
"f	c #E0B3E0",
"g	c #A276A2",
"h	c #FFE0FF",
"i	c #DFB2DF",
"j	c #C295C2",
"k	c #926692",
"l	c #CA9ECA",
"m	c #AC7FAD",
"n	c #C99DC9",
"o	c #805380",
"p	c #734973",
"q	c #835783",
"r	c #885B89",
"s	c #7C517D",
"t	c #865A86",
"u	c #895E8A",
"v	c #7E527E",
"                ",
" .+@#$%&*=&*=-  ",
" ;>,;>,;>,')!~  ",
" %{]%{]%{]^]/&  ",
" (_:(_:(_:&.*&  ",
" ')!')!')!')!~  ",
" ^]/^]/^]/^]/&  ",
" &.*&.*&.*&.*&  ",
" <[}<[}<[}|123  ",
" 45<45<45<67_8  ",
" 9009009009a&b  ",
" cd><efgh,|1ic  ",
" -j'0{/klm#nmo  ",
" pqrsttsutvutb  ",
"                ",
"                "};
