/* XPM */
static const char *raster_dset_48_xpm[] = {
/* width height num_colors chars_per_pixel */
"    48    48      256            2",
/* colors */
"`` c None",
"`. c #fcf8ce",
"`# c #f7f3c8",
"`a c #eeecc1",
"`b c #dfddb2",
"`c c #d6d4a9",
"`d c #d5d1a6",
"`e c #fbf9cf",
"`f c #f8f6cb",
"`g c #f1edc3",
"`h c #dedcb1",
"`i c #d2d0a6",
"`j c #fffdd2",
"`k c #f9f7cc",
"`l c #d0cea4",
"`m c #ffffd4",
"`n c #f2eec4",
"`o c #dddbb0",
"`p c #d0cea3",
"`q c #dcd8b0",
"`r c #b6b489",
"`s c #bab68e",
"`t c #9a986e",
"`u c #d9d7ad",
"`v c #c1bf95",
"`w c #b5b388",
"`x c #97936d",
"`y c #afab81",
"`z c #b0ae86",
"`A c #8b8961",
"`B c #d8d6ac",
"`C c #d8d6ab",
"`D c #bbb78d",
"`E c #adab80",
"`F c #84825a",
"`G c #eceac0",
"`H c #ceca9f",
"`I c #cac89e",
"`J c #b7b58d",
"`K c #98966c",
"`L c #c9c39b",
"`M c #b4b287",
"`N c #929066",
"`O c #edebc0",
"`P c #c8c69c",
"`Q c #c7c398",
"`R c #afad83",
"`S c #8b895f",
"`T c #c2c095",
"`U c #ada97f",
"`V c #838157",
"`W c #bbb98e",
"`X c #b6b48a",
"`Y c #b4b086",
"`Z c #918d65",
"`0 c #aeac82",
"`1 c #8a865e",
"`2 c #aca87e",
"`3 c #828056",
"`4 c #96926c",
"`5 c #b3af85",
"`6 c #908c62",
"`7 c #89855b",
"`8 c #a9a77c",
".` c #807e53",
".. c #94926a",
".# c #939167",
".a c #918f65",
".b c #8d8b63",
".c c #8c8a62",
".d c #86845a",
".e c #85835b",
".f c #817f54",
".g c #7e7c52",
".h c #fefad2",
".i c #fffed3",
".j c #ffffd5",
".k c #f2f0c5",
".l c #cfcda2",
".m c #faf8cd",
".n c #a7a57b",
".o c #c4c297",
".p c #ddd9af",
".q c #a8a67b",
".r c #7f7d52",
".s c #d1cfa5",
".t c #7d7951",
".u c #7c7850",
".v c #fffbd3",
".w c #ffffd7",
".x c #f4f2c8",
".y c #c8c49a",
".z c #c3c196",
".A c #c1bd95",
".B c #a6a47a",
".C c #a6a27a",
".D c #7d774f",
".E c #7a784d",
".F c #cfcba1",
".G c #ffffdc",
".H c #f2f0c6",
".I c #cbc99e",
".J c #d7d5aa",
".K c #a6a278",
".L c #a5a177",
".M c #79774c",
".N c #c0bc94",
".O c #bcba8f",
".P c #a09e74",
".Q c #9e9a74",
".R c #6a683e",
".S c #9e9a70",
".T c #9b996f",
".U c #6a683d",
".V c #a2a076",
".W c #706c42",
".X c #69673c",
".Y c #727045",
".Z c #6b693f",
".0 c #ffffe4",
".1 c #ffffdd",
".2 c #78764b",
".3 c #ffffdb",
".4 c #e5e3b8",
".5 c #e0deb3",
".6 c #8a885e",
".7 c #e4e0b8",
".8 c #838159",
"#` c #000000",
"#. c #000000",
"## c #000000",
"#a c #000000",
"#b c #000000",
"#c c #000000",
"#d c #000000",
"#e c #000000",
"#f c #000000",
"#g c #000000",
"#h c #000000",
"#i c #000000",
"#j c #000000",
"#k c #000000",
"#l c #000000",
"#m c #000000",
"#n c #000000",
"#o c #000000",
"#p c #000000",
"#q c #000000",
"#r c #000000",
"#s c #000000",
"#t c #000000",
"#u c #000000",
"#v c #000000",
"#w c #000000",
"#x c #000000",
"#y c #000000",
"#z c #000000",
"#A c #000000",
"#B c #000000",
"#C c #000000",
"#D c #000000",
"#E c #000000",
"#F c #000000",
"#G c #000000",
"#H c #000000",
"#I c #000000",
"#J c #000000",
"#K c #000000",
"#L c #000000",
"#M c #000000",
"#N c #000000",
"#O c #000000",
"#P c #000000",
"#Q c #000000",
"#R c #000000",
"#S c #000000",
"#T c #000000",
"#U c #000000",
"#V c #000000",
"#W c #000000",
"#X c #000000",
"#Y c #000000",
"#Z c #000000",
"#0 c #000000",
"#1 c #000000",
"#2 c #000000",
"#3 c #000000",
"#4 c #000000",
"#5 c #000000",
"#6 c #000000",
"#7 c #000000",
"#8 c #000000",
"a` c #000000",
"a. c #000000",
"a# c #000000",
"aa c #000000",
"ab c #000000",
"ac c #000000",
"ad c #000000",
"ae c #000000",
"af c #000000",
"ag c #000000",
"ah c #000000",
"ai c #000000",
"aj c #000000",
"ak c #000000",
"al c #000000",
"am c #000000",
"an c #000000",
"ao c #000000",
"ap c #000000",
"aq c #000000",
"ar c #000000",
"as c #000000",
"at c #000000",
"au c #000000",
"av c #000000",
"aw c #000000",
"ax c #000000",
"ay c #000000",
"az c #000000",
"aA c #000000",
"aB c #000000",
"aC c #000000",
"aD c #000000",
"aE c #000000",
"aF c #000000",
"aG c #000000",
"aH c #000000",
"aI c #000000",
"aJ c #000000",
"aK c #000000",
"aL c #000000",
"aM c #000000",
"aN c #000000",
"aO c #000000",
"aP c #000000",
"aQ c #000000",
"aR c #000000",
"aS c #000000",
"aT c #000000",
"aU c #000000",
"aV c #000000",
"aW c #000000",
"aX c #000000",
"aY c #000000",
"aZ c #000000",
"a0 c #000000",
"a1 c #000000",
"a2 c #000000",
"a3 c #000000",
"a4 c #000000",
"a5 c #000000",
"a6 c #000000",
"a7 c #000000",
"a8 c #000000",
/* pixels */
"````````````````````````````````````````````````````````````````````````````````````````````````",
"````````````````````````````````````````````````````````````````````````````````````````````````",
"````````````````````````````````````````````````````````````````````````````````````````````````",
"```````.`#`a`b`c`d`e`f`g`h`d`i`j`k`g`h`i`l`m`.`n`o`l`p`m`.`n`o`l`p``````````````````````````````",
"```````#`q`q`r`s`t`f`u`q`v`w`x`k`u`u`y`z`A`.`B`C`D`E`F`.`B`C`D`E`F``````````````````````````````",
"```````G`H`I`J`J`K`G`I`L`M`M`N`O`P`Q`z`R`S`a`Q`T`U`U`V`a`Q`T`U`U`V``````````````````````````````",
"```````b`W`J`X`X`x`h`J`M`M`Y`Z`o`Y`R`0`0`1`o`0`U`2`2`3`o`0`U`2`2`3``````````````````````````````",
"```````c`J`X`X`r`4`d`M`M`Y`5`6`i`R`0`y`E`7`l`U`2`8`8.``l`U`2`8`8.```````````````````````````````",
"```````t`K`x`4.....#`N.a`6.b.c`A`S`1`7.d.e`F`V`3.f.`.g`F`V`3.f.`.g``````````````````````````````",
"``````.h`f`g`h`d`i.i`k`g`o`i`l.j`e.k`o`l.l`m`.`n`o`l`p`m`.`n`o`l`p``````````````````````````````",
"```````f`u`u`R`M.a.m`B`B`W`0.b`e`C`C.n`2`3`.`B`C`D`E`F`.`B`C`D`E`F``````````````````````````````",
"```````O`I`L`M`Y`6`a`L.o`0`y`7`a`Q`v`2`8.f`a`Q`T`U`U`V`a`Q`T`U`U`V``````````````````````````````",
"```````h`r`Y`Y`5.b`o`5`0`y`E.d.p`y`2`8.q.r`o`0`U`2`2`3`o`0`U`2`2`3``````````````````````````````",
"```````d`Y`5`5`z`A.s`y`E`E`E`F`l`8`8.q.n.t`l`U`2`8`8.``l`U`2`8`8.```````````````````````````````",
"``````.a`6.b.c`A`S`1`7.d.e`F`V`3.f.`.g.t.u`F`V`3.f.`.g`F`V`3.f.`.g``````````````````````````````",
"``````.i.v`k`o.s`l.w`e.k.p`l.l`.`#`a`b`c`d`e`f`g`h`d`i`j`k`g`h`i`l`m`.`n`o`l`p`m`.`n`o`l`p``````",
"``````.v`C`B`W`E`7`e`C`C`X`8.c`#`q`q`r`s`t`f`u`q`v`w`x`k`u`u`y`z`A`.`B`C`D`E`F`.`B`C`D`E`F``````",
"``````.x.y.z`E`E.e`g`r.A.q.n.g`G`H`I`J`J`K`G`I`L`M`M`N`O`P`Q`z`R`S`a`Q`T`U`U`V`a`Q`T`U`U`V``````",
"```````o`z`E`E`U`V.p`E.q.n.B.u`b`W`J`X`X`x`h`J`M`M`Y`Z`o`Y`R`0`0`1`o`0`U`2`2`3`o`0`U`2`2`3``````",
"``````.s`E`E`U`2`3`l.q.n.B.C.D`c`J`X`X`r`4`d`M`M`Y`5`6`i`R`0`y`E`7`l`U`2`8`8.``l`U`2`8`8.```````",
"``````.d`1`F`V`3.f.``3.t.u.D.E`t`K`x`4.....#`N.a`6.b.c`A`S`1`7.d.e`F`V`3.f.`.g`F`V`3.f.`.g``````",
"``````.w.h.k.p`p.F.G`j.H`q.l.I.h`f`g`h`d`i.i`k`g`o`i`l.j`e.k`o`l.l`m`.`n`o`l`p`m`.`n`o`l`p``````",
"``````.h.J.J.K.n.t`j`c`c`Y.L.M`f`u`u`R`M.a.m`B`B`W`0.b`e`C`C.n`2`3`.`B`C`D`E`F`.`B`C`D`E`F``````",
"```````g`T.N.B.B.u`n.A.O.P.Q.R`O`I`L`M`Y`6`a`L.o`0`y`7`a`Q`v`2`8.f`a`Q`T`U`U`V`a`Q`T`U`U`V``````",
"``````.p`2.B.C.C.M`q.L.Q.S.T.U`h`r`Y`Y`5.b`o`5`0`y`E.d.p`y`2`8.q.r`o`0`U`2`2`3`o`0`U`2`2`3``````",
"```````p.B.K.V.P.W.I.T.T.T.T.X`d`Y`5`5`z`A.s`y`E`E`E`F`l`8`8.q.n.t`l`U`2`8`8.``l`U`2`8`8.```````",
"``````.Y.W.Z.Z.R.U.U.U.U.U.U.X.a`6.b.c`A`S`1`7.d.e`F`V`3.f.`.g.t.u`F`V`3.f.`.g`F`V`3.f.`.g``````",
"``````.0.1`m`u.I`P.0.w.x`u.I`Q.i.v`k`o.s`l.w`e.k.p`l.l`j`k`g`h`i`l`m`.`n`o`l`p`m`.`n`o`l`p``````",
"``````.1`d`d`U.T.U.w`d`d`U.T.2.v`C`B`W`E`7`e`C`C`X`8.c`k`u`u`y`z`A`.`B`C`D`E`F`.`B`C`D`E`F``````",
"```````.`W`X.T.T.U.k`8`X.T.T.U.x.y.z`E`E.e`g`r.A.q.n.g`O`P`Q`z`R`S`a`Q`T`U`U`V`a`Q`T`U`U`V``````",
"```````u.Q.T.T.T.U`u.Q.T.T.T.U`o`z`E`E`U`V.p`E.q.n.B.u`o`Y`R`0`0`1`o`0`U`2`2`3`o`0`U`2`2`3``````",
"``````.I.T.T.T.T.U.I.T.T.T.T.U.s`E`E`U`2`3`l.q.n.B.C.D`i`R`0`y`E`7`l`U`2`8`8.``l`U`2`8`8.```````",
"``````.U.U.U.U.U.U.U.U.U.U.U.U.d`1`F`V`3.f.``3.t.u.D.E`A`S`1`7.d.e`F`V`3.f.`.g`F`V`3.f.`.g``````",
"``````````````````````````````.w.h.k.p`p.F.G`j.H`q.l.I.3`m`f.4`B.J`k`e.H`u.I`P`k`e.H`u.I`P``````",
"``````````````````````````````.h.J.J.K.n.t`j`c`c`Y.L.M`m.5.5`R`Y`S`e.s`d`U.T.U`e.s`d`U.T.U``````",
"```````````````````````````````g`T.N.B.B.u`n.A.O.P.Q.R`#.F`I`Y`Y.6`n`W`X.T.T.U`n`W`X.T.T.U``````",
"``````````````````````````````.p`2.B.C.C.M`q.L.Q.S.T.U.7`X`Y`5`5`7`u.Q.T.T.T.U`u.Q.T.T.T.U``````",
"```````````````````````````````p.B.K.V.P.W.I.T.T.T.T.X`B`Y`5`z`R.d.I.T.T.T.T.U.I.T.T.T.T.U``````",
"``````````````````````````````.Y.W.Z.Z.R.U.U.U.U.U.U.X`S.6`7.d`F.8.U.U.U.U.U.U.U.U.U.U.U.U``````",
"``````````````````````````````.0.1`m`u.I`P.0.w.x`u.I`Q.0.w.x`u.I`Q.h`e.H`u.I`P.0.w.x`u.I`P``````",
"``````````````````````````````.1`d`d`U.T.U.w`d`d`U.T.2.w`d`d`U.T.2`j.s`d`U.T.U.w`d`d`U.T.U``````",
"```````````````````````````````.`W`X.T.T.U.k`8`X.T.T.U.k`8`X.T.T.U.k`8`X.T.T.U.k`8`X.T.T.U``````",
"```````````````````````````````u.Q.T.T.T.U`u.Q.T.T.T.U`u.Q.T.T.T.U`u.Q.T.T.T.U`u.Q.T.T.T.U``````",
"``````````````````````````````.I.T.T.T.T.U.I.T.T.T.T.U.I.T.T.T.T.U.I.T.T.T.T.U.I.T.T.T.T.U``````",
"``````````````````````````````.U.U.U.U.U.U.U.U.U.U.U.U.U.U.U.U.U.U.U.U.U.U.U.U.U.U.U.U.U.U``````",
"````````````````````````````````````````````````````````````````````````````````````````````````",
"````````````````````````````````````````````````````````````````````````````````````````````````",
"````````````````````````````````````````````````````````````````````````````````````````````````"
};
