/* XPM */
static const char * raster_tif16_xpm[] = {
"16 16 59 1",
" 	c None",
".	c #706C98",
"+	c #7975A1",
"@	c #76739D",
"#	c #696591",
"$	c #736F9B",
"%	c #706D97",
"&	c #625E8A",
"*	c #6F6C96",
"=	c #666290",
"-	c #65618B",
";	c #8B87B4",
">	c #C5C1EE",
",	c #BDB9E6",
"'	c #8985B3",
")	c #CAC6F2",
"!	c #C1BDEB",
"~	c #8783AF",
"{	c #A29ECB",
"]	c #9591C0",
"^	c #67638D",
"/	c #8A86B0",
"(	c #74709E",
"_	c #716D99",
":	c #7F7BA7",
"<	c #D0CCF9",
"[	c #C7C3F1",
"}	c #7F7BA8",
"|	c #E7E4FF",
"1	c #BBB7E3",
"2	c #7874A0",
"3	c #585481",
"4	c #8C88B5",
"5	c #46426C",
"6	c #9894C0",
"7	c #45416F",
"8	c #4F4B78",
"9	c #635F8B",
"0	c #6B6793",
"a	c #56527F",
"b	c #79759F",
"c	c #D3CFFB",
"d	c #DDD9FF",
"e	c #B7B3E0",
"f	c #7A76A2",
"g	c #E3E0FF",
"h	c #B6B2DF",
"i	c #9995C2",
"j	c #6A6692",
"k	c #A29ECA",
"l	c #837FAD",
"m	c #A19DC9",
"n	c #575380",
"o	c #4D4973",
"p	c #5B5783",
"q	c #5F5B89",
"r	c #55517D",
"s	c #5E5A86",
"t	c #56527E",
"                ",
" .+@#$%&*=&*=-  ",
" ;>,;>,;>,')!~  ",
" %{]%{]%{]^]/&  ",
" #(_#(_#(_&.*&  ",
" ')!')!')!')!~  ",
" ^]/^]/^]/^]/&  ",
" &.*&.*&.*&.*&  ",
" :<[:<[:<[}|12  ",
" 34:34:34:56(7  ",
" 89989989980&a  ",
" bc>:defg,}|hb  ",
" -i'9{/jkl#mln  ",
" opqrssr&st&sa  ",
"                ",
"                "};
