/* XPM */
static const char * raster_unk48_xpm[] = {
"48 48 124 2",
"  	c None",
". 	c #F0FCCE",
"+ 	c #EAF7C8",
"@ 	c #E1EEC1",
"# 	c #D2DFB2",
"$ 	c #C9D6A9",
"% 	c #C8D5A6",
"& 	c #EFFBCF",
"* 	c #EBF8CB",
"= 	c #E5F1C3",
"- 	c #D1DEB1",
"; 	c #C6D2A6",
"> 	c #F2FFD2",
", 	c #ECF9CC",
"' 	c #C4D0A4",
") 	c #F2FFD4",
"! 	c #E6F2C4",
"~ 	c #D0DDB0",
"{ 	c #C3D0A3",
"] 	c #D0DCB0",
"^ 	c #A9B689",
"/ 	c #AEBA8E",
"( 	c #8E9A6E",
"_ 	c #CDD9AD",
": 	c #B5C195",
"< 	c #A8B588",
"[ 	c #8C976D",
"} 	c #A3AF81",
"| 	c #A4B086",
"1 	c #7F8B61",
"2 	c #CCD8AC",
"3 	c #CBD8AB",
"4 	c #AFBB8D",
"5 	c #A0AD80",
"6 	c #78845A",
"7 	c #E0ECC0",
"8 	c #C1CE9F",
"9 	c #BECA9E",
"0 	c #ABB78D",
"a 	c #8C986C",
"b 	c #BEC99B",
"c 	c #A7B487",
"d 	c #869266",
"e 	c #E0EDC0",
"f 	c #BCC89C",
"g 	c #BAC798",
"h 	c #A3AF83",
"i 	c #7F8B5F",
"j 	c #B5C295",
"k 	c #A1AD7F",
"l 	c #778357",
"m 	c #AEBB8E",
"n 	c #AAB68A",
"o 	c #A8B486",
"p 	c #859165",
"q 	c #A2AE82",
"r 	c #7E8A5E",
"s 	c #A0AC7E",
"t 	c #768256",
"u 	c #8B966C",
"v 	c #A7B385",
"w 	c #849062",
"x 	c #7D895B",
"y 	c #9CA97C",
"z 	c #738053",
"A 	c #88946A",
"B 	c #879367",
"C 	c #818D63",
"D 	c #808C62",
"E 	c #7A865A",
"F 	c #79855B",
"G 	c #748154",
"H 	c #727E52",
"I 	c #F2FED2",
"J 	c #F2FFD3",
"K 	c #F2FFD5",
"L 	c #E5F2C5",
"M 	c #C2CFA2",
"N 	c #EDFACD",
"O 	c #9BA77B",
"P 	c #B7C497",
"Q 	c #D1DDAF",
"R 	c #9BA87B",
"S 	c #727F52",
"T 	c #C5D1A5",
"U 	c #717D51",
"V 	c #707C50",
"W 	c #F3FFD3",
"X 	c #F3FFD7",
"Y 	c #E8F4C8",
"Z 	c #BCC89A",
"` 	c #B6C396",
" .	c #9AA67A",
"..	c #727D4F",
"+.	c #6D7A4D",
"@.	c #C3CFA1",
"#.	c #F4FFDC",
"$.	c #E6F2C6",
"%.	c #BECB9E",
"&.	c #F4FFDB",
"*.	c #D8E5B8",
"=.	c #CAD7AA",
"-.	c #9AA678",
";.	c #99A577",
">.	c #6C794C",
",.	c #D3E0B3",
"'.	c #8F9B6F",
").	c #5D6A3D",
"!.	c #B4C094",
"~.	c #AFBC8F",
"{.	c #94A074",
"].	c #939E74",
"^.	c #5E6A3E",
"/.	c #929E70",
"(.	c #D8E4B8",
"_.	c #96A276",
":.	c #647042",
"<.	c #5C693C",
"[.	c #657245",
"}.	c #5F6B3F",
"|.	c #778359",
"1.	c #F7FFE4",
"2.	c #F5FFDD",
"3.	c #6B784B",
"                                                                                                ",
"                                                                                                ",
"                                                                                                ",
"                                                                                                ",
"                                                                                                ",
"                                                                                                ",
"            . + @ # $ % . + @ # $ % & * = - % ; > , = - ; ' ) . ! ~ ' { ) . ! ~ ' {             ",
"            + ] ] ^ / ( + ] ] ^ / ( * _ ] : < [ , _ _ } | 1 . 2 3 4 5 6 . 2 3 4 5 6             ",
"            7 8 9 0 0 a 7 8 9 0 0 a 7 9 b c c d e f g | h i @ g j k k l @ g j k k l             ",
"            # m 0 n n [ # m 0 n n [ - 0 c c o p ~ o h q q r ~ q k s s t ~ q k s s t             ",
"            $ 0 n n ^ u $ 0 n n ^ u % c c o v w ; h q } 5 x ' k s y y z ' k s y y z             ",
"            ( a [ u A A ( a [ u A A B d p w C D 1 i r x E F 6 l t G z H 6 l t G z H             ",
"            . + @ # $ % . + @ # $ % & * = - % ; > , = - ; ' ) . ! ~ ' { ) . ! ~ ' {             ",
"            + ] ] ^ / ( + ] ] ^ / ( * _ ] : < [ , _ _ } | 1 . 2 3 4 5 6 . 2 3 4 5 6             ",
"            7 8 9 0 0 a 7 8 9 0 0 a 7 9 b c c d e f g | h i @ g j k k l @ g j k k l             ",
"            # m 0 n n [ # m 0 n n [ - 0 c c o p ~ o h q q r ~ q k s s t ~ q k s s t             ",
"            $ 0 n n ^ u $ 0 n n ^ u % c c o v w ; h q } 5 x ' k s y y z ' k s y y z             ",
"            ( a [ u A A ( a [ u A A B d p w C D 1 i r x E F 6 l t G z H 6 l t G z H             ",
"            I * = - % ; I * = - % ; J , = ~ ; ' K & L ~ ' M ) . ! ~ ' { ) . ! ~ ' {             ",
"            * _ _ h c p * _ _ h c p N 2 2 m q C & 3 3 O s t . 2 3 4 5 6 . 2 3 4 5 6             ",
"            e 9 b c o w e 9 b c o w @ b P q } x @ g : s y G @ g j k k l @ g j k k l             ",
"            - ^ o o v C - ^ o o v C ~ v q } 5 E Q } s y R S ~ q k s s t ~ q k s s t             ",
"            % o v v | 1 % o v v | 1 T } 5 5 5 6 ' y y R O U ' k s y y z ' k s y y z             ",
"            p w C D 1 i p w C D 1 i r x E F 6 l t G z H U V 6 l t G z H 6 l t G z H             ",
"            J W , ~ T ' J W , ~ T ' X & L Q ' M > , = - ; ' ) . ! ~ ' { ) . ! ~ ' {             ",
"            W 3 2 m 5 x W 3 2 m 5 x & 3 3 n y D , _ _ } | 1 . 2 3 4 5 6 . 2 3 4 5 6             ",
"            Y Z ` 5 5 F Y Z ` 5 5 F = ^ : R O H e f g | h i @ g j k k l @ g j k k l             ",
"            ~ | 5 5 k l ~ | 5 5 k l Q 5 R O  .V ~ o h q q r ~ q k s s t ~ q k s s t             ",
"            T 5 5 k s t T 5 5 k s t ' R O  . ...; h q } 5 x ' k s y y z ' k s y y z             ",
"            E r 6 l t G E r 6 l t G z t U V ..+.1 i r x E F 6 l t G z H 6 l t G z H             ",
"            X I L Q { @.X I L Q { @.#.> $.] M %.&.) * *.2 =., & $._ %.f , & $._ %.f             ",
"            I =.=.-.O U I =.=.-.O U > $ $ o ;.>.) ,.,.h o i & T % k '.).& T % k '.).            ",
"            = j !. . .V = j !. . .V ! : ~.{.].^.+ @.9 o o r ! m n '.'.).! m n '.'.).            ",
"            Q s  . . .>.Q s  . . .>.] ;.]./.'.).(.n o v v x _ ].'.'.'.)._ ].'.'.'.).            ",
"            {  .-._.{.:.{  .-._.{.:.%.'.'.'.'.<.2 o v | h E %.'.'.'.'.).%.'.'.'.'.).            ",
"            [.:.}.}.^.).[.:.}.}.^.).).).).).).<.i r x E 6 |.).).).).).).).).).).).).            ",
"            1.2.) _ %.f 1.2.) _ %.f 1.X Y _ %.g 1.X Y _ %.g I & $._ %.f 1.X Y _ %.f             ",
"            2.% % k '.).2.% % k '.).X % % k '.3.X % % k '.3.> T % k '.).X % % k '.).            ",
"            . m n '.'.).. m n '.'.).L y n '.'.).L y n '.'.).L y n '.'.).L y n '.'.).            ",
"            _ ].'.'.'.)._ ].'.'.'.)._ ].'.'.'.)._ ].'.'.'.)._ ].'.'.'.)._ ].'.'.'.).            ",
"            %.'.'.'.'.).%.'.'.'.'.).%.'.'.'.'.).%.'.'.'.'.).%.'.'.'.'.).%.'.'.'.'.).            ",
"            ).).).).).).).).).).).).).).).).).).).).).).).).).).).).).).).).).).).).            ",
"                                                                                                ",
"                                                                                                ",
"                                                                                                ",
"                                                                                                ",
"                                                                                                ",
"                                                                                                "};
