/* XPM */
static const char * raster_saga48_xpm[] = {
"48 48 123 2",
"  	c None",
". 	c #CEFCF7",
"+ 	c #C8F7F2",
"@ 	c #C1EEE9",
"# 	c #B2DFDA",
"$ 	c #A9D6D1",
"% 	c #A6D5D0",
"& 	c #CFFBF6",
"* 	c #CBF8F3",
"= 	c #C3F1EC",
"- 	c #B1DED9",
"; 	c #A6D2CD",
"> 	c #D2FFFA",
", 	c #CCF9F4",
"' 	c #A4D0CB",
") 	c #D4FFFB",
"! 	c #C4F2ED",
"~ 	c #B0DDD8",
"{ 	c #A3D0CB",
"] 	c #B0DCD7",
"^ 	c #89B6B1",
"/ 	c #8EBAB5",
"( 	c #6E9A95",
"_ 	c #ADD9D4",
": 	c #95C1BC",
"< 	c #88B5B0",
"[ 	c #6D9792",
"} 	c #81AFAA",
"| 	c #86B0AB",
"1 	c #618B86",
"2 	c #ACD8D3",
"3 	c #ABD8D3",
"4 	c #8DBBB6",
"5 	c #80ADA8",
"6 	c #5A847F",
"7 	c #C0ECE7",
"8 	c #9FCEC9",
"9 	c #9ECAC5",
"0 	c #8DB7B2",
"a 	c #6C9893",
"b 	c #9BC9C3",
"c 	c #87B4AF",
"d 	c #66928D",
"e 	c #C0EDE8",
"f 	c #9CC8C3",
"g 	c #98C7C2",
"h 	c #83AFAA",
"i 	c #5F8B86",
"j 	c #95C2BD",
"k 	c #7FADA8",
"l 	c #57837E",
"m 	c #8EBBB6",
"n 	c #8AB6B1",
"o 	c #86B4AF",
"p 	c #65918C",
"q 	c #82AEA9",
"r 	c #5E8A85",
"s 	c #7EACA7",
"t 	c #56827D",
"u 	c #6C9691",
"v 	c #85B3AE",
"w 	c #62908B",
"x 	c #5B8984",
"y 	c #7CA9A4",
"z 	c #53807B",
"A 	c #6A948F",
"B 	c #67938E",
"C 	c #638D88",
"D 	c #628C87",
"E 	c #5A8681",
"F 	c #5B8580",
"G 	c #54817C",
"H 	c #527E79",
"I 	c #D2FEF9",
"J 	c #D3FFFA",
"K 	c #D5FFFB",
"L 	c #C5F2ED",
"M 	c #A2CFCA",
"N 	c #CDFAF5",
"O 	c #7BA7A2",
"P 	c #97C4BF",
"Q 	c #AFDDD8",
"R 	c #7BA8A3",
"S 	c #527F7A",
"T 	c #A5D1CC",
"U 	c #517D78",
"V 	c #507C77",
"W 	c #D7FFFB",
"X 	c #C8F4EF",
"Y 	c #9AC8C3",
"Z 	c #96C3BE",
"` 	c #7AA6A1",
" .	c #4F7D77",
"..	c #4D7A75",
"+.	c #A1CFCA",
"@.	c #DCFFFC",
"#.	c #C6F2ED",
"$.	c #9ECBC6",
"%.	c #DBFFFB",
"&.	c #B8E5E0",
"*.	c #AAD7D2",
"=.	c #78A6A1",
"-.	c #77A5A0",
";.	c #4C7974",
">.	c #B3E0DB",
",.	c #6F9B96",
"'.	c #3D6A65",
").	c #94C0BB",
"!.	c #8FBCB7",
"~.	c #74A09B",
"{.	c #749E99",
"].	c #3E6A65",
"^.	c #709E99",
"/.	c #B8E4DF",
"(.	c #76A29D",
"_.	c #42706B",
":.	c #3C6964",
"<.	c #45726D",
"[.	c #3F6B66",
"}.	c #59837E",
"|.	c #E4FFFC",
"1.	c #DDFFFC",
"2.	c #4B7873",
"                                                                                                ",
"                                                                                                ",
"                                                                                                ",
"                                                                                                ",
"                                                                                                ",
"                                                                                                ",
"            . + @ # $ % . + @ # $ % & * = - % ; > , = - ; ' ) . ! ~ ' { ) . ! ~ ' {             ",
"            + ] ] ^ / ( + ] ] ^ / ( * _ ] : < [ , _ _ } | 1 . 2 3 4 5 6 . 2 3 4 5 6             ",
"            7 8 9 0 0 a 7 8 9 0 0 a 7 9 b c c d e f g | h i @ g j k k l @ g j k k l             ",
"            # m 0 n n [ # m 0 n n [ - 0 c c o p ~ o h q q r ~ q k s s t ~ q k s s t             ",
"            $ 0 n n ^ u $ 0 n n ^ u % c c o v w ; h q } 5 x ' k s y y z ' k s y y z             ",
"            ( a [ u A A ( a [ u A A B d p w C D 1 i r x E F 6 l t G z H 6 l t G z H             ",
"            . + @ # $ % . + @ # $ % & * = - % ; > , = - ; ' ) . ! ~ ' { ) . ! ~ ' {             ",
"            + ] ] ^ / ( + ] ] ^ / ( * _ ] : < [ , _ _ } | 1 . 2 3 4 5 6 . 2 3 4 5 6             ",
"            7 8 9 0 0 a 7 8 9 0 0 a 7 9 b c c d e f g | h i @ g j k k l @ g j k k l             ",
"            # m 0 n n [ # m 0 n n [ - 0 c c o p ~ o h q q r ~ q k s s t ~ q k s s t             ",
"            $ 0 n n ^ u $ 0 n n ^ u % c c o v w ; h q } 5 x ' k s y y z ' k s y y z             ",
"            ( a [ u A A ( a [ u A A B d p w C D 1 i r x E F 6 l t G z H 6 l t G z H             ",
"            I * = - % ; I * = - % ; J , = ~ ; ' K & L ~ ' M ) . ! ~ ' { ) . ! ~ ' {             ",
"            * _ _ h c p * _ _ h c p N 2 2 m q C & 3 3 O s t . 2 3 4 5 6 . 2 3 4 5 6             ",
"            e 9 b c o w e 9 b c o w @ b P q } x @ g : s y G @ g j k k l @ g j k k l             ",
"            - ^ o o v C - ^ o o v C ~ v q } 5 E Q } s y R S ~ q k s s t ~ q k s s t             ",
"            % o v v | 1 % o v v | 1 T } 5 5 5 6 ' y y R O U ' k s y y z ' k s y y z             ",
"            p w C D 1 i p w C D 1 i r x E F 6 l t G z H U V 6 l t G z H 6 l t G z H             ",
"            J J , ~ T ' J J , ~ T ' W & L Q ' M > , = - ; ' ) . ! ~ ' { ) . ! ~ ' {             ",
"            J 3 2 m 5 x J 3 2 m 5 x & 3 3 n y D , _ _ } | 1 . 2 3 4 5 6 . 2 3 4 5 6             ",
"            X Y Z 5 5 F X Y Z 5 5 F = ^ : R O H e f g | h i @ g j k k l @ g j k k l             ",
"            ~ | 5 5 k l ~ | 5 5 k l Q 5 R O ` V ~ o h q q r ~ q k s s t ~ q k s s t             ",
"            T 5 5 k s t T 5 5 k s t ' R O ` `  .; h q } 5 x ' k s y y z ' k s y y z             ",
"            E r 6 l t G E r 6 l t G z t U V  ...1 i r x E F 6 l t G z H 6 l t G z H             ",
"            W I L Q { +.W I L Q { +.@.> #.] M $.%.) * &.2 *., & #._ $.f , & #._ $.f             ",
"            I *.*.=.O U I *.*.=.O U > $ $ o -.;.) >.>.h o i & T % k ,.'.& T % k ,.'.            ",
"            = j ).` ` V = j ).` ` V ! : !.~.{.].+ +.9 o o r ! m n ,.,.'.! m n ,.,.'.            ",
"            Q s ` ` ` ;.Q s ` ` ` ;.] -.{.^.,.'./.n o v v x _ {.,.,.,.'._ {.,.,.,.'.            ",
"            { ` =.(.~._.{ ` =.(.~._.$.,.,.,.,.:.2 o v | h E $.,.,.,.,.'.$.,.,.,.,.'.            ",
"            <._.[.[.].'.<._.[.[.].'.'.'.'.'.'.:.i r x E 6 }.'.'.'.'.'.'.'.'.'.'.'.'.            ",
"            |.1.) _ $.f |.1.) _ $.f |.W X _ $.g |.W X _ $.g I & #._ $.f |.W X _ $.f             ",
"            1.% % k ,.'.1.% % k ,.'.W % % k ,.2.W % % k ,.2.> T % k ,.'.W % % k ,.'.            ",
"            . m n ,.,.'.. m n ,.,.'.L y n ,.,.'.L y n ,.,.'.L y n ,.,.'.L y n ,.,.'.            ",
"            _ {.,.,.,.'._ {.,.,.,.'._ {.,.,.,.'._ {.,.,.,.'._ {.,.,.,.'._ {.,.,.,.'.            ",
"            $.,.,.,.,.'.$.,.,.,.,.'.$.,.,.,.,.'.$.,.,.,.,.'.$.,.,.,.,.'.$.,.,.,.,.'.            ",
"            '.'.'.'.'.'.'.'.'.'.'.'.'.'.'.'.'.'.'.'.'.'.'.'.'.'.'.'.'.'.'.'.'.'.'.'.            ",
"                                                                                                ",
"                                                                                                ",
"                                                                                                ",
"                                                                                                ",
"                                                                                                ",
"                                                                                                "};
