/* XPM */
static const char * rdb_disconn_48_xpm[] = {
"48 48 396 2",
"  	c None",
". 	c #585C56",
"+ 	c #5E5F5B",
"@ 	c #5E605D",
"# 	c #5D605B",
"$ 	c #5F615D",
"% 	c #656762",
"& 	c #646763",
"* 	c #5D5F5C",
"= 	c #5C5E5B",
"- 	c #5D5E5A",
"; 	c #5B5D58",
"> 	c #565854",
", 	c #676965",
"' 	c #90928D",
") 	c #ABADA7",
"! 	c #B1B4AE",
"~ 	c #B4B7B0",
"{ 	c #B8BBB4",
"] 	c #B9BCB5",
"^ 	c #B7BAB3",
"/ 	c #B3B6AF",
"( 	c #AFB2AB",
"_ 	c #A5A8A1",
": 	c #868883",
"< 	c #626560",
"[ 	c #5A5B58",
"} 	c #636761",
"| 	c #A2A59E",
"1 	c #9B9D97",
"2 	c #939690",
"3 	c #8F918C",
"4 	c #8B8D88",
"5 	c #888A85",
"6 	c #8C8E89",
"7 	c #949691",
"8 	c #9C9F99",
"9 	c #ABAEA7",
"0 	c #B1B4AD",
"a 	c #979A94",
"b 	c #5C5E59",
"c 	c #8F928C",
"d 	c #A4A7A1",
"e 	c #91938E",
"f 	c #898B86",
"g 	c #939590",
"h 	c #A7AAA3",
"i 	c #B5B8B1",
"j 	c #848680",
"k 	c #585A56",
"l 	c #5B5C58",
"m 	c #AEB0AA",
"n 	c #92948F",
"o 	c #B0B3AC",
"p 	c #9FA29C",
"q 	c #585A55",
"r 	c #B7B9B3",
"s 	c #787975",
"t 	c #B7BAB4",
"u 	c #A5A8A2",
"v 	c #AFB2AC",
"w 	c #A8AAA5",
"x 	c #595A56",
"y 	c #5D5F5B",
"z 	c #AEB0AB",
"A 	c #D1D2CF",
"B 	c #D8D9D6",
"C 	c #959793",
"D 	c #595B57",
"E 	c #EBEBE9",
"F 	c #CDCECC",
"G 	c #959692",
"H 	c #D6D6D4",
"I 	c #D4D5D2",
"J 	c #838581",
"K 	c #979994",
"L 	c #C5C8C2",
"M 	c #EDEEEC",
"N 	c #F8F8F8",
"O 	c #BBBCB9",
"P 	c #C1C2C0",
"Q 	c #F5F6F5",
"R 	c #C7C8C5",
"S 	c #CBCEC7",
"T 	c #E5E7E3",
"U 	c #F4F4F3",
"V 	c #FBFCFB",
"W 	c #EBEBEA",
"X 	c #C7C8C6",
"Y 	c #A6A7A4",
"Z 	c #969793",
"` 	c #AAABA7",
" .	c #CBCCC9",
"..	c #EBECEB",
"+.	c #D9DAD8",
"@.	c #A2A5A0",
"#.	c #949690",
"$.	c #838681",
"%.	c #989A94",
"&.	c #C2C6BE",
"*.	c #CDD1CA",
"=.	c #E3E5E1",
"-.	c #ECEDEA",
";.	c #F1F2F0",
">.	c #F4F5F4",
",.	c #F9F9F8",
"'.	c #FDFDFD",
").	c #FAFAFA",
"!.	c #F2F2F1",
"~.	c #E9E9E8",
"{.	c #EAEAE9",
"].	c #F2F3F2",
"^.	c #FBFBFB",
"/.	c #FCFCFC",
"(.	c #F5F5F5",
"_.	c #E6E7E5",
":.	c #D0D1CE",
"<.	c #B6B8B3",
"[.	c #A0A29D",
"}.	c #9B9E98",
"|.	c #999B95",
"1.	c #B9BCB6",
"2.	c #CCD0C9",
"3.	c #E4E6E2",
"4.	c #E6E8E4",
"5.	c #E7E9E5",
"6.	c #E3E5E0",
"7.	c #DBDED7",
"8.	c #D6DAD3",
"9.	c #D4D8D1",
"0.	c #D1D5D0",
"a.	c #CFD2CC",
"b.	c #CBCDC8",
"c.	c #C2C4BF",
"d.	c #B8BCB6",
"e.	c #B2B5AE",
"f.	c #AEB1AA",
"g.	c #AAADA7",
"h.	c #A6A9A3",
"i.	c #A3A59F",
"j.	c #9FA19C",
"k.	c #91928D",
"l.	c #9A9B95",
"m.	c #BABCB6",
"n.	c #CCCFC8",
"o.	c #DDE0DA",
"p.	c #D0D4CC",
"q.	c #CCD0C8",
"r.	c #C8CCC4",
"s.	c #C4C8C1",
"t.	c #C1C4BD",
"u.	c #BDC0B9",
"v.	c #B5B9B2",
"w.	c #868983",
"x.	c #636561",
"y.	c #656763",
"z.	c #9B9D98",
"A.	c #BABDB6",
"B.	c #E1E2DE",
"C.	c #E2E4E0",
"D.	c #E3E6E1",
"E.	c #DCDFD9",
"F.	c #8A8C86",
"G.	c #71736D",
"H.	c #717470",
"I.	c #9EA19B",
"J.	c #C9CDC6",
"K.	c #DEE0DC",
"L.	c #DFE2DD",
"M.	c #E1E3DF",
"N.	c #DBDED8",
"O.	c #8C8F8A",
"P.	c #7D807B",
"Q.	c #80827C",
"R.	c #A1A49E",
"S.	c #BABDB7",
"T.	c #C8CCC5",
"U.	c #DBDDD9",
"V.	c #DDDFDA",
"W.	c #DFE1DC",
"X.	c #E1E3DE",
"Y.	c #DADED7",
"Z.	c #888A86",
"`.	c #8C8E88",
" +	c #BBBDB7",
".+	c #C8CBC4",
"++	c #D9DBD6",
"@+	c #DADDD7",
"#+	c #DCDFDA",
"$+	c #DEE1DC",
"%+	c #D9DDD6",
"&+	c #BBBEB7",
"*+	c #C7CBC3",
"=+	c #D6D8D3",
"-+	c #D8DBD5",
";+	c #D9DCD5",
">+	c #C6CAC2",
",+	c #D4D6D0",
"'+	c #D5D8D2",
")+	c #D8DBD4",
"!+	c #A6A8A2",
"~+	c #BBBEB8",
"{+	c #D1D3CD",
"]+	c #D3D6CF",
"^+	c #D5D9D2",
"/+	c #D7DAD3",
"(+	c #BCBEB7",
"_+	c #C5C9C1",
":+	c #CED1CB",
"<+	c #D0D4CD",
"[+	c #D6D9D2",
"}+	c #BCBFB8",
"|+	c #CCCEC8",
"1+	c #CED1CA",
"2+	c #D3D7D0",
"3+	c #D5D8D1",
"4+	c #C9CCC5",
"5+	c #CBCFC7",
"6+	c #CED2CA",
"7+	c #D1D5CD",
"8+	c #D4D7D0",
"9+	c #91948E",
"0+	c #A8ABA4",
"a+	c #CACEC6",
"b+	c #CDD1C9",
"c+	c #D3D7CF",
"d+	c #BDBFB8",
"e+	c #A9ACA5",
"f+	c #BCBFB9",
"g+	c #AAA9A3",
"h+	c #A5736F",
"i+	c #A3625E",
"j+	c #A15F5C",
"k+	c #9F5E5A",
"l+	c #9C5B58",
"m+	c #9B5955",
"n+	c #995754",
"o+	c #985653",
"p+	c #954845",
"q+	c #A9ACA6",
"r+	c #BCC0B9",
"s+	c #ADA69F",
"t+	c #A91716",
"u+	c #C43838",
"v+	c #CE4343",
"w+	c #C93B3B",
"x+	c #AE1111",
"y+	c #8C8D89",
"z+	c #AA6460",
"A+	c #C73C3C",
"B+	c #D63333",
"C+	c #CF1010",
"D+	c #D01515",
"E+	c #D21E1E",
"F+	c #D75050",
"G+	c #A70000",
"H+	c #9C9E98",
"I+	c #B6B9B2",
"J+	c #AA4B48",
"K+	c #D24C4C",
"L+	c #CE0A0A",
"M+	c #E37474",
"N+	c #FDF5F5",
"O+	c #E68181",
"P+	c #CC0000",
"Q+	c #DA4747",
"R+	c #FCF0F0",
"S+	c #F1BABA",
"T+	c #CC0101",
"U+	c #DC5353",
"V+	c #8A8C87",
"W+	c #C1C5BD",
"X+	c #D24D4D",
"Y+	c #EDA3A3",
"Z+	c #FFFFFF",
"`+	c #E78686",
" @	c #FDF7F7",
".@	c #F9E0E0",
"+@	c #8B8C87",
"@@	c #9A9C96",
"#@	c #B9BDB5",
"$@	c #C0C2BC",
"%@	c #C6CBC3",
"&@	c #CDD0C9",
"*@	c #F6D2D2",
"=@	c #DA4646",
"-@	c #FDF3F3",
";@	c #D83C3C",
">@	c #A8ABA5",
",@	c #B8BCB5",
"'@	c #C3C6BF",
")@	c #C8CCC3",
"!@	c #CDD2CA",
"~@	c #CACEC7",
"{@	c #B5B8B2",
"]@	c #B1B5AD",
"^@	c #E78585",
"/@	c #DA4545",
"(@	c #8D8F89",
"_@	c #8D8F8A",
":@	c #BEC1BA",
"<@	c #BFC3BB",
"[@	c #BEC2BB",
"}@	c #B6B8B2",
"|@	c #B0B4AD",
"1@	c #AAAEA7",
"2@	c #A64744",
"3@	c #FEFBFB",
"4@	c #8E918B",
"5@	c #8F908B",
"6@	c #888985",
"7@	c #8A8C88",
"8@	c #9D3433",
"9@	c #F8DEDE",
"0@	c #FEF9F9",
"a@	c #484848",
"b@	c #5D5D5D",
"c@	c #616261",
"d@	c #6D6D6D",
"e@	c #747474",
"f@	c #4A4A4A",
"g@	c #DA4444",
"h@	c #E68282",
"i@	c #494949",
"j@	c #909090",
"k@	c #848484",
"l@	c #7A7A7A",
"m@	c #9D0808",
"n@	c #D94343",
"o@	c #FDF6F6",
"p@	c #FDF4F4",
"q@	c #F8DDDD",
"r@	c #4C4C4C",
"s@	c #555555",
"t@	c #575757",
"u@	c #8F8F8F",
"v@	c #808080",
"w@	c #862222",
"x@	c #D94242",
"y@	c #4B4B4B",
"z@	c #4D4D4D",
"A@	c #9D9D9D",
"B@	c #B7B7B7",
"C@	c #C9C9C9",
"D@	c #CFCFCF",
"E@	c #B35353",
"F@	c #D83B3B",
"G@	c #E57D7D",
"H@	c #989898",
"I@	c #939393",
"J@	c #8B8B8B",
"K@	c #888888",
"L@	c #5B5B5B",
"M@	c #979797",
"N@	c #A2A2A2",
"O@	c #A8A8A8",
"P@	c #ABABAB",
"Q@	c #A74646",
"R@	c #EEAAAA",
"S@	c #C2C2C2",
"T@	c #BBBBBB",
"U@	c #B3B3B3",
"V@	c #A6A6A6",
"W@	c #5C5C5C",
"X@	c #646464",
"Y@	c #676767",
"Z@	c #8C2C2C",
"`@	c #D24A4A",
" #	c #CF0E0E",
".#	c #EDA5A5",
"+#	c #D73939",
"@#	c #EA9494",
"##	c #E26D6D",
"$#	c #DC5656",
"%#	c #515151",
"&#	c #535353",
"*#	c #545454",
"=#	c #565656",
"-#	c #6E6E6E",
";#	c #757575",
">#	c #835252",
",#	c #B82C2C",
"'#	c #DC4E4E",
")#	c #D63030",
"!#	c #D93F3F",
"~#	c #CF4343",
"{#	c #A60000",
"]#	c #4E4E4E",
"^#	c #4F4D4D",
"/#	c #8B1717",
"(#	c #AC1515",
"_#	c #B62626",
":#	c #B82525",
"<#	c #B72626",
"[#	c #B31C1C",
"}#	c #A80101",
"                                                                                                ",
"                                                                                                ",
"                                    . + @ # $ % & * = - ; >                                     ",
"                              + , ' ) ! ~ { ] ^ ^ ] ^ / ( _ : < [                               ",
"                          } | ~ ^ ) 1 2 3 4 5 5 5 5 6 ' 7 8 9 ^ 0 a @                           ",
"                      b c ^ d e 5 5 5 5 5 5 5 5 5 5 5 5 5 5 5 f g h i j k                       ",
"                    l m m 3 5 5 5 5 5 5 5 5 5 5 5 5 5 5 5 5 5 5 5 5 n o p q                     ",
"                    f ~ f 5 5 5 5 5 5 5 5 5 5 5 5 5 5 5 5 5 5 5 5 5 5 4 r s                     ",
"                  - t u 5 5 5 5 5 5 5 5 5 5 5 5 5 5 5 5 5 5 5 5 5 5 5 5 v w x                   ",
"                  y z A 5 5 5 5 5 5 5 5 5 5 5 5 5 5 5 5 5 5 5 5 5 5 5 4 B C D                   ",
"                  y a E F ' 5 5 5 5 5 5 5 5 5 5 5 5 5 5 5 5 5 5 5 5 G H I J D                   ",
"                  y K L M N O ' 5 5 5 5 5 5 5 5 5 5 5 5 5 5 5 5 g P Q R 7 J D                   ",
"                  y a ] S T U V W X Y 7 4 5 5 5 5 5 5 6 Z `  ...N +.@.#.e $.D                   ",
"                  y %.] &.*.=.T -.;.>.,.'.).!.~.{.].^./.(._.:.<.[.}.a #.e J D                   ",
"                  y |.1.&.2.=.3.4.5.6.7.8.9.0.a.b.c.d.e.f.g.h.i.j.}.a #.k.J D                   ",
"                  y l.m.&.n.=.3.4.5.o.p.q.r.s.t.u.1.v.e.f.g.h.i.j.}.a #.e w.x.                  ",
"                  y.z.A.&.S B.C.D.T E.p.q.r.s.t.u.1.v.e.f.g.h.i.j.}.a #.e F.G.                  ",
"                  H.I.A.&.J.K.L.M.=.N.p.q.r.s.t.u.1.v.e.f.g.h.i.j.}.a #.e O.P.                  ",
"                  Q.R.S.&.T.U.V.W.X.Y.p.q.r.s.t.u.1.v.e.f.g.h.i.j.}.a #.e 3 Z.                  ",
"                  `.d  +&..+++@+#+$+%+p.q.r.s.t.u.1.v.e.f.g.h.i.j.}.a #.e 3 Z.                  ",
"                  `._ &+&.*+=+-+@+E.;+p.q.r.s.t.u.1.v.e.f.g.h.i.j.}.a #.e 3 Z.                  ",
"                  `.u &+&.>+,+'+)+@+)+p.q.r.s.t.u.1.v.e.f.g.h.i.j.}.a #.e 3 Z.                  ",
"                  `.!+~+&.>+{+]+^+)+/+p.q.r.s.t.u.1.v.e.f.g.h.i.j.}.a #.e 3 Z.                  ",
"                  `.h.(+&._+:+<+]+[+[+p.q.r.s.t.u.1.v.e.f.g.h.i.j.}.a #.e 3 Z.                  ",
"                  `.h.}+&._+|+1+<+2+3+p.q.r.s.t.u.1.v.e.f.g.h.i.j.}.a #.e 3 Z.                  ",
"                  `.h }+&._+4+5+6+7+8+p.q.r.s.t.u.1.v.e.f.g.h.i.j.}.a #.9+3 Z.                  ",
"                  `.0+}+&._+.+a+b+p.c+p.q.r.s.t.u.1.v.e.f.g.h.i.j.}.a #.e 3 Z.                  ",
"                  `.0+d+&._+.+a+b+p.c+p.q.r.s.t.u.1.v.e.f.g.h.i.j.}.a #.e 3 Z.                  ",
"                  `.e+f+&._+.+a+b+p.c+p.q.r.s.t.u.1.v.e.f.g.h.i.j.}.a #.e 3 Z.                  ",
"                  `.e+u.&._+.+a+b+p.c+p.q.r.s.t.u.1.v.e.f.g+h+i+j+k+l+m+n+o+p+                  ",
"                  `.q+r+&._+.+a+b+p.c+p.q.r.s.t.u.1.v.e.s+t+u+v+v+v+v+v+v+v+v+v+v+v+v+w+x+      ",
"                  y+e+] &._+.+a+b+p.c+p.q.r.s.t.u.1.v.e.z+A+B+C+D+C+C+C+C+C+C+C+C+C+C+E+F+G+    ",
"                    H+I+t._+.+a+b+p.c+p.q.r.s.t.u.1.v.e.J+K+L+M+N+O+P+P+P+P+P+P+Q+R+S+T+U+G+    ",
"                    V+g.] W+.+a+b+p.c+p.q.r.s.t.u.1.v.e.J+X+L+Y+Z+Z+`+P+P+P+P+Q+ @Z+.@P+U+G+    ",
"                      +@@@#@$@%@&@p.c+p.q.r.s.t.u.1.v.e.J+X+L+D+*@Z+Z+`+P+P+=@ @Z+-@;@P+U+G+    ",
"                        F.`.>@,@'@)@!@b+~@*+s.t.u.1.{@]@J+X+L+P+D+*@Z+Z+^@/@ @Z+-@;@P+P+U+G+    ",
"                            V+(@_@@.I+}+:@<@[@}+] }@|@1@2@X+L+P+P+D+*@Z+Z+3@Z+-@;@P+P+P+U+G+    ",
"                                    4@5@6 Z.f 6 4 5 6@7@8@X+L+P+P+P+D+9@Z+Z+0@;@P+P+P+P+U+G+    ",
"                                          a@b@c@d@e@f@  G+X+L+P+P+P+g@ @Z+Z+Z+h@P+P+P+P+U+G+    ",
"                                          i@j@k@l@l@f@  m@X+L+P+P+n@o@Z+p@q@Z+Z+O+P+P+P+U+G+    ",
"                                    r@s@s@t@u@v@l@l@b@s@w@X+L+P+x@o@Z+-@;@D+*@Z+Z+O+P+P+U+G+    ",
"                        i@i@f@f@y@z@A@B@C@D@D@D@D@D@D@D@E@X+L+F@o@Z+-@;@P+P+D+*@Z+Z+G@P+U+G+    ",
"                        H@I@u@J@K@L@M@N@O@P@P@P@P@P@P@P@Q@X+L+R@Z+-@;@P+P+P+P+D+*@Z+N+P+U+G+    ",
"                        S@T@U@P@V@W@X@Y@Y@Y@Y@Y@Y@Y@Y@Y@Z@`@ #F@.#+#P+P+P+P+P+P+D+@###P+$#G+    ",
"                        %#&#*#*#=#r@-#;#;#;#;#;#;#;#;#;#>#,#'#)#)#)#)#)#)#)#)#)#)#)#)#!#~#{#    ",
"                                    f@]#]#]#]#]#]#]#]#]#^#/#(#_#_#_#_#_#_#:#<#<#<#<#<#[#}#      ",
"                                                                                                ",
"                                                                                                "};
