/* XPM */
static const char * rdb_conn_16_xpm[] = {
"16 16 73 1",
" 	c None",
".	c #989A96",
"+	c #9EA09A",
"@	c #A0A29C",
"#	c #9DA09A",
"$	c #9C9F99",
"%	c #9A9D97",
"&	c #989A94",
"*	c #8F918B",
"=	c #999C96",
"-	c #8D908A",
";	c #888A85",
">	c #8D8F8A",
",	c #91928E",
"'	c #A9AAA6",
")	c #B4B5B1",
"!	c #8A8C87",
"~	c #AAABA7",
"{	c #969893",
"]	c #8F928C",
"^	c #D7D9D4",
"/	c #E5E6E4",
"(	c #D9DBD7",
"_	c #C7C9C5",
":	c #C1C3BF",
"<	c #C2C4C0",
"[	c #BFC0BC",
"}	c #9FA29C",
"|	c #797B75",
"1	c #949690",
"2	c #D0D3CC",
"3	c #E3E6E1",
"4	c #D3D7D0",
"5	c #C4C8C1",
"6	c #B9BCB6",
"7	c #AEB1AA",
"8	c #A3A59F",
"9	c #979A94",
"0	c #838380",
"a	c #A2A59E",
"b	c #CCCFC8",
"c	c #DCDFDA",
"d	c #D2D6CF",
"e	c #8D8E89",
"f	c #A4A69F",
"g	c #C8CCC5",
"h	c #D5D9D2",
"i	c #D1D5CD",
"j	c #8C8D8A",
"k	c #A4A7A0",
"l	c #C5C9C1",
"m	c #CED2CA",
"n	c #D0D4CC",
"o	c #A4A8A1",
"p	c #CDD1C9",
"q	c #8C8F8A",
"r	c #AFB2AB",
"s	c #AEB1A9",
"t	c #A2A49D",
"u	c #949791",
"v	c #929491",
"w	c #8D908C",
"x	c #969A93",
"y	c #6E6E6E",
"z	c #949494",
"A	c #898989",
"B	c #717171",
"C	c #8F8F8F",
"D	c #757575",
"E	c #676767",
"F	c #666666",
"G	c #7D7D7D",
"H	c #8E8E8E",
"                ",
"    .+@#$%&*    ",
"   =-;;;;;;>,   ",
"   ')!;;;;!~{   ",
"   ]^/(_:<[}|   ",
"   1234567890   ",
"   abcd56789e   ",
"   fghi56789j   ",
"   klmn56789j   ",
"   olpn56789j   ",
"   klpn56789q   ",
"    rlp56stu    ",
"      8vwx      ",
"      yzAB      ",
"    CDEyyFGH    ",
"                "};
