/* XPM */
static const char * rdb_disconn_16_xpm[] = {
"16 16 97 2",
"  	c None",
". 	c #989A96",
"+ 	c #9EA09A",
"@ 	c #A0A29C",
"# 	c #9DA09A",
"$ 	c #9C9F99",
"% 	c #9A9D97",
"& 	c #989A94",
"* 	c #8F918B",
"= 	c #999C96",
"- 	c #8D908A",
"; 	c #888A85",
"> 	c #8D8F8A",
", 	c #91928E",
"' 	c #A9AAA6",
") 	c #B4B5B1",
"! 	c #8A8C87",
"~ 	c #AAABA7",
"{ 	c #969893",
"] 	c #8F928C",
"^ 	c #D7D9D4",
"/ 	c #E5E6E4",
"( 	c #D9DBD7",
"_ 	c #C7C9C5",
": 	c #C1C3BF",
"< 	c #C2C4C0",
"[ 	c #BFC0BC",
"} 	c #9FA29C",
"| 	c #797B75",
"1 	c #949690",
"2 	c #D0D3CC",
"3 	c #E3E6E1",
"4 	c #D3D7D0",
"5 	c #C4C8C1",
"6 	c #B9BCB6",
"7 	c #AEB1AA",
"8 	c #A3A59F",
"9 	c #979A94",
"0 	c #838380",
"a 	c #A2A59E",
"b 	c #CCCFC8",
"c 	c #DCDFDA",
"d 	c #D2D6CF",
"e 	c #8D8E89",
"f 	c #A4A69F",
"g 	c #C8CCC5",
"h 	c #D5D9D2",
"i 	c #D1D5CD",
"j 	c #8C8D8A",
"k 	c #A4A7A0",
"l 	c #C5C9C1",
"m 	c #CED2CA",
"n 	c #D0D4CC",
"o 	c #A4A8A1",
"p 	c #CDD1C9",
"q 	c #A3948E",
"r 	c #998781",
"s 	c #8F7877",
"t 	c #B56E6C",
"u 	c #CC2524",
"v 	c #CF2424",
"w 	c #CD1A1A",
"x 	c #D02828",
"y 	c #CB2727",
"z 	c #AFB2AB",
"A 	c #BB615D",
"B 	c #D83838",
"C 	c #F3C3C3",
"D 	c #D73737",
"E 	c #F6D1D1",
"F 	c #D42A2A",
"G 	c #929491",
"H 	c #8D908C",
"I 	c #B84945",
"J 	c #CD0303",
"K 	c #E26D6D",
"L 	c #FDF4F4",
"M 	c #D73535",
"N 	c #D21D1D",
"O 	c #6E6E6E",
"P 	c #949494",
"Q 	c #898989",
"R 	c #A64343",
"S 	c #D52929",
"T 	c #F5CFCF",
"U 	c #E16D6D",
"V 	c #F3C4C4",
"W 	c #D42727",
"X 	c #8F8F8F",
"Y 	c #757575",
"Z 	c #676767",
"` 	c #964040",
" .	c #D42929",
"..	c #D73434",
"+.	c #CF1010",
"@.	c #DA4343",
"#.	c #B02121",
"                                ",
"        . + @ # $ % & *         ",
"      = - ; ; ; ; ; ; > ,       ",
"      ' ) ! ; ; ; ; ! ~ {       ",
"      ] ^ / ( _ : < [ } |       ",
"      1 2 3 4 5 6 7 8 9 0       ",
"      a b c d 5 6 7 8 9 e       ",
"      f g h i 5 6 7 8 9 j       ",
"      k l m n 5 6 7 8 9 j       ",
"      o l p n 5 6 7 q r s       ",
"      k l p n 5 6 t u v w x y   ",
"        z l p 5 6 A B C D E F   ",
"            8 G H I J K L M N   ",
"            O P Q R S T U V W   ",
"        X Y Z O O `  ...+.@.x   ",
"                      #.        "};
