/* XPM */
static const char * remoteserverauth_48_xpm[] = {
"48 48 197 2",
"  	c None",
". 	c #B4B2B4",
"+ 	c #A4A2A4",
"@ 	c #9C9A9C",
"# 	c #9C9E9C",
"$ 	c #949294",
"% 	c #949694",
"& 	c #8C8A8C",
"* 	c #D4D2D4",
"= 	c #C4C2C4",
"- 	c #ECF2EC",
"; 	c #F4F2EC",
"> 	c #ECEEEC",
", 	c #ECEAEC",
"' 	c #ECEAE4",
") 	c #CCCACC",
"! 	c #DCDADC",
"~ 	c #E5E9E5",
"{ 	c #5D5BD1",
"] 	c #4B4ED5",
"^ 	c #5754CA",
"/ 	c #4D56CB",
"( 	c #5451D3",
"_ 	c #4D50CB",
": 	c #C8CAD2",
"< 	c #D4D6D4",
"[ 	c #E4E6DC",
"} 	c #DCDEDC",
"| 	c #E7EADC",
"1 	c #5356D3",
"2 	c #8C88D0",
"3 	c #8184D1",
"4 	c #807ED2",
"5 	c #7A7ECA",
"6 	c #7674D4",
"7 	c #7977CB",
"8 	c #7072CC",
"9 	c #3D41CD",
"0 	c #A4A7D2",
"a 	c #B4BAB4",
"b 	c #E4E2DC",
"c 	c #BCBEBC",
"d 	c #E4E2E4",
"e 	c #7779D3",
"f 	c #706DCD",
"g 	c #9396CD",
"h 	c #CCCECC",
"i 	c #BCBEC4",
"j 	c #BCBABC",
"k 	c #E4E6E4",
"l 	c #DEE6DE",
"m 	c #6669CE",
"n 	c #BCC2BC",
"o 	c #C4C6C4",
"p 	c #B4B2AC",
"q 	c #D8D6D8",
"r 	c #6663CF",
"s 	c #5F61C7",
"t 	c #3E3ACE",
"u 	c #BCBEB4",
"v 	c #DCDED4",
"w 	c #B4B6B4",
"x 	c #A4A6A4",
"y 	c #C5C8DD",
"z 	c #5759C9",
"A 	c #302DCD",
"B 	c #181CD4",
"C 	c #CCD2CC",
"D 	c #D4DAD4",
"E 	c #ACAEAC",
"F 	c #B5BED7",
"G 	c #C0C0C0",
"H 	c #AEAEAE",
"I 	c #848781",
"J 	c #2420D2",
"K 	c #C4C2BC",
"L 	c #D4D2CC",
"M 	c #ABAED9",
"N 	c #4D49CD",
"O 	c #5E61D0",
"P 	c #AFB3B5",
"Q 	c #A5ABAF",
"R 	c #2428D0",
"S 	c #C4C6BC",
"T 	c #9A9DD4",
"U 	c #ACB3BD",
"V 	c #2D29D7",
"W 	c #9DA09B",
"X 	c #3E42D2",
"Y 	c #9B9F99",
"Z 	c #A9ABA7",
"` 	c #302CDC",
" .	c #848684",
"..	c #3E3AD4",
"+.	c #2D31D5",
"@.	c #9DA6AE",
"#.	c #3034DA",
"$.	c #A8A38A",
"%.	c #A8A897",
"&.	c #7C7E7C",
"*.	c #DECD63",
"=.	c #DAC85F",
"-.	c #D5C35B",
";.	c #D0BE57",
">.	c #CBB953",
",.	c #C6B44F",
"'.	c #C1AF4B",
").	c #BCAA47",
"!.	c #747674",
"~.	c #3038DA",
"{.	c #FDF3A1",
"].	c #FDEA3D",
"^.	c #F6E22D",
"/.	c #EFDB1E",
"(.	c #E8D30E",
"_.	c #E1CC0A",
":.	c #B7A442",
"<.	c #2025E2",
"[.	c #DCDAD4",
"}.	c #6C6E6C",
"|.	c #ACAAAC",
"1.	c #4C49D5",
"2.	c #4145D7",
"3.	c #423ED8",
"4.	c #D5C45D",
"5.	c #FEF39C",
"6.	c #E1CB05",
"7.	c #B2A03E",
"8.	c #6C6A6C",
"9.	c #CCBB57",
"0.	c #FDF39A",
"a.	c #AE9C3A",
"b.	c #CCCAC4",
"c.	c #CCCEC4",
"d.	c #646664",
"e.	c #4945DF",
"f.	c #3E49D2",
"g.	c #C4B251",
"h.	c #F9EF9B",
"i.	c #FDEC50",
"j.	c #F7E43F",
"k.	c #F0DE2E",
"l.	c #EAD61E",
"m.	c #E3D01D",
"n.	c #A99836",
"o.	c #DCE2DC",
"p.	c #484CDE",
"q.	c #BBA94B",
"r.	c #B9A748",
"s.	c #B6A445",
"t.	c #B3A242",
"u.	c #B09F3F",
"v.	c #AE9C3C",
"w.	c #AB9A39",
"x.	c #A89736",
"y.	c #3236DE",
"z.	c #B4B6C4",
"A.	c #747274",
"B.	c #332FDF",
"C.	c #140FEB",
"D.	c #ACAEC4",
"E.	c #7C7A7C",
"F.	c #D4D6CC",
"G.	c #A4AAA4",
"H.	c #C4CAC4",
"I.	c #84827C",
"J.	c #BCBAB4",
"K.	c #B4B6AC",
"L.	c #5C5E5C",
"M.	c #848A84",
"N.	c #848284",
"O.	c #646264",
"P.	c #64625C",
"Q.	c #5C625C",
"R.	c #5C5A5C",
"S.	c #545254",
"T.	c #545654",
"U.	c #646A64",
"V.	c #6C726C",
"W.	c #747A74",
"X.	c #94928C",
"Y.	c #8C928C",
"Z.	c #7C827C",
"`.	c #5C5A54",
" +	c #8C8E8C",
".+	c #9CA29C",
"++	c #ACB2AC",
"@+	c #ACB6AC",
"#+	c #949A94",
"$+	c #C4C6CC",
"%+	c #545A54",
"&+	c #A4A29C",
"*+	c #ACAAA4",
"=+	c #74726C",
"-+	c #E4EAE4",
";+	c #ACAEA4",
">+	c #DCE2D4",
"                                                                                                ",
"                                                                                                ",
"                                                                                                ",
"                                                                                                ",
"                                                                                                ",
"                                                                                                ",
"                  . + @ + # + + @ + @ @ @ @ @ @ $ % $ $ $ $ & $ & & .                           ",
"                * = - ; > ; > ; > > ; > ; > > > > > > > , > , ' > > @ ,                         ",
"                ) ! ~ { ] ] ^ ] / ( _ ] _ ] ^ _ ^ _ ^ _ _ _ _ : < [ . !                         ",
"                = } | 1 2 3 3 4 4 4 4 4 4 5 6 5 6 7 6 7 8 8 9 0 a b a *                         ",
"                c d | ( e 4 e 5 e 7 7 8 7 8 7 8 8 f f f f f 9 g h b i )                         ",
"                j k l / 7 7 7 7 8 8 8 8 8 8 f f f m m m m m 9 4 n } o c                         ",
"                p , q ] 7 8 8 f 8 f f f f m f m m m m m r s t m u v ) w                         ",
"                x > y _ f f f f m f m m r m r r r r z t A B B { C D h E                         ",
"                + > F _ m m m m r r r r r s r s _ G H I G J J / K L L +                         ",
"                + > M N r r r r O O O s O { { t G H P Q I G R N S C < %                         ",
"                @ > T N r O O O O s { { { ^ R R H U V R W I V X C L D $                         ",
"                @ > 2 ] { O { { { { 1 { 9 V V V H Y V V Z Y ` X C L !  .                        ",
"                @ > 8 ] { 1 { z 1 1 ^ ..V +.` +.@.Y ` #.$.%.+...C C v &.                        ",
"                + > m ( 1 1 1 ( ( _ ..#.#.#.#.*.=.-.;.>.,.'.).#.C L } !.                        ",
"                + ' 1 ( ( ( ( ( X ..#...~.....*.{.].^./.(._.:.<.C C [.}.                        ",
"                |.k / ( ] ] 1.2.3.3.3.3.3.2.3.4.5.].^./.(.6.7.` h C v 8.                        ",
"              d . k ] 1.1.2.2.2.X 2.2.2.1.2.2.9.0.].^./.(.6.a.<.b.c.} d.                        ",
"              } w [ 1.2.2.1.2.1.e.1.1.f.e.e.1.g.h.i.j.k.l.m.n.<.i C } 8.                        ",
"              * j o.2.1.e.e.e.e.e.e.e.e.p.p.p.q.r.s.t.u.v.w.x.y.z.h D A.                        ",
"              h K } #.B.<.<.B.<.` <.B.<.B.B.<.B.B.B.B.B.B.B.<.C.D.c.D E.k                       ",
"              = = v < F.D F.F.< C F.C F.c G.K C c.C c.C c.C h h c.H.< I.!                       ",
"              = c [.c u u c a n u a c a u a J.a a a a K.a w K.a w K.< E.<                       ",
"              ,  .h * C * C L h h h c.h H.b.o o o K = K K c c c J.c x L.                        ",
"                ! x @ $ M.N.}.O.L.P.Q.d.d.O.O.P.Q.R.S.T.S.R.d.}.!.E.@ k                         ",
"                        ) E T.d.!.U.!.&  .M. .M. .V.L.d.U.A. .% = k                             ",
"                      d ) j O.W.X.Y.&  .I.&.Z.I.N. . .I.d.A.# . |.E j ) ) d                     ",
"                      ! o . Y.`.W. +.+++a a K.@+G.#+M.}.L.N.#+|.c ) $+) b.j j )                 ",
"                  |.@ $ & I.E.A.O.`.%+L.L.Q.L.R.T.S.T.T.P.8.}.E.E. .&+      * = j ,             ",
"                |.$ p ++p ++++++++++p ++p E ++++++E ++++++++p E ++++N.|.        = )             ",
"                A.c # .+# + # + # + # # # + # &+&+# &+# + o.+ &+# + a 8.d     ) . }             ",
"              d I.E x |.x |.x |.x x |.x |.+ |.+ x |.+ |.x D .+|.x *+E =+$ @ + j                 ",
"              + w E E E E @ @ @ @ @ # @ # @ # # @ E E E p J.. E E E |.|.!.. * -+                ",
"              A.H.w j . E . w w w w w w w w . w . . w . . ++< E . . w H.d.h !                   ",
"            ! X.b.E ;+E w K.;+;+;+|.;+*+E ;+E ;+n ;+E |.E p v c a a K.< Z.L                     ",
"            + n v D D v D v D D v v } v v v v } >+o.v >+} >+o.>+o.>+o.o.c |.                    ",
"            E d.O.O.Q.L.L.L.L.Q.L.L.L.L.%+L.R.L.R.L.R.L.R.L.L.L.R.L.R.L.P.w                     ",
"                                                                                                ",
"                                                                                                ",
"                                                                                                ",
"                                                                                                ",
"                                                                                                ",
"                                                                                                "};
