/* XPM */
static const char * remoteserverauth_16_xpm[] = {
"16 16 86 1",
" 	c None",
".	c #82847F",
"+	c #C8C8C7",
"@	c #EDEDED",
"#	c #DADAD9",
"$	c #284CA6",
"%	c #F0F0F0",
"&	c #F3F3F3",
"*	c #6E84B6",
"=	c #6D84B7",
"-	c #7089BA",
";	c #7087BA",
">	c #6F87B9",
",	c #6F89B9",
"'	c #7088B8",
")	c #C0C0C0",
"!	c #AEAEAE",
"~	c #848781",
"{	c #EEEEEE",
"]	c #728ABC",
"^	c #738CBB",
"/	c #728CBC",
"(	c #AFB3B5",
"_	c #A5ABAF",
":	c #738EBF",
"<	c #748EBE",
"[	c #597AB7",
"}	c #486FB8",
"|	c #ACB3BD",
"1	c #3864B6",
"2	c #9DA09B",
"3	c #7592C1",
"4	c #5F80B7",
"5	c #3B6AB9",
"6	c #3B68BB",
"7	c #9B9F99",
"8	c #3D69B9",
"9	c #A9ABA7",
"0	c #3E6EBE",
"a	c #3D6EBF",
"b	c #9DA6AE",
"c	c #A8A38A",
"d	c #A8A897",
"e	c #DECD63",
"f	c #DAC85F",
"g	c #D5C35B",
"h	c #D0BE57",
"i	c #CBB953",
"j	c #C6B44F",
"k	c #C1AF4B",
"l	c #BCAA47",
"m	c #D6D6D6",
"n	c #FDF3A1",
"o	c #FDEA3D",
"p	c #F6E22D",
"q	c #EFDB1E",
"r	c #E8D30E",
"s	c #E1CC0A",
"t	c #B7A442",
"u	c #D5C45D",
"v	c #FEF39C",
"w	c #E1CB05",
"x	c #B2A03E",
"y	c #D1D1D1",
"z	c #ECECEC",
"A	c #EBEBEB",
"B	c #CCBB57",
"C	c #FDF39A",
"D	c #AE9C3A",
"E	c #D9D9D9",
"F	c #C4B251",
"G	c #F9EF9B",
"H	c #FDEC50",
"I	c #F7E43F",
"J	c #F0DE2E",
"K	c #EAD61E",
"L	c #E3D01D",
"M	c #A99836",
"N	c #BBA94B",
"O	c #B9A748",
"P	c #B6A445",
"Q	c #B3A242",
"R	c #B09F3F",
"S	c #AE9C3C",
"T	c #AB9A39",
"U	c #A89736",
"                ",
"  ............  ",
" .+@@@@@@@@@@#. ",
" .@$$$$$$$$$$%. ",
" .&$*=====*=$%. ",
" .%$-;>-,')!~). ",
" .{$]^/^/)!(_~) ",
" .{$::<[}!|1$2~ ",
" .{$34566!78$97 ",
" .@$00a00b70$cd ",
" .&$$$$$efghijkl",
" .m@@@@@enopqrst",
"  ......uvopqrwx",
" .&%yzAABCopqrwD",
".EEEEEEEFGHIJKLM",
" .......NOPQRSTU"};
