/* XPM */
static const char * remoteserver_48_xpm[] = {
"48 48 148 2",
"  	c None",
". 	c #B4B2B4",
"+ 	c #A4A2A4",
"@ 	c #9C9A9C",
"# 	c #9C9E9C",
"$ 	c #949294",
"% 	c #949694",
"& 	c #8C8A8C",
"* 	c #D4D2D4",
"= 	c #C4C2C4",
"- 	c #ECF2EC",
"; 	c #F4F2EC",
"> 	c #ECEEEC",
", 	c #ECEAEC",
"' 	c #ECEAE4",
") 	c #CCCACC",
"! 	c #DCDADC",
"~ 	c #E5E9E5",
"{ 	c #5D5BD1",
"] 	c #4B4ED5",
"^ 	c #5754CA",
"/ 	c #4D56CB",
"( 	c #5451D3",
"_ 	c #4D50CB",
": 	c #C8CAD2",
"< 	c #D4D6D4",
"[ 	c #E4E6DC",
"} 	c #DCDEDC",
"| 	c #E7EADC",
"1 	c #5356D3",
"2 	c #8C88D0",
"3 	c #8184D1",
"4 	c #807ED2",
"5 	c #7A7ECA",
"6 	c #7674D4",
"7 	c #7977CB",
"8 	c #7072CC",
"9 	c #3D41CD",
"0 	c #A4A7D2",
"a 	c #B4BAB4",
"b 	c #E4E2DC",
"c 	c #BCBEBC",
"d 	c #E4E2E4",
"e 	c #7779D3",
"f 	c #706DCD",
"g 	c #9396CD",
"h 	c #CCCECC",
"i 	c #BCBEC4",
"j 	c #BCBABC",
"k 	c #E4E6E4",
"l 	c #DEE6DE",
"m 	c #6669CE",
"n 	c #BCC2BC",
"o 	c #C4C6C4",
"p 	c #B4B2AC",
"q 	c #D8D6D8",
"r 	c #6663CF",
"s 	c #5F61C7",
"t 	c #3E3ACE",
"u 	c #BCBEB4",
"v 	c #DCDED4",
"w 	c #B4B6B4",
"x 	c #A4A6A4",
"y 	c #C5C8DD",
"z 	c #5759C9",
"A 	c #302DCD",
"B 	c #181CD4",
"C 	c #CCD2CC",
"D 	c #D4DAD4",
"E 	c #ACAEAC",
"F 	c #B5BED7",
"G 	c #2420D2",
"H 	c #C4C2BC",
"I 	c #D4D2CC",
"J 	c #ABAED9",
"K 	c #4D49CD",
"L 	c #5E61D0",
"M 	c #2428D0",
"N 	c #C4C6BC",
"O 	c #9A9DD4",
"P 	c #2D29D7",
"Q 	c #3E42D2",
"R 	c #2125DB",
"S 	c #302CDC",
"T 	c #848684",
"U 	c #3E3AD4",
"V 	c #2D31D5",
"W 	c #3034DA",
"X 	c #7C7E7C",
"Y 	c #3038DA",
"Z 	c #747674",
"` 	c #423ED8",
" .	c #2025E2",
"..	c #DCDAD4",
"+.	c #6C6E6C",
"@.	c #ACAAAC",
"#.	c #4C49D5",
"$.	c #4145D7",
"%.	c #3E49D2",
"&.	c #6C6A6C",
"*.	c #4945DF",
"=.	c #CCCAC4",
"-.	c #CCCEC4",
";.	c #646664",
">.	c #484CDE",
",.	c #DCE2DC",
"'.	c #3236DE",
").	c #B4B6C4",
"!.	c #747274",
"~.	c #332FDF",
"{.	c #140FEB",
"].	c #ACAEC4",
"^.	c #7C7A7C",
"/.	c #D4D6CC",
"(.	c #A4AAA4",
"_.	c #C4CAC4",
":.	c #84827C",
"<.	c #BCBAB4",
"[.	c #B4B6AC",
"}.	c #5C5E5C",
"|.	c #848A84",
"1.	c #848284",
"2.	c #646264",
"3.	c #64625C",
"4.	c #5C625C",
"5.	c #5C5A5C",
"6.	c #545254",
"7.	c #545654",
"8.	c #646A64",
"9.	c #6C726C",
"0.	c #747A74",
"a.	c #94928C",
"b.	c #8C928C",
"c.	c #7C827C",
"d.	c #5C5A54",
"e.	c #8C8E8C",
"f.	c #9CA29C",
"g.	c #ACB2AC",
"h.	c #ACB6AC",
"i.	c #949A94",
"j.	c #C4C6CC",
"k.	c #545A54",
"l.	c #A4A29C",
"m.	c #ACAAA4",
"n.	c #74726C",
"o.	c #E4EAE4",
"p.	c #ACAEA4",
"q.	c #DCE2D4",
"                                                                                                ",
"                                                                                                ",
"                                                                                                ",
"                                                                                                ",
"                                                                                                ",
"                                                                                                ",
"                  . + @ + # + + @ + @ @ @ @ @ @ $ % $ $ $ $ & $ & & .                           ",
"                * = - ; > ; > ; > > ; > ; > > > > > > > , > , ' > > @ ,                         ",
"                ) ! ~ { ] ] ^ ] / ( _ ] _ ] ^ _ ^ _ ^ _ _ _ _ : < [ . !                         ",
"                = } | 1 2 3 3 4 4 4 4 4 4 5 6 5 6 7 6 7 8 8 9 0 a b a *                         ",
"                c d | ( e 4 e 5 e 7 7 8 7 8 7 8 8 f f f f f 9 g h b i )                         ",
"                j k l / 7 7 7 7 8 8 8 8 8 8 f f f m m m m m 9 4 n } o c                         ",
"                p , q ] 7 8 8 f 8 f f f f m f m m m m m r s t m u v ) w                         ",
"                x > y _ f f f f m f m m r m r r r r z t A B B { C D h E                         ",
"                + > F _ m m m m r r r r r s r s _ A G G G G G / H I I +                         ",
"                + > J K r r r r L L L s L { { t M M M M M M M K N C < %                         ",
"                @ > O K r L L L L s { { { ^ M M P M P M P A P Q C I D $                         ",
"                @ > 2 ] { L { { { { 1 { 9 P P P P P P P P R S Q C I ! T                         ",
"                @ > 8 ] { 1 { z 1 1 ^ U P V S V S V S W W W V U C C v X                         ",
"                + > m ( 1 1 1 ( ( _ U W W W W W W Y U W U U U W C I } Z                         ",
"                + ' 1 ( ( ( ( ( Q U W U Y U U U U ` U ` U ` `  .C C ..+.                        ",
"                @.k / ( ] ] #.$.` ` ` ` ` $.` $.$.$.$.$.$.$.%.S h C v &.                        ",
"              d . k ] #.#.$.$.$.Q $.$.$.#.$.$.#.$.#.$.#.*.#.*. .=.-.} ;.                        ",
"              } w [ #.$.$.#.$.#.*.#.#.%.*.*.#.*.*.*.*.*.>.*.*. .i C } &.                        ",
"              * j ,.$.#.*.*.*.*.*.*.*.*.>.>.>.>.>.>.>.>.>.>.( '.).h D !.                        ",
"              h H } W ~. . .~. .S  .~. .~.~. .~.~.~.~.~.~.~. .{.].-.D ^.k                       ",
"              = = v < /.D /./.< C /.C /.c (.H C -.C -.C -.C h h -._.< :.!                       ",
"              = c ..c u u c a n u a c a u a <.a a a a [.a w [.a w [.< ^.<                       ",
"              , T h * C * C I h h h -.h _.=.o o o H = H H c c c <.c x }.                        ",
"                ! x @ $ |.1.+.2.}.3.4.;.;.2.2.3.4.5.6.7.6.5.;.+.Z ^.@ k                         ",
"                        ) E 7.;.Z 8.Z & T |.T |.T 9.}.;.8.!.T % = k                             ",
"                      d ) j 2.0.a.b.& T :.X c.:.1.T T :.;.!.# . @.E j ) ) d                     ",
"                      ! o . b.d.0.e.f.g.a a [.h.(.i.|.+.}.1.i.@.c ) j.) =.j j )                 ",
"                  @.@ $ & :.^.!.2.d.k.}.}.4.}.5.7.6.7.7.3.&.+.^.^.T l.      * = j ,             ",
"                @.$ p g.p g.g.g.g.g.p g.p E g.g.g.E g.g.g.g.p E g.g.1.@.        = )             ",
"                !.c # f.# + # + # + # # # + # l.l.# l.# + ,.+ l.# + a &.d     ) . }             ",
"              d :.E x @.x @.x @.x x @.x @.+ @.+ x @.+ @.x D f.@.x m.E n.$ @ + j                 ",
"              + w E E E E @ @ @ @ @ # @ # @ # # @ E E E p <.. E E E @.@.Z . * o.                ",
"              !._.w j . E . w w w w w w w w . w . . w . . g.< E . . w _.;.h !                   ",
"            ! a.=.E p.E w [.p.p.p.@.p.m.E p.E p.n p.E @.E p v c a a [.< c.I                     ",
"            + n v D D v D v D D v v } v v v v } q.,.v q.} q.,.q.,.q.,.,.c @.                    ",
"            E ;.2.2.4.}.}.}.}.4.}.}.}.}.k.}.5.}.5.}.5.}.5.}.}.}.5.}.5.}.3.w                     ",
"                                                                                                ",
"                                                                                                ",
"                                                                                                ",
"                                                                                                ",
"                                                                                                ",
"                                                                                                "};
