/* XPM */
static const char *remoteservers_48_xpm[] = {
/* width height num_colors chars_per_pixel */
"    48    48      256            2",
/* colors */
"`` c #4c4e4c",
"`. c #7c7e7c",
"`# c #b4bab4",
"`a c None",
"`b c #545a54",
"`c c #9c9e9c",
"`d c #34329c",
"`e c #444694",
"`f c #d4dad4",
"`g c #545aac",
"`h c #8c8e8c",
"`i c #4c529c",
"`j c #c4cac4",
"`k c #acaea4",
"`l c #6c6eb4",
"`m c #e4eae4",
"`n c #3c3e94",
"`o c #6c6e6c",
"`p c #7c7eac",
"`q c #4446a4",
"`r c #6466a4",
"`s c #9ca2c4",
"`t c #bcc2bc",
"`u c #8c8eb4",
"`v c #ccd2cc",
"`w c #4c52b4",
"`x c #a4a6a4",
"`y c #dce2d4",
"`z c #acaec4",
"`A c #646664",
"`B c #6462a4",
"`C c #84867c",
"`D c #3c3a94",
"`E c #949694",
"`F c #3c3eac",
"`G c #4c4ea4",
"`H c #acb6ac",
"`I c #f4f2ec",
"`J c #64625c",
"`K c #4c4e94",
"`L c #5c62b4",
"`M c #54529c",
"`N c #cccac4",
"`O c #747674",
"`P c #8486ac",
"`Q c #c4c2bc",
"`R c #bcbab4",
"`S c #5c5aa4",
"`T c #7476b4",
"`U c #ecf2ec",
"`V c #444294",
"`W c #4c4aa4",
"`X c #d4d2cc",
"`Y c #acaaa4",
"`Z c #e4e2dc",
"`0 c #5452ac",
"`1 c #545654",
"`2 c #5c625c",
"`3 c #a4a29c",
"`4 c #3432ac",
"`5 c #4c4a8c",
"`6 c #dcdad4",
"`7 c #94928c",
"`8 c #b4b2ac",
".` c #eceae4",
".. c #6c6ab4",
".# c #5452b4",
".a c #8c8a8c",
".b c #ccced4",
".c c #c4c6cc",
".d c #5c5ab4",
".e c #54524c",
".f c #84827c",
".g c #5c5a54",
".h c #8482bc",
".i c #6466b4",
".j c #9496b4",
".k c #a4aaa4",
".l c #84868c",
".m c #3c3aa4",
".n c #9c9a94",
".o c #54569c",
".p c #cccec4",
".q c #7c7a7c",
".r c #c4c6bc",
".s c #bcbeb4",
".t c #d4d6cc",
".u c #e4e6dc",
".v c #dcded4",
".w c #eceee4",
".x c #5456b4",
".y c #9ca29c",
".z c #343694",
".A c #8c928c",
".B c #acb2ac",
".C c #7472ac",
".D c #3c3ea4",
".E c #747274",
".F c #7c7ebc",
".G c #4446b4",
".H c #a4aacc",
".I c #b4b6bc",
".J c #6c6a6c",
".K c #6462b4",
".L c #848a84",
".M c #4442ac",
".N c #4c4eb4",
".O c #b4b6ac",
".P c #8c8abc",
".Q c #5c5eac",
".R c #7c7ab4",
".S c #4442a4",
".T c #4c4ab4",
".U c #4c4a9c",
".V c #5c5e5c",
".W c #4c524c",
".X c #7c827c",
".Y c #b4bac4",
".Z c #9c9ea4",
".0 c #44469c",
".1 c #8c8e94",
".2 c #c4cacc",
".3 c #acaeac",
".4 c #3c3e9c",
".5 c #6c726c",
".6 c #7c7eb4",
".7 c #4446ac",
".8 c #6466ac",
"#` c #a4a6bc",
"#. c #8486bc",
"## c #9496c4",
"#a c #b4b6cc",
"#b c #3436a4",
"#c c #646a64",
"#d c #949a94",
"#e c #747a74",
"#f c #5456ac",
"#g c #5c5eb4",
"#h c #646ab4",
"#i c #bcc2c4",
"#j c #8c8ebc",
"#k c #ccd2d4",
"#l c #a4a6ac",
"#m c #dce2dc",
"#n c #6462ac",
"#o c #848684",
"#p c #3c3a9c",
"#q c #4c4eac",
"#r c #f4f2f4",
"#s c #646264",
"#t c #4c4e9c",
"#u c #5452a4",
"#v c #cccacc",
"#w c #c4c2c4",
"#x c #bcbabc",
"#y c #5c5aac",
"#z c #7476bc",
"#A c #44429c",
"#B c #4c4aac",
"#C c #d4d2d4",
"#D c #acaaac",
"#E c #e4e2e4",
"#F c #a4a2a4",
"#G c #4c4a94",
"#H c #dcdadc",
"#I c #949294",
"#J c #b4b2b4",
"#K c #eceaec",
"#L c #5452bc",
"#M c #545254",
"#N c #848284",
"#O c #5c5a5c",
"#P c #a4aaac",
"#Q c #3c3aac",
"#R c #9c9a9c",
"#S c #5456a4",
"#T c #cccecc",
"#U c #7c7a84",
"#V c #c4c6c4",
"#W c #bcbebc",
"#X c #d4d6d4",
"#Y c #e4e6e4",
"#Z c #dcdedc",
"#0 c #eceeec",
"#1 c #5456bc",
"#2 c #34369c",
"#3 c #7472b4",
"#4 c #4442b4",
"#5 c #b4b6b4",
"#6 c #000000",
"#7 c #000000",
"#8 c #000000",
"a` c #000000",
"a. c #000000",
"a# c #000000",
"aa c #000000",
"ab c #000000",
"ac c #000000",
"ad c #000000",
"ae c #000000",
"af c #000000",
"ag c #000000",
"ah c #000000",
"ai c #000000",
"aj c #000000",
"ak c #000000",
"al c #000000",
"am c #000000",
"an c #000000",
"ao c #000000",
"ap c #000000",
"aq c #000000",
"ar c #000000",
"as c #000000",
"at c #000000",
"au c #000000",
"av c #000000",
"aw c #000000",
"ax c #000000",
"ay c #000000",
"az c #000000",
"aA c #000000",
"aB c #000000",
"aC c #000000",
"aD c #000000",
"aE c #000000",
"aF c #000000",
"aG c #000000",
"aH c #000000",
"aI c #000000",
"aJ c #000000",
"aK c #000000",
"aL c #000000",
"aM c #000000",
"aN c #000000",
"aO c #000000",
"aP c #000000",
"aQ c #000000",
"aR c #000000",
"aS c #000000",
"aT c #000000",
"aU c #000000",
"aV c #000000",
"aW c #000000",
"aX c #000000",
"aY c #000000",
"aZ c #000000",
"a0 c #000000",
"a1 c #000000",
"a2 c #000000",
"a3 c #000000",
"a4 c #000000",
"a5 c #000000",
"a6 c #000000",
"a7 c #000000",
"a8 c #000000",
/* pixels */
"`a`a`a`a`a`a`a`a`a`a`a`a`a`a`a`a`a`a`a`a`a`a`a`a`a`a`a`a`a`a`a`a`a`a`a`a`a`a`a`a`a`a`a`a`a`a`a`a",
"`a`a`a`a`a`a`a`a`a`a`a`a`a`a#w#F#F#F#F#F#F#F#F`c#F#R#R#R#R#R#R#I#I#I#I#I#I.a#I`E`a`a`a`a`a`a`a`a",
"`a`a`a`a`a`a`a`a`a`a`a`a`a`a#F`I#0#0#0#0#0#0#0#0#0`I#0#0#0#0#K#0#0#0#0.`#0#K#0#w#w`a`a`a`a`a`a`a",
"`a`a`a`a`a`a`a`a`a`a`a`a`a#K#x#0`p`M`M`i`M#t`M`M#t#t#t`M#t#t`K#t#t#t#t#t`u`f.v`6.3`a`a`a`a`a`a`a",
"`a`a`a`a`a`a`a`a`a`a`a`a`a#E#V.`#S#.#.#..h#..h.F.h.h.6.F.6.R.R.R.R.R`T..`i`Q.t#Z#F`a`a`a`a`a`a`a",
"`a`a`a`a`a`a`a`a`a`a`a`a`a#Z#v`m`M.h.h.F.h.R.F.R.R.R`T.R`T`T`T`T#3#3`l`r`K#T#X#E#R`a`a`a`a`a`a`a",
"`a`a`a`a`a`a`a`a`a`a`a`a`a#H#T`m`i.R.R.R`T.R`T`T`T`T#3#3#3#3#3`l`l`l.C#n#G`j`v#Y#I`a`a`a`a`a`a`a",
"`a`a`a`a`a`a`a`a`a`a`a`a`a#C#C.u#t`T`T`T`T#3#3#3#3#3`l`l`l`l`l.......8#S#A`j`N`m.a`a`a`a`a`a`a`a",
"`a`a`a`a`a`a`a`a`a`a`a`a`a#v`f#Y#t#3#3#3#3`l`l`l`l..`l........`B`i#A#p#2`V.t`v.`#N`a`a`a`a`a`a`a",
"`a`a`a`a`a`a`a`a`a`a`a`a`a#w#H.u.U`l`l`l..`l........#h...8`S`W#p#p#p#p#p`n`N#V#Y`.`a`a`a`a`a`a`a",
"`a`a`a`a`a`a`a`a`a`a`a`a`a#x`Z#Z.0.........i...i.8.i#n#n#u.m.4.4.4.D.4.4`D.p#V.u.q`a`a`a`a`a`a`a",
"`a`a`a#K#D#F#F#F#F#F#F#F#F`c`c`c#I`E#I.A#I.1`h.a.a.a.a.l#e#t.D.S.D.S.D.S.z`v`v#Y`O`a`a`a`a`a`a`a",
"`a`a`a`R#H`I#0#0`I#0#0#0#0#0#0#0#0#0#0#0#K#0#K#0#0#K`m#K#E#U.S.S.S.S.S.S.z#T`v`Z.q`a`a`a`a`a`a`a",
"`a`a`a#D#0#k.#`g.x#y.x#y.x#y.x#y#f`g.d#f#f#f`g#y#f#h`f`f#0#N.S.7.7.7.7.7#2#i`X#m#N`a`a`a`a`a`a`a",
"`a`a`a#F#0#a...P#.#..h#..h.h.6.F.h.R.F.R.R.R.R`T`T.S`X`t.`.l#B.7#B.7#B#B#p`z`v#Z.a#K`a`a`a`a`a`a",
"`a`a`a#F`U.H.K.h.h.F.6.F.R.R.R.R`T.R`T`T`T#3#3#3#3.S`v`v.``h#q#B#B.T#q.T.m#P`v.v`h#Z`a`a`a`a`a`a",
"`a`a`a#F`I##.i.R.R.R.R`T.R`T`T`T`T#3#3#3`l`l`l`l`l.S.c`Q#Y#I`w#q.N.N.N.N`F.j#T`6`E#C`a`a`a`a`a`a",
"`a`a`a#F#0.h.8`T`T#3#3#3#3#3`l#3`l`l`l`l`l`l....#n.D.Y#W#Y#d#u#L.##L.##L.7`P.p`f#R#v`a`a`a`a`a`a",
"`a`a`a#F`U#z..#3#3`l#3`l`l`l`l`l..........`S.U.4`D`d`z`v`Z.Z`S#L`w#L#L#L.N.C#T`f.y#w`a`a`a`a`a`a",
"`a`a`a#D#K.i#h`l`l#3`l`l..`l....#h...8#u#A#p#p#p#2`d`s`##Z#l`S#1#1#1#1#1#1`B.p.t#F#5`a`a`a`a`a`a",
"`a`a`a#J.`#g......#h...i...i.8.K#n.Q`q#p#p.4.4.4.D#2#j#W.v#D`e.4.D.4.S.D.4`B`j`v#D.3`a`a`a`a`a`a",
"`a`a#K#5`m#y#h...i.i.K.i#n.K.K.K`0.4.S.D.D.D.S.D.S.m.6#T.v#5`3`v.p#T.p.p#T.p#T`v.3#F`a`a`a`a`a`a",
"`a`a#E#W.`.x.i.K.K.K#n.K.K`L#y`W.S.S.D.S.S.S.S.S.S.D`l`v`f`R`h.O#5.O`8#5.B.O.B.p`Y`c`a`a`a`a`a`a",
"`a`a#H#w#Y#f.K.K.K`L.K#g#g#y.7.S.M`q.M`q.7`q.7.7.7.7.K`v#X#W`h`t`Q#W#W#x`R#x`#.3#s#H`a`a`a`a`a`a",
"`a`a#H#w.u.##g#g#g.d.d.d`0.M.7.7.7.7#B.7#B.7#B#B#B#B#y`v.t#V#O``````#M`A`o#e#N`E#H`a`a`a`a`a`a`a",
"`a`a#T#v.u.N#g.d.d.d`g#q.7#B#B#B#B#B#B#B.T#B.T#B.T.N#f`v`X`j`A.V`A.J.5#N`h#J#H`a`a`a`a`a`a`a`a`a",
"`a`a#v#v#m#q.d.d.x.#.T.T#B.T.N#B.N.T.N.N.N.N.N.N.N.N.#`v`v#v.J#o#o.5#O`E#D#J.3#J#w#v#C`a`a`a`a`a",
"`a`a#W#C#Z#B.#.N.N.T.N.N.N.N.N.N.N.N.#.N.#.N.##L`w#L`w.p`v`X`A`h`O`1.q#I`x#x#V#T#T#v#w#x#w#Z`a`a",
"`a`a#x`X.v#4.N.N.#.N.#.#.##L.##L.##L#L#L#L#L#L#1#L#1#q.p.p`X`1.e`1.V`A.J.E`O`..a#X`a`a#E#v#x#C`a",
"`a`a#D`f#X#4.##L#L#L#L#L#L#L#1#L#1#1#1#1#1#1#1#1#1.d.T#T.p#k#s.O.O#5.O`H.O#5#5`x.E`a`a`a`a#H#5`a",
"`a`a#F#H#k`4.G`F.G#4.7`F.G#4`F.G#4#4#4#4.G#4.G.G.G#4#Q#T.p`X`2.Z.Z`c`f.3#F.y`3#J`o#C`a`a#C#J#v`a",
"`a`a#R#Z`f.2.2#v.2.c.2.2.2`j.2.3#P#i#V#i#V#V#i#w#i#i#V.p.2#X.V`Y`x#D#5.O#l`Y#l`x`3`O#R#R#J#E`a`a",
"`a`a`E#H.p`t`Q`t.s`t.s#W.s#W.s`#`R`#.s`R`#`R`#`R`#`R`#`#.s#X`1.3#J#D.3.t#D.3.3.3#V#s#D#T#Y`a`a`a",
"`a`a#w.y#C`X`v`X`v#T#T#T#T`N.2`N.2#V#V#V#w#V`t#w`t#W#W#W#W`7.J#5#J#5#J.v`x.3#J.3#W#e#x#X#K`a`a`a",
"`a`a`a#w.n#I`h#o`..J#s#s`J`A#c`A#s#s#s`2`1`1`1`1.g#O`J#s#c`.#5.3.3.3.B.t`j.s`#`R.r#5#R`a`a`a`a`a",
"`a`a`a`a`a`a#E#w#R`b`o.5`A.f#o.a`C#o#o#o`A.V`A.J`O`..A`8`v.v.v.v`y.v.v#m#Z#m`y#Z#m.v`o`a`a`a`a`a",
"`a`a`a`a`a`a#H#V.3.g.X`7.L.L#o.X.f.X.f`C.X#o`.`b#s#o#F#F`c#R.a.X`A.V.V.V.V.V.V.V.V#s`7`a`a`a`a`a",
"`a`a`a`a`a#K#C#w#D.q.V.X#d.k.O#5`#`H.B.k`E#o`2#s.a`c#J#W#V#V#v#W.I#w#C`a`a`a`a`a`a`a`a`a`a`a`a`a",
"`a`a`a#H#J`c`E`h#N`.`o.V`1#O`2`J#s`2#O`1``.e#O#s`o`O.q.a`h#x`a`a`a#v#W#x`a`a`a`a`a`a`a`a`a`a`a`a",
"`a`a`a.q.y#D`Y`k.k`Y.k`Y.k`x.k`x.k`x`x`x.k`x.k`x`x`Y.k`x.k#s#K`a`a`a`a#x#H`a`a`a`a`a`a`a`a`a`a`a",
"`a`a#K.E#5.y.Z.y#F.Z.y#F.Z`3.Z`3`c`3.y`3`c`3`c`#`v#F`3#F#F.y.n#K`a#K#x#5`a`a`a`a`a`a`a`a`a`a`a`a",
"`a`a`8.k`x`Y`x`x`x`Y#F`x`x`x`x`x#l`x#l`x#l`x#l`x`6.y#l`x`x`Q.V#F.Z`Y#v`a`a`a`a`a`a`a`a`a`a`a`a`a",
"`a`a`O#V#D#D.3#D#R#d#R`c#R`c#R`c`c#R`c`3#D`8#D.3.t`x.3.3.3#5`.`h#x#X`a`a`a`a`a`a`a`a`a`a`a`a`a`a",
"`a#E#N#x#5#5#J`x#J#J#5#J#5#J#5#J#5#J#J`8#J#J#5#J#x`##J#J#J#J#5.a#T#E`a`a`a`a`a`a`a`a`a`a`a`a`a`a",
"`a`8#5.O.k`x`Y.s.k`x.k`x.k`Y`x.k`Y.k.k`t.k`x.k.k.s.t#5.O.O.B.t#c#K`a`a`a`a`a`a`a`a`a`a`a`a`a`a`a",
"`a.E`f.v`f`y.v`f.v.v.v.v.v.v`y.v.v`y#m`y#m`y#Z`y#m#m#m#m#m.u`m#o#E`a`a`a`a`a`a`a`a`a`a`a`a`a`a`a",
"`a.q#s`2#s.V.V.V.V.V.V.V.V.V.V.V.V#O.V#O`J#O.V.V`J.V`J.V.V.V.V`J#H`a`a`a`a`a`a`a`a`a`a`a`a`a`a`a",
"`a`a`a`a`a`a`a`a`a`a`a`a`a`a`a`a`a`a`a`a`a`a`a`a`a`a`a`a`a`a`a`a`a`a`a`a`a`a`a`a`a`a`a`a`a`a`a`a"
};
