/* XPM */
static const char * remoteserver_discon_xpm[] = {
"16 16 80 1",
" 	c None",
".	c #DE8F8F",
"+	c #CD3D3D",
"@	c #CD3838",
"#	c #D26565",
"$	c #82847F",
"%	c #D46363",
"&	c #D94242",
"*	c #EA9494",
"=	c #CC0101",
"-	c #DE5B5B",
";	c #E68181",
">	c #C8C8C7",
",	c #EDEDED",
"'	c #BA4848",
")	c #CD0606",
"!	c #F0B3B3",
"~	c #F2BDBD",
"{	c #F8DCDC",
"]	c #D22020",
"^	c #284CA6",
"/	c #B4403E",
"(	c #CC0000",
"_	c #DF5F5F",
":	c #FDF5F5",
"<	c #EEA8A8",
"[	c #CB3737",
"}	c #F3F3F3",
"|	c #6E84B6",
"1	c #6D84B7",
"2	c #CC5543",
"3	c #D42626",
"4	c #F0B6B6",
"5	c #E78686",
"6	c #C8312C",
"7	c #F0F0F0",
"8	c #7089BA",
"9	c #7087BA",
"0	c #6F87B9",
"a	c #6F89B9",
"b	c #C15341",
"c	c #D22121",
"d	c #D52F2F",
"e	c #D01616",
"f	c #D11D1D",
"g	c #C9433B",
"h	c #EEEEEE",
"i	c #728ABC",
"j	c #738CBB",
"k	c #728CBC",
"l	c #904C61",
"m	c #9C566A",
"n	c #A0596D",
"o	c #944854",
"p	c #B95E43",
"q	c #D19F78",
"r	c #738EBF",
"s	c #748EBE",
"t	c #597AB7",
"u	c #486FB8",
"v	c #3865B6",
"w	c #3864B6",
"x	c #7592C1",
"y	c #5F80B7",
"z	c #3B6AB9",
"A	c #3B68BB",
"B	c #3B67B9",
"C	c #3D69B9",
"D	c #3E6EBE",
"E	c #3D6EBF",
"F	c #3F6EBD",
"G	c #D6D6D6",
"H	c #D4D4D4",
"I	c #D1D1D1",
"J	c #ECECEC",
"K	c #EBEBEB",
"L	c #C8C8C8",
"M	c #C5C5C5",
"N	c #E8E8E8",
"O	c #D9D9D9",
"         .+@@@@#",
"  $$$$$$$%&*=-;@",
" $>,,,,,,')!~{]@",
" $,^^^^^^/(_:<=[",
" $}^|11112&{3456",
" $7^8908abcdefdg",
" $h^ijkjkklmnopq",
" $h^rrstuvww^h$ ",
" $h^xyzAAABC^h$ ",
" $,^DDEDDFED^,$ ",
" $}^^^^^^^^^^,$ ",
" $G,,,,,,,,,,H$ ",
"  $$$$$$$$$$$$  ",
" $}7IJKKKKLMMN$ ",
"$OOOOOOOOOOOOOO$",
" $$$$$$$$$$$$$$ "};
