/* XPM */
static const char * report_xpm[] = {
"16 16 52 1",
" 	c None",
".	c #C4A000",
"+	c #F9E8C6",
"@	c #888A85",
"#	c #EBB13D",
"$	c #8F5902",
"%	c #EBEBEB",
"&	c #BCBCBC",
"*	c #B8B8B8",
"=	c #EEEAC6",
"-	c #CFAD71",
";	c #FFFFFF",
">	c #ECECEC",
",	c #D3D3D3",
"'	c #EFEBC7",
")	c #D2AC6A",
"!	c #A18355",
"~	c #DBDBDB",
"{	c #CCCCCC",
"]	c #B7B7B7",
"^	c #A48757",
"/	c #CFAA69",
"(	c #A08356",
"_	c #EDE6C5",
":	c #CEA668",
"<	c #A08457",
"[	c #EDE5C4",
"}	c #C89F64",
"|	c #717171",
"1	c #CBCBCB",
"2	c #757575",
"3	c #705B39",
"4	c #C2AB8A",
"5	c #A38555",
"6	c #8F8F8F",
"7	c #868686",
"8	c #E9E9E9",
"9	c #4C4226",
"0	c #6B5736",
"a	c #9D9D9D",
"b	c #D6D6D6",
"c	c #AEAEAE",
"d	c #C4C4C4",
"e	c #000000",
"f	c #636363",
"g	c #8C8C8C",
"h	c #CACACA",
"i	c #DADADA",
"j	c #B2B2B2",
"k	c #EAEAEA",
"l	c #EEEEEE",
"m	c #B1B1B1",
"                ",
"   . . . . .    ",
"  .+.+.+.+.+.   ",
" @.#.#.#.#.#.$$ ",
" @%.&.*.*.*.$=-$",
" @;>>>>>>>,$')!$",
" @;~{{{{{]$')^$ ",
" @;>>>>>,$=/($  ",
" @;~{{{]$_:<$@  ",
" @;>>>%$[}^$|@  ",
" @;~{12345$67@  ",
" @;>>8$90$abc@  ",
" @;~1de$fghij@  ",
" @;>%kk8%k%>j@  ",
" @ljjjjjjjmjj@  ",
" @@@@@@@@@@@@@  "};
