/* XPM */
static const char *select_all_xpm[] = {
/* width height num_colors chars_per_pixel */
"    16    16      256            2",
/* colors */
"`` c #b8bab8",
"`. c #c3cacd",
"`# c #b8bab7",
"`a c #c5cacd",
"`b c #aac1d8",
"`c c #a6bcd4",
"`d c #b0c6de",
"`e c #aac0d8",
"`f c #b4cae2",
"`g c #c7cacc",
"`h c #92a9c1",
"`i c #859cb4",
"`j c #a4bbd3",
"`k c #a0b7cf",
"`l c #98afc7",
"`m c #9fb5cd",
"`n c #b3c9e1",
"`o c #c5c9cb",
"`p c #c5cbcc",
"`q c #97aabf",
"`r c #889cb1",
"`s c #abbed3",
"`t c #bdd1e5",
"`u c #bcd0e5",
"`v c #bcd0e4",
"`w c #bbcfe4",
"`x c #bbcfe3",
"`y c #cdd9e8",
"`z c #c7cac9",
"`A c #98aec7",
"`B c #98aec6",
"`C c #9db3cb",
"`D c #b2c8e0",
"`E c #e2e7ec",
"`F c #c9cac8",
"`G c #a4bbd2",
"`H c #a9c0d7",
"`I c #a5bbd3",
"`J c #a4bad2",
"`K c #a6bdd4",
"`L c #b1c7df",
"`M c #e1e6eb",
"`N c #c8c9c8",
"`O c #b2c7dc",
"`P c #afc4da",
"`Q c #afc3d9",
"`R c #b5c9df",
"`S c #b8cde2",
"`T c #b8cce2",
"`U c #b7cce1",
"`V c #b7cbe1",
"`W c #b6cbe0",
"`X c #d1dce7",
"`Y c #e0e5ea",
"`Z c #eaebeb",
"`0 c #c8c8c7",
"`1 c #97adc6",
"`2 c #8ba1ba",
"`3 c #8aa1b9",
"`4 c #8fa6be",
"`5 c #d6dee7",
"`6 c #ececeb",
"`7 c #ebebea",
"`8 c #c7c8c5",
".` c #b5cbe2",
".. c #b4cae0",
".# c #b3c9df",
".a c #b2c8df",
".b c #b1c8de",
".c c #b1c7de",
".d c #b0c7de",
".e c #afc6dd",
".f c #d3dce5",
".g c #e6e8e9",
".h c #e8e9e9",
".i c #c6c7c5",
".j c #c4cacb",
".k c #aec5dc",
".l c #acc2da",
".m c #abc2d9",
".n c #abc1d9",
".o c #a9c0d8",
".p c #a9bfd7",
".q c #a8bfd7",
".r c #a8bed6",
".s c #a7bed6",
".t c #a7bdd5",
".u c #dadfe4",
".v c #c6c6c4",
".w c #c3c9ca",
".x c #9ab0c9",
".y c #90a7bf",
".z c #90a6bf",
".A c #8fa5be",
".B c #96adc5",
".C c #d9dee3",
".D c #c5c6c3",
".E c #c2c8ca",
".F c #b8cce1",
".G c #b7cce0",
".H c #b7cbe0",
".I c #b6cadf",
".J c #b4c8de",
".K c #b4c8dd",
".L c #96a5b4",
".M c #7c8590",
".N c #c0cfde",
".O c #c0cfdd",
".P c #dde0e2",
".Q c #c4c5c1",
".R c #c1c7c9",
".S c #a3b9d1",
".T c #9db3cc",
".U c #9cb3cb",
".V c #9cb2cb",
".W c #9bb2ca",
".X c #c0cedc",
".Y c #818180",
".Z c #e6e6e4",
".0 c #e5e5e3",
".1 c #e5e5e2",
".2 c #e4e4e1",
".3 c #c3c4c0",
".4 c #c1c5c8",
".5 c #a1b8d0",
".6 c #9bb1ca",
".7 c #9ab1c9",
".8 c #9ab0c8",
"#` c #c0cddb",
"#. c #80807f",
"## c #e3e3e0",
"#a c #e3e3df",
"#b c #c5c7c7",
"#c c #d4dde6",
"#d c #d3dbe4",
"#e c #d2dae3",
"#f c #d1d9e2",
"#g c #d0d9e1",
"#h c #cfd8e0",
"#i c #c8cdd0",
"#j c #848482",
"#k c #e2e2df",
"#l c #e2e2de",
"#m c #b5b7b3",
"#n c #c4c5c2",
"#o c #b0b0ae",
"#p c #a9aaa7",
"#q c #b3b4b0",
"#r c #000000",
"#s c #000000",
"#t c #000000",
"#u c #000000",
"#v c #000000",
"#w c #000000",
"#x c #000000",
"#y c #000000",
"#z c #000000",
"#A c #000000",
"#B c #000000",
"#C c #000000",
"#D c #000000",
"#E c #000000",
"#F c #000000",
"#G c #000000",
"#H c #000000",
"#I c #000000",
"#J c #000000",
"#K c #000000",
"#L c #000000",
"#M c #000000",
"#N c #000000",
"#O c #000000",
"#P c #000000",
"#Q c #000000",
"#R c #000000",
"#S c #000000",
"#T c #000000",
"#U c #000000",
"#V c #000000",
"#W c #000000",
"#X c #000000",
"#Y c #000000",
"#Z c #000000",
"#0 c #000000",
"#1 c #000000",
"#2 c #000000",
"#3 c #000000",
"#4 c #000000",
"#5 c #000000",
"#6 c #000000",
"#7 c #000000",
"#8 c #000000",
"a` c #000000",
"a. c #000000",
"a# c #000000",
"aa c #000000",
"ab c #000000",
"ac c #000000",
"ad c #000000",
"ae c #000000",
"af c #000000",
"ag c #000000",
"ah c #000000",
"ai c #000000",
"aj c #000000",
"ak c #000000",
"al c #000000",
"am c #000000",
"an c #000000",
"ao c #000000",
"ap c #000000",
"aq c #000000",
"ar c #000000",
"as c #000000",
"at c #000000",
"au c #000000",
"av c #000000",
"aw c #000000",
"ax c #000000",
"ay c #000000",
"az c #000000",
"aA c #000000",
"aB c #000000",
"aC c #000000",
"aD c #000000",
"aE c #000000",
"aF c #000000",
"aG c #000000",
"aH c #000000",
"aI c #000000",
"aJ c #000000",
"aK c #000000",
"aL c #000000",
"aM c #000000",
"aN c #000000",
"aO c #000000",
"aP c #000000",
"aQ c #000000",
"aR c #000000",
"aS c #000000",
"aT c #000000",
"aU c #000000",
"aV c #000000",
"aW c #000000",
"aX c #000000",
"aY c #000000",
"aZ c #000000",
"a0 c #000000",
"a1 c #000000",
"a2 c #000000",
"a3 c #000000",
"a4 c #000000",
"a5 c #000000",
"a6 c #000000",
"a7 c #000000",
"a8 c #000000",
/* pixels */
"```.`.`.`.`.`.`.`.`.`.`.`.`.`.`#",
"`a`b`c`c`c`c`d`b`c`c`c`c`c`e`f`g",
"`a`h`i`i`i`i`j`k`l`l`l`l`l`m`n`o",
"`p`q`r`r`r`r`s`t`t`t`u`v`w`x`y`z",
"`a`h`i`i`i`i`j`k`l`A`A`B`C`D`E`F",
"`a`h`i`i`i`i`G`H`I`j`G`J`K`L`M`N",
"`a`O`P`P`P`Q`R`S`T`U`V`W`X`Y`Z`0",
"`a`1`2`2`2`2`2`3`3`3`3`4`5`6`7`8",
"`a.`.....#.a.b.c.c.d`d.e.f.g.h.i",
".j.k.l.m.n`b`e.o.p.q.r.s.t.q.u.v",
".w.x.y.y.z.z.z`4`4`4`4.A.A.B.C.D",
".E.F.G.G.H.I`R.J.K.L.M.N.N.O.P.Q",
".R.S.T`C.U.U.V.W.W.X.Y.Z.0.1.2.3",
".4.5.W.6.6.7.7.x.8#`#..1.2###a.3",
"#b#c.f#d#e#f#f#g#h#i#j.2###k#l.3",
"#m`8.i.v.v.D.D#n.Q#o#p.3.3.3.3#q"
};
