/* XPM */
static const char * shell_connections_16_xpm[] = {
"16 16 122 2",
"  	c None",
". 	c #ADADAD",
"+ 	c #A8A8A8",
"@ 	c #A5A5A5",
"# 	c #A2A2A2",
"$ 	c #979797",
"% 	c #A3A3A3",
"& 	c #999999",
"* 	c #939393",
"= 	c #8D8D8D",
"- 	c #8B8B8B",
"; 	c #8A8A8A",
"> 	c #818181",
", 	c #929292",
"' 	c #949494",
") 	c #969696",
"! 	c #858585",
"~ 	c #7F7F7F",
"{ 	c #7B7B7B",
"] 	c #797979",
"^ 	c #7A7A7A",
"/ 	c #7C7C7C",
"( 	c #A39653",
"_ 	c #DECB49",
": 	c #DDC83F",
"< 	c #DCC73E",
"[ 	c #DDC73E",
"} 	c #DEC93F",
"| 	c #E1CB3B",
"1 	c #E6D03A",
"2 	c #D8BD24",
"3 	c #898989",
"4 	c #A89844",
"5 	c #F1DD35",
"6 	c #EFD817",
"7 	c #DECB34",
"8 	c #CDC899",
"9 	c #C4C2AB",
"0 	c #D1C87C",
"a 	c #E5D122",
"b 	c #DEC52C",
"c 	c #848484",
"d 	c #B0A044",
"e 	c #F0DB2E",
"f 	c #D1C23E",
"g 	c #C7C18A",
"h 	c #CECEC7",
"i 	c #C8C9C6",
"j 	c #9B9B9A",
"k 	c #C6C6C6",
"l 	c #BCBBAF",
"m 	c #B5B090",
"n 	c #B7A641",
"o 	c #F0DB25",
"p 	c #E8D21E",
"q 	c #AFAFA8",
"r 	c #CECFCC",
"s 	c #DDDEDB",
"t 	c #E1E2DF",
"u 	c #B8B8B7",
"v 	c #BEBEBE",
"w 	c #9F9F9F",
"x 	c #A6A7A6",
"y 	c #747474",
"z 	c #BEAB3D",
"A 	c #EFD91B",
"B 	c #EFD816",
"C 	c #EED712",
"D 	c #EED70F",
"E 	c #AEAB86",
"F 	c #DADCD8",
"G 	c #E1E3E0",
"H 	c #E8E9E7",
"I 	c #BEBFBE",
"J 	c #A6A6A6",
"K 	c #8F8F8F",
"L 	c #6D6D6D",
"M 	c #C1AD30",
"N 	c #EED508",
"O 	c #EDD401",
"P 	c #EDD400",
"Q 	c #BDB669",
"R 	c #C2C3C0",
"S 	c #DEE0DC",
"T 	c #E3E4E1",
"U 	c #787878",
"V 	c #8D8C89",
"W 	c #6B6B6B",
"X 	c #C6A91E",
"Y 	c #EEC600",
"Z 	c #EEC500",
"` 	c #D1B42C",
" .	c #A5A6A2",
"..	c #D7D9D5",
"+.	c #DADBD8",
"@.	c #878887",
"#.	c #6C6C6C",
"$.	c #646464",
"%.	c #9F9E94",
"&.	c #746F5A",
"*.	c #D4A60D",
"=.	c #F0B400",
"-.	c #BAA874",
";.	c #B6B8B4",
">.	c #D0D2CD",
",.	c #7C7C7B",
"'.	c #6A6A6A",
").	c #95938B",
"!.	c #A0851C",
"~.	c #9F841C",
"{.	c #9D841B",
"].	c #9C811A",
"^.	c #9C8118",
"/.	c #998017",
"(.	c #978122",
"_.	c #A8A89D",
":.	c #B3B6B1",
"<.	c #838483",
"[.	c #898A89",
"}.	c #A9A68F",
"|.	c #ABADAB",
"1.	c #A2A4A0",
"                                ",
"                                ",
"  . . + @ # $                   ",
"  % & * = - ; > , ' ) $         ",
"  & = ! ~ { ] ] ^ / > ;         ",
"  , ( _ : < < < < [ : } | 1 2   ",
"  3 4 5 6 6 6 6 6 7 8 9 0 a b   ",
"  c d e 6 6 6 f g h i j k l m   ",
"  ^ n o 6 6 p q r s t u v w > x ",
"  y z A B C D E F G H I J K c   ",
"  L M N O P P Q R S T % ; U V   ",
"  W X Y Z Z Z `  ...+.@.#.$.%.  ",
"  &.*.=.=.=.=.=.-.;.>.,.'.).    ",
"    !.~.{.].^./.(._.:.<.[.}.    ",
"                    |.@ 1.      ",
"                                "};
