/* XPM */
const static char * shell_connections_48_xpm[] = {
"48 48 482 2",
"  	c None",
". 	c #7A7A7A",
"+ 	c #797979",
"@ 	c #BEBEBE",
"# 	c #C9C9C9",
"$ 	c #C7C7C7",
"% 	c #C6C6C6",
"& 	c #C5C5C5",
"* 	c #C4C4C4",
"= 	c #C3C3C3",
"- 	c #C2C2C2",
"; 	c #C0C0C0",
"> 	c #BFBFBF",
", 	c #AAAAAA",
"' 	c #777777",
") 	c #CACACA",
"! 	c #BABABA",
"~ 	c #ACACAC",
"{ 	c #A8A8A8",
"] 	c #A6A6A6",
"^ 	c #A4A4A4",
"/ 	c #A3A3A3",
"( 	c #A1A1A1",
"_ 	c #A0A0A0",
": 	c #9E9E9E",
"< 	c #9D9D9D",
"[ 	c #9C9C9C",
"} 	c #9B9B9B",
"| 	c #B1B1B1",
"1 	c #7C7C7C",
"2 	c #787878",
"3 	c #A5A5A5",
"4 	c #979797",
"5 	c #959595",
"6 	c #939393",
"7 	c #929292",
"8 	c #909090",
"9 	c #8E8E8E",
"0 	c #8C8C8C",
"a 	c #8B8B8B",
"b 	c #8A8A8A",
"c 	c #898989",
"d 	c #888888",
"e 	c #878787",
"f 	c #8D8D8D",
"g 	c #C1C1C1",
"h 	c #B2B2B2",
"i 	c #A2A2A2",
"j 	c #9A9A9A",
"k 	c #999999",
"l 	c #969696",
"m 	c #949494",
"n 	c #707070",
"o 	c #757575",
"p 	c #B7B7B7",
"q 	c #8F8F8F",
"r 	c #868686",
"s 	c #848484",
"t 	c #838383",
"u 	c #828282",
"v 	c #818181",
"w 	c #808080",
"x 	c #737373",
"y 	c #6D6D6D",
"z 	c #6C6C6C",
"A 	c #747474",
"B 	c #B6B6B6",
"C 	c #AEAEAE",
"D 	c #919191",
"E 	c #AFAFAF",
"F 	c #B3B3B3",
"G 	c #B4B4B4",
"H 	c #B5B5B5",
"I 	c #B9B9B9",
"J 	c #686868",
"K 	c #ADADAD",
"L 	c #858585",
"M 	c #7E7E7E",
"N 	c #7B7B7B",
"O 	c #7D7D7D",
"P 	c #7F7F7F",
"Q 	c #6E6E6E",
"R 	c #989898",
"S 	c #676767",
"T 	c #82817F",
"U 	c #81807B",
"V 	c #7F7E79",
"W 	c #7D7C77",
"X 	c #7B7A75",
"Y 	c #7A7974",
"Z 	c #787772",
"` 	c #777570",
" .	c #76746F",
"..	c #75736E",
"+.	c #74726D",
"@.	c #73726C",
"#.	c #7C7B76",
"$.	c #868580",
"%.	c #6A6963",
"&.	c #6B6B6B",
"*.	c #A7A7A7",
"=.	c #BD9F17",
"-.	c #C5A105",
";.	c #C5A104",
">.	c #C4A104",
",.	c #C4A103",
"'.	c #C4A003",
").	c #C4A002",
"!.	c #C3A001",
"~.	c #C4A100",
"{.	c #C8A400",
"].	c #C3A002",
"^.	c #F3E66D",
"/.	c #F6EA7E",
"(.	c #F6EA7F",
"_.	c #F6EA80",
":.	c #F6EA81",
"<.	c #F3E56E",
"[.	c #C5A100",
"}.	c #656565",
"|.	c #8D8B83",
"1.	c #C4A102",
"2.	c #F5E879",
"3.	c #EFD91C",
"4.	c #EFD817",
"5.	c #EFD818",
"6.	c #EBD51C",
"7.	c #EFD819",
"8.	c #EFD81A",
"9.	c #EFD91A",
"0.	c #F0DB29",
"a.	c #F1E064",
"b.	c #C6A200",
"c.	c #636363",
"d.	c #847F6A",
"e.	c #C5A40A",
"f.	c #F5E87A",
"g.	c #EDD61A",
"h.	c #BAB157",
"i.	c #AAA994",
"j.	c #A4A178",
"k.	c #D2C337",
"l.	c #EFDA23",
"m.	c #EEDC5A",
"n.	c #C6A400",
"o.	c #606060",
"p.	c #9F9F9F",
"q.	c #938B68",
"r.	c #CAAC17",
"s.	c #F5E771",
"t.	c #D4C435",
"u.	c #A5A384",
"v.	c #DADAD7",
"w.	c #E0E0E0",
"x.	c #E7E7E7",
"y.	c #CBCAC2",
"z.	c #A3A180",
"A.	c #CBBD41",
"B.	c #EED718",
"C.	c #EED60E",
"D.	c #F0DA26",
"E.	c #EAD751",
"F.	c #C7A400",
"G.	c #5D5D5D",
"H.	c #8D8252",
"I.	c #CEB220",
"J.	c #F5E669",
"K.	c #DDCA2A",
"L.	c #AAA56E",
"M.	c #C7C6BB",
"N.	c #E6E6E6",
"O.	c #EAEAEA",
"P.	c #D5D5CF",
"Q.	c #A3A285",
"R.	c #C1B648",
"S.	c #EAD205",
"T.	c #F0DC30",
"U.	c #E7D247",
"V.	c #9A8C4E",
"W.	c #D5BB28",
"X.	c #F4E461",
"Y.	c #D4C335",
"Z.	c #A4A074",
"`.	c #C2C1B3",
" +	c #EBEBEB",
".+	c #D0D0D0",
"++	c #B6B8B5",
"@+	c #B0B1AF",
"#+	c #D2D2D2",
"$+	c #E8E8E8",
"%+	c #D6D6D2",
"&+	c #A5A387",
"*+	c #BAB263",
"=+	c #DCC744",
"-+	c #C6A300",
";+	c #98873B",
">+	c #DDC32F",
",+	c #F3E359",
"'+	c #E7D220",
")+	c #BFB34B",
"!+	c #9F9D7C",
"~+	c #C6C6BC",
"{+	c #D8D8D8",
"]+	c #C3C4C1",
"^+	c #D4D6D2",
"/+	c #D8DAD6",
"(+	c #ADAEAC",
"_+	c #BCBCBC",
":+	c #DDDDDD",
"<+	c #D7D7D6",
"[+	c #AFAD9E",
"}+	c #918E73",
"|+	c #A69234",
"1+	c #E2CB38",
"2+	c #F3E250",
"3+	c #ECD61A",
"4+	c #C8BA3F",
"5+	c #9F9B6D",
"6+	c #B1B09F",
"7+	c #D5D5D4",
"8+	c #CBCCCA",
"9+	c #D7D9D6",
"0+	c #DADCD8",
"a+	c #DBDCD9",
"b+	c #DBDDD9",
"c+	c #B5B6B4",
"d+	c #BBBBBB",
"e+	c #B0B0B0",
"f+	c #DCDCDC",
"g+	c #BEBEBD",
"h+	c #919290",
"i+	c #848582",
"j+	c #727272",
"k+	c #717171",
"l+	c #AB9322",
"m+	c #E7D142",
"n+	c #F2E049",
"o+	c #BEB248",
"p+	c #AFAFAA",
"q+	c #D6D6D6",
"r+	c #A9AAA9",
"s+	c #C5C7C4",
"t+	c #DCDDDA",
"u+	c #DDDFDB",
"v+	c #DEDFDC",
"w+	c #DEE0DC",
"x+	c #BFBFBE",
"y+	c #D4D4D4",
"z+	c #A3A4A2",
"A+	c #6F6F6F",
"B+	c #B69B1A",
"C+	c #EAD64B",
"D+	c #F1DE3E",
"E+	c #D4C434",
"F+	c #C0C0BB",
"G+	c #919291",
"H+	c #B7B8B5",
"I+	c #D1D3CF",
"J+	c #D7D9D5",
"K+	c #D9DBD7",
"L+	c #DDDEDB",
"M+	c #DEE0DD",
"N+	c #E0E1DE",
"O+	c #E1E2DF",
"P+	c #E2E3E0",
"Q+	c #C8C9C7",
"R+	c #9FA19D",
"S+	c #696969",
"T+	c #BB9C0E",
"U+	c #EDDA4E",
"V+	c #F0DC33",
"W+	c #E8D31E",
"X+	c #B0AE9F",
"Y+	c #D7D8D4",
"Z+	c #DFE0DD",
"`+	c #E2E4E1",
" @	c #E4E5E2",
".@	c #E5E6E3",
"+@	c #D2D2D1",
"@@	c #878884",
"#@	c #C19F08",
"$@	c #EFDE50",
"%@	c #9F9D82",
"&@	c #BEBFBC",
"*@	c #DCDEDA",
"=@	c #E0E2DF",
"-@	c #E3E4E1",
";@	c #E6E8E5",
">@	c #E8E9E7",
",@	c #D6D6D5",
"'@	c #838480",
")@	c #5F5F5F",
"!@	c #F2E051",
"~@	c #F0DA20",
"{@	c #EFD815",
"]@	c #EED710",
"^@	c #EED60B",
"/@	c #EED507",
"(@	c #9B9763",
"_@	c #A5A6A3",
":@	c #E1E3E0",
"<@	c #E6E7E4",
"[@	c #EAEBE9",
"}@	c #D2D3D2",
"|@	c #CBCBCB",
"1@	c #5B5B5B",
"2@	c #7B796F",
"3@	c #C3A003",
"4@	c #F2E14F",
"5@	c #EED815",
"6@	c #EED60F",
"7@	c #EED609",
"8@	c #EDD504",
"9@	c #EDD400",
"0@	c #B3A847",
"a@	c #CFD0CF",
"b@	c #898988",
"c@	c #DCDEDB",
"d@	c #E1E3DF",
"e@	c #E3E5E2",
"f@	c #CDCECD",
"g@	c #767676",
"h@	c #B7B7B6",
"i@	c #555555",
"j@	c #77725B",
"k@	c #C4A309",
"l@	c #F2DF46",
"m@	c #D5C31F",
"n@	c #C1C1BA",
"o@	c #DADBD7",
"p@	c #E0E2DE",
"q@	c #E2E4E0",
"r@	c #E4E5E3",
"s@	c #E7E8E6",
"t@	c #C6C6C5",
"u@	c #666666",
"v@	c #989996",
"w@	c #515151",
"x@	c #877F5A",
"y@	c #C8A80E",
"z@	c #F1DD36",
"A@	c #EDD402",
"B@	c #EDD401",
"C@	c #A3A185",
"D@	c #A8A9A7",
"E@	c #BFC0BF",
"F@	c #D1D1D1",
"G@	c #838581",
"H@	c #4D4D4D",
"I@	c #867A48",
"J@	c #CBAC10",
"K@	c #EFD923",
"L@	c #EDD300",
"M@	c #EDD200",
"N@	c #EDD100",
"O@	c #B1A64A",
"P@	c #D3D3D3",
"Q@	c #777877",
"R@	c #D7D9D4",
"S@	c #D9DAD6",
"T@	c #DFE1DD",
"U@	c #B8B9B7",
"V@	c #B6B7B5",
"W@	c #4A4A4A",
"X@	c #948646",
"Y@	c #D1B10E",
"Z@	c #F0D217",
"`@	c #EECC00",
" #	c #EECB00",
".#	c #E0C212",
"+#	c #B9B8AB",
"@#	c #BBBCB8",
"##	c #B2B2B1",
"$#	c #C8C8C8",
"%#	c #8D908B",
"&#	c #484848",
"*#	c #958437",
"=#	c #D8B40A",
"-#	c #EFC90E",
";#	c #EEC600",
">#	c #EEC500",
",#	c #EEC400",
"'#	c #9E9874",
")#	c #CCCCCC",
"!#	c #868785",
"~#	c #D6D7D3",
"{#	c #DADBD8",
"]#	c #AAABA9",
"^#	c #646464",
"/#	c #CCCDCC",
"(#	c #454545",
"_#	c #A69030",
":#	c #DDB406",
"<#	c #EFC207",
"[#	c #EFBF00",
"}#	c #EFBE00",
"|#	c #CFAD27",
"1#	c #C6C5BE",
"2#	c #B2B4B0",
"3#	c #D3D5D0",
"4#	c #D5D7D3",
"5#	c #D6D8D4",
"6#	c #A4A5A3",
"7#	c #626262",
"8#	c #6A6A6A",
"9#	c #979896",
"0#	c #444444",
"a#	c #AC921F",
"b#	c #E0B001",
"c#	c #F0B901",
"d#	c #F0B900",
"e#	c #F0B800",
"f#	c #F0B700",
"g#	c #A2976E",
"h#	c #7A7A79",
"i#	c #CDCFCA",
"j#	c #D1D3CE",
"k#	c #D2D4CF",
"l#	c #D3D5D1",
"m#	c #D4D6D1",
"n#	c #9FA09E",
"o#	c #C6C6C3",
"p#	c #424242",
"q#	c #BB9B12",
"r#	c #E6B000",
"s#	c #F0B400",
"t#	c #DFAD15",
"u#	c #B9B6AB",
"v#	c #989997",
"w#	c #CED0CB",
"x#	c #CFD1CC",
"y#	c #CFD2CD",
"z#	c #D0D2CD",
"A#	c #D0D2CE",
"B#	c #9FA19E",
"C#	c #929285",
"D#	c #928756",
"E#	c #C4A004",
"F#	c #EFB400",
"G#	c #AC9857",
"H#	c #ACADAA",
"I#	c #CCCEC9",
"J#	c #CCCFC9",
"K#	c #A0A19E",
"L#	c #B3B2A7",
"M#	c #BC9A05",
"N#	c #C4A000",
"O#	c #C29F04",
"P#	c #9C977A",
"Q#	c #B5B8B3",
"R#	c #C9CBC6",
"S#	c #C9CCC6",
"T#	c #CACCC7",
"U#	c #CACAC5",
"V#	c #908D6F",
"W#	c #A4A6A2",
"X#	c #ACAEAA",
"Y#	c #C6C9C3",
"Z#	c #D9D9D8",
"`#	c #898B87",
" $	c #A9AAA8",
".$	c #848584",
"+$	c #A2A4A0",
"@$	c #C3C6C0",
"#$	c #A0A29E",
"$$	c #D7D7D7",
"%$	c #8F908C",
"&$	c #9B9D99",
"*$	c #DBDBDB",
"=$	c #949593",
"-$	c #9A9B98",
";$	c #CDCDCC",
">$	c #898A86",
",$	c #91948F",
"'$	c #BDBEBC",
")$	c #878984",
"!$	c #8A8C87",
"~$	c #BCBCBB",
"{$	c #DEDEDE",
"]$	c #A4A5A2",
"^$	c #8B8D89",
"/$	c #888985",
"                                                                                                ",
"                                                                                                ",
"                                                                                                ",
"                                                                                                ",
"                                                                                                ",
"        . . . . . . . + + + + + + + + .                                                         ",
"      + @ # $ % & * = - - ; ; > > > > , '                                                       ",
"      . ) ! ~ , { ] ^ / ( _ : < [ [ } | 1                                                       ",
"      2 * 3 4 5 6 7 8 9 0 a b c c d e 7 f                                                       ",
"      ' g h 3 i _ : [ j k 4 l 5 m 6 7 7 f n                                                     ",
"      o p ( 7 q f a b d r s t u v v w w s x y y y y y y y y y y z z z z                         ",
"      A B C : [ k 4 5 6 D 8 9 f 0 a b c b b 7 i ~ C E E | h F G H p I h J                       ",
"      n K : a b e L t v w M 1 N . + + 2 2 2 2 2 + + + . N O P w v s r b J                       ",
"      Q K , R l 6 D 9 0 b d e L s t u v v v v v v u t s L e c b 0 q D m S                       ",
"      z / } r s T U V W X Y Z `  ...+.+.+.@.@.+.+.+... .` Z Y X #.V U $.%.                      ",
"      &./ *.7 8 =.-.-.-.-.-.;.;.>.>.,.,.'.'.).).).).).).).).).).).).).).!.~.~.~.~.~.~.{.        ",
"      J k R u P ].^././././.(.(.(.(._._._._.:.:.:.:.:.:.:.:._._._._.(.(.(.(././././.<.[.        ",
"      }.R i f |.1.2.3.4.4.4.4.4.4.4.4.4.4.4.4.4.4.4.4.4.4.4.5.5.5.6.7.7.7.7.8.8.9.0.a.b.        ",
"      c.8 l 1 d.e.f.4.4.4.4.4.4.4.4.4.4.4.4.4.4.4.4.4.4.4.4.4.g.h.i.j.k.4.4.4.4.4.l.m.n.        ",
"      o.9 p.d q.r.s.4.4.4.4.4.4.4.4.4.4.4.4.4.4.4.4.4.4.4.4.t.u.v.w.x.y.z.A.B.4.C.D.E.F.        ",
"      G.e 7 + H.I.J.4.4.4.4.4.4.4.4.4.4.4.4.4.4.4.4.4.4.K.L.M.N.F [ ( % O.P.Q.R.S.T.U.n.        ",
"        s [ t V.W.X.4.4.4.4.4.4.4.4.4.4.4.4.4.4.4.4.Y.Z.`. +.+3 ++@+m i h #+$+%+&+*+=+-+        ",
"        1 q A ;+>+,+4.4.4.4.4.4.4.4.4.4.4.4.4.'+)+!+~+$+{+- ]+^+/+(+f : E g _+> :+<+[+}+        ",
"        + R P |+1+2+4.4.4.4.4.4.4.4.4.4.3+4+5+6+7+:+- B 8+9+0+a+b+c+7 ( h = d+e+3 i - f+g+h+i+  ",
"        j+0 k+l+m+n+4.4.4.4.4.4.4.4.4.4.o+p+q+p 4 r+s+/+0+t+u+v+w+x+p., I = I C / R 0 v R y+z+  ",
"        A+l 1 B+C+D+4.4.4.4.4.4.4.4.4.4.E+F+G+H+I+J+K+b+L+M+N+O+P+Q+C p = @ G , p.5 b P A E R+  ",
"        S+b Q T+U+V+4.4.4.4.4.4.4.4.4.4.W+X+] I+Y+K+b+u+Z+O+`+ @.@+@@ & > p C 3 } D r N k+) @@  ",
"        }.6 + #@$@0.4.4.4.4.4.4.4.4.4.4.4.%@@ &@J+0+*@w+=@-@.@;@>@,@> d+B E *.p.5 a v ' y .+'@  ",
"        )@d &.!.!@~@4.4.4.4.4.4.4.{@]@^@/@(@.+_@/+0+L+Z+:@ @<@>@[@}@G | K ] p.4 q r 1 j+j+|@    ",
"        1@8 2@3@4@8.4.4.4.5@6@7@8@9@9@9@9@0@a@b@/+0+c@Z+d@e@<@>@[@f@, *./ < 4 8 d P g@y 0 h@    ",
"        i@L j@k@l@4.4.]@/@9@9@9@9@9@9@9@9@m@n@e I+o@t+w+p@q@r@<@s@t@p.< k m 9 e w 2 A+u@I v@    ",
"        w@f x@y@z@^@A@9@9@9@9@9@9@9@9@9@9@B@C@! D@/+0+*@w+p@P+-@ @E@m 7 q b L P 2 n J }.F@G@    ",
"        H@t I@J@K@L@L@L@M@M@M@M@M@M@M@N@N@N@O@P@Q@R@S@0+*@v+T@N+O+U@c e s w N g@A+J c.7 V@      ",
"        W@a X@Y@Z@`@`@`@`@`@`@`@ # # # # # #.#+#7 @#Y+/+o@b+*@L+u+##M O . g@j+z u@c.u@$#%#      ",
"        &#v *#=#-#;#;#;#;#>#>#>#>#>#>#>#,#,#,#'#)#!#^+~#J+/+K+{#0+]#A j+A+z J c.^#u@+ /#        ",
"        (#d _#:#<#[#[#[#[#[#[#[#}#}#}#}#}#}#}#|#1#0 2#3#^+4#5#5#J+6#S+S }.7#^#}.S 8#% 9#        ",
"        0#P a#b#c#d#d#d#d#e#e#e#e#e#e#e#f#f#f#f#g#y+h#i#j#k#3#l#m#n#^#^#}.u@S S+&.a o#          ",
"        p#r q#r#s#s#s#s#s#s#s#s#s#s#s#s#s#s#s#s#t#u#( v#w#x#y#z#A#B#J J S+8#&.y A+P@C#          ",
"        0#D#E#F#s#s#s#s#s#s#s#s#s#s#s#s#s#s#s#s#s#G#7+u H#I#J#i#i#K#z z y Q A+k+H L#            ",
"          M#N#N#N#N#N#N#N#N#N#N#N#N#N#N#N#N#N#N#N#O#P#{+1 Q#R#S#T#K#n n k+j+x < U#V#            ",
"                                                      W#.+1 X#Y#Y#K#A o o g@7 Z#`#              ",
"                                                         ${+.$+$@$#$2 + + / $$%$                ",
"                                                          &$*$7 =$-$O O B ;$>$                  ",
"                                                            ,$$$K v d # '$)$                    ",
"                                                              !$~${$*$]$                        ",
"                                                                  ^$/$                          ",
"                                                                                                ",
"                                                                                                "};
