/* XPM */
static const char * shp_dset_16_xpm[] = {
"16 16 156 2",
"  	c None",
". 	c #88E033",
"+ 	c #66A527",
"@ 	c #64A227",
"# 	c #619E25",
"$ 	c #5F9B23",
"% 	c #5C9721",
"& 	c #59941F",
"* 	c #56901D",
"= 	c #538D1A",
"- 	c #508A18",
"; 	c #4E8717",
"> 	c #4A8414",
", 	c #478011",
"' 	c #4F960A",
") 	c #141710",
"! 	c #425D27",
"~ 	c #1F2618",
"{ 	c #448209",
"] 	c #192113",
"^ 	c #95E546",
"/ 	c #90DE44",
"( 	c #92E244",
"_ 	c #8FDE43",
": 	c #2C4316",
"< 	c #448109",
"[ 	c #171E11",
"} 	c #568529",
"| 	c #1D2C0D",
"1 	c #91DE43",
"2 	c #90DF43",
"3 	c #8DDC41",
"4 	c #79BF36",
"5 	c #142106",
"6 	c #448108",
"7 	c #171E12",
"8 	c #3F611E",
"9 	c #71AD35",
"0 	c #73B036",
"a 	c #43671F",
"b 	c #8EDC41",
"c 	c #8BDA3F",
"d 	c #60972A",
"e 	c #3F6816",
"f 	c #20380A",
"g 	c #1B2315",
"h 	c #60942D",
"i 	c #486F22",
"j 	c #88D440",
"k 	c #8EDD42",
"l 	c #8BDB40",
"m 	c #88D43C",
"n 	c #466D1F",
"o 	c #538A1E",
"p 	c #75C824",
"q 	c #203709",
"r 	c #438108",
"s 	c #1C2416",
"t 	c #92E144",
"u 	c #84CD3E",
"v 	c #43691F",
"w 	c #5F952B",
"x 	c #78BE35",
"y 	c #355616",
"z 	c #67AD23",
"A 	c #72C622",
"B 	c #6FC220",
"C 	c #1E3508",
"D 	c #438008",
"E 	c #8BD93F",
"F 	c #84D436",
"G 	c #5C9921",
"H 	c #29460D",
"I 	c #6FBF21",
"J 	c #6EBF1F",
"K 	c #1C3108",
"L 	c #4C8814",
"M 	c #1D3307",
"N 	c #438007",
"O 	c #1D2516",
"P 	c #89D63D",
"Q 	c #7FCF2F",
"R 	c #71C123",
"S 	c #74C723",
"T 	c #345A0F",
"U 	c #6EBF1E",
"V 	c #69B91B",
"W 	c #1D3407",
"X 	c #4A8612",
"Y 	c #1B3206",
"Z 	c #427F07",
"` 	c #1D2517",
" .	c #86D33B",
"..	c #7CCE2F",
"+.	c #376011",
"@.	c #182A07",
"#.	c #6FC01F",
"$.	c #4A8214",
"%.	c #519014",
"&.	c #66B618",
"*.	c #63B316",
"=.	c #60AF14",
"-.	c #1A3005",
";.	c #87DF33",
">.	c #1E2618",
",.	c #7DCC31",
"'.	c #72C522",
").	c #549218",
"!.	c #3A6710",
"~.	c #69BB1B",
"{.	c #63B118",
"].	c #30570B",
"^.	c #60B014",
"/.	c #5EAD12",
"(.	c #5BA910",
"_.	c #192E04",
":.	c #417E06",
"<.	c #87DF32",
"[.	c #1D2416",
"}.	c #71C322",
"|.	c #6DBF1E",
"1.	c #6ABC1C",
"2.	c #67B819",
"3.	c #64B517",
"4.	c #61B115",
"5.	c #2B4F08",
"6.	c #5AA910",
"7.	c #58A60E",
"8.	c #55A30C",
"9.	c #172C03",
"0.	c #0E110A",
"a.	c #1A2F07",
"b.	c #1A2E06",
"c.	c #192D06",
"d.	c #182C05",
"e.	c #172B05",
"f.	c #172A04",
"g.	c #101E02",
"h.	c #122303",
"i.	c #152802",
"j.	c #142702",
"k.	c #050A00",
"l.	c #87DE32",
"m.	c #6DB626",
"n.	c #68AF22",
"o.	c #65AB20",
"p.	c #61A61E",
"q.	c #5EA21B",
"r.	c #5A9F18",
"s.	c #569A16",
"t.	c #539612",
"u.	c #509210",
"v.	c #4D8E0D",
"w.	c #498B0C",
"x.	c #468608",
"y.	c #4F9908",
"                                ",
"  . + @ # $ % & * = - ; > , '   ",
"  . ) ! ! ! ! ! ! ! ! ! ! ~ {   ",
"  . ] ^ ^ ^ ^ ^ / ^ ^ ( _ : <   ",
"  . [ / ^ ^ ^ } | 1 2 3 4 5 6   ",
"  . 7 8 9 ^ ^ 0 a b c d e f 6   ",
"  . g ^ h i j k l m n o p q r   ",
"  . s ^ t u v w x y z A B C D   ",
"  . s 2 3 E F G H I J K L M N   ",
"  . O c P Q R S T U V W X Y Z   ",
"  . `  ...+.@.#.$.%.&.*.=.-.Z   ",
"  ;.>.,.'.).!.~.{.].^./.(._.:.  ",
"  <.[.}.|.1.2.3.4.5.6.7.8.9.:.  ",
"  <.0.a.b.c.d.e.f.g.h.i.j.k.:.  ",
"  l.m.n.o.p.q.r.s.t.u.v.w.x.y.  ",
"                                "};
