/* XPM */
static const char * shp_dset_48_xpm[] = {
"48 48 564 2",
"  	c None",
". 	c #88E033",
"+ 	c #87DE32",
"@ 	c #85DD31",
"# 	c #84DB2F",
"$ 	c #83D92E",
"% 	c #81D72D",
"& 	c #80D62C",
"* 	c #7ED42B",
"= 	c #7DD22A",
"- 	c #7CD129",
"; 	c #7ACF28",
"> 	c #79CD27",
", 	c #77CB26",
"' 	c #76CA25",
") 	c #74C823",
"! 	c #73C622",
"~ 	c #72C521",
"{ 	c #70C320",
"] 	c #6FC11F",
"^ 	c #6DC01E",
"/ 	c #6CBE1D",
"( 	c #6ABC1C",
"_ 	c #69BA1B",
": 	c #68B91A",
"< 	c #66B718",
"[ 	c #65B517",
"} 	c #63B416",
"| 	c #62B215",
"1 	c #60B014",
"2 	c #5FAE13",
"3 	c #5EAD12",
"4 	c #5CAB11",
"5 	c #5BA910",
"6 	c #59A80F",
"7 	c #58A60E",
"8 	c #56A40C",
"9 	c #55A20B",
"0 	c #54A10A",
"a 	c #529F09",
"b 	c #519D08",
"c 	c #4F9C07",
"d 	c #8AE234",
"e 	c #2B4710",
"f 	c #2C4118",
"g 	c #334720",
"h 	c #334620",
"i 	c #324620",
"j 	c #32461F",
"k 	c #31451F",
"l 	c #31451E",
"m 	c #30441E",
"n 	c #30441D",
"o 	c #30431D",
"p 	c #30421D",
"q 	c #2F421C",
"r 	c #2F411C",
"s 	c #2E411C",
"t 	c #2E401C",
"u 	c #2E401B",
"v 	c #2D401B",
"w 	c #2D3F1B",
"x 	c #3D6913",
"y 	c #0C1405",
"z 	c #0F0F0F",
"A 	c #171717",
"B 	c #30520E",
"C 	c #101010",
"D 	c #181817",
"E 	c #1B1C18",
"F 	c #1A1C18",
"G 	c #121212",
"H 	c #2C500B",
"I 	c #2E3D20",
"J 	c #95E546",
"K 	c #94E345",
"L 	c #93E244",
"M 	c #92E144",
"N 	c #7EC03C",
"O 	c #080808",
"P 	c #2C4F0A",
"Q 	c #111111",
"R 	c #94E445",
"S 	c #93E344",
"T 	c #91E044",
"U 	c #90DF43",
"V 	c #7CBF3B",
"W 	c #131313",
"X 	c #000000",
"Y 	c #93E345",
"Z 	c #92E244",
"` 	c #8FDE43",
" .	c #8EDD42",
"..	c #7BBD3A",
"+.	c #94E446",
"@.	c #91E144",
"#.	c #90E043",
"$.	c #8DDC41",
"%.	c #8CDC40",
"&.	c #77BA36",
"*.	c #2C4E0A",
"=.	c #8FDB43",
"-.	c #4B7323",
";.	c #16210A",
">.	c #43661F",
",.	c #88D140",
"'.	c #8FDD42",
").	c #8EDC41",
"!.	c #8CDB40",
"~.	c #8BDA3F",
"{.	c #6FB62A",
"].	c #2B4E0A",
"^.	c #141414",
"/.	c #548027",
"(.	c #3C5C1C",
"_.	c #8FDE42",
":.	c #8BD93F",
"<.	c #80CC38",
"[.	c #233C0C",
"}.	c #2B4D0A",
"|.	c #0A0E07",
"1.	c #6EA934",
"2.	c #253911",
"3.	c #0D1406",
"4.	c #8BDA40",
"5.	c #8AD83E",
"6.	c #70B032",
"7.	c #131F07",
"8.	c #020401",
"9.	c #2A4D09",
"0.	c #070A05",
"a.	c #38561A",
"b.	c #8AD541",
"c.	c #486F22",
"d.	c #304A16",
"e.	c #8BDB40",
"f.	c #8BD83E",
"g.	c #8AD73D",
"h.	c #548325",
"i.	c #050702",
"j.	c #0F1905",
"k.	c #51891A",
"l.	c #161616",
"m.	c #2D3B1F",
"n.	c #497022",
"o.	c #030401",
"p.	c #62972E",
"q.	c #86CE3F",
"r.	c #314B17",
"s.	c #020301",
"t.	c #273D12",
"u.	c #78BA38",
"v.	c #8AD73E",
"w.	c #84CE3B",
"x.	c #324F16",
"y.	c #253F0C",
"z.	c #71BF24",
"A.	c #65AC20",
"B.	c #7CBE3A",
"C.	c #21320F",
"D.	c #2C4415",
"E.	c #84CB3E",
"F.	c #89D440",
"G.	c #8EDC42",
"H.	c #89D63D",
"I.	c #72B332",
"J.	c #17240A",
"K.	c #426F17",
"L.	c #78CB26",
"M.	c #77CB25",
"N.	c #63AA1F",
"O.	c #294C08",
"P.	c #0D1506",
"Q.	c #558328",
"R.	c #070B03",
"S.	c #080C04",
"T.	c #568428",
"U.	c #89D73D",
"V.	c #88D63C",
"W.	c #578827",
"X.	c #060903",
"Y.	c #0E1606",
"Z.	c #5F9E22",
"`.	c #77CC26",
" +	c #75C924",
".+	c #62A91E",
"++	c #0E1607",
"@+	c #83CA3E",
"#+	c #2C4315",
"$+	c #21330F",
"%+	c #7ABD39",
"&+	c #84CE3A",
"*+	c #365418",
"=+	c #253910",
"-+	c #72BC28",
";+	c #76CA24",
">+	c #75C824",
",+	c #74C723",
"'+	c #61A71D",
")+	c #294B08",
"!+	c #95E446",
"~+	c #61952D",
"{+	c #0D1306",
"]+	c #030502",
"^+	c #8DDA41",
"/+	c #88D53C",
"(+	c #74B633",
"_+	c #19280B",
":+	c #010200",
"<+	c #436A1D",
"[+	c #7ACB2B",
"}+	c #72C522",
"|+	c #5FA51C",
"1+	c #284B07",
"2+	c #0F1708",
"3+	c #87D03F",
"4+	c #365319",
"5+	c #17230B",
"6+	c #6CA932",
"7+	c #87D43B",
"8+	c #5A8D28",
"9+	c #070C03",
"0+	c #0C1305",
"a+	c #5F9926",
"b+	c #78CB28",
"c+	c #73C722",
"d+	c #71C421",
"e+	c #5EA41A",
"f+	c #101809",
"g+	c #67A130",
"h+	c #131D09",
"i+	c #010100",
"j+	c #39591A",
"k+	c #82CC3B",
"l+	c #87D43C",
"m+	c #83CE3A",
"n+	c #395A19",
"o+	c #20330E",
"p+	c #6EB727",
"q+	c #73C723",
"r+	c #72C622",
"s+	c #6FC220",
"t+	c #6EC11F",
"u+	c #5CA219",
"v+	c #284A07",
"w+	c #11180A",
"x+	c #86D03D",
"y+	c #3F621C",
"z+	c #0E1706",
"A+	c #5D9329",
"B+	c #84D339",
"C+	c #72B82E",
"D+	c #1B2C0A",
"E+	c #000100",
"F+	c #396112",
"G+	c #75C724",
"H+	c #70C220",
"I+	c #6EC01E",
"J+	c #6DBF1E",
"K+	c #5BA018",
"L+	c #11190A",
"M+	c #2E3C1F",
"N+	c #88D63D",
"O+	c #69AA2A",
"P+	c #182809",
"Q+	c #1D3109",
"R+	c #070C02",
"S+	c #090F03",
"T+	c #54901A",
"U+	c #528E17",
"V+	c #3D6A11",
"W+	c #65B21C",
"X+	c #6BBD1C",
"Y+	c #599F17",
"Z+	c #274A07",
"`+	c #121A0B",
" @	c #84D437",
".@	c #7DD12B",
"+@	c #406E14",
"@@	c #0C1404",
"#@	c #68B220",
"$@	c #6FC21F",
"%@	c #2C4C0C",
"&@	c #050901",
"*@	c #5EA619",
"=@	c #69BB1B",
"-@	c #589C16",
";@	c #274907",
">@	c #131B0C",
",@	c #87D53A",
"'@	c #7ED12E",
")@	c #79CE27",
"!@	c #78CD26",
"~@	c #25400B",
"{@	c #71C422",
"]@	c #67B51C",
"^@	c #040701",
"/@	c #35600D",
"(@	c #67B91A",
"_@	c #569A15",
":@	c #85D539",
"<@	c #7BD02A",
"[@	c #78CD27",
"}@	c #76C924",
"|@	c #4D8517",
"1@	c #518D18",
"2@	c #6DBF1D",
"3@	c #68B71C",
"4@	c #050A01",
"5@	c #38640E",
"6@	c #559913",
"7@	c #264906",
"8@	c #141C0D",
"9@	c #2D3B1E",
"0@	c #84D337",
"a@	c #7BCE28",
"b@	c #78CC26",
"c@	c #6EBE20",
"d@	c #050902",
"e@	c #29480C",
"f@	c #6ABC1B",
"g@	c #30550C",
"h@	c #091002",
"i@	c #5BA416",
"j@	c #64B417",
"k@	c #539713",
"l@	c #264806",
"m@	c #151D0D",
"n@	c #2D3A1E",
"o@	c #8BD93E",
"p@	c #83D236",
"q@	c #7ACE28",
"r@	c #72C424",
"s@	c #27440B",
"t@	c #060B02",
"u@	c #6ABA1D",
"v@	c #67B819",
"w@	c #539514",
"x@	c #3E700F",
"y@	c #61AF16",
"z@	c #63B316",
"A@	c #62B216",
"B@	c #529512",
"C@	c #161C0E",
"D@	c #2C3A1E",
"E@	c #86D33B",
"F@	c #83D237",
"G@	c #62A81F",
"H@	c #20370A",
"I@	c #030501",
"J@	c #2D4E0E",
"K@	c #6AB820",
"L@	c #4C8615",
"M@	c #498114",
"N@	c #68BA1A",
"O@	c #66B719",
"P@	c #65B618",
"Q@	c #64B517",
"R@	c #62B115",
"S@	c #61B014",
"T@	c #519410",
"U@	c #254705",
"V@	c #161D0F",
"W@	c #85D23A",
"X@	c #83D139",
"Y@	c #79CD29",
"Z@	c #76CB25",
"`@	c #243F0B",
" #	c #3C6811",
".#	c #69BA1C",
"+#	c #070D02",
"@#	c #243F09",
"##	c #69BA1A",
"$#	c #66B618",
"%#	c #61B114",
"&#	c #60AF14",
"*#	c #4F920F",
"=#	c #171E10",
"-#	c #2C3A1D",
";#	c #86D23A",
">#	c #84D139",
",#	c #7ACC2A",
"'#	c #1F3609",
")#	c #6ABB1B",
"!#	c #29480A",
"~#	c #63B018",
"{#	c #61B115",
"]#	c #5DAC12",
"^#	c #4E900E",
"/#	c #171F10",
"(#	c #2B3A1D",
"_#	c #84D13A",
":#	c #83D039",
"<#	c #7CCC2F",
"[#	c #28460C",
"}#	c #3F6E11",
"|#	c #4C8712",
"1#	c #427610",
"2#	c #5FAF13",
"3#	c #5EAE13",
"4#	c #5BAA10",
"5#	c #4C8E0D",
"6#	c #254605",
"7#	c #181F11",
"8#	c #2B391D",
"9#	c #82CF39",
"0#	c #7FCD35",
"a#	c #62AC1C",
"b#	c #2B4B0C",
"c#	c #0D1704",
"d#	c #365F0E",
"e#	c #67B61B",
"f#	c #64B418",
"g#	c #1E3707",
"h#	c #62B316",
"i#	c #60AF13",
"j#	c #5DAB11",
"k#	c #5CAA10",
"l#	c #5AA80F",
"m#	c #4B8D0C",
"n#	c #254604",
"o#	c #182012",
"p#	c #80CD37",
"q#	c #76C828",
"r#	c #71C521",
"s#	c #71C320",
"t#	c #6CBD1D",
"u#	c #6BBC1C",
"v#	c #2A4C09",
"w#	c #020400",
"x#	c #5BA513",
"y#	c #5DAC11",
"z#	c #59A70E",
"A#	c #498B0B",
"B#	c #244604",
"C#	c #192113",
"D#	c #2A391C",
"E#	c #7AC92E",
"F#	c #4B8810",
"G#	c #3B6C0C",
"H#	c #57A50D",
"I#	c #488909",
"J#	c #244504",
"K#	c #1A2113",
"L#	c #28361A",
"M#	c #72C422",
"N#	c #6EC01F",
"O#	c #0B1402",
"P#	c #1A2F05",
"Q#	c #5AA90F",
"R#	c #55A30C",
"S#	c #54A20B",
"T#	c #468708",
"U#	c #234504",
"V#	c #1B2114",
"W#	c #1C2A0D",
"X#	c #5DAD12",
"Y#	c #2A4E08",
"Z#	c #010300",
"`#	c #549B0F",
" $	c #58A50D",
".$	c #57A40D",
"+$	c #56A30C",
"@$	c #53A00A",
"#$	c #458508",
"$$	c #234403",
"%$	c #1B2214",
"&$	c #101C04",
"*$	c #559617",
"=$	c #559517",
"-$	c #549317",
";$	c #549316",
">$	c #539215",
",$	c #529114",
"'$	c #519014",
")$	c #509014",
"!$	c #508E13",
"~$	c #4F8D12",
"{$	c #4E8C12",
"]$	c #4D8C11",
"^$	c #4C8B10",
"/$	c #4C8910",
"($	c #4B8910",
"_$	c #4A880F",
":$	c #49870E",
"<$	c #49860D",
"[$	c #48850D",
"}$	c #396A0A",
"|$	c #294C06",
"1$	c #45820B",
"2$	c #44810A",
"3$	c #437F09",
"4$	c #427E09",
"5$	c #427E08",
"6$	c #417D08",
"7$	c #407C07",
"8$	c #3F7B06",
"9$	c #356705",
"0$	c #1C2214",
"a$	c #040404",
"b$	c #151C0E",
"c$	c #457318",
"d$	c #3B6512",
"e$	c #3A6412",
"f$	c #3A6411",
"g$	c #396311",
"h$	c #386210",
"i$	c #386110",
"j$	c #37610F",
"k$	c #37600F",
"l$	c #365F0F",
"m$	c #355E0E",
"n$	c #345D0D",
"o$	c #345C0D",
"p$	c #335C0C",
"q$	c #325B0C",
"r$	c #325A0B",
"s$	c #315A0B",
"t$	c #31590B",
"u$	c #30580A",
"v$	c #30570A",
"w$	c #2F5709",
"x$	c #2F5609",
"y$	c #2E5508",
"z$	c #2D5508",
"A$	c #2D5407",
"B$	c #2C5307",
"C$	c #2C5206",
"D$	c #2B5206",
"E$	c #2A5105",
"F$	c #2A5005",
"G$	c #295005",
"H$	c #294F04",
"I$	c #284F04",
"J$	c #284E04",
"K$	c #3A7106",
"L$	c #87DD33",
"M$	c #83DB2F",
"N$	c #83DA2F",
"O$	c #81D82D",
"P$	c #80D62B",
"Q$	c #7ED229",
"R$	c #7CD029",
"S$	c #7ACE27",
"T$	c #7ACC27",
"U$	c #76CB26",
"V$	c #74C924",
"W$	c #72C722",
"X$	c #6FC120",
"Y$	c #6DBD1C",
"Z$	c #67BA1A",
"`$	c #65B818",
" %	c #65B617",
".%	c #63B417",
"+%	c #60B015",
"@%	c #60AE13",
"#%	c #5EAD13",
"$%	c #5CA911",
"%%	c #58A90F",
"&%	c #58A70D",
"*%	c #56A30B",
"=%	c #54A10B",
"-%	c #54A109",
";%	c #539F09",
"                                                                                                ",
"                                                                                                ",
"                                                                                                ",
"        . + @ # $ % & * = - ; > , ' ) ! ~ { ] ^ / ( _ : < [ } | 1 2 3 4 5 6 7 8 9 0 a b c       ",
"      d . + @ # $ % & * = - ; > , ' ) ! ~ { ] ^ / ( _ : < [ } | 1 2 3 4 5 6 7 8 9 0 a b c       ",
"      d . + e f g h h i j j j j k k l l l m m m n o o o p p q q r r r s t u u v w w x b c       ",
"      d . + y z A A A A A A A A A A A A A A A A A A A A A A A A A A A A A A A A A A B b c       ",
"      d . + y C D E E E E E E E E E E E E E E E E E E E E E E E E E E E E E E F A G H b c       ",
"      d . + y C I J J J J J J J J J J J J J J J J J J J J J J J J J J J K L M N A O P b c       ",
"      d . + y Q I J J J J J J J J J J J J J J J J J J J J J J J J J R S M T U V W X P b c       ",
"      d . + y G I J J J J J J J J J J J J J J J J J J J J J J J R Y Z T U `  ...O X P b c       ",
"      d . + y W I J J J J J J J J J J J J J J J J J J J J J +.Y Z @.#.`  .$.%.&.X X *.b c       ",
"      d . + y W I J J J J J J J J J J J J J =.-.;.>.,.J J K L M T U '.).$.!.~.{.X X ].b c       ",
"      d . + y ^.I J J J J J J J J J J J J J /.X X X (.R L M T U _. .$.!.~.:.<.[.X X }.b c       ",
"      d . + y ^.|.1.J J J J J J J J J J J J 2.X X X 3.Z T U `  .$.!.4.:.5.6.7.8.X X 9.b c       ",
"      d . + y G 0.X a.b.J J J J J J J J J J c.X X X d.#.`  .$.%.e.:.f.g.h.i.j.k.X X 9.b c       ",
"      d . + y l.m.n.o.3.p.J J J J J J J J J q.r.s.t.u.'.).$.!.~.f.v.w.x.X y.z.A.X X 9.b c       ",
"      d . + y A I J B.C.X D.E.J J J J J R L M T F._.G.$.!.~.:.5.H.I.J.s.K.L.M.N.X X O.b c       ",
"      d . + P.A I J J K Q.R.S.T.K J R Y Z T U `  .$.!.~.:.5.U.V.W.X.Y.Z.`.'  +.+X X O.b c       ",
"      d . + ++A I J J J J @+#+X $+%+Z @.U `  .$.%.e.:.5.g.H.&+*+X =+-+M.;+>+,+'+X X )+b c       ",
"      d . + ++A I J J J J J !+~+{+]+c.^+'.).$.!.~.f.v.H./+(+_+:+<+[+'  +,+! }+|+X X 1+b c       ",
"      d . + 2+A I J J J J R L M 3+4+X 5+6+!.~.:.5.H./+7+8+9+0+a+b+ +) c+}+d+{ e+X X 1+b c       ",
"      d . + f+A I J J R Y M T U `  .g+h+i+j+k+U./+l+m+n+X o+p+ +) q+r+d+{ s+t+u+X X v+b c       ",
"      d . + w+A I R Y Z @.U `  .$.%.4.x+y+s.z+A+B+C+D+E+F+G+>+,+! ~ d+H+] I+J+K+X X v+b c       ",
"      d . + L+A M+L M T U '.).$.!.~.f.v.N+O+P+X Q+R+S+T+ +,+! ~ d+{ U+V+W+/ X+Y+X X Z+b c       ",
"      d . + `+A M+T U _.G.$.!.~.:.5.H. @.@; , +@s.@@#@) ! }+d+{ $@%@X X &@*@=@-@X X ;@b c       ",
"      d . + >@A M+_. .$.!.~.:.5.U.,@'@; )@!@, ' ~@S+{@r+d+{ s+t+]@^@X X X /@(@_@X X ;@b c       ",
"      d . + >@A m.$.%.4.:.5.U.N+:@<@)@[@`.M.}@>+|@X 1@d+H+] I+2@3@4@X X X 5@< 6@X X 7@b c       ",
"      d . + 8@A 9@!.~.f.v.H./+0@a@> b@M.;+ +,+! c@d@e@] I+J+/ X+f@g@X X h@i@j@k@X X l@b c       ",
"      d . + m@A n@o@v.H./+7+p@q@b@M.r@ +) ! }+d+{ s@t@u@/ X+( =@: v@w@x@y@z@A@B@X X l@b c       ",
"      d . + C@A D@U./+l+E@F@> , G@H@I@J@K@d+{ s+t+L@X M@( =@N@(@O@P@Q@} z@R@S@T@X X U@b c       ",
"      d . + V@A D@l+E@W@X@Y@Z@ +`@X X X  #H+] I+2@.#+#@###: v@$#[ j@z@| %#&#2 *#X X U@b c       ",
"      d . + =#A -#;#W@>#,#;+>+,+R+X X X '#I+J+/ X+)#!#^@~#< P@j@z@| {#1 2 3 ]#^#X X U@b c       ",
"      d . + /#A (#_#:#<# +) ! }+[#X X X }#/ X+( =@: |#X 1#Q@z@A@{#1 2#3#]#4 4#5#X X 6#b c       ",
"      d . + 7#A 8#9#0#) q+}+d+{ a#b#c#d#e#( =@N@v@O@f#h@g#h#{#1 i#2 3 j#k#5 l#m#X X n#b c       ",
"      d . + o#A 8#p#q#r+r#s#H+] I+2@t#u#)###: v@$#[ j@v#w#x#&#2 3 y#4 5 l#z#7 A#X X B#b c       ",
"      d . + C#A D#E#~ d+{ ] I+J+/ X+)#_ : v@< P@j@z@| F#X G#3 ]#4 4#l#z#7 H#8 I#X X J#b c       ",
"      d . + K#A L#M#{ $@N#J+/ X+( =@: v@O@P@Q@z@| {#1 2 O#P#4 4#Q#6 7 H#8 R#S#T#X X U#b c       ",
"      d . + V#A W#$@t+^ / X+( =@N@v@O@P@Q@} A@{#1 2#3#X#Y#Z#`#l#z# $.$+$9 0 @$#$X X $$b c       ",
"      d . + %$C &$*$=$-$;$>$,$'$)$!$~${$]$^$/$($_$:$<$[$}$X |$1$2$3$4$5$6$7$8$9$X X $$b c       ",
"      d . + 0$a$X X X X X X X X X X X X X X X X X X X X X X X X X X X X X X X X X X $$b c       ",
"      d . + b$X X X X X X X X X X X X X X X X X X X X X X X X X X X X X X X X X X X $$b c       ",
"      d . + c$d$e$f$g$h$i$j$k$l$m$m$n$o$p$q$r$s$t$u$v$w$x$y$z$A$B$C$D$E$F$G$G$H$I$J$K$b c       ",
"      d . + @ # $ % & * = - ; > , ' ) ! ~ { ] ^ / ( _ : < [ } | 1 2 3 4 5 6 7 8 9 0 a b c       ",
"        . + @ # $ % & * = - ; > , ' ) ! ~ { ] ^ / ( _ : < [ } | 1 2 3 4 5 6 7 8 9 0 a b c       ",
"          L$@ M$N$O$P$* Q$R$S$T$U$U$V$W$}+s#X$J+Y$u###Z$`$ %.%| +%@%#%4 $%%%&%*%=%-%;%b         ",
"                                                                                                ",
"                                                                                                "};
