/* XPM */
static const char * splitter_switch_xpm[] = {
"16 16 22 1",
" 	c None",
".	c #555753",
"+	c #A2A3A1",
"@	c #E5E5E4",
"#	c #C1C2C1",
"$	c #BABBB9",
"%	c #5D605C",
"&	c #565954",
"*	c #DDDEDD",
"=	c #595A57",
"-	c #DDDDDC",
";	c #BABBBA",
">	c #595B57",
",	c #BBBCBA",
"'	c #585B57",
")	c #575854",
"!	c #BBBCBB",
"~	c #BCBCBB",
"{	c #565955",
"]	c #A6A7A4",
"^	c #E5E6E5",
"/	c #C2C3C2",
"                ",
" .............. ",
" .+@@@@@@@@@@#. ",
" .$    %&    *. ",
" .$    =.    -. ",
" .;    =.    -. ",
" .;    >.    -. ",
" .,    '.    -. ",
" .,    ).    -. ",
" .!    ..    -. ",
" .!    ..    -. ",
" .~    ..    -. ",
" .~    {.    -. ",
" .]^^^^^^^^^^/. ",
" .............. ",
"                "};
