/* XPM */
static const char *sr_16_xpm[] = {
/* width height num_colors chars_per_pixel */
"    16    16      256            2",
/* colors */
"`` c #ffffff",
"`. c #f8f8f8",
"`# c #f0f0ef",
"`a c #f4f4f4",
"`b c #9c9e9a",
"`c c #a2a49f",
"`d c #a6a8a3",
"`e c #a2a39f",
"`f c #92938f",
"`g c #f3f3f3",
"`h c #969793",
"`i c #fcfcfc",
"`j c #f6f6f6",
"`k c #c6c6c6",
"`l c #e8e8e8",
"`m c #fdfdfd",
"`n c #f7f7f7",
"`o c #d8d8d8",
"`p c #fefefe",
"`q c #b7b8b5",
"`r c #c2c2c1",
"`s c #282828",
"`t c #4e4e4d",
"`u c #dfdfde",
"`v c #3f3f3f",
"`w c #7e7e7e",
"`x c #f8f8f7",
"`y c #f7f7f6",
"`z c #f5f5f5",
"`A c #dddddd",
"`B c #aeafac",
"`C c #f1f1f0",
"`D c #757574",
"`E c #0a0a0a",
"`F c #272727",
"`G c #f5f5f4",
"`H c #f6f6f5",
"`I c #cacac9",
"`J c #a0a0a0",
"`K c #aaaaa8",
"`L c #bfbfbe",
"`M c #121212",
"`N c #474747",
"`O c #ececeb",
"`P c #2d2d2d",
"`Q c #d5d5d5",
"`R c #b6b7b4",
"`S c #fcfcfb",
"`T c #e7e7e7",
"`U c #1e1e1e",
"`V c #acacab",
"`W c #efefee",
"`X c #797979",
"`Y c #131313",
"`Z c #444444",
"`0 c #4d4d4d",
"`1 c #515151",
"`2 c #dadad9",
"`3 c #4e4e4e",
"`4 c #6a6a6a",
"`5 c #f3f3f2",
"`6 c #f1f1f1",
"`7 c #f0f0f0",
"`8 c #959594",
".` c #050505",
".. c #3a3a3a",
".# c #ebebeb",
".a c #fbfbfb",
".b c #8b8b8b",
".c c #0c0c0c",
".d c #1c1c1c",
".e c #ebebea",
".f c #efefef",
".g c #e2e2e1",
".h c #1f1f1f",
".i c #a6a6a6",
".j c #7a7a7a",
".k c #a9a9a9",
".l c #b5b7b3",
".m c #959793",
".n c #cbcbcb",
".o c #101010",
".p c #2f2f2f",
".q c #3d3d3d",
".r c #cecece",
".s c #ededed",
".t c #585858",
".u c #626262",
".v c #e9e9e9",
".w c #959792",
".x c #fafaf9",
".y c #353535",
".z c #979796",
".A c #ececec",
".B c #878787",
".C c #141414",
".D c #5a5a5a",
".E c #242424",
".F c #e0e0e0",
".G c #e6e6e5",
".H c #b5b7b4",
".I c #616161",
".J c #b8b8b8",
".K c #060606",
".L c #2b2b2b",
".M c #c5c5c4",
".N c #e6e6e4",
".O c #e5e5e3",
".P c #f4f4f3",
".Q c #e2e2e2",
".R c #eaeaea",
".S c #424242",
".T c #767675",
".U c #8b8b8a",
".V c #151515",
".W c #7c7c7a",
".X c #e1e1de",
".Y c #f4f4f2",
".Z c #fafafa",
".0 c #b9b9b9",
".1 c #eeeeed",
".2 c #bfbfbf",
".3 c #d0d0cf",
".4 c #fbfbfa",
".5 c #9a9c98",
".6 c #b4b5b2",
".7 c #afb0ae",
".8 c #b3b5b2",
"#` c #b3b5b1",
"#. c #b0b2ae",
"## c #949692",
"#a c #eeeeee",
"#b c #000000",
"#c c #000000",
"#d c #000000",
"#e c #000000",
"#f c #000000",
"#g c #000000",
"#h c #000000",
"#i c #000000",
"#j c #000000",
"#k c #000000",
"#l c #000000",
"#m c #000000",
"#n c #000000",
"#o c #000000",
"#p c #000000",
"#q c #000000",
"#r c #000000",
"#s c #000000",
"#t c #000000",
"#u c #000000",
"#v c #000000",
"#w c #000000",
"#x c #000000",
"#y c #000000",
"#z c #000000",
"#A c #000000",
"#B c #000000",
"#C c #000000",
"#D c #000000",
"#E c #000000",
"#F c #000000",
"#G c #000000",
"#H c #000000",
"#I c #000000",
"#J c #000000",
"#K c #000000",
"#L c #000000",
"#M c #000000",
"#N c #000000",
"#O c #000000",
"#P c #000000",
"#Q c #000000",
"#R c #000000",
"#S c #000000",
"#T c #000000",
"#U c #000000",
"#V c #000000",
"#W c #000000",
"#X c #000000",
"#Y c #000000",
"#Z c #000000",
"#0 c #000000",
"#1 c #000000",
"#2 c #000000",
"#3 c #000000",
"#4 c #000000",
"#5 c #000000",
"#6 c #000000",
"#7 c #000000",
"#8 c #000000",
"a` c #000000",
"a. c #000000",
"a# c #000000",
"aa c #000000",
"ab c #000000",
"ac c #000000",
"ad c #000000",
"ae c #000000",
"af c #000000",
"ag c #000000",
"ah c #000000",
"ai c #000000",
"aj c #000000",
"ak c #000000",
"al c #000000",
"am c #000000",
"an c #000000",
"ao c #000000",
"ap c #000000",
"aq c #000000",
"ar c #000000",
"as c #000000",
"at c #000000",
"au c #000000",
"av c #000000",
"aw c #000000",
"ax c #000000",
"ay c #000000",
"az c #000000",
"aA c #000000",
"aB c #000000",
"aC c #000000",
"aD c #000000",
"aE c #000000",
"aF c #000000",
"aG c #000000",
"aH c #000000",
"aI c #000000",
"aJ c #000000",
"aK c #000000",
"aL c #000000",
"aM c #000000",
"aN c #000000",
"aO c #000000",
"aP c #000000",
"aQ c #000000",
"aR c #000000",
"aS c #000000",
"aT c #000000",
"aU c #000000",
"aV c #000000",
"aW c #000000",
"aX c #000000",
"aY c #000000",
"aZ c #000000",
"a0 c #000000",
"a1 c #000000",
"a2 c #000000",
"a3 c #000000",
"a4 c #000000",
"a5 c #000000",
"a6 c #000000",
"a7 c #000000",
"a8 c #000000",
/* pixels */
"```.`#`#`#`#`#`#`#`#`#`#`#`#`a``",
"```b`c`d`e`d`d`d`d`d`d`d`d`d`f`g",
"```h`i`j`k`l`m`m`n`o`m`m`m`p`q`#",
"```h`i`.`r`s`t`u`v`w`x`y`z`A`B`#",
"```h`i`.`x`C`D`E`F`G`H`a`I`J`K`#",
"```h`i`.`x`x`L`M`F`N`o`O`P`Q`R`#",
"```h`S`.`x`T`U`V`W`X`Y`Z`0`.`R`#",
"```h`W`1`2`3`4`5`6`7`8.`...#`R`#",
"```h.a.b.c.d.e`7.f.g.h.i.j.k.l`#",
"``.m.a.n.o.p.q.r.s.t.u.v`l`g`R`#",
"``.w.x.y.z.A.B.C.D.E.F`T.G`G.H`#",
"``.w`T.I.s.A.#.J.K.L.M.N.O.P.l`#",
"``.w`n.Q.#.R`l.S.T.U.V.W.X.Y.l`#",
"``.w.Z`.`n`n.Q.0`z`H.1.2.3.4.l`#",
"``.5`B.6.6.6.6.7.8#`#`#`#.#`##`g",
"``.P`l`l`l`l`l`l`l`l`l`l`l`l#a``"
};
