/* XPM */
static const char *sr_48_xpm[] = {
/* width height num_colors chars_per_pixel */
"    48    48      256            2",
/* colors */
"`` c None",
"`. c #e4e4e3",
"`# c #cfd0ce",
"`a c #dbdbda",
"`b c #8a8c87",
"`c c #888a85",
"`d c #c0c1be",
"`e c #bbbcb9",
"`f c #dadbd9",
"`g c #d9d9d8",
"`h c #d6d6d5",
"`i c #cdcecb",
"`j c #e5e5e4",
"`k c #ffffff",
"`l c #fbfcfb",
"`m c #fbfbfb",
"`n c #fafafa",
"`o c #e7e7e6",
"`p c #b9b9b9",
"`q c #c0c0c0",
"`r c #d0d0d0",
"`s c #bbbbbb",
"`t c #bcbcbc",
"`u c #d3d3d3",
"`v c #efefee",
"`w c #d2d2d2",
"`x c #d9d9d9",
"`y c #f9f9f8",
"`z c #fefefe",
"`A c #fafaf9",
"`B c #f8f8f7",
"`C c #b9b9b8",
"`D c #999999",
"`E c #c9c9c9",
"`F c #f1f1f0",
"`G c #cbcbcb",
"`H c #a5a5a5",
"`I c #afafaf",
"`J c #d6d6d6",
"`K c #f6f6f5",
"`L c #9d9d9d",
"`M c #9a9a9a",
"`N c #ececeb",
"`O c #9b9b9b",
"`P c #ededec",
"`Q c #f7f7f6",
"`R c #dcdcdb",
"`S c #b5b5b5",
"`T c #a1a1a1",
"`U c #c7c7c6",
"`V c #cececd",
"`W c #b6b6b6",
"`X c #f5f5f4",
"`Y c #cfcfce",
"`Z c #b2b2b2",
"`0 c #c6c6c5",
"`1 c #a0a0a0",
"`2 c #b6b6b5",
"`3 c #dddddc",
"`4 c #a8a8a7",
"`5 c #f4f4f4",
"`6 c #f4f4f3",
"`7 c #acacab",
"`8 c #aeaeae",
".` c #eeeeed",
".. c #f3f3f3",
".# c #fefefd",
".a c #d3d3d2",
".b c #9f9f9f",
".c c #f6f6f6",
".d c #bebebe",
".e c #9c9c9c",
".f c #bababa",
".g c #e0e0e0",
".h c #fdfdfd",
".i c #b3b3b3",
".j c #e8e8e7",
".k c #c3c3c2",
".l c #ebebeb",
".m c #a6a6a6",
".n c #f5f5f5",
".o c #bfbfbf",
".p c #e2e2e1",
".q c #e3e3e2",
".r c #c7c7c7",
".s c #babab9",
".t c #f2f2f2",
".u c #f9f9f9",
".v c #b0b0b0",
".w c #c6c6c6",
".x c #a8a8a8",
".y c #f2f2f1",
".z c #a4a4a4",
".A c #dededd",
".B c #f1f1f1",
".C c #e7e7e7",
".D c #f8f8f8",
".E c #b7b7b6",
".F c #b8b8b8",
".G c #f3f3f2",
".H c #d7d7d7",
".I c #a9a9a8",
".J c #f0f0f0",
".K c #f0f0ef",
".L c #efefef",
".M c #e9e9e8",
".N c #a3a3a3",
".O c #cdcdcc",
".P c #cdcdcd",
".Q c #a6a6a5",
".R c #9e9e9e",
".S c #c5c5c4",
".T c #e6e6e6",
".U c #ececec",
".V c #eeeeee",
".W c #a9a9a9",
".X c #d8d8d7",
".Y c #a2a2a2",
".Z c #bdbdbc",
".0 c #c2c2c2",
".1 c #ededed",
".2 c #e4e4e4",
".3 c #d1d1d0",
".4 c #a7a7a7",
".5 c #dfdfde",
".6 c #e0e0df",
".7 c #c0c0bf",
".8 c #d7d7d6",
"#` c #acacac",
"#. c #afafae",
"## c #d1d1d1",
"#a c #adadad",
"#b c #dcdcdc",
"#c c #d0d0cf",
"#d c #fcfcfc",
"#e c #eaeae9",
"#f c #eaeaea",
"#g c #e4e5e4",
"#h c #cbcbca",
"#i c #c1c1c1",
"#j c #e5e5e5",
"#k c #ebebea",
"#l c #e9e9e9",
"#m c #dedede",
"#n c #e8e8e8",
"#o c #d9dad9",
"#p c #b4b4b4",
"#q c #e3e3e3",
"#r c #c8c8c8",
"#s c #cccccc",
"#t c #b0b0af",
"#u c #d8d8d8",
"#v c #cecece",
"#w c #898b86",
"#x c #b7b7b7",
"#y c #b8b8b7",
"#z c #c9c9c8",
"#A c #bebebd",
"#B c #e2e2e2",
"#C c #e1e1e1",
"#D c #e6e6e5",
"#E c #e6e6e4",
"#F c #cacaca",
"#G c #b1b1b1",
"#H c #e5e5e3",
"#I c #fcfcfb",
"#J c #e3e4e3",
"#K c #e1e1e0",
"#L c #e5e5e2",
"#M c #e4e4e2",
"#N c #e3e4e2",
"#O c #d4d4d4",
"#P c #dbdbdb",
"#Q c #e4e4e1",
"#R c #b2b2b1",
"#S c #d4d4d2",
"#T c #e3e3e0",
"#U c #d5d5d5",
"#V c #aaaaa9",
"#W c #cdcdcb",
"#X c #e2e3e2",
"#Y c #d9d9d7",
"#Z c #c5c5c3",
"#0 c #e0e0dd",
"#1 c #e3e3df",
"#2 c #c8c8c7",
"#3 c #dddddb",
"#4 c #bebebc",
"#5 c #9f9f9e",
"#6 c #bdbdbb",
"#7 c #dcdcd8",
"#8 c #fdfdfc",
"a` c #f7f7f7",
"a. c #dfe0df",
"a# c #d2d3d1",
"aa c #d7d8d6",
"ab c #000000",
"ac c #000000",
"ad c #000000",
"ae c #000000",
"af c #000000",
"ag c #000000",
"ah c #000000",
"ai c #000000",
"aj c #000000",
"ak c #000000",
"al c #000000",
"am c #000000",
"an c #000000",
"ao c #000000",
"ap c #000000",
"aq c #000000",
"ar c #000000",
"as c #000000",
"at c #000000",
"au c #000000",
"av c #000000",
"aw c #000000",
"ax c #000000",
"ay c #000000",
"az c #000000",
"aA c #000000",
"aB c #000000",
"aC c #000000",
"aD c #000000",
"aE c #000000",
"aF c #000000",
"aG c #000000",
"aH c #000000",
"aI c #000000",
"aJ c #000000",
"aK c #000000",
"aL c #000000",
"aM c #000000",
"aN c #000000",
"aO c #000000",
"aP c #000000",
"aQ c #000000",
"aR c #000000",
"aS c #000000",
"aT c #000000",
"aU c #000000",
"aV c #000000",
"aW c #000000",
"aX c #000000",
"aY c #000000",
"aZ c #000000",
"a0 c #000000",
"a1 c #000000",
"a2 c #000000",
"a3 c #000000",
"a4 c #000000",
"a5 c #000000",
"a6 c #000000",
"a7 c #000000",
"a8 c #000000",
/* pixels */
"````````````````````````````````````````````````````````````````````````````````````````````````",
"````````````````````````````````````````````````````````````````````````````````````````````````",
"````````````````````````````````````````````````````````````````````````````````````````````````",
"`````````.`#`#`#`#`#`#`#`#`#`#`#`#`#`#`#`#`#`#`#`#`#`#`#`#`#`#`#`#`#`#`#`#`#`#`#`#`#`#`.````````",
"```````a`b`c`c`c`c`c`c`c`c`c`c`c`c`c`c`c`c`c`c`c`c`c`c`c`c`c`c`c`c`c`c`c`c`c`c`c`c`c`c`b`a``````",
"```````d`c`e`f`f`f`f`f`f`f`f`f`f`f`f`f`g`h`f`f`f`f`f`f`f`f`f`f`f`f`f`f`f`f`f`f`f`f`f`i`c`d``````",
"```````d`c`j`k`k`k`k`k`k`k`k`k`k`k`k`k`k`k`k`k`k`k`k`k`k`k`k`k`k`k`k`k`k`k`k`k`k`k`k`l`c`d``````",
"```````d`c`j`k`k`k`k`k`k`k`k`k`k`k`k`k`k`k`k`k`k`k`k`k`k`k`k`k`k`k`k`k`k`k`k`k`k`k`k`m`c`d``````",
"```````d`c`j`k`k`m`n`n`n`n`n`n`n`n`n`o`p`q`r`s`p`p`t`u`v`n`n`n`n`n`n`n`n`w`p`x`y`z`k`m`c`d``````",
"```````d`c`j`k`k`A`B`B`B`B`B`B`B`B`B`C`D`E`B`F`G`H`D`D`D`I`J`K`B`B`B`B`F`L`M`N`K`z`k`m`c`d``````",
"```````d`c`j`k`k`A`B`B`B`B`B`B`B`B`F`O`D`P`B`B`B`Q`R`S`M`D`D`T`U`P`Q`Q`V`D`W`X`X`z`k`m`c`d``````",
"```````d`c`j`k`k`A`B`B`B`B`B`B`B`B`Y`D`Z`B`B`B`B`B`B`B`N`0`1`D`D`M`2`3`4`D`R`5`6`z`k`m`c`d``````",
"```````d`c`j`k`k`A`B`B`B`B`B`B`B`B`7`D`h`B`B`B`B`B`B`B`B`B`X`h`8`D`D`D`D`1.``6...#`k`m`c`d``````",
"```````d`c`j`k`k.a.``B`B`B`B`B`B`o`D.b`6`B`B`B`B`B`B`B`B`Q`Q.c`K`j.d`M`D`D.e.f.g.h`k`m`c`d``````",
"```````d`c`j`k`k.i`O`t.j`B`B`B`B.k`D.d`B`B`B`B`B`B`B`Q`Q`Q`K`K`X`X.l`O`O.m`D`D`D.n`k`m`c`d``````",
"```````d`c`j`k`k.o`D`D`D`W.p`B`K`1`D.q`B`B`B`B`B`B`Q`Q`K`K`X`X`5`6.r`D.s.t`R`W`O..`k.u`c`d``````",
"```````d`c`j`k`k`A`R.v`D`D`D`8.w`D.x`B`B`B`B`B`Q`Q`K`K.n`X`X`6`6.y.z`D.A.B`F`F.C.D`k`n`c`d``````",
"```````d`c`j`k`k`A`B`B`..E`M`D`D`D.F`K`B`B`Q`Q`K`K`K`X`X`6`6...G.H`D.I.B`F.J.K.L.h`k`m`c`d``````",
"```````d`c`j`k`k`A`B`B`B`B.M`s`D`D`D.N.O.y.c`K`K`X`X`5`6...G.G.y`Z`D.O.J.K.L.L`v.h`k`m`c`d``````",
"```````d`c`j`k`k`A`B`B`B`B`B.P`D.Q.b`D`D.R.S`N`X`5`6`6.G.G.t.y.T`M`L.U.K.L`v.V.`.h`k`m`c`d``````",
"```````d`c`j`k`k`A`B`B`B`B`B.W`D.X`F`G.Y`D`D.e.Z`o.G.G.t.y.B`F.0`D.Z.L`v.V.V.1.1.h`k`m`c`d``````",
"```````d`c`j`k`k`A`B`B`B`B.2`D.b.G`K.n.G.3.4`D`D`M`W.5.y.B`F.V`1`D.6.V.V.`.1`P.U.h`k`m`c`d``````",
"```````d`c`j`k`k`A`B`B`B`Q.7`D.o`K`X`X`5`6...8#``D`D`D#..H.K##`D#a.V.`.1.1.U.U.l.h`k`m`c`d``````",
"```````d`c`j`k`k`A`B`Q`Q`6.R`D.p`X`5`6`6.G.G.t.y#b.i`D`D`D.x.m`D#c.1.1.U.U`N.l.l#d`k`m`c`d``````",
"```````d`c`j`k`k`A`Q`Q`K`h`D.x`X`6`6.G.G.t.y.B`F`F.J.p`p`O`D`D`M.r#e.U`N.l.l#f#f#d`k`m`c`d``````",
"```````d`c#g`k`k`y`K`K.n`Z`D#h`6...G.t.y.y.B`F.J.K.L`v.V.2.W`D`D`D.b#i#j#k#f#f#l#d`k`m`c`d``````",
"```````d`c.A`k`k`F`K`X#k`M`O.l.G.G.y.y.B`F.J.K.L.L`v.V.`#f.R`D.d`1`D`D.e.f#m#l#n#d`k`m`c`d``````",
"```````d`c#o`k`k#p.f#q#r`D#p.G.t.y.B`F.J.K.K.L`v.V.`.1.1#s`D#t.l#l`E.z`D`D`M#p#u#d`k`m`c`d``````",
"```````d`c#g`k`k.i`D`D.e`D`J.y.B`F`F.J.K.L`v.V.V.1.1`P.U.W`D###f#f#e#n#v.x`D`D`D.n`k`m`c`d``````",
"```````d`c#g`k`k#e.f`M`D`D.x`r`v.J.K.L`v.V.V.`.1`P.U.U`x`D.Y#l#f#l#l#n#n.j`u`8`D..`k.u#w`d``````",
"```````d`c`.`k`k`K.t#x`D`O`D`D`T.r#f`v.V.`.1.1.U.U.l.l#y`D.0#l#l#n#n#n.C.C`o`o`g.c`k.u`c`d``````",
"```````d`c`.`k`k.n`v`L`D#b#z.N`D`D`L#A#B.1.U.U`N.l.l.2.e`O#C#n#n#n.j.C`o`o`o#D#D#d`k`n`c`d``````",
"```````d`c`.`k`k.n`r`D.W.K.L`P`r.W`D`D`M`W`a.l.l#f#f.w`D.i#n#n.j.C.C`o`o#D#D#E#E#d`k`m`c`d``````",
"```````d`c`.`k`k`X`I`D#F`v.V.V.`.1.8#G`D`D`D#a`w#e#l`H`D`u.j.C.C`o`o#D#D#D#E`j#H#d`k`m`c`d``````",
"```````d`c`.`k`k#k`D`O.j.V.`.1`P.U.U.l#b#x`O`D`D.m`t`D`H.C.C`o`o#D#D#D#E#E#H#H#H#I`k`m`c`d``````",
"```````d`c#J`k`k`w`D`S.`.1.1.U.U`N.l.l#f#f#C.o.R`D`D`D`I#K`o`o#D#D#E#E`j#H#H#L#M#I`k`m`c`d``````",
"```````d`c#N`k`k.f`D#O.1`P.U`N.l.l#f#f#l#l#l#n.2#i`D`D`D.e.s#P#E#E`j#H#H#L#M#M#Q#I`k`m`c`d``````",
"```````d`c.q`k`k.i`T#k.U.U.l.l#f#f#e#l#l#n#n.j.C#i`D#a.W`D`D`M#R#S#H#H#M#M#Q#Q#T#I`k`m`c`d``````",
"```````d`c.q`k`k.i.d.U.l.l#k#f#f#l#l#n#n#n.C.C#D.Y`D#U#D.a.v`D`D`D#V#W#T#Q#Q#T#T#I`k`m`c`d``````",
"```````d`c#X`k`k.i.A.l#k#f#f#l#l#n#n#n.j.C`o`o#v`D.x#E#E`j#H#Y.E`O`D`D.N#Z#0#1#1`m`k`m`c`d``````",
"```````d`c#X`k`k.o.l#f#f#l#l#l#n#n.j.C`o`o`o#D`I`D#2`j#H#H#L#M#M#3#4.b`D`D#5#6#7`m`k`m`c`d``````",
"```````d`c#X`k`k`m.h.h.h.h.h.h.h.h.h.h.h.h.h#d.c.c#d#8#8#8#8#8#8#d#d#d`Aa`.c.c.c`z`k`m`c`d``````",
"```````d`ca.`k`k`k`k`k`k`k`k`k`k`k`k`k`k`k`k`k`k`k`k`k`k`k`k`k`k`k`k`k`k`k`k`k`k`k`k`m`c`d``````",
"```````d`ca#.Da`.u.u.u.u.u.u.u.u.u.u.u.u.u.u.Da`.D`y`y`y`y`y`y`y`y`y`y`y`y`y`y.Da`.D.B`c`d``````",
"``````.a`c`c`c`c`c`c`c`c`c`c`c`c`c`c`c`c`c`c`c`c`c`c`c`c`c`c`c`c`c`c`c`c`c`c`c`c`c`c`c`c.a``````",
"````````aa`d`d`d`d`d`d`d`d`d`d`d`d`d`d`d`d`d`d`d`d`d`d`d`d`d`d`d`d`d`d`d`d`d`d`d`d`d`daa````````",
"````````````````````````````````````````````````````````````````````````````````````````````````",
"````````````````````````````````````````````````````````````````````````````````````````````````"
};
