/* XPM */
static const char * swipe_cur_xpm[] = {
"16 16 256 2",
"  	c None",
". 	c #000000",
"+ 	c #FFFFFF",
"@ 	c #F6F6F6",
"# 	c #EEEEEE",
"$ 	c #E1E1E1",
"% 	c #D2D2D2",
"& 	c #F0F0F0",
"* 	c #EFEFEF",
"= 	c #EAEAEA",
"- 	c #FBFBFB",
"; 	c #DEDEDE",
"> 	c #BDBDBD",
", 	c #DCDCDC",
"' 	c #F7F7F7",
") 	c #F1F1F1",
"! 	c #C1C1C1",
"~ 	c #E0E0E0",
"{ 	c #D8D8D8",
"] 	c #F3F3F3",
"^ 	c #F2F2F2",
"/ 	c #E4E4E4",
"( 	c #DFDFDF",
"_ 	c #D3D3D3",
": 	c #DDDDDD",
"< 	c #C8C8C8",
"[ 	c #E6E6E6",
"} 	c #CECECE",
"| 	c #000000",
"1 	c #000000",
"2 	c #000000",
"3 	c #000000",
"4 	c #000000",
"5 	c #000000",
"6 	c #000000",
"7 	c #000000",
"8 	c #000000",
"9 	c #000000",
"0 	c #000000",
"a 	c #000000",
"b 	c #000000",
"c 	c #000000",
"d 	c #000000",
"e 	c #000000",
"f 	c #000000",
"g 	c #000000",
"h 	c #000000",
"i 	c #000000",
"j 	c #000000",
"k 	c #000000",
"l 	c #000000",
"m 	c #000000",
"n 	c #000000",
"o 	c #000000",
"p 	c #000000",
"q 	c #000000",
"r 	c #000000",
"s 	c #000000",
"t 	c #000000",
"u 	c #000000",
"v 	c #000000",
"w 	c #000000",
"x 	c #000000",
"y 	c #000000",
"z 	c #000000",
"A 	c #000000",
"B 	c #000000",
"C 	c #000000",
"D 	c #000000",
"E 	c #000000",
"F 	c #000000",
"G 	c #000000",
"H 	c #000000",
"I 	c #000000",
"J 	c #000000",
"K 	c #000000",
"L 	c #000000",
"M 	c #000000",
"N 	c #000000",
"O 	c #000000",
"P 	c #000000",
"Q 	c #000000",
"R 	c #000000",
"S 	c #000000",
"T 	c #000000",
"U 	c #646957",
"V 	c #4B0268",
"W 	c #696548",
"X 	c #027468",
"Y 	c #614306",
"Z 	c #6C6563",
"` 	c #614307",
" .	c #6F6974",
"..	c #410706",
"+.	c #6C756E",
"@.	c #540872",
"#.	c #724F62",
"$.	c #027265",
"%.	c #6E4F07",
"&.	c #63696C",
"*.	c #420D07",
"=.	c #756E6E",
"-.	c #437265",
";.	c #6B6369",
">.	c #540700",
",.	c #747475",
"'.	c #42036E",
").	c #4C046B",
"!.	c #037466",
"~.	c #540300",
"{.	c #E00370",
"].	c #695705",
"^.	c #026874",
"/.	c #654806",
"(.	c #746867",
"_.	c #430719",
":.	c #697470",
"<.	c #02066E",
"[.	c #44076B",
"}.	c #756166",
"|.	c #080974",
"1.	c #4F6261",
"2.	c #726564",
"3.	c #4F0701",
"4.	c #696C43",
"5.	c #08076B",
"6.	c #436B4F",
"7.	c #6B6369",
"8.	c #540700",
"9.	c #747475",
"0.	c #42076E",
"a.	c #726570",
"b.	c #4C0475",
"c.	c #027466",
"d.	c #6F5403",
"e.	c #00E003",
"f.	c #646957",
"g.	c #4B0268",
"h.	c #696548",
"i.	c #027468",
"j.	c #614307",
"k.	c #6F6974",
"l.	c #000714",
"m.	c #704100",
"n.	c #A7C372",
"o.	c #615408",
"p.	c #64724F",
"q.	c #020272",
"r.	c #436E4F",
"s.	c #6B6369",
"t.	c #41420C",
"u.	c #637265",
"v.	c #696C43",
"w.	c #00006B",
"x.	c #615054",
"y.	c #076C65",
"z.	c #466C6E",
"A.	c #04646E",
"B.	c #746665",
"C.	c #540308",
"D.	c #080270",
"E.	c #646957",
"F.	c #290368",
"G.	c #654806",
"H.	c #746867",
"I.	c #0A00A1",
"J.	c #657665",
"K.	c #74754F",
"L.	c #060772",
"M.	c #6F4E76",
"N.	c #540865",
"O.	c #724F62",
"P.	c #027265",
"Q.	c #540600",
"R.	c #656261",
"S.	c #624C04",
"T.	c #4C044E",
"U.	c #027466",
"V.	c #6F5403",
"W.	c #054002",
"X.	c #746469",
"Y.	c #063002",
"Z.	c #676965",
"`.	c #0D0274",
" +	c #706143",
".+	c #6E6F69",
"++	c #00000A",
"@+	c #6C6F54",
"#+	c #6172A9",
"$+	c #006563",
"%+	c #4C5406",
"&+	c #6C6562",
"*+	c #62614C",
"=+	c #04316C",
"-+	c #746665",
";+	c #540308",
">+	c #080270",
",+	c #646957",
"'+	c #2A0268",
")+	c #696548",
"!+	c #027468",
"~+	c #614307",
"{+	c #6F6974",
"]+	c #430906",
"^+	c #656C75",
"/+	c #3A2072",
"(+	c #540900",
"_+	c #636172",
":+	c #726142",
"<+	c #4E4254",
"[+	c #66654C",
"}+	c #030302",
"|+	c #02706F",
"1+	c #695705",
"2+	c #036874",
"3+	c #480601",
"4+	c #686769",
"5+	c #032102",
"6+	c #027861",
"7+	c #615008",
"8+	c #695365",
"9+	c #050265",
"0+	c #657246",
"a+	c #6E6575",
"b+	c #050279",
"c+	c #736F50",
"d+	c #6F6974",
"e+	c #081E02",
"f+	c #4F6261",
"g+	c #726564",
"h+	c #540B00",
"i+	c #626D75",
"j+	c #676E65",
"k+	c #0F0268",
"l+	c #436E4F",
"m+	c #676E61",
"n+	c #540907",
"o+	c #68434E",
"p+	c #65676E",
"q+	c #540C00",
"r+	c #696461",
"s+	c #747542",
"t+	c #0A6E6F",
"u+	c #6F4342",
"v+	c #6E6962",
"w+	c #4C0472",
"x+	c #027466",
"y+	c #6F5403",
"z+	c #33C448",
"A+	c #33C448",
"B+	c #000BD8",
"C+	c #696548",
"D+	c #027468",
"E+	c #614307",
"F+	c #6F6974",
"G+	c #432606",
"              . .               ",
". .         . + @ .         . . ",
". # .       . + $ .       . % . ",
". + # .     . + $ .     . & $ . ",
". + + # .   . + $ .   . * + $ . ",
". + + + # . . + $ . . * + + $ . ",
". + + + + = . + $ . * + + + + . ",
". + + + + - ; + $ ; + + + + + . ",
". + + # # > . + $ . , * ' + ) . ",
". + # ; ! . . + ~ . . { ] ^ / . ",
". # ; ! .   . + ~ .   . { / ( . ",
". ; ! .     . + ~ .     . _ , . ",
". ! .       . + : .       . < . ",
". .         . [ } .         . . ",
"              . .               ",
"                                "};
