/* XPM */
static const char * sxf_subdset_48_xpm[] = {
"48 48 285 2",
"  	c None",
". 	c #2E3436",
"+ 	c #2E3437",
"@ 	c #383E40",
"# 	c #A1A3A3",
"$ 	c #BCBDBD",
"% 	c #B9BABA",
"& 	c #B3B5B5",
"* 	c #9EA0A0",
"= 	c #32383A",
"- 	c #B0B2B2",
"; 	c #EEEEEC",
"> 	c #676C6D",
", 	c #BCBEBE",
"' 	c #EBEBE9",
") 	c #E1E1DF",
"! 	c #686B6C",
"~ 	c #171717",
"{ 	c #5E6161",
"] 	c #1D1D1D",
"^ 	c #232323",
"/ 	c #535454",
"( 	c #697785",
"_ 	c #262626",
": 	c #1B1B1B",
"< 	c #171718",
"[ 	c #4E545C",
"} 	c #6C7B8D",
"| 	c #959696",
"1 	c #1A1B1C",
"2 	c #1A1C1E",
"3 	c #324D6E",
"4 	c #678AB8",
"5 	c #6C7C8D",
"6 	c #828581",
"7 	c #2A2A2A",
"8 	c #1D1F20",
"9 	c #191A1C",
"0 	c #28384D",
"a 	c #436B9F",
"b 	c #4673AC",
"c 	c #6085B5",
"d 	c #A3C286",
"e 	c #20211F",
"f 	c #252525",
"g 	c #2D2D2D",
"h 	c #292929",
"i 	c #181818",
"j 	c #212121",
"k 	c #1D1E1F",
"l 	c #191A1A",
"m 	c #171818",
"n 	c #1D2127",
"o 	c #24303E",
"p 	c #2B3D55",
"q 	c #314A6A",
"r 	c #3C5F8C",
"s 	c #416FAA",
"t 	c #5D83B4",
"u 	c #A5C587",
"v 	c #578629",
"w 	c #21291A",
"x 	c #181817",
"y 	c #1A1B18",
"z 	c #1A1C18",
"A 	c #1F261A",
"B 	c #252F1B",
"C 	c #181917",
"D 	c #222D3A",
"E 	c #2A3D55",
"F 	c #38587F",
"G 	c #3F6495",
"H 	c #4571A9",
"I 	c #3768A5",
"J 	c #83D731",
"K 	c #7DD22A",
"L 	c #5A9124",
"M 	c #568B23",
"N 	c #5B9524",
"O 	c #629F26",
"P 	c #67A926",
"Q 	c #6DB327",
"R 	c #73BE28",
"S 	c #78C829",
"T 	c #7ED32B",
"U 	c #80D62B",
"V 	c #1E2619",
"W 	c #406697",
"X 	c #3D6CA8",
"Y 	c #3465A4",
"Z 	c #202719",
"` 	c #41699B",
" .	c #4270AA",
"..	c #212A19",
"+.	c #4572AC",
"@.	c #3667A5",
"#.	c #232C1A",
"$.	c #446DA3",
"%.	c #4672AC",
"&.	c #3968A6",
"*.	c #242F1A",
"=.	c #446FA7",
"-.	c #3969A6",
";.	c #25301A",
">.	c #4572AA",
",.	c #3765A1",
"'.	c #31609C",
").	c #7CD02A",
"!.	c #66A826",
"~.	c #1C2228",
"{.	c #1C2026",
"].	c #1B1E23",
"^.	c #1A1C1F",
"/.	c #191B1C",
"(.	c #18191A",
"_.	c #111212",
":.	c #030303",
"<.	c #000000",
"[.	c #010203",
"}.	c #050A10",
"|.	c #0B1522",
"1.	c #112034",
"2.	c #45556A",
"3.	c #687481",
"4.	c #75C229",
"5.	c #5D9625",
"6.	c #456B20",
"7.	c #2B3B1B",
"8.	c #191A17",
"9.	c #2B2817",
"0.	c #3D3917",
"a.	c #443F17",
"b.	c #4B4517",
"c.	c #514A15",
"d.	c #504708",
"e.	c #534A00",
"f.	c #5C5300",
"g.	c #665B00",
"h.	c #6E6300",
"i.	c #605600",
"j.	c #4D4400",
"k.	c #393400",
"l.	c #282401",
"m.	c #464537",
"n.	c #5D6060",
"o.	c #232729",
"p.	c #80D52B",
"q.	c #6FB727",
"r.	c #568A23",
"s.	c #3C5C1E",
"t.	c #222B19",
"u.	c #1A1C17",
"v.	c #251717",
"w.	c #471717",
"x.	c #7B1717",
"y.	c #491717",
"z.	c #161616",
"A.	c #AD9C12",
"B.	c #EED60D",
"C.	c #EED508",
"D.	c #EDD504",
"E.	c #EDD400",
"F.	c #EDDA34",
"G.	c #928F60",
"H.	c #79C32F",
"I.	c #508022",
"J.	c #37511D",
"K.	c #1D2318",
"L.	c #1C1B17",
"M.	c #351717",
"N.	c #601717",
"O.	c #9D1717",
"P.	c #CB1717",
"Q.	c #D11717",
"R.	c #CF1010",
"S.	c #CE0909",
"T.	c #340404",
"U.	c #C8B300",
"V.	c #9C9860",
"W.	c #20211E",
"X.	c #191917",
"Y.	c #251917",
"Z.	c #441717",
"`.	c #781717",
" +	c #BB1717",
".+	c #D01313",
"++	c #CD0606",
"@+	c #CC0000",
"#+	c #230000",
"$+	c #E3CB00",
"%+	c #9F9A60",
"&+	c #8A9382",
"*+	c #651E1E",
"=+	c #C81717",
"-+	c #D01616",
";+	c #CE0A0A",
">+	c #170000",
",+	c #010100",
"'+	c #9F9B60",
")+	c #868281",
"!+	c #D21E1E",
"~+	c #CD0505",
"{+	c #0E0000",
"]+	c #060500",
"^+	c #C28181",
"/+	c #D01515",
"(+	c #CD0404",
"_+	c #070000",
":+	c #0E0C00",
"<+	c #C28281",
"[+	c #D01414",
"}+	c #CD0303",
"|+	c #040100",
"1+	c #191700",
"2+	c #C38282",
"3+	c #030200",
"4+	c #262200",
"5+	c #CD0707",
"6+	c #373200",
"7+	c #C38382",
"8+	c #CE0B0B",
"9+	c #C30000",
"0+	c #4B4300",
"a+	c #C38383",
"b+	c #CF1111",
"c+	c #A90000",
"d+	c #5A5100",
"e+	c #EBD200",
"f+	c #9C0000",
"g+	c #720000",
"h+	c #480000",
"i+	c #130000",
"j+	c #0B0A00",
"k+	c #1B1900",
"l+	c #2C2700",
"m+	c #3D3700",
"n+	c #504700",
"o+	c #706500",
"p+	c #807300",
"q+	c #918200",
"r+	c #A19000",
"s+	c #B19E00",
"t+	c #C1AD00",
"u+	c #CDB800",
"v+	c #CFBE34",
"w+	c #8D8A60",
"x+	c #C38483",
"y+	c #CB0000",
"z+	c #A00000",
"A+	c #760000",
"B+	c #4C0000",
"C+	c #1F0000",
"D+	c #010000",
"E+	c #020000",
"F+	c #040000",
"G+	c #030300",
"H+	c #070600",
"I+	c #040400",
"J+	c #343434",
"K+	c #C38484",
"L+	c #D11A1A",
"M+	c #770000",
"N+	c #1C0000",
"O+	c #7D8181",
"P+	c #BF8584",
"Q+	c #B80C0C",
"R+	c #5E0000",
"S+	c #0A0000",
"T+	c #818585",
"U+	c #B88584",
"V+	c #090707",
"W+	c #030000",
"X+	c #8B8585",
"Y+	c #1E1E1E",
"Z+	c #929392",
"`+	c #A4A8A8",
" @	c #656B6B",
".@	c #8B8D8F",
"+@	c #A0A2A2",
"@@	c #818282",
"#@	c #737474",
"$@	c #717474",
"%@	c #2E3435",
"&@	c #2F3536",
"*@	c #2D3537",
"                                                                                                ",
"                                                                                                ",
"                                                                                                ",
"        . . . . . . . . . . . . . . . . . . . . . . . . . . . . . . . . . . . . . . . . .       ",
"      + . . . . . . . . . . . . . . . . . . . . . . . . . . . . . . . . . . . . . . . . .       ",
"      + . . @ # $ $ $ $ $ $ $ $ $ $ $ $ $ % & $ $ $ $ $ $ $ $ $ $ $ $ $ $ $ $ $ $ * = . .       ",
"      + . . - ; ; ; ; ; ; ; ; ; ; ; ; ; ; ; ; ; ; ; ; ; ; ; ; ; ; ; ; ; ; ; ; ; ; ; > . .       ",
"      + . . , ; ; ; ; ; ; ; ; ; ; ; ; ; ; ' ) ' ; ; ; ; ; ; ; ; ; ; ; ; ; ; ; ; ; ; ! . .       ",
"      + . . , ; ;                           ~                                   ; ; { . .       ",
"      + . . , ; ;                           ] ^                               / ; ; ( . .       ",
"      + . . , ; ;                           _ :                           _ < [ ; ; } . .       ",
"      + . . | ; ;                             ~                         1 2 3 4 ; ; 5 . .       ",
"      + . . 6 ; ;                             ~               7 ^ 8 9 ~ 0 a b c ; ; 5 . .       ",
"      + . . d ; ; e f                     g h i : j k l ~ ~ m n o p q r b b s t ; ; 5 . .       ",
"      + . . u ; ; v w x y ~ ~ ~ ~ ~ ~ ~ z A B C ~ D E q F G H b b b b b b b I t ; ; 5 . .       ",
"      + . . u ; ; J K L M N O P Q R S T U U U V ~ W b b b b b b b b b b b X Y t ; ; 5 . .       ",
"      + . . u ; ; J U U U U U U U U U U U U U Z ~ ` b b b b b b b b b b  .Y Y t ; ; 5 . .       ",
"      + . . u ; ; J U U U U U U U U U U U U U ..~ a b b b b b b b b b +.@.Y Y t ; ; 5 . .       ",
"      + . . u ; ; J U U U U U U U U U U U U U #.~ $.b b b b b b b b %.&.Y Y Y t ; ; 5 . .       ",
"      + . . u ; ; J U U U U U U U U U U U U U *.~ =.b b b b b b b b -.Y Y Y Y t ; ; 5 . .       ",
"      + . . u ; ; J U U U U U U U U U U U U U ;.~ H b b b b b b >.,.'.Y Y Y Y t ; ; 5 . .       ",
"      + . . u ; ; J U U U U U U U U U U U ).!.Z ~ ~.{.].^./.(._.:.<.<.[.}.|.1.2.; ; 3.. .       ",
"      + . . u ; ; J U U U U U U U 4.5.6.7.8.~ x ~ 9.0.a.b.c.d.e.f.g.h.i.j.k.l.m.; ; n.. . o.    ",
"      + . . u ; ; J U U p.q.r.s.t.~ ~ u.v.w.x.y.z.A.B.C.D.E.E.E.E.E.E.E.E.E.E.F.; ; G.. .       ",
"      + . . u ; ; H.I.J.K.~ x L.M.N.O.P.Q.R.S.T.<.U.E.E.E.E.E.E.E.E.E.E.E.E.E.F.; ; V.. .       ",
"      + . . u ; ; W.X.Y.Z.`. +Q.Q.Q.Q..+++@+@+#+<.$+E.E.E.E.E.E.E.E.E.E.E.E.E.F.; ; %+. .       ",
"      + . . &+; ; *+=+Q.Q.Q.Q.Q.Q.-+;+@+@+@+@+>+,+E.E.E.E.E.E.E.E.E.E.E.E.E.E.F.; ; '+. .       ",
"      + . . )+; ; !+Q.Q.Q.Q.Q.Q.-+~+@+@+@+@+@+{+]+E.E.E.E.E.E.E.E.E.E.E.E.E.E.F.; ; '+. .       ",
"      + . . ^+; ; !+Q.Q.Q.Q.Q./+(+@+@+@+@+@+@+_+:+E.E.E.E.E.E.E.E.E.E.E.E.E.E.F.; ; '+. .       ",
"      + . . <+; ; !+Q.Q.Q.Q.[+}+@+@+@+@+@+@+@+|+1+E.E.E.E.E.E.E.E.E.E.E.E.E.E.F.; ; '+. .       ",
"      + . . 2+; ; !+Q.Q.Q.-+(+@+@+@+@+@+@+@+@+3+4+E.E.E.E.E.E.E.E.E.E.E.E.E.E.F.; ; '+. .       ",
"      + . . 2+; ; !+Q.Q.Q.5+@+@+@+@+@+@+@+@+@+,+6+E.E.E.E.E.E.E.E.E.E.E.E.E.E.F.; ; '+. .       ",
"      + . . 7+; ; !+Q.Q.8+@+@+@+@+@+@+@+@+@+9+<.0+E.E.E.E.E.E.E.E.E.E.E.E.E.E.F.; ; '+. .       ",
"      + . . a+; ; !+Q.b+@+@+@+@+@+@+@+@+@+@+c+<.d+e+E.E.E.E.E.E.E.E.E.E.E.E.E.F.; ; '+. .       ",
"      + . . a+; ; !+-+}+@+@+@+@+@+@+9+f+g+h+i+<.<.,+j+k+l+m+n+i.o+p+q+r+s+t+u+v+; ; w+. .       ",
"      + . . x+; ; !+8+@+@+y+z+A+B+C+D+<.E+F+<.<.<.    <.<.<.G+]+H+I+,+<.<.<.<.J+; ; n.. .       ",
"      + . . K+; ; L+@+9+M+N+<.E+F+<.          <.                                ; ; O+. .       ",
"      + . . P+; ; Q+R+S+E+E+                  <.                                ; ; T+. .       ",
"      + . . U+; ; V+W+<.                      <.                                ; ; T+. .       ",
"      + . . X+; ;                             Y+                                ; ; T+. .       ",
"      + . . Z+; ; ; ; ; ; ; ; ; ; ; ; ; ; ; ; ; ; ; ; ; ; ; ; ; ; ; ; ; ; ; ; ; ; ; T+. .       ",
"      + . . `+; ; ; ; ; ; ; ; ; ; ; ; ; ; ; ; ; ; ; ; ; ; ; ; ; ; ; ; ; ; ; ; ; ; ;  @. .       ",
"      + . . = .@+@+@+@+@+@+@+@+@+@+@+@+@+@+@@@#@+@+@+@+@+@+@+@+@+@+@+@+@+@+@+@+@+@$@. . .       ",
"      + . . . . . . . . . . . . . . . . . . . . . . . . . . . . . . . . . . . . . . . . .       ",
"        . . . . . . . . . . . . . . . . . . . . . . . . . . . . . . . . . . . . . . . . %@      ",
"          &@&@&@&@&@&@&@&@&@&@&@&@&@&@&@&@&@&@&@&@&@&@&@&@&@&@&@&@&@&@&@&@&@&@&@&@&@&@*@        ",
"                                                                                                ",
"                                                                                                "};
