/* XPM */
static const char * sxf_dset_16_xpm[] = {
"16 16 141 2",
"  	c None",
". 	c #2C3335",
"+ 	c #6E7273",
"@ 	c #989B9B",
"# 	c #8E9090",
"$ 	c #979A9A",
"% 	c #878C8E",
"& 	c #3F4548",
"* 	c #2A312D",
"= 	c #BBC4B1",
"- 	c #808F70",
"; 	c #828D75",
"> 	c #819270",
", 	c #5E655B",
"' 	c #707B89",
") 	c #6B7A8D",
"! 	c #65758C",
"~ 	c #8FA6C2",
"{ 	c #6F7981",
"] 	c #2A342B",
"^ 	c #BFD6A8",
"/ 	c #7FD42B",
"( 	c #80D62B",
"_ 	c #304426",
": 	c #4571A9",
"< 	c #4673AC",
"[ 	c #6F91BB",
"} 	c #6F7881",
"| 	c #424749",
"1 	c #474C4D",
"2 	c #3F4443",
"3 	c #717D6E",
"4 	c #5B7D41",
"5 	c #5B7C41",
"6 	c #547140",
"7 	c #3C453F",
"8 	c #424D53",
"9 	c #3E4B55",
"0 	c #394B57",
"a 	c #617180",
"b 	c #6C7377",
"c 	c #848788",
"d 	c #E4E4E3",
"e 	c #E2E2E1",
"f 	c #CFCFCE",
"g 	c #CACAC9",
"h 	c #888235",
"i 	c #EDD402",
"j 	c #EDDB43",
"k 	c #86866C",
"l 	c #909491",
"m 	c #D4D7D1",
"n 	c #F0F0EE",
"o 	c #B3B3B1",
"p 	c #E1E1DF",
"q 	c #ECECEA",
"r 	c #D1D1CF",
"s 	c #6B7685",
"t 	c #B9BDC0",
"u 	c #87812E",
"v 	c #EDD400",
"w 	c #88886C",
"x 	c #8E908E",
"y 	c #85A069",
"z 	c #7E9C61",
"A 	c #799A59",
"B 	c #67844A",
"C 	c #3D4751",
"D 	c #4C6383",
"E 	c #42638F",
"F 	c #3E6CA7",
"G 	c #BABFC3",
"H 	c #78732E",
"I 	c #D7C000",
"J 	c #E6D543",
"K 	c #85856B",
"L 	c #8F9190",
"M 	c #92C660",
"N 	c #76C529",
"O 	c #344559",
"P 	c #4370AB",
"Q 	c #3565A4",
"R 	c #BBBFC4",
"S 	c #404443",
"T 	c #949076",
"U 	c #7C807C",
"V 	c #8B8F8A",
"W 	c #94C95F",
"X 	c #6DAE2C",
"Y 	c #608432",
"Z 	c #606B34",
"` 	c #2F322A",
" .	c #535838",
"..	c #4F522E",
"+.	c #454F3F",
"@.	c #B5B7B4",
"#.	c #454A4C",
"$.	c #858989",
"%.	c #8B8E8A",
"&.	c #837963",
"*.	c #9D1C1A",
"=.	c #CD1010",
"-.	c #B80404",
";.	c #655B0B",
">.	c #CCC9B4",
",.	c #787B7B",
"'.	c #EEEEEB",
").	c #EEEEEC",
"!.	c #787C7C",
"~.	c #909292",
"{.	c #C25655",
"].	c #CF0F0F",
"^.	c #CC0000",
"/.	c #8F0000",
"(.	c #827404",
"_.	c #CDCAB2",
":.	c #3E4345",
"<.	c #2E3436",
"[.	c #2D3436",
"}.	c #939594",
"|.	c #BA5655",
"1.	c #B90000",
"2.	c #8F1615",
"3.	c #5A2321",
"4.	c #6A632A",
"5.	c #998F38",
"6.	c #9B902E",
"7.	c #9B8F25",
"8.	c #C7C6B5",
"9.	c #909090",
"0.	c #A37D7C",
"a.	c #B3A1A0",
"b.	c #E5E5E3",
"c.	c #ACACAA",
"d.	c #EAEAE8",
"e.	c #DEDFDD",
"f.	c #636768",
"g.	c #C6C7C6",
"h.	c #BFC0BF",
"i.	c #A4A6A6",
"j.	c #44494A",
"                                ",
"        . + @ @ @ # @ @ $ % &   ",
"        * = - ; > , ' ) ! ~ {   ",
"        ] ^ / ( ( _ : < < [ }   ",
"  | 1 1 2 3 4 5 6 7 8 9 0 a b   ",
"  c d e e f e e e e g h i j k   ",
"  l m n n o p q r s t u v j w   ",
"  x y z A B C D E F G H I J K   ",
"  L M ( ( N O < P Q R S   T U   ",
"  V W X Y Z `  ...+.@.#.    $.  ",
"  %.&.*.=.-.;.v v v >.,.'.).!.  ",
"  ~.{.].^./.(.v v v _.:.<.<.[.  ",
"  }.|.1.2.3.4.5.6.7.8.#.        ",
"  9.0.a.b.c.d.).).).e.#.        ",
"  f.g.g.g.h.g.g.g.g.i.j.        ",
"                                "};
