/* XPM */
static const char * sxf_subdset_16_xpm[] = {
"16 16 114 2",
"  	c None",
". 	c #2E3435",
"+ 	c #43494B",
"@ 	c #595F60",
"# 	c #515758",
"$ 	c #2E3436",
"% 	c #EAEAE7",
"& 	c #EFEFEC",
"* 	c #C6C6C4",
"= 	c #EBEBE9",
"- 	c #3B4143",
"; 	c #2D3335",
"> 	c #E7E7E6",
", 	c #2E2E2E",
"' 	c #303B49",
") 	c #C1C7CE",
"! 	c #3D4548",
"~ 	c #2D3432",
"{ 	c #D7DCD0",
"] 	c #3D522A",
"^ 	c #3D4E2E",
"/ 	c #3B4C2B",
"( 	c #2D3721",
"_ 	c #272E36",
": 	c #2F3F51",
"< 	c #2F435A",
"[ 	c #324764",
"} 	c #406A9E",
"| 	c #C0CCDA",
"1 	c #3E4548",
"2 	c #2D3532",
"3 	c #DBE7CE",
"4 	c #7BCE2A",
"5 	c #73BE28",
"6 	c #78C92A",
"7 	c #7FD42B",
"8 	c #528323",
"9 	c #2C3F57",
"0 	c #4673AC",
"a 	c #4672AC",
"b 	c #3868A6",
"c 	c #80D62B",
"d 	c #568823",
"e 	c #2B3E56",
"f 	c #4673AB",
"g 	c #3968A4",
"h 	c #3465A4",
"i 	c #3E4549",
"j 	c #7ACB2A",
"k 	c #619C26",
"l 	c #486821",
"m 	c #38421D",
"n 	c #242622",
"o 	c #3E4129",
"p 	c #36381C",
"q 	c #343616",
"r 	c #2D331C",
"s 	c #BFC1BC",
"t 	c #3D4445",
"u 	c #D6DCCE",
"v 	c #43481E",
"w 	c #502E1A",
"x 	c #8D1917",
"y 	c #C81010",
"z 	c #820707",
"A 	c #605600",
"B 	c #EDD400",
"C 	c #EEE8B2",
"D 	c #454943",
"E 	c #2D3132",
"F 	c #E1CDCB",
"G 	c #D11717",
"H 	c #CE0A0A",
"I 	c #CC0000",
"J 	c #600000",
"K 	c #827400",
"L 	c #464943",
"M 	c #2F3031",
"N 	c #E7CDCB",
"O 	c #CE0C0C",
"P 	c #490900",
"Q 	c #A18F00",
"R 	c #454842",
"S 	c #E7CDCC",
"T 	c #CF1111",
"U 	c #C70000",
"V 	c #A00000",
"W 	c #6D0000",
"X 	c #1F0A00",
"Y 	c #494100",
"Z 	c #645A00",
"` 	c #6A5F00",
" .	c #726500",
"..	c #847700",
"+.	c #D6D3B7",
"@.	c #414542",
"#.	c #E3CDCC",
"$.	c #610505",
"%.	c #330000",
"&.	c #E9E9E8",
"*.	c #424849",
"=.	c #2D3233",
"-.	c #D7D3D1",
";.	c #EBEBE8",
">.	c #EEEEEC",
",.	c #CACAC8",
"'.	c #EDEDEA",
").	c #EDEDEC",
"!.	c #3D4444",
"~.	c #2D3336",
"{.	c #3C4142",
"].	c #4B5051",
"^.	c #464B4C",
"/.	c #45484B",
"                                ",
"  . + @ @ @ @ @ @ @ @ @ @ # $   ",
"  $ % & & & & * & & & & & = -   ",
"  ; >         ,         ' ) !   ",
"  ~ { ]   ^ / ( _ : < [ } | 1   ",
"  2 3 4 5 6 7 8 9 0 0 a b | !   ",
"  2 3 c c c c d e 0 f g h | i   ",
"  2 3 c j k l m n o p q r s t   ",
"  ~ u v w x y z A B B B B C D   ",
"  E F G G H I J K B B B B C L   ",
"  M N G O I I P Q B B B B C R   ",
"  M S T U V W X Y Z `  ...+.@.  ",
"  E #.$.%.                &.*.  ",
"  =.-.;.>.>.>.,.'.>.>.>.>.).!.  ",
"  ~.{.].].].].^.].].].].]./.$   ",
"                                "};
