/* XPM */
static const char * sxf_dset_48_xpm[] = {
"48 48 423 2",
"  	c None",
". 	c #262A2C",
"+ 	c #2E3436",
"@ 	c #2D3436",
"# 	c #434A4B",
"$ 	c #686C6D",
"% 	c #616566",
"& 	c #65696A",
"* 	c #616465",
"= 	c #3B4246",
"- 	c #2F3537",
"; 	c #414646",
"> 	c #EEEEEC",
", 	c #C9D3DE",
"' 	c #313B41",
") 	c #4D5151",
"! 	c #ECECE9",
"~ 	c #EFEFEC",
"{ 	c #EAEAE7",
"] 	c #A8A8A6",
"^ 	c #E6E6E3",
"/ 	c #DCDCDA",
"( 	c #D0D0CE",
"_ 	c #C0C0BF",
": 	c #A6A7A6",
"< 	c #ADB4BC",
"[ 	c #B4C3D4",
"} 	c #E7E9E9",
"| 	c #3A434C",
"1 	c #5E7055",
"2 	c #B4B5B2",
"3 	c #262922",
"4 	c #1D1D1D",
"5 	c #1F1F1F",
"6 	c #2B2B2D",
"7 	c #242728",
"8 	c #1F2126",
"9 	c #1A1D1E",
"0 	c #181819",
"a 	c #1D2128",
"b 	c #24303D",
"c 	c #2B3D56",
"d 	c #3F6596",
"e 	c #4673AC",
"f 	c #D9DFE4",
"g 	c #3A444C",
"h 	c #627755",
"i 	c #CDE4B6",
"j 	c #497421",
"k 	c #1C1F19",
"l 	c #1B1D19",
"m 	c #181817",
"n 	c #20281A",
"o 	c #26301B",
"p 	c #2A3A1C",
"q 	c #31451D",
"r 	c #26311B",
"s 	c #171718",
"t 	c #283A4F",
"u 	c #324C6D",
"v 	c #395982",
"w 	c #406697",
"x 	c #4571A9",
"y 	c #D8DEE4",
"z 	c #637955",
"A 	c #CFE7B6",
"B 	c #80D62B",
"C 	c #7BCE2A",
"D 	c #76C429",
"E 	c #7BCF2A",
"F 	c #528422",
"G 	c #171717",
"H 	c #426A9F",
"I 	c #4572AC",
"J 	c #D8DDE3",
"K 	c #647B55",
"L 	c #578B24",
"M 	c #446DA3",
"N 	c #3D6CA8",
"O 	c #D7DDE3",
"P 	c #5A9324",
"Q 	c #4470A8",
"R 	c #3566A4",
"S 	c #3A444D",
"T 	c #647A55",
"U 	c #5D9725",
"V 	c #4673AB",
"W 	c #3A69A7",
"X 	c #3465A4",
"Y 	c #3B454E",
"Z 	c #2D3537",
"` 	c #2E3536",
" .	c #3D473F",
"..	c #636869",
"+.	c #5B665A",
"@.	c #456133",
"#.	c #394C31",
"$.	c #282C2D",
"%.	c #2E3841",
"&.	c #2D3740",
"*.	c #2D363E",
"=.	c #2B3741",
"-.	c #28384A",
";.	c #273445",
">.	c #263241",
",.	c #263242",
"'.	c #22354D",
").	c #1B3556",
"!.	c #213F67",
"~.	c #D6DADE",
"{.	c #232628",
"].	c #454427",
"^.	c #655D17",
"/.	c #6E6517",
"(.	c #6B6212",
"_.	c #4E4601",
":.	c #3A3503",
"<.	c #272608",
"[.	c #D4D4D1",
"}.	c #353A3C",
"|.	c #1E2123",
"1.	c #3B4042",
"2.	c #9A9C9C",
"3.	c #C2C4C3",
"4.	c #B8B9B8",
"5.	c #BABBBA",
"6.	c #A8AAAA",
"7.	c #474D4E",
"8.	c #827B29",
"9.	c #EFD817",
"0.	c #EED712",
"a.	c #EDD401",
"b.	c #EDD400",
"c.	c #EEEBCF",
"d.	c #46493B",
"e.	c #515658",
"f.	c #797D7E",
"g.	c #EED711",
"h.	c #EDD402",
"i.	c #474A3B",
"j.	c #555A5C",
"k.	c #EFEFED",
"l.	c #C2C2C1",
"m.	c #838382",
"n.	c #E3E3E1",
"o.	c #828586",
"p.	c #827A22",
"q.	c #494C3B",
"r.	c #F0F0EE",
"s.	c #1E1E1E",
"t.	c #ECECEA",
"u.	c #E7E7E6",
"v.	c #6B6C6D",
"w.	c #B2B2B0",
"x.	c #817A1E",
"y.	c #4A4D3B",
"z.	c #EBEBE9",
"A.	c #303030",
"B.	c #C5C5C4",
"C.	c #C0C0BE",
"D.	c #303133",
"E.	c #2C3949",
"F.	c #B7BFC8",
"G.	c #4B4D3B",
"H.	c #D5D6D3",
"I.	c #B3B3B1",
"J.	c #606060",
"K.	c #959595",
"L.	c #D6D6D4",
"M.	c #B6B6B5",
"N.	c #979796",
"O.	c #68696A",
"P.	c #1F2224",
"Q.	c #355176",
"R.	c #B7C2CE",
"S.	c #4B4E3B",
"T.	c #D9DDD3",
"U.	c #24281F",
"V.	c #858682",
"W.	c #E6E6E4",
"X.	c #D9D9D7",
"Y.	c #CCCCCA",
"Z.	c #BFBFBD",
"`.	c #A6A6A4",
" +	c #999998",
".+	c #585858",
"++	c #373736",
"@+	c #777878",
"#+	c #525457",
"$+	c #323538",
"%+	c #1C1C1C",
"&+	c #1D1F21",
"*+	c #293039",
"=+	c #2E3B4D",
"-+	c #2F4461",
";+	c #41699B",
">+	c #DBE1D3",
",+	c #73BE28",
"'+	c #303D23",
")+	c #181918",
"!+	c #1A1B19",
"~+	c #22261D",
"{+	c #293022",
"]+	c #303A25",
"^+	c #354426",
"/+	c #3A4F26",
"(+	c #3F5926",
"_+	c #30401E",
":+	c #2B3E56",
"<+	c #3B5E8B",
"[+	c #436C9F",
"}+	c #4471AB",
"|+	c #B7C1CC",
"1+	c #4C4F3B",
"2+	c #DADFD3",
"3+	c #7ED32B",
"4+	c #7CD02A",
"5+	c #588D24",
"6+	c #171818",
"7+	c #406799",
"8+	c #3969A6",
"9+	c #B6BFCA",
"0+	c #504E1E",
"a+	c #8D7E00",
"b+	c #9D8D00",
"c+	c #AD9B00",
"d+	c #BDA900",
"e+	c #CCB700",
"f+	c #D5BE00",
"g+	c #EAE7CF",
"h+	c #DADED4",
"i+	c #5C9524",
"j+	c #41699D",
"k+	c #3E6DA9",
"l+	c #B5BEC9",
"m+	c #232724",
"n+	c #0E0D00",
"o+	c #111000",
"p+	c #0F0E00",
"q+	c #0C0B00",
"r+	c #070600",
"s+	c #040400",
"t+	c #D3D3D0",
"u+	c #373C3C",
"v+	c #DAE0D3",
"w+	c #619E26",
"x+	c #436CA0",
"y+	c #416FAA",
"z+	c #B6C0CA",
"A+	c #2E3335",
"B+	c #3B4143",
"C+	c #65A626",
"D+	c #446EA4",
"E+	c #DCE2D4",
"F+	c #7ED22B",
"G+	c #598E24",
"H+	c #2A394C",
"I+	c #2B3A4C",
"J+	c #293647",
"K+	c #273443",
"L+	c #26303E",
"M+	c #1A242F",
"N+	c #0E1722",
"O+	c #0F1A27",
"P+	c #1B3352",
"Q+	c #264A79",
"R+	c #32619D",
"S+	c #DCE3D4",
"T+	c #78C829",
"U+	c #629F26",
"V+	c #497222",
"W+	c #303F1F",
"X+	c #1A1B18",
"Y+	c #1C1F18",
"Z+	c #3C3918",
"`+	c #544E17",
" @	c #5A5416",
".@	c #605710",
"+@	c #605804",
"@@	c #685D00",
"#@	c #746700",
"$@	c #6D6100",
"%@	c #121309",
"&@	c #020202",
"*@	c #AEAFAF",
"=@	c #71BB28",
"-@	c #598F24",
";@	c #406021",
">@	c #262F1B",
",@	c #191B17",
"'@	c #21231A",
")@	c #341D1B",
"!@	c #5D1717",
"~@	c #971616",
"{@	c #B61212",
"]@	c #0D0D0D",
"^@	c #B9A708",
"/@	c #EDD504",
"(@	c #DFC800",
"_@	c #CBC8AA",
":@	c #2A381C",
"<@	c #1A1C18",
"[@	c #28241B",
"}@	c #471918",
"|@	c #7A1717",
"1@	c #BC1717",
"2@	c #D11717",
"3@	c #CF0E0E",
"4@	c #CC0202",
"5@	c #A70000",
"6@	c #000000",
"7@	c #D8C200",
"8@	c #DAD5AA",
"9@	c #32383B",
"0@	c #D4D4D2",
"a@	c #431C1B",
"b@	c #CE1717",
"c@	c #D01313",
"d@	c #CD0404",
"e@	c #CC0000",
"f@	c #8C0000",
"g@	c #ECD300",
"h@	c #DBD6AA",
"i@	c #828585",
"j@	c #3B4041",
"k@	c #DAD4D3",
"l@	c #CF1717",
"m@	c #CF1111",
"n@	c #CC0101",
"o@	c #6B0000",
"p@	c #020200",
"q@	c #DDD8AA",
"r@	c #7D8181",
"s@	c #DFD4D2",
"t@	c #CF0F0F",
"u@	c #500000",
"v@	c #E1DBAA",
"w@	c #DED4D3",
"x@	c #3B0000",
"y@	c #0F0D01",
"z@	c #E6E0AA",
"A@	c #DCD5D3",
"B@	c #D01414",
"C@	c #290000",
"D@	c #1A1701",
"E@	c #EBE4AA",
"F@	c #818585",
"G@	c #2F3436",
"H@	c #DBD5D3",
"I@	c #D01616",
"J@	c #1C0200",
"K@	c #282400",
"L@	c #EEE7AA",
"M@	c #7C8080",
"N@	c #CE0B0B",
"O@	c #CA0000",
"P@	c #AC0000",
"Q@	c #830000",
"R@	c #5B0505",
"S@	c #080401",
"T@	c #060601",
"U@	c #2E2B0D",
"V@	c #3E390E",
"W@	c #4E470C",
"X@	c #5E5508",
"Y@	c #6E6302",
"Z@	c #7D7000",
"`@	c #B7A400",
" #	c #CDCAAB",
".#	c #777A7A",
"+#	c #DDD5D3",
"@#	c #970000",
"##	c #5B0404",
"$#	c #340E0E",
"%#	c #0B0505",
"&#	c #191111",
"*#	c #473D3D",
"=#	c #787877",
"-#	c #353535",
";#	c #6E6E6D",
">#	c #B6B6B4",
",#	c #A6A6A5",
"'#	c #969695",
")#	c #878786",
"!#	c #777776",
"~#	c #686762",
"{#	c #58574D",
"]#	c #48463A",
"^#	c #383629",
"/#	c #29281C",
"(#	c #C7C6C3",
"_#	c #7F8383",
":#	c #DED4D2",
"<#	c #CB0606",
"[#	c #860000",
"}#	c #2A0B0B",
"|#	c #201717",
"1#	c #7A7978",
"2#	c #ABABA9",
"3#	c #D9D9D8",
"4#	c #242424",
"5#	c #BDBDBC",
"6#	c #D8D3D1",
"7#	c #1C0909",
"8#	c #2E2424",
"9#	c #9F9F9D",
"0#	c #E2E2E0",
"a#	c #070706",
"b#	c #E8E8E6",
"c#	c #E0E0DE",
"d#	c #C5C5C3",
"e#	c #C8C8C7",
"f#	c #717170",
"g#	c #525759",
"h#	c #EDEDEB",
"i#	c #797E7E",
"j#	c #43494A",
"k#	c #C0C1C0",
"l#	c #D6D7D5",
"m#	c #C6C7C6",
"n#	c #535859",
"o#	c #2E3435",
"p#	c #2F3336",
"                                                                                                ",
"                                                                                                ",
"                                                                                      .         ",
"                            + + + + + + + + + + + + + + + + + + + + + + + + + + + + + + +       ",
"                          @ + + # $ $ $ $ $ $ $ $ $ $ % & $ $ $ $ $ $ $ $ $ $ $ & * = - +       ",
"                          @ + ; > > > > > > > > > > > > > > > > > > > > > > > > > > , ' +       ",
"                          @ + ) > ! ~ ~ ~ ~ ~ ~ ~ ~ ~ { ] ^ ~ ~ ~ ~ { / ( _ : < [ } > | +       ",
"                          @ + 1 > 2 3                   4 5 6 7 8 9 0 a b c d e e f > g +       ",
"                          @ + h > i j k l m m k n o p q r s t u v w x e e e e e e y > g +       ",
"                          @ + z > A B C D E B B B B B B F G H e e e e e e e e e I J > g +       ",
"                          @ + K > A B B B B B B B B B B L G M e e e e e e e e e N O > | +       ",
"                          @ + K > A B B B B B B B B B B P G Q e e e e e e e e I R O > S +       ",
"                          @ + T > A B B B B B B B B B B U G V e e e e e e e e W X O > Y +       ",
"      Z ` ` ` ` ` ` ` ` ` + +  ...+.@.@.@.@.@.@.@.@.@.@.#.$.%.&.*.=.-.;.>.,.'.).!.~.> S + {.    ",
"      + + + + + + + + + + + + + + + + + + + + + + + + + + + + + + + ].^./.(._.:.<.[.> }.+ |.    ",
"      + 1.2.3.3.3.3.3.3.3.3.3.3.4.5.3.3.3.3.3.3.3.3.3.3.3.3.3.6.7.+ 8.9.0.a.b.b.b.c.> d.+       ",
"      + e.> > > > > > > > > > > > > > > > > > > > > > > > > > > f.+ 8.g.h.b.b.b.b.c.> i.+       ",
"      + j.> > k.k.k.k.k.k.k.k.k.l.m.k.k.k.k.k.k.k.k.k.k.k.k.n.> o.+ p.b.b.b.b.b.b.c.> q.+       ",
"      + j.> > r.r.r.r.r.r.r.r.r./ s.t.r.r.r.r.r.r.r.r.r.u.v.w.> o.+ x.b.b.b.b.b.b.c.> y.+       ",
"      + j.> z.r.r.r.r.r.r.r.r.r.r.A.B.r.r.r.r.r.r.r.r.C.D.E.F.> o.+ x.b.b.b.b.b.b.c.> G.+       ",
"      + j.> H.I.r.r.r.r.r.r.r.r.r.J.K.r.r.r.> L.M.N.O.P.Q.I R.> o.+ x.b.b.b.b.b.b.c.> S.+       ",
"      + j.> T.U.V.> W.X.Y.Z.I.`. +.+++@+#+$+%+&+*+=+-+;+e N R.> o.+ x.b.b.b.b.b.b.c.> S.+       ",
"      + j.> >+,+'+)+!+~+{+]+^+/+(+_+0 :+Q.<+[+e e e e e }+R |+> o.+ x.b.b.b.b.b.b.c.> 1++       ",
"      + j.> 2+B 3+4+B B B B B B B 5+6+7+e e e e e e e e 8+X 9+> o.+ 0+a+b+c+d+e+f+g+> i.+       ",
"      + j.> h+B B B B B B B B B B i+G j+e e e e e e e k+X X l+> o.+ m+n+o+p+q+r+s+t+> u++       ",
"      + j.> v+B B B B B B B B B B w+G x+e e e e e e y+X X X z+> o.+ A+            > > B++       ",
"      + j.> >+B B B B B B B B B B C+G D+e e e e e y+X X X X |+> o.+ A+            > > B++       ",
"      + j.> E+B B B B B B B B B F+G+G H+I+J+K+L+M+N+O+P+Q+R+R.> o.+ A+            > > B++       ",
"      + j.> S+B B B B B T+U+V+W+X+Y+G Z+`+ @.@+@@@#@$@:.%@&@*@> o.+ A+            > > B++       ",
"      + j.> S+B =@-@;@>@,@'@)@!@~@{@]@^@/@b.b.b.b.b.b.b.b.(@_@> o.+ A+            > > B++       ",
"      + j.> 2+:@<@[@}@|@1@2@2@3@4@5@6@7@b.b.b.b.b.b.b.b.b.b.8@> o.+ 9@            > > B++       ",
"      + j.> 0@a@b@2@2@2@2@c@d@e@e@f@6@g@b.b.b.b.b.b.b.b.b.b.h@> o.+ i@> > > > > > > > j@+       ",
"      + j.> k@l@2@2@2@2@m@n@e@e@e@o@p@b.b.b.b.b.b.b.b.b.b.b.q@> o.+ r@~ ~ ~ ~ ~ ~ ~   + +       ",
"      + j.> s@2@2@2@2@t@n@e@e@e@e@u@r+b.b.b.b.b.b.b.b.b.b.b.v@> o.+ + + + + + + + + + + +       ",
"      + j.> w@2@2@2@m@e@e@e@e@e@e@x@y@b.b.b.b.b.b.b.b.b.b.b.z@> o.+ + + + + + + + + + + +       ",
"      + j.> A@2@2@B@4@e@e@e@e@e@e@C@D@b.b.b.b.b.b.b.b.b.b.b.E@> F@+ G@                          ",
"      + j.> H@2@I@d@e@e@e@e@e@e@e@J@K@b.b.b.b.b.b.b.b.b.b.b.L@> M@+ A+                          ",
"      + j.> A@2@N@e@e@e@e@O@P@Q@R@S@T@U@V@W@X@Y@Z@a+b+c+d+`@ #> .#+ A+                          ",
"      + j.> +#c@n@e@@###$#%#&#*#=#-#;#>#,#'#)#!#~#{#]#^#/#/#(#> _#+ A+                          ",
"      + j.> :#<#[#}#|#1#2#3#> > > 4#5#> > > > > > > > > > > > > o.+ A+                          ",
"      + j.> 6#7#8#9#t.> > > > > 0#a#b#> > > > > > > > > > > > > o.+ A+                          ",
"      + j.> c#d#> > > > > > > > e#f#> > > > > > > > > > > > > > o.+ A+                          ",
"      + g#h#> > > > > > > > > > > > > > > > > > > > > > > > > > i#+ A+                          ",
"      + j#k#l#l#l#l#l#l#l#l#l#l#l#l#l#l#l#l#l#l#l#l#l#l#l#l#l#m#n#+ A+                          ",
"      + + + + + + + + + + + + + + + + + + + + + + + + + + + + + + + o#                          ",
"      + + + + + + + + + + + + + + + + + + + + + + + + + + + + + + p#                            ",
"                                                                                                ",
"                                                                                                "};
