/* XPM */
static const char * table_dbf_48_xpm[] = {
"48 48 202 2",
"  	c None",
". 	c #9A9A9A",
"+ 	c #9B9B9B",
"@ 	c #9D9D9D",
"# 	c #9F9F9F",
"$ 	c #A1A1A1",
"% 	c #A0A0A0",
"& 	c #9C9C9C",
"* 	c #989898",
"= 	c #959595",
"- 	c #939393",
"; 	c #919191",
"> 	c #8E8E8E",
", 	c #8C8C8C",
"' 	c #8A8A8A",
") 	c #878787",
"! 	c #858585",
"~ 	c #838383",
"{ 	c #808080",
"] 	c #7E7E7E",
"^ 	c #7B7B7B",
"/ 	c #797979",
"( 	c #777777",
"_ 	c #747474",
": 	c #727272",
"< 	c #707070",
"[ 	c #6D6D6D",
"} 	c #6B6B6B",
"| 	c #686868",
"1 	c #666666",
"2 	c #646464",
"3 	c #616161",
"4 	c #626262",
"5 	c #979797",
"6 	c #F8F8F8",
"7 	c #FEFEFE",
"8 	c #FDFDFD",
"9 	c #FCFCFC",
"0 	c #FBFBFB",
"a 	c #FAFAFA",
"b 	c #F3F3F3",
"c 	c #606060",
"d 	c #969696",
"e 	c #DDDDDD",
"f 	c #DEDEDE",
"g 	c #DFDFDF",
"h 	c #E0E0E0",
"i 	c #E1E1E1",
"j 	c #E2E2E2",
"k 	c #E3E3E3",
"l 	c #E4E4E4",
"m 	c #F9F9F9",
"n 	c #5D5D5D",
"o 	c #838D78",
"p 	c #9BA88F",
"q 	c #9CA990",
"r 	c #9DAA91",
"s 	c #9EAA91",
"t 	c #84907A",
"u 	c #9EAB91",
"v 	c #9EAB92",
"w 	c #85917C",
"x 	c #9FAC93",
"y 	c #86917C",
"z 	c #5C5C5C",
"A 	c #A2AF95",
"B 	c #C1D1B2",
"C 	c #C2D2B3",
"D 	c #C3D3B3",
"E 	c #C3D4B4",
"F 	c #A4B398",
"G 	c #C4D4B5",
"H 	c #C5D5B6",
"I 	c #A6B499",
"J 	c #E5E5E5",
"K 	c #A3B096",
"L 	c #A5B399",
"M 	c #C6D6B7",
"N 	c #A7B49A",
"O 	c #E6E6E6",
"P 	c #929292",
"Q 	c #A4B197",
"R 	c #C7D7B7",
"S 	c #A8B59A",
"T 	c #909090",
"U 	c #848F7A",
"V 	c #A0AD94",
"W 	c #88937D",
"X 	c #A1AE94",
"Y 	c #E7E7E7",
"Z 	c #5B5B5B",
"` 	c #8F8F8F",
" .	c #A4B297",
"..	c #C3C3C3",
"+.	c #E8E8E8",
"@.	c #C4C4C4",
"#.	c #8D8D8D",
"$.	c #E9E9E9",
"%.	c #5A5A5A",
"&.	c #8B8B8B",
"*.	c #85907A",
"=.	c #BBBBBB",
"-.	c #BCBCBC",
";.	c #BDBDBD",
">.	c #898989",
",.	c #EAEAEA",
"'.	c #C5C5C5",
").	c #595959",
"!.	c #C7D7B8",
"~.	c #A8B59B",
"{.	c #EBEBEB",
"].	c #C6C6C6",
"^.	c #585858",
"/.	c #85907B",
"(.	c #A1AE95",
"_.	c #89937E",
":.	c #BEBEBE",
"<.	c #BFBFBF",
"[.	c #C8D8B9",
"}.	c #A9B69C",
"|.	c #ECECEC",
"1.	c #C7C7C7",
"2.	c #575757",
"3.	c #818181",
"4.	c #A9B79D",
"5.	c #EDEDED",
"6.	c #C8C8C8",
"7.	c #565656",
"8.	c #7F7F7F",
"9.	c #A2AE95",
"0.	c #A2AF96",
"a.	c #89947E",
"b.	c #C0C0C0",
"c.	c #A2A2A2",
"d.	c #555555",
"e.	c #7D7D7D",
"f.	c #C9D9BA",
"g.	c #AAB89E",
"h.	c #EEEEEE",
"i.	c #C9C9C9",
"j.	c #545454",
"k.	c #CADABB",
"l.	c #EFEFEF",
"m.	c #CACACA",
"n.	c #535353",
"o.	c #87927D",
"p.	c #A3B097",
"q.	c #8A957F",
"r.	c #C1C1C1",
"s.	c #C2C2C2",
"t.	c #A4A4A4",
"u.	c #A3A3A3",
"v.	c #525252",
"w.	c #CBDBBB",
"x.	c #ABB99E",
"y.	c #F0F0F0",
"z.	c #F1F1F1",
"A.	c #515151",
"B.	c #ABB99F",
"C.	c #CBCBCB",
"D.	c #505050",
"E.	c #A4B198",
"F.	c #8A9580",
"G.	c #4E4E4E",
"H.	c #CBDBBC",
"I.	c #ACB99F",
"J.	c #F2F2F2",
"K.	c #CDCDCD",
"L.	c #CCCCCC",
"M.	c #4D4D4D",
"N.	c #6E6E6E",
"O.	c #4C4C4C",
"P.	c #6C6C6C",
"Q.	c #88937E",
"R.	c #A5B299",
"S.	c #8B9681",
"T.	c #A6A6A6",
"U.	c #A5A5A5",
"V.	c #6A6A6A",
"W.	c #CCDCBD",
"X.	c #ADBAA0",
"Y.	c #F4F4F4",
"Z.	c #CFCFCF",
"`.	c #F5F5F5",
" +	c #CECECE",
".+	c #676767",
"++	c #656565",
"@+	c #A6B399",
"#+	c #8C9781",
"$+	c #A8A8A8",
"%+	c #A7A7A7",
"&+	c #636363",
"*+	c #CDDDBE",
"=+	c #AEBBA0",
"-+	c #F6F6F6",
";+	c #D0D0D0",
">+	c #F7F7F7",
",+	c #5F5F5F",
"'+	c #A9A9A9",
")+	c #D2D2D2",
"!+	c #D1D1D1",
"~+	c #4F4F4F",
"                                                                                                ",
"                                                                                                ",
"                                                                                                ",
"              . + @ # $ % # & . * = - ; > , ' ) ! ~ { ] ^ / ( _ : < [ } | 1 2 3 4               ",
"            5 6 7 7 7 7 7 7 7 7 7 7 8 8 8 8 8 8 9 9 9 9 9 0 0 0 0 0 0 a a a a a b c             ",
"            d 7 e f f g g h h h i i j j j j k k k k l l l l l l l l l l l l l k m n             ",
"            d 7 f f o p q q r r r s s t u u u v v w v v v x x y x x x x v w l l m z             ",
"            = 7 f g A B B C C D D D E F E G G G H I H H H H H I H H H H H I J J m z             ",
"            - 7 g h K C C C D D E E E L G G H H H I M M M M M N M M M M M N O J m z             ",
"            P 7 h h Q C C D D E E G G L H H H M M N M M R R R S R R R R R N O O m z             ",
"            T 7 h i U s s u u u v v x y x V V V V W X X X X X W X X X X X W Y Y m Z             ",
"            ` 7 i i  .D E E G G G H H N O O Y Y Y ..+.+.+.+.+.@.+.+.+.+.+.@.+.Y m Z             ",
"            #.7 i j  .E E G G H H H M N Y Y Y +.+.@.+.+.$.$.$.@.$.$.$.$.$.@.+.+.m %.            ",
"            &.7 i j *.u v v x x V V V W =.=.=.=.=.# -.-.-.-.-.# ;.;.-.-.-.# $.$.m %.            ",
"            >.7 j k F G G H H M M R R S +.+.$.$.$.@.,.,.,.,.,.'.,.,.,.,.,.'.,.$.m ).            ",
"            ) 7 j k L G H H M M R R !.~.+.$.$.$.,.'.,.,.{.{.{.].{.{.{.{.{.'.,.,.m ^.            ",
"            ! 8 k k /.x x V V X X (.(._.-.-.;.;.;.% :.:.:.:.<.$ <.<.<.:.:.% {.{.m ^.            ",
"            ~ 8 k l L H M M R R !.!.[.}.,.,.,.{.{.].|.|.|.|.|.1.|.|.|.|.|.1.|.{.m 2.            ",
"            3.8 l l I H M R R !.!.[.[.4.,.{.{.{.|.1.|.|.5.5.5.6.5.5.5.5.5.6.|.|.m 7.            ",
"            8.8 l J y V V X (.(.9.9.0.a.:.:.<.<.<.$ <.<.<.<.b.c.b.b.b.b.<.$ 5.5.m d.            ",
"            e.8 l J N M R !.!.[.[.f.f.g.{.|.|.5.5.6.h.h.h.h.h.i.h.h.h.h.h.i.h.5.m j.            ",
"            ^ 8 J J N R R !.[.[.f.f.k.g.|.|.5.5.5.i.h.h.l.l.l.m.l.l.l.l.l.i.h.h.m n.            ",
"            / 9 J O o.X (.(.9.0.0.p.p.q.<.<.<.b.b.c.r.r.r.s.s.t.s.s.s.s.r.u.l.l.m v.            ",
"            ( 9 J O S R !.[.[.f.k.k.w.x.5.5.h.h.l.m.l.y.y.y.y.m.z.z.y.y.y.m.y.l.m A.            ",
"            _ 9 O O S !.!.[.f.f.k.w.w.B.5.h.h.l.l.m.y.y.z.z.z.C.z.z.z.z.z.m.y.y.m D.            ",
"            : 9 O Y W (.9.9.0.p.p.Q E.F.b.b.r.r.s.t...........t...........t.z.y.m G.            ",
"            < 9 O Y ~.!.[.f.f.k.w.w.H.I.h.l.l.y.y.C.z.J.J.J.J.K.b b J.J.J.L.z.z.m M.            ",
"            N.0 Y Y ~.[.[.f.k.k.w.H.H.I.l.l.y.y.z.C.J.J.b b b K.b b b b b L.J.J.6 O.            ",
"            P.0 Y +.Q.9.0.0.p.Q Q E.R.S.r.s.s.....t...@.@.'.'.T.'.'.'.'.@.U.b J.6 O.            ",
"            V.0 Y +.}.[.f.k.k.w.H.H.W.X.l.y.z.z.J.L.b b Y.Y.Y.Z.`.`.`.Y.Y. +b b 6 O.            ",
"            .+0 Y +.}.[.f.k.w.w.H.W.W.X.y.y.z.J.J.K.b Y.Y.`.`.Z.`.`.`.`.`. +Y.b 6 O.            ",
"            ++0 Y +._.0.0.p.Q E.E.R.@+#+s.......@.U.'.].].].1.$+1.1.1.1.].%+Y.b 6 O.            ",
"            &+0 +.+.}.f.f.k.w.H.H.W.*+=+y.z.J.J.b  +Y.`.-+-+-+;+>+>+-+-+-+Z.`.Y.6 O.            ",
"            3 a +.+.}.f.k.k.w.H.W.W.*+=+z.z.J.b b  +`.`.-+>+>+;+>+>+>+>+-+Z.`.Y.6 O.            ",
"            ,+a +.$._.0.p.p.Q E.R.R.@+#+......@.'.T.].1.1.6.6.'+6.6.6.6.6.$+`.`.6 O.            ",
"            n a +.$.}.f.k.w.w.H.W.*+*+=+z.J.J.b Y.Z.`.-+>+>+6 )+m m 6 6 >+Z.`.`.6 O.            ",
"            %.a +.$.}.f.k.w.w.H.W.*+*+=+z.J.J.b Y.Z.`.-+>+6 6 )+a m m 6 >+Z.-+`.6 O.            ",
"            ^.a +.$._.0.p.Q Q E.R.@+@+#+......@.'.%+].1.6.6.6.'+m.i.i.6.6.$+-+`.6 O.            ",
"            7.a +.$.}.f.k.w.w.H.W.*+*+=+z.J.J.b Y.Z.`.-+>+>+6 )+m m 6 6 >+Z.`.`.6 O.            ",
"            j.m +.$.}.f.k.k.w.H.W.W.*+=+z.z.J.b Y. +`.-+-+>+6 !+6 6 6 >+>+Z.`.`.6 O.            ",
"            v.m +.+._.0.p.p.Q E.R.R.@+#+......@.@.T.].1.1.6.6.'+6.6.6.6.1.$+`.Y.6 O.            ",
"            ~+m +.+.$.,.{.{.|.5.5.h.l.y.y.z.J.J.b Y.Y.`.-+-+>+>+>+>+>+-+-+`.`.Y.6 O.            ",
"            M.m Y +.$.,.,.{.|.5.5.h.l.l.y.z.J.J.b b Y.`.`.-+-+-+-+-+-+-+`.`.Y.Y.6 O.            ",
"            D.b m m m m m m m m m m m m 6 6 6 6 6 6 6 6 6 6 6 6 6 6 6 6 6 6 6 6 Y.D.            ",
"              D.O.O.O.O.O.O.O.O.O.O.O.O.O.O.O.O.O.O.O.O.O.O.O.O.O.O.O.O.O.O.O.O.D.              ",
"                                                                                                ",
"                                                                                                ",
"                                                                                                "};
