/* XPM */
static const char * table_tab_16_xpm[] = {
"16 16 71 1",
" 	c None",
".	c #121211",
"+	c #171717",
"@	c #101010",
"#	c #151515",
"$	c #EEEEEC",
"%	c #232323",
"&	c #EDECE8",
"*	c #706A5A",
"=	c #8D7D61",
"-	c #6F695A",
";	c #8B7C60",
">	c #716A5A",
",	c #E8E8E6",
"'	c #8C7C5D",
")	c #D4AC6B",
"!	c #D0A96A",
"~	c #907F5E",
"{	c #E9E9E7",
"]	c #80745B",
"^	c #B09464",
"/	c #7D725A",
"(	c #AD9263",
"_	c #7F735B",
":	c #7D7460",
"<	c #BEB8AA",
"[	c #BEB8AB",
"}	c #838179",
"|	c #BBB6A8",
"1	c #BEB9AC",
"2	c #86857D",
"3	c #897A5C",
"4	c #CCA769",
"5	c #8A7E66",
"6	c #E4E5E2",
"7	c #949592",
"8	c #E0E0DE",
"9	c #989996",
"0	c #706958",
"a	c #94815F",
"b	c #716C5D",
"c	c #A1A29F",
"d	c #767874",
"e	c #9FA09D",
"f	c #7C7D7A",
"g	c #8E8167",
"h	c #9C9D9A",
"i	c #716A58",
"j	c #6E695C",
"k	c #727470",
"l	c #969794",
"m	c #747672",
"n	c #E7E7E5",
"o	c #8E8067",
"p	c #776E5A",
"q	c #A08961",
"r	c #776F5E",
"s	c #B0B0AE",
"t	c #7D7E7B",
"u	c #ADADAB",
"v	c #7F817D",
"w	c #CCC9C3",
"x	c #D4D1CA",
"y	c #CBC9C3",
"z	c #D6D6D4",
"A	c #CDCDCB",
"B	c #D5D6D3",
"C	c #CDCECB",
"D	c #ECECEA",
"E	c #0D0D0D",
"F	c #3A3A3A",
"                ",
" .++++++++++++@ ",
" #$$$$$$$$$$$$% ",
" #&*==-==-;=>,% ",
" #&'))'))'!)~{% ",
" #&]^^/^^/(^_,% ",
" #&]^^:<[}|12,% ",
" #&3445667869{% ",
" #&0aabccdecf{% ",
" #&'))g$$9{$h{% ",
" #&i''j99kl9mn% ",
" #&'))o$$9{$h{% ",
" #&pqqrsstusvn% ",
" #$wxxyzzABzCD% ",
" EFFFFFFFFFFFFE ",
"                "};
