/* XPM */
static const char * table_pg_48_xpm[] = {
"48 48 141 2",
"  	c None",
". 	c #9A9A9A",
"+ 	c #9B9B9B",
"@ 	c #9D9D9D",
"# 	c #9F9F9F",
"$ 	c #A1A1A1",
"% 	c #A0A0A0",
"& 	c #9C9C9C",
"* 	c #989898",
"= 	c #959595",
"- 	c #939393",
"; 	c #919191",
"> 	c #8E8E8E",
", 	c #8C8C8C",
"' 	c #8A8A8A",
") 	c #878787",
"! 	c #858585",
"~ 	c #838383",
"{ 	c #808080",
"] 	c #7E7E7E",
"^ 	c #7B7B7B",
"/ 	c #797979",
"( 	c #777777",
"_ 	c #747474",
": 	c #727272",
"< 	c #707070",
"[ 	c #6D6D6D",
"} 	c #6B6B6B",
"| 	c #686868",
"1 	c #666666",
"2 	c #646464",
"3 	c #616161",
"4 	c #626262",
"5 	c #979797",
"6 	c #F8F8F8",
"7 	c #FEFEFE",
"8 	c #FDFDFD",
"9 	c #FCFCFC",
"0 	c #FBFBFB",
"a 	c #FAFAFA",
"b 	c #F3F3F3",
"c 	c #606060",
"d 	c #969696",
"e 	c #DDDDDD",
"f 	c #DEDEDE",
"g 	c #DFDFDF",
"h 	c #E0E0E0",
"i 	c #E1E1E1",
"j 	c #E2E2E2",
"k 	c #E3E3E3",
"l 	c #E4E4E4",
"m 	c #F9F9F9",
"n 	c #5D5D5D",
"o 	c #7F807C",
"p 	c #969993",
"q 	c #5C5C5C",
"r 	c #9D9F99",
"s 	c #BABDB6",
"t 	c #E5E5E5",
"u 	c #E6E6E6",
"v 	c #929292",
"w 	c #909090",
"x 	c #7E817C",
"y 	c #E7E7E7",
"z 	c #5B5B5B",
"A 	c #8F8F8F",
"B 	c #C3C3C3",
"C 	c #E8E8E8",
"D 	c #C4C4C4",
"E 	c #8D8D8D",
"F 	c #E9E9E9",
"G 	c #5A5A5A",
"H 	c #8B8B8B",
"I 	c #BBBBBB",
"J 	c #BCBCBC",
"K 	c #BDBDBD",
"L 	c #898989",
"M 	c #EAEAEA",
"N 	c #C5C5C5",
"O 	c #595959",
"P 	c #EBEBEB",
"Q 	c #C6C6C6",
"R 	c #585858",
"S 	c #BEBEBE",
"T 	c #BFBFBF",
"U 	c #ECECEC",
"V 	c #C7C7C7",
"W 	c #575757",
"X 	c #818181",
"Y 	c #EDEDED",
"Z 	c #C8C8C8",
"` 	c #565656",
" .	c #7F7F7F",
"..	c #C0C0C0",
"+.	c #A2A2A2",
"@.	c #555555",
"#.	c #7D7D7D",
"$.	c #EEEEEE",
"%.	c #C9C9C9",
"&.	c #545454",
"*.	c #EFEFEF",
"=.	c #CACACA",
"-.	c #535353",
";.	c #C1C1C1",
">.	c #C2C2C2",
",.	c #A4A4A4",
"'.	c #A3A3A3",
").	c #525252",
"!.	c #F0F0F0",
"~.	c #F1F1F1",
"{.	c #515151",
"].	c #CBCBCB",
"^.	c #505050",
"/.	c #4E4E4E",
"(.	c #F2F2F2",
"_.	c #CDCDCD",
":.	c #CCCCCC",
"<.	c #4D4D4D",
"[.	c #6E6E6E",
"}.	c #4C4C4C",
"|.	c #6C6C6C",
"1.	c #A6A6A6",
"2.	c #A5A5A5",
"3.	c #6A6A6A",
"4.	c #F4F4F4",
"5.	c #CFCFCF",
"6.	c #F5F5F5",
"7.	c #CECECE",
"8.	c #676767",
"9.	c #656565",
"0.	c #A8A8A8",
"a.	c #A7A7A7",
"b.	c #636363",
"c.	c #F6F6F6",
"d.	c #D0D0D0",
"e.	c #F7F7F7",
"f.	c #5F5F5F",
"g.	c #A9A9A9",
"h.	c #D2D2D2",
"i.	c #D1D1D1",
"j.	c #4F4F4F",
"                                                                                                ",
"                                                                                                ",
"                                                                                                ",
"              . + @ # $ % # & . * = - ; > , ' ) ! ~ { ] ^ / ( _ : < [ } | 1 2 3 4               ",
"            5 6 7 7 7 7 7 7 7 7 7 7 8 8 8 8 8 8 9 9 9 9 9 0 0 0 0 0 0 a a a a a b c             ",
"            d 7 e f f g g h h h i i j j j j k k k k l l l l l l l l l l l l l k m n             ",
"            d 7 f f o p p p p p p p p o p p p p p o p p p p p o p p p p p o l l m q             ",
"            = 7 f g r s s s s s s s s r s s s s s r s s s s s r s s s s s r t t m q             ",
"            - 7 g h r s s s s s s s s r s s s s s r s s s s s r s s s s s r u t m q             ",
"            v 7 h h r s s s s s s s s r s s s s s r s s s s s r s s s s s r u u m q             ",
"            w 7 h i x p p p p p p p p x p p p p p x p p p p p x p p p p p x y y m z             ",
"            A 7 i i r s s s s s s s s r u u y y y B C C C C C D C C C C C D C y m z             ",
"            E 7 i j r s s s s s s s s r y y y C C D C C F F F D F F F F F D C C m G             ",
"            H 7 i j x p p p p p p p p x I I I I I # J J J J J # K K J J J # F F m G             ",
"            L 7 j k r s s s s s s s s r C C F F F D M M M M M N M M M M M N M F m O             ",
"            ) 7 j k r s s s s s s s s r C F F F M N M M P P P Q P P P P P N M M m R             ",
"            ! 8 k k x p p p p p p p p x J J K K K % S S S S T $ T T T S S % P P m R             ",
"            ~ 8 k l r s s s s s s s s r M M M P P Q U U U U U V U U U U U V U P m W             ",
"            X 8 l l r s s s s s s s s r M P P P U V U U Y Y Y Z Y Y Y Y Y Z U U m `             ",
"             .8 l t x p p p p p p p p x S S T T T $ T T T T ..+.........T $ Y Y m @.            ",
"            #.8 l t r s s s s s s s s r P U U Y Y Z $.$.$.$.$.%.$.$.$.$.$.%.$.Y m &.            ",
"            ^ 8 t t r s s s s s s s s r U U Y Y Y %.$.$.*.*.*.=.*.*.*.*.*.%.$.$.m -.            ",
"            / 9 t u x p p p p p p p p x T T T ....+.;.;.;.>.>.,.>.>.>.>.;.'.*.*.m ).            ",
"            ( 9 t u r s s s s s s s s r Y Y $.$.*.=.*.!.!.!.!.=.~.~.!.!.!.=.!.*.m {.            ",
"            _ 9 u u r s s s s s s s s r Y $.$.*.*.=.!.!.~.~.~.].~.~.~.~.~.=.!.!.m ^.            ",
"            : 9 u y x p p p p p p p p x ....;.;.>.,.B B B B B ,.B B B B B ,.~.!.m /.            ",
"            < 9 u y r s s s s s s s s r $.*.*.!.!.].~.(.(.(.(._.b b (.(.(.:.~.~.m <.            ",
"            [.0 y y r s s s s s s s s r *.*.!.!.~.].(.(.b b b _.b b b b b :.(.(.6 }.            ",
"            |.0 y C x p p p p p p p p x ;.>.>.B B ,.B D D N N 1.N N N N D 2.b (.6 }.            ",
"            3.0 y C r s s s s s s s s r *.!.~.~.(.:.b b 4.4.4.5.6.6.6.4.4.7.b b 6 }.            ",
"            8.0 y C r s s s s s s s s r !.!.~.(.(._.b 4.4.6.6.5.6.6.6.6.6.7.4.b 6 }.            ",
"            9.0 y C x p p p p p p p p x >.B B B D 2.N Q Q Q V 0.V V V V Q a.4.b 6 }.            ",
"            b.0 C C r s s s s s s s s r !.~.(.(.b 7.4.6.c.c.c.d.e.e.c.c.c.5.6.4.6 }.            ",
"            3 a C C r s s s s s s s s r ~.~.(.b b 7.6.6.c.e.e.d.e.e.e.e.c.5.6.4.6 }.            ",
"            f.a C F x p p p p p p p p x B B B D N 1.Q V V Z Z g.Z Z Z Z Z 0.6.6.6 }.            ",
"            n a C F r s s s s s s s s r ~.(.(.b 4.5.6.c.e.e.6 h.m m 6 6 e.5.6.6.6 }.            ",
"            G a C F r s s s s s s s s r ~.(.(.b 4.5.6.c.e.6 6 h.a m m 6 e.5.c.6.6 }.            ",
"            R a C F x p p p p p p p p x B B B D N a.Q V Z Z Z g.=.%.%.Z Z 0.c.6.6 }.            ",
"            ` a C F r s s s s s s s s r ~.(.(.b 4.5.6.c.e.e.6 h.m m 6 6 e.5.6.6.6 }.            ",
"            &.m C F r s s s s s s s s r ~.~.(.b 4.7.6.c.c.e.6 i.6 6 6 e.e.5.6.6.6 }.            ",
"            ).m C C x p p p p p p p p x B B B D D 1.Q V V Z Z g.Z Z Z Z V 0.6.4.6 }.            ",
"            j.m C C F M P P U Y Y $.*.!.!.~.(.(.b 4.4.6.c.c.e.e.e.e.e.c.c.6.6.4.6 }.            ",
"            <.m y C F M M P U Y Y $.*.*.!.~.(.(.b b 4.6.6.c.c.c.c.c.c.c.6.6.4.4.6 }.            ",
"            ^.b m m m m m m m m m m m m 6 6 6 6 6 6 6 6 6 6 6 6 6 6 6 6 6 6 6 6 4.^.            ",
"              ^.}.}.}.}.}.}.}.}.}.}.}.}.}.}.}.}.}.}.}.}.}.}.}.}.}.}.}.}.}.}.}.}.^.              ",
"                                                                                                ",
"                                                                                                ",
"                                                                                                "};
