/* XPM */
static const char * table_dbf_16_xpm[] = {
"16 16 72 1",
" 	c None",
".	c #121211",
"+	c #171717",
"@	c #101010",
"#	c #151515",
"$	c #EEEEEC",
"%	c #232323",
"&	c #EBEDE8",
"*	c #636D58",
"=	c #71845E",
"-	c #626C58",
";	c #70835E",
">	c #636E59",
",	c #E8E8E6",
"'	c #EBECE8",
")	c #6F835B",
"!	c #90BD65",
"~	c #8EBA64",
"{	c #71875B",
"]	c #E9E9E7",
"^	c #697A59",
"/	c #7FA060",
"(	c #677759",
"_	c #7E9E60",
":	c #697959",
"<	c #6C795E",
"[	c #B2BBA9",
"}	c #B2BBAA",
"|	c #7E8379",
"1	c #B0B8A8",
"2	c #B4BBAB",
"3	c #81867C",
"4	c #6D805A",
"5	c #8CB764",
"6	c #748464",
"7	c #E4E5E2",
"8	c #949592",
"9	c #E0E0DE",
"0	c #989996",
"a	c #626D57",
"b	c #728A5C",
"c	c #656F5C",
"d	c #A1A29F",
"e	c #767874",
"f	c #9FA09D",
"g	c #7C7D7A",
"h	c #768765",
"i	c #9C9D9A",
"j	c #626E57",
"k	c #636C5B",
"l	c #727470",
"m	c #969794",
"n	c #747672",
"o	c #E7E7E5",
"p	c #758764",
"q	c #657258",
"r	c #78935E",
"s	c #68735D",
"t	c #B0B0AE",
"u	c #7D7E7B",
"v	c #ADADAB",
"w	c #7F817D",
"x	c #C7CAC2",
"y	c #CED2C9",
"z	c #C7CAC3",
"A	c #D6D6D4",
"B	c #CDCDCB",
"C	c #D5D6D3",
"D	c #CDCECB",
"E	c #ECECEA",
"F	c #0D0D0D",
"G	c #3A3A3A",
"                ",
" .++++++++++++@ ",
" #$$$$$$$$$$$$% ",
" #&*==-==-;=>,% ",
" #')!!)!!)~!{]% ",
" #'^//(//(_/:,% ",
" #'^//<[}|123,% ",
" #'4556778970]% ",
" #'abbcddefdg]% ",
" #')!!h$$0]$i]% ",
" #'j))k00lm0no% ",
" #')!!p$$0]$i]% ",
" #'qrrsttuvtwo% ",
" #$xyyzAABCADE% ",
" FGGGGGGGGGGGGF ",
"                "};
