/* XPM */
static const char * table_tab_48_xpm[] = {
"48 48 203 2",
"  	c None",
". 	c #9A9A9A",
"+ 	c #9B9B9B",
"@ 	c #9D9D9D",
"# 	c #9F9F9F",
"$ 	c #A1A1A1",
"% 	c #A0A0A0",
"& 	c #9C9C9C",
"* 	c #989898",
"= 	c #959595",
"- 	c #939393",
"; 	c #919191",
"> 	c #8E8E8E",
", 	c #8C8C8C",
"' 	c #8A8A8A",
") 	c #878787",
"! 	c #858585",
"~ 	c #838383",
"{ 	c #808080",
"] 	c #7E7E7E",
"^ 	c #7B7B7B",
"/ 	c #797979",
"( 	c #777777",
"_ 	c #747474",
": 	c #727272",
"< 	c #707070",
"[ 	c #6D6D6D",
"} 	c #6B6B6B",
"| 	c #686868",
"1 	c #666666",
"2 	c #646464",
"3 	c #616161",
"4 	c #626262",
"5 	c #979797",
"6 	c #F8F8F8",
"7 	c #FEFEFE",
"8 	c #FDFDFD",
"9 	c #FCFCFC",
"0 	c #FBFBFB",
"a 	c #FAFAFA",
"b 	c #F3F3F3",
"c 	c #606060",
"d 	c #969696",
"e 	c #DDDDDD",
"f 	c #DEDEDE",
"g 	c #DFDFDF",
"h 	c #E0E0E0",
"i 	c #E1E1E1",
"j 	c #E2E2E2",
"k 	c #E3E3E3",
"l 	c #E4E4E4",
"m 	c #F9F9F9",
"n 	c #5D5D5D",
"o 	c #94897A",
"p 	c #AFA391",
"q 	c #AFA491",
"r 	c #B0A592",
"s 	c #B1A693",
"t 	c #958C7C",
"u 	c #B2A694",
"v 	c #B3A694",
"w 	c #968D7C",
"x 	c #B3A795",
"y 	c #968D7D",
"z 	c #5C5C5C",
"A 	c #B7AA97",
"B 	c #D9CBB4",
"C 	c #DACCB5",
"D 	c #DBCDB6",
"E 	c #DCCDB7",
"F 	c #B9AD9A",
"G 	c #DDCEB7",
"H 	c #DDCFB8",
"I 	c #BAAF9B",
"J 	c #E5E5E5",
"K 	c #B7AB98",
"L 	c #BAAE9A",
"M 	c #DED0B9",
"N 	c #BBAF9C",
"O 	c #E6E6E6",
"P 	c #929292",
"Q 	c #B8AC99",
"R 	c #DFD1BA",
"S 	c #BCB09D",
"T 	c #909090",
"U 	c #948B7B",
"V 	c #978D7E",
"W 	c #B3A895",
"X 	c #988E7E",
"Y 	c #B4A996",
"Z 	c #E7E7E7",
"` 	c #5B5B5B",
" .	c #8F8F8F",
"..	c #B9AD99",
"+.	c #C3C3C3",
"@.	c #E8E8E8",
"#.	c #C4C4C4",
"$.	c #8D8D8D",
"%.	c #E9E9E9",
"&.	c #5A5A5A",
"*.	c #8B8B8B",
"=.	c #968C7D",
"-.	c #BBBBBB",
";.	c #BCBCBC",
">.	c #BDBDBD",
",.	c #898989",
"'.	c #EAEAEA",
").	c #C5C5C5",
"!.	c #595959",
"~.	c #E0D1BA",
"{.	c #BDB09D",
"].	c #EBEBEB",
"^.	c #C6C6C6",
"/.	c #585858",
"(.	c #978C7D",
"_.	c #B5A996",
":.	c #998F7F",
"<.	c #BEBEBE",
"[.	c #BFBFBF",
"}.	c #E1D2BB",
"|.	c #BEB19E",
"1.	c #ECECEC",
"2.	c #C7C7C7",
"3.	c #575757",
"4.	c #818181",
"5.	c #BEB29F",
"6.	c #EDEDED",
"7.	c #C8C8C8",
"8.	c #565656",
"9.	c #7F7F7F",
"0.	c #B6AA97",
"a.	c #B6AA98",
"b.	c #998F80",
"c.	c #C0C0C0",
"d.	c #A2A2A2",
"e.	c #555555",
"f.	c #7D7D7D",
"g.	c #E1D3BC",
"h.	c #BFB39F",
"i.	c #EEEEEE",
"j.	c #C9C9C9",
"k.	c #545454",
"l.	c #E2D4BD",
"m.	c #EFEFEF",
"n.	c #CACACA",
"o.	c #535353",
"p.	c #978E7E",
"q.	c #B7AB99",
"r.	c #9A9081",
"s.	c #C1C1C1",
"t.	c #C2C2C2",
"u.	c #A4A4A4",
"v.	c #A3A3A3",
"w.	c #525252",
"x.	c #E3D4BE",
"y.	c #BFB3A0",
"z.	c #F0F0F0",
"A.	c #F1F1F1",
"B.	c #515151",
"C.	c #C0B4A0",
"D.	c #CBCBCB",
"E.	c #505050",
"F.	c #9B9181",
"G.	c #4E4E4E",
"H.	c #E4D5BE",
"I.	c #C0B4A1",
"J.	c #F2F2F2",
"K.	c #CDCDCD",
"L.	c #CCCCCC",
"M.	c #4D4D4D",
"N.	c #6E6E6E",
"O.	c #4C4C4C",
"P.	c #6C6C6C",
"Q.	c #998E7E",
"R.	c #B8AD9A",
"S.	c #9B9282",
"T.	c #A6A6A6",
"U.	c #A5A5A5",
"V.	c #6A6A6A",
"W.	c #E4D6BF",
"X.	c #C1B5A2",
"Y.	c #F4F4F4",
"Z.	c #CFCFCF",
"`.	c #F5F5F5",
" +	c #CECECE",
".+	c #676767",
"++	c #656565",
"@+	c #B9AE9B",
"#+	c #9C9383",
"$+	c #A8A8A8",
"%+	c #A7A7A7",
"&+	c #636363",
"*+	c #E5D7C0",
"=+	c #C2B6A3",
"-+	c #F6F6F6",
";+	c #D0D0D0",
">+	c #F7F7F7",
",+	c #5F5F5F",
"'+	c #9D9384",
")+	c #A9A9A9",
"!+	c #D2D2D2",
"~+	c #D1D1D1",
"{+	c #4F4F4F",
"                                                                                                ",
"                                                                                                ",
"                                                                                                ",
"              . + @ # $ % # & . * = - ; > , ' ) ! ~ { ] ^ / ( _ : < [ } | 1 2 3 4               ",
"            5 6 7 7 7 7 7 7 7 7 7 7 8 8 8 8 8 8 9 9 9 9 9 0 0 0 0 0 0 a a a a a b c             ",
"            d 7 e f f g g h h h i i j j j j k k k k l l l l l l l l l l l l l k m n             ",
"            d 7 f f o p q q r r r s s t u u u v v w v v v x x y x x x x v w l l m z             ",
"            = 7 f g A B B C C D D D E F E G G G H I H H H H H I H H H H H I J J m z             ",
"            - 7 g h K C C C D D E E E L G G H H H I M M M M M N M M M M M N O J m z             ",
"            P 7 h h Q C C D D E E G G L H H H M M N M M R R R S R R R R R N O O m z             ",
"            T 7 h i U s s u u u v v x V x W W W W X Y Y Y Y Y X Y Y Y Y Y X Z Z m `             ",
"             .7 i i ..D E E G G G H H N O O Z Z Z +.@.@.@.@.@.#.@.@.@.@.@.#.@.Z m `             ",
"            $.7 i j ..E E G G H H H M N Z Z Z @.@.#.@.@.%.%.%.#.%.%.%.%.%.#.@.@.m &.            ",
"            *.7 i j =.u v v x x W W W X -.-.-.-.-.# ;.;.;.;.;.# >.>.;.;.;.# %.%.m &.            ",
"            ,.7 j k F G G H H M M R R S @.@.%.%.%.#.'.'.'.'.'.).'.'.'.'.'.).'.%.m !.            ",
"            ) 7 j k L G H H M M R R ~.{.@.%.%.%.'.).'.'.].].].^.].].].].].).'.'.m /.            ",
"            ! 8 k k (.x x W W Y Y _._.:.;.;.>.>.>.% <.<.<.<.[.$ [.[.[.<.<.% ].].m /.            ",
"            ~ 8 k l L H M M R R ~.~.}.|.'.'.'.].].^.1.1.1.1.1.2.1.1.1.1.1.2.1.].m 3.            ",
"            4.8 l l I H M R R ~.~.}.}.5.'.].].].1.2.1.1.6.6.6.7.6.6.6.6.6.7.1.1.m 8.            ",
"            9.8 l J V W W Y _._.0.0.a.b.<.<.[.[.[.$ [.[.[.[.c.d.c.c.c.c.[.$ 6.6.m e.            ",
"            f.8 l J N M R ~.~.}.}.g.g.h.].1.1.6.6.7.i.i.i.i.i.j.i.i.i.i.i.j.i.6.m k.            ",
"            ^ 8 J J N R R ~.}.}.g.g.l.h.1.1.6.6.6.j.i.i.m.m.m.n.m.m.m.m.m.j.i.i.m o.            ",
"            / 9 J O p.Y _._.0.a.a.q.q.r.[.[.[.c.c.d.s.s.s.t.t.u.t.t.t.t.s.v.m.m.m w.            ",
"            ( 9 J O S R ~.}.}.g.l.l.x.y.6.6.i.i.m.n.m.z.z.z.z.n.A.A.z.z.z.n.z.m.m B.            ",
"            _ 9 O O S ~.~.}.g.g.l.x.x.C.6.i.i.m.m.n.z.z.A.A.A.D.A.A.A.A.A.n.z.z.m E.            ",
"            : 9 O Z X _.0.0.a.q.q.q.Q F.c.c.s.s.t.u.+.+.+.+.+.u.+.+.+.+.+.u.A.z.m G.            ",
"            < 9 O Z {.~.}.g.g.l.x.x.H.I.i.m.m.z.z.D.A.J.J.J.J.K.b b J.J.J.L.A.A.m M.            ",
"            N.0 Z Z {.}.}.g.l.l.x.H.H.I.m.m.z.z.A.D.J.J.b b b K.b b b b b L.J.J.6 O.            ",
"            P.0 Z @.Q.0.a.a.q.q.q.Q R.S.s.t.t.+.+.u.+.#.#.).).T.).).).).#.U.b J.6 O.            ",
"            V.0 Z @.|.}.g.l.l.x.H.H.W.X.m.z.A.A.J.L.b b Y.Y.Y.Z.`.`.`.Y.Y. +b b 6 O.            ",
"            .+0 Z @.|.}.g.l.x.x.H.W.W.X.z.z.A.J.J.K.b Y.Y.`.`.Z.`.`.`.`.`. +Y.b 6 O.            ",
"            ++0 Z @.:.a.a.q.q.Q Q R.@+#+t.+.+.+.#.U.).^.^.^.2.$+2.2.2.2.^.%+Y.b 6 O.            ",
"            &+0 @.@.|.g.g.l.x.H.H.W.*+=+z.A.J.J.b  +Y.`.-+-+-+;+>+>+-+-+-+Z.`.Y.6 O.            ",
"            3 a @.@.|.g.l.l.x.H.W.W.*+=+A.A.J.b b  +`.`.-+>+>+;+>+>+>+>+-+Z.`.Y.6 O.            ",
"            ,+a @.%.:.a.q.q.q.Q R.R.@+'++.+.+.#.).T.^.2.2.7.7.)+7.7.7.7.7.$+`.`.6 O.            ",
"            n a @.%.|.g.l.x.x.H.W.*+*+=+A.J.J.b Y.Z.`.-+>+>+6 !+m m 6 6 >+Z.`.`.6 O.            ",
"            &.a @.%.|.g.l.x.x.H.W.*+*+=+A.J.J.b Y.Z.`.-+>+6 6 !+a m m 6 >+Z.-+`.6 O.            ",
"            /.a @.%.:.a.q.q.q.Q R.@+@+'++.+.+.#.).%+^.2.7.7.7.)+n.j.j.7.7.$+-+`.6 O.            ",
"            8.a @.%.|.g.l.x.x.H.W.*+*+=+A.J.J.b Y.Z.`.-+>+>+6 !+m m 6 6 >+Z.`.`.6 O.            ",
"            k.m @.%.|.g.l.l.x.H.W.W.*+=+A.A.J.b Y. +`.-+-+>+6 ~+6 6 6 >+>+Z.`.`.6 O.            ",
"            w.m @.@.:.a.q.q.q.Q R.R.@+'++.+.+.#.#.T.^.2.2.7.7.)+7.7.7.7.2.$+`.Y.6 O.            ",
"            {+m @.@.%.'.].].1.6.6.i.m.z.z.A.J.J.b Y.Y.`.-+-+>+>+>+>+>+-+-+`.`.Y.6 O.            ",
"            M.m Z @.%.'.'.].1.6.6.i.m.m.z.A.J.J.b b Y.`.`.-+-+-+-+-+-+-+`.`.Y.Y.6 O.            ",
"            E.b m m m m m m m m m m m m 6 6 6 6 6 6 6 6 6 6 6 6 6 6 6 6 6 6 6 6 Y.E.            ",
"              E.O.O.O.O.O.O.O.O.O.O.O.O.O.O.O.O.O.O.O.O.O.O.O.O.O.O.O.O.O.O.O.O.E.              ",
"                                                                                                ",
"                                                                                                ",
"                                                                                                "};
