/* XPM */
static const char * table_pg_16_xpm[] = {
"16 16 68 1",
" 	c None",
".	c #121211",
"+	c #171717",
"@	c #101010",
"#	c #151515",
"$	c #EEEEEC",
"%	c #232323",
"&	c #EDEDEB",
"*	c #6B6D69",
"=	c #82857F",
"-	c #6A6C68",
";	c #81837E",
">	c #6C6E69",
",	c #E8E8E6",
"'	c #ECECEA",
")	c #BABDB6",
"!	c #B7BAB3",
"~	c #848781",
"{	c #E9E9E7",
"]	c #777A75",
"^	c #9DA09A",
"/	c #747772",
"(	c #9B9E98",
"_	c #777974",
":	c #B9BBB7",
"<	c #BABBB7",
"[	c #81837F",
"}	c #B7B8B5",
"|	c #BABBB8",
"1	c #858682",
"2	c #7E807B",
"3	c #B4B7B0",
"4	c #82847F",
"5	c #E4E5E2",
"6	c #949592",
"7	c #E0E0DE",
"8	c #989996",
"9	c #6B6D68",
"0	c #878A84",
"a	c #6D6F6A",
"b	c #A1A29F",
"c	c #767874",
"d	c #9FA09D",
"e	c #7C7D7A",
"f	c #858782",
"g	c #9C9D9A",
"h	c #6B6E69",
"i	c #6A6C67",
"j	c #727470",
"k	c #969794",
"l	c #747672",
"m	c #E7E7E5",
"n	c #848782",
"o	c #70726D",
"p	c #91938E",
"q	c #71736E",
"r	c #B0B0AE",
"s	c #7D7E7B",
"t	c #ADADAB",
"u	c #7F817D",
"v	c #CACAC8",
"w	c #D2D2D0",
"x	c #D6D6D4",
"y	c #CDCDCB",
"z	c #D5D6D3",
"A	c #CDCECB",
"B	c #0D0D0D",
"C	c #3A3A3A",
"                ",
" .++++++++++++@ ",
" #$$$$$$$$$$$$% ",
" #&*==-==-;=>,% ",
" #';));));!)~{% ",
" #']^^/^^/(^_,% ",
" #']^^_:<[}|1,% ",
" #'2334556758{% ",
" #'900abbcdbe{% ",
" #';))f$$8{$g{% ",
" #'h;;i88jk8lm% ",
" #';))n$$8{$g{% ",
" #'oppqrrstrum% ",
" #$vwwvxxyzxA'% ",
" BCCCCCCCCCCCCB ",
"                "};
