/* XPM */
static const char *toolexec_48_xpm[] = {
/* width height num_colors chars_per_pixel */
"    48    48      256            2",
/* colors */
"`` c None",
"`. c #6c82a4",
"`# c #bcc2cc",
"`a c #a49eb4",
"`b c #8c9ab4",
"`c c #dce2e4",
"`d c #444a64",
"`e c #4c6a94",
"`f c #acb2bc",
"`g c #84829c",
"`h c #ccd2d4",
"`i c #6c6a84",
"`j c #ccc2dc",
"`k c #848eac",
"`l c #c4bad4",
"`m c #a4aab4",
"`n c #94a6c4",
"`o c #b4bac4",
"`p c #6c768c",
"`q c #948eac",
"`r c #748aa4",
"`s c #5c769c",
"`t c #9c9ab4",
"`u c #ecf2f4",
"`v c #c4cacc",
"`w c #bcb2d4",
"`x c #d4dadc",
"`y c #848eb4",
"`z c #b4aecc",
"`A c #7c7a94",
"`B c #545a74",
"`C c #5c667c",
"`D c #cccad4",
"`E c #a4aac4",
"`F c #7c8294",
"`G c #acb2cc",
"`H c #6c7aa4",
"`I c #c4c2cc",
"`J c #a4a6b4",
"`K c #94a2bc",
"`L c #eceaf4",
"`M c #646e84",
"`N c #8c9abc",
"`O c #dcd2e4",
"`P c #6c7e9c",
"`Q c #9ca2ac",
"`R c #d4cadc",
"`S c #7482a4",
"`T c #ece6f4",
"`U c #4c526c",
"`V c #8c8e9c",
"`W c #bcbac4",
"`X c #7c8aa4",
"`Y c #fcfafc",
"`Z c #8496b4",
"`0 c #acaacc",
"`1 c #e4e2e4",
"`2 c #848a9c",
"`3 c #d4d2dc",
"`4 c #6c7284",
"`5 c #74768c",
"`6 c #9496a4",
"`7 c #dcdadc",
"`8 c #5c627c",
".` c #64667c",
".. c #b4b2cc",
".# c #a4a6c4",
".a c #bcc2dc",
".b c #b4b2bc",
".c c #acaab4",
".d c #647ea4",
".e c #f4f2f4",
".f c #5c5e74",
".g c #cccae4",
".h c #c4c2dc",
".i c #949abc",
".j c #54566c",
".k c #8c8eac",
".l c #7c8ab4",
".m c #dcdaec",
".n c #a4a2c4",
".o c #546a94",
".p c #d4c6e4",
".q c #ccbedc",
".r c #9ca6bc",
".s c #64769c",
".t c #9c9ec4",
".u c #c4cadc",
".v c #8c92b4",
".w c #ccced4",
".x c #a4aec4",
".y c #7c86a4",
".z c #9ca2bc",
".A c #7486a4",
".B c #bcbad4",
".C c #e4e6f4",
".D c #848ab4",
".E c #d4d6dc",
".F c #646a8c",
".G c #b4b6cc",
".H c #f4f6f4",
".I c #6c86ac",
".J c #bcc6d4",
".K c #a4a2b4",
".L c #949aac",
".M c #6c6e84",
".N c #ccc6dc",
".O c #c4bedc",
".P c #b4bad4",
".Q c #6c7a94",
".R c #9492a4",
".S c #9c9eac",
".T c #bcb6cc",
".U c #7c7e94",
".V c #545e74",
".W c #6c7ea4",
".X c #c4c6cc",
".Y c #aca6bc",
".Z c #5c729c",
".0 c #d4cee4",
".1 c #4c566c",
".2 c #8c92a4",
".3 c #7c8eac",
".4 c #8c96b4",
".5 c #acaec4",
".6 c #e4e6ec",
".7 c #8c8aa4",
".8 c #74728c",
"#` c #747a8c",
"#. c #9496bc",
"## c #4c4e6c",
"#a c #aca6cc",
"#b c #ccd2e4",
"#c c #747e9c",
"#d c #dcdee4",
"#e c #646a84",
"#f c #b4b6c4",
"#g c #acaebc",
"#h c #949ebc",
"#i c #546e94",
"#j c #9caac4",
"#k c #647aa4",
"#l c #949eb4",
"#m c #84869c",
"#n c #8492ac",
"#o c #8492b4",
"#p c #acb6cc",
"#q c #eceef4",
"#r c #8c9ebc",
"#s c #dcd6e4",
"#t c #bcbec4",
"#u c #fcfefc",
"#v c #bcc6dc",
"#w c #c4c6dc",
"#x c #8c92ac",
"#y c #7c8eb4",
"#z c #dcdeec",
"#A c #c4cedc",
"#B c #bcbed4",
"#C c #b4bed4",
"#D c #6c82ac",
"#E c #bcc2d4",
"#F c #dce2ec",
"#G c #acb2c4",
"#H c #c4badc",
"#I c #a4aabc",
"#J c #6c7694",
"#K c #748aac",
"#L c #c4cad4",
"#M c #b4aed4",
"#N c #5c6684",
"#O c #cccadc",
"#P c #a4aacc",
"#Q c #7c829c",
"#R c #c4c2d4",
"#S c #a4a6bc",
"#T c #646e8c",
"#U c #9ca2b4",
"#V c #d4cae4",
"#W c #7482ac",
"#X c #8c8ea4",
"#Y c #7c8aac",
"#Z c #e4e2ec",
"#0 c #848aa4",
"#1 c #d4d2e4",
"#2 c #6c728c",
"#3 c #9496ac",
"#4 c #dcdae4",
"#5 c #646684",
"#6 c #b4b2d4",
"#7 c #a4a6cc",
"#8 c #b4b2c4",
"a` c #acaabc",
"a. c #f4f2fc",
"a# c #5c5e7c",
"aa c #949ac4",
"ab c #545674",
"ac c #9ca6c4",
"ad c #6476a4",
"ae c #8c92bc",
"af c #cccedc",
"ag c #a4aecc",
"ah c #7c86ac",
"ai c #9ca2c4",
"aj c #7486ac",
"ak c #d4d6e4",
"al c #b4b6d4",
"am c #f4f6fc",
"an c #a4a2bc",
"ao c #6c6e8c",
"ap c #ccc6e4",
"aq c #9492ac",
"ar c #9c9eb4",
"as c #bcb6d4",
"at c #7c7e9c",
"au c #545e7c",
"av c #6c7eac",
"aw c #4c5674",
"ax c #8c96bc",
"ay c #acaecc",
"az c #747a94",
"aA c #546e9c",
"aB c #000000",
"aC c #000000",
"aD c #000000",
"aE c #000000",
"aF c #000000",
"aG c #000000",
"aH c #000000",
"aI c #000000",
"aJ c #000000",
"aK c #000000",
"aL c #000000",
"aM c #000000",
"aN c #000000",
"aO c #000000",
"aP c #000000",
"aQ c #000000",
"aR c #000000",
"aS c #000000",
"aT c #000000",
"aU c #000000",
"aV c #000000",
"aW c #000000",
"aX c #000000",
"aY c #000000",
"aZ c #000000",
"a0 c #000000",
"a1 c #000000",
"a2 c #000000",
"a3 c #000000",
"a4 c #000000",
"a5 c #000000",
"a6 c #000000",
"a7 c #000000",
"a8 c #000000",
/* pixels */
"````````````````````````````````````````````````````````````````````````````````````````````````",
"````````````````````````````````````````````````````````````````````````````````````````````````",
"```````````````````````````````````````````5`B`Ba##e.b``````````````````````````````````````````",
"`````````````````````````````````````````D#5aj#K`r`Pa#``````````````````````````````````````````",
"`````````````````````````````````````````J`H.d.Z.Z`Z`U``````````````````````````````````````````",
"`````````````````````````````````````````A.A.Z`e`e#oau``````````````````````````````````````````",
"````````````````````#4```````````````````B`Z#i.o.o.3#T.N````````````````#f``````````````````````",
"```````````````````Iawab.X```````````````U`b.oaAaA#K.s`m`````````````3a##5`i````````````````````",
"`````````````````Wau`Z#Y`B#X````````.N`4#N#oaA.Z.Z`..y`U`a`````````t.V.4`K`S`i``````````````````",
"``````````````#f`8#o.s`.`Z.Fa#`3.Kaw`C`S#raj.Z.Z.Z`H`N.4`p`U`5.T.f#J`Kaj.W`N.y#5````````````````",
"```````````````d#o`.aA.Z#k`b`.`B#J`Z`baj.sad`sadadad#k`.`Z`K.y#N#n#r`Sav.W.Wac`4#8``````````````",
"``````````````.K#T`b.Z.Z.Z.Z#o`K#y`..sadad.s#kad#k#k`H`H.Wav`Zac#o.Wav#c#Dax.4.f````````````````",
"````````````````#e.A#Y.Z`s.u#b#A#L.P#j`Z#K#k`H#k.W.W.W.Wav.Wav#c#D#W#W#W#o.zaw#d````````````````",
"``````````````````ab`N#Dad.u#u#u#u#u#u#u`L`H.W.W.Wav.W#Wav#W#W#W#W#Waj.l`E#N`f``````````````````",
"``````````````````.b#e`K`Haj.e#u#u#u#uam#rav#Wav#W#W#W#W`Saj#Wahajahah`E#c#`````````````````````",
"````````````````````##`Kaj.W#z#u#u#u#u#O#W`Saj.4#o#Wajahahahah.lah.l.l`E#Ja`````````````````````",
"``````````````````a`#J`Nav`K#u#u#u#u.C#Y.x#v.u.G#Eaf#C`N.l.l.l#Y.D#y.D.i.zab````````````````````",
"```````````````````B`Kah#yam#u.e#ua.ac#v.r.`.1.U`C`U`F#w#p`k`y`y`y`y`y`yagao#f``````````````````",
"````````````````#R.M#haj.u#u#z.iam.J.u`A`5``````````#8`B#I#B`y`y#o.v#oaeai.z.V``````````````````",
"`````````````````i#nax#Y`Y#u#h.lag#w#Q#l`````````````````B#E#P.vaeaeaxax#..G#e`i.L`W#Z``````````",
"``````a`.7#e`Ua#`p#P#Y#P#u.C.l.D.x#G#e```````````````````D#e#baxax.Xa..G#.#jal.z.k#c#5##.M``````",
"`````5az#x.z`Eacai`N.D.J#u.u`y`y#E#c`3````````````````````ao#R.#.i.u#uakaa`tai.#ay...P#B#5``````",
"````#e.t`b`y.l`y.D`y`yaf#u#B`y.v`hab``````````````````````.S#I#6.iay#u.e.t.t.t.t.tai.tal`5`x````",
"`````8.rae`y`y`y`y#o`y#b#u#w.vax#b.1```````````````````````W#x#E.t.t#u#u.naiai.nai.n.#al.U`D````",
"````#5.z#hae#o.vae.vae#B#uakax#.#1ab``````````````````````.K#S.Bai.n`Y#u#P.n#7`0ayal.B.h`F.X````",
"`````i#c#lay#payac#hax#P#u.e#..i#waz`7````````````````````az#Ray.n#7#u#u#7`0.h.T.#aq#Q`i###4````",
"````#d.K#``B.j.F#X`G.i.ia.#z#haa.B#Iaz``````````````````#4`8#s#P.#.B#ua.#a.B`t.1`5`6`o.E````````",
"```````````````xab...taa`t.t.t.taiak`5#f````````````````.`#B#4#6#a.m#u.m`0.h.M.w````````````````",
"````````````````#X#xay.t.t.tai.t.nay.0#e#X```````````3.fanak.e.C.G#u#u.Bas.Bab``````````````````",
"`````````````````D`i#Bai.nai.n.n#7.#.P#sarabao.R#Qa#`i#w#1#Z#u`Yam#u#Z#M.h`q.L``````````````````",
"```````````````````8.#`z#7.n#7.##7#a#aayaf#z#O#8#B#s#z#R.Bam#u#u#ua.as`w#O`8#d``````````````````",
"``````````````````.X#e.h#7.Y`0#a`0`0`0`0`z`0as.h.O..#M#M`L#u#u#u#u.m`w.O.O`U````````````````````",
"````````````````````##.O..`0`0`0`0`zay`z#M`z#M`z..#6`w#O`Y#u#u#u#uam#Has.0`g.S``````````````````",
"``````````````````.8.i.Oay`0#M#M`z#M#M#M..#6`w#6`w`was.e#u#u#u#u#u#u`T`l.O`Ra#`x````````````````",
"````````````````.K`A#w`z#M`z#6..#6#6`w#6`was`wasasas.O`L`L`L`L`L`L`L`T.O.qap.Ta#````````````````",
"``````````````#s`8.has`z`w#6`l#w`l`wasasasasas#H`l#H#H#H#H.q#H.p`O.0`j.q#H.q.0`q.2``````````````",
"```````````````B.T.O#6`was.h.h`t.N.g.O`l#H#H#H#H#H#H#H.q.qap`O#8#5#X.0ap.q.O.N.O##``````````````",
"``````````````#5ar.Nas#H.ga`ab#m.1`q.N.0#V`j.O.q#H.q.N#V#1...8.`.w#X.`#R#V`j.N.``v``````````````",
"````````````````#e`t.0.N`F`i``````.R.1`i#3#V.N.q.O.q`O`q.j#2`W``````#R`Ban`R#5#t````````````````",
"```````````````````i#m.f.K````````````.E`5`aap.q#H`j.gab````````````````.M`U#f``````````````````",
"````````````````````#3#4`````````````````W#m#V.q.O`j.T#```````````````````#Z````````````````````",
"````````````````````````````````````````#4ao`O#H.q.p`aar````````````````````````````````````````",
"```````````````````````````````````````````U`O.O.q.g#m`I````````````````````````````````````````",
"```````````````````````````````````````````B#V.0.0`O#e``````````````````````````````````````````",
"```````````````````````````````````````````A#2`g`Aazab``````````````````````````````````````````",
"`````````````````````````````````````````````D.X.w.E````````````````````````````````````````````",
"````````````````````````````````````````````````````````````````````````````````````````````````",
"````````````````````````````````````````````````````````````````````````````````````````````````"
};
