/* XPM */
static const char *tool_48_xpm[] = {
/* width height num_colors chars_per_pixel */
"    48    48      256            2",
/* colors */
"`` c None",
"`. c #6c7a94",
"`# c #b4b6c4",
"`a c #9492a4",
"`b c #848e9c",
"`c c #9ca6bc",
"`d c #ccd2dc",
"`e c #c4c6cc",
"`f c #7c7e94",
"`g c #b4aec4",
"`h c #c4b6d4",
"`i c #949eb4",
"`j c #a4aecc",
"`k c #8496b4",
"`l c #7486a4",
"`m c #bcbec4",
"`n c #7c869c",
"`o c #546a94",
"`p c #747a8c",
"`q c #8c8e9c",
"`r c #aca6bc",
"`s c #6c6e8c",
"`t c #dce2e4",
"`u c #d4c6e4",
"`v c #a49eb4",
"`w c #8c8aa4",
"`x c #bcb6cc",
"`y c #7c86ac",
"`z c #949aac",
"`A c #c4bed4",
"`B c #64728c",
"`C c #9ca6c4",
"`D c #ccced4",
"`E c #949ebc",
"`F c #6c82a4",
"`G c #7c8eac",
"`H c #c4c6dc",
"`I c #bcb2cc",
"`J c #d4dadc",
"`K c #acaebc",
"`L c #84869c",
"`M c #7482a4",
"`N c #ccbedc",
"`O c #848eac",
"`P c #647aa4",
"`Q c #b4b6d4",
"`R c #b4aed4",
"`S c #8c92b4",
"`T c #acaecc",
"`U c #9496bc",
"`V c #8c96b4",
"`W c #bcbed4",
"`X c #646a84",
"`Y c #74829c",
"`Z c #aca6cc",
"`0 c #eceaec",
"`1 c #bcb6d4",
"`2 c #9c9aac",
"`3 c #c4bedc",
"`4 c #5c729c",
"`5 c #a4a6c4",
"`6 c #9c9ec4",
"`7 c #6c7aa4",
"`8 c #b4bac4",
".` c #9496a4",
".. c #a4a6b4",
".# c #cccad4",
".a c #84829c",
".b c #b4b2c4",
".c c #9c9eac",
".d c #747e9c",
".e c #8c92ac",
".f c #6c768c",
".g c #e4eaec",
".h c #848ab4",
".i c #ccc6dc",
".j c #dcdadc",
".k c #acb2bc",
".l c #848a9c",
".m c #8492ac",
".n c #8c9ab4",
".o c #64769c",
".p c #a4aac4",
".q c #d4d2dc",
".r c #c4cad4",
".s c #7c8294",
".t c #c4bad4",
".u c #748aac",
".v c #bcc2cc",
".w c #7c8aa4",
".x c #747e94",
".y c #8c92a4",
".z c #acaabc",
".A c #e4e2e4",
".B c #d4cee4",
".C c #a4a2c4",
".D c #bcbac4",
".E c #7c8aac",
".F c #949abc",
".G c #c4c2cc",
".H c #94a2bc",
".I c #7c92b4",
".J c #646e84",
".K c #6c7ea4",
".L c #a4aabc",
".M c #9ca2b4",
".N c #cccadc",
".O c #dcdee4",
".P c #b4b6cc",
".Q c #9492ac",
".R c #c4c6d4",
".S c #b4aecc",
".T c #7486ac",
".U c #bcbecc",
".V c #7c86a4",
".W c #546e9c",
".X c #747a94",
".Y c #8c8ea4",
".Z c #6c728c",
".0 c #d4cae4",
".1 c #a4a2bc",
".2 c #949ab4",
".3 c #6c82ac",
".4 c #7c8eb4",
".5 c #bcb2d4",
".6 c #acaec4",
".7 c #8486a4",
".8 c #7482ac",
"#` c #ccc2dc",
"#. c #74768c",
"## c #e4e6ec",
"#a c #647ea4",
"#b c #b4bad4",
"#c c #b4b2d4",
"#d c #acb2cc",
"#e c #bcc2d4",
"#f c #acaacc",
"#g c #bcbad4",
"#h c #c4c2dc",
"#i c #5c769c",
"#j c #9ca2c4",
"#k c #d4d6dc",
"#l c #848eb4",
"#m c #8c92bc",
"#n c #8c96bc",
"#o c #9c9ab4",
"#p c #a4a6cc",
"#q c #b4bacc",
"#r c #9496ac",
"#s c #a4a6bc",
"#t c #b4b2cc",
"#u c #9c9eb4",
"#v c #ccc6e4",
"#w c #dcdae4",
"#x c #acb2c4",
"#y c #848aa4",
"#z c #8492b4",
"#A c #8c9abc",
"#B c #6476a4",
"#C c #a4aacc",
"#D c #7c829c",
"#E c #c4badc",
"#F c #acaac4",
"#G c #bcbacc",
"#H c #7c8ab4",
"#I c #c4c2d4",
"#J c #94a2c4",
"#K c #646e8c",
"#L c #6c7eac",
"#M c #000000",
"#N c #000000",
"#O c #000000",
"#P c #000000",
"#Q c #000000",
"#R c #000000",
"#S c #000000",
"#T c #000000",
"#U c #000000",
"#V c #000000",
"#W c #000000",
"#X c #000000",
"#Y c #000000",
"#Z c #000000",
"#0 c #000000",
"#1 c #000000",
"#2 c #000000",
"#3 c #000000",
"#4 c #000000",
"#5 c #000000",
"#6 c #000000",
"#7 c #000000",
"#8 c #000000",
"a` c #000000",
"a. c #000000",
"a# c #000000",
"aa c #000000",
"ab c #000000",
"ac c #000000",
"ad c #000000",
"ae c #000000",
"af c #000000",
"ag c #000000",
"ah c #000000",
"ai c #000000",
"aj c #000000",
"ak c #000000",
"al c #000000",
"am c #000000",
"an c #000000",
"ao c #000000",
"ap c #000000",
"aq c #000000",
"ar c #000000",
"as c #000000",
"at c #000000",
"au c #000000",
"av c #000000",
"aw c #000000",
"ax c #000000",
"ay c #000000",
"az c #000000",
"aA c #000000",
"aB c #000000",
"aC c #000000",
"aD c #000000",
"aE c #000000",
"aF c #000000",
"aG c #000000",
"aH c #000000",
"aI c #000000",
"aJ c #000000",
"aK c #000000",
"aL c #000000",
"aM c #000000",
"aN c #000000",
"aO c #000000",
"aP c #000000",
"aQ c #000000",
"aR c #000000",
"aS c #000000",
"aT c #000000",
"aU c #000000",
"aV c #000000",
"aW c #000000",
"aX c #000000",
"aY c #000000",
"aZ c #000000",
"a0 c #000000",
"a1 c #000000",
"a2 c #000000",
"a3 c #000000",
"a4 c #000000",
"a5 c #000000",
"a6 c #000000",
"a7 c #000000",
"a8 c #000000",
/* pixels */
"````````````````````````````````````````````````````````````````````````````````````````````````",
"````````````````````````````````````````````````````````````````````````````````````````````````",
"````````````````````````````````````````````````````````````````````````````````````````````````",
"````````````````````````````````````````````````````````````````#.#K.Z`X````````````````````````",
"````````````````````````````````````````````````````````````````.X#a`P.d.O``````````````````````",
"``````````````````````````````````````````````````````````````.A`M`o`o`M.G``````````````````````",
"`````````````````````````````````````````````````0`X#D````````.b`l.W.W.E#r`````````f.Z.q````````",
"```````````````````````````````````````````````0.Z.E.E#K.j.N.x#..I`4`4`G.d.X.U`A.f`S#z#D.q``````",
"```````````````````````````````````````````````f.4.W`4`G`..V`G.T.o#B.o`P.8`k.w.w#z.K#L#A`s``````",
"``````````````````````````````````````````````##.X.T`4#i.T`7#B`P`P`P`P.K`7.K.8`y.8`M#z#D#k``````",
"````````````````````````````````````````````````.L.w.K#B`P`P`7.K`7.K.K.8.3.8.8.8.8#H`V`c````````",
"``````````````````````````````````````````````````.Z`k`7.K#L.K.3`M.T#H.8`y.T`y`y.E.H#.``````````",
"`````````````````````````````````````````````````0.d#H.8.8`M.8.H#d`c.M.6`j.h.E#H#l#m.e.R````````",
"````````````````````````````````````````````````.Y`V.8.T.8`y#d.e.c.A.A`K`L#q#l#m#l`S`5.X````````",
"````````````````````````````````````````````.B.z.f.F`y.E#H`E`i#k`````````0#y#d#m#m#n`6.2`f`L.z.O",
"`````````````````````````````````````````f#y.y.n`E#l#H#l#l.P.l````````````.z.P.F.F.F.F.C`T#d`5.X",
"`````````````````````````````````````````f`E.h#l#l#l#l`S#m#x.U````````````.A.L#j#o`6`6`6#j.C#f.l",
"`````````````````````````X.X.f`s`````````f`C#n#z#m#m#m#n#m#t`#````````````#w`K.C#j`6.C#p#f#t#g.a",
"``````````````````````.A`M`4#a.X````````.Y`f#y`U.p.F`U.F.F#e.a````````````.1.U.C#p#p`Z.P#y`f`f`z",
"``````````````````````.b`Y`o.W`M.A``````````#w`e#D.p.F`6`6`T.L.R````````.A#r`W#p#f#f.P`w`0``````",
"````````.U`s#D`````````f.u.W`4`l`#``````.q.Z.f#w.Y.6#j#j`6.C`W`r`w`e`D#r#r.i#f.S`T`R`3`f````````",
"``````#G.d`l.E#K.q.z.Z`M.T`4`4#l.d#.`##r#D#z#z.X`e.Y#f`5`Z`5`Z`Q`H#G`x`H#h.S`R#c`R`1#F`#````````",
"```````s`G.W`4`G.d.V`G`P.o#B.o`P`M`k.E.m#H.K`F.n`L.X#g#f#f#f`T.S.S`R#c.S#c.5#c`1`1.t.b.z````````",
"``````.q.d`F.o#i.8#i`P#B`P`7`P.K#L.K.8.T.8.8#A#.`##u#c`T`R.S#c`R#c.5.5`1`1`1`h#g`h#E.i.Y.A``````",
"````````#r`O`P`P`P`7.K`7.K#L.K.8.d.8.8.8.T`V#D.v`L#g#c.5#g`1`1.5`1`1`1`h#E#E`3`u#v`3`N#v`f``````",
"``````````#..4.K#L.K.3.8.8#l#l.T.T`y`y#H.E`C.Z`f`3.5`1#h.Q`r.i#`#E#E#E`3#`.0`g#D`a`u`3`u`w`0````",
"`````````#`O.T.8.8.8`y`j.L`z`i.6#C#H#l#H#l.F.V`m`L`H`x`f#w.v`f.Y`N#``N`u#F`f`#``.O.a`A#u`e``````",
"````````#.`E.8.T`y.E#d.s.R````.b`L#q#l`S#z#m`5.s#w#.#r`````````0`w.i#E.0.s```````````a.D````````",
"``#w.b#y#y#l#H`y#H#d`n``````````.A.e#C#m#n`U#j#r.x.X.`#w`````````L`u`3#`.```````````````````````",
"`s.Y`V`E`E#H#l#l#l#x`K````````````.Y.U.F`U.F.F.C#f#d`T.s`````````L.B#``I.U``````````````````````",
"#D#n#l#l#l#l#l`S.F#s.O````````````.G#d`6`6`6`6#j#j.C#t`L````````#u`a`2.X.A``````````````````````",
"#D#j#n`S#m`S#n#n`U`j#k`````````````##q`6#j.C.C#f#c#b#g`f````````````````````````````````````````",
".l.s.l`U.p`U.F.F.F.U.``````````````f`H.C`r#p`T#F`L.s#y.G````````````````````````````````````````",
"```````D#y`5.F`6`6#c#o`D````````.b.b#c`Z#f#f#g`f````````````````````````````````````````````````",
"`````````f#c`6.C#j.C#e.1`L.D.6.a.b`W#f.S`T`R`Q#r````````````````````````````````````````````````",
"````````.#.2#f`5`Z#p#f`1.r`A#e.N`1`R`R`R.5#g.Q.A````````````````````````````````````````````````",
"```````````f`1#f#f#f.S`T`R`R`R#c#c.5`1.5`1#E#s`m````````````````````````````````````````````````",
"````````.Y.S`T.S`R.S`R.5#c.5`1`1`1`1.t`1#E#E.i`L````````````````````````````````````````````````",
"```````A#o`1`R#c`3#g.5`1`1`1`h#E.t#E#`.0#v`N`N#``L``````````````````````````````````````````````",
"``````.Z#h`1.t#g.a#s.i#`#E`3#E`N#v.i#o.s#r`u`3.i`f``````````````````````````````````````````````",
"```````D`w.i#u`w``.#.a.Y.i`N`3.0`a`L.O``.j`f`A`L`0``````````````````````````````````````````````",
"`````````D.Z.G````````.O`v`N`N#h`a``````````.Y.A````````````````````````````````````````````````",
"`````````````````````````w#``3.S`m``````````````````````````````````````````````````````````````",
"`````````````````````````L.0#v`v.A``````````````````````````````````````````````````````````````",
"`````````````````````````w`L`L#.````````````````````````````````````````````````````````````````",
"````````````````````````````````````````````````````````````````````````````````````````````````",
"````````````````````````````````````````````````````````````````````````````````````````````````",
"````````````````````````````````````````````````````````````````````````````````````````````````"
};
