/* XPM */
static const char *toolview_xpm[] = {
/* width height num_colors chars_per_pixel */
"    16    16      256            2",
/* colors */
"`` c None",
"`. c #dedede",
"`# c #e2e2e2",
"`a c #e1e1e1",
"`b c #dfdfdf",
"`c c #dddddd",
"`d c #dadada",
"`e c #d9d9d9",
"`f c #d6d6d6",
"`g c #d4d4d4",
"`h c #d2d2d2",
"`i c #d0d0d0",
"`j c #cbcbcb",
"`k c #fbfbfb",
"`l c #ffffff",
"`m c #f9f9f9",
"`n c #fcfcfc",
"`o c #fafafa",
"`p c #d1d1d1",
"`q c #ecedf0",
"`r c #ededf0",
"`s c #d6d8de",
"`t c #fefefe",
"`u c #6c7690",
"`v c #6f7992",
"`w c #fcfcfd",
"`x c #d2d4db",
"`y c #dcdcdc",
"`z c #dfe0e4",
"`A c #566282",
"`B c #69738f",
"`C c #607095",
"`D c #657498",
"`E c #6d7792",
"`F c #5f6887",
"`G c #e3e5e9",
"`H c #cfcfcf",
"`I c #dbdbdb",
"`J c #6f7892",
"`K c #6f7fa8",
"`L c #6d789b",
"`M c #6f799c",
"`N c #7c89b0",
"`O c #777d96",
"`P c #7781a3",
"`Q c #767fa1",
"`R c #bfc1cb",
"`S c #babcc7",
"`T c #8187a8",
"`U c #898eaf",
"`V c #777c95",
"`W c #e9eaed",
"`X c #cecece",
"`Y c #d8d8d8",
"`Z c #83889f",
"`0 c #8489aa",
"`1 c #868bac",
"`2 c #aeb0be",
"`3 c #9192b2",
"`4 c #9192b0",
"`5 c #8c8fa4",
"`6 c #eff0f2",
"`7 c #cdcdcd",
"`8 c #80839b",
".` c #aba9cb",
".. c #9b99b9",
".# c #9e9bbb",
".a c #b9b3d3",
".b c #8787a1",
".c c #fafafb",
".d c #dddee4",
".e c #797a96",
".f c #8a8ba3",
".g c #a59fbc",
".h c #aea8c4",
".i c #8a8aa1",
".j c #7e7e99",
".k c #cfd0d8",
".l c #dddde3",
".m c #9495a9",
".n c #8989a0",
".o c #eaebee",
".p c #eeeef1",
".q c #ebecef",
".r c #f8f8f8",
".s c #c3c3c3",
".t c #c7c7c7",
".u c #000000",
".v c #000000",
".w c #000000",
".x c #000000",
".y c #000000",
".z c #000000",
".A c #000000",
".B c #000000",
".C c #000000",
".D c #000000",
".E c #000000",
".F c #000000",
".G c #000000",
".H c #000000",
".I c #000000",
".J c #000000",
".K c #000000",
".L c #000000",
".M c #000000",
".N c #000000",
".O c #000000",
".P c #000000",
".Q c #000000",
".R c #000000",
".S c #000000",
".T c #000000",
".U c #000000",
".V c #000000",
".W c #000000",
".X c #000000",
".Y c #000000",
".Z c #000000",
".0 c #000000",
".1 c #000000",
".2 c #000000",
".3 c #000000",
".4 c #000000",
".5 c #000000",
".6 c #000000",
".7 c #000000",
".8 c #000000",
"#` c #000000",
"#. c #000000",
"## c #000000",
"#a c #000000",
"#b c #000000",
"#c c #000000",
"#d c #000000",
"#e c #000000",
"#f c #000000",
"#g c #000000",
"#h c #000000",
"#i c #000000",
"#j c #000000",
"#k c #000000",
"#l c #000000",
"#m c #000000",
"#n c #000000",
"#o c #000000",
"#p c #000000",
"#q c #000000",
"#r c #000000",
"#s c #000000",
"#t c #000000",
"#u c #000000",
"#v c #000000",
"#w c #000000",
"#x c #000000",
"#y c #000000",
"#z c #000000",
"#A c #000000",
"#B c #000000",
"#C c #000000",
"#D c #000000",
"#E c #000000",
"#F c #000000",
"#G c #000000",
"#H c #000000",
"#I c #000000",
"#J c #000000",
"#K c #000000",
"#L c #000000",
"#M c #000000",
"#N c #000000",
"#O c #000000",
"#P c #000000",
"#Q c #000000",
"#R c #000000",
"#S c #000000",
"#T c #000000",
"#U c #000000",
"#V c #000000",
"#W c #000000",
"#X c #000000",
"#Y c #000000",
"#Z c #000000",
"#0 c #000000",
"#1 c #000000",
"#2 c #000000",
"#3 c #000000",
"#4 c #000000",
"#5 c #000000",
"#6 c #000000",
"#7 c #000000",
"#8 c #000000",
"a` c #000000",
"a. c #000000",
"a# c #000000",
"aa c #000000",
"ab c #000000",
"ac c #000000",
"ad c #000000",
"ae c #000000",
"af c #000000",
"ag c #000000",
"ah c #000000",
"ai c #000000",
"aj c #000000",
"ak c #000000",
"al c #000000",
"am c #000000",
"an c #000000",
"ao c #000000",
"ap c #000000",
"aq c #000000",
"ar c #000000",
"as c #000000",
"at c #000000",
"au c #000000",
"av c #000000",
"aw c #000000",
"ax c #000000",
"ay c #000000",
"az c #000000",
"aA c #000000",
"aB c #000000",
"aC c #000000",
"aD c #000000",
"aE c #000000",
"aF c #000000",
"aG c #000000",
"aH c #000000",
"aI c #000000",
"aJ c #000000",
"aK c #000000",
"aL c #000000",
"aM c #000000",
"aN c #000000",
"aO c #000000",
"aP c #000000",
"aQ c #000000",
"aR c #000000",
"aS c #000000",
"aT c #000000",
"aU c #000000",
"aV c #000000",
"aW c #000000",
"aX c #000000",
"aY c #000000",
"aZ c #000000",
"a0 c #000000",
"a1 c #000000",
"a2 c #000000",
"a3 c #000000",
"a4 c #000000",
"a5 c #000000",
"a6 c #000000",
"a7 c #000000",
"a8 c #000000",
/* pixels */
"`````.`#`a`b`c`d`e`f`g`h`i`j````",
"```#`k`l`l`l`l`l`l`l`l`l`l`m`h``",
"```a`n`l`l`l`l`l`l`l`l`l`l`o`p``",
"```b`n`l`l`l`l`q`r`l`l`l`l`o`i``",
"```.`k`l`l`s`t`u`v`w`x`l`l`o`i``",
"```y`k`l`z`A`B`C`D`E`F`G`l`o`H``",
"```I`k`l`l`J`K`L`M`N`O`l`l`o`H``",
"```e`k`q`O`P`Q`R`S`T`U`V`W`o`X``",
"```Y`k`r`Z`0`1`2`2`3`4`5`6`o`7``",
"```f`o`l`l`8.`...#.a.b.c`l`m`7``",
"```g`o`l.d.e.f.g.h.i.j.k`l`m`7``",
"```h`o`l`l.l`l.m.n`l.o`l`l`m`7``",
"```p`o`l`l`l`l.p.q`l`l`l`l`m`7``",
"```H`o`l`l`l`l`l`l`l`l`l`l`m`7``",
"```X.r`l`l`l`l`l`l`l`l`l`l.r`X``",
"````.s.t.t.t.t.t.t.t.t.t.t.s````"
};
