/* XPM */
static const char * toolbox_16_xpm[] = {
"16 16 123 2",
"  	c None",
". 	c #A7A7A7",
"+ 	c #A5A5A5",
"@ 	c #A3A3A3",
"# 	c #A2A2A2",
"$ 	c #989898",
"% 	c #A6A6A6",
"& 	c #979797",
"* 	c #919191",
"= 	c #8D8D8D",
"- 	c #898989",
"; 	c #8B8B8B",
"> 	c #787878",
", 	c #9F9F9F",
"' 	c #939393",
") 	c #8C8C8C",
"! 	c #878787",
"~ 	c #848484",
"{ 	c #818181",
"] 	c #838383",
"^ 	c #8E8E8E",
"/ 	c #929292",
"( 	c #959595",
"_ 	c #9B9B9B",
": 	c #949494",
"< 	c #9B9160",
"[ 	c #C3B149",
"} 	c #C2B049",
"| 	c #C1AF47",
"1 	c #C0AF46",
"2 	c #C2B048",
"3 	c #C3B24A",
"4 	c #C8B544",
"5 	c #E0C635",
"6 	c #D9BD28",
"7 	c #AD9E45",
"8 	c #F1DE3A",
"9 	c #F0D91D",
"0 	c #EFD81D",
"a 	c #EFD81E",
"b 	c #E6D031",
"c 	c #B2A242",
"d 	c #F0DB2E",
"e 	c #EFD817",
"f 	c #E2CD1D",
"g 	c #EED718",
"h 	c #82814D",
"i 	c #686D5C",
"j 	c #DBC714",
"k 	c #E4CB2D",
"l 	c #7E7E7E",
"m 	c #B9A743",
"n 	c #F0DB26",
"o 	c #616761",
"p 	c #6A6F61",
"q 	c #636E78",
"r 	c #637288",
"s 	c #717460",
"t 	c #5F666E",
"u 	c #CAB737",
"v 	c #7A7A7A",
"w 	c #C1AF42",
"x 	c #EFD91C",
"y 	c #7D7C57",
"z 	c #6C7DA6",
"A 	c #6B799A",
"B 	c #6C7790",
"C 	c #7B87AF",
"D 	c #767765",
"E 	c #E0C82C",
"F 	c #727272",
"G 	c #C4B138",
"H 	c #EFD816",
"I 	c #EED60E",
"J 	c #EED609",
"K 	c #EDD506",
"L 	c #84814E",
"M 	c #757B80",
"N 	c #7A84AA",
"O 	c #928B3E",
"P 	c #BBAB20",
"Q 	c #7E8293",
"R 	c #898BA4",
"S 	c #6F6F71",
"T 	c #6C6C6C",
"U 	c #C8B026",
"V 	c #EDD201",
"W 	c #EDD200",
"X 	c #EDD100",
"Y 	c #8F8849",
"Z 	c #7F8082",
"` 	c #8F94B7",
" .	c #8C8448",
"..	c #AE9E2B",
"+.	c #8D8CA0",
"@.	c #928F9C",
"#.	c #807962",
"$.	c #686868",
"%.	c #CCA914",
"&.	c #EFBF00",
"*.	c #EFBE00",
"=.	c #877B57",
"-.	c #ACA9CB",
";.	c #A3A1C0",
">.	c #A09CB7",
",.	c #BAB3D4",
"'.	c #8C8480",
").	c #CFA60B",
"!.	c #8D7C39",
"~.	c #D2A507",
"{.	c #DBA905",
"].	c #DAA805",
"^.	c #D9A804",
"/.	c #D9A704",
"(.	c #D7A703",
"_.	c #746E6B",
":.	c #84796B",
"<.	c #958C91",
"[.	c #ABA1B4",
"}.	c #8A7B61",
"|.	c #777277",
"1.	c #626275",
"2.	c #64657E",
"                                ",
"                                ",
"  . . + @ # $                   ",
"  % & * = - ; >                 ",
"  , ' ) ! ~ { ] ^ / ( _ ~       ",
"  : < [ } | 1 1 1 | 2 3 4 5 6   ",
"  = 7 8 9 9 9 9 9 9 0 a 9 9 b   ",
"  ~ c d e e e e f g h i e j k   ",
"  l m n e e e e o p q r s t u   ",
"  v w x e e e e y z A B C D E   ",
"  F G H I J K L M N O P Q R S   ",
"  T U V W X X Y Z `  ...+.@.#.  ",
"  $.%.&.&.&.*.*.=.-.;.>.,.'.).  ",
"  !.~.{.].^./.(._.:.<.[.}.|.    ",
"                    1.2.        ",
"                                "};
