/* XPM */
static const char * toolboxfavor_48_xpm[] = {
"48 48 829 2",
"  	c None",
". 	c #8A0202",
"+ 	c #93130E",
"@ 	c #9A1F17",
"# 	c #971B13",
"$ 	c #8C0706",
"% 	c #8E0704",
"& 	c #971610",
"* 	c #991D16",
"= 	c #8E0905",
"- 	c #8B0402",
"; 	c #A63225",
"> 	c #D1694C",
", 	c #E0805D",
"' 	c #E07F5B",
") 	c #E17F5C",
"! 	c #D97758",
"~ 	c #C05642",
"{ 	c #981D16",
"] 	c #981D15",
"^ 	c #C55A44",
"/ 	c #DD7D5C",
"( 	c #E07F5C",
"_ 	c #DE7F5F",
": 	c #CD654E",
"< 	c #A02620",
"[ 	c #8C0603",
"} 	c #C5563E",
"| 	c #DF7A55",
"1 	c #DE744D",
"2 	c #DE724C",
"3 	c #DD724C",
"4 	c #DD714B",
"5 	c #DB7654",
"6 	c #B14030",
"7 	c #890301",
"8 	c #B03D2D",
"9 	c #DE7A58",
"0 	c #DD6F49",
"a 	c #DC6B45",
"b 	c #DC6A44",
"c 	c #DB6A43",
"d 	c #DB6942",
"e 	c #DB6842",
"f 	c #DE7452",
"g 	c #CA5F49",
"h 	c #910D0B",
"i 	c #7A7A7A",
"j 	c #888888",
"k 	c #898989",
"l 	c #8B8B8B",
"m 	c #864443",
"n 	c #BC5039",
"o 	c #DE724D",
"p 	c #DD6D47",
"q 	c #DC6D46",
"r 	c #DC6C45",
"s 	c #DB6941",
"t 	c #DD704B",
"u 	c #D56E51",
"v 	c #DE7350",
"w 	c #DB663F",
"x 	c #DA663E",
"y 	c #DA653E",
"z 	c #DA643D",
"A 	c #DA633C",
"B 	c #DA633B",
"C 	c #DA623B",
"D 	c #DA623A",
"E 	c #DA6741",
"F 	c #CF674F",
"G 	c #8E0A07",
"H 	c #929292",
"I 	c #D1D1D1",
"J 	c #C8C8C8",
"K 	c #C4C4C4",
"L 	c #C3C3C3",
"M 	c #C1C1C1",
"N 	c #C0C0C0",
"O 	c #BFBFBF",
"P 	c #BEBEBE",
"Q 	c #BDBDBD",
"R 	c #BCBCBC",
"S 	c #BBBBBB",
"T 	c #BABABA",
"U 	c #B9B9B9",
"V 	c #B6B2B2",
"W 	c #A2372C",
"X 	c #DB6841",
"Y 	c #DB6740",
"Z 	c #D9623C",
"` 	c #D96139",
" .	c #D95F38",
"..	c #D95E37",
"+.	c #D95E36",
"@.	c #D95D36",
"#.	c #D95D35",
"$.	c #D95C35",
"%.	c #D85B34",
"&.	c #D85B33",
"*.	c #DA633E",
"=.	c #C35944",
"-.	c #949494",
";.	c #CCCCCC",
">.	c #ABABAB",
",.	c #A9A9A9",
"'.	c #A7A7A7",
").	c #A5A5A5",
"!.	c #A3A3A3",
"~.	c #A1A1A1",
"{.	c #A0A0A0",
"].	c #9E9E9E",
"^.	c #9D9D9D",
"/.	c #9C9C9C",
"(.	c #9B9B9B",
"_.	c #9A9A9A",
":.	c #999999",
"<.	c #915756",
"[.	c #C75A3F",
"}.	c #D9613A",
"|.	c #D85A33",
"1.	c #D85A32",
"2.	c #D85932",
"3.	c #D85931",
"4.	c #D85730",
"5.	c #D75730",
"6.	c #D7562F",
"7.	c #D7552E",
"8.	c #D7552D",
"9.	c #D34724",
"0.	c #D14C39",
"a.	c #900E0C",
"b.	c #8F8F8F",
"c.	c #C2C2C2",
"d.	c #989898",
"e.	c #979797",
"f.	c #959595",
"g.	c #939393",
"h.	c #919191",
"i.	c #909090",
"j.	c #8E8E8E",
"k.	c #8D8D8D",
"l.	c #8A8A8A",
"m.	c #878787",
"n.	c #8D2A26",
"o.	c #D86946",
"p.	c #D7562E",
"q.	c #D7532C",
"r.	c #D6522B",
"s.	c #D6512A",
"t.	c #D44623",
"u.	c #CF391B",
"v.	c #CD2F15",
"w.	c #CB2811",
"x.	c #C9200C",
"y.	c #C71807",
"z.	c #CB2919",
"A.	c #A42824",
"B.	c #CACACA",
"C.	c #A6A6A6",
"D.	c #A4A4A4",
"E.	c #A2A2A2",
"F.	c #9F9F9F",
"G.	c #982F26",
"H.	c #DA623E",
"I.	c #D6522A",
"J.	c #D65029",
"K.	c #D64F29",
"L.	c #D64F28",
"M.	c #D64E27",
"N.	c #D54E27",
"O.	c #D34421",
"P.	c #CB2710",
"Q.	c #C81A08",
"R.	c #C81E0D",
"S.	c #B53A33",
"T.	c #848484",
"U.	c #868686",
"V.	c #858585",
"W.	c #838383",
"X.	c #828282",
"Y.	c #818181",
"Z.	c #808080",
"`.	c #942D24",
" +	c #D95F3B",
".+	c #D54D26",
"++	c #D54C26",
"@+	c #D54C25",
"#+	c #D54B24",
"$+	c #D54A24",
"%+	c #D44923",
"&+	c #D44822",
"*+	c #CD3014",
"=+	c #C71908",
"-+	c #CB2717",
";+	c #AE332E",
">+	c #7E7E7E",
",+	c #C5C5C5",
"'+	c #969696",
")+	c #8C8C8C",
"!+	c #91352F",
"~+	c #D55C3B",
"{+	c #D44922",
"]+	c #D44821",
"^+	c #D44721",
"/+	c #D44621",
"(+	c #D44620",
"_+	c #D4461F",
":+	c #D3451F",
"<+	c #D3441E",
"[+	c #D13A19",
"}+	c #C91F0B",
"|+	c #CF3A2C",
"1+	c #9B1D19",
"2+	c #787878",
"3+	c #7F7F7F",
"4+	c #7D7D7D",
"5+	c #7C7C7C",
"6+	c #7B7B7B",
"7+	c #797979",
"8+	c #824644",
"9+	c #CB5739",
"0+	c #D3431E",
"a+	c #D3421D",
"b+	c #D3421C",
"c+	c #D2411C",
"d+	c #D2401B",
"e+	c #CD2D11",
"f+	c #D24E41",
"g+	c #8D0805",
"h+	c #737373",
"i+	c #826565",
"j+	c #BB4F34",
"k+	c #D44624",
"l+	c #D23E1A",
"m+	c #D23E19",
"n+	c #D23D19",
"o+	c #D13D19",
"p+	c #D13D18",
"q+	c #D13C18",
"r+	c #D03A17",
"s+	c #CA230C",
"t+	c #CC2E1E",
"u+	c #B8413A",
"v+	c #6E6E6E",
"w+	c #B6B6B6",
"x+	c #777777",
"y+	c #767676",
"z+	c #757575",
"A+	c #727171",
"B+	c #91281E",
"C+	c #D1573A",
"D+	c #D13B17",
"E+	c #D03916",
"F+	c #D03915",
"G+	c #D03815",
"H+	c #D03614",
"I+	c #CC2B0F",
"J+	c #C81C09",
"K+	c #C91F0F",
"L+	c #CB5249",
"M+	c #8D0706",
"N+	c #6A6A6A",
"O+	c #8F8E88",
"P+	c #BE9F12",
"Q+	c #C3A005",
"R+	c #C3A004",
"S+	c #C2A004",
"T+	c #BA8C03",
"U+	c #A33017",
"V+	c #D44C30",
"W+	c #CF3413",
"X+	c #CF3312",
"Y+	c #CE2F10",
"Z+	c #CB250C",
"`+	c #D25246",
" @	c #9B2811",
".@	c #C29A00",
"+@	c #C5A200",
"@@	c #656565",
"#@	c #B1B1B1",
"$@	c #8A856F",
"%@	c #C5A307",
"&@	c #F1E26D",
"*@	c #F2E371",
"=@	c #F2E370",
"-@	c #F2E36F",
";@	c #C78541",
">@	c #B6392B",
",@	c #CC2C1C",
"'@	c #C71909",
")@	c #D24F43",
"!@	c #A93A2D",
"~@	c #DAB153",
"{@	c #F2E168",
"]@	c #D0B11A",
"^@	c #626262",
"/@	c #B3B3B3",
"(@	c #958D68",
"_@	c #C9A913",
":@	c #F6E878",
"<@	c #F0DB28",
"[@	c #F0DB29",
"}@	c #F0DB2A",
"|@	c #F0DC2A",
"1@	c #AE4F10",
"2@	c #B93C2D",
"3@	c #CE3425",
"4@	c #C81B0A",
"5@	c #D35348",
"6@	c #A73825",
"7@	c #D7A824",
"8@	c #F0DC2F",
"9@	c #F5E770",
"0@	c #CFAF17",
"a@	c #606060",
"b@	c #938856",
"c@	c #CDB01D",
"d@	c #EFD817",
"e@	c #B7620B",
"f@	c #B13624",
"g@	c #D13F31",
"h@	c #C81D0C",
"i@	c #D2564B",
"j@	c #A5351E",
"k@	c #DCB013",
"l@	c #EED712",
"m@	c #CAA90D",
"n@	c #5E5E5E",
"o@	c #A8A8A8",
"p@	c #9C8D4E",
"q@	c #D3B926",
"r@	c #F4E667",
"s@	c #C47D0E",
"t@	c #A92F1C",
"u@	c #D24A3C",
"v@	c #C81C0B",
"w@	c #C91F0E",
"x@	c #D1584D",
"y@	c #A3331A",
"z@	c #E0BA14",
"A@	c #EFD815",
"B@	c #EDD406",
"C@	c #F5E877",
"D@	c #C5A204",
"E@	c #5D5D5D",
"F@	c #9E8C3F",
"G@	c #DAC12D",
"H@	c #F4E45F",
"I@	c #CE9410",
"J@	c #A32914",
"K@	c #D25044",
"L@	c #C92211",
"M@	c #CF584E",
"N@	c #A23315",
"O@	c #E4C215",
"P@	c #EED507",
"Q@	c #EED60C",
"R@	c #F4E671",
"S@	c #C4A000",
"T@	c #5B5B5B",
"U@	c #A69133",
"V@	c #E1C935",
"W@	c #F3E357",
"X@	c #DAAD13",
"Y@	c #9F270D",
"Z@	c #CE5146",
"`@	c #CB2A1A",
" #	c #CA2414",
".#	c #CD594F",
"+#	c #A23513",
"@#	c #E7C815",
"##	c #EED60D",
"$#	c #EDD400",
"%#	c #F1E268",
"&#	c #C5A100",
"*#	c #5A5A5A",
"=#	c #AE9625",
"-#	c #E5D03F",
";#	c #F2E14F",
">#	c #D1BF24",
",#	c #927F39",
"'#	c #9D2C0B",
")#	c #C85044",
"!#	c #CE3627",
"~#	c #CB2818",
"{#	c #CA584F",
"]#	c #8C251A",
"^#	c #EACE16",
"/#	c #AFA22E",
"(#	c #8E8636",
"_#	c #E5CE04",
":#	c #EFD91F",
"<#	c #EFDE5F",
"[#	c #C6A200",
"}#	c #595959",
"|#	c #B69A19",
"1#	c #E9D54B",
"2#	c #F2E046",
"3#	c #CEBC25",
"4#	c #494E5E",
"5#	c #404762",
"6#	c #4A4C5C",
"7#	c #983911",
"8#	c #BB493A",
"9#	c #D14335",
"0#	c #C6574F",
"a#	c #7F2027",
"b#	c #4B4B5B",
"c#	c #9E9539",
"d#	c #D3C023",
"e#	c #767349",
"f#	c #404661",
"g#	c #424963",
"h#	c #66654D",
"i#	c #E7D32B",
"j#	c #ECD955",
"k#	c #C7A300",
"l#	c #575757",
"m#	c #BC9D0F",
"n#	c #EDDA56",
"o#	c #F1DE3D",
"p#	c #4A4E5D",
"q#	c #46516E",
"r#	c #526A94",
"s#	c #485575",
"t#	c #3F4561",
"u#	c #632533",
"v#	c #A23432",
"w#	c #D45449",
"x#	c #C2554E",
"y#	c #802935",
"z#	c #5F729A",
"A#	c #4E5A7C",
"B#	c #434A63",
"C#	c #464D66",
"D#	c #5F6E93",
"E#	c #637299",
"F#	c #444B64",
"G#	c #807C51",
"H#	c #E8D44C",
"I#	c #555555",
"J#	c #C19F06",
"K#	c #F0E061",
"L#	c #F0DC34",
"M#	c #EED717",
"N#	c #5F6055",
"O#	c #47506C",
"P#	c #5B719B",
"Q#	c #5D739D",
"R#	c #56678E",
"S#	c #57688F",
"T#	c #6B5673",
"U#	c #912325",
"V#	c #7F313D",
"W#	c #6679A2",
"X#	c #687AA4",
"Y#	c #6A7CA5",
"Z#	c #697BA3",
"`#	c #5F6D92",
" $	c #6B7CA4",
".$	c #7080A8",
"+$	c #68769C",
"@$	c #424861",
"#$	c #9C954D",
"$$	c #E4CF42",
"%$	c #C7A400",
"&$	c #535353",
"*$	c #C4A001",
"=$	c #F3E466",
"-$	c #D2C023",
";$	c #434960",
">$	c #515F82",
",$	c #6477A1",
"'$	c #6579A2",
")$	c #677AA3",
"!$	c #697BA4",
"~$	c #6C7297",
"{$	c #6C7DA6",
"]$	c #6D7EA7",
"^$	c #6F7FA8",
"/$	c #7180A9",
"($	c #7281AA",
"_$	c #7483AB",
":$	c #7584AC",
"<$	c #7582AA",
"[$	c #4A5169",
"}$	c #69674C",
"|$	c #F1DE42",
"1$	c #E0C936",
"2$	c #515151",
"3$	c #757367",
"4$	c #C3A002",
"5$	c #F4E567",
"6$	c #F0DA20",
"7$	c #857F44",
"8$	c #49506A",
"9$	c #6B7CA5",
"0$	c #6E7FA7",
"a$	c #7181A9",
"b$	c #6F7DA4",
"c$	c #6A779D",
"d$	c #7482AA",
"e$	c #7885AD",
"f$	c #7986AE",
"g$	c #7B87AF",
"h$	c #7C89B0",
"i$	c #727DA2",
"j$	c #BFAE19",
"k$	c #F2E045",
"l$	c #DCC12B",
"m$	c #505050",
"n$	c #80807F",
"o$	c #827C62",
"p$	c #C4A309",
"q$	c #F3E562",
"r$	c #EFD819",
"s$	c #EFD816",
"t$	c #EED714",
"u$	c #EBD511",
"v$	c #4E525C",
"w$	c #576285",
"x$	c #7382AA",
"y$	c #7584AB",
"z$	c #707DA3",
"A$	c #505872",
"B$	c #414762",
"C$	c #5C6484",
"D$	c #7E89AF",
"E$	c #828CB3",
"F$	c #838DB4",
"G$	c #858FB5",
"H$	c #4E546D",
"I$	c #7E793F",
"J$	c #D7BA1F",
"K$	c #4E4E4E",
"L$	c #827951",
"M$	c #C7A810",
"N$	c #F3E255",
"O$	c #EED710",
"P$	c #EED60A",
"Q$	c #EDD505",
"R$	c #EDD401",
"S$	c #ECD300",
"T$	c #D2BE0F",
"U$	c #B6A71E",
"V$	c #878039",
"W$	c #414661",
"X$	c #717EA5",
"Y$	c #7A87AF",
"Z$	c #7985AB",
"`$	c #494E67",
" %	c #5A5C54",
".%	c #B8A91D",
"+%	c #A49829",
"@%	c #474C5E",
"#%	c #5B627F",
"$%	c #8991B7",
"%%	c #8A92B8",
"&%	c #8C93B9",
"*%	c #72799B",
"=%	c #424761",
"-%	c #71715A",
";%	c #82773F",
">%	c #756A3A",
",%	c #4C4C4C",
"'%	c #8E824E",
")%	c #CCAE16",
"!%	c #F2E048",
"~%	c #EED711",
"{%	c #EDD504",
"]%	c #988E30",
"^%	c #4A5066",
"/%	c #606989",
"(%	c #7E8AB1",
"_%	c #808BB2",
":%	c #818CB3",
"<%	c #636B8D",
"[%	c #494D5E",
"}%	c #DFC908",
"|%	c #B7A81E",
"1%	c #8187AB",
"2%	c #9197BC",
"3%	c #9398BD",
"4%	c #9498BD",
"5%	c #727798",
"6%	c #5F6583",
"7%	c #50556E",
"8%	c #494949",
"9%	c #707070",
"0%	c #8F803D",
"a%	c #D1B516",
"b%	c #F1DE3C",
"c%	c #EED60B",
"d%	c #EDD403",
"e%	c #757243",
"f%	c #535B7A",
"g%	c #828DB3",
"h%	c #848EB4",
"i%	c #8790B6",
"j%	c #575D7A",
"k%	c #787442",
"l%	c #737899",
"m%	c #999CC0",
"n%	c #9A9DC1",
"o%	c #9C9EC2",
"p%	c #9D9FC3",
"q%	c #9FA0C4",
"r%	c #A1A2C5",
"s%	c #434964",
"t%	c #474747",
"u%	c #6F6F6F",
"v%	c #868685",
"w%	c #9C8A3A",
"x%	c #D8BC16",
"y%	c #F1DB2B",
"z%	c #EDD506",
"A%	c #747044",
"B%	c #4F5674",
"C%	c #747DA0",
"D%	c #838AB0",
"E%	c #8B93B8",
"F%	c #8C94B9",
"G%	c #8E95BA",
"H%	c #9096BB",
"I%	c #5B617F",
"J%	c #737046",
"K%	c #EBD201",
"L%	c #444960",
"M%	c #7B7E9F",
"N%	c #A0A1C4",
"O%	c #A3A3C6",
"P%	c #9697B9",
"Q%	c #8183A3",
"R%	c #737594",
"S%	c #424864",
"T%	c #444444",
"U%	c #696968",
"V%	c #A08B28",
"W%	c #DDC014",
"X%	c #EFD71A",
"Y%	c #EDD200",
"Z%	c #EDD100",
"`%	c #AD9D24",
" &	c #4B4F5D",
".&	c #5F6480",
"+&	c #9399BD",
"@&	c #959ABE",
"#&	c #979BBF",
"$&	c #74799A",
"%&	c #434860",
"&&	c #CDB612",
"*&	c #EDCF00",
"=&	c #A1922B",
"-&	c #414761",
";&	c #9899BB",
">&	c #A7A6C8",
",&	c #A8A7C9",
"'&	c #A19FC1",
")&	c #434963",
"!&	c #444961",
"~&	c #555556",
"{&	c #686868",
"]&	c #AF9521",
"^&	c #E1C112",
"/&	c #EFCF11",
"(&	c #EECC00",
"_&	c #EECB00",
":&	c #EECA00",
"<&	c #DEBE09",
"[&	c #A2902A",
"}&	c #8E91B4",
"|&	c #9EA0C3",
"1&	c #575B74",
"2&	c #484C5E",
"3&	c #958631",
"4&	c #AD9824",
"5&	c #81773D",
"6&	c #404561",
"7&	c #767897",
"8&	c #ACAACC",
"9&	c #AEABCD",
"0&	c #AFACCE",
"a&	c #80819F",
"b&	c #474B5F",
"c&	c #E5C421",
"d&	c #414141",
"e&	c #636363",
"f&	c #B59713",
"g&	c #E4BF0E",
"h&	c #EFC80A",
"i&	c #EEC600",
"j&	c #EEC500",
"k&	c #EEC400",
"l&	c #EFC400",
"m&	c #EDC301",
"n&	c #51525A",
"o&	c #6C6F8E",
"p&	c #A5A4C7",
"q&	c #A6A6C8",
"r&	c #A4A4C5",
"s&	c #6F7290",
"t&	c #4D5169",
"u&	c #545870",
"v&	c #8786A6",
"w&	c #B1ADCF",
"x&	c #B3AED0",
"y&	c #B5B0D1",
"z&	c #B6B1D2",
"A&	c #5A5C75",
"B&	c #817440",
"C&	c #E8BF14",
"D&	c #616161",
"E&	c #BD9D0D",
"F&	c #E8BC09",
"G&	c #EFC105",
"H&	c #EFC000",
"I&	c #EFBF00",
"J&	c #EFBE00",
"K&	c #EFBD00",
"L&	c #85753B",
"M&	c #50546C",
"N&	c #AAA8CA",
"O&	c #ACA9CB",
"P&	c #ADABCC",
"Q&	c #AFACCD",
"R&	c #B0ADCE",
"S&	c #B2AECF",
"T&	c #B3AECF",
"U&	c #B7B1D2",
"V&	c #B9B2D3",
"W&	c #BAB3D4",
"X&	c #BCB5D5",
"Y&	c #BDB6D6",
"Z&	c #54576E",
"`&	c #756A47",
" *	c #E4B60B",
".*	c #C6A100",
"+*	c #5C5C5C",
"@*	c #C19E05",
"#*	c #EAB802",
"$*	c #EFBA01",
"%*	c #EFB900",
"&*	c #F0B900",
"**	c #F0B800",
"=*	c #F0B700",
"-*	c #CEA113",
";*	c #7A7B9A",
">*	c #B4AFD0",
",*	c #B6B0D1",
"'*	c #B7B2D2",
")*	c #B9B3D3",
"!*	c #BBB4D4",
"~*	c #BEB6D6",
"{*	c #C0B7D7",
"]*	c #C1B8D8",
"^*	c #C3B9D9",
"/*	c #C4BADA",
"(*	c #A39DBB",
"_*	c #A58826",
":*	c #C7A200",
"<*	c #87857B",
"[*	c #EFB300",
"}*	c #F0B400",
"|*	c #ECB102",
"1*	c #585557",
"2*	c #5E617B",
"3*	c #8A88A7",
"4*	c #9390AF",
"5*	c #BBB3D4",
"6*	c #BFB6D6",
"7*	c #C0B8D7",
"8*	c #C2B9D8",
"9*	c #C3BAD9",
"0*	c #C5BBDA",
"a*	c #BCB2D1",
"b*	c #83809E",
"c*	c #73728D",
"d*	c #BAB1CF",
"e*	c #C8BDDC",
"f*	c #757490",
"g*	c #484B5E",
"h*	c #A49142",
"i*	c #CAA206",
"j*	c #EDB202",
"k*	c #4A4C5E",
"l*	c #60627D",
"m*	c #A7A1C0",
"n*	c #5B5E77",
"o*	c #4C4F68",
"p*	c #7D7C99",
"q*	c #BFB5D4",
"r*	c #C4B9D8",
"s*	c #777693",
"t*	c #444963",
"u*	c #4C4E5D",
"v*	c #575457",
"w*	c #4A4E67",
"x*	c #918DAA",
"y*	c #4C5068",
"z*	c #635E4B",
"A*	c #6B6030",
"B*	c #C49F02",
"C*	c #C49F04",
"D*	c #C49F03",
"E*	c #AA8E15",
"F*	c #585753",
"G*	c #AD9013",
"H*	c #B3940F",
"I*	c #7E7034",
"J*	c #464A5F",
"K*	c #9792B0",
"L*	c #907B28",
"M*	c #C09C06",
"N*	c #74693D",
"O*	c #5C5951",
"P*	c #B9990A",
"Q*	c #6F6335",
"R*	c #5D5946",
"S*	c #4B4E56",
"T*	c #6A6B88",
"U*	c #7E7D9A",
"V*	c #484C60",
"W*	c #404662",
"X*	c #4E526F",
"Y*	c #A19BB9",
"Z*	c #5C5E7A",
"`*	c #3F4562",
" =	c #404562",
"                                                                                                ",
"                                                                                                ",
"                                                                                                ",
"                                              . + @ # $               % & * =                   ",
"                                          - ; > , ' ) ! ~ {       ] ^ / ( ( _ : <               ",
"                                        [ } | 1 2 3 4 4 3 5 6 7 8 9 0 a b c d e f g h           ",
"      i j k k k k k k k k k k l l l l m n o p q r a b c d s t u v w x y z A B C D E F G         ",
"      H I J K L M N O P Q R S T T U V W t X Y w x y z A B C D Z `  . ...+.@.#.$.%.&.*.=.        ",
"      -.;.>.,.'.).!.~.{.].^./.(._.:.<.[.A }.`  . ...+.@.#.$.%.&.|.1.2.3.4.5.6.6.7.8.9.0.a.      ",
"      b.c.d.e.f.g.h.i.j.k.l l.k j m.n.o.%.&.|.1.2.3.4.5.6.6.p.8.8.q.q.r.s.t.u.v.w.x.y.z.A.      ",
"      j B.C.D.E.F.^.(._.d.e.f.-.g.H G.H.p.8.8.q.q.r.I.s.s.J.K.L.M.N.O.P.Q.y.y.y.y.y.y.R.S.      ",
"      T.P h.i.k.l k j U.V.W.X.Y.Z.Z.`. +K.L.M.N..+.+++@+#+$+$+%+&+*+=+y.y.y.y.y.y.y.y.-+;+      ",
"      >+,+E.F./._.d.'+-.H i.b.j.k.)+!+~+$+%+{+&+]+^+/+(+_+:+<+[+}+y.y.y.y.y.y.y.y.y.y.|+1+      ",
"      2+T b.l j U.V.X.Z.3+4+5+6+i 7+8+9+:+<+<+0+a+b+c+c+d+d+e+=+y.y.y.y.y.y.y.y.y.y.y.f+g+      ",
"      h+O /.e.-.H b.k.l l.j m.V.T.W.i+j+k+l+m+n+n+o+p+q+r+s+y.y.y.y.y.y.y.y.y.y.y.y.t+u+        ",
"      v+w+b.m.T.W.Z.>+5+i 7+x+y+z+h+A+B+C+D+E+F+G+G+H+I+J+y.y.y.y.y.y.y.y.y.y.y.y.K+L+M+        ",
"      N+U d.i.O+P+Q+Q+Q+Q+R+R+S+S+S+S+T+U+V+W+X+Y+Z+Q.y.y.y.y.y.y.y.y.y.y.y.y.y.=+`+ @.@+@      ",
"      @@#@k.W.$@%@&@*@*@*@*@=@=@=@=@-@-@;@>@,@y.y.y.y.y.y.y.y.y.y.y.y.y.y.y.y.'@)@!@~@{@]@      ",
"      ^@/@-.l.(@_@:@<@<@<@<@[@[@[@[@}@}@|@1@2@3@y.y.y.y.y.y.y.y.y.y.y.y.y.y.4@5@6@7@8@9@0@      ",
"      a@,.)+Z.b@c@9@d@d@d@d@d@d@d@d@d@d@d@d@e@f@g@=+y.y.y.y.y.y.y.y.y.y.y.h@i@j@k@d@l@9@m@      ",
"      n@o@i.T.p@q@r@d@d@d@d@d@d@d@d@d@d@d@d@d@s@t@u@v@y.y.y.y.y.y.y.y.y.w@x@y@z@d@A@B@C@D@      ",
"      E@~.l 4+F@G@H@d@d@d@d@d@d@d@d@d@d@d@d@d@d@I@J@K@L@y.y.y.y.y.y.y.L@M@N@O@d@d@P@Q@R@S@      ",
"      T@F.)+4+U@V@W@d@d@d@d@d@d@d@d@d@d@d@d@d@d@d@X@Y@Z@`@y.y.y.y.y. #.#+#@#d@d@##$#A@%#&#      ",
"      *#:.l.6+=#-#;#d@d@d@d@d@d@d@d@d@d@d@d@d@d@d@>#,#'#)#!#y.y.y.~#{#]#^#d@d@/#(#_#:#<#[#      ",
"      }#-.j 2+|#1#2#d@d@d@d@d@d@d@d@d@d@d@d@d@d@3#4#5#6#7#8#9#y.,@0#a#b#c#d#e#f#g#h#i#j#k#      ",
"      l#i.k 2+m#n#o#d@d@d@d@d@d@d@d@d@d@d@d@d@d@p#q#r#s#t#u#v#w#x#y#z#A#B#t#C#D#E#F#G#H#k#      ",
"      I#l T.h+J#K#L#d@d@d@d@d@d@d@d@d@d@d@d@d@M#N#O#P#Q#R#S#T#U#V#W#X#Y#Z#`# $.$+$@$#$$$%$      ",
"      &$j m.y+*$=$}@d@d@d@d@d@d@d@d@d@d@d@d@d@d@-$;$>$,$'$)$!$~${$]$^$/$($_$:$<$[$}$|$1$&#      ",
"      2$Y.Y.3$4$5$6$d@d@d@d@d@d@d@d@d@d@d@d@d@d@d@7$8$9${$0$.$a$b$c$d$e$f$g$h$i$t#j$k$l$        ",
"      m$n$U.o$p$q$r$d@d@d@d@d@d@d@d@d@d@d@s$t$l@u$v$w$($x$y$z$A$t#t#B$C$D$E$F$G$H$I$2#J$        ",
"      K$2+3+L$M$N$d@d@d@d@d@d@d@A@O$P$Q$R$S$T$U$V$W$X$f$Y$Z$`$ %.%T$+%@%#%$%%%&%*%=%-%;%>%      ",
"      ,%2+U.'%)%!%d@d@d@d@~%P${%$#$#$#$#$#]%t#f#^%/%(%_%:%<%[%}%$#$#$#|%t#1%2%3%4%5%6%7%t#      ",
"      8%9%4+0%a%b%d@t$c%d%$#$#$#$#$#$#$#$#e%f%D$g%h%G$i%$%j%k%$#$#$#$#$#@%l%m%n%o%p%q%r%s%      ",
"      t%u%v%w%x%y%z%$#$#$#$#$#$#$#$#$#$#$#A%B%C%D%E%F%G%H%I%J%$#$#$#$#K%L%M%N%r%O%P%Q%R%S%      ",
"      T%U%i V%W%X%Y%Y%Y%Y%Y%Z%Z%Z%Z%Z%Z%Z%`% &t#t#.&+&@&#&$&%&&&*&*&*&=&-&;&>&,&'&)&!&~&B$      ",
"      T%{&U.]&^&/&(&(&(&(&_&_&_&_&_&_&_&:&:&:&<&[&t#}&o%|&|&1&2&3&4&5&6&7&8&9&0&a&b&c&&#        ",
"      d&e&7+f&g&h&i&i&j&j&j&j&j&j&j&j&k&k&k&l&l&m&n&o&O%p&q&r&s&t&W$u&v&w&x&y&z&A&B&C&k#        ",
"        D&T.E&F&G&H&I&I&I&I&I&I&I&J&J&J&J&J&J&J&K&L&M&N&O&P&Q&R&S&T&y&U&V&W&X&Y&Z&`& *.*        ",
"        +*7+@*#*$*%*&*&*&*&*&*&***************=*-*%&;*w&x&>*,*'*)*!*X&~*{*]*^*/*(*6&_*:*        ",
"        +*<**$[*}*}*}*}*}*}*}*}*}*}*}*}*}*}*}*|*1*2*y&U&3*4*5*6*7*8*9*0*a*b*c*d*e*f*g*[#        ",
"        &$h*i*}*}*}*}*}*}*}*}*}*}*}*}*}*}*}*}*j*k*l*m*n*=%f#o*p*q*e*r*s*t*u*v*w*x*y*z*          ",
"        A*S@B*C*C*C*C*C*D*D*D*D*D*D*D*D*D*D*D*D*E*g*t#F*G*H*I*J*b*e*K*=%L*M*M*N*t#O*P*          ",
"                                                  Q*R*        S*T*e*U*V*                        ",
"                                                              W*X*Y*Z*`*                        ",
"                                                                 =t#W*                          ",
"                                                                                                ",
"                                                                                                ",
"                                                                                                "};
