/* XPM */
static const char *toolexec_16_xpm[] = {
/* width height num_colors chars_per_pixel */
"    16    16      256            2",
/* colors */
"`` c None",
"`. c #9297a7",
"`# c #9ba0af",
"`a c #aaadb9",
"`b c #465578",
"`c c #4d5877",
"`d c #cdcfd6",
"`e c #d8dadf",
"`f c #4c526d",
"`g c #9498a9",
"`h c #666c84",
"`i c #50648c",
"`j c #506083",
"`k c #85899c",
"`l c #dbdce2",
"`m c #6b7187",
"`n c #555b75",
"`o c #585f78",
"`p c #616d8d",
"`q c #525a77",
"`r c #556488",
"`s c #60759f",
"`t c #61759e",
"`u c #586587",
"`v c #555d78",
"`w c #606e93",
"`x c #5b688b",
"`y c #7a7f94",
"`z c #b9bcc6",
"`A c #555f7d",
"`B c #c3cbdb",
"`C c #edeff4",
"`D c #dbdfe9",
"`E c #7e8db1",
"`F c #6e7fa8",
"`G c #7181a9",
"`H c #7482ab",
"`I c #7482aa",
"`J c #545a76",
"`K c #dedfe4",
"`L c #b8c0d4",
"`M c #fcfdfd",
"`N c #a9b0c7",
"`O c #5f6886",
"`P c #636c8d",
"`Q c #7683a9",
"`R c #7f8ab1",
"`S c #7e89b0",
"`T c #565b76",
"`U c #a6a9b7",
"`V c #686d84",
"`W c #6a7395",
"`X c #d7dbe7",
"`Y c #b9bed2",
"`Z c #555a75",
"`0 c #c0c2cb",
"`1 c #aeb1bd",
"`2 c #525873",
"`3 c #8890b6",
"`4 c #a2a8c6",
"`5 c #6d7391",
"`6 c #5d627b",
"`7 c #888c9f",
"`8 c #979aaa",
".` c #5b6485",
".. c #737da1",
".# c #9ca4c2",
".a c #c1c6d9",
".b c #6a7191",
".c c #b6b9c4",
".d c #9296a6",
".e c #7a7ea0",
".f c #dedfeb",
".g c #9b9ec2",
".h c #9799bb",
".i c #696d8b",
".j c #bfc1ca",
".k c #a4a7b5",
".l c #595e7a",
".m c #6b7190",
".n c #9398bb",
".o c #ced1e1",
".p c #757a9b",
".q c #9fa2b1",
".r c #7b8094",
".s c #9091b1",
".t c #e1e1ec",
".u c #9495b6",
".v c #696d87",
".w c #515671",
".x c #cecfd7",
".y c #9295a6",
".z c #747796",
".A c #9d9fc3",
".B c #9c9dc0",
".C c #5a5f7a",
".D c #84879b",
".E c #757a8f",
".F c #7c7f95",
".G c #e9e8f1",
".H c #e4e3ee",
".I c #6c6f8a",
".J c #c4c6cf",
".K c #565b75",
".L c #a8a7c9",
".M c #aba9cb",
".N c #aeabcc",
".O c #9391b2",
".P c #9c99ba",
".Q c #e7e6f0",
".R c #fefefe",
".S c #d1cde2",
".T c #545974",
".U c #a0a3b2",
".V c #797b97",
".W c #b4afd0",
".X c #b9b3d3",
".Y c #bbb4d5",
".Z c #cdc7df",
".0 c #e8e4f0",
".1 c #e5e2ed",
".2 c #e3deec",
".3 c #9591ae",
".4 c #8a8d9f",
".5 c #60647d",
".6 c #8f8dab",
".7 c #646681",
".8 c #585c76",
"#` c #7a7a96",
"#. c #bbb1d0",
"## c #bfb5d4",
"#a c #747590",
"#b c #5f637c",
"#c c #5b5e79",
"#d c #83819d",
"#e c #75798f",
"#f c #787c91",
"#g c #d1d2d9",
"#h c #9ea1af",
"#i c #8a88a5",
"#j c #9893b1",
"#k c #9093a4",
"#l c #9396a7",
"#m c #d3d4db",
"#n c #61647e",
"#o c #666884",
"#p c #c1c3cc",
"#q c #000000",
"#r c #000000",
"#s c #000000",
"#t c #000000",
"#u c #000000",
"#v c #000000",
"#w c #000000",
"#x c #000000",
"#y c #000000",
"#z c #000000",
"#A c #000000",
"#B c #000000",
"#C c #000000",
"#D c #000000",
"#E c #000000",
"#F c #000000",
"#G c #000000",
"#H c #000000",
"#I c #000000",
"#J c #000000",
"#K c #000000",
"#L c #000000",
"#M c #000000",
"#N c #000000",
"#O c #000000",
"#P c #000000",
"#Q c #000000",
"#R c #000000",
"#S c #000000",
"#T c #000000",
"#U c #000000",
"#V c #000000",
"#W c #000000",
"#X c #000000",
"#Y c #000000",
"#Z c #000000",
"#0 c #000000",
"#1 c #000000",
"#2 c #000000",
"#3 c #000000",
"#4 c #000000",
"#5 c #000000",
"#6 c #000000",
"#7 c #000000",
"#8 c #000000",
"a` c #000000",
"a. c #000000",
"a# c #000000",
"aa c #000000",
"ab c #000000",
"ac c #000000",
"ad c #000000",
"ae c #000000",
"af c #000000",
"ag c #000000",
"ah c #000000",
"ai c #000000",
"aj c #000000",
"ak c #000000",
"al c #000000",
"am c #000000",
"an c #000000",
"ao c #000000",
"ap c #000000",
"aq c #000000",
"ar c #000000",
"as c #000000",
"at c #000000",
"au c #000000",
"av c #000000",
"aw c #000000",
"ax c #000000",
"ay c #000000",
"az c #000000",
"aA c #000000",
"aB c #000000",
"aC c #000000",
"aD c #000000",
"aE c #000000",
"aF c #000000",
"aG c #000000",
"aH c #000000",
"aI c #000000",
"aJ c #000000",
"aK c #000000",
"aL c #000000",
"aM c #000000",
"aN c #000000",
"aO c #000000",
"aP c #000000",
"aQ c #000000",
"aR c #000000",
"aS c #000000",
"aT c #000000",
"aU c #000000",
"aV c #000000",
"aW c #000000",
"aX c #000000",
"aY c #000000",
"aZ c #000000",
"a0 c #000000",
"a1 c #000000",
"a2 c #000000",
"a3 c #000000",
"a4 c #000000",
"a5 c #000000",
"a6 c #000000",
"a7 c #000000",
"a8 c #000000",
/* pixels */
"```````````````.`#``````````````",
"`````````````a`b`c`d````````````",
"`````e`f`g```h`i`j`k`l`m`n``````",
"`````o`i`p`q`r`s`t`u`v`w`x`y````",
"`````z`A`B`C`D`E`F`G`H`I`J`K````",
"```````J`L`M`N`O`P`Q`R`S`T``````",
"```U`V`W`X`Y`Z`0`1`2`3`4`5`6`7``",
"`8.`...#.a.b.c````.d.e.f.g.h.i.j",
".k.l.m.n.o.p.q````.r.s.t.u.v.w.x",
"````.y.z.A.B.C.D.E.F.G.H.I.J````",
"``````.K.L.M.N.O.P.Q.R.S.T``````",
"````.U.V.W.W.X.Y.Z.0.1.2.3.4````",
"````.5.6.7.8#`#.###a#b#c#d#e````",
"``````#f#g``#h#i#j#k````#l``````",
"````````````#m#n#o.J````````````",
"```````````````0#p``````````````"
};
