/* XPM */
static const char *tool_16_xpm[] = {
/* width height num_colors chars_per_pixel */
"    16    16      256            2",
/* colors */
"`` c None",
"`. c #acb1be",
"`# c #57627f",
"`a c #dfe0e5",
"`b c #666e89",
"`c c #7e859b",
"`d c #69728d",
"`e c #586d96",
"`f c #797f96",
"`g c #727a93",
"`h c #7c8399",
"`i c #6c758f",
"`j c #6377a0",
"`k c #697ba4",
"`l c #6d7ea7",
"`m c #7181a8",
"`n c #7280a7",
"`o c #83879d",
"`p c #747b95",
"`q c #7684ac",
"`r c #747b99",
"`s c #83889e",
"`t c #7980a0",
"`u c #868fb5",
"`v c #797e96",
"`w c #d6d7de",
"`x c #b3b7c4",
"`y c #676f8e",
"`z c #7f88ad",
"`A c #848cb2",
"`B c #9da0b1",
"`C c #ffffff",
"`D c #868aa0",
"`E c #999dc1",
"`F c #9799bc",
"`G c #6d728d",
"`H c #caccd4",
"`I c #4c5e84",
"`J c #9a9faf",
"`K c #858b9f",
"`L c #7e829e",
"`M c #9b9ec1",
"`N c #7b7f97",
"`O c #b2b4c1",
"`P c #82859f",
"`Q c #aba9cb",
"`R c #7d7f98",
"`S c #c0c2cc",
"`T c #636c87",
"`U c #626e8d",
"`V c #667290",
"`W c #5f749e",
"`X c #667192",
"`Y c #6b7591",
"`Z c #636c89",
"`0 c #7e8197",
"`1 c #adaacc",
"`2 c #b0accd",
"`3 c #a4a1c1",
"`4 c #b9b3d3",
"`5 c #bdb6d6",
"`6 c #8b8da1",
"`7 c #8b91a5",
"`8 c #687aa2",
".` c #6e7fa6",
".. c #69769b",
".# c #7683aa",
".a c #7b88af",
".b c #787d94",
".c c #797b95",
".d c #8889a2",
".e c #918faa",
".f c #c4b9d8",
".g c #908ea7",
".h c #8a8aa2",
".i c #7d7e97",
".j c #999eaf",
".k c #737a96",
".l c #7c88b0",
".m c #747a95",
".n c #c3c5cf",
".o c #757b93",
".p c #8d94b9",
".q c #8086a3",
".r c #7e8399",
".s c #bcbec9",
".t c #908ca9",
".u c #c3c4ce",
".v c #686e89",
".w c #7f87ab",
".x c #8e95ba",
".y c #898da3",
".z c #9ea1b2",
".A c #979abc",
".B c #9697b9",
".C c #747892",
".D c #bcbdc8",
".E c #898da2",
".F c #9fa0c4",
".G c #8e90ad",
".H c #8a8da3",
".I c #8c8ca8",
".J c #b1adcf",
".K c #888aa1",
".L c #8b8da3",
".M c #aaa7c7",
".N c #b5b0d1",
".O c #bbb4d4",
".P c #bfb7d7",
".Q c #b3accb",
".R c #8f8ea7",
".S c #898a9f",
".T c #9293a7",
".U c #9193a6",
".V c #b2aac8",
".W c #87879f",
".X c #a7a9b8",
".Y c #818299",
".Z c #75768f",
".0 c #afb0be",
".1 c #000000",
".2 c #000000",
".3 c #000000",
".4 c #000000",
".5 c #000000",
".6 c #000000",
".7 c #000000",
".8 c #000000",
"#` c #000000",
"#. c #000000",
"## c #000000",
"#a c #000000",
"#b c #000000",
"#c c #000000",
"#d c #000000",
"#e c #000000",
"#f c #000000",
"#g c #000000",
"#h c #000000",
"#i c #000000",
"#j c #000000",
"#k c #000000",
"#l c #000000",
"#m c #000000",
"#n c #000000",
"#o c #000000",
"#p c #000000",
"#q c #000000",
"#r c #000000",
"#s c #000000",
"#t c #000000",
"#u c #000000",
"#v c #000000",
"#w c #000000",
"#x c #000000",
"#y c #000000",
"#z c #000000",
"#A c #000000",
"#B c #000000",
"#C c #000000",
"#D c #000000",
"#E c #000000",
"#F c #000000",
"#G c #000000",
"#H c #000000",
"#I c #000000",
"#J c #000000",
"#K c #000000",
"#L c #000000",
"#M c #000000",
"#N c #000000",
"#O c #000000",
"#P c #000000",
"#Q c #000000",
"#R c #000000",
"#S c #000000",
"#T c #000000",
"#U c #000000",
"#V c #000000",
"#W c #000000",
"#X c #000000",
"#Y c #000000",
"#Z c #000000",
"#0 c #000000",
"#1 c #000000",
"#2 c #000000",
"#3 c #000000",
"#4 c #000000",
"#5 c #000000",
"#6 c #000000",
"#7 c #000000",
"#8 c #000000",
"a` c #000000",
"a. c #000000",
"a# c #000000",
"aa c #000000",
"ab c #000000",
"ac c #000000",
"ad c #000000",
"ae c #000000",
"af c #000000",
"ag c #000000",
"ah c #000000",
"ai c #000000",
"aj c #000000",
"ak c #000000",
"al c #000000",
"am c #000000",
"an c #000000",
"ao c #000000",
"ap c #000000",
"aq c #000000",
"ar c #000000",
"as c #000000",
"at c #000000",
"au c #000000",
"av c #000000",
"aw c #000000",
"ax c #000000",
"ay c #000000",
"az c #000000",
"aA c #000000",
"aB c #000000",
"aC c #000000",
"aD c #000000",
"aE c #000000",
"aF c #000000",
"aG c #000000",
"aH c #000000",
"aI c #000000",
"aJ c #000000",
"aK c #000000",
"aL c #000000",
"aM c #000000",
"aN c #000000",
"aO c #000000",
"aP c #000000",
"aQ c #000000",
"aR c #000000",
"aS c #000000",
"aT c #000000",
"aU c #000000",
"aV c #000000",
"aW c #000000",
"aX c #000000",
"aY c #000000",
"aZ c #000000",
"a0 c #000000",
"a1 c #000000",
"a2 c #000000",
"a3 c #000000",
"a4 c #000000",
"a5 c #000000",
"a6 c #000000",
"a7 c #000000",
"a8 c #000000",
/* pixels */
"````````````````````````````````",
"`````````````````````.`#`a``````",
"`````````````````b`c`d`e`f`g`h``",
"`````````````````i`j`k`l`m`n`o``",
"`````````````````p`q`r`s`t`u`v`w",
"`````````x`````y`z`A`B`C`D`E`F`G",
"```````H`I`J```K`L`M`N`O`P`Q`R`S",
"```T`U`V`W`X`Y`Z`0`1`2`3`4`5`6``",
"```7`8.`...#.a.b.c.d.e.f.g.h.i``",
".j.k.l.m.n.o.p.q.r``.s.t.u``````",
".v.w.x.y`C.z.A.B.C````.D````````",
"``.E.F.G.H.I.J.K````````````````",
"``.L.M.N.O.P.Q.R````````````````",
"``.S.T.U.V.W.X.Y````````````````",
"````````.Z.0````````````````````",
"````````````````````````````````"
};
