/* XPM */
static const char * toolboxfavor_16_xpm[] = {
"16 16 147 2",
"  	c None",
". 	c #C24E38",
"+ 	c #CD6447",
"@ 	c #C7573F",
"# 	c #C95C41",
"$ 	c #CF6344",
"% 	c #BD402F",
"& 	c #A7A7A7",
"* 	c #A5A5A5",
"= 	c #A3A3A3",
"- 	c #A2A2A2",
"; 	c #B45F4F",
"> 	c #DB6841",
", 	c #DA653E",
"' 	c #DA633B",
") 	c #D9653F",
"! 	c #D95F38",
"~ 	c #D95D36",
"{ 	c #D85B34",
"] 	c #BA3828",
"^ 	c #A6A6A6",
"/ 	c #979797",
"( 	c #919191",
"_ 	c #8D8D8D",
": 	c #898989",
"< 	c #C3583B",
"[ 	c #D7552D",
"} 	c #D6522B",
"| 	c #D6512A",
"1 	c #D64F28",
"2 	c #D0391A",
"3 	c #CB250F",
"4 	c #C81A08",
"5 	c #BF271B",
"6 	c #9F9F9F",
"7 	c #939393",
"8 	c #8C8C8C",
"9 	c #878787",
"0 	c #848484",
"a 	c #B94F36",
"b 	c #D3441E",
"c 	c #D3421C",
"d 	c #D03A18",
"e 	c #CA220C",
"f 	c #C71807",
"g 	c #BB2C21",
"h 	c #949494",
"i 	c #9B9160",
"j 	c #C3B149",
"k 	c #C2B049",
"l 	c #C1AF47",
"m 	c #B97231",
"n 	c #CB3017",
"o 	c #CA240B",
"p 	c #C71907",
"q 	c #C72A1B",
"r 	c #C2741E",
"s 	c #AD9E45",
"t 	c #F1DE3A",
"u 	c #F0D91D",
"v 	c #CD771C",
"w 	c #C52815",
"x 	c #C62D19",
"y 	c #D1881D",
"z 	c #E6D031",
"A 	c #B2A242",
"B 	c #F0DB2E",
"C 	c #EFD817",
"D 	c #CB881C",
"E 	c #C6361D",
"F 	c #BF2D1E",
"G 	c #D38F1A",
"H 	c #DBC714",
"I 	c #E4CB2D",
"J 	c #7E7E7E",
"K 	c #B9A743",
"L 	c #F0DB26",
"M 	c #616761",
"N 	c #7A594D",
"O 	c #AC3A33",
"P 	c #7B5663",
"Q 	c #717460",
"R 	c #5F666E",
"S 	c #CAB737",
"T 	c #7A7A7A",
"U 	c #C1AF42",
"V 	c #EFD91C",
"W 	c #7D7C57",
"X 	c #6C7DA6",
"Y 	c #6B7899",
"Z 	c #6C7790",
"` 	c #7B87AF",
" .	c #767765",
"..	c #E0C82C",
"+.	c #727272",
"@.	c #C4B138",
"#.	c #EFD816",
"$.	c #EED60E",
"%.	c #EED609",
"&.	c #EDD506",
"*.	c #84814E",
"=.	c #757B80",
"-.	c #7A84AA",
";.	c #928B3E",
">.	c #BBAB20",
",.	c #7E8293",
"'.	c #898BA4",
").	c #6F6F71",
"!.	c #6C6C6C",
"~.	c #C8B026",
"{.	c #EDD201",
"].	c #EDD200",
"^.	c #EDD100",
"/.	c #8F8849",
"(.	c #7F8082",
"_.	c #8F94B7",
":.	c #8C8448",
"<.	c #AE9E2B",
"[.	c #8D8CA0",
"}.	c #928F9C",
"|.	c #807962",
"1.	c #686868",
"2.	c #CCA914",
"3.	c #EFBF00",
"4.	c #EFBE00",
"5.	c #877B57",
"6.	c #ACA9CB",
"7.	c #A3A1C0",
"8.	c #A09CB7",
"9.	c #BAB3D4",
"0.	c #8C8480",
"a.	c #CFA60B",
"b.	c #8D7C39",
"c.	c #D2A507",
"d.	c #DBA905",
"e.	c #DAA805",
"f.	c #D9A804",
"g.	c #D9A704",
"h.	c #D7A703",
"i.	c #746E6B",
"j.	c #84796B",
"k.	c #958C91",
"l.	c #ABA1B4",
"m.	c #8A7B61",
"n.	c #777277",
"o.	c #626275",
"p.	c #64657E",
"                                ",
"              . + @   # $ %     ",
"  & & * = - ; > , ' ) ! ~ { ]   ",
"  ^ / ( _ : < [ } | 1 2 3 4 5   ",
"  6 7 8 9 0 a b c d e f f f g   ",
"  h i j k l m n o p f f f q r   ",
"  _ s t u u u v w f f f x y z   ",
"  0 A B C C C C D E f F G H I   ",
"  J K L C C C C M N O P Q R S   ",
"  T U V C C C C W X Y Z `  ...  ",
"  +.@.#.$.%.&.*.=.-.;.>.,.'.).  ",
"  !.~.{.].^.^./.(._.:.<.[.}.|.  ",
"  1.2.3.3.3.4.4.5.6.7.8.9.0.a.  ",
"  b.c.d.e.f.g.h.i.j.k.l.m.n.    ",
"                    o.p.        ",
"                                "};
