/* XPM */
static const char *views_xpm[] = {
/* width height num_colors chars_per_pixel */
"    16    16      256            2",
/* colors */
"`` c #c4c8cb",
"`. c #b6c0ce",
"`# c #c5c8cb",
"`a c #bcc4cf",
"`b c #607ea9",
"`c c #bdc5d0",
"`d c #c7cbd4",
"`e c #8fa4c3",
"`f c #c8cdd4",
"`g c #d9d9da",
"`h c #e2e6e5",
"`i c #e0e4e3",
"`j c #dee2e0",
"`k c #e5e8e9",
"`l c #eff1f5",
"`m c #e1e7ea",
"`n c #dbe4ea",
"`o c #d9e2e7",
"`p c #d7dee3",
"`q c #e8e3ed",
"`r c #e5d4e9",
"`s c #e4d2e6",
"`t c #e1d0e5",
"`u c #d6d5d8",
"`v c #d4dad0",
"`w c #88eb4f",
"`x c #87dd56",
"`y c #88df55",
"`z c #c2e6ae",
"`A c #fafafa",
"`B c #8fd3ea",
"`C c #4dbee4",
"`D c #4fbbe0",
"`E c #70c8e6",
"`F c #e7b5e8",
"`G c #e24de6",
"`H c #dc4fe0",
"`I c #e04be5",
"`J c #d7c5d8",
"`K c #d1d7cf",
"`L c #85e74f",
"`M c #88d85a",
"`N c #86d957",
"`O c #c3e6ae",
"`P c #f7f7f7",
"`Q c #90d2e9",
"`R c #55badc",
"`S c #5bb7d6",
"`T c #71c6e2",
"`U c #e5b5e7",
"`V c #dc54e1",
"`W c #d15dd5",
"`X c #d754db",
"`Y c #d6c4d7",
"`Z c #cfd4cc",
"`0 c #84e84d",
"`1 c #85dd53",
"`2 c #83e14d",
"`3 c #f4f4f4",
"`4 c #8ed0e8",
"`5 c #50bbdf",
"`6 c #4fbade",
"`7 c #70c9e8",
"`8 c #e3b3e5",
".` c #e04fe5",
".. c #d94fdd",
".# c #e04ae5",
".a c #d7c4d7",
".b c #cdd3c9",
".c c #83e948",
".d c #84e04f",
".e c #83e44b",
".f c #f1f1f1",
".g c #8acfe6",
".h c #4ebce1",
".i c #6fc9e9",
".j c #e1afe3",
".k c #e34de7",
".l c #dc4de1",
".m c #e347e8",
".n c #d1d2d0",
".o c #cee0c4",
".p c #d0e1c5",
".q c #dbe3d7",
".r c #eeeeee",
".s c #cfdbde",
".t c #c8d9df",
".u c #c9dae0",
".v c #cbd9de",
".w c #e3dee3",
".x c #ded1df",
".y c #e0d2e0",
".z c #d4d2d4",
".A c #d4cbcb",
".B c #e88585",
".C c #e48585",
".D c #e38282",
".E c #ddb7b7",
".F c #ebebeb",
".G c #e5d2a8",
".H c #e5c584",
".I c #e3c384",
".J c #e2c793",
".K c #bde2d9",
".L c #7ee7cb",
".M c #7ee2c8",
".N c #7ce4c9",
".O c #c2d0cd",
".P c #d5c8c8",
".Q c #e75050",
".R c #d55d5d",
".S c #d65959",
".T c #e1a9a9",
".U c #e7e7e7",
".V c #e7ca8e",
".W c #daaf56",
".X c #d5ad5d",
".Y c #e1bc72",
".Z c #b0e3d6",
".0 c #50e1bc",
".1 c #59d6b6",
".2 c #52deba",
".3 c #c1d3ce",
".4 c #d3c5c5",
".5 c #e94a4a",
".6 c #df4f4f",
".7 c #e44b4b",
".8 c #e4e4e4",
"#` c #e7c98b",
"#. c #e3b24e",
"## c #e1b04d",
"#a c #e8c06f",
"#b c #afe2d4",
"#c c #4ee4bd",
"#d c #4be5bd",
"#e c #c0d2cd",
"#f c #d1c3c3",
"#g c #e74f4f",
"#h c #da5656",
"#i c #de5151",
"#j c #e1e1e1",
"#k c #e6c98c",
"#l c #ddaf51",
"#m c #dbaf54",
"#n c #e6bf70",
"#o c #ace0d3",
"#p c #53ddb9",
"#q c #ccc5c5",
"#r c #e49595",
"#s c #e59696",
"#t c #e79797",
"#u c #dabbbb",
"#v c #e0e0e0",
"#w c #dbccab",
"#x c #e4ca95",
"#y c #e6cc97",
"#z c #e1cba2",
"#A c #bed8d1",
"#B c #9de2d2",
"#C c #9ee4d2",
"#D c #9fe5d2",
"#E c #c6cfcc",
"#F c #c7c7c7",
"#G c #d1d1d1",
"#H c None",
"#I c #000000",
"#J c #000000",
"#K c #000000",
"#L c #000000",
"#M c #000000",
"#N c #000000",
"#O c #000000",
"#P c #000000",
"#Q c #000000",
"#R c #000000",
"#S c #000000",
"#T c #000000",
"#U c #000000",
"#V c #000000",
"#W c #000000",
"#X c #000000",
"#Y c #000000",
"#Z c #000000",
"#0 c #000000",
"#1 c #000000",
"#2 c #000000",
"#3 c #000000",
"#4 c #000000",
"#5 c #000000",
"#6 c #000000",
"#7 c #000000",
"#8 c #000000",
"a` c #000000",
"a. c #000000",
"a# c #000000",
"aa c #000000",
"ab c #000000",
"ac c #000000",
"ad c #000000",
"ae c #000000",
"af c #000000",
"ag c #000000",
"ah c #000000",
"ai c #000000",
"aj c #000000",
"ak c #000000",
"al c #000000",
"am c #000000",
"an c #000000",
"ao c #000000",
"ap c #000000",
"aq c #000000",
"ar c #000000",
"as c #000000",
"at c #000000",
"au c #000000",
"av c #000000",
"aw c #000000",
"ax c #000000",
"ay c #000000",
"az c #000000",
"aA c #000000",
"aB c #000000",
"aC c #000000",
"aD c #000000",
"aE c #000000",
"aF c #000000",
"aG c #000000",
"aH c #000000",
"aI c #000000",
"aJ c #000000",
"aK c #000000",
"aL c #000000",
"aM c #000000",
"aN c #000000",
"aO c #000000",
"aP c #000000",
"aQ c #000000",
"aR c #000000",
"aS c #000000",
"aT c #000000",
"aU c #000000",
"aV c #000000",
"aW c #000000",
"aX c #000000",
"aY c #000000",
"aZ c #000000",
"a0 c #000000",
"a1 c #000000",
"a2 c #000000",
"a3 c #000000",
"a4 c #000000",
"a5 c #000000",
"a6 c #000000",
"a7 c #000000",
"a8 c #000000",
/* pixels */
"```.`.`.`.`.`.`.`.`.`.`.`.`.`.`#",
"`a`b`b`b`b`b`b`b`b`b`b`b`b`b`b`c",
"`d`e`e`e`e`e`e`e`e`e`e`e`e`e`e`f",
"`g`h`i`j`k`l`m`n`o`p`l`q`r`s`t`u",
"`v`w`x`y`z`A`B`C`D`E`A`F`G`H`I`J",
"`K`L`M`N`O`P`Q`R`S`T`P`U`V`W`X`Y",
"`Z`0`1`2`z`3`4`5`6`7`3`8.`...#.a",
".b.c.d.e`z.f.g`C.h.i.f.j.k.l.m.a",
".n.o.p.p.q.r.s.t.u.v.r.w.x.y.y.z",
".A.B.C.D.E.F.G.H.I.J.F.K.L.M.N.O",
".P.Q.R.S.T.U.V.W.X.Y.U.Z.0.1.2.3",
".4.5.6.7.T.8#`#.###a.8#b#c.2#d#e",
"#f#g#h#i.T#j#k#l#m#n#j#o#c#p#d#e",
"#q#r#s#t#u#v#w#x#y#z#v#A#B#C#D#E",
"#F#G#G#G#G#G#G#G#G#G#G#G#G#G#G#F",
"#H#H#H#H#H#H#H#H#H#H#H#H#H#H#H#H"
};
