/* XPM */
static const char *view_refresh_xpm[] = {
/* width height num_colors chars_per_pixel */
"    16    16      256            2",
/* colors */
"`` c None",
"`. c #85a2c9",
"`# c #547eb3",
"`a c #3e6da9",
"`b c #4e79b0",
"`c c #6e92bf",
"`d c #bdcde2",
"`e c #9fb6d4",
"`f c #c0cfe3",
"`g c #406eaa",
"`h c #6b93c2",
"`i c #8fb0d3",
"`j c #a8c2df",
"`k c #a8c1de",
"`l c #93b1d4",
"`m c #668dbd",
"`n c #4370ab",
"`o c #b9cae0",
"`p c #afc2db",
"`q c #3465a4",
"`r c #416faa",
"`s c #8cadd3",
"`t c #9dbddc",
"`u c #a1bedd",
"`v c #b4cbe5",
"`w c #bfd3e9",
"`x c #ccddee",
"`y c #d5e2f0",
"`z c #bfd2e7",
"`A c #537db3",
"`B c #688dbc",
"`C c #4976ae",
"`D c #3868a6",
"`E c #87a4ca",
"`F c #6b91c1",
"`G c #7298c5",
"`H c #3c6ba8",
"`I c #3566a4",
"`J c #3d6ca9",
"`K c #658bbb",
"`L c #a2bcda",
"`M c #d8e4f1",
"`N c #dbe6f2",
"`O c #dde8f3",
"`P c #89a8cf",
"`Q c #c8d8ea",
"`R c #3f6eaa",
"`S c #4270ab",
"`T c #4170ab",
"`U c #3d6daa",
"`V c #a2b9d6",
"`W c #c9d6e7",
"`X c #6087b8",
"`Y c #cddbeb",
"`Z c #e2ebf5",
"`0 c #e6eef6",
"`1 c #3666a5",
"`2 c #a3bcdd",
"`3 c #4b76ae",
"`4 c #b3c6dd",
"`5 c #c7d7e9",
"`6 c #c6d8eb",
"`7 c #e3ecf5",
"`8 c #3e6da8",
".` c #3767a6",
".. c #678bbb",
".# c #92aed1",
".a c #e7eef6",
".b c #809fc6",
".c c #4d78b0",
".d c #527cb2",
".e c #527db2",
".f c #3969a7",
".g c #3566a5",
".h c #3667a5",
".i c #6c90bd",
".j c #e5edf5",
".k c #e5edf6",
".l c #e4ecf5",
".m c #9db8d8",
".n c #507bb1",
".o c #c4d7eb",
".p c #c9d9ea",
".q c #abbfda",
".r c #4774ad",
".s c #aec5e2",
".t c #7d9ec9",
".u c #3969a6",
".v c #e4edf5",
".w c #c1d2e6",
".x c #547fb4",
".y c #6289b9",
".z c #d5dfec",
".A c #4a76b0",
".B c #4f7cb6",
".C c #3b6ba8",
".D c #3b6ba7",
".E c #3a6aa7",
".F c #96b3d5",
".G c #e0e9f4",
".H c #ccdced",
".I c #90aed3",
".J c #547eb4",
".K c #3d6da9",
".L c #4c78b0",
".M c #7e9dc6",
".N c #6188ba",
".O c #5881b5",
".P c #5680b5",
".Q c #b4cae3",
".R c #c9daec",
".S c #bcd1e7",
".T c #b0c9e3",
".U c #a0bede",
".V c #88abd2",
".W c #82a5ce",
".X c #8eaed3",
".Y c #8ca8cc",
".Z c #4572ac",
".0 c #5d86b9",
".1 c #84a6ce",
".2 c #97b6d8",
".3 c #99b9db",
".4 c #8aacd3",
".5 c #6f96c3",
".6 c #b7c9df",
".7 c #7f9ec6",
".8 c #6d90be",
"#` c #4a76ae",
"#. c #4f7ab1",
"## c #7d9dc5",
"#a c #000000",
"#b c #000000",
"#c c #000000",
"#d c #000000",
"#e c #000000",
"#f c #000000",
"#g c #000000",
"#h c #000000",
"#i c #000000",
"#j c #000000",
"#k c #000000",
"#l c #000000",
"#m c #000000",
"#n c #000000",
"#o c #000000",
"#p c #000000",
"#q c #000000",
"#r c #000000",
"#s c #000000",
"#t c #000000",
"#u c #000000",
"#v c #000000",
"#w c #000000",
"#x c #000000",
"#y c #000000",
"#z c #000000",
"#A c #000000",
"#B c #000000",
"#C c #000000",
"#D c #000000",
"#E c #000000",
"#F c #000000",
"#G c #000000",
"#H c #000000",
"#I c #000000",
"#J c #000000",
"#K c #000000",
"#L c #000000",
"#M c #000000",
"#N c #000000",
"#O c #000000",
"#P c #000000",
"#Q c #000000",
"#R c #000000",
"#S c #000000",
"#T c #000000",
"#U c #000000",
"#V c #000000",
"#W c #000000",
"#X c #000000",
"#Y c #000000",
"#Z c #000000",
"#0 c #000000",
"#1 c #000000",
"#2 c #000000",
"#3 c #000000",
"#4 c #000000",
"#5 c #000000",
"#6 c #000000",
"#7 c #000000",
"#8 c #000000",
"a` c #000000",
"a. c #000000",
"a# c #000000",
"aa c #000000",
"ab c #000000",
"ac c #000000",
"ad c #000000",
"ae c #000000",
"af c #000000",
"ag c #000000",
"ah c #000000",
"ai c #000000",
"aj c #000000",
"ak c #000000",
"al c #000000",
"am c #000000",
"an c #000000",
"ao c #000000",
"ap c #000000",
"aq c #000000",
"ar c #000000",
"as c #000000",
"at c #000000",
"au c #000000",
"av c #000000",
"aw c #000000",
"ax c #000000",
"ay c #000000",
"az c #000000",
"aA c #000000",
"aB c #000000",
"aC c #000000",
"aD c #000000",
"aE c #000000",
"aF c #000000",
"aG c #000000",
"aH c #000000",
"aI c #000000",
"aJ c #000000",
"aK c #000000",
"aL c #000000",
"aM c #000000",
"aN c #000000",
"aO c #000000",
"aP c #000000",
"aQ c #000000",
"aR c #000000",
"aS c #000000",
"aT c #000000",
"aU c #000000",
"aV c #000000",
"aW c #000000",
"aX c #000000",
"aY c #000000",
"aZ c #000000",
"a0 c #000000",
"a1 c #000000",
"a2 c #000000",
"a3 c #000000",
"a4 c #000000",
"a5 c #000000",
"a6 c #000000",
"a7 c #000000",
"a8 c #000000",
/* pixels */
"`````````.`#`a`b`c`d`````````e``",
"`````f`g`h`i`j`k`l`m`n`o```p`q``",
"`````r`s`t`u`v`w`x`y`z`A`B`C`D``",
"```E`F`G`H`I`J`K`L`M`N`O`P`Q`R``",
"```S`T`U`S`V```W`X`B`Y`Z`0`0`a``",
"```1`a`2`3`````````4`I`5`6`7`8``",
"``.```````````````...#.a`N`0`8``",
"````````````````.b`q.c.d.d.e`q``",
"``.f.g.g.h.``D.i````````````````",
"``.`.j.k.l.m.n``````````````.```",
"```D`0.o.p.g.q````````.r.s.t`q``",
"``.u`0`7.v.w.x.y.z``.q.A.B.C.D``",
"``.E`M.F.G`O.H.I.J.f.u.E.K.L.M``",
"```D.N.O.P.Q.R.S.T.U.V.W.X`g````",
"```q.Y```d.Z.0.1.2.3.4.5`g.6````",
"``.7`````````d.8#`.u#.##````````"
};
