/* XPM */
static const char * web_connections_16_xpm[] = {
"16 16 111 2",
"  	c None",
". 	c #ADADAD",
"+ 	c #A8A8A8",
"@ 	c #A5A5A5",
"# 	c #A2A2A2",
"$ 	c #979797",
"% 	c #A3A3A3",
"& 	c #999999",
"* 	c #939393",
"= 	c #8D8D8D",
"- 	c #8B8B8B",
"; 	c #8A8A8A",
"> 	c #818181",
", 	c #929292",
"' 	c #949494",
") 	c #969696",
"! 	c #858585",
"~ 	c #7F7F7F",
"{ 	c #7B7B7B",
"] 	c #797979",
"^ 	c #7A7A7A",
"/ 	c #7C7C7C",
"( 	c #A39653",
"_ 	c #DECB49",
": 	c #DDC83F",
"< 	c #DCC73E",
"[ 	c #DDC73E",
"} 	c #DEC93F",
"| 	c #E1CB3B",
"1 	c #E6D03A",
"2 	c #D8BD24",
"3 	c #898989",
"4 	c #A89844",
"5 	c #F1DD35",
"6 	c #EFD817",
"7 	c #E2CC1E",
"8 	c #BFB245",
"9 	c #BBAE4B",
"0 	c #D0BD29",
"a 	c #DEC52C",
"b 	c #848484",
"c 	c #B0A044",
"d 	c #F0DB2E",
"e 	c #C8B937",
"f 	c #A4A391",
"g 	c #A6A6A6",
"h 	c #A4A4A4",
"i 	c #8B8A87",
"j 	c #7E7755",
"k 	c #B7A641",
"l 	c #F0DB25",
"m 	c #E7D119",
"n 	c #858476",
"o 	c #989898",
"p 	c #D9D9D9",
"q 	c #B4B4B4",
"r 	c #787878",
"s 	c #5F5F5F",
"t 	c #747474",
"u 	c #BEAB3D",
"v 	c #EFD91B",
"w 	c #EFD816",
"x 	c #EED712",
"y 	c #EED70F",
"z 	c #EED60B",
"A 	c #BDAE2B",
"B 	c #919191",
"C 	c #CDCDCD",
"D 	c #D1D1D1",
"E 	c #696969",
"F 	c #616161",
"G 	c #6D6D6D",
"H 	c #C1AD30",
"I 	c #EED508",
"J 	c #EDD401",
"K 	c #EDD400",
"L 	c #BFAE27",
"M 	c #8C8C8C",
"N 	c #666666",
"O 	c #5A5A5A",
"P 	c #676767",
"Q 	c #6B6B6B",
"R 	c #C6A91E",
"S 	c #EEC600",
"T 	c #EEC500",
"U 	c #EEC400",
"V 	c #E0B906",
"W 	c #8A8779",
"X 	c #626262",
"Y 	c #8E8E8E",
"Z 	c #606060",
"` 	c #746F5A",
" .	c #D4A60D",
"..	c #F0B400",
"+.	c #B79428",
"@.	c #696762",
"#.	c #6C6C6C",
"$.	c #61605D",
"%.	c #A0851C",
"&.	c #9F841C",
"*.	c #9D841B",
"=.	c #9C811A",
"-.	c #9C8118",
";.	c #998017",
">.	c #87752B",
",.	c #6F6A57",
"'.	c #686762",
").	c #766C47",
"!.	c #B7B7B7",
"~.	c #636363",
"{.	c #656565",
"                                ",
"                                ",
"  . . + @ # $                   ",
"  % & * = - ; > , ' ) $         ",
"  & = ! ~ { ] ] ^ / > ;         ",
"  , ( _ : < < < < [ : } | 1 2   ",
"  3 4 5 6 6 6 6 6 6 7 8 9 0 a   ",
"  b c d 6 6 6 6 6 e f g h i j   ",
"  ^ k l 6 6 6 6 m n o p q r s   ",
"  t u v w x y z A B C D & E F F ",
"  G H I J K K K L ) ; q M N O P ",
"  Q R S T T T U V W X ] Y G Z   ",
"  `  .............+.@.t t #.$.  ",
"    %.&.*.=.-.;.;.;.>.,.'.).    ",
"                    { . !.; !   ",
"                      ~.{.      "};
