/* XPM */
static const char * web_connections_48_xpm[] = {
"48 48 349 2",
"  	c None",
". 	c #7A7A7A",
"+ 	c #797979",
"@ 	c #BEBEBE",
"# 	c #C9C9C9",
"$ 	c #C7C7C7",
"% 	c #C6C6C6",
"& 	c #C5C5C5",
"* 	c #C4C4C4",
"= 	c #C3C3C3",
"- 	c #C2C2C2",
"; 	c #C0C0C0",
"> 	c #BFBFBF",
", 	c #AAAAAA",
"' 	c #777777",
") 	c #CACACA",
"! 	c #BABABA",
"~ 	c #ACACAC",
"{ 	c #A8A8A8",
"] 	c #A6A6A6",
"^ 	c #A4A4A4",
"/ 	c #A3A3A3",
"( 	c #A1A1A1",
"_ 	c #A0A0A0",
": 	c #9E9E9E",
"< 	c #9D9D9D",
"[ 	c #9C9C9C",
"} 	c #9B9B9B",
"| 	c #B1B1B1",
"1 	c #7C7C7C",
"2 	c #787878",
"3 	c #A5A5A5",
"4 	c #979797",
"5 	c #959595",
"6 	c #939393",
"7 	c #929292",
"8 	c #909090",
"9 	c #8E8E8E",
"0 	c #8C8C8C",
"a 	c #8B8B8B",
"b 	c #8A8A8A",
"c 	c #898989",
"d 	c #888888",
"e 	c #878787",
"f 	c #8D8D8D",
"g 	c #C1C1C1",
"h 	c #B2B2B2",
"i 	c #A2A2A2",
"j 	c #9A9A9A",
"k 	c #999999",
"l 	c #969696",
"m 	c #949494",
"n 	c #707070",
"o 	c #757575",
"p 	c #B7B7B7",
"q 	c #8F8F8F",
"r 	c #868686",
"s 	c #848484",
"t 	c #838383",
"u 	c #828282",
"v 	c #818181",
"w 	c #808080",
"x 	c #737373",
"y 	c #6D6D6D",
"z 	c #6C6C6C",
"A 	c #747474",
"B 	c #B6B6B6",
"C 	c #AEAEAE",
"D 	c #919191",
"E 	c #AFAFAF",
"F 	c #B3B3B3",
"G 	c #B4B4B4",
"H 	c #B5B5B5",
"I 	c #B9B9B9",
"J 	c #686868",
"K 	c #ADADAD",
"L 	c #858585",
"M 	c #7E7E7E",
"N 	c #7B7B7B",
"O 	c #7D7D7D",
"P 	c #7F7F7F",
"Q 	c #6E6E6E",
"R 	c #989898",
"S 	c #676767",
"T 	c #82817F",
"U 	c #81807B",
"V 	c #7F7E79",
"W 	c #7D7C77",
"X 	c #7B7A75",
"Y 	c #7A7974",
"Z 	c #787772",
"` 	c #777570",
" .	c #76746F",
"..	c #75736E",
"+.	c #74726D",
"@.	c #73726C",
"#.	c #7C7B76",
"$.	c #868580",
"%.	c #6A6963",
"&.	c #6B6B6B",
"*.	c #A7A7A7",
"=.	c #BD9F17",
"-.	c #C5A105",
";.	c #C5A104",
">.	c #C4A104",
",.	c #C4A103",
"'.	c #C4A003",
").	c #C4A002",
"!.	c #C3A001",
"~.	c #C4A100",
"{.	c #C8A400",
"].	c #C3A002",
"^.	c #F3E66D",
"/.	c #F6EA7E",
"(.	c #F6EA7F",
"_.	c #F6EA80",
":.	c #F6EA81",
"<.	c #F3E56E",
"[.	c #C5A100",
"}.	c #656565",
"|.	c #8D8B83",
"1.	c #C4A102",
"2.	c #F5E879",
"3.	c #EFD91C",
"4.	c #EFD817",
"5.	c #EFD818",
"6.	c #EFD819",
"7.	c #EFD81A",
"8.	c #EFD91A",
"9.	c #F0DB29",
"0.	c #F1E064",
"a.	c #C6A200",
"b.	c #636363",
"c.	c #847F6A",
"d.	c #C5A40A",
"e.	c #F5E87A",
"f.	c #EFDA23",
"g.	c #EEDC5A",
"h.	c #C6A400",
"i.	c #606060",
"j.	c #9F9F9F",
"k.	c #938B68",
"l.	c #CAAC17",
"m.	c #F5E771",
"n.	c #E9D318",
"o.	c #C6B41F",
"p.	c #A2962D",
"q.	c #BEAD21",
"r.	c #E4CF19",
"s.	c #EED60E",
"t.	c #F0DA26",
"u.	c #EAD751",
"v.	c #C7A400",
"w.	c #5D5D5D",
"x.	c #8D8252",
"y.	c #CEB220",
"z.	c #F5E669",
"A.	c #E2CD19",
"B.	c #8D8542",
"C.	c #838061",
"D.	c #8F8E7A",
"E.	c #92928C",
"F.	c #969692",
"G.	c #8D8A76",
"H.	c #84805C",
"I.	c #827B3C",
"J.	c #D5C432",
"K.	c #E7D247",
"L.	c #9A8C4E",
"M.	c #D5BB28",
"N.	c #F4E461",
"O.	c #B4A529",
"P.	c #85816B",
"Q.	c #BCBCBC",
"R.	c #6A6A6A",
"S.	c #7E7C6C",
"T.	c #948943",
"U.	c #C6A300",
"V.	c #98873B",
"W.	c #DDC32F",
"X.	c #F3E359",
"Y.	c #EBD518",
"Z.	c #837C44",
"`.	c #8E8D88",
" +	c #7F7E7C",
".+	c #5C5847",
"++	c #A69234",
"@+	c #E2CB38",
"#+	c #F3E250",
"$+	c #93893A",
"%+	c #999998",
"&+	c #B8B8B8",
"*+	c #D2D2D2",
"=+	c #A9A9A9",
"-+	c #767676",
";+	c #5E5E5E",
">+	c #727272",
",+	c #4D4D4D",
"'+	c #717171",
")+	c #AB9322",
"!+	c #E7D142",
"~+	c #F2E049",
"{+	c #C8B721",
"]+	c #89877E",
"^+	c #C8C8C8",
"/+	c #D7D7D7",
"(+	c #D0D0D0",
"_+	c #616161",
":+	c #5C5C5C",
"<+	c #6F6F6F",
"[+	c #B69B1A",
"}+	c #EAD64B",
"|+	c #F1DE3E",
"1+	c #7B785C",
"2+	c #DADADA",
"3+	c #DCDCDC",
"4+	c #D4D4D4",
"5+	c #CBCBCB",
"6+	c #696969",
"7+	c #5B5B5B",
"8+	c #BB9C0E",
"9+	c #EDDA4E",
"0+	c #F0DC33",
"a+	c #AC9E2B",
"b+	c #8C8C8B",
"c+	c #E2E2E2",
"d+	c #E4E4E4",
"e+	c #DDDDDD",
"f+	c #646464",
"g+	c #585858",
"h+	c #474747",
"i+	c #C19F08",
"j+	c #EFDE50",
"k+	c #EFD816",
"l+	c #EED714",
"m+	c #867F3F",
"n+	c #D6D6D6",
"o+	c #DBDBDB",
"p+	c #D8D8D8",
"q+	c #D1D1D1",
"r+	c #515151",
"s+	c #5F5F5F",
"t+	c #F2E051",
"u+	c #F0DA20",
"v+	c #EFD815",
"w+	c #EED710",
"x+	c #EED60B",
"y+	c #EED507",
"z+	c #EDD505",
"A+	c #EDD503",
"B+	c #EDD401",
"C+	c #EDD400",
"D+	c #7D7852",
"E+	c #CFCFCF",
"F+	c #D3D3D3",
"G+	c #575757",
"H+	c #666666",
"I+	c #595959",
"J+	c #7B796F",
"K+	c #C3A003",
"L+	c #F2E14F",
"M+	c #EED815",
"N+	c #EED60F",
"O+	c #EED609",
"P+	c #EDD504",
"Q+	c #ECD300",
"R+	c #7B7965",
"S+	c #BDBDBD",
"T+	c #555555",
"U+	c #77725B",
"V+	c #C4A309",
"W+	c #F2DF46",
"X+	c #E5CD03",
"Y+	c #888672",
"Z+	c #877F5A",
"`+	c #C8A80E",
" @	c #F1DD36",
".@	c #EDD402",
"+@	c #827E59",
"@@	c #5A5A5A",
"#@	c #565656",
"$@	c #867A48",
"%@	c #CBAC10",
"&@	c #EFD923",
"*@	c #EDD300",
"=@	c #EDD200",
"-@	c #EDD100",
";@	c #817840",
">@	c #ABABAB",
",@	c #4A4A4A",
"'@	c #948646",
")@	c #D1B10E",
"!@	c #F0D217",
"~@	c #EECC00",
"{@	c #EECB00",
"]@	c #EECA00",
"^@	c #918129",
"/@	c #626262",
"(@	c #484848",
"_@	c #958437",
":@	c #D8B40A",
"<@	c #EFC90E",
"[@	c #EEC600",
"}@	c #EEC500",
"|@	c #EEC400",
"1@	c #EFC400",
"2@	c #CAA80D",
"3@	c #817F72",
"4@	c #454545",
"5@	c #A69030",
"6@	c #DDB406",
"7@	c #EFC207",
"8@	c #EFBF00",
"9@	c #EFBE00",
"0@	c #EFBD00",
"a@	c #87752F",
"b@	c #8D8D8C",
"c@	c #444444",
"d@	c #AC921F",
"e@	c #E0B001",
"f@	c #F0B901",
"g@	c #F0B900",
"h@	c #F0B800",
"i@	c #F0B700",
"j@	c #EAB202",
"k@	c #716749",
"l@	c #424242",
"m@	c #BB9B12",
"n@	c #E6B000",
"o@	c #F0B400",
"p@	c #C59710",
"q@	c #716C5C",
"r@	c #928756",
"s@	c #C4A004",
"t@	c #EFB400",
"u@	c #CA9B0D",
"v@	c #6C6244",
"w@	c #686867",
"x@	c #535353",
"y@	c #BC9A05",
"z@	c #C4A000",
"A@	c #C19E01",
"B@	c #75672B",
"C@	c #6B675A",
"D@	c #6A6961",
"E@	c #4D4B41",
"F@	c #494949",
"G@	c #4E4E4E",
"H@	c #4F4F4F",
"                                                                                                ",
"                                                                                                ",
"                                                                                                ",
"                                                                                                ",
"                                                                                                ",
"        . . . . . . . + + + + + + + + .                                                         ",
"      + @ # $ % & * = - - ; ; > > > > , '                                                       ",
"      . ) ! ~ , { ] ^ / ( _ : < [ [ } | 1                                                       ",
"      2 * 3 4 5 6 7 8 9 0 a b c c d e 7 f                                                       ",
"      ' g h 3 i _ : [ j k 4 l 5 m 6 7 7 f n                                                     ",
"      o p ( 7 q f a b d r s t u v v w w s x y y y y y y y y y y z z z z                         ",
"      A B C : [ k 4 5 6 D 8 9 f 0 a b c b b 7 i ~ C E E | h F G H p I h J                       ",
"      n K : a b e L t v w M 1 N . + + 2 2 2 2 2 + + + . N O P w v s r b J                       ",
"      Q K , R l 6 D 9 0 b d e L s t u v v v v v v u t s L e c b 0 q D m S                       ",
"      z / } r s T U V W X Y Z `  ...+.+.+.@.@.+.+.+... .` Z Y X #.V U $.%.                      ",
"      &./ *.7 8 =.-.-.-.-.-.;.;.>.>.,.,.'.'.).).).).).).).).).).).).).).!.~.~.~.~.~.~.{.        ",
"      J k R u P ].^././././.(.(.(.(._._._._.:.:.:.:.:.:.:.:._._._._.(.(.(.(././././.<.[.        ",
"      }.R i f |.1.2.3.4.4.4.4.4.4.4.4.4.4.4.4.4.4.4.4.4.4.4.5.5.5.5.6.6.6.6.7.7.8.9.0.a.        ",
"      b.8 l 1 c.d.e.4.4.4.4.4.4.4.4.4.4.4.4.4.4.4.4.4.4.4.4.4.4.4.4.4.4.4.4.4.4.4.f.g.h.        ",
"      i.9 j.d k.l.m.4.4.4.4.4.4.4.4.4.4.4.4.4.4.4.4.4.4.4.4.4.4.4.4.n.o.p.q.r.4.s.t.u.v.        ",
"      w.e 7 + x.y.z.4.4.4.4.4.4.4.4.4.4.4.4.4.4.4.4.4.4.4.4.4.A.B.C.D.E.m F.G.H.I.J.K.h.        ",
"        s [ t L.M.N.4.4.4.4.4.4.4.4.4.4.4.4.4.4.4.4.4.4.4.4.O.P., Q.t R.J D *.3 i S.T.U.        ",
"        1 q A V.W.X.4.4.4.4.4.4.4.4.4.4.4.4.4.4.4.4.4.4.Y.Z.`.] j.K [ v ^ i ~ / 2 Q  +.+        ",
"        + R P ++@+#+4.4.4.4.4.4.4.4.4.4.4.4.4.4.4.4.4.4.$+%+&+~ < *+- * - ! =+l o -+;+>+,+      ",
"        >+0 '+)+!+~+4.4.4.4.4.4.4.4.4.4.4.4.4.4.4.4.4.{+]+A r + N ^+/+(+$ @ j.L >+_+w.:+z       ",
"        <+l 1 [+}+|+4.4.4.4.4.4.4.4.4.4.4.4.4.4.4.4.n.1+w Q n M ^+2+3+4+5+g ^ 6+S _+;+7+i.;+    ",
"        6+b Q 8+9+0+4.4.4.4.4.4.4.4.4.4.4.4.4.4.4.4.a+b+&.Q u 5+c+d+e+4+5+g A : m M f+7+g+6+h+  ",
"        }.6 + i+j+9.4.4.4.4.4.4.4.4.4.4.4.4.4.4.k+l+m+P R.A Q.n+o+3+p+q+^+> d z ' L u i.g+i.r+  ",
"        s+d &.!.t+u+4.4.4.4.4.4.4.v+w+x+y+z+A+B+C+C+D+t { K ^+E+F+4+q+5+= 4 J }.b.i.w.f+G+H+I+  ",
"        7+8 J+K+L+7.4.4.4.M+N+O+P+C+C+C+C+C+C+C+C+Q+R+r _ ! g % # ) ^+= S+A H+f+_+s+:+H+I+G+S   ",
"        T+L U+V+W+4.4.w+y+C+C+C+C+C+C+C+C+C+C+C+C+X+Y+u -+| h S+; ; @ ! F 6+}.b.i.;+7+I+b.6+y   ",
"        r+f Z+`+ @x+.@C+C+C+C+C+C+C+C+C+C+C+C+C+C+C++@/ < f 6+o C B H h K e b.b.s+:+@@G+#@&._+  ",
"        ,+t $@%@&@*@*@*@=@=@=@=@=@=@=@-@-@-@-@-@-@-@;@i < d }.}.R._ >@{ ^ j.7 6 z 7+g+#@w.o T+  ",
"        ,@a '@)@!@~@~@~@~@~@~@~@{@{@{@{@{@{@{@]@]@]@^@R 5 '+/@b.b.f+N j.[ 4 7 a >+I+G+#@&.+ ,@  ",
"        (@v _@:@<@[@[@[@[@}@}@}@}@}@}@}@|@|@|@1@1@1@2@3@8 N s+i.i._+y 5 7 9 c s o G+#@T+y '+    ",
"        4@d 5@6@7@8@8@8@8@8@8@8@9@9@9@9@9@9@9@0@0@0@0@a@b@e y w.w.;+A 0 c L v 1 z #@T+@@-+,@    ",
"        c@P d@e@f@g@g@g@g@h@h@h@h@h@h@h@i@i@i@i@i@i@i@j@k@c N @@7+/@1 u w 1 2 A Q T+T+z :+      ",
"        l@r m@n@o@o@o@o@o@o@o@o@o@o@o@o@o@o@o@o@o@o@o@o@p@q@v g+g+z . + -+A x >+'+g+i.J         ",
"        c@r@s@t@o@o@o@o@o@o@o@o@o@o@o@o@o@o@o@o@o@o@o@o@o@u@v@w@b.'+x x x >+'+n n '+x@          ",
"          y@z@z@z@z@z@z@z@z@z@z@z@z@z@z@z@z@z@z@z@z@z@z@z@z@A@B@C@-+O + o ' . A D@E@            ",
"                                                                    4@G+w.I+F@                  ",
"                                                                      ' A . G@                  ",
"                                                                G@;+S c w w 6+b.G@              ",
"                                                        A A x >+z I ) 5+5+5+5+& z >+x x '       ",
"                                                        K { < 5 @@f+f+f+f+f+f+f+@@5 R i |       ",
"                                                          ,+H@H@H@_+/@/@/@/@/@_+H@H@H@,+,+      ",
"                                                                                                ",
"                                                                                                "};
