/* XPM */
static const char * web_tms_disconn_48_xpm[] = {
"48 48 330 2",
"  	c None",
". 	c #444444",
"+ 	c #454545",
"@ 	c #CE5B00",
"# 	c #CE5C00",
"$ 	c #D16A17",
"% 	c #D26E1E",
"& 	c #D26D1B",
"* 	c #D06712",
"= 	c #CF6209",
"- 	c #D16A16",
"; 	c #CF5F05",
"> 	c #D26E1D",
", 	c #D78441",
"' 	c #D78644",
") 	c #D37528",
"! 	c #CE5D01",
"~ 	c #E7CFBA",
"{ 	c #EEEEEC",
"] 	c #ECE4DC",
"^ 	c #E1B48E",
"/ 	c #DDA271",
"( 	c #EBE2D9",
"_ 	c #D4762B",
": 	c #CF6108",
"< 	c #E3BC9B",
"[ 	c #EADED2",
"} 	c #D7833F",
"| 	c #CD5C01",
"1 	c #E6CBB3",
"2 	c #D4772B",
"3 	c #E0AE84",
"4 	c #E9D8C9",
"5 	c #E5C6AB",
"6 	c #EBE1D7",
"7 	c #DB965E",
"8 	c #AD5611",
"9 	c #E3BD9C",
"0 	c #E8D2BF",
"a 	c #ECE7E0",
"b 	c #EDEBE7",
"c 	c #D0630C",
"d 	c #DC9D6A",
"e 	c #EEEDEA",
"f 	c #EDE8E3",
"g 	c #EBDFD4",
"h 	c #E2B793",
"i 	c #D98D4F",
"j 	c #D78543",
"k 	c #B76727",
"l 	c #E5C4A8",
"m 	c #D88948",
"n 	c #EBE1D8",
"o 	c #ECE5DD",
"p 	c #656565",
"q 	c #BD6E2E",
"r 	c #DEA779",
"s 	c #ECE7E1",
"t 	c #E1B58F",
"u 	c #EDE8E2",
"v 	c #E0AE85",
"w 	c #E3BA98",
"x 	c #E4C2A6",
"y 	c #D67F39",
"z 	c #464646",
"A 	c #9B9B9B",
"B 	c #B16222",
"C 	c #DEA475",
"D 	c #E5C5AA",
"E 	c #EDEBE6",
"F 	c #D88B4C",
"G 	c #D4772C",
"H 	c #E9D7C7",
"I 	c #E7CCB5",
"J 	c #D37122",
"K 	c #757575",
"L 	c #838383",
"M 	c #B06121",
"N 	c #DDA16F",
"O 	c #D16813",
"P 	c #ECE4DB",
"Q 	c #D78745",
"R 	c #474747",
"S 	c #9A9A9A",
"T 	c #6C6C6C",
"U 	c #E6CAB2",
"V 	c #E3BB9A",
"W 	c #CF6006",
"X 	c #DB9860",
"Y 	c #E5C5A9",
"Z 	c #545454",
"` 	c #878787",
" .	c #696969",
"..	c #AF6121",
"+.	c #CF620A",
"@.	c #7C7C7C",
"#.	c #777777",
"$.	c #B26424",
"%.	c #E2B996",
"&.	c #414141",
"*.	c #8B8B8B",
"=.	c #737373",
"-.	c #A2A2A2",
";.	c #C77939",
">.	c #EDEAE6",
",.	c #E6CBB4",
"'.	c #E1B28C",
").	c #8A8A8A",
"!.	c #828282",
"~.	c #B0B0B0",
"{.	c #C57737",
"].	c #E7CFB9",
"^.	c #D26C1A",
"/.	c #959595",
"(.	c #6E6E6E",
"_.	c #7F7F7F",
":.	c #BE6F30",
"<.	c #D37427",
"[.	c #D6813B",
"}.	c #D4792F",
"|.	c #D37223",
"1.	c #D57D36",
"2.	c #D37326",
"3.	c #DA9156",
"4.	c #DDA06E",
"5.	c #DB955D",
"6.	c #D67F38",
"7.	c #ACACAC",
"8.	c #727272",
"9.	c #B36425",
"0.	c #A0A0A0",
"a.	c #9F9F9F",
"b.	c #A4A4A4",
"c.	c #8B837E",
"d.	c #968B82",
"e.	c #867C73",
"f.	c #796E65",
"g.	c #8F847B",
"h.	c #A89D95",
"i.	c #BBB0A8",
"j.	c #BAAFA7",
"k.	c #B8AEA5",
"l.	c #B6ACA3",
"m.	c #B4A9A0",
"n.	c #B0A59D",
"o.	c #7C7168",
"p.	c #6E635B",
"q.	c #6D625A",
"r.	c #6B6158",
"s.	c #6A6057",
"t.	c #695E55",
"u.	c #685D54",
"v.	c #665B52",
"w.	c #645951",
"x.	c #62574F",
"y.	c #635850",
"z.	c #786D65",
"A.	c #897E76",
"B.	c #4F433A",
"C.	c #939393",
"D.	c #9D9D9D",
"E.	c #A3A3A3",
"F.	c #686868",
"G.	c #666666",
"H.	c #676767",
"I.	c #797979",
"J.	c #B2B2B2",
"K.	c #B1B1B1",
"L.	c #AEAEAE",
"M.	c #ABABAB",
"N.	c #A8A8A8",
"O.	c #9E9E9E",
"P.	c #6D6D6D",
"Q.	c #747474",
"R.	c #5D5D5D",
"S.	c #5B5B5B",
"T.	c #5A5A5A",
"U.	c #585858",
"V.	c #575757",
"W.	c #565656",
"X.	c #5E5E5E",
"Y.	c #717171",
"Z.	c #808080",
"`.	c #3E3E3E",
" +	c #7A7A7A",
".+	c #8C8C8C",
"++	c #646464",
"@+	c #A9A9A9",
"#+	c #A5A5A5",
"$+	c #969696",
"%+	c #929292",
"&+	c #5C5C5C",
"*+	c #595959",
"=+	c #3F3F3F",
"-+	c #525252",
";+	c #989898",
">+	c #767676",
",+	c #626262",
"'+	c #636363",
")+	c #7E7E7E",
"!+	c #9C9C9C",
"~+	c #A1A1A1",
"{+	c #999999",
"]+	c #919191",
"^+	c #8D8D8D",
"/+	c #787878",
"(+	c #424242",
"_+	c #909090",
":+	c #707070",
"<+	c #606060",
"[+	c #616161",
"}+	c #888888",
"|+	c #555555",
"1+	c #858585",
"2+	c #5F5F5F",
"3+	c #949494",
"4+	c #868686",
"5+	c #898989",
"6+	c #8E8E8E",
"7+	c #848484",
"8+	c #818181",
"9+	c #7D7D7D",
"0+	c #6F6F6F",
"a+	c #7B7B7B",
"b+	c #3D3D3D",
"c+	c #6B6B6B",
"d+	c #746767",
"e+	c #8E3232",
"f+	c #A11212",
"g+	c #A31414",
"h+	c #A01010",
"i+	c #9D0A0A",
"j+	c #A70505",
"k+	c #A80303",
"l+	c #A80000",
"m+	c #9A2323",
"n+	c #C83A3A",
"o+	c #DB5555",
"p+	c #DA5050",
"q+	c #DA5252",
"r+	c #D44F4F",
"s+	c #AB0A0A",
"t+	c #404040",
"u+	c #A81313",
"v+	c #DB4C4C",
"w+	c #CC0000",
"x+	c #D94141",
"y+	c #D63333",
"z+	c #D21F1F",
"A+	c #DD5353",
"B+	c #CD0606",
"C+	c #D42A2A",
"D+	c #C23030",
"E+	c #3C3C3C",
"F+	c #AF1818",
"G+	c #D94040",
"H+	c #D21E1E",
"I+	c #FFFFFF",
"J+	c #FFFEFE",
"K+	c #E16969",
"L+	c #D42828",
"M+	c #FAE7E7",
"N+	c #E37272",
"O+	c #D21D1D",
"P+	c #C73838",
"Q+	c #6A6A6A",
"R+	c #4A4A4A",
"S+	c #B11717",
"T+	c #CF0F0F",
"U+	c #F9DFDF",
"V+	c #FEFCFC",
"W+	c #D83D3D",
"X+	c #494949",
"Y+	c #AC1A1A",
"Z+	c #D22020",
"`+	c #F9E0E0",
" @	c #FFFDFD",
".@	c #DE5B5B",
"+@	c #AC1D1D",
"@@	c #E68181",
"#@	c #DE5C5C",
"$@	c #4E4E4E",
"%@	c #4B4B4B",
"&@	c #515151",
"*@	c #C1C1C1",
"=@	c #D0D0D0",
"-@	c #E1E1E1",
";@	c #E5E5E5",
">@	c #B22222",
",@	c #D32121",
"'@	c #F9E1E1",
")@	c #DF5D5D",
"!@	c #C8C8C8",
"~@	c #C2C2C2",
"{@	c #BBBBBB",
"]@	c #B4B4B4",
"^@	c #AE1F1F",
"/@	c #DA4444",
"(@	c #ECA0A0",
"_@	c #979797",
":@	c #535353",
"<@	c #AC1C1C",
"[@	c #4C4C4C",
"}@	c #AD1D1D",
"|@	c #E37474",
"1@	c #F9E2E2",
"2@	c #DF6060",
"3@	c #D32222",
"4@	c #FAE5E5",
"5@	c #D32323",
"6@	c #F9E3E3",
"7@	c #DC4E4E",
"8@	c #FEF9F9",
"9@	c #DF6161",
"0@	c #E26E6E",
"a@	c #AB0E0E",
"b@	c #CC0101",
"c@	c #D63232",
"d@	c #CF1111",
"e@	c #DB4949",
"f@	c #D52E2E",
"g@	c #C12F2F",
"h@	c #C73535",
"i@	c #DA5656",
"j@	c #DA5353",
"k@	c #DA5454",
"l@	c #D24A4A",
"m@	c #AA0909",
"n@	c #A90000",
"o@	c #A70000",
"                                                                                                ",
"                                          . + . + . .                                           ",
"                        @ # # # # # # # # # # # # # # # # # # # # # # # # # # # # # # # # #     ",
"                        @ # # $ % % % % % % % & # * % % = # # - % % ; # # # > , ' ) ! # # #     ",
"                        @ # # ~ { { { { { { { ] # ^ { { / # ! ( { { _ # : < { { { { [ } # #     ",
"                        | # # ~ { { { { { { { ] # ^ { { 1 # 2 { { { _ # 3 { { 4 5 6 { 7 # #     ",
"                        8 # # # # # 9 { 0 # # # # ^ { a b c d e f { _ # g { h # # ! i j # #     ",
"                      + k # # # # # 9 { 0 # # # # ^ { l { m l 0 n { _ ! o { 3 # # # # # # #     ",
"                      p q # # # # # 9 { 0 # # # # ^ { r s t u v n { _ # w { { x y # # # # #     ",
"                    z A B # # # # # 9 { 0 # # # # ^ { C D E { F n { _ # G H { { { I J # # #     ",
"                    K L M # # # # # 9 { 0 # # # # ^ { C N { { O n { _ # # ; d P { { f Q # #     ",
"                  R S T M # # # # # 9 { 0 # # # # ^ { C G U V # n { _ # # # # W X a { Y # #     ",
"                  Z `  ...# # # # # 9 { 0 # # # # ^ { C # # # # n { _ # # # # # # r { E +.#     ",
"                  @.#. .$.# # # # # 9 { 0 # # # # ^ { C # # # # n { _ # h % # # # %.{ E ; #     ",
"                &.*.=.-.;.# # # # # 9 { 0 # # # # ^ { C # # # # n { _ # E >.,.'.,.e { 5 # #     ",
"                + ).!.~.{.# # # # # 9 { 0 # # # # ^ { C # # # # n { _ # ].{ { { { { 0 ^.# #     ",
"                . /.(._.:.# # # # # <.[.}.# # # # |.[.> # # # # 1.[.+.# # 2.3.4.5.6.# # # #     ",
"                . 7.` 8.9.# # # # # # # # # # # # # # # # # # # # # # # # # # # # # # # # #     ",
"                . 0.a.b.c.d.e.f.g.h.i.i.j.k.l.m.n.o.p.q.r.s.t.u.v.w.x.y.x.z.A.B.                ",
"                &.C.D.a.E.a.F.G.H.I.b.J.K.~.L.M.N.O.P.Q.I.F.R.S.T.U.V.W.X.Y.Z.`.                ",
"                   +O.S O..+++p p G.P.E.M.@+N.#+-.a.A $+%+_.&+T.*+V.W.V.T Y.K =+                ",
"                  -+-./.;+>+,+'+'+++++G.)+!+~+a.!+{+/.]+^+!.&+*+U.W.W.'+Y./+R.                  ",
"                  (+!+_+C.:+<+[+[+,+,+,+,+:+A {+$+C._+.+}+L R.U.W.W.|+F.:+)++                   ",
"                    T /.^+1+2+2+<+<+<+<+<+L 3+%+_+^+).4+L )+++W.W.|+|+H.=.:+`.                  ",
"                    (+C.}+5+K R.X.X.X.X.X.^+6+.+).` 7+8+9+I.&+W.|+|+|+H.9++                     ",
"                      S.C.L 1+0+&+&+&+&+X.` ` 4+7+8+)+a+/+Q.S.|+|+|+ ./+G.b+                    ",
"                      =+:+)._.8.T.T.T.,+/+!.8+_.9+a+/+K Q.=.'+|+|+W.:+=.=+                      ",
"                        =+a+4+8.U.U.*+c+@.@. +I.#.K Q.=.8.8.c+|+|+'+I.&.                        ",
"                          =+(.Z.V.V.V.Y.>+K Q.Q.=.=.8.8.Y.Y.0+V.F.Y.&.                          ",
"                            `.S.Y.,+(.=.=.=.=.8.8.8.Y.Y.d+e+f+g+h+i+j+k+k+k+k+k+k+k+k+l+        ",
"                                &.p 7+)+>+8.Y.Y.Y.:+:+Y.m+n+o+p+p+p+p+p+p+p+p+p+p+p+q+r+s+      ",
"                                    t+Z :+@.8+8+_.Z.@.Y.u+v+w+x+y+w+w+w+w+w+w+w+z+A+B+C+D+      ",
"                                        E+&.z R R z t+=+F+G+H+I+J+K+w+w+w+w+w+L+M+I+N+O+P+      ",
"                                          R '+Q+8.I.R+  S+G+T+U+I+J+K+w+w+w+L+M+I+V+W+O+P+      ",
"                                      X+X+X+a.!. + +R+X+Y+G+w+Z+`+I+J+K+w+L+M+I+ @.@w+O+P+      ",
"                                  X+[+T T P.L @. + +(.T +@G+w+w+Z+`+I+J+@@M+I+ @#@w+w+O+P+      ",
"                      $@R+R+%@%@%@&@*@=@-@;@;@;@;@;@;@;@>@G+w+w+w+,@'@I+I+I+ @)@w+w+w+O+P+      ",
"                        !@~@{@]@L.R.)..+.+.+.+.+.+.+.+.+^@G+w+w+w+w+/@V+I+I+(@w+w+w+w+O+P+      ",
"                        !+_@_+*.` :@H.F.F.F.F.F.F.F.F.F.<@G+w+w+w+L+M+I+I+I+J+K+w+w+w+O+P+      ",
"                      [@R+R+%@[@%@R+T /+/+/+/+/+/+/+/+/+}@G+w+w+L+M+I+ @|@1@I+J+K+w+w+O+P+      ",
"                                    %@%@%@%@%@%@%@%@%@%@Y+G+w+L+M+I+ @2@w+3@1@I+J+K+w+O+P+      ",
"                                                        S+G+B+4@I+ @2@w+w+w+5@6@I+J+7@O+P+      ",
"                                                        S+G+O+8@ @9@w+w+w+w+w+5@6@I+0@O+P+      ",
"                                                        a@7@b@c@y+w+w+w+w+w+w+w+d@e@b@f@g@      ",
"                                                        l+h@i@j@j@j@j@j@j@j@j@j@j@j@k@l@m@      ",
"                                                            n@l+l+l+l+l+l+l+l+l+l+l+l+o@        ",
"                                                                                                ",
"                                                                                                "};
