/* XPM */
static const char * web_conn_create_xpm[] = {
"16 16 75 1",
" 	c None",
".	c #D87724",
"+	c #D57421",
"@	c #808080",
"#	c #A8642D",
"$	c #DE8F41",
"%	c #E8AF6A",
"&	c #E9AC67",
"*	c #DE8D3E",
"=	c #858585",
"-	c #ACACAC",
";	c #8C8C8C",
">	c #A79A90",
",	c #C27531",
"'	c #E2A24F",
")	c #E9B563",
"!	c #E29F4B",
"~	c #D36F15",
"{	c #7A7A7A",
"]	c #848484",
"^	c #AEAEAE",
"/	c #D3D3D3",
"(	c #B6ABA2",
"_	c #B86D29",
":	c #DB9132",
"<	c #E2A23F",
"[	c #DD912F",
"}	c #D2690D",
"|	c #7C7C7C",
"1	c #9C9C9C",
"2	c #DEDEDE",
"3	c #D4D4D4",
"4	c #A0A0A0",
"5	c #9B7655",
"6	c #D27717",
"7	c #D68824",
"8	c #DA8821",
"9	c #D67614",
"0	c #8F8F8F",
"a	c #BDBDBD",
"b	c #C7C7C7",
"c	c #C2C2C2",
"d	c #787878",
"e	c #78614E",
"f	c #7A604A",
"g	c #B46B2B",
"h	c #C16717",
"i	c #939393",
"j	c #737373",
"k	c #8A8A8A",
"l	c #AAAAAA",
"m	c #6E6E6E",
"n	c #585858",
"o	c #726961",
"p	c #606060",
"q	c #8B8B8B",
"r	c #707070",
"s	c #575757",
"t	c #676767",
"u	c #717171",
"v	c #616161",
"w	c #747474",
"x	c #6C6C6C",
"y	c #636363",
"z	c #646464",
"A	c #686868",
"B	c #5D5D5D",
"C	c #838383",
"D	c #5A5A5A",
"E	c #8D8D8D",
"F	c #959595",
"G	c #A3A3A3",
"H	c #909090",
"I	c #7B7B7B",
"J	c #5F5F5F",
"                ",
"           .+   ",
"       @@#$%&*  ",
"     =-;>,'))!~ ",
"    {]^/(_:<<[} ",
"    |123456789  ",
"    0abcdefgh   ",
"    ijkl0mno    ",
"    {mp=qrst    ",
"     uv{wxy     ",
"      zAty      ",
"      BCmD      ",
"    EjFGGHIE    ",
"      vzzJ      ",
"                ",
"                "};
