/* XPM */
static const char * web_tms_conn_16_xpm[] = {
"16 16 109 2",
"  	c None",
". 	c #CE5C00",
"+ 	c #CF5E04",
"@ 	c #CE6107",
"# 	c #CD6108",
"$ 	c #CD6008",
"% 	c #CC5E05",
"& 	c #CD5E06",
"* 	c #CE5D00",
"= 	c #CF6107",
"- 	c #D0640C",
"; 	c #CE5D01",
"> 	c #CF5C00",
", 	c #DEA576",
"' 	c #EBDFD4",
") 	c #ECE7E0",
"! 	c #E7D0BB",
"~ 	c #DEA373",
"{ 	c #E9D7C7",
"] 	c #D6813B",
"^ 	c #EEEEEC",
"/ 	c #D06712",
"( 	c #E5C6AB",
"_ 	c #E7CCB5",
": 	c #E4C1A3",
"< 	c #C25F10",
"[ 	c #D98E51",
"} 	c #E3BC9B",
"| 	c #EADCCE",
"1 	c #E2B895",
"2 	c #D37528",
"3 	c #D26D1C",
"4 	c #BE631B",
"5 	c #E2B996",
"6 	c #E9D9CB",
"7 	c #DC9E6A",
"8 	c #EBE2D9",
"9 	c #DFA87A",
"0 	c #7D7D7D",
"a 	c #B95F17",
"b 	c #DB9860",
"c 	c #D26F1F",
"d 	c #D16B19",
"e 	c #D0640D",
"f 	c #EDE8E3",
"g 	c #CF6006",
"h 	c #787878",
"i 	c #C46B23",
"j 	c #DA955C",
"k 	c #D4772C",
"l 	c #EADACC",
"m 	c #E7CFB9",
"n 	c #7E7E7E",
"o 	c #AA7850",
"p 	c #C1814D",
"q 	c #C78753",
"r 	c #C88854",
"s 	c #C58551",
"t 	c #A96935",
"u 	c #9F5F2B",
"v 	c #9E5D29",
"w 	c #9C5B27",
"x 	c #9D5D29",
"y 	c #A35F29",
"z 	c #CD5C00",
"A 	c #808080",
"B 	c #9C9C9C",
"C 	c #6A6A6A",
"D 	c #797979",
"E 	c #ACACAC",
"F 	c #ABABAB",
"G 	c #959595",
"H 	c #5F5F5F",
"I 	c #585858",
"J 	c #5E5E5E",
"K 	c #636363",
"L 	c #717171",
"M 	c #8F8F8F",
"N 	c #616161",
"O 	c #626262",
"P 	c #686868",
"Q 	c #989898",
"R 	c #939393",
"S 	c #8A8A8A",
"T 	c #565656",
"U 	c #6B6B6B",
"V 	c #7F7F7F",
"W 	c #737373",
"X 	c #5D5D5D",
"Y 	c #676767",
"Z 	c #848484",
"` 	c #7B7B7B",
" .	c #575757",
"..	c #696969",
"+.	c #747474",
"@.	c #757575",
"#.	c #727272",
"$.	c #646464",
"%.	c #656565",
"&.	c #767676",
"*.	c #707070",
"=.	c #5C5C5C",
"-.	c #9B9B9B",
";.	c #949494",
">.	c #515151",
",.	c #9E9E9E",
"'.	c #929292",
").	c #A7A7A7",
"!.	c #5A5A5A",
"    . + @ # $ % & * = . . - ; . ",
"    > , ' ) ! ~ { ] ^ / ( _ : . ",
"    < . [ } . ~ | 1 | 2 ' 3 = . ",
"    4 . [ } . ~ 5 6 _ / 7 8 9 . ",
"  0 a . [ } . ~ b c _ d = e f g ",
"  h i . [ } . ~ j . _ k l m 1 . ",
"  n o p q r s t u v w x y z z z ",
"  A B C D E F G A H I J K       ",
"  L M N O P Q R S K T U J       ",
"    V W X Y S Z ` H  ...        ",
"      +.I @.D +.#.$.%.          ",
"        K +.&.&.*.K             ",
"            X =.                ",
"        T 0 -.;.n >.            ",
"    ,.'...$.$.$.$.L '.).        ",
"          =.=.=.!.              "};
