/* XPM */
static const char * wrn_16_xpm[] = {
/* columns rows colors chars-per-pixel */
"9 9 67 1",
"  c #333333",
". c #514F2C",
"X c #8F8A1B",
"o c #A29C1B",
"O c #B9B10F",
"+ c #AAA416",
"@ c #ADA717",
"# c #BCB510",
"$ c #A6A024",
"% c #B1AC3F",
"& c #C1A815",
"* c #C6AE19",
"= c #C7AE1A",
"- c #C6B316",
"; c #C7B614",
": c #C9B516",
"> c #C6BE12",
", c #C6B319",
"< c #CEB61E",
"1 c #CEBB1C",
"2 c #D0BD18",
"3 c #CCC20E",
"4 c #D1C80B",
"5 c #D6CD0D",
"6 c #D8CF0D",
"7 c #D9D10E",
"8 c #CEC517",
"9 c #D0C710",
"0 c #D3CB11",
"q c #DDD413",
"w c #D8C025",
"e c #D9C931",
"r c #DFCD35",
"t c #E1C927",
"y c #E0CB2E",
"u c #E2CA2E",
"i c #E3DA24",
"p c #E2CA31",
"a c #E3D137",
"s c #E7D537",
"d c #E6DE35",
"f c #E6D63E",
"g c #EBD739",
"h c #ADA841",
"j c #B2AC43",
"k c #B6B041",
"l c #B5B042",
"z c #BAB341",
"x c #E4DD41",
"c c #E3DB45",
"v c #EFDE43",
"b c #E8E046",
"n c #E9E246",
"m c #EBE348",
"M c #EDE549",
"N c #EEE64F",
"B c #EFE84E",
"V c #F2E446",
"C c #F0E846",
"Z c #F2EA46",
"A c #F3EB49",
"S c #F5EC49",
"D c #F7EF4A",
"F c #F9F047",
"G c #FAF146",
"H c #FEF54B",
"J c None",
/* pixels */
"JJpvVvuJJ",
"JgHnkcFaJ",
"tGGz %AMw",
"sSAj %MMr",
"fBNj $ixe",
"rnd8o>552",
"<77@.+35=",
"J20OXO3,J",
"JJ=::-&JJ"
};
