/* XPM */
static const char * wrn_48_xpm[] = {
/* columns rows colors chars-per-pixel */
"16 16 173 2",
"   c #333333",
".  c #86811E",
"X  c #88831E",
"o  c #8D881D",
"O  c #8F8A1E",
"+  c #BC9A0C",
"@  c #BE9C0C",
"#  c #BE9F11",
"$  c #BFA013",
"%  c #B5AD10",
"&  c #B6AF11",
"*  c #B2AB17",
"=  c #BEB61A",
"-  c #888321",
";  c #888421",
":  c #898521",
">  c #8C882A",
",  c #918D3C",
"<  c #938F3C",
"1  c #908C3E",
"2  c #95903D",
"3  c #A5A03E",
"4  c #A6A23F",
"5  c #A9A43F",
"6  c #C09E0E",
"7  c #C0B90D",
"8  c #C5BD0E",
"9  c #C8BF0B",
"0  c #C4A010",
"q  c #C2A513",
"w  c #C2A516",
"e  c #C8A614",
"r  c #CCAB13",
"t  c #CAA916",
"y  c #C9AA17",
"u  c #CEAC14",
"i  c #CEAD15",
"p  c #C6AC1E",
"a  c #C6AE1E",
"s  c #C7AE1E",
"d  c #C8A919",
"f  c #CDB01C",
"g  c #CAB71F",
"h  c #D2B51F",
"j  c #D3B51F",
"k  c #C8AC20",
"l  c #CCB023",
"z  c #CFBB22",
"x  c #D0B722",
"c  c #D2B524",
"v  c #D1B625",
"b  c #D3BA27",
"n  c #D6BA25",
"m  c #D4B92B",
"M  c #D8BE2B",
"N  c #C8C009",
"B  c #C9C109",
"V  c #CAC20A",
"C  c #CCC40A",
"Z  c #CDC50A",
"A  c #CEC60B",
"S  c #CFC60B",
"D  c #CCC30C",
"F  c #D0C80B",
"G  c #D1C90B",
"H  c #D2CA0C",
"J  c #D3CA0C",
"K  c #D4CB0C",
"L  c #D4CC0C",
"P  c #D5CD0C",
"I  c #D6CD0D",
"U  c #D7CE0D",
"Y  c #D6CD0F",
"T  c #D8CF0D",
"R  c #D8D00D",
"E  c #D9D00D",
"W  c #D9D10E",
"Q  c #DAD10E",
"!  c #DBD20E",
"~  c #DCD30E",
"^  c #DDD30E",
"/  c #DED40F",
"(  c #DFD50F",
")  c #CAC115",
"_  c #CDC11A",
"`  c #CFC31B",
"'  c #D0C717",
"]  c #D5CC19",
"[  c #D6CA1E",
"{  c #DED511",
"}  c #DDD517",
"|  c #DACE20",
" . c #D8C528",
".. c #DAC42E",
"X. c #D9C334",
"o. c #E3DA23",
"O. c #E5DC22",
"+. c #E2DA25",
"@. c #E4DB25",
"#. c #E1CA3C",
"$. c #E1D933",
"%. c #E6DD35",
"&. c #E1D03A",
"*. c #EBD73B",
"=. c #E7DF39",
"-. c #A09B41",
";. c #A39E40",
":. c #A29D42",
">. c #E7D244",
",. c #E7D445",
"<. c #E3DB46",
"1. c #EBDA45",
"2. c #EEDD48",
"3. c #EBE440",
"4. c #E8E144",
"5. c #EDE546",
"6. c #EEE646",
"7. c #EFE746",
"8. c #EEE647",
"9. c #EFE747",
"0. c #E7E04D",
"q. c #EAE349",
"w. c #EBE349",
"e. c #ECE44A",
"r. c #EDE54A",
"t. c #E8E14D",
"y. c #EAE34F",
"u. c #EFE74D",
"i. c #ECE54F",
"p. c #F1E645",
"a. c #F0E845",
"s. c #F1E945",
"d. c #F2EA46",
"f. c #F4EB46",
"g. c #F5EC45",
"h. c #F4EC46",
"j. c #F5ED47",
"k. c #F6EE47",
"l. c #F7EE47",
"z. c #F7EF47",
"x. c #F8EF44",
"c. c #FAEE47",
"v. c #F1E949",
"b. c #F2EA4A",
"n. c #F3EB4A",
"m. c #F4EB49",
"M. c #F0E84D",
"N. c #F1EA4D",
"B. c #F2EA4D",
"V. c #F4EA4D",
"C. c #F8EF48",
"Z. c #F8F047",
"A. c #F9F147",
"S. c #FAF147",
"D. c #FAF248",
"F. c #FCF348",
"G. c #FCF14B",
"H. c #FDF448",
"J. c #FDF549",
"K. c #FEF549",
"L. c #FFF649",
"P. c #FDF54A",
"I. c #FFF64B",
"U. c #EBE453",
"Y. c #ECE450",
"T. c #EDE550",
"R. c #EDE750",
"E. c #EEE750",
"W. c #ECE553",
"Q. c #F0E850",
"!. c #FDF453",
"~. c #FFF754",
"^. c None",
/* pixels */
"^.^.^.^.^.j #.,.,.#.h ^.^.^.^.^.",
"^.^.^.i w.~.H.H.H.I.!.1.r ^.^.^.",
"^.^.n G.H.H.c.7.r.k.S.c.V.c ^.^.",
"^.i c.H.D.S.5     2 k.k.k.p.e ^.",
"^.*.S.S.S.k.4     2 d.d.d.7.X.^.",
"f c.k.k.k.k.3     , 7.7.7.5.3.i ",
"M g.d.N.N.N.3     1 r.e.q.5.q.b ",
"..N.B.B.r.r.:.    > o.=.0.0.0.b ",
"X.Q.E.i.Y.Y.:.    ; ( ( } $.<.x ",
"m Y.Y.U.y.%.= : ; * R R R T U l ",
"y @.o.+.{ / R R R R U P K J ] q ",
"^. ./ ~ R R O     . H H J S z ^.",
"^.0 | R U H o     . Z C V ` @ ^.",
"^.^.d [ H H 8 % % = V 9 _ q ^.^.",
"^.^.^.6 z ' C B B N ) z + ^.^.^.",
"^.^.^.^.^.$ s a a y # ^.^.^.^.^."
};
