/* XPM */
static const char * wxgiscatalog64_xpm[] = {
"64 64 474 2",
"  	c None",
". 	c #44442A",
"+ 	c #444429",
"@ 	c #444329",
"# 	c #454329",
"$ 	c #8E7C51",
"% 	c #F6EAD8",
"& 	c #F7ECDB",
"* 	c #F7ECDA",
"= 	c #F7EBDA",
"- 	c #F6EBD9",
"; 	c #F6EAD7",
"> 	c #F6EAD6",
", 	c #F6E9D6",
"' 	c #F5E9D5",
") 	c #F5E8D4",
"! 	c #F5E8D3",
"~ 	c #F5E8D2",
"{ 	c #F5E7D1",
"] 	c #F4E6D0",
"^ 	c #F4E6CF",
"/ 	c #F4E5CE",
"( 	c #F4E5CD",
"_ 	c #F4E4CC",
": 	c #F3E4CB",
"< 	c #F3E3CB",
"[ 	c #F3E3CA",
"} 	c #F3E3C9",
"| 	c #F3E2C8",
"1 	c #F2E2C7",
"2 	c #F2E1C7",
"3 	c #F0DEC1",
"4 	c #806F46",
"5 	c #444428",
"6 	c #8D7B51",
"7 	c #FCF7EF",
"8 	c #FEFBF6",
"9 	c #FBF2E4",
"0 	c #FBF1E3",
"a 	c #FBF1E2",
"b 	c #FAF1E1",
"c 	c #FAF0E1",
"d 	c #FAF0E0",
"e 	c #FAF0DF",
"f 	c #FAEFDF",
"g 	c #FAEFDE",
"h 	c #FAEFDD",
"i 	c #FAEEDD",
"j 	c #FAEEDC",
"k 	c #FAEEDB",
"l 	c #F9EDDA",
"m 	c #F9EDD9",
"n 	c #F9ECD8",
"o 	c #F9ECD7",
"p 	c #F9EBD7",
"q 	c #F9EBD6",
"r 	c #F9EBD5",
"s 	c #F8EAD4",
"t 	c #F8EAD3",
"u 	c #F7EAD5",
"v 	c #817046",
"w 	c #43432A",
"x 	c #8C7A51",
"y 	c #FCF7EE",
"z 	c #FDFAF4",
"A 	c #EECA92",
"B 	c #E9B96E",
"C 	c #EEC78C",
"D 	c #F7E9D2",
"E 	c #827046",
"F 	c #45432A",
"G 	c #8C7A50",
"H 	c #FDF9F3",
"I 	c #EECA91",
"J 	c #EDC78B",
"K 	c #F6E8D1",
"L 	c #847147",
"M 	c #444229",
"N 	c #8B7A50",
"O 	c #FCF6ED",
"P 	c #FDF9F2",
"Q 	c #EEC990",
"R 	c #EDC68A",
"S 	c #F9ECD9",
"T 	c #F6E7D0",
"U 	c #847246",
"V 	c #8B7950",
"W 	c #EEC98F",
"X 	c #EDC689",
"Y 	c #F6E6CE",
"Z 	c #857247",
"` 	c #454328",
" .	c #F4E8D4",
"..	c #FCF8F0",
"+.	c #EDC78C",
"@.	c #E8B76B",
"#.	c #ECC485",
"$.	c #F8E9D3",
"%.	c #ECD6B3",
"&.	c #F1E3CE",
"*.	c #EEDCBF",
"=.	c #C17D11",
"-.	c #E4C799",
";.	c #E4CBA4",
">.	c #F0E2CD",
",.	c #EEDBBE",
"'.	c #E4C798",
").	c #E3CAA2",
"!.	c #EFE1CA",
"~.	c #EDDABC",
"{.	c #E4C595",
"].	c #E3C9A0",
"^.	c #EFE0C9",
"/.	c #EDD9B9",
"(.	c #E3C594",
"_.	c #E2C89E",
":.	c #EEDFC7",
"<.	c #ECD8B8",
"[.	c #BA7810",
"}.	c #98630E",
"|.	c #8A5B10",
"1.	c #8B5C11",
"2.	c #9E6812",
"3.	c #BE7B11",
"4.	c #E3C392",
"5.	c #E2C79C",
"6.	c #EEDEC5",
"7.	c #ECD7B6",
"8.	c #8E5D10",
"9.	c #7B500B",
"0.	c #906609",
"a.	c #936A09",
"b.	c #8B610A",
"c.	c #A06E20",
"d.	c #E2C290",
"e.	c #E1C69A",
"f.	c #EDDDC3",
"g.	c #ECD6B4",
"h.	c #BB7910",
"i.	c #AC8407",
"j.	c #FFDC00",
"k.	c #976E09",
"l.	c #855A13",
"m.	c #C48219",
"n.	c #E2C18E",
"o.	c #E1C598",
"p.	c #EDDCC1",
"q.	c #EBD5B2",
"r.	c #B87710",
"s.	c #B99106",
"t.	c #A47B08",
"u.	c #825610",
"v.	c #CB8C28",
"w.	c #E1C18D",
"x.	c #E0C396",
"y.	c #ECDABF",
"z.	c #EBD4B1",
"A.	c #E1BF8B",
"B.	c #DFC294",
"C.	c #EBDABD",
"D.	c #EAD3AE",
"E.	c #E0BF89",
"F.	c #DFC192",
"G.	c #EBD8BB",
"H.	c #EAD2AD",
"I.	c #E0BD87",
"J.	c #DEC090",
"K.	c #EAD7B8",
"L.	c #E9D1AB",
"M.	c #DFBD85",
"N.	c #DEBF8E",
"O.	c #EAD6B7",
"P.	c #E9D0A9",
"Q.	c #DFBB83",
"R.	c #DDBE8D",
"S.	c #E9D5B4",
"T.	c #E8CFA7",
"U.	c #DEBA81",
"V.	c #DCBD8A",
"W.	c #E8D4B3",
"X.	c #E8CEA6",
"Y.	c #CAA304",
"Z.	c #A88007",
"`.	c #DEB980",
" +	c #DCBC89",
".+	c #E8D2B1",
"++	c #E7CDA3",
"@+	c #DDB803",
"#+	c #DFBA03",
"$+	c #DDB87D",
"%+	c #DBBA86",
"&+	c #E7D2AF",
"*+	c #E7CCA2",
"=+	c #CDA704",
"-+	c #965E05",
";+	c #A06402",
">+	c #945E05",
",+	c #D1AC04",
"'+	c #DDB77C",
")+	c #DBBA85",
"!+	c #E7D0AD",
"~+	c #E6CBA0",
"{+	c #9D6305",
"]+	c #AA6A02",
"^+	c #9B6205",
"/+	c #DCB67A",
"(+	c #DAB882",
"_+	c #E6CFAB",
":+	c #E6CA9E",
"<+	c #A46705",
"[+	c #B47002",
"}+	c #A26605",
"|+	c #DCB578",
"1+	c #DAB781",
"2+	c #E5CEA9",
"3+	c #E5C99C",
"4+	c #B87810",
"5+	c #B89106",
"6+	c #A37B08",
"7+	c #825710",
"8+	c #DBB476",
"9+	c #D9B67E",
"0+	c #E5CDA7",
"a+	c #E5C89A",
"b+	c #BF7C11",
"c+	c #8C630A",
"d+	c #CEA804",
"e+	c #B18A07",
"f+	c #945E07",
"g+	c #9F6405",
"h+	c #935E07",
"i+	c #B48D06",
"j+	c #C9A304",
"k+	c #83580B",
"l+	c #946721",
"m+	c #CA8A26",
"n+	c #DBB375",
"o+	c #D8B57D",
"p+	c #E4CCA5",
"q+	c #B07C2A",
"r+	c #7E530D",
"s+	c #815610",
"t+	c #C8984C",
"u+	c #C27E12",
"v+	c #DAB272",
"w+	c #D8B47A",
"x+	c #E4CBA3",
"y+	c #E4C696",
"z+	c #C27F14",
"A+	c #CD963D",
"B+	c #C39346",
"C+	c #C49347",
"D+	c #BE8D42",
"E+	c #B28238",
"F+	c #C59549",
"G+	c #D8A34E",
"H+	c #C98923",
"I+	c #DAB171",
"J+	c #D7B379",
"K+	c #E3CAA1",
"L+	c #E3C595",
"M+	c #D9B06F",
"N+	c #D7B277",
"O+	c #E3C99F",
"P+	c #E3C493",
"Q+	c #D9AF6D",
"R+	c #D6B074",
"S+	c #E2C79D",
"T+	c #E2C391",
"U+	c #B97810",
"V+	c #A96E0F",
"W+	c #A96D0F",
"X+	c #AA6E0F",
"Y+	c #BC7A11",
"Z+	c #D8AE6B",
"`+	c #D5AF73",
" @	c #E1C69B",
".@	c #E2C28F",
"+@	c #A36A0F",
"@@	c #7C510C",
"#@	c #7D530E",
"$@	c #B17517",
"%@	c #D8AD6A",
"&@	c #D5AE70",
"*@	c #E1C599",
"=@	c #7F550F",
"-@	c #6A602E",
";@	c #2A9AAC",
">@	c #279DB2",
",@	c #2E96A3",
"'@	c #74571A",
")@	c #90641D",
"!@	c #D8AC67",
"~@	c #D4AD6F",
"{@	c #E0C497",
"]@	c #E1C08C",
"^@	c #42847C",
"/@	c #00C0FF",
"(@	c #557256",
"_@	c #805612",
":@	c #C98924",
"<@	c #D7AB66",
"[@	c #D4AC6C",
"}@	c #E0C395",
"|@	c #E0BF8A",
"1@	c #42847D",
"2@	c #557357",
"3@	c #D7AA64",
"4@	c #D3AB6B",
"5@	c #E0BE88",
"6@	c #D6A962",
"7@	c #D2AA68",
"8@	c #DEC191",
"9@	c #E0BD86",
"0@	c #D6A860",
"a@	c #D2A967",
"b@	c #DFBC84",
"c@	c #D5A75E",
"d@	c #D1A765",
"e@	c #DFBB82",
"f@	c #D5A65C",
"g@	c #D1A663",
"h@	c #DDBE8C",
"i@	c #DEBA80",
"j@	c #D4A55A",
"k@	c #D0A561",
"l@	c #DEB97F",
"m@	c #04BCF6",
"n@	c #13AED9",
"o@	c #D4A459",
"p@	c #D0A45F",
"q@	c #DCBB88",
"r@	c #0AB7EB",
"s@	c #6E5C25",
"t@	c #0AB7EC",
"u@	c #D3A357",
"v@	c #CFA35D",
"w@	c #DDB77B",
"x@	c #2D97A6",
"y@	c #865608",
"z@	c #8B5807",
"A@	c #299BAE",
"B@	c #D3A255",
"C@	c #CEA25B",
"D@	c #DAB983",
"E@	c #DCB679",
"F@	c #996105",
"G@	c #A56702",
"H@	c #986005",
"I@	c #2A99AB",
"J@	c #D2A153",
"K@	c #CEA159",
"L@	c #DCB577",
"M@	c #A16505",
"N@	c #B06D02",
"O@	c #D2A051",
"P@	c #CDA057",
"Q@	c #D9B67F",
"R@	c #DBB475",
"S@	c #D19F4F",
"T@	c #CD9E55",
"U@	c #DBB374",
"V@	c #4F7862",
"W@	c #00C0FE",
"X@	c #63673C",
"Y@	c #845A16",
"Z@	c #D19E4E",
"`@	c #CC9D53",
" #	c #D8B47B",
".#	c #95671E",
"+#	c #6D5E29",
"@#	c #696130",
"##	c #80530A",
"$#	c #81540A",
"%#	c #7F530B",
"&#	c #6E5C26",
"*#	c #705B22",
"=#	c #AA7D35",
"-#	c #C6841C",
";#	c #D09D4C",
">#	c #CB9C51",
",#	c #D7B37A",
"'#	c #DAB170",
")#	c #C28523",
"!#	c #AC7E36",
"~#	c #936720",
"{#	c #875B15",
"]#	c #956922",
"^#	c #B4863E",
"/#	c #D49D45",
"(#	c #D09C4A",
"_#	c #CB9B4F",
":#	c #D9B06E",
"<#	c #C48117",
"[#	c #CF9231",
"}#	c #D09434",
"|#	c #D09334",
"1#	c #CF9B48",
"2#	c #CA9A4D",
"3#	c #D6B176",
"4#	c #CF9A46",
"5#	c #CA994B",
"6#	c #D6B073",
"7#	c #D8AE6A",
"8#	c #CE9944",
"9#	c #C99849",
"0#	c #D5AF72",
"a#	c #D5A85F",
"b#	c #D5A75D",
"c#	c #D4A65C",
"d#	c #D4A55B",
"e#	c #D4A458",
"f#	c #D3A458",
"g#	c #D3A356",
"h#	c #D3A254",
"i#	c #D2A154",
"j#	c #D2A152",
"k#	c #D1A050",
"l#	c #D19F50",
"m#	c #D19E4D",
"n#	c #D09D4B",
"o#	c #CF9A47",
"p#	c #CF9945",
"q#	c #CE9843",
"r#	c #CE9842",
"s#	c #CD9741",
"t#	c #CD9740",
"u#	c #CD963F",
"v#	c #C99748",
"w#	c #C8A568",
"x#	c #D2AF76",
"y#	c #D1AF75",
"z#	c #D1AE74",
"A#	c #D0AD73",
"B#	c #D0AD72",
"C#	c #D0AC71",
"D#	c #D0AC70",
"E#	c #CFAB6F",
"F#	c #CFAA6E",
"G#	c #CEAA6D",
"H#	c #CEA96C",
"I#	c #CEA96B",
"J#	c #CDA86A",
"K#	c #CDA769",
"L#	c #CDA768",
"M#	c #CDA667",
"N#	c #CCA666",
"O#	c #CCA564",
"P#	c #CBA464",
"Q#	c #CBA463",
"R#	c #CBA362",
"S#	c #CBA361",
"T#	c #CAA25F",
"U#	c #C9A15E",
"V#	c #C9A15D",
"W#	c #C9A05C",
"X#	c #C9A05B",
"Y#	c #C89F5A",
"Z#	c #C89E59",
"`#	c #C89E58",
" $	c #C79D57",
".$	c #C79D56",
"+$	c #C69C55",
"@$	c #C69B54",
"#$	c #C69B53",
"$$	c #C69A52",
"%$	c #C59A51",
"&$	c #C59950",
"*$	c #C4984F",
"=$	c #C4984E",
"-$	c #C4974D",
";$	c #C3964B",
">$	c #C3964A",
",$	c #BA8E42",
"                                                                                                                                ",
"                                                                                                                                ",
"                              . . . . . . . . . . . . . . . . . . . . . . . . . . . . . . . . . .                               ",
"                          + @ @ @ @ @ @ @ @ @ @ @ @ @ @ @ @ @ @ @ @ @ @ @ @ @ @ @ @ @ @ @ @ @ @ @ @ +                           ",
"                        # @ $ % & & * = - % ; ; > , ' ) ! ! ~ { { ] ] ^ / ( ( _ : < [ [ } | 1 2 3 4 @ #                         ",
"                      5 @ 6 7 8 9 9 9 0 a a b c d e f g h i j j k l l m m n o o p q q r s s t t d u v @ 5                       ",
"                    w @ x y z A B B B B B B B B B B B B B B B B B B B B B B B B B B B B B B B B C h D E @ w                     ",
"                  F @ G y H I B B B B B B B B B B B B B B B B B B B B B B B B B B B B B B B B B B J k K L @ F                   ",
"                M @ N O P Q B B B B B B B B B B B B B B B B B B B B B B B B B B B B B B B B B B B B R S T U @ M                 ",
"                @ V O P W B B B B B B B B B B B B B B B B B B B B B B B B B B B B B B B B B B B B B B X q Y Z @                 ",
"              ` @  ...+.@.@.@.@.@.@.@.@.@.@.@.@.@.@.@.@.@.@.@.@.@.@.@.@.@.@.@.@.@.@.@.@.@.@.@.@.@.@.@.@.#.$.%.@ `               ",
"              ` @ &.*.=.=.=.=.=.=.=.=.=.=.=.=.=.=.=.=.=.=.=.=.=.=.=.=.=.=.=.=.=.=.=.=.=.=.=.=.=.=.=.=.=.=.-.;.@ `               ",
"              ` @ >.,.=.=.=.=.=.=.=.=.=.=.=.=.=.=.=.=.=.=.=.=.=.=.=.=.=.=.=.=.=.=.=.=.=.=.=.=.=.=.=.=.=.=.'.).@ `               ",
"              ` @ !.~.=.=.=.=.=.=.=.=.=.=.=.=.=.=.=.=.=.=.=.=.=.=.=.=.=.=.=.=.=.=.=.=.=.=.=.=.=.=.=.=.=.=.{.].@ `               ",
"              ` @ ^./.=.=.=.=.=.=.=.=.=.=.=.=.=.=.=.=.=.=.=.=.=.=.=.=.=.=.=.=.=.=.=.=.=.=.=.=.=.=.=.=.=.=.(._.@ `               ",
"              ` @ :.<.=.=.=.[.}.|.|.|.|.|.|.|.|.|.|.|.|.|.|.|.|.|.|.|.|.|.|.|.|.|.|.|.|.|.|.|.1.2.3.=.=.=.4.5.@ `               ",
"              ` @ 6.7.=.=.=.8.9.0.a.a.a.a.a.a.a.a.a.a.a.a.a.a.a.a.a.a.a.a.a.a.a.a.a.a.a.a.a.a.b.9.c.=.=.=.d.e.@ `               ",
"              ` @ f.g.=.=.h.9.i.j.j.j.j.j.j.j.j.j.j.j.j.j.j.j.j.j.j.j.j.j.j.j.j.j.j.j.j.j.j.j.j.k.l.m.=.=.n.o.@ `               ",
"              ` @ p.q.=.=.r.9.s.j.j.j.j.j.j.j.j.j.j.j.j.j.j.j.j.j.j.j.j.j.j.j.j.j.j.j.j.j.j.j.j.t.u.v.=.=.w.x.@ `               ",
"              ` @ y.z.=.=.r.9.s.j.j.j.j.j.j.j.j.j.j.j.j.j.j.j.j.j.j.j.j.j.j.j.j.j.j.j.j.j.j.j.j.t.u.v.=.=.A.B.@ `               ",
"              ` @ C.D.=.=.r.9.s.j.j.j.j.j.j.j.j.j.j.j.j.j.j.j.j.j.j.j.j.j.j.j.j.j.j.j.j.j.j.j.j.t.u.v.=.=.E.F.@ `               ",
"              ` @ G.H.=.=.r.9.s.j.j.j.j.j.j.j.j.j.j.j.j.j.j.j.j.j.j.j.j.j.j.j.j.j.j.j.j.j.j.j.j.t.u.v.=.=.I.J.@ `               ",
"              ` @ K.L.=.=.r.9.s.j.j.j.j.j.j.j.j.j.j.j.j.j.j.j.j.j.j.j.j.j.j.j.j.j.j.j.j.j.j.j.j.t.u.v.=.=.M.N.@ `               ",
"              ` @ O.P.=.=.r.9.s.j.j.j.j.j.j.j.j.j.j.j.j.j.j.j.j.j.j.j.j.j.j.j.j.j.j.j.j.j.j.j.j.t.u.v.=.=.Q.R.@ `               ",
"              ` @ S.T.=.=.r.9.s.j.j.j.j.j.j.j.j.j.j.j.j.j.j.j.j.j.j.j.j.j.j.j.j.j.j.j.j.j.j.j.j.t.u.v.=.=.U.V.@ `               ",
"              ` @ W.X.=.=.r.9.s.j.j.j.j.j.j.j.j.j.j.Y.Z.Z.Z.Z.Z.Z.Z.Z.Z.Z.Y.j.j.j.j.j.j.j.j.j.j.t.u.v.=.=.`. +@ `               ",
"              ` @ .+++=.=.r.9.s.j.j.j.j.j.j.j.j.j.@+9.9.9.9.9.9.9.9.9.9.9.9.#+j.j.j.j.j.j.j.j.j.t.u.v.=.=.$+%+@ `               ",
"              ` @ &+*+=.=.r.9.s.j.j.j.j.j.j.j.j.j.=+9.-+;+;+;+;+;+;+;+;+>+9.,+j.j.j.j.j.j.j.j.j.t.u.v.=.=.'+)+@ `               ",
"              ` @ !+~+=.=.r.9.s.j.j.j.j.j.j.j.j.j.=+9.{+]+]+]+]+]+]+]+]+^+9.,+j.j.j.j.j.j.j.j.j.t.u.v.=.=./+(+@ `               ",
"              ` @ _+:+=.=.r.9.s.j.j.j.j.j.j.j.j.j.=+9.<+[+[+[+[+[+[+[+[+}+9.,+j.j.j.j.j.j.j.j.j.t.u.v.=.=.|+1+@ `               ",
"              ` @ 2+3+=.=.4+9.5+j.j.j.j.j.j.j.j.j.=+9.<+[+[+[+[+[+[+[+[+}+9.,+j.j.j.j.j.j.j.j.j.6+7+v.=.=.8+9+@ `               ",
"              ` @ 0+a+=.=.b+7+c+d+,+,+,+,+,+,+,+,+e+9.f+g+g+g+g+g+g+g+g+h+9.i+,+,+,+,+,+,+,+,+j+k+l+m+=.=.n+o+@ `               ",
"              ` @ p+'.=.=.=.q+r+9.9.9.9.9.9.9.9.9.9.9.9.9.9.9.9.9.9.9.9.9.9.9.9.9.9.9.9.9.9.9.9.s+t+u+=.=.v+w+@ `               ",
"              ` @ x+y+=.=.=.z+A+B+C+C+C+C+C+C+C+C+C+D+E+E+E+E+E+E+E+E+E+E+D+C+C+C+C+C+C+C+C+C+F+G+H+=.=.=.I+J+@ `               ",
"              ` @ K+L+=.=.=.=.=.=.=.=.=.=.=.=.=.=.=.=.=.=.=.=.=.=.=.=.=.=.=.=.=.=.=.=.=.=.=.=.=.=.=.=.=.=.M+N+@ `               ",
"              ` @ O+P+=.=.=.=.=.=.=.=.=.=.=.=.=.=.=.=.=.=.=.=.=.=.=.=.=.=.=.=.=.=.=.=.=.=.=.=.=.=.=.=.=.=.Q+R+@ `               ",
"              ` @ S+T+=.=.=.=.U+V+W+W+W+W+W+W+W+W+W+W+W+W+W+W+W+W+W+W+W+W+W+W+W+W+W+W+W+W+W+W+X+Y+=.=.=.=.Z+`+@ `               ",
"              ` @  @.@=.=.=.+@@@9.9.9.9.9.9.9.9.9.9.9.9.9.9.9.9.9.9.9.9.9.9.9.9.9.9.9.9.9.9.9.9.#@$@=.=.=.%@&@@ `               ",
"              ` @ *@w.=.=.b+=@-@;@>@>@>@>@>@>@>@>@>@>@>@>@>@>@>@>@>@>@>@>@>@>@>@>@>@>@>@>@>@>@,@'@)@=.=.=.!@~@@ `               ",
"              ` @ {@]@=.=.r.9.^@/@/@/@/@/@/@/@/@/@/@/@/@/@/@/@/@/@/@/@/@/@/@/@/@/@/@/@/@/@/@/@/@(@_@:@=.=.<@[@@ `               ",
"              ` @ }@|@=.=.r.9.1@/@/@/@/@/@/@/@/@/@/@/@/@/@/@/@/@/@/@/@/@/@/@/@/@/@/@/@/@/@/@/@/@2@_@v.=.=.3@4@@ `               ",
"              ` @ B.5@=.=.r.9.1@/@/@/@/@/@/@/@/@/@/@/@/@/@/@/@/@/@/@/@/@/@/@/@/@/@/@/@/@/@/@/@/@2@_@v.=.=.6@7@@ `               ",
"              ` @ 8@9@=.=.r.9.1@/@/@/@/@/@/@/@/@/@/@/@/@/@/@/@/@/@/@/@/@/@/@/@/@/@/@/@/@/@/@/@/@2@_@v.=.=.0@a@@ `               ",
"              ` @ J.b@=.=.r.9.1@/@/@/@/@/@/@/@/@/@/@/@/@/@/@/@/@/@/@/@/@/@/@/@/@/@/@/@/@/@/@/@/@2@_@v.=.=.c@d@@ `               ",
"              ` @ R.e@=.=.r.9.1@/@/@/@/@/@/@/@/@/@/@/@/@/@/@/@/@/@/@/@/@/@/@/@/@/@/@/@/@/@/@/@/@2@_@v.=.=.f@g@@ `               ",
"              ` @ h@i@=.=.r.9.1@/@/@/@/@/@/@/@/@/@/@/@/@/@/@/@/@/@/@/@/@/@/@/@/@/@/@/@/@/@/@/@/@2@_@v.=.=.j@k@@ `               ",
"              ` @  +l@=.=.r.9.1@/@/@/@/@/@/@/@/@/@/@m@n@n@n@n@n@n@n@n@n@n@m@/@/@/@/@/@/@/@/@/@/@2@_@v.=.=.o@p@@ `               ",
"              ` @ q@$+=.=.r.9.1@/@/@/@/@/@/@/@/@/@r@s@9.9.9.9.9.9.9.9.9.9.s@t@/@/@/@/@/@/@/@/@/@2@_@v.=.=.u@v@@ `               ",
"              ` @ )+w@=.=.r.9.1@/@/@/@/@/@/@/@/@/@x@9.y@z@z@z@z@z@z@z@z@y@9.A@/@/@/@/@/@/@/@/@/@2@_@v.=.=.B@C@@ `               ",
"              ` @ D@E@=.=.r.9.1@/@/@/@/@/@/@/@/@/@,@9.F@G@G@G@G@G@G@G@G@H@9.I@/@/@/@/@/@/@/@/@/@2@_@v.=.=.J@K@@ `               ",
"              ` @ (+L@=.=.r.9.1@/@/@/@/@/@/@/@/@/@,@9.M@N@N@N@N@N@N@N@N@g+9.I@/@/@/@/@/@/@/@/@/@2@_@v.=.=.O@P@@ `               ",
"              ` @ Q@R@=.=.r.9.1@/@/@/@/@/@/@/@/@/@,@9.<+[+[+[+[+[+[+[+[+}+9.I@/@/@/@/@/@/@/@/@/@2@_@v.=.=.S@T@@ `               ",
"              ` @ 9+U@=.=.h.9.V@/@/@/@/@/@/@/@/@/@,@9.<+[+[+[+[+[+[+[+[+}+9.I@/@/@/@/@/@/@/@/@W@X@Y@v.=.=.Z@`@@ `               ",
"              ` @  #v+=.=.=..#9.+#@#@#@#@#@#@#@#@#s@9.##$#$#$#$#$#$#$#$#%#9.&#@#@#@#@#@#@#@#@#*#9.=#-#=.=.;#>#@ `               ",
"              ` @ ,#'#=.=.=.)#!#l+~#~#~#~#~#~#~#~#~#{#s+s+s+s+s+s+s+s+s+s+{#~#~#~#~#~#~#~#~#~#]#^#/#=.=.=.(#_#@ `               ",
"              ` @ N+:#=.=.=.=.<#[#}#}#}#}#}#}#}#}#}#}#}#}#}#}#}#}#}#}#}#}#}#}#}#}#}#}#}#}#}#}#|#H+=.=.=.=.1#2#@ `               ",
"              ` @ 3#Q+=.=.=.=.=.=.=.=.=.=.=.=.=.=.=.=.=.=.=.=.=.=.=.=.=.=.=.=.=.=.=.=.=.=.=.=.=.=.=.=.=.=.4#5#@ `               ",
"              ` @ 6#7#=.=.=.=.=.=.=.=.=.=.=.=.=.=.=.=.=.=.=.=.=.=.=.=.=.=.=.=.=.=.=.=.=.=.=.=.=.=.=.=.=.=.8#9#@ `               ",
"              ` @ 0#/+0@0@a#c@b#f@c#d#j@o@e#f#u@g#B@h#i#J@j#O@k#l#S@Z@m#;#;#n#(#(#1#1#o#4#p#8#8#q#r#s#t#u#m#v#@ `               ",
"              ` @ w#x#y#z#A#B#C#D#E#F#G#H#I#J#K#L#M#N#O#P#Q#R#S#T#T#U#V#W#X#Y#Z#`# $.$+$@$#$$$%$&$*$=$-$;$>$,$@ `               ",
"              5 @ @ @ @ @ @ @ @ @ @ @ @ @ @ @ @ @ @ @ @ @ @ @ @ @ @ @ @ @ @ @ @ @ @ @ @ @ @ @ @ @ @ @ @ @ @ @ @ 5               ",
"                  . . . . . . . . . . . . . . . . . . . . . . . . . . . . . . . . . . . . . . . . . . . . . .                   ",
"                                                                                                                                ",
"                                                                                                                                "};
