/* XPM */
static const char * wxgiscatalog_x64_xpm[] = {
"64 64 475 2",
"  	c None",
". 	c #44442A",
"+ 	c #444429",
"@ 	c #444329",
"# 	c #454329",
"$ 	c #8E7C51",
"% 	c #F6EAD8",
"& 	c #F7ECDB",
"* 	c #F7ECDA",
"= 	c #F7EBDA",
"- 	c #F6EBD9",
"; 	c #F6EAD7",
"> 	c #F6EAD6",
", 	c #F6E9D6",
"' 	c #F5E9D5",
") 	c #F5E8D4",
"! 	c #F5E8D3",
"~ 	c #F5E8D2",
"{ 	c #F5E7D1",
"] 	c #F4E6D0",
"^ 	c #F4E6CF",
"/ 	c #F4E5CE",
"( 	c #F4E5CD",
"_ 	c #F4E4CC",
": 	c #F3E4CB",
"< 	c #F3E3CB",
"[ 	c #F3E3CA",
"} 	c #F3E3C9",
"| 	c #F3E2C8",
"1 	c #F2E2C7",
"2 	c #F2E1C7",
"3 	c #F0DEC1",
"4 	c #806F46",
"5 	c #444428",
"6 	c #8D7B51",
"7 	c #FCF7EF",
"8 	c #FEFBF6",
"9 	c #FBF2E4",
"0 	c #FBF1E3",
"a 	c #FBF1E2",
"b 	c #FAF1E1",
"c 	c #FAF0E1",
"d 	c #FAF0E0",
"e 	c #FAF0DF",
"f 	c #FAEFDF",
"g 	c #FAEFDE",
"h 	c #FAEFDD",
"i 	c #FAEEDD",
"j 	c #FAEEDC",
"k 	c #FAEEDB",
"l 	c #F9EDDA",
"m 	c #F9EDD9",
"n 	c #F9ECD8",
"o 	c #F9ECD7",
"p 	c #F9EBD7",
"q 	c #F9EBD6",
"r 	c #F9EBD5",
"s 	c #F8EAD4",
"t 	c #F8EAD3",
"u 	c #F7EAD5",
"v 	c #817046",
"w 	c #43432A",
"x 	c #8C7A51",
"y 	c #FCF7EE",
"z 	c #FDFAF4",
"A 	c #EECA92",
"B 	c #E9B96E",
"C 	c #EEC78C",
"D 	c #F7E9D2",
"E 	c #827046",
"F 	c #45432A",
"G 	c #8C7A50",
"H 	c #FDF9F3",
"I 	c #EECA91",
"J 	c #EDC78B",
"K 	c #F6E8D1",
"L 	c #847147",
"M 	c #444229",
"N 	c #8B7A50",
"O 	c #FCF6ED",
"P 	c #FDF9F2",
"Q 	c #EEC990",
"R 	c #EDC68A",
"S 	c #F9ECD9",
"T 	c #F6E7D0",
"U 	c #847246",
"V 	c #8B7950",
"W 	c #EEC98F",
"X 	c #EDC689",
"Y 	c #F6E6CE",
"Z 	c #857247",
"` 	c #454328",
" .	c #F4E8D4",
"..	c #FCF8F0",
"+.	c #EDC78C",
"@.	c #E8B76B",
"#.	c #ECC485",
"$.	c #F8E9D3",
"%.	c #ECD6B3",
"&.	c #F1E3CE",
"*.	c #EEDCBF",
"=.	c #C17D11",
"-.	c #E4C799",
";.	c #E4CBA4",
">.	c #F0E2CD",
",.	c #EEDBBE",
"'.	c #E4C798",
").	c #E3CAA2",
"!.	c #EFE1CA",
"~.	c #EDDABC",
"{.	c #E4C595",
"].	c #E3C9A0",
"^.	c #EFE0C9",
"/.	c #EDD9B9",
"(.	c #E3C594",
"_.	c #E2C89E",
":.	c #EEDFC7",
"<.	c #ECD8B8",
"[.	c #BA7810",
"}.	c #98630E",
"|.	c #8A5B10",
"1.	c #8B5C11",
"2.	c #9E6812",
"3.	c #BE7B11",
"4.	c #E3C392",
"5.	c #E2C79C",
"6.	c #EEDEC5",
"7.	c #ECD7B6",
"8.	c #8E5D10",
"9.	c #7B500B",
"0.	c #906B31",
"a.	c #937038",
"b.	c #8B6629",
"c.	c #A06E20",
"d.	c #E2C290",
"e.	c #E1C69A",
"f.	c #EDDDC3",
"g.	c #ECD6B4",
"h.	c #BB7910",
"i.	c #AC9165",
"j.	c #FFFFFF",
"k.	c #97763F",
"l.	c #855A15",
"m.	c #C48219",
"n.	c #E2C18E",
"o.	c #E1C598",
"p.	c #EDDCC1",
"q.	c #EBD5B2",
"r.	c #B87710",
"s.	c #B9A27D",
"t.	c #A48657",
"u.	c #825712",
"v.	c #CB8C28",
"w.	c #E1C18D",
"x.	c #E0C396",
"y.	c #ECDABF",
"z.	c #EBD4B1",
"A.	c #E1BF8B",
"B.	c #DFC294",
"C.	c #EBDABD",
"D.	c #EAD3AE",
"E.	c #E0BF89",
"F.	c #DFC192",
"G.	c #EBD8BB",
"H.	c #EAD2AD",
"I.	c #E0BD87",
"J.	c #DEC090",
"K.	c #EAD7B8",
"L.	c #E9D1AB",
"M.	c #DFBD85",
"N.	c #DEBF8E",
"O.	c #EAD6B7",
"P.	c #E9D0A9",
"Q.	c #DFBB83",
"R.	c #DDBE8D",
"S.	c #E9D5B4",
"T.	c #E8CFA7",
"U.	c #DEBA81",
"V.	c #DCBD8A",
"W.	c #E8D4B3",
"X.	c #E8CEA6",
"Y.	c #CAB89C",
"Z.	c #A88C5E",
"`.	c #DEB980",
" +	c #DCBC89",
".+	c #E8D2B1",
"++	c #E7CDA3",
"@+	c #DDD2C0",
"#+	c #DFD4C4",
"$+	c #DDB87D",
"%+	c #DBBA86",
"&+	c #E7D2AF",
"*+	c #E7CCA2",
"=+	c #CDBDA3",
"-+	c #965E05",
";+	c #A06402",
">+	c #945E05",
",+	c #D1C3AB",
"'+	c #DDB77C",
")+	c #DBBA85",
"!+	c #E7D0AD",
"~+	c #E6CBA0",
"{+	c #9D6305",
"]+	c #AA6A02",
"^+	c #9B6205",
"/+	c #DCB67A",
"(+	c #DAB882",
"_+	c #E6CFAB",
":+	c #E6CA9E",
"<+	c #A46705",
"[+	c #B47002",
"}+	c #A26605",
"|+	c #DCB578",
"1+	c #DAB781",
"2+	c #E5CEA9",
"3+	c #E5C99C",
"4+	c #B87810",
"5+	c #B8A17C",
"6+	c #A38656",
"7+	c #DBB476",
"8+	c #D9B67E",
"9+	c #E5CDA7",
"0+	c #E5C89A",
"a+	c #BF7C11",
"b+	c #8C672B",
"c+	c #CEBEA4",
"d+	c #B1986F",
"e+	c #945E07",
"f+	c #9F6405",
"g+	c #935E07",
"h+	c #B49C74",
"i+	c #C9B89B",
"j+	c #835A18",
"k+	c #946822",
"l+	c #CA8A26",
"m+	c #DBB375",
"n+	c #D8B57D",
"o+	c #E4CCA5",
"p+	c #B07C2A",
"q+	c #7E530E",
"r+	c #815611",
"s+	c #C8984C",
"t+	c #C27E12",
"u+	c #DAB272",
"v+	c #D8B47A",
"w+	c #E4CBA3",
"x+	c #E4C696",
"y+	c #C27F14",
"z+	c #CD963D",
"A+	c #C39346",
"B+	c #C49347",
"C+	c #BE8D42",
"D+	c #B28238",
"E+	c #C59549",
"F+	c #D8A34E",
"G+	c #C98923",
"H+	c #DAB171",
"I+	c #D7B379",
"J+	c #E3CAA1",
"K+	c #E3C595",
"L+	c #D9B06F",
"M+	c #D7B277",
"N+	c #E3C99F",
"O+	c #E3C493",
"P+	c #D9AF6D",
"Q+	c #D6B074",
"R+	c #E2C79D",
"S+	c #E2C391",
"T+	c #B97810",
"U+	c #A96E0F",
"V+	c #A96D0F",
"W+	c #AA6E0F",
"X+	c #BC7A11",
"Y+	c #D8AE6B",
"Z+	c #D5AF73",
"`+	c #E1C69B",
" @	c #E2C28F",
".@	c #A36A0F",
"+@	c #7C510C",
"@@	c #7F520D",
"#@	c #B17517",
"$@	c #D8AD6A",
"%@	c #D5AE70",
"&@	c #E1C599",
"*@	c #81540E",
"=@	c #8E450A",
"-@	c #D21B04",
";@	c #D61903",
">@	c #CD1E04",
",@	c #844C0B",
"'@	c #91641D",
")@	c #D8AC67",
"!@	c #D4AD6F",
"~@	c #E0C497",
"{@	c #E1C08C",
"]@	c #B82B06",
"^@	c #FF0000",
"/@	c #A33808",
"(@	c #825510",
"_@	c #C98924",
":@	c #D7AB66",
"<@	c #D4AC6C",
"[@	c #E0C395",
"}@	c #E0BF8A",
"|@	c #B92B06",
"1@	c #A43708",
"2@	c #D7AA64",
"3@	c #D3AB6B",
"4@	c #E0BE88",
"5@	c #D6A962",
"6@	c #D2AA68",
"7@	c #DEC191",
"8@	c #E0BD86",
"9@	c #D6A860",
"0@	c #D2A967",
"a@	c #DFBC84",
"b@	c #D5A75E",
"c@	c #D1A765",
"d@	c #DFBB82",
"e@	c #D5A65C",
"f@	c #D1A663",
"g@	c #DDBE8C",
"h@	c #DEBA80",
"i@	c #D4A55A",
"j@	c #D0A561",
"k@	c #DEB97F",
"l@	c #FA0300",
"m@	c #EA0D02",
"n@	c #D4A459",
"o@	c #D0A45F",
"p@	c #DCBB88",
"q@	c #F40701",
"r@	c #89480A",
"s@	c #F50601",
"t@	c #D3A357",
"u@	c #CFA35D",
"v@	c #DDB77B",
"w@	c #CF1D04",
"x@	c #865608",
"y@	c #8B5807",
"z@	c #D31B04",
"A@	c #D3A255",
"B@	c #CEA25B",
"C@	c #DAB983",
"D@	c #DCB679",
"E@	c #996105",
"F@	c #A56702",
"G@	c #986005",
"H@	c #D11C04",
"I@	c #D2A153",
"J@	c #CEA159",
"K@	c #DCB577",
"L@	c #A16505",
"M@	c #B06D02",
"N@	c #D2A051",
"O@	c #CDA057",
"P@	c #D9B67F",
"Q@	c #DBB475",
"R@	c #D19F4F",
"S@	c #CD9E55",
"T@	c #DBB374",
"U@	c #AA3307",
"V@	c #FE0000",
"W@	c #964009",
"X@	c #865914",
"Y@	c #D19E4E",
"Z@	c #CC9D53",
"`@	c #D8B47B",
" #	c #95661D",
".#	c #8B470A",
"+#	c #8F450A",
"@#	c #80530A",
"##	c #82540A",
"$#	c #80520A",
"%#	c #8A480A",
"&#	c #88490B",
"*#	c #AA7D35",
"=#	c #C6841C",
"-#	c #D09D4C",
";#	c #CB9C51",
">#	c #D7B37A",
",#	c #DAB170",
"'#	c #C28523",
")#	c #AC7E36",
"!#	c #946721",
"~#	c #936720",
"{#	c #875B15",
"]#	c #815610",
"^#	c #956922",
"/#	c #B4863E",
"(#	c #D49D45",
"_#	c #D09C4A",
":#	c #CB9B4F",
"<#	c #D9B06E",
"[#	c #C48117",
"}#	c #CF9231",
"|#	c #D09434",
"1#	c #D09334",
"2#	c #CF9B48",
"3#	c #CA9A4D",
"4#	c #D6B176",
"5#	c #CF9A46",
"6#	c #CA994B",
"7#	c #D6B073",
"8#	c #D8AE6A",
"9#	c #CE9944",
"0#	c #C99849",
"a#	c #D5AF72",
"b#	c #D5A85F",
"c#	c #D5A75D",
"d#	c #D4A65C",
"e#	c #D4A55B",
"f#	c #D4A458",
"g#	c #D3A458",
"h#	c #D3A356",
"i#	c #D3A254",
"j#	c #D2A154",
"k#	c #D2A152",
"l#	c #D1A050",
"m#	c #D19F50",
"n#	c #D19E4D",
"o#	c #D09D4B",
"p#	c #CF9A47",
"q#	c #CF9945",
"r#	c #CE9843",
"s#	c #CE9842",
"t#	c #CD9741",
"u#	c #CD9740",
"v#	c #CD963F",
"w#	c #C99748",
"x#	c #C8A568",
"y#	c #D2AF76",
"z#	c #D1AF75",
"A#	c #D1AE74",
"B#	c #D0AD73",
"C#	c #D0AD72",
"D#	c #D0AC71",
"E#	c #D0AC70",
"F#	c #CFAB6F",
"G#	c #CFAA6E",
"H#	c #CEAA6D",
"I#	c #CEA96C",
"J#	c #CEA96B",
"K#	c #CDA86A",
"L#	c #CDA769",
"M#	c #CDA768",
"N#	c #CDA667",
"O#	c #CCA666",
"P#	c #CCA564",
"Q#	c #CBA464",
"R#	c #CBA463",
"S#	c #CBA362",
"T#	c #CBA361",
"U#	c #CAA25F",
"V#	c #C9A15E",
"W#	c #C9A15D",
"X#	c #C9A05C",
"Y#	c #C9A05B",
"Z#	c #C89F5A",
"`#	c #C89E59",
" $	c #C89E58",
".$	c #C79D57",
"+$	c #C79D56",
"@$	c #C69C55",
"#$	c #C69B54",
"$$	c #C69B53",
"%$	c #C69A52",
"&$	c #C59A51",
"*$	c #C59950",
"=$	c #C4984F",
"-$	c #C4984E",
";$	c #C4974D",
">$	c #C3964B",
",$	c #C3964A",
"'$	c #BA8E42",
"                                                                                                                                ",
"                                                                                                                                ",
"                              . . . . . . . . . . . . . . . . . . . . . . . . . . . . . . . . . .                               ",
"                          + @ @ @ @ @ @ @ @ @ @ @ @ @ @ @ @ @ @ @ @ @ @ @ @ @ @ @ @ @ @ @ @ @ @ @ @ +                           ",
"                        # @ $ % & & * = - % ; ; > , ' ) ! ! ~ { { ] ] ^ / ( ( _ : < [ [ } | 1 2 3 4 @ #                         ",
"                      5 @ 6 7 8 9 9 9 0 a a b c d e f g h i j j k l l m m n o o p q q r s s t t d u v @ 5                       ",
"                    w @ x y z A B B B B B B B B B B B B B B B B B B B B B B B B B B B B B B B B C h D E @ w                     ",
"                  F @ G y H I B B B B B B B B B B B B B B B B B B B B B B B B B B B B B B B B B B J k K L @ F                   ",
"                M @ N O P Q B B B B B B B B B B B B B B B B B B B B B B B B B B B B B B B B B B B B R S T U @ M                 ",
"                @ V O P W B B B B B B B B B B B B B B B B B B B B B B B B B B B B B B B B B B B B B B X q Y Z @                 ",
"              ` @  ...+.@.@.@.@.@.@.@.@.@.@.@.@.@.@.@.@.@.@.@.@.@.@.@.@.@.@.@.@.@.@.@.@.@.@.@.@.@.@.@.@.#.$.%.@ `               ",
"              ` @ &.*.=.=.=.=.=.=.=.=.=.=.=.=.=.=.=.=.=.=.=.=.=.=.=.=.=.=.=.=.=.=.=.=.=.=.=.=.=.=.=.=.=.=.-.;.@ `               ",
"              ` @ >.,.=.=.=.=.=.=.=.=.=.=.=.=.=.=.=.=.=.=.=.=.=.=.=.=.=.=.=.=.=.=.=.=.=.=.=.=.=.=.=.=.=.=.'.).@ `               ",
"              ` @ !.~.=.=.=.=.=.=.=.=.=.=.=.=.=.=.=.=.=.=.=.=.=.=.=.=.=.=.=.=.=.=.=.=.=.=.=.=.=.=.=.=.=.=.{.].@ `               ",
"              ` @ ^./.=.=.=.=.=.=.=.=.=.=.=.=.=.=.=.=.=.=.=.=.=.=.=.=.=.=.=.=.=.=.=.=.=.=.=.=.=.=.=.=.=.=.(._.@ `               ",
"              ` @ :.<.=.=.=.[.}.|.|.|.|.|.|.|.|.|.|.|.|.|.|.|.|.|.|.|.|.|.|.|.|.|.|.|.|.|.|.|.1.2.3.=.=.=.4.5.@ `               ",
"              ` @ 6.7.=.=.=.8.9.0.a.a.a.a.a.a.a.a.a.a.a.a.a.a.a.a.a.a.a.a.a.a.a.a.a.a.a.a.a.a.b.9.c.=.=.=.d.e.@ `               ",
"              ` @ f.g.=.=.h.9.i.j.j.j.j.j.j.j.j.j.j.j.j.j.j.j.j.j.j.j.j.j.j.j.j.j.j.j.j.j.j.j.j.k.l.m.=.=.n.o.@ `               ",
"              ` @ p.q.=.=.r.9.s.j.j.j.j.j.j.j.j.j.j.j.j.j.j.j.j.j.j.j.j.j.j.j.j.j.j.j.j.j.j.j.j.t.u.v.=.=.w.x.@ `               ",
"              ` @ y.z.=.=.r.9.s.j.j.j.j.j.j.j.j.j.j.j.j.j.j.j.j.j.j.j.j.j.j.j.j.j.j.j.j.j.j.j.j.t.u.v.=.=.A.B.@ `               ",
"              ` @ C.D.=.=.r.9.s.j.j.j.j.j.j.j.j.j.j.j.j.j.j.j.j.j.j.j.j.j.j.j.j.j.j.j.j.j.j.j.j.t.u.v.=.=.E.F.@ `               ",
"              ` @ G.H.=.=.r.9.s.j.j.j.j.j.j.j.j.j.j.j.j.j.j.j.j.j.j.j.j.j.j.j.j.j.j.j.j.j.j.j.j.t.u.v.=.=.I.J.@ `               ",
"              ` @ K.L.=.=.r.9.s.j.j.j.j.j.j.j.j.j.j.j.j.j.j.j.j.j.j.j.j.j.j.j.j.j.j.j.j.j.j.j.j.t.u.v.=.=.M.N.@ `               ",
"              ` @ O.P.=.=.r.9.s.j.j.j.j.j.j.j.j.j.j.j.j.j.j.j.j.j.j.j.j.j.j.j.j.j.j.j.j.j.j.j.j.t.u.v.=.=.Q.R.@ `               ",
"              ` @ S.T.=.=.r.9.s.j.j.j.j.j.j.j.j.j.j.j.j.j.j.j.j.j.j.j.j.j.j.j.j.j.j.j.j.j.j.j.j.t.u.v.=.=.U.V.@ `               ",
"              ` @ W.X.=.=.r.9.s.j.j.j.j.j.j.j.j.j.j.Y.Z.Z.Z.Z.Z.Z.Z.Z.Z.Z.Y.j.j.j.j.j.j.j.j.j.j.t.u.v.=.=.`. +@ `               ",
"              ` @ .+++=.=.r.9.s.j.j.j.j.j.j.j.j.j.@+9.9.9.9.9.9.9.9.9.9.9.9.#+j.j.j.j.j.j.j.j.j.t.u.v.=.=.$+%+@ `               ",
"              ` @ &+*+=.=.r.9.s.j.j.j.j.j.j.j.j.j.=+9.-+;+;+;+;+;+;+;+;+>+9.,+j.j.j.j.j.j.j.j.j.t.u.v.=.=.'+)+@ `               ",
"              ` @ !+~+=.=.r.9.s.j.j.j.j.j.j.j.j.j.=+9.{+]+]+]+]+]+]+]+]+^+9.,+j.j.j.j.j.j.j.j.j.t.u.v.=.=./+(+@ `               ",
"              ` @ _+:+=.=.r.9.s.j.j.j.j.j.j.j.j.j.=+9.<+[+[+[+[+[+[+[+[+}+9.,+j.j.j.j.j.j.j.j.j.t.u.v.=.=.|+1+@ `               ",
"              ` @ 2+3+=.=.4+9.5+j.j.j.j.j.j.j.j.j.=+9.<+[+[+[+[+[+[+[+[+}+9.,+j.j.j.j.j.j.j.j.j.6+u.v.=.=.7+8+@ `               ",
"              ` @ 9+0+=.=.a+u.b+c+,+,+,+,+,+,+,+,+d+9.e+f+f+f+f+f+f+f+f+g+9.h+,+,+,+,+,+,+,+,+i+j+k+l+=.=.m+n+@ `               ",
"              ` @ o+'.=.=.=.p+q+9.9.9.9.9.9.9.9.9.9.9.9.9.9.9.9.9.9.9.9.9.9.9.9.9.9.9.9.9.9.9.9.r+s+t+=.=.u+v+@ `               ",
"              ` @ w+x+=.=.=.y+z+A+B+B+B+B+B+B+B+B+B+C+D+D+D+D+D+D+D+D+D+D+C+B+B+B+B+B+B+B+B+B+E+F+G+=.=.=.H+I+@ `               ",
"              ` @ J+K+=.=.=.=.=.=.=.=.=.=.=.=.=.=.=.=.=.=.=.=.=.=.=.=.=.=.=.=.=.=.=.=.=.=.=.=.=.=.=.=.=.=.L+M+@ `               ",
"              ` @ N+O+=.=.=.=.=.=.=.=.=.=.=.=.=.=.=.=.=.=.=.=.=.=.=.=.=.=.=.=.=.=.=.=.=.=.=.=.=.=.=.=.=.=.P+Q+@ `               ",
"              ` @ R+S+=.=.=.=.T+U+V+V+V+V+V+V+V+V+V+V+V+V+V+V+V+V+V+V+V+V+V+V+V+V+V+V+V+V+V+V+W+X+=.=.=.=.Y+Z+@ `               ",
"              ` @ `+ @=.=.=..@+@9.9.9.9.9.9.9.9.9.9.9.9.9.9.9.9.9.9.9.9.9.9.9.9.9.9.9.9.9.9.9.9.@@#@=.=.=.$@%@@ `               ",
"              ` @ &@w.=.=.a+*@=@-@;@;@;@;@;@;@;@;@;@;@;@;@;@;@;@;@;@;@;@;@;@;@;@;@;@;@;@;@;@;@>@,@'@=.=.=.)@!@@ `               ",
"              ` @ ~@{@=.=.r.9.]@^@^@^@^@^@^@^@^@^@^@^@^@^@^@^@^@^@^@^@^@^@^@^@^@^@^@^@^@^@^@^@^@/@(@_@=.=.:@<@@ `               ",
"              ` @ [@}@=.=.r.9.|@^@^@^@^@^@^@^@^@^@^@^@^@^@^@^@^@^@^@^@^@^@^@^@^@^@^@^@^@^@^@^@^@1@(@v.=.=.2@3@@ `               ",
"              ` @ B.4@=.=.r.9.|@^@^@^@^@^@^@^@^@^@^@^@^@^@^@^@^@^@^@^@^@^@^@^@^@^@^@^@^@^@^@^@^@1@(@v.=.=.5@6@@ `               ",
"              ` @ 7@8@=.=.r.9.|@^@^@^@^@^@^@^@^@^@^@^@^@^@^@^@^@^@^@^@^@^@^@^@^@^@^@^@^@^@^@^@^@1@(@v.=.=.9@0@@ `               ",
"              ` @ J.a@=.=.r.9.|@^@^@^@^@^@^@^@^@^@^@^@^@^@^@^@^@^@^@^@^@^@^@^@^@^@^@^@^@^@^@^@^@1@(@v.=.=.b@c@@ `               ",
"              ` @ R.d@=.=.r.9.|@^@^@^@^@^@^@^@^@^@^@^@^@^@^@^@^@^@^@^@^@^@^@^@^@^@^@^@^@^@^@^@^@1@(@v.=.=.e@f@@ `               ",
"              ` @ g@h@=.=.r.9.|@^@^@^@^@^@^@^@^@^@^@^@^@^@^@^@^@^@^@^@^@^@^@^@^@^@^@^@^@^@^@^@^@1@(@v.=.=.i@j@@ `               ",
"              ` @  +k@=.=.r.9.|@^@^@^@^@^@^@^@^@^@^@l@m@m@m@m@m@m@m@m@m@m@l@^@^@^@^@^@^@^@^@^@^@1@(@v.=.=.n@o@@ `               ",
"              ` @ p@$+=.=.r.9.|@^@^@^@^@^@^@^@^@^@q@r@9.9.9.9.9.9.9.9.9.9.r@s@^@^@^@^@^@^@^@^@^@1@(@v.=.=.t@u@@ `               ",
"              ` @ )+v@=.=.r.9.|@^@^@^@^@^@^@^@^@^@w@9.x@y@y@y@y@y@y@y@y@x@9.z@^@^@^@^@^@^@^@^@^@1@(@v.=.=.A@B@@ `               ",
"              ` @ C@D@=.=.r.9.|@^@^@^@^@^@^@^@^@^@>@9.E@F@F@F@F@F@F@F@F@G@9.H@^@^@^@^@^@^@^@^@^@1@(@v.=.=.I@J@@ `               ",
"              ` @ (+K@=.=.r.9.|@^@^@^@^@^@^@^@^@^@>@9.L@M@M@M@M@M@M@M@M@f+9.H@^@^@^@^@^@^@^@^@^@1@(@v.=.=.N@O@@ `               ",
"              ` @ P@Q@=.=.r.9.|@^@^@^@^@^@^@^@^@^@>@9.<+[+[+[+[+[+[+[+[+}+9.H@^@^@^@^@^@^@^@^@^@1@(@v.=.=.R@S@@ `               ",
"              ` @ 8+T@=.=.h.9.U@^@^@^@^@^@^@^@^@^@>@9.<+[+[+[+[+[+[+[+[+}+9.H@^@^@^@^@^@^@^@^@V@W@X@v.=.=.Y@Z@@ `               ",
"              ` @ `@u+=.=.=. #9..#+#+#+#+#+#+#+#+#r@9.@#################$#9.%#+#+#+#+#+#+#+#+#&#9.*#=#=.=.-#;#@ `               ",
"              ` @ >#,#=.=.=.'#)#!#~#~#~#~#~#~#~#~#~#{#]#]#]#]#]#]#]#]#]#]#{#~#~#~#~#~#~#~#~#~#^#/#(#=.=.=._#:#@ `               ",
"              ` @ M+<#=.=.=.=.[#}#|#|#|#|#|#|#|#|#|#|#|#|#|#|#|#|#|#|#|#|#|#|#|#|#|#|#|#|#|#|#1#G+=.=.=.=.2#3#@ `               ",
"              ` @ 4#P+=.=.=.=.=.=.=.=.=.=.=.=.=.=.=.=.=.=.=.=.=.=.=.=.=.=.=.=.=.=.=.=.=.=.=.=.=.=.=.=.=.=.5#6#@ `               ",
"              ` @ 7#8#=.=.=.=.=.=.=.=.=.=.=.=.=.=.=.=.=.=.=.=.=.=.=.=.=.=.=.=.=.=.=.=.=.=.=.=.=.=.=.=.=.=.9#0#@ `               ",
"              ` @ a#/+9@9@b#b@c#e@d#e#i@n@f#g#t@h#A@i#j#I@k#N@l#m#R@Y@n#-#-#o#_#_#2#2#p#5#q#9#9#r#s#t#u#v#n#w#@ `               ",
"              ` @ x#y#z#A#B#C#D#E#F#G#H#I#J#K#L#M#N#O#P#Q#R#S#T#U#U#V#W#X#Y#Z#`# $.$+$@$#$$$%$&$*$=$-$;$>$,$'$@ `               ",
"              5 @ @ @ @ @ @ @ @ @ @ @ @ @ @ @ @ @ @ @ @ @ @ @ @ @ @ @ @ @ @ @ @ @ @ @ @ @ @ @ @ @ @ @ @ @ @ @ @ 5               ",
"                  . . . . . . . . . . . . . . . . . . . . . . . . . . . . . . . . . . . . . . . . . . . . . .                   ",
"                                                                                                                                ",
"                                                                                                                                "};
