/* XPM */
static const char * wxgiscatalog_x32_xpm[] = {
"32 32 227 2",
"  	c None",
". 	c #504826",
"+ 	c #514926",
"@ 	c #5D5634",
"# 	c #F2E4CC",
"$ 	c #F9EEDE",
"% 	c #F9EDDC",
"& 	c #F8EDDB",
"* 	c #F8ECDA",
"= 	c #F8ECD9",
"- 	c #F8EBD8",
"; 	c #F8EAD6",
"> 	c #F7EAD5",
", 	c #F7E9D3",
"' 	c #F7E9D2",
") 	c #F7E8D1",
"! 	c #F6E7D0",
"~ 	c #F6E7CF",
"{ 	c #F6E6CD",
"] 	c #F6E6CC",
"^ 	c #F5E5CB",
"/ 	c #EBD7B5",
"( 	c #595131",
"_ 	c #5C5534",
": 	c #F4E6D0",
"< 	c #F1D1A0",
"[ 	c #E9B96E",
"} 	c #EFCD98",
"| 	c #EDD8B7",
"1 	c #5B5433",
"2 	c #F3E6D0",
"3 	c #F1D2A1",
"4 	c #EFCD97",
"5 	c #ECD7B4",
"6 	c #595231",
"7 	c #B9A782",
"8 	c #E8CA99",
"9 	c #D4993C",
"0 	c #E4BF85",
"a 	c #AE996E",
"b 	c #B3A07D",
"c 	c #D8AE6A",
"d 	c #C17D11",
"e 	c #D3A357",
"f 	c #A59167",
"g 	c #B19F7B",
"h 	c #D8AD68",
"i 	c #BA7910",
"j 	c #A76F15",
"k 	c #A76F16",
"l 	c #A86F15",
"m 	c #BC7B12",
"n 	c #D3A255",
"o 	c #A49065",
"p 	c #B09E79",
"q 	c #D7AC66",
"r 	c #C07C11",
"s 	c #8F6522",
"t 	c #C4B191",
"u 	c #C9B89B",
"v 	c #C0AB89",
"w 	c #956C29",
"x 	c #C17E12",
"y 	c #D2A153",
"z 	c #A38E63",
"A 	c #AF9D77",
"B 	c #D7AA64",
"C 	c #BD7A11",
"D 	c #99753A",
"E 	c #FFFFFF",
"F 	c #916A2C",
"G 	c #C6841C",
"H 	c #D2A051",
"I 	c #A28D62",
"J 	c #AE9B75",
"K 	c #D6A962",
"L 	c #C6851D",
"M 	c #D19F4F",
"N 	c #A18B60",
"O 	c #AD9973",
"P 	c #D6A860",
"Q 	c #D19E4D",
"R 	c #9F895D",
"S 	c #AB9871",
"T 	c #D5A75E",
"U 	c #DDD2C0",
"V 	c #D6C8B2",
"W 	c #D09D4B",
"X 	c #9E875B",
"Y 	c #AA966F",
"Z 	c #D5A65C",
"` 	c #EAE3D8",
" .	c #875D18",
"..	c #8F5F12",
"+.	c #875C19",
"@.	c #EEE8DF",
"#.	c #D09C49",
"$.	c #9E8759",
"%.	c #A9956D",
"&.	c #D4A55A",
"*.	c #E6DED1",
"=.	c #95661C",
"-.	c #AF6D02",
";.	c #94661D",
">.	c #EAE4D9",
",.	c #CF9B47",
"'.	c #9D8657",
").	c #A8936B",
"!.	c #D4A459",
"~.	c #BF7C11",
"{.	c #8C6423",
"].	c #E4DBCD",
"^.	c #D6C9B3",
"/.	c #906116",
"(.	c #A96A04",
"_.	c #8F6118",
":.	c #D9CDB9",
"<.	c #E0D7C7",
"[.	c #8E6524",
"}.	c #CF9A46",
"|.	c #9B8456",
"1.	c #A89369",
"2.	c #BB832B",
"3.	c #A27938",
"4.	c #A27937",
"5.	c #A17836",
"6.	c #8D611B",
"7.	c #8B5F17",
"8.	c #8D621B",
"9.	c #C7913D",
"0.	c #CE9944",
"a.	c #9A8354",
"b.	c #CE9842",
"c.	c #998152",
"d.	c #B17313",
"e.	c #9C5B15",
"f.	c #9D5C15",
"g.	c #B77918",
"h.	c #CD963F",
"i.	c #98804F",
"j.	c #BF7B11",
"k.	c #8C5010",
"l.	c #E51002",
"m.	c #EA0D02",
"n.	c #E21202",
"o.	c #8E5312",
"p.	c #C38015",
"q.	c #CD953E",
"r.	c #967D4D",
"s.	c #994B11",
"t.	c #FF0000",
"u.	c #915011",
"v.	c #CC943C",
"w.	c #947C4B",
"x.	c #A08A5F",
"y.	c #CC933A",
"z.	c #937A49",
"A.	c #CB9238",
"B.	c #937A47",
"C.	c #FC0200",
"D.	c #B62D06",
"E.	c #AD3306",
"F.	c #B72C06",
"G.	c #FD0100",
"H.	c #CB9136",
"I.	c #927845",
"J.	c #E70F02",
"K.	c #8B4F08",
"L.	c #975F04",
"M.	c #EB0C02",
"N.	c #CA9034",
"O.	c #917743",
"P.	c #E60F02",
"Q.	c #965308",
"R.	c #B47002",
"S.	c #955108",
"T.	c #CA8F32",
"U.	c #8F7641",
"V.	c #905615",
"W.	c #C02705",
"X.	c #C52305",
"Y.	c #B92B06",
"Z.	c #885209",
"`.	c #9B6106",
" +	c #875209",
".+	c #BB2906",
"++	c #BD2A07",
"@+	c #965C1A",
"#+	c #C48219",
"$+	c #C98E30",
"%+	c #8E733F",
"&+	c #C0831F",
"*+	c #B78638",
"=+	c #B78639",
"-+	c #A4752B",
";+	c #A07228",
">+	c #B8873A",
",+	c #C88C2D",
"'+	c #C98D2E",
")+	c #8D723D",
"!+	c #CD9740",
"~+	c #C88C2C",
"{+	c #8C703B",
"]+	c #937D4E",
"^+	c #D6B175",
"/+	c #D4AC6D",
"(+	c #D3AB6C",
"_+	c #D3AA69",
":+	c #D2A968",
"<+	c #D2A866",
"[+	c #D1A764",
"}+	c #D0A662",
"|+	c #D0A560",
"1+	c #CFA45E",
"2+	c #CFA25C",
"3+	c #CEA25A",
"4+	c #CEA159",
"5+	c #CD9F56",
"6+	c #CD9E55",
"7+	c #CC9D53",
"8+	c #CB9C51",
"9+	c #CB9B4F",
"0+	c #CA9A4D",
"a+	c #CA994B",
"b+	c #C9984A",
"c+	c #866D39",
"d+	c #4F4927",
"                                                                ",
"              . + + + + + + + + + + + + + + + + .               ",
"            @ # $ % & * = - ; > , ' ) ! ~ { ] ^ / (             ",
"          _ : < [ [ [ [ [ [ [ [ [ [ [ [ [ [ [ [ } | (           ",
"        1 2 3 [ [ [ [ [ [ [ [ [ [ [ [ [ [ [ [ [ [ 4 5 6         ",
"        7 8 9 9 9 9 9 9 9 9 9 9 9 9 9 9 9 9 9 9 9 9 0 a         ",
"        b c d d d d d d d d d d d d d d d d d d d d e f         ",
"        g h d i j k k k k k k k k k k k k k k l m d n o         ",
"        p q r s t u u u u u u u u u u u u u u v w x y z         ",
"        A B C D E E E E E E E E E E E E E E E E F G H I         ",
"        J K C D E E E E E E E E E E E E E E E E F L M N         ",
"        O P C D E E E E E E E E E E E E E E E E F L Q R         ",
"        S T C D E E E E E U V V V V U E E E E E F L W X         ",
"        Y Z C D E E E E `  .........+.@.E E E E F L #.$.        ",
"        %.&.C D E E E E *.=.-.-.-.-.;.>.E E E E F L ,.'.        ",
"        ).!.~.{.].>.>.>.^./.(.(.(.(._.:.>.>.>.<.[.G }.|.        ",
"        1.e d 2.3.4.4.4.5.6.7.7.7.7.8.5.4.4.4.4.9.d 0.a.        ",
"        f n d d d d d d d d d d d d d d d d d d d d b.c.        ",
"        o y d d.e.e.e.e.e.e.e.e.e.e.e.e.e.e.e.f.g.d h.i.        ",
"        z H j.k.l.m.m.m.m.m.m.m.m.m.m.m.m.m.m.n.o.p.q.r.        ",
"        I M C s.t.t.t.t.t.t.t.t.t.t.t.t.t.t.t.t.u.L v.w.        ",
"        x.Q C s.t.t.t.t.t.t.t.t.t.t.t.t.t.t.t.t.u.L y.z.        ",
"        R W C s.t.t.t.t.t.t.t.t.t.t.t.t.t.t.t.t.u.L A.B.        ",
"        X #.C s.t.t.t.t.C.D.E.E.E.E.F.G.t.t.t.t.u.L H.I.        ",
"        $.,.C s.t.t.t.t.J.K.L.L.L.L.K.M.t.t.t.t.u.L N.O.        ",
"        '.}.C s.t.t.t.t.P.Q.R.R.R.R.S.m.t.t.t.t.u.L T.U.        ",
"        |.0.r V.W.X.X.X.Y.Z.`.`.`.`. +.+X.X.X.++@+#+$+%+        ",
"        a.b.d &+*+=+=+=+=+-+;+;+;+;+-+=+=+=+=+>+,+d '+)+        ",
"        c.!+d d d d d d d d d d d d d d d d d d d d ~+{+        ",
"        ]+^+/+(+_+:+<+[+}+|+1+2+3+4+5+6+7+8+9+0+a+b+a+c+        ",
"        d++ + + + + + + + + + + + + + + + + + + + + + d+        ",
"                                                                "};
