/* XPM */
static const char * wxgiscatalog48_xpm[] = {
"48 48 364 2",
"  	c None",
". 	c #484429",
"+ 	c #444329",
"@ 	c #716642",
"# 	c #F5E9D5",
"$ 	c #F9F0E2",
"% 	c #F9F0E1",
"& 	c #F9EFE0",
"* 	c #F9EFDF",
"= 	c #F8EEDE",
"- 	c #F8EDDC",
"; 	c #F8EDDB",
"> 	c #F8ECDA",
", 	c #F7ECD9",
"' 	c #F7EBD8",
") 	c #F7EAD6",
"! 	c #F7EAD5",
"~ 	c #F6E9D4",
"{ 	c #F6E8D3",
"] 	c #F6E8D2",
"^ 	c #F6E8D1",
"/ 	c #F6E7D0",
"( 	c #F5E7CF",
"_ 	c #F5E6CE",
": 	c #EFDCBE",
"< 	c #685F3B",
"[ 	c #706543",
"} 	c #FAF1E4",
"| 	c #F9ECD7",
"1 	c #F1D2A2",
"2 	c #F1D2A1",
"3 	c #F1D1A1",
"4 	c #F1D1A0",
"5 	c #F0D19F",
"6 	c #F0D09F",
"7 	c #F0D09E",
"8 	c #F0D09D",
"9 	c #F0CF9C",
"0 	c #F0CF9B",
"a 	c #F0CE9A",
"b 	c #F6E3C6",
"c 	c #F4E3CA",
"d 	c #685F3C",
"e 	c #FAF1E3",
"f 	c #F9EBD5",
"g 	c #EABC73",
"h 	c #E9B96E",
"i 	c #EABB73",
"j 	c #F6E2C3",
"k 	c #F3E2C7",
"l 	c #685E3B",
"m 	c #6E6442",
"n 	c #F9EAD4",
"o 	c #EABB72",
"p 	c #F6E1C1",
"q 	c #F3E1C5",
"r 	c #695F3B",
"s 	c #5C5435",
"t 	c #F8EAD4",
"u 	c #F5E0BE",
"v 	c #F2E0C2",
"w 	c #595232",
"x 	c #746A46",
"y 	c #FBF7F0",
"z 	c #CF963B",
"A 	c #CA8A25",
"B 	c #CE9337",
"C 	c #EFDDC1",
"D 	c #6E623E",
"E 	c #736945",
"F 	c #FAF5ED",
"G 	c #C68826",
"H 	c #C17D11",
"I 	c #C58621",
"J 	c #EDDABC",
"K 	c #6E623D",
"L 	c #F9F3EA",
"M 	c #C68825",
"N 	c #EDD8B8",
"O 	c #6D623D",
"P 	c #736944",
"Q 	c #F9F2E7",
"R 	c #C07D11",
"S 	c #A66C0F",
"T 	c #986513",
"U 	c #986514",
"V 	c #996614",
"W 	c #AC7012",
"X 	c #C58521",
"Y 	c #ECD7B5",
"Z 	c #6D613D",
"` 	c #726844",
" .	c #F8F0E4",
"..	c #A86D11",
"+.	c #80550C",
"@.	c #AB8307",
"#.	c #AC8407",
"$.	c #A87F08",
"%.	c #7C510C",
"&.	c #B67C1F",
"*.	c #C58520",
"=.	c #EBD5B2",
"-.	c #6D613C",
";.	c #726843",
">.	c #F7EEE0",
",.	c #C68824",
"'.	c #9D6A1A",
").	c #A77E08",
"!.	c #FFDC00",
"~.	c #966C0C",
"{.	c #AE7D2E",
"].	c #EAD3AF",
"^.	c #6C613C",
"/.	c #726743",
"(.	c #F6EDDD",
"_.	c #C68724",
":.	c #9D6B1C",
"<.	c #976D0C",
"[.	c #AF7F31",
"}.	c #E9D2AC",
"|.	c #6C603B",
"1.	c #716742",
"2.	c #F5EBDA",
"3.	c #C5851F",
"4.	c #E9D0A9",
"5.	c #F5E9D7",
"6.	c #C68723",
"7.	c #E8CEA5",
"8.	c #6B5F3A",
"9.	c #716641",
"0.	c #F4E8D4",
"a.	c #E7CDA3",
"b.	c #706641",
"c.	c #F3E6D0",
"d.	c #C5841F",
"e.	c #E6CA9F",
"f.	c #6B5F39",
"g.	c #F2E4CE",
"h.	c #C29C05",
"i.	c #7C510B",
"j.	c #7B500B",
"k.	c #C7A005",
"l.	c #C4841E",
"m.	c #E5C99C",
"n.	c #6A5E39",
"o.	c #706540",
"p.	c #F1E2CB",
"q.	c #C68622",
"r.	c #956B09",
"s.	c #895807",
"t.	c #965E04",
"u.	c #996F08",
"v.	c #E4C799",
"w.	c #6A5E38",
"x.	c #6F6540",
"y.	c #F0E0C7",
"z.	c #C58622",
"A.	c #956A09",
"B.	c #955E06",
"C.	c #AC6B02",
"D.	c #E4C596",
"E.	c #6F643F",
"F.	c #F0DFC4",
"G.	c #996106",
"H.	c #B47002",
"I.	c #C4841D",
"J.	c #E3C493",
"K.	c #695D38",
"L.	c #A6721F",
"M.	c #8F650C",
"N.	c #DBB603",
"O.	c #DEB903",
"P.	c #8F6509",
"Q.	c #915C08",
"R.	c #A46705",
"S.	c #936809",
"T.	c #D9B403",
"U.	c #855B0D",
"V.	c #B98737",
"W.	c #E2C290",
"X.	c #695D37",
"Y.	c #6E643E",
"Z.	c #EEDBBE",
"`.	c #BE7D18",
" +	c #976B20",
".+	c #7F540D",
"++	c #7E530D",
"@+	c #7D520C",
"#+	c #9F7228",
"$+	c #CB8E2F",
"%+	c #C4831D",
"&+	c #E1C08C",
"*+	c #EDDABB",
"=+	c #C5841B",
"-+	c #D19535",
";+	c #D19537",
">+	c #CA8A26",
",+	c #C4831C",
"'+	c #E0BF89",
")+	c #685C36",
"!+	c #ECD8B7",
"~+	c #E0BD87",
"{+	c #ECD6B4",
"]+	c #AF710F",
"^+	c #9F6810",
"/+	c #9F6811",
"(+	c #A06911",
"_+	c #B27410",
":+	c #DFBB83",
"<+	c #685B35",
"[+	c #AC7011",
"}+	c #7B520D",
"|+	c #636C44",
"1+	c #616F4A",
"2+	c #666A3F",
"3+	c #7B510C",
"4+	c #B97C1C",
"5+	c #DEBA80",
"6+	c #675B35",
"7+	c #9D6A19",
"8+	c #577457",
"9+	c #00C0FF",
"0+	c #6B6535",
"a+	c #AE7C2D",
"b+	c #C4831B",
"c+	c #DDB87C",
"d+	c #675B34",
"e+	c #6C603C",
"f+	c #E9D1AB",
"g+	c #53765D",
"h+	c #68683B",
"i+	c #C4821B",
"j+	c #DCB67A",
"k+	c #665A34",
"l+	c #E8D0A8",
"m+	c #DCB577",
"n+	c #665A33",
"o+	c #E7CEA4",
"p+	c #C3821A",
"q+	c #DBB373",
"r+	c #E7CCA2",
"s+	c #C5841E",
"t+	c #DAB170",
"u+	c #655933",
"v+	c #D9AF6D",
"w+	c #655932",
"x+	c #E5C89B",
"y+	c #2D97A6",
"z+	c #6F5C24",
"A+	c #705A21",
"B+	c #299AAD",
"C+	c #D8AD6A",
"D+	c #655832",
"E+	c #E4C798",
"F+	c #656639",
"G+	c #865608",
"H+	c #905B05",
"I+	c #606A42",
"J+	c #C38119",
"K+	c #D7AC67",
"L+	c #645831",
"M+	c #666537",
"N+	c #945E06",
"O+	c #AA6A02",
"P+	c #62693F",
"Q+	c #D6AA63",
"R+	c #695E38",
"S+	c #E3C392",
"T+	c #676537",
"U+	c #D6A860",
"V+	c #645730",
"W+	c #E2C28F",
"X+	c #A4701E",
"Y+	c #686638",
"Z+	c #12B0DC",
"`+	c #0FB2E0",
" @	c #696331",
".@	c #945E07",
"+@	c #AB6B03",
"@@	c #666639",
"#@	c #14AED8",
"$@	c #745C22",
"%@	c #B68536",
"&@	c #C38118",
"*@	c #D5A75E",
"=@	c #635730",
"-@	c #E1C08B",
";@	c #BC7E1B",
">@	c #845E1C",
",@	c #7C500B",
"'@	c #8A6421",
")@	c #CB9034",
"!@	c #D4A55B",
"~@	c #63572F",
"{@	c #685C37",
"]@	c #E0BE88",
"^@	c #C88923",
"/@	c #CD953B",
"(@	c #CD963E",
"_@	c #C8923B",
":@	c #C9923B",
"<@	c #CE963D",
"[@	c #CE9130",
"}@	c #D3A357",
"|@	c #63562F",
"1@	c #DFBD86",
"2@	c #C38117",
"3@	c #D3A254",
"4@	c #62562E",
"5@	c #DEBB82",
"6@	c #CB9238",
"7@	c #C98E30",
"8@	c #C98E2F",
"9@	c #C98D2F",
"0@	c #C98D2E",
"a@	c #C88D2D",
"b@	c #C88C2D",
"c@	c #C88C2C",
"d@	c #C88B2B",
"e@	c #C88B2A",
"f@	c #C78B2A",
"g@	c #C78A29",
"h@	c #C78A28",
"i@	c #C78928",
"j@	c #C78927",
"k@	c #C78926",
"l@	c #C68926",
"m@	c #D2A050",
"n@	c #62552E",
"o@	c #645935",
"p@	c #D5B37A",
"q@	c #D5B278",
"r@	c #D4B177",
"s@	c #D4B075",
"t@	c #D3AF73",
"u@	c #D2AE71",
"v@	c #D2AD70",
"w@	c #D2AC6E",
"x@	c #D1AB6D",
"y@	c #D1AB6C",
"z@	c #D0AA6A",
"A@	c #D0A969",
"B@	c #CFA867",
"C@	c #CFA766",
"D@	c #CFA765",
"E@	c #CEA663",
"F@	c #CEA562",
"G@	c #CDA461",
"H@	c #CDA35F",
"I@	c #CCA35E",
"J@	c #CCA25C",
"K@	c #CCA15B",
"L@	c #CBA05A",
"M@	c #CBA059",
"N@	c #CA9F57",
"O@	c #CA9E55",
"P@	c #C99D54",
"Q@	c #C99C53",
"R@	c #C99C52",
"S@	c #C89B50",
"T@	c #C89A4E",
"U@	c #C7994D",
"V@	c #C7984C",
"W@	c #5E532E",
"                                                                                                ",
"                                                                                                ",
"                    . + + + + + + + + + + + + + + + + + + + + + + + + + + .                     ",
"                  . @ # $ % & * = = - - ; > , ' ' ) ! ! ~ { ] ^ / ( _ _ : < .                   ",
"                . [ } | 1 1 1 2 2 3 4 4 4 5 5 6 7 7 7 8 8 9 9 9 0 0 0 a b c d .                 ",
"              . [ e f g h h h h h h h h h h h h h h h h h h h h h h h h i j k l .               ",
"            . m $ n g h h h h h h h h h h h h h h h h h h h h h h h h h h o p q r .             ",
"            s & t g h h h h h h h h h h h h h h h h h h h h h h h h h h h h o u v w             ",
"            x y z A A A A A A A A A A A A A A A A A A A A A A A A A A A A A A B C D             ",
"            E F G H H H H H H H H H H H H H H H H H H H H H H H H H H H H H H I J K             ",
"            E L M H H H H H H H H H H H H H H H H H H H H H H H H H H H H H H I N O             ",
"            P Q M H R S T U U U U U U U U U U U U U U U U U U U U U U V W H H X Y Z             ",
"            `  .M H ..+.@.#.#.#.#.#.#.#.#.#.#.#.#.#.#.#.#.#.#.#.#.#.#.$.%.&.H *.=.-.            ",
"            ;.>.,.H '.).!.!.!.!.!.!.!.!.!.!.!.!.!.!.!.!.!.!.!.!.!.!.!.!.~.{.H *.].^.            ",
"            /.(._.H :.$.!.!.!.!.!.!.!.!.!.!.!.!.!.!.!.!.!.!.!.!.!.!.!.!.<.[.H *.}.|.            ",
"            1.2._.H :.$.!.!.!.!.!.!.!.!.!.!.!.!.!.!.!.!.!.!.!.!.!.!.!.!.<.[.H 3.4.|.            ",
"            1.5.6.H :.$.!.!.!.!.!.!.!.!.!.!.!.!.!.!.!.!.!.!.!.!.!.!.!.!.<.[.H 3.7.8.            ",
"            9.0.6.H :.$.!.!.!.!.!.!.!.!.!.!.!.!.!.!.!.!.!.!.!.!.!.!.!.!.<.[.H 3.a.8.            ",
"            b.c.6.H :.$.!.!.!.!.!.!.!.!.!.!.!.!.!.!.!.!.!.!.!.!.!.!.!.!.<.[.H d.e.f.            ",
"            b.g.6.H :.$.!.!.!.!.!.!.!.h.i.j.j.j.j.j.j.i.k.!.!.!.!.!.!.!.<.[.H l.m.n.            ",
"            o.p.q.H :.$.!.!.!.!.!.!.!.r.s.t.t.t.t.t.t.s.u.!.!.!.!.!.!.!.<.[.H l.v.w.            ",
"            x.y.z.H :.$.!.!.!.!.!.!.!.A.B.C.C.C.C.C.C.B.u.!.!.!.!.!.!.!.<.[.H l.D.w.            ",
"            E.F.z.H :.$.!.!.!.!.!.!.!.r.G.H.H.H.H.H.H.G.u.!.!.!.!.!.!.!.<.[.H I.J.K.            ",
"            E.C I H L.M.N.O.O.O.O.O.O.P.Q.R.R.R.R.R.R.Q.S.O.O.O.O.O.O.T.U.V.H I.W.X.            ",
"            Y.Z.I H `. +.+++++++++++++@+i.i.i.i.i.i.i.i.@+++++++++++++.+#+$+H %+&+X.            ",
"            D *+I H H =+-+;+;+;+;+;+;+;+;+;+;+;+;+;+;+;+;+;+;+;+;+;+;+;+>+H H ,+'+)+            ",
"            K !+X H H H H H H H H H H H H H H H H H H H H H H H H H H H H H H ,+~+)+            ",
"            O {+*.H H ]+^+/+/+/+/+/+/+/+/+/+/+/+/+/+/+/+/+/+/+/+/+/+/+(+_+H H ,+:+<+            ",
"            -.=.*.H [+}+|+1+1+1+1+1+1+1+1+1+1+1+1+1+1+1+1+1+1+1+1+1+1+2+3+4+H ,+5+6+            ",
"            -.].*.H 7+8+9+9+9+9+9+9+9+9+9+9+9+9+9+9+9+9+9+9+9+9+9+9+9+9+0+a+H b+c+d+            ",
"            e+f+3.H :.g+9+9+9+9+9+9+9+9+9+9+9+9+9+9+9+9+9+9+9+9+9+9+9+9+h+[.H i+j+k+            ",
"            |.l+3.H :.g+9+9+9+9+9+9+9+9+9+9+9+9+9+9+9+9+9+9+9+9+9+9+9+9+h+[.H i+m+n+            ",
"            |.o+3.H :.g+9+9+9+9+9+9+9+9+9+9+9+9+9+9+9+9+9+9+9+9+9+9+9+9+h+[.H p+q+n+            ",
"            8.r+s+H :.g+9+9+9+9+9+9+9+9+9+9+9+9+9+9+9+9+9+9+9+9+9+9+9+9+h+[.H p+t+u+            ",
"            8.e.l.H :.g+9+9+9+9+9+9+9+9+9+9+9+9+9+9+9+9+9+9+9+9+9+9+9+9+h+[.H p+v+w+            ",
"            f.x+l.H :.g+9+9+9+9+9+9+9+y+z+A+A+A+A+A+A+z+B+9+9+9+9+9+9+9+h+[.H p+C+D+            ",
"            n.E+l.H :.g+9+9+9+9+9+9+9+F+G+H+H+H+H+H+H+G+I+9+9+9+9+9+9+9+h+[.H J+K+L+            ",
"            w.D.I.H :.g+9+9+9+9+9+9+9+M+N+O+O+O+O+O+O+N+P+9+9+9+9+9+9+9+h+[.H J+Q+L+            ",
"            R+S+I.H :.g+9+9+9+9+9+9+9+T+G.H.H.H.H.H.H.G.P+9+9+9+9+9+9+9+h+[.H J+U+V+            ",
"            X.W+%+H X+Y+Z+`+`+`+`+`+`+ @.@+@+@+@+@+@+@.@@@`+`+`+`+`+`+#@$@%@H &@*@=@            ",
"            X.-@,+H ;@>@j.j.j.j.j.j.j.j.j.j.j.j.j.j.j.j.,@j.j.j.j.j.j.j.'@)@H &@!@~@            ",
"            {@]@,+H H ^@/@(@(@(@(@(@(@(@_@_@_@_@_@_@_@:@(@(@(@(@(@(@(@<@[@H H &@}@|@            ",
"            )+1@,+H H H H H H H H H H H H H H H H H H H H H H H H H H H H H H 2@3@4@            ",
"            )+5@6@7@7@8@9@9@0@a@b@b@c@c@d@d@d@e@f@g@g@h@h@i@j@j@k@l@G M M ,._.i@m@n@            ",
"            o@p@q@r@s@s@t@u@v@w@x@y@z@A@B@C@D@E@F@G@H@I@J@K@L@M@N@O@P@Q@R@S@T@U@V@W@            ",
"            + + + + + + + + + + + + + + + + + + + + + + + + + + + + + + + + + + + +             ",
"                                                                                                ",
"                                                                                                "};
