/* XPM */
static const char * wxgiscatalog16_xpm[] = {
"16 16 99 2",
"  	c None",
". 	c #E4CBA2",
"+ 	c #F0D2A3",
"@ 	c #F0D1A2",
"# 	c #EFD1A1",
"$ 	c #EFD0A0",
"% 	c #EFD09F",
"& 	c #EFCF9E",
"* 	c #EFCE9C",
"= 	c #EECE9B",
"- 	c #DDC191",
"; 	c #D0B78C",
"> 	c #E2B165",
", 	c #DFAA57",
"' 	c #E1B062",
") 	c #C8AB7A",
"! 	c #C4A66F",
"~ 	c #BF7C11",
"{ 	c #B37614",
"] 	c #B47614",
"^ 	c #C07C11",
"/ 	c #BC995C",
"( 	c #C2A26C",
"_ 	c #B6851F",
": 	c #E1BC03",
"< 	c #E2BD02",
"[ 	c #E0BB03",
"} 	c #B58522",
"| 	c #BB9758",
"1 	c #C1A068",
"2 	c #B98B22",
"3 	c #FFDC00",
"4 	c #B68723",
"5 	c #B99454",
"6 	c #BF9D64",
"7 	c #C9A203",
"8 	c #AA7F05",
"9 	c #CBA303",
"0 	c #B79251",
"a 	c #BE9C61",
"b 	c #B78822",
"c 	c #F2CE01",
"d 	c #F3CF01",
"e 	c #B38505",
"f 	c #AF6D03",
"g 	c #F1CD01",
"h 	c #B68724",
"i 	c #B68F4D",
"j 	c #BD9A5D",
"k 	c #C1801A",
"l 	c #BE8B2E",
"m 	c #BE8B2D",
"n 	c #B48127",
"o 	c #A87620",
"p 	c #B48227",
"q 	c #C4841E",
"r 	c #B48D49",
"s 	c #BB9759",
"t 	c #A17F32",
"u 	c #648C73",
"v 	c #638C75",
"w 	c #658A71",
"x 	c #A78134",
"y 	c #B28B44",
"z 	c #B99555",
"A 	c #8A8551",
"B 	c #00C0FF",
"C 	c #8E824B",
"D 	c #B18841",
"E 	c #B89252",
"F 	c #13AFD9",
"G 	c #2B99A9",
"H 	c #12AFDB",
"I 	c #AF863D",
"J 	c #B6904E",
"K 	c #597E61",
"L 	c #A46703",
"M 	c #AD8339",
"N 	c #B48D4A",
"O 	c #AD8636",
"P 	c #758C6A",
"Q 	c #748C6A",
"R 	c #7E7640",
"S 	c #896C26",
"T 	c #758B68",
"U 	c #B38939",
"V 	c #AD8135",
"W 	c #B79253",
"X 	c #C9943E",
"Y 	c #C9933C",
"Z 	c #C8923B",
"` 	c #C89139",
" .	c #C78F37",
"..	c #C78E35",
"+.	c #C68E33",
"@.	c #C68D31",
"#.	c #C58B30",
"$.	c #C58A2E",
"%.	c #AB8239",
"                                ",
"      . + @ # $ % & * = -       ",
"    ; > , , , , , , , , ' )     ",
"    ! ~ { ] ] ] ] ] ] { ^ /     ",
"    ( _ : < < < < < < [ } |     ",
"    1 2 3 3 3 3 3 3 3 3 4 5     ",
"    6 2 3 3 7 8 8 9 3 3 4 0     ",
"    a b c d e f f e d g h i     ",
"    j k l m n o o p m l q r     ",
"    s t u v v v v v v w x y     ",
"    z A B B B B B B B B C D     ",
"    E A B B F G G H B B C I     ",
"    J A B B K L L K B B C M     ",
"    N O P Q R S S R Q T U V     ",
"    W X Y Z `  ...+.@.#.$.%.    ",
"                                "};
