/* XPM */
static const char * wxgiscatalog_x16_xpm[] = {
"16 16 99 2",
"  	c None",
". 	c #E4CBA2",
"+ 	c #F0D2A3",
"@ 	c #F0D1A2",
"# 	c #EFD1A1",
"$ 	c #EFD0A0",
"% 	c #EFD09F",
"& 	c #EFCF9E",
"* 	c #EFCE9C",
"= 	c #EECE9B",
"- 	c #DDC191",
"; 	c #D0B78C",
"> 	c #E2B165",
", 	c #DFAA57",
"' 	c #E1B062",
") 	c #C8AB7A",
"! 	c #C4A66F",
"~ 	c #BF7C11",
"{ 	c #B37614",
"] 	c #B47614",
"^ 	c #C07C11",
"/ 	c #BC995C",
"( 	c #C2A26C",
"_ 	c #B68944",
": 	c #E1D7C8",
"< 	c #E2D9C9",
"[ 	c #E0D6C5",
"} 	c #B58943",
"| 	c #BB9758",
"1 	c #C1A068",
"2 	c #B99151",
"3 	c #FFFFFF",
"4 	c #B68D4B",
"5 	c #B99454",
"6 	c #BF9D64",
"7 	c #C9B697",
"8 	c #AA8955",
"9 	c #CBB798",
"0 	c #B79251",
"a 	c #BE9C61",
"b 	c #B78E4C",
"c 	c #F2EDE6",
"d 	c #F3EFE8",
"e 	c #B39159",
"f 	c #AF6D03",
"g 	c #F1ECE4",
"h 	c #B68B48",
"i 	c #B68F4D",
"j 	c #BD9A5D",
"k 	c #C1801A",
"l 	c #BE8F43",
"m 	c #BE8E43",
"n 	c #B48439",
"o 	c #A8782D",
"p 	c #BE8D42",
"q 	c #C4841E",
"r 	c #B48D49",
"s 	c #BB9759",
"t 	c #B86E1B",
"u 	c #C14616",
"v 	c #C14516",
"w 	c #BF4616",
"x 	c #BB7220",
"y 	c #B28B44",
"z 	c #B99555",
"A 	c #B96222",
"B 	c #FF0000",
"C 	c #B66423",
"D 	c #B18841",
"E 	c #B89252",
"F 	c #EB0C01",
"G 	c #D11C03",
"H 	c #EC0C01",
"I 	c #AF863D",
"J 	c #B6904E",
"K 	c #B43905",
"L 	c #A46703",
"M 	c #AD8339",
"N 	c #B48D4A",
"O 	c #BF7825",
"P 	c #BF541F",
"Q 	c #C0541F",
"R 	c #A95615",
"S 	c #A05A0F",
"T 	c #BE541F",
"U 	c #C27E2A",
"V 	c #AD8135",
"W 	c #B79253",
"X 	c #C9943E",
"Y 	c #C9933C",
"Z 	c #C8923B",
"` 	c #C89139",
" .	c #C78F37",
"..	c #C78E35",
"+.	c #C68E33",
"@.	c #C68D31",
"#.	c #C58B30",
"$.	c #C58A2E",
"%.	c #AB8239",
"                                ",
"      . + @ # $ % & * = -       ",
"    ; > , , , , , , , , ' )     ",
"    ! ~ { ] ] ] ] ] ] { ^ /     ",
"    ( _ : < < < < < < [ } |     ",
"    1 2 3 3 3 3 3 3 3 3 4 5     ",
"    6 2 3 3 7 8 8 9 3 3 4 0     ",
"    a b c d e f f e d g h i     ",
"    j k l m n o o n m p q r     ",
"    s t u v v v v v v w x y     ",
"    z A B B B B B B B B C D     ",
"    E A B B F G G H B B C I     ",
"    J A B B K L L K B B C M     ",
"    N O P Q R S S R Q T U V     ",
"    W X Y Z `  ...+.@.#.$.%.    ",
"                                "};
