/* XPM */
static const char * wxgiscatalog_x48_xpm[] = {
"48 48 368 2",
"  	c None",
". 	c #484429",
"+ 	c #444329",
"@ 	c #716642",
"# 	c #F5E9D5",
"$ 	c #F9F0E2",
"% 	c #F9F0E1",
"& 	c #F9EFE0",
"* 	c #F9EFDF",
"= 	c #F8EEDE",
"- 	c #F8EDDC",
"; 	c #F8EDDB",
"> 	c #F8ECDA",
", 	c #F7ECD9",
"' 	c #F7EBD8",
") 	c #F7EAD6",
"! 	c #F7EAD5",
"~ 	c #F6E9D4",
"{ 	c #F6E8D3",
"] 	c #F6E8D2",
"^ 	c #F6E8D1",
"/ 	c #F6E7D0",
"( 	c #F5E7CF",
"_ 	c #F5E6CE",
": 	c #EFDCBE",
"< 	c #685F3B",
"[ 	c #706543",
"} 	c #FAF1E4",
"| 	c #F9ECD7",
"1 	c #F1D2A2",
"2 	c #F1D2A1",
"3 	c #F1D1A1",
"4 	c #F1D1A0",
"5 	c #F0D19F",
"6 	c #F0D09F",
"7 	c #F0D09E",
"8 	c #F0D09D",
"9 	c #F0CF9C",
"0 	c #F0CF9B",
"a 	c #F0CE9A",
"b 	c #F6E3C6",
"c 	c #F4E3CA",
"d 	c #685F3C",
"e 	c #FAF1E3",
"f 	c #F9EBD5",
"g 	c #EABC73",
"h 	c #E9B96E",
"i 	c #EABB73",
"j 	c #F6E2C3",
"k 	c #F3E2C7",
"l 	c #685E3B",
"m 	c #6E6442",
"n 	c #F9EAD4",
"o 	c #EABB72",
"p 	c #F6E1C1",
"q 	c #F3E1C5",
"r 	c #695F3B",
"s 	c #5C5435",
"t 	c #F8EAD4",
"u 	c #F5E0BE",
"v 	c #F2E0C2",
"w 	c #595232",
"x 	c #746A46",
"y 	c #FBF7F0",
"z 	c #CF963B",
"A 	c #CA8A25",
"B 	c #CE9337",
"C 	c #EFDDC1",
"D 	c #6E623E",
"E 	c #736945",
"F 	c #FAF5ED",
"G 	c #C68826",
"H 	c #C17D11",
"I 	c #C58621",
"J 	c #EDDABC",
"K 	c #6E623D",
"L 	c #F9F3EA",
"M 	c #C68825",
"N 	c #EDD8B8",
"O 	c #6D623D",
"P 	c #736944",
"Q 	c #F9F2E7",
"R 	c #C07D11",
"S 	c #A66C0F",
"T 	c #986513",
"U 	c #986514",
"V 	c #996614",
"W 	c #AC7012",
"X 	c #C58521",
"Y 	c #ECD7B5",
"Z 	c #6D613D",
"` 	c #726844",
" .	c #F8F0E4",
"..	c #A86D11",
"+.	c #805613",
"@.	c #AB8F63",
"#.	c #AC9166",
"$.	c #A88B5E",
"%.	c #7C520D",
"&.	c #B67C1F",
"*.	c #C58520",
"=.	c #EBD5B2",
"-.	c #6D613C",
";.	c #726843",
">.	c #F7EEE0",
",.	c #C68824",
"'.	c #9D6A1A",
").	c #A78A5B",
"!.	c #FFFFFF",
"~.	c #967239",
"{.	c #AE7D2E",
"].	c #EAD3AF",
"^.	c #6C613C",
"/.	c #726743",
"(.	c #F6EDDD",
"_.	c #C68724",
":.	c #9D6B1C",
"<.	c #A88B5D",
"[.	c #97733B",
"}.	c #AF7F31",
"|.	c #E9D2AC",
"1.	c #6C603B",
"2.	c #716742",
"3.	c #F5EBDA",
"4.	c #C5851F",
"5.	c #E9D0A9",
"6.	c #F5E9D7",
"7.	c #C68723",
"8.	c #E8CEA5",
"9.	c #6B5F3A",
"0.	c #716641",
"a.	c #F4E8D4",
"b.	c #E7CDA3",
"c.	c #706641",
"d.	c #F3E6D0",
"e.	c #C5841F",
"f.	c #E6CA9F",
"g.	c #6B5F39",
"h.	c #F2E4CE",
"i.	c #C2AF8F",
"j.	c #7C510C",
"k.	c #7B500B",
"l.	c #C7B496",
"m.	c #C4841E",
"n.	c #E5C99C",
"o.	c #6A5E39",
"p.	c #706540",
"q.	c #F1E2CB",
"r.	c #C68622",
"s.	c #957138",
"t.	c #895807",
"u.	c #965E04",
"v.	c #997740",
"w.	c #E4C799",
"x.	c #6A5E38",
"y.	c #6F6540",
"z.	c #F0E0C7",
"A.	c #C58622",
"B.	c #957137",
"C.	c #955E06",
"D.	c #AC6B02",
"E.	c #99773F",
"F.	c #E4C596",
"G.	c #6F643F",
"H.	c #F0DFC4",
"I.	c #996106",
"J.	c #B47002",
"K.	c #C4841D",
"L.	c #E3C493",
"M.	c #695D38",
"N.	c #A6721F",
"O.	c #8F6A2E",
"P.	c #DBD0BD",
"Q.	c #DED3C2",
"R.	c #8F692D",
"S.	c #915C08",
"T.	c #A46705",
"U.	c #936E33",
"V.	c #D9CDB9",
"W.	c #855D1C",
"X.	c #B98737",
"Y.	c #E2C290",
"Z.	c #695D37",
"`.	c #6E643E",
" +	c #EEDBBE",
".+	c #BE7D18",
"++	c #976C27",
"@+	c #7F5410",
"#+	c #7E540F",
"$+	c #7D520D",
"%+	c #7C510B",
"&+	c #7F5510",
"*+	c #9F732D",
"=+	c #CB8E2F",
"-+	c #C4831D",
";+	c #E1C08C",
">+	c #EDDABB",
",+	c #C5841B",
"'+	c #D19535",
")+	c #D19537",
"!+	c #CA8A26",
"~+	c #C4831C",
"{+	c #E0BF89",
"]+	c #685C36",
"^+	c #ECD8B7",
"/+	c #E0BD87",
"(+	c #ECD6B4",
"_+	c #AF710F",
":+	c #9F6810",
"<+	c #9F6811",
"[+	c #A06911",
"}+	c #B27410",
"|+	c #DFBB83",
"1+	c #685B35",
"2+	c #AC7011",
"3+	c #7D500C",
"4+	c #9C420C",
"5+	c #9F400C",
"6+	c #99440C",
"7+	c #7C500B",
"8+	c #B97C1C",
"9+	c #DEBA80",
"0+	c #675B35",
"a+	c #9D6A19",
"b+	c #A53909",
"c+	c #FF0000",
"d+	c #94470C",
"e+	c #AE7C2D",
"f+	c #C4831B",
"g+	c #DDB87C",
"h+	c #675B34",
"i+	c #6C603C",
"j+	c #E9D1AB",
"k+	c #A83608",
"l+	c #97450C",
"m+	c #C4821B",
"n+	c #DCB67A",
"o+	c #665A34",
"p+	c #E8D0A8",
"q+	c #DCB577",
"r+	c #665A33",
"s+	c #E7CEA4",
"t+	c #C3821A",
"u+	c #DBB373",
"v+	c #E7CCA2",
"w+	c #C5841E",
"x+	c #DAB170",
"y+	c #655933",
"z+	c #D9AF6D",
"A+	c #655932",
"B+	c #E5C89B",
"C+	c #CF1D04",
"D+	c #89480A",
"E+	c #88490A",
"F+	c #D21B04",
"G+	c #D8AD6A",
"H+	c #655832",
"I+	c #E4C798",
"J+	c #954109",
"K+	c #865608",
"L+	c #905B05",
"M+	c #9A3E08",
"N+	c #C38119",
"O+	c #D7AC67",
"P+	c #645831",
"Q+	c #954209",
"R+	c #945E06",
"S+	c #AA6A02",
"T+	c #993F08",
"U+	c #D6AA63",
"V+	c #695E38",
"W+	c #E3C392",
"X+	c #954309",
"Y+	c #994008",
"Z+	c #D6A860",
"`+	c #645730",
" @	c #E2C28F",
".@	c #A4701E",
"+@	c #95440B",
"@@	c #EC0C02",
"#@	c #EE0A01",
"$@	c #924409",
"%@	c #945E07",
"&@	c #AB6B03",
"*@	c #964209",
"=@	c #EA0D02",
"-@	c #894C0D",
";@	c #B68536",
">@	c #C38118",
",@	c #D5A75E",
"'@	c #635730",
")@	c #E1C08B",
"!@	c #BC7E1B",
"~@	c #8A5915",
"{@	c #915F1B",
"]@	c #CB9034",
"^@	c #D4A55B",
"/@	c #63572F",
"(@	c #685C37",
"_@	c #E0BE88",
":@	c #C88923",
"<@	c #CD953B",
"[@	c #CD963E",
"}@	c #C8923B",
"|@	c #C9923B",
"1@	c #CE963D",
"2@	c #CE9130",
"3@	c #D3A357",
"4@	c #63562F",
"5@	c #DFBD86",
"6@	c #C38117",
"7@	c #D3A254",
"8@	c #62562E",
"9@	c #DEBB82",
"0@	c #CB9238",
"a@	c #C98E30",
"b@	c #C98E2F",
"c@	c #C98D2F",
"d@	c #C98D2E",
"e@	c #C88D2D",
"f@	c #C88C2D",
"g@	c #C88C2C",
"h@	c #C88B2B",
"i@	c #C88B2A",
"j@	c #C78B2A",
"k@	c #C78A29",
"l@	c #C78A28",
"m@	c #C78928",
"n@	c #C78927",
"o@	c #C78926",
"p@	c #C68926",
"q@	c #D2A050",
"r@	c #62552E",
"s@	c #645935",
"t@	c #D5B37A",
"u@	c #D5B278",
"v@	c #D4B177",
"w@	c #D4B075",
"x@	c #D3AF73",
"y@	c #D2AE71",
"z@	c #D2AD70",
"A@	c #D2AC6E",
"B@	c #D1AB6D",
"C@	c #D1AB6C",
"D@	c #D0AA6A",
"E@	c #D0A969",
"F@	c #CFA867",
"G@	c #CFA766",
"H@	c #CFA765",
"I@	c #CEA663",
"J@	c #CEA562",
"K@	c #CDA461",
"L@	c #CDA35F",
"M@	c #CCA35E",
"N@	c #CCA25C",
"O@	c #CCA15B",
"P@	c #CBA05A",
"Q@	c #CBA059",
"R@	c #CA9F57",
"S@	c #CA9E55",
"T@	c #C99D54",
"U@	c #C99C53",
"V@	c #C99C52",
"W@	c #C89B50",
"X@	c #C89A4E",
"Y@	c #C7994D",
"Z@	c #C7984C",
"`@	c #5E532E",
"                                                                                                ",
"                                                                                                ",
"                    . + + + + + + + + + + + + + + + + + + + + + + + + + + .                     ",
"                  . @ # $ % & * = = - - ; > , ' ' ) ! ! ~ { ] ^ / ( _ _ : < .                   ",
"                . [ } | 1 1 1 2 2 3 4 4 4 5 5 6 7 7 7 8 8 9 9 9 0 0 0 a b c d .                 ",
"              . [ e f g h h h h h h h h h h h h h h h h h h h h h h h h i j k l .               ",
"            . m $ n g h h h h h h h h h h h h h h h h h h h h h h h h h h o p q r .             ",
"            s & t g h h h h h h h h h h h h h h h h h h h h h h h h h h h h o u v w             ",
"            x y z A A A A A A A A A A A A A A A A A A A A A A A A A A A A A A B C D             ",
"            E F G H H H H H H H H H H H H H H H H H H H H H H H H H H H H H H I J K             ",
"            E L M H H H H H H H H H H H H H H H H H H H H H H H H H H H H H H I N O             ",
"            P Q M H R S T U U U U U U U U U U U U U U U U U U U U U U V W H H X Y Z             ",
"            `  .M H ..+.@.#.#.#.#.#.#.#.#.#.#.#.#.#.#.#.#.#.#.#.#.#.#.$.%.&.H *.=.-.            ",
"            ;.>.,.H '.).!.!.!.!.!.!.!.!.!.!.!.!.!.!.!.!.!.!.!.!.!.!.!.!.~.{.H *.].^.            ",
"            /.(._.H :.<.!.!.!.!.!.!.!.!.!.!.!.!.!.!.!.!.!.!.!.!.!.!.!.!.[.}.H *.|.1.            ",
"            2.3._.H :.<.!.!.!.!.!.!.!.!.!.!.!.!.!.!.!.!.!.!.!.!.!.!.!.!.[.}.H 4.5.1.            ",
"            2.6.7.H :.<.!.!.!.!.!.!.!.!.!.!.!.!.!.!.!.!.!.!.!.!.!.!.!.!.[.}.H 4.8.9.            ",
"            0.a.7.H :.<.!.!.!.!.!.!.!.!.!.!.!.!.!.!.!.!.!.!.!.!.!.!.!.!.[.}.H 4.b.9.            ",
"            c.d.7.H :.<.!.!.!.!.!.!.!.!.!.!.!.!.!.!.!.!.!.!.!.!.!.!.!.!.[.}.H e.f.g.            ",
"            c.h.7.H :.<.!.!.!.!.!.!.!.i.j.k.k.k.k.k.k.j.l.!.!.!.!.!.!.!.[.}.H m.n.o.            ",
"            p.q.r.H :.<.!.!.!.!.!.!.!.s.t.u.u.u.u.u.u.t.v.!.!.!.!.!.!.!.[.}.H m.w.x.            ",
"            y.z.A.H :.<.!.!.!.!.!.!.!.B.C.D.D.D.D.D.D.C.E.!.!.!.!.!.!.!.[.}.H m.F.x.            ",
"            G.H.A.H :.<.!.!.!.!.!.!.!.B.I.J.J.J.J.J.J.I.E.!.!.!.!.!.!.!.[.}.H K.L.M.            ",
"            G.C I H N.O.P.Q.Q.Q.Q.Q.Q.R.S.T.T.T.T.T.T.S.U.Q.Q.Q.Q.Q.Q.V.W.X.H K.Y.Z.            ",
"            `. +I H .+++@+#+#+#+#+#+#+$+%+%+%+%+%+%+%+%+$+#+#+#+#+#+#+&+*+=+H -+;+Z.            ",
"            D >+I H H ,+'+)+)+)+)+)+)+)+)+)+)+)+)+)+)+)+)+)+)+)+)+)+)+)+!+H H ~+{+]+            ",
"            K ^+X H H H H H H H H H H H H H H H H H H H H H H H H H H H H H H ~+/+]+            ",
"            O (+*.H H _+:+<+<+<+<+<+<+<+<+<+<+<+<+<+<+<+<+<+<+<+<+<+<+[+}+H H ~+|+1+            ",
"            -.=.*.H 2+3+4+5+5+5+5+5+5+5+5+5+5+5+5+5+5+5+5+5+5+5+5+5+5+6+7+8+H ~+9+0+            ",
"            -.].*.H a+b+c+c+c+c+c+c+c+c+c+c+c+c+c+c+c+c+c+c+c+c+c+c+c+c+d+e+H f+g+h+            ",
"            i+j+4.H :.k+c+c+c+c+c+c+c+c+c+c+c+c+c+c+c+c+c+c+c+c+c+c+c+c+l+}.H m+n+o+            ",
"            1.p+4.H :.k+c+c+c+c+c+c+c+c+c+c+c+c+c+c+c+c+c+c+c+c+c+c+c+c+l+}.H m+q+r+            ",
"            1.s+4.H :.k+c+c+c+c+c+c+c+c+c+c+c+c+c+c+c+c+c+c+c+c+c+c+c+c+l+}.H t+u+r+            ",
"            9.v+w+H :.k+c+c+c+c+c+c+c+c+c+c+c+c+c+c+c+c+c+c+c+c+c+c+c+c+l+}.H t+x+y+            ",
"            9.f.m.H :.k+c+c+c+c+c+c+c+c+c+c+c+c+c+c+c+c+c+c+c+c+c+c+c+c+l+}.H t+z+A+            ",
"            g.B+m.H :.k+c+c+c+c+c+c+c+C+D+E+E+E+E+E+E+D+F+c+c+c+c+c+c+c+l+}.H t+G+H+            ",
"            o.I+m.H :.k+c+c+c+c+c+c+c+J+K+L+L+L+L+L+L+K+M+c+c+c+c+c+c+c+l+}.H N+O+P+            ",
"            x.F.K.H :.k+c+c+c+c+c+c+c+Q+R+S+S+S+S+S+S+R+T+c+c+c+c+c+c+c+l+}.H N+U+P+            ",
"            V+W+K.H :.k+c+c+c+c+c+c+c+X+I.J.J.J.J.J.J.I.Y+c+c+c+c+c+c+c+l+}.H N+Z+`+            ",
"            Z. @-+H .@+@@@#@#@#@#@#@#@$@%@&@&@&@&@&@&@%@*@#@#@#@#@#@#@=@-@;@H >@,@'@            ",
"            Z.)@~+H !@~@k.k.k.k.k.k.k.k.k.k.k.k.k.k.k.k.7+k.k.k.k.k.k.k.{@]@H >@^@/@            ",
"            (@_@~+H H :@<@[@[@[@[@[@[@[@}@}@}@}@}@}@}@|@[@[@[@[@[@[@[@1@2@H H >@3@4@            ",
"            ]+5@~+H H H H H H H H H H H H H H H H H H H H H H H H H H H H H H 6@7@8@            ",
"            ]+9@0@a@a@b@c@c@d@e@f@f@g@g@h@h@h@i@j@k@k@l@l@m@n@n@o@p@G M M ,._.m@q@r@            ",
"            s@t@u@v@w@w@x@y@z@A@B@C@D@E@F@G@H@I@J@K@L@M@N@O@P@Q@R@S@T@U@V@W@X@Y@Z@`@            ",
"            + + + + + + + + + + + + + + + + + + + + + + + + + + + + + + + + + + + +             ",
"                                                                                                ",
"                                                                                                "};
