/* XPM */
static const char *zoomout_xpm[] = {
/* width height num_colors chars_per_pixel */
"    16    16      256            2",
/* colors */
"`` c None",
"`. c #89a8cf",
"`# c #6790c1",
"`a c #668fc0",
"`b c #83a5cb",
"`c c #5a87bc",
"`d c #6296ce",
"`e c #81b2e0",
"`f c #9ac4ea",
"`g c #92bfe8",
"`h c #75abde",
"`i c #5d94cd",
"`j c #5684ba",
"`k c #5688bf",
"`l c #92bee7",
"`m c #d6e7f6",
"`n c #ddebf8",
"`o c #d6e7f7",
"`p c #cfe3f5",
"`q c #c8dff4",
"`r c #b3d3ef",
"`s c #79b0e2",
"`t c #598cc3",
"`u c #598bc1",
"`v c #a5caec",
"`w c #dcebf8",
"`x c #e4eff9",
"`y c #e1eef9",
"`z c #d9e9f7",
"`A c #d1e4f6",
"`B c #c9dff4",
"`C c #c1daf2",
"`D c #b5d4f0",
"`E c #7fb4e5",
"`F c #5c8fc6",
"`G c #5f89bc",
"`H c #81b3e3",
"`I c #d1e4f5",
"`J c #d8e8f7",
"`K c #dceaf8",
"`L c #c7def3",
"`M c #c0daf2",
"`N c #b8d5f0",
"`O c #80b5e5",
"`P c #6da9e0",
"`Q c #5a86bc",
"`R c #5b91c9",
"`S c #adcfee",
"`T c #cce1f4",
"`U c #d4e6f6",
"`V c #d3e5f6",
"`W c #cae0f4",
"`X c #c3dcf3",
"`Y c #bcd8f1",
"`Z c #b3d2ef",
"`0 c #70abe1",
"`1 c #6eaae1",
"`2 c #5d95cf",
"`3 c #9fb8d7",
"`4 c #619ad3",
"`5 c #9fc0e2",
"`6 c #7fa3cd",
"`7 c #7fa4cd",
"`8 c #7ea2cc",
".` c #7ca1cb",
".. c #7aa0cb",
".# c #789ecb",
".a c #759dca",
".b c #6895c7",
".c c #5389c3",
".d c #5e97cf",
".e c #68a3db",
".f c #7b9fc9",
".g c #7196c4",
".h c #73ace0",
".i c #7aa1cd",
".j c #a4bddb",
".k c #9fbbda",
".l c #a0bcdb",
".m c #9cb8da",
".n c #9ab6d7",
".o c #95b4d6",
".p c #91b0d4",
".q c #8eadd2",
".r c #8aabd0",
".s c #8cabd0",
".t c #5284bd",
".u c #638ebf",
".v c #7196c5",
".w c #6ca8df",
".x c #739dcb",
".y c #96b4d7",
".z c #8eb0d5",
".A c #8aacd3",
".B c #87aad1",
".C c #82a5ce",
".D c #789dc9",
".E c #739ac5",
".F c #6d95c2",
".G c #6f97c4",
".H c #4f82bc",
".I c #648ec0",
".J c #a0bad7",
".K c #609ad3",
".L c #7daad8",
".M c #6692c4",
".N c #6892c4",
".O c #6993c4",
".P c #6993c5",
".Q c #6a94c6",
".R c #6592c5",
".S c #5689c2",
".T c #5387c1",
".U c #5186c1",
".V c #5186c0",
".W c #5c93cd",
".X c #7c9fc8",
".Y c #5c90c8",
".Z c #74ade2",
".0 c #81b5e5",
".1 c #8dbce7",
".2 c #8fbde8",
".3 c #84b7e6",
".4 c #79b0e3",
".5 c #5c96ce",
".6 c #608bbe",
".7 c #6aa6dd",
".8 c #5a87bb",
"#` c #5989c1",
"#. c #5b8fc6",
"## c #5588be",
"#a c #6aa5dd",
"#b c #6ca7df",
"#c c #588ac2",
"#d c #5c86ba",
"#e c #5b92cb",
"#f c #649ed7",
"#g c #6ea9e1",
"#h c #65a0d8",
"#i c #5b92cc",
"#j c #5785b9",
"#k c #91afd2",
"#l c #6a93c2",
"#m c #6790c2",
"#n c #8caacf",
"#o c #000000",
"#p c #000000",
"#q c #000000",
"#r c #000000",
"#s c #000000",
"#t c #000000",
"#u c #000000",
"#v c #000000",
"#w c #000000",
"#x c #000000",
"#y c #000000",
"#z c #000000",
"#A c #000000",
"#B c #000000",
"#C c #000000",
"#D c #000000",
"#E c #000000",
"#F c #000000",
"#G c #000000",
"#H c #000000",
"#I c #000000",
"#J c #000000",
"#K c #000000",
"#L c #000000",
"#M c #000000",
"#N c #000000",
"#O c #000000",
"#P c #000000",
"#Q c #000000",
"#R c #000000",
"#S c #000000",
"#T c #000000",
"#U c #000000",
"#V c #000000",
"#W c #000000",
"#X c #000000",
"#Y c #000000",
"#Z c #000000",
"#0 c #000000",
"#1 c #000000",
"#2 c #000000",
"#3 c #000000",
"#4 c #000000",
"#5 c #000000",
"#6 c #000000",
"#7 c #000000",
"#8 c #000000",
"a` c #000000",
"a. c #000000",
"a# c #000000",
"aa c #000000",
"ab c #000000",
"ac c #000000",
"ad c #000000",
"ae c #000000",
"af c #000000",
"ag c #000000",
"ah c #000000",
"ai c #000000",
"aj c #000000",
"ak c #000000",
"al c #000000",
"am c #000000",
"an c #000000",
"ao c #000000",
"ap c #000000",
"aq c #000000",
"ar c #000000",
"as c #000000",
"at c #000000",
"au c #000000",
"av c #000000",
"aw c #000000",
"ax c #000000",
"ay c #000000",
"az c #000000",
"aA c #000000",
"aB c #000000",
"aC c #000000",
"aD c #000000",
"aE c #000000",
"aF c #000000",
"aG c #000000",
"aH c #000000",
"aI c #000000",
"aJ c #000000",
"aK c #000000",
"aL c #000000",
"aM c #000000",
"aN c #000000",
"aO c #000000",
"aP c #000000",
"aQ c #000000",
"aR c #000000",
"aS c #000000",
"aT c #000000",
"aU c #000000",
"aV c #000000",
"aW c #000000",
"aX c #000000",
"aY c #000000",
"aZ c #000000",
"a0 c #000000",
"a1 c #000000",
"a2 c #000000",
"a3 c #000000",
"a4 c #000000",
"a5 c #000000",
"a6 c #000000",
"a7 c #000000",
"a8 c #000000",
/* pixels */
"`````````````.`#`a`b````````````",
"`````````c`d`e`f`g`h`i`j````````",
"```````k`l`m`n`o`p`q`r`s`t``````",
"`````u`v`w`x`y`z`A`B`C`D`E`F````",
"```G`H`I`J`n`K`o`p`L`M`N`O`P`Q``",
"```R`S`T`I`U`V`p`W`X`Y`Z`0`1`2``",
"`3`4`5`6`7`6`8.`...#.a.b.c.d.e.f",
".g.h.i.j.k.l.m.n.o.p.q.r.s.t`1.u",
".v.w.x.y.z.A.B.C`8.D.E.F.G.H`1.I",
".J.K.L.M.N.O.P.Q.R.S.T.U.V.W.e.X",
"``.Y.Z.0.1.2.3.4`1`1`1`1`1`1.5``",
"``.6.7`1`1`1`1`1`1`1`1`1`1`P.8``",
"````#``1`1`1`1`1`1`1`1`1`1#.````",
"``````###a`1`1`1`1`1`1#b#c``````",
"````````#d#e#f#g`1#h#i#j````````",
"````````````#k#l#m#n````````````"
};
