/* XPM */
static const char *zoomin_xpm[] = {
/* width height num_colors chars_per_pixel */
"    16    16      256            2",
/* colors */
"`` c None",
"`. c #89a8cf",
"`# c #6790c1",
"`a c #668fc0",
"`b c #83a5cb",
"`c c #5a87bc",
"`d c #6296ce",
"`e c #81b2e0",
"`f c #9ac4ea",
"`g c #92bfe8",
"`h c #75abde",
"`i c #5d94cd",
"`j c #5684ba",
"`k c #5688bf",
"`l c #92bee7",
"`m c #d6e7f6",
"`n c #ddebf8",
"`o c #d6e7f7",
"`p c #cfe3f5",
"`q c #c8dff4",
"`r c #b3d3ef",
"`s c #79b0e2",
"`t c #598cc3",
"`u c #598bc1",
"`v c #a5caec",
"`w c #dcebf8",
"`x c #e4eff9",
"`y c #c5d7eb",
"`z c #7598c6",
"`A c #7398c5",
"`B c #86a8d0",
"`C c #c1daf2",
"`D c #b5d4f0",
"`E c #7fb4e5",
"`F c #5c8fc6",
"`G c #5f89bc",
"`H c #81b3e3",
"`I c #d1e4f5",
"`J c #d8e8f7",
"`K c #adc4e0",
"`L c #9fbad8",
"`M c #abc4e0",
"`N c #7297c4",
"`O c #c0daf2",
"`P c #b8d5f0",
"`Q c #80b5e5",
"`R c #6da9e0",
"`S c #5a86bc",
"`T c #5b91c9",
"`U c #adcfee",
"`V c #cce1f4",
"`W c #d4e6f6",
"`X c #a6c1df",
"`Y c #9cb7d7",
"`Z c #96b5d7",
"`0 c #7196c4",
"`1 c #bcd8f1",
"`2 c #b3d2ef",
"`3 c #70abe1",
"`4 c #6eaae1",
"`5 c #5d95cf",
"`6 c #9fb8d7",
"`7 c #619ad3",
"`8 c #bad7f1",
".` c #adcae7",
".. c #a2bfdf",
".# c #82a5cd",
".a c #9bb6d7",
".b c #95b3d6",
".c c #668ebe",
".d c #92b5db",
".e c #7ea9d6",
".f c #5e97d0",
".g c #6ea9e1",
".h c #68a3db",
".i c #7b9fc9",
".j c #73ace0",
".k c #6991c1",
".l c #99b5d6",
".m c #96b3d5",
".n c #9fbbda",
".o c #90aed3",
".p c #90aed2",
".q c #88a8ce",
".r c #83a5cc",
".s c #5f89ba",
".t c #6ca8df",
".u c #638ebf",
".v c #7196c5",
".w c #aacded",
".x c #6891c1",
".y c #9dbcdc",
".z c #86aad1",
".A c #84a8d0",
".B c #7ea3cd",
".C c #6e96c3",
".D c #769bc6",
".E c #5c87bb",
".F c #648ec0",
".G c #a0bad7",
".H c #609ad3",
".I c #94c0e9",
".J c #729bcb",
".K c #618bbe",
".L c #618bbd",
".M c #5984b9",
".N c #7198c6",
".O c #4f7cb4",
".P c #4e7eb7",
".Q c #4d7eb8",
".R c #497bb6",
".S c #7c9fc8",
".T c #5c90c8",
".U c #74ade2",
".V c #81b5e5",
".W c #8dbce7",
".X c #8fbde8",
".Y c #6da0d3",
".Z c #7298c5",
".0 c #6c94c3",
".1 c #4f81ba",
".2 c #5c96ce",
".3 c #608bbe",
".4 c #6aa6dd",
".5 c #6f96c4",
".6 c #7096c4",
".7 c #4f80b9",
".8 c #5a87bb",
"#` c #5989c1",
"#. c #629bd4",
"## c #4e7eb8",
"#a c #5180b9",
"#b c #5286c0",
"#c c #5b8fc6",
"#d c #5588be",
"#e c #6aa5dd",
"#f c #6ca7df",
"#g c #588ac2",
"#h c #5c86ba",
"#i c #5b92cb",
"#j c #649ed7",
"#k c #65a0d8",
"#l c #5b92cc",
"#m c #5785b9",
"#n c #91afd2",
"#o c #6a93c2",
"#p c #6790c2",
"#q c #8caacf",
"#r c #000000",
"#s c #000000",
"#t c #000000",
"#u c #000000",
"#v c #000000",
"#w c #000000",
"#x c #000000",
"#y c #000000",
"#z c #000000",
"#A c #000000",
"#B c #000000",
"#C c #000000",
"#D c #000000",
"#E c #000000",
"#F c #000000",
"#G c #000000",
"#H c #000000",
"#I c #000000",
"#J c #000000",
"#K c #000000",
"#L c #000000",
"#M c #000000",
"#N c #000000",
"#O c #000000",
"#P c #000000",
"#Q c #000000",
"#R c #000000",
"#S c #000000",
"#T c #000000",
"#U c #000000",
"#V c #000000",
"#W c #000000",
"#X c #000000",
"#Y c #000000",
"#Z c #000000",
"#0 c #000000",
"#1 c #000000",
"#2 c #000000",
"#3 c #000000",
"#4 c #000000",
"#5 c #000000",
"#6 c #000000",
"#7 c #000000",
"#8 c #000000",
"a` c #000000",
"a. c #000000",
"a# c #000000",
"aa c #000000",
"ab c #000000",
"ac c #000000",
"ad c #000000",
"ae c #000000",
"af c #000000",
"ag c #000000",
"ah c #000000",
"ai c #000000",
"aj c #000000",
"ak c #000000",
"al c #000000",
"am c #000000",
"an c #000000",
"ao c #000000",
"ap c #000000",
"aq c #000000",
"ar c #000000",
"as c #000000",
"at c #000000",
"au c #000000",
"av c #000000",
"aw c #000000",
"ax c #000000",
"ay c #000000",
"az c #000000",
"aA c #000000",
"aB c #000000",
"aC c #000000",
"aD c #000000",
"aE c #000000",
"aF c #000000",
"aG c #000000",
"aH c #000000",
"aI c #000000",
"aJ c #000000",
"aK c #000000",
"aL c #000000",
"aM c #000000",
"aN c #000000",
"aO c #000000",
"aP c #000000",
"aQ c #000000",
"aR c #000000",
"aS c #000000",
"aT c #000000",
"aU c #000000",
"aV c #000000",
"aW c #000000",
"aX c #000000",
"aY c #000000",
"aZ c #000000",
"a0 c #000000",
"a1 c #000000",
"a2 c #000000",
"a3 c #000000",
"a4 c #000000",
"a5 c #000000",
"a6 c #000000",
"a7 c #000000",
"a8 c #000000",
/* pixels */
"`````````````.`#`a`b````````````",
"`````````c`d`e`f`g`h`i`j````````",
"```````k`l`m`n`o`p`q`r`s`t``````",
"`````u`v`w`x`y`z`A`B`C`D`E`F````",
"```G`H`I`J`n`K`L`M`N`O`P`Q`R`S``",
"```T`U`V`I`W`X`Y`Z`0`1`2`3`4`5``",
"`6`7`8.`.....#.a.b.c.d.e.f.g.h.i",
"`0.j`P.k`Y.l.m.n.o.p.q.r.s.t`4.u",
".v.t.w.x.y.z.A.B.C.i.D`A.E.t`4.F",
".G.H.I.J.K.L.M.i.N.O.P.Q.R`R.h.S",
"``.T.U.V.W.X.Y.Z.0.1`4`4`4`4.2``",
"``.3.4`4`4`4.f.5.6.7`4`4`4`R.8``",
"````#``4`4`4#.###a#b`4`4`4#c````",
"``````#d#e`4`4`4`4`4`4#f#g``````",
"````````#h#i#j.g`4#k#l#m````````",
"````````````#n#o#p#q````````````"
};
