<?xml version="1.0" encoding="UTF-8" standalone="no"?>
<!-- Created with Inkscape (http://www.inkscape.org/) -->

<svg
   xmlns:dc="http://purl.org/dc/elements/1.1/"
   xmlns:cc="http://creativecommons.org/ns#"
   xmlns:rdf="http://www.w3.org/1999/02/22-rdf-syntax-ns#"
   xmlns:svg="http://www.w3.org/2000/svg"
   xmlns="http://www.w3.org/2000/svg"
   xmlns:sodipodi="http://sodipodi.sourceforge.net/DTD/sodipodi-0.dtd"
   xmlns:inkscape="http://www.inkscape.org/namespaces/inkscape"
   width="64"
   height="64"
   id="svg2"
   version="1.1"
   inkscape:version="0.48.4 r9939"
   sodipodi:docname="drawing.svg"
   inkscape:export-filename="D:\work\projects\art\png\marker.png"
   inkscape:export-xdpi="22.5"
   inkscape:export-ydpi="22.5">
  <defs
     id="defs4" />
  <sodipodi:namedview
     id="base"
     pagecolor="#ffffff"
     bordercolor="#666666"
     borderopacity="1.0"
     inkscape:pageopacity="0.0"
     inkscape:pageshadow="2"
     inkscape:zoom="12.78125"
     inkscape:cx="7.98044"
     inkscape:cy="32"
     inkscape:document-units="px"
     inkscape:current-layer="layer6"
     showgrid="false"
     inkscape:window-width="1680"
     inkscape:window-height="988"
     inkscape:window-x="-8"
     inkscape:window-y="-8"
     inkscape:window-maximized="1" />
  <metadata
     id="metadata7">
    <rdf:RDF>
      <cc:Work
         rdf:about="">
        <dc:format>image/svg+xml</dc:format>
        <dc:type
           rdf:resource="http://purl.org/dc/dcmitype/StillImage" />
        <dc:title></dc:title>
      </cc:Work>
    </rdf:RDF>
  </metadata>
  <g
     inkscape:label="rect"
     inkscape:groupmode="layer"
     id="layer1"
     transform="translate(0,-988.36218)"
     style="display:none">
    <rect
       style="fill:#eeeeec;fill-opacity:1;stroke:#2e3436;stroke-width:4;stroke-linejoin:round;stroke-miterlimit:4;stroke-dasharray:none"
       id="rect2985"
       width="55.393642"
       height="55.471882"
       x="4.3031788"
       y="992.62622" />
  </g>
  <g
     inkscape:groupmode="layer"
     id="layer7"
     inkscape:label="elipse"
     style="display:none">
    <path
       sodipodi:type="arc"
       style="fill:#eeeeec;fill-opacity:1;stroke:#2e3436;stroke-width:4;stroke-linecap:round;stroke-linejoin:round;stroke-miterlimit:4;stroke-opacity:1;stroke-dasharray:none;stroke-dashoffset:0"
       id="path3771"
       sodipodi:cx="32.625916"
       sodipodi:cy="37.320293"
       sodipodi:rx="26.679707"
       sodipodi:ry="16.117359"
       d="m 59.305622,37.320293 a 26.679707,16.117359 0 1 1 -53.359413,0 26.679707,16.117359 0 1 1 53.359413,0 z"
       transform="translate(-0.62591553,-5.3202934)" />
  </g>
  <g
     inkscape:groupmode="layer"
     id="layer8"
     inkscape:label="curve"
     style="display:none">
    <path
       style="fill:none;stroke:#2e3436;stroke-width:4;stroke-linecap:round;stroke-linejoin:round;stroke-miterlimit:4;stroke-opacity:1;stroke-dasharray:none"
       d="m 6.2200491,58.739329 c 0,0 7.5110029,-46.943765 12.8312959,-35.755501 5.320294,11.188264 8.762836,29.183374 12.205379,19.9511 3.442543,-9.232274 3.599022,-51.9511001 8.606357,-32.782396 5.007335,19.168704 17.91687,25.427873 17.91687,25.427873"
       id="path3776"
       inkscape:connector-curvature="0" />
  </g>
  <g
     inkscape:groupmode="layer"
     id="layer2"
     inkscape:label="poly"
     style="display:none">
    <path
       style="fill:#eeeeec;stroke:#2e3436;stroke-width:4;stroke-linecap:butt;stroke-linejoin:round;stroke-miterlimit:4;stroke-opacity:1;stroke-dasharray:none"
       d="M 4.3422984,59.853301 4.1858192,4.0684595 33.290954,12.440097 55.980441,4.5378972 35.951101,36.772616 59.814181,59.93154 z"
       id="path3756"
       inkscape:connector-curvature="0"
       sodipodi:nodetypes="ccccccc" />
  </g>
  <g
     inkscape:groupmode="layer"
     id="layer4"
     inkscape:label="line"
     style="display:none">
    <path
       style="fill:none;stroke:#2e3436;stroke-width:4.16084909;stroke-linecap:round;stroke-linejoin:round;stroke-miterlimit:4;stroke-opacity:1;stroke-dasharray:none"
       d="M 5.1268796,59.381678 22.447943,26.461256 37.646327,40.503143 42.910571,4.6183223 58.87312,22.17068 l 0,0"
       id="path3762"
       inkscape:connector-curvature="0" />
  </g>
  <g
     inkscape:groupmode="layer"
     id="layer5"
     inkscape:label="free"
     style="display:none">
    <path
       style="fill:none;stroke:#2e3436;stroke-width:4;stroke-linecap:round;stroke-linejoin:round;stroke-miterlimit:4;stroke-opacity:1;stroke-dasharray:none"
       d="M 4.4055397,59.402766 C 4.4595547,59.245421 4.6775567,58.581065 4.7728538,58.40922 4.8762693,58.222734 5.0298036,58.05794 5.1401677,57.874234 5.24442,57.7007 5.3170722,57.515061 5.4156531,57.339247 c 0.115778,-0.206484 0.2656348,-0.399851 0.367314,-0.611413 0.082761,-0.1722 0.1043263,-0.361672 0.183657,-0.534987 0.6495651,-1.810512 0.3189244,-0.441015 0.9182848,-1.604959 0.087781,-0.170469 0.103662,-0.361884 0.1836569,-0.534987 0.2265269,-0.490185 0.5223892,-0.957511 0.7346279,-1.452106 0.094916,-0.22119 0.099482,-0.463658 0.183657,-0.68784 0.069532,-0.185184 0.1970803,-0.352273 0.2754854,-0.534986 0.074949,-0.17466 0.095876,-0.364517 0.1836569,-0.534986 0.097213,-0.188784 0.2683992,-0.346817 0.3673141,-0.534987 0.1163929,-0.221419 0.1590928,-0.466421 0.2754854,-0.68784 0.098915,-0.18817 0.2511813,-0.353759 0.3673139,-0.534986 0.1288374,-0.201053 0.244876,-0.407609 0.367314,-0.611413 0.1387807,-0.231009 0.6137916,-1.090075 0.9182846,-1.452107 0.112396,-0.133635 0.253393,-0.249394 0.367314,-0.382133 0.175721,-0.204747 0.565018,-0.739693 0.826456,-0.993546 0.16903,-0.164126 0.367314,-0.305707 0.550971,-0.45856 0.09183,-0.07642 0.17572,-0.160086 0.275485,-0.22928 0.08479,-0.05881 0.197447,-0.08791 0.275486,-0.152853 0.156078,-0.129901 0.223665,-0.31908 0.367314,-0.45856 0.814942,-0.791301 -0.0089,-0.02052 0.642799,-0.382133 0.02547,-0.01414 -0.02164,-0.05842 0,-0.07642 0.05431,-0.255652 0.394893,-0.175806 0.550972,-0.305706 0.02164,-0.01802 -0.02738,-0.06504 0,-0.07642 0.05475,-0.02279 0.124265,0.01236 0.183656,0 0.569416,-0.236956 -0.04506,-0.0097 0.275486,-0.07643 0.457774,-0.09525 0.12539,-0.09651 0.734627,-0.152852 0.212956,-0.01969 0.428533,0 0.6428,0 0.183656,0 0.367314,0 0.550971,0 0.09183,0 0.184906,-0.01257 0.275486,0 0.09548,0.01324 0.183657,0.05095 0.275484,0.07642 0.183658,0.05095 0.371227,0.09302 0.550971,0.152854 0.06355,0.02116 0.120108,0.05527 0.183657,0.07642 0.08987,0.02993 0.188909,0.0404 0.275486,0.07642 0.09871,0.04107 0.180849,0.105595 0.275486,0.152852 0.211613,0.105673 0.437464,0.191778 0.642798,0.305707 0.306096,0.169837 0.07652,0.191067 0.459143,0.382133 0.199894,0.09982 0.434295,0.142513 0.6428,0.22928 0.09872,0.04107 0.180848,0.105595 0.275484,0.152854 0.0587,0.02931 0.124967,0.04712 0.183658,0.07642 0.189273,0.09452 0.359324,0.214561 0.550971,0.305706 0.237707,0.113049 0.489751,0.203804 0.734627,0.305707 0.122439,0.05095 0.240956,0.109034 0.367316,0.152853 0.241409,0.08371 0.500709,0.131937 0.734626,0.22928 0.13689,0.05697 0.23753,0.161769 0.367314,0.229279 0.116078,0.06038 0.244876,0.101903 0.367314,0.152854 0.244877,0.101901 0.481908,0.218068 0.734628,0.305706 0.1165,0.0404 0.249144,0.03954 0.367314,0.07642 0.128174,0.04001 0.23914,0.11285 0.367314,0.152853 0.236341,0.07376 0.491927,0.09515 0.734628,0.152853 0.09307,0.02213 0.180995,0.05896 0.275486,0.07642 0.526452,0.09737 0.509027,0.07642 1.010112,0.07642 0.397925,0 0.795848,0 1.193771,0 0.560607,0 0.809084,0.02211 1.377428,-0.07642 0.494213,-0.08569 0.97837,-0.207654 1.469255,-0.305706 0.274413,-0.05481 0.557097,-0.0828 0.826457,-0.152854 0.927435,-0.241212 0.395546,-0.233914 1.377427,-0.534986 0.327484,-0.100416 0.691851,-0.110083 1.010114,-0.229281 0.301929,-0.113079 0.53384,-0.329628 0.826455,-0.458558 0.231135,-0.101843 0.500711,-0.131938 0.734629,-0.229281 0.626881,-0.260869 1.832599,-1.067495 2.203883,-1.299253 0.906147,-0.565622 0.552235,-0.323985 1.377427,-0.917119 0.449718,-0.32325 1.524682,-1.052652 2.020227,-1.528533 0.20047,-0.192517 0.342116,-0.425174 0.550971,-0.611413 0.222015,-0.197976 0.512613,-0.337011 0.734628,-0.534987 0.208854,-0.18624 0.356384,-0.41476 0.55097,-0.611413 0.234314,-0.236802 0.508337,-0.445693 0.734628,-0.68784 0.776866,-0.831299 1.313426,-1.890001 1.836569,-2.827785 0.126954,-0.227574 0.232494,-0.463424 0.367316,-0.687841 0.110361,-0.183705 0.303156,-0.336657 0.367313,-0.534986 0.420232,-1.299067 0.151417,-1.088667 0.367314,-1.987092 0.0495,-0.205997 0.150297,-0.40318 0.183657,-0.611414 0.02832,-0.176764 0,-0.356657 0,-0.534986 0,-0.178329 0.0303,-0.35845 0,-0.534986 -0.06022,-0.350867 -0.402938,-1.076233 -0.642799,-1.37568 -0.193592,-0.241682 -0.430009,-0.457609 -0.642801,-0.687839 -0.09332,-0.100963 -0.167263,-0.215638 -0.275485,-0.305707 -0.108225,-0.09007 -0.259093,-0.13921 -0.367313,-0.22928 -0.19955,-0.16608 -0.351422,-0.368906 -0.550972,-0.534986 -0.108225,-0.09007 -0.246505,-0.151077 -0.367313,-0.229281 -1.041575,-0.674238 0.05914,0.01781 -0.826458,-0.534986 -0.122437,-0.07642 -0.239969,-0.158624 -0.367313,-0.22928 -0.148506,-0.0824 -0.310635,-0.146881 -0.459142,-0.22928 -0.336616,-0.186772 -0.438392,-0.317258 -0.826457,-0.458559 -0.346777,-0.12627 -1.126959,-0.338123 -1.561084,-0.458561 -0.550971,-0.152852 -1.099096,-0.313003 -1.652912,-0.45856 -0.212496,-0.05584 -0.426613,-0.107871 -0.6428,-0.152853 -0.151417,-0.03151 -0.31246,-0.03203 -0.459142,-0.07642 -0.192972,-0.05841 -0.36143,-0.16355 -0.550971,-0.229279 -0.26805,-0.09296 -0.559548,-0.134076 -0.826456,-0.22928 -0.125823,-0.04488 -0.244876,-0.101903 -0.367314,-0.152854 -0.122438,-0.05095 -0.24714,-0.0983 -0.367314,-0.152853 -0.216649,-0.09835 -0.422071,-0.213854 -0.642799,-0.305706 -0.173153,-0.07206 -0.386806,-0.06746 -0.550971,-0.152853 -0.166206,-0.08646 -0.302345,-0.207833 -0.459143,-0.305707 -0.0883,-0.05511 -0.183657,-0.101902 -0.275485,-0.152854 -0.09183,-0.05095 -0.179663,-0.107281 -0.275486,-0.152852 -0.118853,-0.05653 -0.25926,-0.08291 -0.367313,-0.152854 -0.17085,-0.110596 -0.296254,-0.263511 -0.459143,-0.382133 -0.166114,-0.120972 -0.385997,-0.183659 -0.550971,-0.305707 -0.183657,-0.152853 -0.367313,-0.305707 -0.550972,-0.458559 -0.06122,-0.07642 -0.105619,-0.16433 -0.183656,-0.229281 -0.07804,-0.06495 -0.190702,-0.09405 -0.275486,-0.152853 -0.439001,-0.304475 -0.130808,-0.130642 -0.459142,-0.458559 -0.08314,-0.08303 -0.200003,-0.141329 -0.275484,-0.229281 -0.07956,-0.09271 -0.122439,-0.203804 -0.183659,-0.305706 -0.355343,-0.591487 -0.04203,-0.01469 -0.367313,-0.91712 -0.01967,-0.05456 -0.0784,-0.09699 -0.09183,-0.152853 -0.018,-0.07494 0,-0.152854 0,-0.22928 0,-0.152853 -0.01827,-0.306465 0,-0.458559 0.01256,-0.104519 0.06122,-0.203805 0.09183,-0.305708 0.03061,-0.101902 0.06122,-0.203804 0.09183,-0.305706 0.03061,-0.101903 0.04751,-0.207355 0.09183,-0.305707 0.04806,-0.106676 0.122439,-0.203804 0.183656,-0.305706 0.06122,-0.101902 0.122439,-0.203804 0.183659,-0.305707 0.06122,-0.101902 0.122437,-0.203805 0.183657,-0.305707 0.06122,-0.101902 0.109633,-0.20987 0.183656,-0.305705 0.09427,-0.122048 0.679255,-0.8213 0.918284,-1.069974 0.149345,-0.155369 0.312369,-0.301502 0.459143,-0.45856 0.281885,-0.301638 0.554093,-0.609481 0.826457,-0.91712 0.156196,-0.176427 0.306094,-0.356657 0.459143,-0.534985 0.153047,-0.203805 0.291298,-0.415845 0.459142,-0.611414 0.450777,-0.525239 0.423117,-0.382786 0.918285,-0.840693 0.131114,-0.121248 0.237099,-0.260214 0.367313,-0.382134 0.115033,-0.107709 0.244876,-0.203804 0.367314,-0.305705 0.153047,-0.127378 0.294807,-0.2649 0.459143,-0.382134 0.264981,-0.189033 0.568215,-0.339598 0.826455,-0.534987 0.08167,-0.06179 0.09986,-0.169502 0.183657,-0.229279 0.135515,-0.09668 0.317364,-0.139046 0.459143,-0.22928 0.747402,-0.4756822 1.019512,-0.7691564 1.74474,-1.1464003 0.267242,-0.1390117 0.550971,-0.2547555 0.826456,-0.3821331 0.794059,-0.367153 0.904631,-0.4313122 1.744742,-0.7642664 0.333928,-0.1323431 0.676453,-0.2493217 1.010114,-0.3821334 0.370478,-0.1474671 0.721623,-0.3296033 1.101941,-0.4585597 0.44821,-0.1519767 0.917147,-0.2576321 1.377427,-0.3821332 0.764121,-0.2066867 1.529545,-0.4100458 2.295712,-0.6114131 0.397009,-0.1043435 0.798801,-0.1961321 1.19377,-0.3057066 2.161783,-0.5997331 -0.277635,-0.044875 3.122169,-0.8406931 1.039067,-0.2432223 0.641233,-0.091516 1.744742,-0.2292799 0.308703,-0.038539 0.607676,-0.1270021 0.918284,-0.1528533 0.304576,-0.025348 0.612662,0.014132 0.918285,0 0.246402,-0.011392 0.488393,-0.062764 0.734628,-0.076427 0.213791,-0.011863 0.429077,0.012706 0.642799,0 2.012844,-0.1196601 -1.281597,-0.076427 1.74474,-0.076427 0.239201,0 0.514273,-0.04028 0.734629,0.076427"
       id="path3765"
       inkscape:connector-curvature="0"
       sodipodi:nodetypes="csssscssssssssssssssscsccscccssscssscssscccsscccsccsccssscsssssssssssssssccscscssssscssscccsccscccsccsccccccsccsssscssssssscsscssccssssssssssssssssc" />
  </g>
  <g
     inkscape:groupmode="layer"
     id="layer6"
     inkscape:label="marker"
     style="display:inline">
    <path
       sodipodi:type="arc"
       style="fill:#eeeeec;fill-opacity:1;stroke:#2e3436;stroke-width:4;stroke-linecap:round;stroke-linejoin:round;stroke-miterlimit:4;stroke-opacity:1;stroke-dasharray:none;stroke-dashoffset:0"
       id="path3768"
       sodipodi:cx="32.665035"
       sodipodi:cy="33.760391"
       sodipodi:rx="1.99511"
       sodipodi:ry="2.0733497"
       d="m 34.660145,33.760391 a 1.99511,2.0733497 0 1 1 -3.99022,0 1.99511,2.0733497 0 1 1 3.99022,0 z"
       transform="matrix(2.9783913,0,0,2.9783913,-65.289257,-68.551656)" />
  </g>
  <g
     inkscape:groupmode="layer"
     id="layer3"
     inkscape:label="cicle"
     style="display:none">
    <path
       sodipodi:type="arc"
       style="fill:#eeeeec;fill-opacity:1;stroke:#2e3436;stroke-width:4;stroke-linecap:square;stroke-linejoin:round;stroke-miterlimit:4;stroke-opacity:1;stroke-dasharray:none;stroke-dashoffset:0"
       id="path3759"
       sodipodi:cx="31.921761"
       sodipodi:cy="31.921761"
       sodipodi:rx="27.93154"
       sodipodi:ry="28.08802"
       d="m 59.8533,31.921761 a 27.93154,28.08802 0 1 1 -55.863079,0 27.93154,28.08802 0 1 1 55.863079,0 z"
       transform="translate(0.07823944,0.07823944)" />
  </g>
</svg>
