<?xml version="1.0" encoding="UTF-8" standalone="no"?>
<!-- Created with Inkscape (http://www.inkscape.org/) -->

<svg
   xmlns:dc="http://purl.org/dc/elements/1.1/"
   xmlns:cc="http://creativecommons.org/ns#"
   xmlns:rdf="http://www.w3.org/1999/02/22-rdf-syntax-ns#"
   xmlns:svg="http://www.w3.org/2000/svg"
   xmlns="http://www.w3.org/2000/svg"
   xmlns:xlink="http://www.w3.org/1999/xlink"
   xmlns:sodipodi="http://sodipodi.sourceforge.net/DTD/sodipodi-0.dtd"
   xmlns:inkscape="http://www.inkscape.org/namespaces/inkscape"
   width="48px"
   height="48px"
   id="svg3440"
   sodipodi:version="0.32"
   inkscape:version="0.48.1 "
   sodipodi:docname="fullext.svg"
   inkscape:output_extension="org.inkscape.output.svg.inkscape"
   version="1.1"
   inkscape:export-filename="D:\work\projects\art\fullext.png"
   inkscape:export-xdpi="30"
   inkscape:export-ydpi="30">
  <defs
     id="defs3">
    <inkscape:perspective
       sodipodi:type="inkscape:persp3d"
       inkscape:vp_x="0 : 24 : 1"
       inkscape:vp_y="0 : 1000 : 0"
       inkscape:vp_z="48 : 24 : 1"
       inkscape:persp3d-origin="24 : 16 : 1"
       id="perspective156" />
    <linearGradient
       id="linearGradient4750">
      <stop
         style="stop-color:#ffffff;stop-opacity:1;"
         offset="0"
         id="stop4752" />
      <stop
         style="stop-color:#fefefe;stop-opacity:1.0000000;"
         offset="0.37931034"
         id="stop4758" />
      <stop
         style="stop-color:#1d1d1d;stop-opacity:1.0000000;"
         offset="1.0000000"
         id="stop4754" />
    </linearGradient>
    <linearGradient
       inkscape:collect="always"
       id="linearGradient4350">
      <stop
         style="stop-color:#ffffff;stop-opacity:1;"
         offset="0"
         id="stop4352" />
      <stop
         style="stop-color:#ffffff;stop-opacity:0;"
         offset="1"
         id="stop4354" />
    </linearGradient>
    <linearGradient
       id="linearGradient4126">
      <stop
         style="stop-color:#ffffff;stop-opacity:1.0000000;"
         offset="0.0000000"
         id="stop4128" />
      <stop
         style="stop-color:#ffffff;stop-opacity:0.16494845;"
         offset="1.0000000"
         id="stop4130" />
    </linearGradient>
    <linearGradient
       inkscape:collect="always"
       id="linearGradient4114">
      <stop
         style="stop-color:#000000;stop-opacity:1;"
         offset="0"
         id="stop4116" />
      <stop
         style="stop-color:#000000;stop-opacity:0;"
         offset="1"
         id="stop4118" />
    </linearGradient>
    <linearGradient
       id="linearGradient3962">
      <stop
         style="stop-color:#d3e9ff;stop-opacity:1.0000000;"
         offset="0.0000000"
         id="stop3964" />
      <stop
         style="stop-color:#d3e9ff;stop-opacity:1.0000000;"
         offset="0.15517241"
         id="stop4134" />
      <stop
         style="stop-color:#4074ae;stop-opacity:1.0000000;"
         offset="0.75000000"
         id="stop4346" />
      <stop
         style="stop-color:#36486c;stop-opacity:1.0000000;"
         offset="1.0000000"
         id="stop3966" />
    </linearGradient>
    <radialGradient
       inkscape:collect="always"
       xlink:href="#linearGradient3962"
       id="radialGradient3968"
       gradientTransform="matrix(1.1651729,0,0,1.1651985,-4.4871345,-3.4510105)"
       cx="18.247644"
       cy="15.716079"
       fx="18.247644"
       fy="15.716079"
       r="29.993349"
       gradientUnits="userSpaceOnUse" />
    <radialGradient
       inkscape:collect="always"
       xlink:href="#linearGradient4114"
       id="radialGradient4120"
       gradientTransform="scale(1.643990,0.608276)"
       cx="15.115514"
       cy="63.965388"
       fx="15.115514"
       fy="63.965388"
       r="12.289036"
       gradientUnits="userSpaceOnUse" />
    <radialGradient
       inkscape:collect="always"
       xlink:href="#linearGradient4126"
       id="radialGradient4132"
       gradientTransform="matrix(1.1651729,0,0,1.1651985,-4.4871345,-3.4510105)"
       cx="15.601279"
       cy="12.142302"
       fx="15.601279"
       fy="12.142302"
       r="43.526714"
       gradientUnits="userSpaceOnUse" />
    <radialGradient
       inkscape:collect="always"
       xlink:href="#linearGradient4350"
       id="radialGradient4356"
       gradientTransform="scale(1.179536,0.847791)"
       cx="11.826907"
       cy="10.476453"
       fx="11.826907"
       fy="10.476453"
       r="32.664848"
       gradientUnits="userSpaceOnUse" />
    <radialGradient
       inkscape:collect="always"
       xlink:href="#linearGradient4750"
       id="radialGradient4756"
       gradientTransform="scale(1.036822,0.964486)"
       cx="18.633780"
       cy="17.486208"
       fx="18.934305"
       fy="17.810213"
       r="40.692665"
       gradientUnits="userSpaceOnUse" />
    <radialGradient
       r="40.692665"
       fy="17.810213"
       fx="18.934305"
       cy="17.486208"
       cx="18.633780"
       gradientTransform="scale(1.036822,0.964486)"
       gradientUnits="userSpaceOnUse"
       id="radialGradient1460"
       xlink:href="#linearGradient4750"
       inkscape:collect="always" />
    <radialGradient
       r="40.692665"
       fy="17.810213"
       fx="18.934305"
       cy="17.486208"
       cx="18.633780"
       gradientTransform="scale(1.036822,0.964486)"
       gradientUnits="userSpaceOnUse"
       id="radialGradient1462"
       xlink:href="#linearGradient4750"
       inkscape:collect="always" />
    <radialGradient
       r="40.692665"
       fy="17.810213"
       fx="18.934305"
       cy="17.486208"
       cx="18.633780"
       gradientTransform="scale(1.036822,0.964486)"
       gradientUnits="userSpaceOnUse"
       id="radialGradient1466"
       xlink:href="#linearGradient4750"
       inkscape:collect="always" />
    <radialGradient
       r="40.692665"
       fy="17.810213"
       fx="18.934305"
       cy="17.486208"
       cx="18.633780"
       gradientTransform="scale(1.036822,0.964486)"
       gradientUnits="userSpaceOnUse"
       id="radialGradient1468"
       xlink:href="#linearGradient4750"
       inkscape:collect="always" />
    <radialGradient
       r="40.692665"
       fy="17.810213"
       fx="18.934305"
       cy="17.486208"
       cx="18.633780"
       gradientTransform="scale(1.036822,0.964486)"
       gradientUnits="userSpaceOnUse"
       id="radialGradient1470"
       xlink:href="#linearGradient4750"
       inkscape:collect="always" />
    <radialGradient
       r="40.692665"
       fy="17.810213"
       fx="18.934305"
       cy="17.486208"
       cx="18.633780"
       gradientTransform="scale(1.036822,0.964486)"
       gradientUnits="userSpaceOnUse"
       id="radialGradient1474"
       xlink:href="#linearGradient4750"
       inkscape:collect="always" />
    <radialGradient
       r="40.692665"
       fy="17.810213"
       fx="18.934305"
       cy="17.486208"
       cx="18.633780"
       gradientTransform="scale(1.036822,0.964486)"
       gradientUnits="userSpaceOnUse"
       id="radialGradient1476"
       xlink:href="#linearGradient4750"
       inkscape:collect="always" />
    <radialGradient
       r="40.692665"
       fy="17.810213"
       fx="18.934305"
       cy="17.486208"
       cx="18.633780"
       gradientTransform="scale(1.036822,0.964486)"
       gradientUnits="userSpaceOnUse"
       id="radialGradient1478"
       xlink:href="#linearGradient4750"
       inkscape:collect="always" />
    <radialGradient
       r="40.692665"
       fy="17.810213"
       fx="18.934305"
       cy="17.486208"
       cx="18.633780"
       gradientTransform="scale(1.036822,0.964486)"
       gradientUnits="userSpaceOnUse"
       id="radialGradient1482"
       xlink:href="#linearGradient4750"
       inkscape:collect="always" />
    <radialGradient
       r="40.692665"
       fy="17.810213"
       fx="18.934305"
       cy="17.486208"
       cx="18.633780"
       gradientTransform="scale(1.036822,0.964486)"
       gradientUnits="userSpaceOnUse"
       id="radialGradient1484"
       xlink:href="#linearGradient4750"
       inkscape:collect="always" />
    <radialGradient
       r="40.692665"
       fy="17.810213"
       fx="18.934305"
       cy="17.486208"
       cx="18.633780"
       gradientTransform="scale(1.036822,0.964486)"
       gradientUnits="userSpaceOnUse"
       id="radialGradient1486"
       xlink:href="#linearGradient4750"
       inkscape:collect="always" />
    <radialGradient
       r="40.692665"
       fy="17.810213"
       fx="18.934305"
       cy="17.486208"
       cx="18.633780"
       gradientTransform="scale(1.036822,0.964486)"
       gradientUnits="userSpaceOnUse"
       id="radialGradient1490"
       xlink:href="#linearGradient4750"
       inkscape:collect="always" />
    <radialGradient
       r="40.692665"
       fy="17.810213"
       fx="18.934305"
       cy="17.486208"
       cx="18.633780"
       gradientTransform="scale(1.036822,0.964486)"
       gradientUnits="userSpaceOnUse"
       id="radialGradient1492"
       xlink:href="#linearGradient4750"
       inkscape:collect="always" />
    <radialGradient
       r="40.692665"
       fy="17.810213"
       fx="18.934305"
       cy="17.486208"
       cx="18.633780"
       gradientTransform="scale(1.036822,0.964486)"
       gradientUnits="userSpaceOnUse"
       id="radialGradient1494"
       xlink:href="#linearGradient4750"
       inkscape:collect="always" />
    <radialGradient
       r="40.692665"
       fy="17.810213"
       fx="18.934305"
       cy="17.486208"
       cx="18.633780"
       gradientTransform="scale(1.036822,0.964486)"
       gradientUnits="userSpaceOnUse"
       id="radialGradient1498"
       xlink:href="#linearGradient4750"
       inkscape:collect="always" />
    <radialGradient
       r="40.692665"
       fy="17.810213"
       fx="18.934305"
       cy="17.486208"
       cx="18.633780"
       gradientTransform="scale(1.036822,0.964486)"
       gradientUnits="userSpaceOnUse"
       id="radialGradient1500"
       xlink:href="#linearGradient4750"
       inkscape:collect="always" />
    <radialGradient
       r="40.692665"
       fy="17.810213"
       fx="18.934305"
       cy="17.486208"
       cx="18.633780"
       gradientTransform="scale(1.036822,0.964486)"
       gradientUnits="userSpaceOnUse"
       id="radialGradient1502"
       xlink:href="#linearGradient4750"
       inkscape:collect="always" />
    <radialGradient
       r="40.692665"
       fy="17.810213"
       fx="18.934305"
       cy="17.486208"
       cx="18.633780"
       gradientTransform="scale(1.036822,0.964486)"
       gradientUnits="userSpaceOnUse"
       id="radialGradient1506"
       xlink:href="#linearGradient4750"
       inkscape:collect="always" />
    <radialGradient
       r="40.692665"
       fy="17.810213"
       fx="18.934305"
       cy="17.486208"
       cx="18.633780"
       gradientTransform="scale(1.036822,0.964486)"
       gradientUnits="userSpaceOnUse"
       id="radialGradient1508"
       xlink:href="#linearGradient4750"
       inkscape:collect="always" />
    <radialGradient
       r="40.692665"
       fy="17.810213"
       fx="18.934305"
       cy="17.486208"
       cx="18.633780"
       gradientTransform="scale(1.036822,0.964486)"
       gradientUnits="userSpaceOnUse"
       id="radialGradient1510"
       xlink:href="#linearGradient4750"
       inkscape:collect="always" />
    <radialGradient
       r="40.692665"
       fy="17.810213"
       fx="18.934305"
       cy="17.486208"
       cx="18.633780"
       gradientTransform="scale(1.036822,0.964486)"
       gradientUnits="userSpaceOnUse"
       id="radialGradient1514"
       xlink:href="#linearGradient4750"
       inkscape:collect="always" />
    <radialGradient
       r="40.692665"
       fy="17.810213"
       fx="18.934305"
       cy="17.486208"
       cx="18.633780"
       gradientTransform="scale(1.036822,0.964486)"
       gradientUnits="userSpaceOnUse"
       id="radialGradient1516"
       xlink:href="#linearGradient4750"
       inkscape:collect="always" />
    <radialGradient
       r="40.692665"
       fy="17.810213"
       fx="18.934305"
       cy="17.486208"
       cx="18.633780"
       gradientTransform="scale(1.036822,0.964486)"
       gradientUnits="userSpaceOnUse"
       id="radialGradient1518"
       xlink:href="#linearGradient4750"
       inkscape:collect="always" />
    <radialGradient
       r="40.692665"
       fy="17.810213"
       fx="18.934305"
       cy="17.486208"
       cx="18.633780"
       gradientTransform="scale(1.036822,0.964486)"
       gradientUnits="userSpaceOnUse"
       id="radialGradient1522"
       xlink:href="#linearGradient4750"
       inkscape:collect="always" />
    <radialGradient
       r="40.692665"
       fy="17.810213"
       fx="18.934305"
       cy="17.486208"
       cx="18.633780"
       gradientTransform="scale(1.036822,0.964486)"
       gradientUnits="userSpaceOnUse"
       id="radialGradient1524"
       xlink:href="#linearGradient4750"
       inkscape:collect="always" />
    <radialGradient
       r="40.692665"
       fy="17.810213"
       fx="18.934305"
       cy="17.486208"
       cx="18.633780"
       gradientTransform="scale(1.036822,0.964486)"
       gradientUnits="userSpaceOnUse"
       id="radialGradient1526"
       xlink:href="#linearGradient4750"
       inkscape:collect="always" />
    <radialGradient
       r="40.692665"
       fy="17.810213"
       fx="18.934305"
       cy="17.486208"
       cx="18.633780"
       gradientTransform="scale(1.036822,0.964486)"
       gradientUnits="userSpaceOnUse"
       id="radialGradient1528"
       xlink:href="#linearGradient4750"
       inkscape:collect="always" />
    <radialGradient
       r="40.692665"
       fy="17.810213"
       fx="18.934305"
       cy="17.486208"
       cx="18.633780"
       gradientTransform="scale(1.036822,0.964486)"
       gradientUnits="userSpaceOnUse"
       id="radialGradient1530"
       xlink:href="#linearGradient4750"
       inkscape:collect="always" />
    <radialGradient
       r="40.692665"
       fy="17.810213"
       fx="18.934305"
       cy="17.486208"
       cx="18.633780"
       gradientTransform="scale(1.036822,0.964486)"
       gradientUnits="userSpaceOnUse"
       id="radialGradient1532"
       xlink:href="#linearGradient4750"
       inkscape:collect="always" />
    <radialGradient
       r="40.692665"
       fy="17.810213"
       fx="18.934305"
       cy="17.486208"
       cx="18.633780"
       gradientTransform="scale(1.036822,0.964486)"
       gradientUnits="userSpaceOnUse"
       id="radialGradient1534"
       xlink:href="#linearGradient4750"
       inkscape:collect="always" />
    <radialGradient
       r="40.692665"
       fy="17.810213"
       fx="18.934305"
       cy="17.486208"
       cx="18.633780"
       gradientTransform="scale(1.036822,0.964486)"
       gradientUnits="userSpaceOnUse"
       id="radialGradient1536"
       xlink:href="#linearGradient4750"
       inkscape:collect="always" />
    <radialGradient
       r="40.692665"
       fy="17.810213"
       fx="18.934305"
       cy="17.486208"
       cx="18.633780"
       gradientTransform="scale(1.036822,0.964486)"
       gradientUnits="userSpaceOnUse"
       id="radialGradient1538"
       xlink:href="#linearGradient4750"
       inkscape:collect="always" />
    <radialGradient
       r="40.692665"
       fy="17.810213"
       fx="18.934305"
       cy="17.486208"
       cx="18.633780"
       gradientTransform="scale(1.036822,0.964486)"
       gradientUnits="userSpaceOnUse"
       id="radialGradient1540"
       xlink:href="#linearGradient4750"
       inkscape:collect="always" />
    <radialGradient
       r="40.692665"
       fy="17.810213"
       fx="18.934305"
       cy="17.486208"
       cx="18.633780"
       gradientTransform="scale(1.036822,0.964486)"
       gradientUnits="userSpaceOnUse"
       id="radialGradient1542"
       xlink:href="#linearGradient4750"
       inkscape:collect="always" />
    <radialGradient
       r="40.692665"
       fy="17.810213"
       fx="18.934305"
       cy="17.486208"
       cx="18.633780"
       gradientTransform="scale(1.036822,0.964486)"
       gradientUnits="userSpaceOnUse"
       id="radialGradient1544"
       xlink:href="#linearGradient4750"
       inkscape:collect="always" />
    <radialGradient
       r="40.692665"
       fy="17.810213"
       fx="18.934305"
       cy="17.486208"
       cx="18.633780"
       gradientTransform="scale(1.036822,0.964486)"
       gradientUnits="userSpaceOnUse"
       id="radialGradient1546"
       xlink:href="#linearGradient4750"
       inkscape:collect="always" />
    <radialGradient
       r="40.692665"
       fy="17.810213"
       fx="18.934305"
       cy="17.486208"
       cx="18.633780"
       gradientTransform="scale(1.036822,0.964486)"
       gradientUnits="userSpaceOnUse"
       id="radialGradient1550"
       xlink:href="#linearGradient4750"
       inkscape:collect="always" />
    <radialGradient
       r="40.692665"
       fy="17.810213"
       fx="18.934305"
       cy="17.486208"
       cx="18.633780"
       gradientTransform="scale(1.036822,0.964486)"
       gradientUnits="userSpaceOnUse"
       id="radialGradient1552"
       xlink:href="#linearGradient4750"
       inkscape:collect="always" />
    <radialGradient
       r="40.692665"
       fy="17.810213"
       fx="18.934305"
       cy="17.486208"
       cx="18.633780"
       gradientTransform="scale(1.036822,0.964486)"
       gradientUnits="userSpaceOnUse"
       id="radialGradient1554"
       xlink:href="#linearGradient4750"
       inkscape:collect="always" />
    <radialGradient
       r="40.692665"
       fy="17.810213"
       fx="18.934305"
       cy="17.486208"
       cx="18.633780"
       gradientTransform="scale(1.036822,0.964486)"
       gradientUnits="userSpaceOnUse"
       id="radialGradient1558"
       xlink:href="#linearGradient4750"
       inkscape:collect="always" />
  </defs>
  <sodipodi:namedview
     id="base"
     pagecolor="#ffffff"
     bordercolor="#666666"
     borderopacity="0.17254902"
     inkscape:pageopacity="0.0"
     inkscape:pageshadow="2"
     inkscape:zoom="3.5"
     inkscape:cx="-24.062048"
     inkscape:cy="32.292895"
     inkscape:current-layer="layer1"
     showgrid="false"
     inkscape:grid-bbox="true"
     inkscape:document-units="px"
     inkscape:window-width="1264"
     inkscape:window-height="764"
     inkscape:window-x="0"
     inkscape:window-y="30"
     inkscape:showpageshadow="false"
     inkscape:window-maximized="0" />
  <metadata
     id="metadata4">
    <rdf:RDF>
      <cc:Work
         rdf:about="">
        <dc:format>image/svg+xml</dc:format>
        <dc:type
           rdf:resource="http://purl.org/dc/dcmitype/StillImage" />
        <dc:title></dc:title>
        <dc:creator>
          <cc:Agent>
            <dc:title>Jakub Steiner</dc:title>
          </cc:Agent>
        </dc:creator>
        <dc:contributor>
          <cc:Agent>
            <dc:title>Tuomas Kuosmanen</dc:title>
          </cc:Agent>
        </dc:contributor>
        <cc:license
           rdf:resource="http://creativecommons.org/licenses/publicdomain/" />
        <dc:source>http://jimmac.musichall.cz</dc:source>
        <dc:subject>
          <rdf:Bag>
            <rdf:li>globe</rdf:li>
            <rdf:li>international</rdf:li>
            <rdf:li>web</rdf:li>
            <rdf:li>www</rdf:li>
            <rdf:li>internet</rdf:li>
            <rdf:li>network</rdf:li>
          </rdf:Bag>
        </dc:subject>
      </cc:Work>
      <cc:License
         rdf:about="http://creativecommons.org/licenses/publicdomain/">
        <cc:permits
           rdf:resource="http://creativecommons.org/ns#Reproduction" />
        <cc:permits
           rdf:resource="http://creativecommons.org/ns#Distribution" />
        <cc:permits
           rdf:resource="http://creativecommons.org/ns#DerivativeWorks" />
      </cc:License>
    </rdf:RDF>
  </metadata>
  <g
     id="layer1"
     inkscape:label="Layer 1"
     inkscape:groupmode="layer">
    <path
       style="fill:url(#radialGradient3968);fill-opacity:1;fill-rule:nonzero;stroke:#39396c;stroke-width:1.16518569;stroke-miterlimit:4;stroke-opacity:1"
       d="m 46.734257,23.913957 c 0,12.47881 -10.116262,22.594958 -22.593356,22.594958 -12.478237,0 -22.5939276,-10.116262 -22.5939276,-22.594958 0,-12.478238 10.1156906,-22.5933554 22.5939276,-22.5933554 12.477094,0 22.593356,10.1151174 22.593356,22.5933554 l 0,0 z"
       id="path3214"
       inkscape:connector-curvature="0" />
    <g
       id="g4136"
       style="fill:#000000;fill-opacity:0.71345029;fill-rule:nonzero;stroke:none"
       transform="matrix(1.1446446,0,0,1.1446446,-4.3460549,-3.1796224)">
      <g
         id="g4138">
        <g
           id="g4142">
          <path
             d="m 44.0713,20.7144 c 0,0.2627 0,0 0,0 l -0.5449,0.6172 c -0.334,-0.3936 -0.709,-0.7246 -1.0898,-1.0703 l -0.8359,0.123 -0.7637,-0.8633 0,1.0684 0.6543,0.4951 0.4355,0.4932 0.582,-0.6582 c 0.1465,0.2744 0.291,0.5488 0.4365,0.8232 l 0,0.8223 -0.6553,0.7402 -1.1992,0.8232 -0.9082,0.9063 -0.582,-0.6602 0.291,-0.7402 -0.5811,-0.6582 -0.9814,-2.0977 -0.8359,-0.9453 -0.2188,0.2461 0.3281,1.1934 0.6172,0.6992 c 0.3525,1.0176 0.7012,1.9902 1.1641,2.9629 0.7178,0 1.3945,-0.0762 2.1074,-0.166 l 0,0.5762 -0.8721,2.1392 -0.7998,0.9043 -0.6543,1.4004 c 0,0.7676 0,1.5352 0,2.3027 l 0.2188,0.9063 -0.3633,0.4102 -0.8008,0.4941 -0.8359,0.6992 0.6914,0.7813 -0.9453,0.8242 0.1816,0.5332 -1.418,1.6055 -0.9443,0 -0.7998,0.4941 -0.5098,0 0,-0.6582 -0.2168,-1.3184 c -0.2813,-0.8262 -0.5742,-1.6465 -0.8721,-2.4668 0,-0.6055 0.0361,-1.2051 0.0723,-1.8105 l 0.3643,-0.8223 -0.5098,-0.9883 0.0371,-1.3574 -0.6914,-0.7813 0.3457,-1.1309 -0.5625,-0.6382 -0.9824,0 -0.3271,-0.3701 -0.9814,0.6177 -0.3994,-0.4536 -0.9092,0.7817 c -0.6172,-0.6997 -1.2354,-1.3989 -1.8535,-2.0981 l -0.7266,-1.7285 0.6543,-0.9863 -0.3633,-0.4111 0.7988,-1.8936 c 0.6563,-0.8164 1.3418,-1.5996 2.0352,-2.3857 l 1.2363,-0.3291 1.3809,-0.1641 0.9453,0.2471 1.3447,1.3564 0.4727,-0.5342 0.6533,-0.082 1.2363,0.4111 0.9453,0 0.6543,-0.5762 0.291,-0.4111 -0.6553,-0.4111 -1.0908,-0.082 c -0.3027,-0.4199 -0.584,-0.8613 -0.9434,-1.2344 l -0.3643,0.1641 -0.1455,1.0703 -0.6543,-0.7402 -0.1445,-0.8242 -0.7266,-0.5742 -0.292,0 0.7275,0.8223 -0.291,0.7402 -0.5811,0.1641 0.3633,-0.7402 -0.6553,-0.3281 -0.5801,-0.6582 -1.0918,0.2461 -0.1445,0.3281 -0.6543,0.4121 -0.3633,0.9053 -0.9082,0.4521 -0.4004,-0.4521 -0.4355,0 0,-1.4814 0.9453,-0.4941 0.7266,0 -0.1465,-0.5752 -0.5801,-0.5762 0.9805,-0.2061 0.5449,-0.6162 0.4355,-0.7412 0.8008,0 -0.2188,-0.5752 0.5098,-0.3291 0,0.6582 1.0898,0.2461 1.0898,-0.9043 0.0732,-0.4121 0.9443,-0.6577 c -0.3418,0.0425 -0.6836,0.0737 -1.0176,0.1646 l 0,-0.7411 0.3633,-0.8228 -0.3633,0 -0.7984,0.7402 -0.2188,0.4116 0.2188,0.5767 -0.3643,0.9863 -0.5811,-0.3291 -0.5078,-0.5752 -0.8008,0.5752 -0.291,-1.3159 1.3809,-0.9048 0,-0.4941 0.873,-0.5757 1.3809,-0.3296 0.9453,0.3296 1.7441,0.3291 -0.4355,0.4932 -0.9453,0 0.9453,0.9873 0.7266,-0.8223 0.2207,-0.3618 c 0,0 2.7871,2.498 4.3799,5.2305 1.5928,2.7334 2.3408,5.9551 2.3408,6.6094 z"
             id="path4144"
             inkscape:connector-curvature="0" />
        </g>
      </g>
      <g
         id="g4146">
        <g
           id="g4150">
          <path
             d="m 26.0703,9.2363 -0.0732,0.4932 0.5098,0.3291 0.8711,-0.5757 -0.4355,-0.4937 -0.582,0.3296 -0.29,-0.0825"
             id="path4152"
             inkscape:connector-curvature="0" />
        </g>
      </g>
      <g
         id="g4154">
        <g
           id="g4158">
          <path
             d="m 26.8701,5.8633 -1.8906,-0.7407 -2.1797,0.2466 -2.6904,0.7402 -0.5088,0.4941 1.6719,1.1514 0,0.6582 -0.6543,0.6582 0.873,1.729 0.5801,-0.3301 0.7285,-1.1514 c 1.123,-0.3472 2.1299,-0.7407 3.1973,-1.2344 l 0.873,-2.2212"
             id="path4160"
             inkscape:connector-curvature="0" />
        </g>
      </g>
      <g
         id="g4162">
        <g
           id="g4166">
          <path
             d="m 28.833,12.7749 -0.291,-0.7412 -0.5098,0.165 0.1465,0.9043 0.6543,-0.3281"
             id="path4168"
             inkscape:connector-curvature="0" />
        </g>
      </g>
      <g
         id="g4170">
        <g
           id="g4174">
          <path
             d="m 29.123,12.6089 -0.1455,0.9883 0.7998,-0.165 0.5811,-0.5752 -0.5088,-0.4941 C 29.6787,11.9078 29.4824,11.483 29.2685,11.0465 l -0.4355,0 0,0.4932 0.29,0.3291 0,0.7402"
             id="path4176"
             inkscape:connector-curvature="0" />
        </g>
      </g>
      <g
         id="g4178">
        <g
           id="g4182">
          <path
             d="m 18.3652,28.2422 -0.582,-1.1523 -1.0903,-0.2466 -0.5815,-1.5625 -1.4536,0.1641 -1.2354,-0.9043 -1.3091,1.1514 0,0.1816 c -0.396,-0.1143 -0.8828,-0.1299 -1.2354,-0.3467 l -0.291,-0.8223 0,-0.9053 -0.8721,0.082 c 0.0728,-0.5762 0.145,-1.1514 0.2183,-1.7275 l -0.5093,0 -0.5083,0.6582 -0.5093,0.2461 -0.7271,-0.4102 -0.0728,-0.9053 0.1455,-0.9873 1.0908,-0.8223 0.8721,0 0.145,-0.4941 1.0903,0.2461 0.7998,0.9883 0.1455,-1.6465 1.3813,-1.1514 0.5088,-1.2344 1.0176,-0.4111 0.5815,-0.8223 1.3081,-0.248 0.6548,-0.9863 c -0.6543,0 -1.3086,0 -1.9629,0 l 1.2358,-0.5762 0.8716,0 1.2363,-0.4121 0.1455,-0.4922 -0.4365,-0.4121 -0.5088,-0.165 0.1455,-0.4932 -0.3633,-0.7402 -0.8726,0.3281 0.1455,-0.6577 -1.0176,-0.5762 -0.7993,1.3979 0.0723,0.4941 -0.7993,0.3301 -0.5093,1.0693 -0.2178,-0.9873 -1.3813,-0.5762 -0.2183,-0.7402 1.8174,-1.0703 0.7998,-0.7402 0.0728,-0.9048 -0.436,-0.2471 -0.5815,-0.0825 -0.3633,0.9053 c 0,0 -0.6079,0.1191 -0.7642,0.1577 -1.9961,1.8394 -6.0293,5.8101 -6.9663,13.3062 0.0371,0.1738 0.6792,1.1816 0.6792,1.1816 l 1.5264,0.9043 1.5264,0.4121 0.6548,0.8232 1.0171,0.7402 0.5815,-0.082 0.436,0.1963 0,0.1328 -0.5811,1.563 -0.4365,0.6582 0.1455,0.3301 -0.3633,1.2324 1.3086,2.3867 1.3081,1.1523 0.582,0.8223 -0.0732,1.7285 0.4365,0.9863 -0.4365,1.8926 c 0,0 -0.0342,-0.0117 0.0215,0.1777 0.0562,0.1895 2.3291,1.4512 2.4736,1.3438 0.144,-0.1094 0.2671,-0.2051 0.2671,-0.2051 l -0.145,-0.4102 0.5811,-0.5762 0.2183,-0.5762 0.9453,-0.3301 0.7266,-1.8105 -0.2178,-0.4922 0.5078,-0.7402 1.0908,-0.248 0.582,-1.3164 -0.1455,-1.6445 0.8721,-1.2344 0.1455,-1.2344 C 20.7331,29.4607 19.5495,28.8513 18.365,28.242"
             id="path4184"
             inkscape:connector-curvature="0" />
        </g>
      </g>
      <g
         id="g4186">
        <g
           id="g4190">
          <path
             d="m 16.7656,9.5649 0.7266,0.4937 0.582,0 0,-0.5757 -0.7266,-0.3291 -0.582,0.4111"
             id="path4192"
             inkscape:connector-curvature="0" />
        </g>
      </g>
      <g
         id="g4194">
        <g
           id="g4198">
          <path
             d="m 14.876,8.9072 -0.3638,0.9048 0.7271,0 0.3638,-0.8228 C 15.9166,8.7675 16.2286,8.5444 16.5479,8.331 l 0.7271,0.2471 c 0.4844,0.3291 0.9688,0.6582 1.4536,0.9868 L 19.4561,8.9072 18.6558,8.5781 18.292,7.8374 16.9111,7.6728 16.8383,7.2612 16.184,7.4262 15.8936,8.002 15.5298,7.2613 l -0.145,0.3291 0.0728,0.8228 -0.5816,0.494"
             id="path4200"
             inkscape:connector-curvature="0" />
        </g>
      </g>
      <g
         id="g4202">
        <g
           style="opacity:0.75"
           id="g4204">
          <path
             id="path4206"
             d=""
             inkscape:connector-curvature="0" />
        </g>
        <g
           id="g4208">
          <path
             id="path4210"
             d=""
             inkscape:connector-curvature="0" />
        </g>
      </g>
      <g
         id="g4212">
        <g
           style="opacity:0.75"
           id="g4214">
          <path
             id="path4216"
             d=""
             inkscape:connector-curvature="0" />
        </g>
        <g
           id="g4218">
          <path
             id="path4220"
             d=""
             inkscape:connector-curvature="0" />
        </g>
      </g>
      <g
         id="g4222">
        <g
           id="g4226">
          <path
             d="M 17.4922,6.8496 17.856,6.521 18.5831,6.3564 c 0.498,-0.2422 0.998,-0.4053 1.5264,-0.5762 l -0.29,-0.4937 -0.9385,0.1348 -0.4434,0.4419 -0.731,0.106 -0.6499,0.3052 -0.3159,0.1528 -0.1929,0.2583 0.9443,0.1641"
             id="path4228"
             inkscape:connector-curvature="0" />
        </g>
      </g>
      <g
         id="g4230">
        <g
           id="g4234">
          <path
             d="m 18.7285,14.6665 0.4365,-0.6582 -0.6548,-0.4932 0.2183,1.1514"
             id="path4236"
             inkscape:connector-curvature="0" />
        </g>
      </g>
    </g>
    <g
       id="g3216"
       style="color:#000000;fill:url(#radialGradient1460);fill-opacity:1;fill-rule:nonzero;stroke:none;stroke-width:1.01794541;marker:none;visibility:visible;display:inline;overflow:visible"
       transform="matrix(1.1446446,0,0,1.1446446,-4.5814583,-3.4150261)">
      <g
         id="g3218"
         style="color:#000000;fill:url(#radialGradient1462);marker:none;visibility:visible;display:inline;overflow:visible">
        <g
           id="g3222"
           style="color:#000000;fill:url(#radialGradient1466);marker:none;visibility:visible;display:inline;overflow:visible">
          <path
             d="m 44.0713,20.7144 c 0,0.2627 0,0 0,0 l -0.5449,0.6172 c -0.334,-0.3936 -0.709,-0.7246 -1.0898,-1.0703 l -0.8359,0.123 -0.7637,-0.8633 0,1.0684 0.6543,0.4951 0.4355,0.4932 0.582,-0.6582 c 0.1465,0.2744 0.291,0.5488 0.4365,0.8232 l 0,0.8223 -0.6553,0.7402 -1.1992,0.8232 -0.9082,0.9063 -0.582,-0.6602 0.291,-0.7402 -0.5811,-0.6582 -0.9814,-2.0977 -0.8359,-0.9453 -0.2188,0.2461 0.3281,1.1934 0.6172,0.6992 c 0.3525,1.0176 0.7012,1.9902 1.1641,2.9629 0.7178,0 1.3945,-0.0762 2.1074,-0.166 l 0,0.5762 -0.8721,2.1392 -0.7998,0.9043 -0.6543,1.4004 c 0,0.7676 0,1.5352 0,2.3027 l 0.2188,0.9063 -0.3633,0.4102 -0.8008,0.4941 -0.8359,0.6992 0.6914,0.7813 -0.9453,0.8242 0.1816,0.5332 -1.418,1.6055 -0.9443,0 -0.7998,0.4941 -0.5098,0 0,-0.6582 -0.2168,-1.3184 c -0.2813,-0.8262 -0.5742,-1.6465 -0.8721,-2.4668 0,-0.6055 0.0361,-1.2051 0.0723,-1.8105 l 0.3643,-0.8223 -0.5098,-0.9883 0.0371,-1.3574 -0.6914,-0.7813 0.3457,-1.1309 -0.5625,-0.6382 -0.9824,0 -0.3271,-0.3701 -0.9814,0.6177 -0.3994,-0.4536 -0.9092,0.7817 c -0.6172,-0.6997 -1.2354,-1.3989 -1.8535,-2.0981 l -0.7266,-1.7285 0.6543,-0.9863 -0.3633,-0.4111 0.7988,-1.8936 c 0.6563,-0.8164 1.3418,-1.5996 2.0352,-2.3857 l 1.2363,-0.3291 1.3809,-0.1641 0.9453,0.2471 1.3447,1.3564 0.4727,-0.5342 0.6533,-0.082 1.2363,0.4111 0.9453,0 0.6543,-0.5762 0.291,-0.4111 -0.6553,-0.4111 -1.0908,-0.082 c -0.3027,-0.4199 -0.584,-0.8613 -0.9434,-1.2344 l -0.3643,0.1641 -0.1455,1.0703 -0.6543,-0.7402 -0.1445,-0.8242 -0.7266,-0.5742 -0.292,0 0.7275,0.8223 -0.291,0.7402 -0.5811,0.1641 0.3633,-0.7402 -0.6553,-0.3281 -0.5801,-0.6582 -1.0918,0.2461 -0.1445,0.3281 -0.6543,0.4121 -0.3633,0.9053 -0.9082,0.4521 -0.4004,-0.4521 -0.4355,0 0,-1.4814 0.9453,-0.4941 0.7266,0 -0.1465,-0.5752 -0.5801,-0.5762 0.9805,-0.2061 0.5449,-0.6162 0.4355,-0.7412 0.8008,0 -0.2188,-0.5752 0.5098,-0.3291 0,0.6582 1.0898,0.2461 1.0898,-0.9043 0.0732,-0.4121 0.9443,-0.6577 c -0.3418,0.0425 -0.6836,0.0737 -1.0176,0.1646 l 0,-0.7411 0.3633,-0.8228 -0.3633,0 -0.7984,0.7402 -0.2188,0.4116 0.2188,0.5767 -0.3643,0.9863 -0.5811,-0.3291 -0.5078,-0.5752 -0.8008,0.5752 -0.291,-1.3159 1.3809,-0.9048 0,-0.4941 0.873,-0.5757 1.3809,-0.3296 0.9453,0.3296 1.7441,0.3291 -0.4355,0.4932 -0.9453,0 0.9453,0.9873 0.7266,-0.8223 0.2207,-0.3618 c 0,0 2.7871,2.498 4.3799,5.2305 1.5928,2.7334 2.3408,5.9551 2.3408,6.6094 z"
             id="path3224"
             style="color:#000000;fill:url(#radialGradient1468);marker:none;visibility:visible;display:inline;overflow:visible"
             inkscape:connector-curvature="0" />
        </g>
      </g>
      <g
         id="g3226"
         style="color:#000000;fill:url(#radialGradient1470);marker:none;visibility:visible;display:inline;overflow:visible">
        <g
           id="g3230"
           style="color:#000000;fill:url(#radialGradient1474);marker:none;visibility:visible;display:inline;overflow:visible">
          <path
             d="m 26.0703,9.2363 -0.0732,0.4932 0.5098,0.3291 0.8711,-0.5757 -0.4355,-0.4937 -0.582,0.3296 -0.29,-0.0825"
             id="path3232"
             style="color:#000000;fill:url(#radialGradient1476);marker:none;visibility:visible;display:inline;overflow:visible"
             inkscape:connector-curvature="0" />
        </g>
      </g>
      <g
         id="g3234"
         style="color:#000000;fill:url(#radialGradient1478);marker:none;visibility:visible;display:inline;overflow:visible">
        <g
           id="g3238"
           style="color:#000000;fill:url(#radialGradient1482);marker:none;visibility:visible;display:inline;overflow:visible">
          <path
             d="m 26.8701,5.8633 -1.8906,-0.7407 -2.1797,0.2466 -2.6904,0.7402 -0.5088,0.4941 1.6719,1.1514 0,0.6582 -0.6543,0.6582 0.873,1.729 0.5801,-0.3301 0.7285,-1.1514 c 1.123,-0.3472 2.1299,-0.7407 3.1973,-1.2344 l 0.873,-2.2212"
             id="path3240"
             style="color:#000000;fill:url(#radialGradient1484);marker:none;visibility:visible;display:inline;overflow:visible"
             inkscape:connector-curvature="0" />
        </g>
      </g>
      <g
         id="g3242"
         style="color:#000000;fill:url(#radialGradient1486);marker:none;visibility:visible;display:inline;overflow:visible">
        <g
           id="g3246"
           style="color:#000000;fill:url(#radialGradient1490);marker:none;visibility:visible;display:inline;overflow:visible">
          <path
             d="m 28.833,12.7749 -0.291,-0.7412 -0.5098,0.165 0.1465,0.9043 0.6543,-0.3281"
             id="path3248"
             style="color:#000000;fill:url(#radialGradient1492);marker:none;visibility:visible;display:inline;overflow:visible"
             inkscape:connector-curvature="0" />
        </g>
      </g>
      <g
         id="g3250"
         style="color:#000000;fill:url(#radialGradient1494);marker:none;visibility:visible;display:inline;overflow:visible">
        <g
           id="g3254"
           style="color:#000000;fill:url(#radialGradient1498);marker:none;visibility:visible;display:inline;overflow:visible">
          <path
             d="m 29.123,12.6089 -0.1455,0.9883 0.7998,-0.165 0.5811,-0.5752 -0.5088,-0.4941 C 29.6787,11.9078 29.4824,11.483 29.2685,11.0465 l -0.4355,0 0,0.4932 0.29,0.3291 0,0.7402"
             id="path3256"
             style="color:#000000;fill:url(#radialGradient1500);marker:none;visibility:visible;display:inline;overflow:visible"
             inkscape:connector-curvature="0" />
        </g>
      </g>
      <g
         id="g3258"
         style="color:#000000;fill:url(#radialGradient1502);marker:none;visibility:visible;display:inline;overflow:visible">
        <g
           id="g3262"
           style="color:#000000;fill:url(#radialGradient1506);marker:none;visibility:visible;display:inline;overflow:visible">
          <path
             d="m 18.3652,28.2422 -0.582,-1.1523 -1.0903,-0.2466 -0.5815,-1.5625 -1.4536,0.1641 -1.2354,-0.9043 -1.3091,1.1514 0,0.1816 c -0.396,-0.1143 -0.8828,-0.1299 -1.2354,-0.3467 l -0.291,-0.8223 0,-0.9053 -0.8721,0.082 c 0.0728,-0.5762 0.145,-1.1514 0.2183,-1.7275 l -0.5093,0 -0.5083,0.6582 -0.5093,0.2461 -0.7271,-0.4102 -0.0728,-0.9053 0.1455,-0.9873 1.0908,-0.8223 0.8721,0 0.145,-0.4941 1.0903,0.2461 0.7998,0.9883 0.1455,-1.6465 1.3813,-1.1514 0.5088,-1.2344 1.0176,-0.4111 0.5815,-0.8223 1.3081,-0.248 0.6548,-0.9863 c -0.6543,0 -1.3086,0 -1.9629,0 l 1.2358,-0.5762 0.8716,0 1.2363,-0.4121 0.1455,-0.4922 -0.4365,-0.4121 -0.5088,-0.165 0.1455,-0.4932 -0.3633,-0.7402 -0.8726,0.3281 0.1455,-0.6577 -1.0176,-0.5762 -0.7993,1.3979 0.0723,0.4941 -0.7993,0.3301 -0.5093,1.0693 -0.2178,-0.9873 -1.3813,-0.5762 -0.2183,-0.7402 1.8174,-1.0703 0.7998,-0.7402 0.0728,-0.9048 -0.436,-0.2471 -0.5815,-0.0825 -0.3633,0.9053 c 0,0 -0.6079,0.1191 -0.7642,0.1577 -1.9961,1.8394 -6.0293,5.8101 -6.9663,13.3062 0.0371,0.1738 0.6792,1.1816 0.6792,1.1816 l 1.5264,0.9043 1.5264,0.4121 0.6548,0.8232 1.0171,0.7402 0.5815,-0.082 0.436,0.1963 0,0.1328 -0.5811,1.563 -0.4365,0.6582 0.1455,0.3301 -0.3633,1.2324 1.3086,2.3867 1.3081,1.1523 0.582,0.8223 -0.0732,1.7285 0.4365,0.9863 -0.4365,1.8926 c 0,0 -0.0342,-0.0117 0.0215,0.1777 0.0562,0.1895 2.3291,1.4512 2.4736,1.3438 0.144,-0.1094 0.2671,-0.2051 0.2671,-0.2051 l -0.145,-0.4102 0.5811,-0.5762 0.2183,-0.5762 0.9453,-0.3301 0.7266,-1.8105 -0.2178,-0.4922 0.5078,-0.7402 1.0908,-0.248 0.582,-1.3164 -0.1455,-1.6445 0.8721,-1.2344 0.1455,-1.2344 C 20.7331,29.4607 19.5495,28.8513 18.365,28.242"
             id="path3264"
             style="color:#000000;fill:url(#radialGradient1508);marker:none;visibility:visible;display:inline;overflow:visible"
             inkscape:connector-curvature="0" />
        </g>
      </g>
      <g
         id="g3266"
         style="color:#000000;fill:url(#radialGradient1510);marker:none;visibility:visible;display:inline;overflow:visible">
        <g
           id="g3270"
           style="color:#000000;fill:url(#radialGradient1514);marker:none;visibility:visible;display:inline;overflow:visible">
          <path
             d="m 16.7656,9.5649 0.7266,0.4937 0.582,0 0,-0.5757 -0.7266,-0.3291 -0.582,0.4111"
             id="path3272"
             style="color:#000000;fill:url(#radialGradient1516);marker:none;visibility:visible;display:inline;overflow:visible"
             inkscape:connector-curvature="0" />
        </g>
      </g>
      <g
         id="g3274"
         style="color:#000000;fill:url(#radialGradient1518);marker:none;visibility:visible;display:inline;overflow:visible">
        <g
           id="g3278"
           style="color:#000000;fill:url(#radialGradient1522);marker:none;visibility:visible;display:inline;overflow:visible">
          <path
             d="m 14.876,8.9072 -0.3638,0.9048 0.7271,0 0.3638,-0.8228 C 15.9166,8.7675 16.2286,8.5444 16.5479,8.331 l 0.7271,0.2471 c 0.4844,0.3291 0.9688,0.6582 1.4536,0.9868 L 19.4561,8.9072 18.6558,8.5781 18.292,7.8374 16.9111,7.6728 16.8383,7.2612 16.184,7.4262 15.8936,8.002 15.5298,7.2613 l -0.145,0.3291 0.0728,0.8228 -0.5816,0.494"
             id="path3280"
             style="color:#000000;fill:url(#radialGradient1524);marker:none;visibility:visible;display:inline;overflow:visible"
             inkscape:connector-curvature="0" />
        </g>
      </g>
      <g
         id="g3282"
         style="color:#000000;fill:url(#radialGradient1526);marker:none;visibility:visible;display:inline;overflow:visible">
        <g
           style="opacity:0.75;color:#000000;fill:url(#radialGradient1528);marker:none;visibility:visible;display:inline;overflow:visible"
           id="g3284">
          <path
             d=""
             style="color:#000000;fill:url(#radialGradient1530);marker:none;visibility:visible;display:inline;overflow:visible"
             id="path3286"
             inkscape:connector-curvature="0" />
        </g>
        <g
           id="g3288"
           style="color:#000000;fill:url(#radialGradient1532);marker:none;visibility:visible;display:inline;overflow:visible">
          <path
             d=""
             id="path3290"
             style="color:#000000;fill:url(#radialGradient1534);marker:none;visibility:visible;display:inline;overflow:visible"
             inkscape:connector-curvature="0" />
        </g>
      </g>
      <g
         id="g3292"
         style="color:#000000;fill:url(#radialGradient1536);marker:none;visibility:visible;display:inline;overflow:visible">
        <g
           style="opacity:0.75;color:#000000;fill:url(#radialGradient1538);marker:none;visibility:visible;display:inline;overflow:visible"
           id="g3294">
          <path
             d=""
             style="color:#000000;fill:url(#radialGradient1540);marker:none;visibility:visible;display:inline;overflow:visible"
             id="path3296"
             inkscape:connector-curvature="0" />
        </g>
        <g
           id="g3298"
           style="color:#000000;fill:url(#radialGradient1542);marker:none;visibility:visible;display:inline;overflow:visible">
          <path
             d=""
             id="path3300"
             style="color:#000000;fill:url(#radialGradient1544);marker:none;visibility:visible;display:inline;overflow:visible"
             inkscape:connector-curvature="0" />
        </g>
      </g>
      <g
         id="g3302"
         style="color:#000000;fill:url(#radialGradient1546);marker:none;visibility:visible;display:inline;overflow:visible">
        <g
           id="g3306"
           style="color:#000000;fill:url(#radialGradient1550);marker:none;visibility:visible;display:inline;overflow:visible">
          <path
             d="M 17.4922,6.8496 17.856,6.521 18.5831,6.3564 c 0.498,-0.2422 0.998,-0.4053 1.5264,-0.5762 l -0.29,-0.4937 -0.9385,0.1348 -0.4434,0.4419 -0.731,0.106 -0.6499,0.3052 -0.3159,0.1528 -0.1929,0.2583 0.9443,0.1641"
             id="path3308"
             style="color:#000000;fill:url(#radialGradient1552);marker:none;visibility:visible;display:inline;overflow:visible"
             inkscape:connector-curvature="0" />
        </g>
      </g>
      <g
         id="g3310"
         style="color:#000000;fill:url(#radialGradient1554);marker:none;visibility:visible;display:inline;overflow:visible">
        <g
           id="g3314"
           style="color:#000000;fill:url(#radialGradient1558);marker:none;visibility:visible;display:inline;overflow:visible">
          <path
             d="m 18.7285,14.6665 0.4365,-0.6582 -0.6548,-0.4932 0.2183,1.1514"
             id="path3316"
             style="color:#000000;fill:url(#radialGradient4756);marker:none;visibility:visible;display:inline;overflow:visible"
             inkscape:connector-curvature="0" />
        </g>
      </g>
    </g>
    <path
       style="fill:none;stroke:url(#radialGradient4132);stroke-width:1.16518569;stroke-miterlimit:4;stroke-opacity:1"
       d="m 45.586828,23.913997 c 0,11.845068 -9.602502,21.447464 -21.445941,21.447464 -11.844525,0 -21.4464855,-9.602504 -21.4464855,-21.447464 0,-11.844525 9.6019605,-21.4459411 21.4464855,-21.4459411 11.843439,0 21.445941,9.6014161 21.445941,21.4459411 l 0,0 z"
       id="path4122"
       inkscape:connector-curvature="0" />
  </g>
</svg>
